<?xml version="1.0" encoding="UTF-8"?>
<svg version="1.1" xmlns="http://www.w3.org/2000/svg" width="200" height="188">
<path d="M0 0 C66 0 132 0 200 0 C200 62.04 200 124.08 200 188 C134 188 68 188 0 188 C0 125.96 0 63.92 0 0 Z " fill="#FEFEFE" transform="translate(0,0)"/>
<path d="M0 0 C2.4375 2.0625 2.4375 2.0625 4 5 C4 8.86735216 3.56620823 11.13936349 1.4375 14.375 C-2.03178003 16.68785335 -4.8593331 16.72395554 -9 17 C-8.505 18.485 -8.505 18.485 -8 20 C-8.66 20 -9.32 20 -10 20 C-10.33 20.66 -10.66 21.32 -11 22 C-19.58 22.33 -28.16 22.66 -37 23 C-36.505 30.425 -36.505 30.425 -36 38 C-28.08 38.33 -20.16 38.66 -12 39 C-12 41.64 -12 44.28 -12 47 C-16.52061442 47.11668418 -21.04083847 47.18741645 -25.5625 47.25 C-27.47772461 47.30027344 -27.47772461 47.30027344 -29.43164062 47.3515625 C-36.49876409 47.42498716 -41.29365757 47.35913076 -47 43 C-47.33 44.65 -47.66 46.3 -48 48 C-48.99 47.505 -48.99 47.505 -50 47 C-52.55106029 46.84355828 -55.07918663 46.74178611 -57.6328125 46.68359375 C-58.76056595 46.6524221 -58.76056595 46.6524221 -59.91110229 46.62062073 C-62.31564085 46.55517295 -64.72028967 46.49626262 -67.125 46.4375 C-68.75391771 46.39431023 -70.38282422 46.35069579 -72.01171875 46.30664062 C-76.00770106 46.19869615 -80.00376564 46.09958802 -84 46 C-84 35.44 -84 24.88 -84 14 C-68.25 13.625 -68.25 13.625 -63.29785156 13.52197266 C-62.0084668 13.4863623 -60.71908203 13.45075195 -59.390625 13.4140625 C-58.72015137 13.40270264 -58.04967773 13.39134277 -57.35888672 13.37963867 C-53.72539395 13.26736023 -51.12197554 12.88426388 -48 11 C-46.6757713 10.63215869 -45.34386088 10.28797019 -44 10 C-44 10.66 -44 11.32 -44 12 C-42.68 11.67 -41.36 11.34 -40 11 C-40 11.33 -40 11.66 -40 12 C-25.15 12.495 -25.15 12.495 -10 13 C-10 10.03 -10 7.06 -10 4 C-7.37166185 -0.14468709 -4.77540339 -0.89538814 0 0 Z " fill="#070770" transform="translate(184,63)"/>
<path d="M0 0 C4.95 0 9.9 0 15 0 C15 1.98 15 3.96 15 6 C18.81248345 6.02936502 22.62493726 6.04692035 26.4375 6.0625 C28.04141602 6.07506836 28.04141602 6.07506836 29.67773438 6.08789062 C35.1729582 6.10469559 40.50910261 5.93140893 45.96020508 5.23803711 C54.18880883 4.27778712 62.68786505 3.71972588 70 8 C70 7.34 70 6.68 70 6 C70.969375 5.71125 71.93875 5.4225 72.9375 5.125 C76.10664203 4.35785318 76.10664203 4.35785318 77 2 C77.66 2 78.32 2 79 2 C79.495 2.99 79.495 2.99 80 4 C82.64797776 4.26065105 85.22074462 4.42152636 87.875 4.5 C95.59602116 4.73068077 95.59602116 4.73068077 99 7 C99 8.32 99 9.64 99 11 C98.34 11 97.68 11 97 11 C96.34 11.66 95.68 12.32 95 13 C95 12.34 95 11.68 95 11 C94.26136719 11.22816406 93.52273437 11.45632812 92.76171875 11.69140625 C83.61543484 14.28304705 75.8438456 14.8444624 67 11 C67 11.66 67 12.32 67 13 C58.75 13 50.5 13 42 13 C42 12.34 42 11.68 42 11 C41.01 11 40.02 11 39 11 C39 10.34 39 9.68 39 9 C38.319375 9.680625 38.319375 9.680625 37.625 10.375 C36.41666667 11.58333333 35.20833333 12.79166667 34 14 C32.66666667 13.66666667 31.33333333 13.33333333 30 13 C27.31658077 13.11180913 24.67306327 13.27240222 22 13.5 C13.01248028 14.26524172 13.01248028 14.26524172 10 13 C9.67 12.34 9.34 11.68 9 11 C7.68 11.99 6.36 12.98 5 14 C5 13.01 5 12.02 5 11 C-2.26 11 -9.52 11 -17 11 C-17 9.35 -17 7.7 -17 6 C-9.08 5.505 -9.08 5.505 -1 5 C-1 4.01 -1 3.02 -1 2 C-0.67 1.34 -0.34 0.68 0 0 Z " fill="#F7FCFC" transform="translate(33,114)"/>
<path d="M0 0 C1.25039062 0.01289062 2.50078125 0.02578125 3.7890625 0.0390625 C5.74199219 0.08933594 5.74199219 0.08933594 7.734375 0.140625 C9.05179688 0.15867187 10.36921875 0.17671875 11.7265625 0.1953125 C14.97989808 0.24246229 18.23177125 0.30826456 21.484375 0.390625 C19.56135002 5.14957166 19.56135002 5.14957166 17.484375 7.390625 C14.24527056 8.42063624 11.11236275 8.37053696 7.734375 8.328125 C6.84621094 8.34423828 5.95804688 8.36035156 5.04296875 8.37695312 C2.85520256 8.41223968 0.67214487 8.4157316 -1.515625 8.390625 C-1.845625 10.040625 -2.175625 11.690625 -2.515625 13.390625 C4.084375 13.390625 10.684375 13.390625 17.484375 13.390625 C17.484375 15.700625 17.484375 18.010625 17.484375 20.390625 C10.884375 20.390625 4.284375 20.390625 -2.515625 20.390625 C-2.185625 21.710625 -1.855625 23.030625 -1.515625 24.390625 C-0.20207031 24.39320312 1.11148438 24.39578125 2.46484375 24.3984375 C4.20055467 24.43596638 5.93623112 24.47511398 7.671875 24.515625 C8.96834961 24.51175781 8.96834961 24.51175781 10.29101562 24.5078125 C16.5828449 24.7006655 16.5828449 24.7006655 19.21337891 26.71386719 C22.484375 30.50983796 22.484375 30.50983796 22.484375 33.390625 C13.244375 33.390625 4.004375 33.390625 -5.515625 33.390625 C-5.515625 32.730625 -5.515625 32.070625 -5.515625 31.390625 C-6.155 31.101875 -6.794375 30.813125 -7.453125 30.515625 C-9.515625 29.390625 -9.515625 29.390625 -10.515625 27.390625 C-10.81014982 23.6052702 -10.79357881 19.81109988 -10.828125 16.015625 C-10.85712891 14.96117188 -10.88613281 13.90671875 -10.91601562 12.8203125 C-10.92439453 11.80453125 -10.93277344 10.78875 -10.94140625 9.7421875 C-10.95598877 8.81229004 -10.97057129 7.88239258 -10.9855957 6.92431641 C-9.8227011 0.65495528 -5.72523 -0.10409509 0 0 Z " fill="#060566" transform="translate(74.515625,76.609375)"/>
<path d="M0 0 C3.94457749 0.73387488 5.4355328 3.39870412 7.6875 6.5 C9.98066706 9.94918529 12.15346507 13.46568939 14.3125 17 C14.88484375 17.92425781 15.4571875 18.84851563 16.046875 19.80078125 C18.80413576 24.28293304 21.44842036 28.73600076 23.6875 33.5 C20.24430507 33.98137871 17.10644396 34.22118349 13.6875 33.5 C12.4375 31.75390625 12.4375 31.75390625 11.5 29.5625 C10.54438709 27.26012157 10.54438709 27.26012157 8.6875 25.5 C3.66102718 24.45687177 -1.1938829 24.39698381 -6.3125 24.5 C-4.9925 22.19 -3.6725 19.88 -2.3125 17.5 C-0.3325 17.5 1.6475 17.5 3.6875 17.5 C1.82183512 13.87206002 1.82183512 13.87206002 -1.3125 11.5 C-1.539375 12.13292969 -1.76625 12.76585938 -2 13.41796875 C-3.83116415 17.71793456 -6.00975846 21.74902711 -8.3125 25.8125 C-8.74433594 26.64845703 -9.17617188 27.48441406 -9.62109375 28.34570312 C-11.0257306 30.78292713 -12.19832222 32.63764478 -14.3125 34.5 C-17.76308883 35.21585492 -20.84499611 35.03580131 -24.3125 34.5 C-23.05102276 31.14280723 -21.61728179 28.16724058 -19.703125 25.13671875 C-19.19523437 24.33169922 -18.68734375 23.52667969 -18.1640625 22.69726562 C-17.63554687 21.86904297 -17.10703125 21.04082031 -16.5625 20.1875 C-16.04945312 19.37087891 -15.53640625 18.55425781 -15.0078125 17.71289062 C-4.37286841 0.94548506 -4.37286841 0.94548506 0 0 Z " fill="#10106A" transform="translate(40.3125,75.5)"/>
<path d="M0 0 C1.29873047 0.01289062 2.59746094 0.02578125 3.93554688 0.0390625 C5.30730228 0.07248399 6.67904706 0.10634377 8.05078125 0.140625 C9.43421937 0.16069124 10.81768509 0.17894181 12.20117188 0.1953125 C15.58923774 0.24253293 18.97591366 0.30838431 22.36328125 0.390625 C22.36328125 2.700625 22.36328125 5.010625 22.36328125 7.390625 C14.77328125 7.720625 7.18328125 8.050625 -0.63671875 8.390625 C-0.63671875 13.670625 -0.63671875 18.950625 -0.63671875 24.390625 C7.28328125 24.720625 15.20328125 25.050625 23.36328125 25.390625 C23.36328125 28.030625 23.36328125 30.670625 23.36328125 33.390625 C18.80099584 33.50688436 14.23909197 33.57789908 9.67578125 33.640625 C8.38220703 33.67414063 7.08863281 33.70765625 5.75585938 33.7421875 C4.50869141 33.75507812 3.26152344 33.76796875 1.9765625 33.78125 C0.82969971 33.80219727 -0.31716309 33.82314453 -1.4987793 33.84472656 C-5.38821597 33.28187336 -6.99941396 32.28774933 -9.63671875 29.390625 C-10.25195312 26.70507812 -10.25195312 26.70507812 -10.23046875 23.671875 C-10.22789062 22.57488281 -10.2253125 21.47789063 -10.22265625 20.34765625 C-10.19429687 19.20683594 -10.1659375 18.06601563 -10.13671875 16.890625 C-10.13929688 15.74980469 -10.141875 14.60898438 -10.14453125 13.43359375 C-10.04839495 5.2523945 -10.04839495 5.2523945 -8.5222168 2.05761719 C-5.73987522 -0.40228547 -3.66515154 -0.06402011 0 0 Z " fill="#040465" transform="translate(148.63671875,76.609375)"/>
<path d="M0 0 C1.98 0 3.96 0 6 0 C7.1687481 3.5062443 7.12514267 6.6477866 7.09765625 10.29296875 C7.0962413 10.99899734 7.09482635 11.70502594 7.09336853 12.43244934 C7.08777764 14.68417626 7.07522688 16.93580321 7.0625 19.1875 C7.05748382 20.71549335 7.05292112 22.24348827 7.04882812 23.77148438 C7.0386627 27.51439228 7.01908569 31.25708443 7 35 C17.23 35 27.46 35 38 35 C38 35.33 38 35.66 38 36 C37.11739502 36.02505615 36.23479004 36.0501123 35.32543945 36.07592773 C32.03593385 36.1713353 28.74658818 36.27055193 25.45727539 36.37231445 C24.03642225 36.41549804 22.61552274 36.45718408 21.19458008 36.49731445 C19.1465053 36.55542095 17.09866035 36.61899638 15.05078125 36.68359375 C13.82012939 36.72025146 12.58947754 36.75690918 11.3215332 36.79467773 C8.43866435 36.97288374 5.81893218 37.42072458 3 38 C0.6875 37.5625 0.6875 37.5625 -1 37 C1.475 36.505 1.475 36.505 4 36 C1.43502303 30.9998112 1.43502303 30.9998112 -3.19384766 28.32861328 C-5.75341595 28.08739475 -8.24198161 28.02991326 -10.8125 28.0625 C-12.13797852 28.03833008 -12.13797852 28.03833008 -13.49023438 28.01367188 C-15.65987578 27.9784885 -17.83012454 27.98509408 -20 28 C-20.33 26.35 -20.66 24.7 -21 23 C-14.4 23 -7.8 23 -1 23 C-1 20.69 -1 18.38 -1 16 C-7.6 16 -14.2 16 -21 16 C-21 11 -21 11 -20 10 C-18.58429877 9.91348389 -17.164405 9.89295096 -15.74609375 9.90234375 C-14.46508789 9.90717773 -14.46508789 9.90717773 -13.15820312 9.91210938 C-12.26037109 9.92048828 -11.36253906 9.92886719 -10.4375 9.9375 C-9.53580078 9.94201172 -8.63410156 9.94652344 -7.70507812 9.95117188 C-5.46998686 9.96299775 -3.23502563 9.9794778 -1 10 C-0.690625 9.38125 -0.38125 8.7625 -0.0625 8.125 C0.625 6.75 1.3125 5.375 2 4 C-6.25 3.67 -14.5 3.34 -23 3 C-23 2.67 -23 2.34 -23 2 C-15.41 2 -7.82 2 0 2 C0 1.34 0 0.68 0 0 Z " fill="#EBEDF5" transform="translate(93,74)"/>
<path d="M0 0 C2.4375 2.0625 2.4375 2.0625 4 5 C4 8.86735216 3.56620823 11.13936349 1.4375 14.375 C-2.03178003 16.68785335 -4.8593331 16.72395554 -9 17 C-8.505 18.485 -8.505 18.485 -8 20 C-8.66 20 -9.32 20 -10 20 C-10.33 20.66 -10.66 21.32 -11 22 C-19.58 22.33 -28.16 22.66 -37 23 C-36.67 22.34 -36.34 21.68 -36 21 C-28.41 21 -20.82 21 -13 21 C-13 18.69 -13 16.38 -13 14 C-17.09398801 14.06877778 -21.1870691 14.15669235 -25.28027344 14.26245117 C-26.67306089 14.29572873 -28.06598411 14.32375197 -29.45898438 14.34643555 C-31.45991378 14.37992689 -33.46046921 14.43381305 -35.4609375 14.48828125 C-37.26763916 14.52755737 -37.26763916 14.52755737 -39.11083984 14.56762695 C-40.54097412 14.78165161 -40.54097412 14.78165161 -42 15 C-44.25870108 18.38805161 -44.29259413 19.77350741 -44.4140625 23.76171875 C-44.47207031 25.43911133 -44.47207031 25.43911133 -44.53125 27.15039062 C-44.5621875 28.31763672 -44.593125 29.48488281 -44.625 30.6875 C-44.68300781 32.45577148 -44.68300781 32.45577148 -44.7421875 34.25976562 C-44.83654391 37.17301977 -44.92213161 40.08626607 -45 43 C-45.99 43.495 -45.99 43.495 -47 44 C-47.65213292 46.02463255 -47.65213292 46.02463255 -48 48 C-49.65 47.34 -51.3 46.68 -53 46 C-52.3503125 45.401875 -51.700625 44.80375 -51.03125 44.1875 C-48.06435009 39.53174938 -48.4150725 35.40705069 -48.5 30 C-48.48453125 29.01515625 -48.4690625 28.0303125 -48.453125 27.015625 C-48.47800177 22.41342245 -48.51343197 19.76353752 -51.03125 15.8125 C-51.6809375 15.214375 -52.330625 14.61625 -53 14 C-52 12 -52 12 -49.625 10.8125 C-47 10 -47 10 -44 11 C-43.34 11 -42.68 11 -42 11 C-41.34 11.33 -40.68 11.66 -40 12 C-37.75025839 12.15495763 -35.49628464 12.25010928 -33.2421875 12.31640625 C-32.24761032 12.3475779 -32.24761032 12.3475779 -31.23294067 12.37937927 C-29.11373306 12.44479231 -26.994401 12.50372105 -24.875 12.5625 C-23.43878919 12.60569309 -22.00259098 12.64930764 -20.56640625 12.69335938 C-17.04440406 12.80046499 -13.52226175 12.90175575 -10 13 C-10.01885254 12.3800415 -10.03770508 11.76008301 -10.05712891 11.12133789 C-10.07912354 9.90305298 -10.07912354 9.90305298 -10.1015625 8.66015625 C-10.12041504 7.85457275 -10.13926758 7.04898926 -10.15869141 6.21899414 C-10 4 -10 4 -8.375 1.4375 C-5.25099332 -0.45334615 -3.59011393 -0.67314636 0 0 Z " fill="#F2F7FB" transform="translate(184,63)"/>
<path d="M0 0 C6.27 0 12.54 0 19 0 C20.48520725 2.97041449 20.1705822 5.69764447 20.1875 9 C20.20167969 10.258125 20.21585938 11.51625 20.23046875 12.8125 C20 16 20 16 18 18 C16.12060547 18.22705078 16.12060547 18.22705078 13.8671875 18.1953125 C12.77833252 18.18781982 12.77833252 18.18781982 11.66748047 18.18017578 C10.28520264 18.15286377 10.28520264 18.15286377 8.875 18.125 C5.94625 18.08375 3.0175 18.0425 0 18 C0 12.06 0 6.12 0 0 Z " fill="#E9EAF2" transform="translate(108,84)"/>
<path d="M0 0 C1.25039062 0.01289062 2.50078125 0.02578125 3.7890625 0.0390625 C5.74199219 0.08933594 5.74199219 0.08933594 7.734375 0.140625 C9.05179688 0.15867187 10.36921875 0.17671875 11.7265625 0.1953125 C14.97989808 0.24246229 18.23177125 0.30826456 21.484375 0.390625 C19.56135002 5.14957166 19.56135002 5.14957166 17.484375 7.390625 C14.24527056 8.42063624 11.11236275 8.37053696 7.734375 8.328125 C6.84621094 8.34423828 5.95804688 8.36035156 5.04296875 8.37695312 C2.85520256 8.41223968 0.67214487 8.4157316 -1.515625 8.390625 C-1.845625 10.040625 -2.175625 11.690625 -2.515625 13.390625 C-3.835625 13.390625 -5.155625 13.390625 -6.515625 13.390625 C-6.49242188 14.14988281 -6.46921875 14.90914062 -6.4453125 15.69140625 C-6.42726563 16.68527344 -6.40921875 17.67914063 -6.390625 18.703125 C-6.36742188 19.68925781 -6.34421875 20.67539063 -6.3203125 21.69140625 C-6.515625 24.390625 -6.515625 24.390625 -8.515625 27.390625 C-9.175625 27.390625 -9.835625 27.390625 -10.515625 27.390625 C-10.63185439 23.64088594 -10.7028845 19.89161036 -10.765625 16.140625 C-10.79914062 15.07714844 -10.83265625 14.01367188 -10.8671875 12.91796875 C-10.88007812 11.89316406 -10.89296875 10.86835937 -10.90625 9.8125 C-10.92719727 8.86987305 -10.94814453 7.92724609 -10.96972656 6.95605469 C-9.8546282 0.65634847 -5.73655582 -0.10430101 0 0 Z " fill="#0E0E62" transform="translate(74.515625,76.609375)"/>
<path d="M0 0 C0.495 1.98 0.495 1.98 1 4 C-1.73678725 5.36839363 -4.04264424 5.21634818 -7.1015625 5.31640625 C-8.31328125 5.35830078 -9.525 5.40019531 -10.7734375 5.44335938 C-12.67996094 5.50233398 -12.67996094 5.50233398 -14.625 5.5625 C-16.543125 5.62727539 -16.543125 5.62727539 -18.5 5.69335938 C-21.66655348 5.79969886 -24.83318753 5.90172833 -28 6 C-28 6.66 -28 7.32 -28 8 C-30.97 8 -33.94 8 -37 8 C-37.33 7.34 -37.66 6.68 -38 6 C-43.61 5.67 -49.22 5.34 -55 5 C-55 3.68 -55 2.36 -55 1 C-36.66683312 -0.18006591 -18.36095594 -0.10451547 0 0 Z " fill="#94A3B6" transform="translate(189,120)"/>
<path d="M0 0 C0.66 0 1.32 0 2 0 C2.495 0.99 2.495 0.99 3 2 C5.64797776 2.26065105 8.22074462 2.42152636 10.875 2.5 C18.59602116 2.73068077 18.59602116 2.73068077 22 5 C22 6.32 22 7.64 22 9 C21.34 9 20.68 9 20 9 C19.34 9.66 18.68 10.32 18 11 C18 10.34 18 9.68 18 9 C17.26136719 9.22816406 16.52273437 9.45632812 15.76171875 9.69140625 C6.61543484 12.28304705 -1.1561544 12.8444624 -10 9 C-10 9.66 -10 10.32 -10 11 C-18.25 11 -26.5 11 -35 11 C-35 10.34 -35 9.68 -35 9 C-27.08 9 -19.16 9 -11 9 C-11.33 7.68 -11.66 6.36 -12 5 C-9.525 5.495 -9.525 5.495 -7 6 C-7 5.34 -7 4.68 -7 4 C-6.030625 3.71125 -5.06125 3.4225 -4.0625 3.125 C-0.89335797 2.35785318 -0.89335797 2.35785318 0 0 Z " fill="#FDFADD" transform="translate(110,116)"/>
<path d="M0 0 C1.91425781 -0.03867188 1.91425781 -0.03867188 3.8671875 -0.078125 C7.125 0.25 7.125 0.25 9.0703125 1.578125 C10.125 3.25 10.125 3.25 10.125 6.25 C1.215 6.25 -7.695 6.25 -16.875 6.25 C-16.875 5.59 -16.875 4.93 -16.875 4.25 C-17.865 4.745 -17.865 4.745 -18.875 5.25 C-20.7613912 5.334915 -22.65078515 5.357193 -24.5390625 5.34765625 C-25.66054688 5.34443359 -26.78203125 5.34121094 -27.9375 5.33789062 C-29.113125 5.32951172 -30.28875 5.32113281 -31.5 5.3125 C-32.68335938 5.30798828 -33.86671875 5.30347656 -35.0859375 5.29882812 C-38.01567507 5.28701467 -40.94531272 5.27054258 -43.875 5.25 C-43.875 4.26 -43.875 3.27 -43.875 2.25 C-41.2812712 0.9531356 -39.42840427 1.15314251 -36.52734375 1.1875 C-34.90602539 1.19910156 -34.90602539 1.19910156 -33.25195312 1.2109375 C-30.98632458 1.23666866 -28.72069945 1.26270274 -26.45507812 1.2890625 C-20.8707158 1.32869133 -15.45849853 1.20327108 -9.91918945 0.49023438 C-6.60498819 0.10074745 -3.33779396 0.04095453 0 0 Z " fill="#D8E29E" transform="translate(88.875,118.75)"/>
<path d="M0 0 C1.98 0 3.96 0 6 0 C7.1687481 3.5062443 7.12514267 6.6477866 7.09765625 10.29296875 C7.0962413 10.99899734 7.09482635 11.70502594 7.09336853 12.43244934 C7.08777764 14.68417626 7.07522688 16.93580321 7.0625 19.1875 C7.05748382 20.71549335 7.05292112 22.24348827 7.04882812 23.77148438 C7.0386627 27.51439228 7.01908569 31.25708443 7 35 C17.23 35 27.46 35 38 35 C38 35.33 38 35.66 38 36 C27.44 36 16.88 36 6 36 C6 26.1 6 16.2 6 6 C2.26360784 7.24546405 1.81243487 8.63404953 0 12 C0.99 12.33 1.98 12.66 3 13 C2.67 13.66 2.34 14.32 2 15 C-0.88265149 15.96088383 -2.67662271 16.11670941 -5.66796875 16.09765625 C-6.56064453 16.09443359 -7.45332031 16.09121094 -8.37304688 16.08789062 C-9.76620117 16.07532227 -9.76620117 16.07532227 -11.1875 16.0625 C-12.12787109 16.05798828 -13.06824219 16.05347656 -14.03710938 16.04882812 C-16.35813712 16.03704626 -18.67903644 16.02059558 -21 16 C-21.042721 14.33388095 -21.04063832 12.66617115 -21 11 C-20 10 -20 10 -18.14233398 9.88647461 C-16.95619507 9.89432983 -16.95619507 9.89432983 -15.74609375 9.90234375 C-14.46508789 9.90717773 -14.46508789 9.90717773 -13.15820312 9.91210938 C-12.26037109 9.92048828 -11.36253906 9.92886719 -10.4375 9.9375 C-9.53580078 9.94201172 -8.63410156 9.94652344 -7.70507812 9.95117188 C-5.46998686 9.96299775 -3.23502563 9.9794778 -1 10 C-0.690625 9.38125 -0.38125 8.7625 -0.0625 8.125 C0.625 6.75 1.3125 5.375 2 4 C-6.25 3.67 -14.5 3.34 -23 3 C-23 2.67 -23 2.34 -23 2 C-15.41 2 -7.82 2 0 2 C0 1.34 0 0.68 0 0 Z " fill="#C2C4DC" transform="translate(93,74)"/>
<path d="M0 0 C8.91 0 17.82 0 27 0 C27 2.31 27 4.62 27 7 C26.30849854 7.02505615 25.61699707 7.0501123 24.90454102 7.07592773 C21.79032134 7.19152161 18.67643211 7.31441242 15.5625 7.4375 C13.92958008 7.49647461 13.92958008 7.49647461 12.26367188 7.55664062 C11.22919922 7.59853516 10.19472656 7.64042969 9.12890625 7.68359375 C8.17056885 7.72025146 7.21223145 7.75690918 6.22485352 7.79467773 C4.02861075 7.75834424 4.02861075 7.75834424 3 9 C2.76636119 10.84891946 2.58696365 12.70488031 2.4375 14.5625 C2.35371094 15.57441406 2.26992187 16.58632812 2.18359375 17.62890625 C2.12300781 18.41136719 2.06242188 19.19382812 2 20 C1.67 20 1.34 20 1 20 C0.66424944 17.56281065 0.33130715 15.12529385 0 12.6875 C-0.09539062 11.99720703 -0.19078125 11.30691406 -0.2890625 10.59570312 C-1.35557272 2.71114544 -1.35557272 2.71114544 0 0 Z M-3 6 C-2.34 7.32 -1.68 8.64 -1 10 C-1.66 10.66 -2.32 11.32 -3 12 C-3 10.02 -3 8.04 -3 6 Z " fill="#050452" transform="translate(144,77)"/>
<path d="M0 0 C5.07375 -0.061875 10.1475 -0.12375 15.375 -0.1875 C17.77531494 -0.22846802 17.77531494 -0.22846802 20.22412109 -0.27026367 C22.10478271 -0.28150269 22.10478271 -0.28150269 24.0234375 -0.29296875 C25.31169434 -0.3086792 26.59995117 -0.32438965 27.92724609 -0.34057617 C28.94125488 -0.22818604 29.95526367 -0.1157959 31 0 C31.66 0.99 32.32 1.98 33 3 C31.68 2.67 30.36 2.34 29 2 C28.67 2.66 28.34 3.32 28 4 C28 3.34 28 2.68 28 2 C15.625 2.495 15.625 2.495 3 3 C2.67 11.91 2.34 20.82 2 30 C11.57 29.67 21.14 29.34 31 29 C32.71367057 25.57265885 33.25357053 24.42144826 33.4140625 20.890625 C33.45273438 20.13652344 33.49140625 19.38242188 33.53125 18.60546875 C33.5621875 17.82816406 33.593125 17.05085938 33.625 16.25 C33.66367188 15.45722656 33.70234375 14.66445312 33.7421875 13.84765625 C33.836108 11.89880584 33.91912822 9.94943549 34 8 C34.33 8 34.66 8 35 8 C35.11604679 11.4372166 35.18719508 14.87393086 35.25 18.3125 C35.30027344 19.77719727 35.30027344 19.77719727 35.3515625 21.27148438 C35.36445313 22.20927734 35.37734375 23.14707031 35.390625 24.11328125 C35.41157227 24.97735596 35.43251953 25.84143066 35.45410156 26.73168945 C35 29 35 29 33.42382812 30.78710938 C30.1078789 32.44641999 27.52804132 32.33845952 23.828125 32.29296875 C22.5793457 32.28547607 21.33056641 32.2779834 20.04394531 32.27026367 C18.46194336 32.24295166 16.87994141 32.21563965 15.25 32.1875 C10.2175 32.125625 5.185 32.06375 0 32 C0 21.44 0 10.88 0 0 Z " fill="#070653" transform="translate(100,77)"/>
<path d="M0 0 C0.33 0 0.66 0 1 0 C1 2.31 1 4.62 1 7 C-5.6 7 -12.2 7 -19 7 C-18.67 8.32 -18.34 9.64 -18 11 C-16.68644531 11.00257812 -15.37289062 11.00515625 -14.01953125 11.0078125 C-12.28382033 11.04534138 -10.54814388 11.08448898 -8.8125 11.125 C-7.51602539 11.12113281 -7.51602539 11.12113281 -6.19335938 11.1171875 C0.0984699 11.3100405 0.0984699 11.3100405 2.72900391 13.32324219 C6 17.11921296 6 17.11921296 6 20 C-3.24 20 -12.48 20 -22 20 C-21 14 -21 14 -20 13 C-20 10.69 -20 8.38 -20 6 C-13.4 6 -6.8 6 0 6 C0 4.02 0 2.04 0 0 Z " fill="#211F71" transform="translate(91,90)"/>
<path d="M0 0 C2.16311438 1.72400465 2.93875073 2.57555794 3.34057617 5.36010742 C3.32486572 6.26607666 3.30915527 7.1720459 3.29296875 8.10546875 C3.28330078 9.08837891 3.27363281 10.07128906 3.26367188 11.08398438 C3.23853516 12.10814453 3.21339844 13.13230469 3.1875 14.1875 C3.16719727 15.74114258 3.16719727 15.74114258 3.14648438 17.32617188 C3.11111389 19.88463699 3.06175544 22.4420578 3 25 C2.34 24.34 1.68 23.68 1 23 C0.731875 23.825 0.46375 24.65 0.1875 25.5 C-2 28 -2 28 -4.3671875 28.40234375 C-10.20948596 28.47517019 -15.42076935 27.68429604 -21 26 C-21 25.67 -21 25.34 -21 25 C-19.27185839 24.80327635 -17.54240803 24.61803201 -15.8125 24.4375 C-14.84957031 24.33308594 -13.88664062 24.22867188 -12.89453125 24.12109375 C-10.05766623 24.00241249 -7.74576329 24.32234361 -5 25 C-5 24.44014404 -5 23.88028809 -5 23.3034668 C-5 16.53564453 -5 9.76782227 -5 3 C-4.34 3 -3.68 3 -3 3 C-1.37485532 1.54166642 -1.37485532 1.54166642 0 0 Z " fill="#04056F" transform="translate(133,79)"/>
<path d="M0 0 C2.4375 2.0625 2.4375 2.0625 4 5 C3.93977486 8.49305789 3.63658168 10.90366489 1.875 13.9375 C-1.17468171 15.66565297 -3.58518389 15.42685201 -7 15 C-9.85576764 12.69696158 -9.98181881 11.14544949 -10.4375 7.5 C-10 4 -10 4 -8.375 1.5625 C-5.2629338 -0.48491197 -3.65605504 -0.68551032 0 0 Z " fill="#1D1B59" transform="translate(184,63)"/>
<path d="M0 0 C1.4540625 0.0309375 1.4540625 0.0309375 2.9375 0.0625 C3.2675 1.0525 3.5975 2.0425 3.9375 3.0625 C4.5975 3.0625 5.2575 3.0625 5.9375 3.0625 C5.33566251 5.08295442 4.66443904 7.08361039 3.9375 9.0625 C2.9475 9.5575 2.9475 9.5575 1.9375 10.0625 C1.9375 9.0725 1.9375 8.0825 1.9375 7.0625 C-5.3225 7.0625 -12.5825 7.0625 -20.0625 7.0625 C-20.0625 5.4125 -20.0625 3.7625 -20.0625 2.0625 C-18.91910156 2.00191406 -17.77570312 1.94132812 -16.59765625 1.87890625 C-15.10675695 1.79451572 -13.61587225 1.70986698 -12.125 1.625 C-11.37025391 1.58568359 -10.61550781 1.54636719 -9.83789062 1.50585938 C-6.18983161 1.29319226 -3.41264921 0.0696459 0 0 Z " fill="#EAB09B" transform="translate(36.0625,117.9375)"/>
<path d="M0 0 C8.58 0 17.16 0 26 0 C26.33 1.32 26.66 2.64 27 4 C24.26321275 5.36839363 21.95735576 5.21634818 18.8984375 5.31640625 C17.08085937 5.37924805 17.08085937 5.37924805 15.2265625 5.44335938 C13.32003906 5.50233398 13.32003906 5.50233398 11.375 5.5625 C10.09625 5.60568359 8.8175 5.64886719 7.5 5.69335938 C4.33344652 5.79969886 1.16681247 5.90172833 -2 6 C-2 4.68 -2 3.36 -2 2 C-1.34 2 -0.68 2 0 2 C0 1.34 0 0.68 0 0 Z " fill="#DD9094" transform="translate(163,120)"/>
<path d="M0 0 C1.98 0.99 1.98 0.99 4 2 C3.814375 2.598125 3.62875 3.19625 3.4375 3.8125 C2.77906313 6.16408762 2.77906313 6.16408762 4 9 C4.13501597 13.33671303 4.04296914 17.66011734 4 22 C8.62 23.32 13.24 24.64 18 26 C18 26.33 18 26.66 18 27 C12.06 27 6.12 27 0 27 C0 18.09 0 9.18 0 0 Z " fill="#060672" transform="translate(102,80)"/>
<path d="M0 0 C1.07636719 0.00322266 2.15273438 0.00644531 3.26171875 0.00976562 C4.38964844 0.01814453 5.51757812 0.02652344 6.6796875 0.03515625 C7.81535156 0.03966797 8.95101562 0.04417969 10.12109375 0.04882812 C12.93234388 0.0606401 15.7434898 0.07711118 18.5546875 0.09765625 C18.8846875 1.08765625 19.2146875 2.07765625 19.5546875 3.09765625 C16.89290529 4.42854735 14.86729354 4.21034618 11.890625 4.1953125 C10.76914062 4.19208984 9.64765625 4.18886719 8.4921875 4.18554688 C7.3165625 4.17716797 6.1409375 4.16878906 4.9296875 4.16015625 C3.74632812 4.15564453 2.56296875 4.15113281 1.34375 4.14648438 C-1.58598757 4.13467092 -4.51562522 4.11819883 -7.4453125 4.09765625 C-7.4453125 3.10765625 -7.4453125 2.11765625 -7.4453125 1.09765625 C-4.83580014 -0.20709993 -2.91829965 -0.01535947 0 0 Z " fill="#82C2CA" transform="translate(52.4453125,119.90234375)"/>
<path d="M0 0 C0.556875 0.7115625 0.556875 0.7115625 1.125 1.4375 C3.62646962 3.52205802 5.81593418 3.64621491 9 4 C5.91190305 5.76462683 4.76687864 6 1 6 C1.33 6.99 1.66 7.98 2 9 C1.34 9 0.68 9 0 9 C-0.33 9.66 -0.66 10.32 -1 11 C-9.58 11.33 -18.16 11.66 -27 12 C-26.67 11.34 -26.34 10.68 -26 10 C-18.41 10 -10.82 10 -3 10 C-3 7.69 -3 5.38 -3 3 C-11.91 3 -20.82 3 -30 3 C-30 2.67 -30 2.34 -30 2 C-20.1 2 -10.2 2 0 2 C0 1.34 0 0.68 0 0 Z " fill="#B9BAD9" transform="translate(174,74)"/>
<path d="M0 0 C8.25 0 16.5 0 25 0 C25 1.32 25 2.64 25 4 C16.75 4 8.5 4 0 4 C0 2.68 0 1.36 0 0 Z " fill="#EED987" transform="translate(103,120)"/>
<path d="M0 0 C0.66 0.33 1.32 0.66 2 1 C2.02690104 3.79173055 2.04679053 6.58320348 2.0625 9.375 C2.07087891 10.1690625 2.07925781 10.963125 2.08789062 11.78125 C2.11328125 17.7734375 2.11328125 17.7734375 1 20 C-2.27066566 20.08706892 -5.54103365 20.14041241 -8.8125 20.1875 C-9.74126953 20.21263672 -10.67003906 20.23777344 -11.62695312 20.26367188 C-12.9659668 20.27817383 -12.9659668 20.27817383 -14.33203125 20.29296875 C-15.15421143 20.3086792 -15.9763916 20.32438965 -16.82348633 20.34057617 C-19 20 -19 20 -20.78710938 18.70507812 C-22.82489584 15.84036382 -22.03877037 12.64179704 -21.6875 9.3125 C-21.62626953 8.61060547 -21.56503906 7.90871094 -21.50195312 7.18554688 C-21.34897376 5.4557033 -21.17637398 3.72761503 -21 2 C-20.34 2 -19.68 2 -19 2 C-19 7.28 -19 12.56 -19 18 C-16.02046641 17.85982174 -13.04150696 17.71313658 -10.0625 17.5625 C-9.21236328 17.52318359 -8.36222656 17.48386719 -7.48632812 17.44335938 C-6.67744141 17.40146484 -5.86855469 17.35957031 -5.03515625 17.31640625 C-3.91185913 17.26141968 -3.91185913 17.26141968 -2.76586914 17.20532227 C-0.97538674 17.18228937 -0.97538674 17.18228937 0 16 C0.07319621 13.30345146 0.09242537 10.63308542 0.0625 7.9375 C0.05798828 7.17888672 0.05347656 6.42027344 0.04882812 5.63867188 C0.0370068 3.75908129 0.01907078 1.87953101 0 0 Z " fill="#070951" transform="translate(127,84)"/>
<path d="M0 0 C7.26 0 14.52 0 22 0 C22 0.33 22 0.66 22 1 C19.69 1.66 17.38 2.32 15 3 C15 3.99 15 4.98 15 6 C12.54137599 6.05383848 10.0839245 6.09359038 7.625 6.125 C6.57699219 6.15013672 6.57699219 6.15013672 5.5078125 6.17578125 C3.67102514 6.19344267 1.83398037 6.10303261 0 6 C-0.66 5.34 -1.32 4.68 -2 4 C-1.34 3.67 -0.68 3.34 0 3 C0 2.01 0 1.02 0 0 Z " fill="#030157" transform="translate(74,77)"/>
<path d="M0 0 C0.9583374 0.00523682 1.9166748 0.01047363 2.90405273 0.01586914 C4.45576172 0.02070312 4.45576172 0.02070312 6.03881836 0.02563477 C7.12743164 0.03401367 8.21604492 0.04239258 9.33764648 0.05102539 C10.97636719 0.05779297 10.97636719 0.05779297 12.64819336 0.06469727 C15.35723144 0.07652713 18.06616248 0.09300996 20.77514648 0.11352539 C20.77514648 1.10352539 20.77514648 2.09352539 20.77514648 3.11352539 C18.04646915 3.33615177 15.31822691 3.54204863 12.58764648 3.73852539 C11.8187207 3.80297852 11.04979492 3.86743164 10.25756836 3.93383789 C5.89389967 4.23348896 2.76429311 4.20802722 -1.22485352 2.11352539 C-1.55485352 4.42352539 -1.88485352 6.73352539 -2.22485352 9.11352539 C-4.22485352 6.11352539 -4.22485352 6.11352539 -3.91235352 3.48852539 C-2.94603213 0.15032426 -2.94603213 0.15032426 0 0 Z M-6.22485352 4.11352539 C-5.56485352 5.43352539 -4.90485352 6.75352539 -4.22485352 8.11352539 C-4.88485352 8.77352539 -5.54485352 9.43352539 -6.22485352 10.11352539 C-6.22485352 8.13352539 -6.22485352 6.15352539 -6.22485352 4.11352539 Z " fill="#060573" transform="translate(147.224853515625,78.886474609375)"/>
<path d="M0 0 C0.99 0 1.98 0 3 0 C3.05413245 2.89608593 3.09373641 5.79115195 3.125 8.6875 C3.14175781 9.50412109 3.15851563 10.32074219 3.17578125 11.16210938 C3.2114802 15.57092929 3.07580814 18.98731576 1 23 C0.01 23 -0.98 23 -2 23 C-1.814375 22.443125 -1.62875 21.88625 -1.4375 21.3125 C-0.84408398 18.96712418 -0.84408398 18.96712418 -1.5 16.5 C-2.01964581 13.90177093 -1.82665663 12.4799699 -1 10 C-1.99 10 -2.98 10 -4 10 C-3 8 -3 8 -1 7 C-1.66 6.67 -2.32 6.34 -3 6 C-1.125 1.125 -1.125 1.125 0 0 Z " fill="#FCFCFC" transform="translate(96,80)"/>
<path d="M0 0 C3.78918349 4.4387578 6.73941978 9.27187523 9.75 14.25 C10.25660156 15.07757813 10.76320313 15.90515625 11.28515625 16.7578125 C15 22.86577662 15 22.86577662 15 24 C11.7 24 8.4 24 5 24 C4.67 22.68 4.34 21.36 4 20 C5.98 20.66 7.96 21.32 10 22 C9.71125 21.44570312 9.4225 20.89140625 9.125 20.3203125 C8.568125 19.23363281 8.568125 19.23363281 8 18.125 C7.62875 17.40570313 7.2575 16.68640625 6.875 15.9453125 C6 14 6 14 6 12 C5.401875 11.979375 4.80375 11.95875 4.1875 11.9375 C2 11 2 11 0.1875 7.6875 C-1.32117438 3.00266904 -1.32117438 3.00266904 0 0 Z " fill="#0C0D5D" transform="translate(49,85)"/>
<path d="M0 0 C7.26 0 14.52 0 22 0 C22 1.98 22 3.96 22 6 C13.09 6 4.18 6 -5 6 C-5.33 5.34 -5.66 4.68 -6 4 C1.92 4 9.84 4 18 4 C18 3.01 18 2.02 18 1 C12.06 1 6.12 1 0 1 C0 0.67 0 0.34 0 0 Z " fill="#050356" transform="translate(149,103)"/>
<path d="M0 0 C0.99 0 1.98 0 3 0 C3 0.66 3 1.32 3 2 C10.92 2 18.84 2 27 2 C26.34 3.32 25.68 4.64 25 6 C24.505 5.8246875 24.01 5.649375 23.5 5.46875 C19.96497392 4.80593261 16.5560928 5.19721674 13 5.5 C4.46391753 6.22680412 4.46391753 6.22680412 1 5 C0.67 3.35 0.34 1.7 0 0 Z " fill="#E4F9FA" transform="translate(42,122)"/>
<path d="M0 0 C0.33 0 0.66 0 1 0 C1.33 4.95 1.66 9.9 2 15 C9.92 15.33 17.84 15.66 26 16 C26 18.64 26 21.28 26 24 C16.76 24 7.52 24 -2 24 C-2 23.67 -2 23.34 -2 23 C6.91 23 15.82 23 25 23 C25 21.02 25 19.04 25 17 C24.01 17.33 23.02 17.66 22 18 C18.49593721 18.08436563 14.99997456 17.85851616 11.5 17.6875 C10.53707031 17.65205078 9.57414063 17.61660156 8.58203125 17.58007812 C7.19564453 17.51530273 7.19564453 17.51530273 5.78125 17.44921875 C4.5137793 17.39254028 4.5137793 17.39254028 3.22070312 17.3347168 C1 17 1 17 -2 15 C-1.34 10.05 -0.68 5.1 0 0 Z " fill="#48487C" transform="translate(146,86)"/>
<path d="M0 0 C0.85609863 0.23771118 0.85609863 0.23771118 1.72949219 0.48022461 C3.97210188 0.99361343 6.03317915 1.20165896 8.328125 1.31640625 C9.52695313 1.37924805 9.52695313 1.37924805 10.75 1.44335938 C11.9875 1.50233398 11.9875 1.50233398 13.25 1.5625 C14.09046875 1.60568359 14.9309375 1.64886719 15.796875 1.69335938 C17.86440671 1.79908543 19.93218281 1.90001295 22 2 C22 2.99 22 3.98 22 5 C14.41 5 6.82 5 -1 5 C-0.67 3.35 -0.34 1.7 0 0 Z " fill="#060578" transform="translate(145,102)"/>
<path d="M0 0 C0.99 0.33 1.98 0.66 3 1 C4.1875 3.5625 4.1875 3.5625 5 6 C3.02 6 1.04 6 -1 6 C-1.309375 6.804375 -1.61875 7.60875 -1.9375 8.4375 C-3 11 -3 11 -4 12 C2.93 12.495 2.93 12.495 10 13 C10 13.33 10 13.66 10 14 C8.22932584 14.16834933 6.45845388 14.33461909 4.6875 14.5 C3.70136719 14.5928125 2.71523438 14.685625 1.69921875 14.78125 C-1.54428431 15.04410987 -4.74450032 15 -8 15 C-6.62712658 11.30123909 -4.93644547 8.0485524 -2.875 4.6875 C-2.33617187 3.80449219 -1.79734375 2.92148438 -1.2421875 2.01171875 C-0.83226562 1.34785156 -0.42234375 0.68398437 0 0 Z " fill="#CBCEEB" transform="translate(39,87)"/>
<path d="M0 0 C1.70884005 1.62339805 3.37446717 3.29319053 5 5 C5 5.66 5 6.32 5 7 C-4.24 7 -13.48 7 -23 7 C-22.67 6.01 -22.34 5.02 -22 4 C-21.44014404 3.98541748 -20.88028809 3.97083496 -20.3034668 3.95581055 C-17.76411863 3.88128648 -15.22607922 3.78464419 -12.6875 3.6875 C-11.80642578 3.66494141 -10.92535156 3.64238281 -10.01757812 3.61914062 C-9.17001953 3.58369141 -8.32246094 3.54824219 -7.44921875 3.51171875 C-6.66893311 3.48553467 -5.88864746 3.45935059 -5.0847168 3.43237305 C-2.55078834 2.9068329 -1.63072223 1.9591474 0 0 Z " fill="#3B397A" transform="translate(92,103)"/>
<path d="M0 0 C6.27 0 12.54 0 19 0 C18.34 1.32 17.68 2.64 17 4 C14.54159395 4.02691685 12.08348118 4.04679802 9.625 4.0625 C8.92632812 4.07087891 8.22765625 4.07925781 7.5078125 4.08789062 C2.2265625 4.11328125 2.2265625 4.11328125 0 3 C0 2.01 0 1.02 0 0 Z " fill="#F8FAFD" transform="translate(72,97)"/>
<path d="M0 0 C0.99 0.33 1.98 0.66 3 1 C3.02696009 3.7708983 3.04681952 6.5415345 3.0625 9.3125 C3.07087891 10.09818359 3.07925781 10.88386719 3.08789062 11.69335938 C3.09111328 12.45068359 3.09433594 13.20800781 3.09765625 13.98828125 C3.10289307 14.68477783 3.10812988 15.38127441 3.11352539 16.09887695 C3 18 3 18 2 21 C1.01 21 0.02 21 -1 21 C-0.67 14.07 -0.34 7.14 0 0 Z " fill="#090478" transform="translate(131,84)"/>
<path d="M0 0 C2.25245881 2.68841859 3.88213958 4.64641875 5 8 C6.45947705 7.93993922 7.91779272 7.8511311 9.375 7.75 C10.18710937 7.70359375 10.99921875 7.6571875 11.8359375 7.609375 C14.18838927 7.2077908 14.18838927 7.2077908 15.2890625 4.953125 C15.52367188 4.30859375 15.75828125 3.6640625 16 3 C17.32 4.65 18.64 6.3 20 8 C19.01257813 8.13277344 18.02515625 8.26554687 17.0078125 8.40234375 C15.72648437 8.57894531 14.44515625 8.75554687 13.125 8.9375 C11.84882812 9.11152344 10.57265625 9.28554687 9.2578125 9.46484375 C6.12440546 9.81433227 6.12440546 9.81433227 4 11 C1 10 1 10 -1 7 C-0.625 3.3125 -0.625 3.3125 0 0 Z " fill="#E8ECEF" transform="translate(49,101)"/>
<path d="M0 0 C2.31 0 4.62 0 7 0 C6.45276317 3.37462715 5.9451 5.08235 4 8 C4.99 8.33 5.98 8.66 7 9 C7 10.98 7 12.96 7 15 C5.35 15.33 3.7 15.66 2 16 C2 15.01 2 14.02 2 13 C1.34 12.67 0.68 12.34 0 12 C0.66 11.01 1.32 10.02 2 9 C1.59404786 4.34184319 1.59404786 4.34184319 0 0 Z " fill="#EDECF1" transform="translate(185,64)"/>
<path d="M0 0 C1.98 0 3.96 0 6 0 C6.33 0.99 6.66 1.98 7 3 C6.34 3 5.68 3 5 3 C5 3.66 5 4.32 5 5 C5.99 5.33 6.98 5.66 8 6 C8 7.32 8 8.64 8 10 C6.02 10.33 4.04 10.66 2 11 C1.67 10.34 1.34 9.68 1 9 C0.01 9.33 -0.98 9.66 -2 10 C-2 8.68 -2 7.36 -2 6 C0 5 2 4 4 3 C4 2.34 4 1.68 4 1 C2.68 0.67 1.36 0.34 0 0 Z " fill="#434387" transform="translate(178,63)"/>
<path d="M0 0 C7.26 0 14.52 0 22 0 C22 0.66 22 1.32 22 2 C18.87150741 3.56424629 15.55569916 3.18446398 12.125 3.1875 C11.40441406 3.19974609 10.68382812 3.21199219 9.94140625 3.22460938 C6.13512088 3.23512398 3.22486888 3.13584248 0 1 C0 0.67 0 0.34 0 0 Z " fill="#FDF7EE" transform="translate(164,125)"/>
<path d="M0 0 C2.625 0.375 2.625 0.375 5 1 C4.67 2.98 4.34 4.96 4 7 C3.34 6.67 2.68 6.34 2 6 C1.071875 6.4640625 1.071875 6.4640625 0.125 6.9375 C-2 8 -2 8 -6 8 C-6 6.35 -6 4.7 -6 3 C-5.38125 2.87625 -4.7625 2.7525 -4.125 2.625 C-1.80879168 2.12802644 -1.80879168 2.12802644 0 0 Z " fill="#090774" transform="translate(39,79)"/>
<path d="M0 0 C2.16311438 1.72400465 2.93875073 2.57555794 3.34057617 5.36010742 C3.3170105 6.71906128 3.3170105 6.71906128 3.29296875 8.10546875 C3.28330078 9.08837891 3.27363281 10.07128906 3.26367188 11.08398438 C3.23853516 12.10814453 3.21339844 13.13230469 3.1875 14.1875 C3.17396484 15.22326172 3.16042969 16.25902344 3.14648438 17.32617188 C3.11111389 19.88463699 3.06175544 22.4420578 3 25 C2.67 25 2.34 25 2 25 C2 18.73 2 12.46 2 6 C0.68 6 -0.64 6 -2 6 C-2.66 6.66 -3.32 7.32 -4 8 C-4.66 6.68 -5.32 5.36 -6 4 C-5.01 3.67 -4.02 3.34 -3 3 C-1.33289654 1.50014391 -1.33289654 1.50014391 0 0 Z " fill="#2C2C73" transform="translate(133,79)"/>
<path d="M0 0 C0.66 0 1.32 0 2 0 C2.33 0.66 2.66 1.32 3 2 C5.64797776 2.26065105 8.22074462 2.42152636 10.875 2.5 C18.59602116 2.73068077 18.59602116 2.73068077 22 5 C22 6.32 22 7.64 22 9 C21.34 9 20.68 9 20 9 C19.34 9.66 18.68 10.32 18 11 C18 8.69 18 6.38 18 4 C10.74 4 3.48 4 -4 4 C-2.68 2.68 -1.36 1.36 0 0 Z " fill="#F9FCED" transform="translate(110,116)"/>
<path d="M0 0 C1.66666667 0 3.33333333 0 5 0 C5.38133299 1.9914056 5.71325582 3.99279077 6 6 C5 7 5 7 2.71484375 7.09765625 C1.34005859 7.08025391 1.34005859 7.08025391 -0.0625 7.0625 C-0.98160156 7.05347656 -1.90070312 7.04445313 -2.84765625 7.03515625 C-3.55792969 7.02355469 -4.26820312 7.01195313 -5 7 C-4.67 6.01 -4.34 5.02 -4 4 C-2.35 4 -0.7 4 1 4 C0.67 2.68 0.34 1.36 0 0 Z " fill="#0A0A73" transform="translate(44,91)"/>
<path d="M0 0 C3.92055335 1.07815217 5.19061649 3.3883807 7.5 6.6875 C7.5 7.3475 7.5 8.0075 7.5 8.6875 C3.625 6.9375 3.625 6.9375 2.5 4.6875 C-0.87462715 5.23473683 -2.58235 5.7424 -5.5 7.6875 C-6.16 7.0275 -6.82 6.3675 -7.5 5.6875 C-3.32304527 0.91383745 -3.32304527 0.91383745 0 0 Z " fill="#161658" transform="translate(40.5,75.3125)"/>
<path d="M0 0 C1.31226563 0.07863281 2.62453125 0.15726562 3.9765625 0.23828125 C7.375 0.6875 7.375 0.6875 10.375 2.6875 C2.455 2.6875 -5.465 2.6875 -13.625 2.6875 C-13.295 2.0275 -12.965 1.3675 -12.625 0.6875 C-8.40257304 -0.61718249 -4.36879141 -0.28866768 0 0 Z " fill="#FCF9F0" transform="translate(177.625,117.3125)"/>
<path d="M0 0 C0.33 0 0.66 0 1 0 C1 7.92 1 15.84 1 24 C0.34 24.33 -0.32 24.66 -1 25 C-1.65213292 27.02463255 -1.65213292 27.02463255 -2 29 C-4.475 28.01 -4.475 28.01 -7 27 C-5.38405168 24.95880212 -3.7143618 22.95927063 -2 21 C-1.34 21 -0.68 21 0 21 C0 14.07 0 7.14 0 0 Z " fill="#B4B7CE" transform="translate(138,82)"/>
<path d="M0 0 C1.5625 1.0625 1.5625 1.0625 3 3 C2.87844565 6.40352169 2.59933376 8.96781407 0.875 11.9375 C-2.03094231 13.58420065 -4.73821805 13.18462917 -8 13 C-8.33 12.34 -8.66 11.68 -9 11 C-7.35 11 -5.7 11 -4 11 C-3.67 10.01 -3.34 9.02 -3 8 C-1.68 8 -0.36 8 1 8 C0.65213292 6.02463255 0.65213292 6.02463255 0 4 C-0.66 3.67 -1.32 3.34 -2 3 C-2 2.34 -2 1.68 -2 1 C-1.34 0.67 -0.68 0.34 0 0 Z " fill="#161551" transform="translate(185,65)"/>
<path d="M0 0 C2.31 0 4.62 0 7 0 C7 0.66 7 1.32 7 2 C6.195625 2.12375 5.39125 2.2475 4.5625 2.375 C3.2940625 2.684375 3.2940625 2.684375 2 3 C1.67 3.66 1.34 4.32 1 5 C4.3 5 7.6 5 11 5 C11 5.33 11 5.66 11 6 C6.05 6.33 1.1 6.66 -4 7 C-2.68 4.69 -1.36 2.38 0 0 Z " fill="#0C0C4F" transform="translate(38,93)"/>
<path d="M0 0 C1.32 0.33 2.64 0.66 4 1 C3.67 1.33 3.34 1.66 3 2 C2.76807135 3.51469448 2.58784762 5.03754562 2.4375 6.5625 C2.293125 8.026875 2.14875 9.49125 2 11 C-2.29 11 -6.58 11 -11 11 C-11 10.67 -11 10.34 -11 10 C-9.906875 9.896875 -8.81375 9.79375 -7.6875 9.6875 C-4.16452291 9.26670395 -4.16452291 9.26670395 -2.125 7.8125 C-0.56567295 5.30025086 -0.32316562 2.90849054 0 0 Z " fill="#F2F3FB" transform="translate(172,65)"/>
<path d="M0 0 C0.98120464 3.05263664 0.98120464 4.94736336 0 8 C1.65 7.67 3.3 7.34 5 7 C5 7.99 5 8.98 5 10 C1.7 10 -1.6 10 -5 10 C-3.66511872 6.40608886 -2.03977277 3.24509304 0 0 Z " fill="#2F2D62" transform="translate(21,100)"/>
<path d="M0 0 C7.26 0 14.52 0 22 0 C21.01 1.485 21.01 1.485 20 3 C13.4 2.34 6.8 1.68 0 1 C0 0.67 0 0.34 0 0 Z " fill="#FBFBEE" transform="translate(16,125)"/>
<path d="M0 0 C0.66 0 1.32 0 2 0 C1.88590407 1.45922693 1.75834456 2.91740598 1.625 4.375 C1.55539063 5.18710938 1.48578125 5.99921875 1.4140625 6.8359375 C1 9 1 9 -1 11 C-1.99 10.34 -2.98 9.68 -4 9 C-4 8.34 -4 7.68 -4 7 C-4.66 7 -5.32 7 -6 7 C-5.67 5.68 -5.34 4.36 -5 3 C-4.01 4.485 -4.01 4.485 -3 6 C-2.690625 5.38125 -2.38125 4.7625 -2.0625 4.125 C-1.375 2.75 -0.6875 1.375 0 0 Z " fill="#060660" transform="translate(32,89)"/>
<path d="M0 0 C2.46800047 1.15173355 4.04783565 2.04783565 6 4 C0.39 4 -5.22 4 -11 4 C-11.33 3.34 -11.66 2.68 -12 2 C-8.04 2 -4.08 2 0 2 C0 1.34 0 0.68 0 0 Z " fill="#020555" transform="translate(121,80)"/>
<path d="M0 0 C0.33 0 0.66 0 1 0 C1.11604679 3.4372166 1.18719508 6.87393086 1.25 10.3125 C1.30027344 11.77719727 1.30027344 11.77719727 1.3515625 13.27148438 C1.36445313 14.20927734 1.37734375 15.14707031 1.390625 16.11328125 C1.4220459 17.40939331 1.4220459 17.40939331 1.45410156 18.73168945 C1 21 1 21 -0.83691406 22.86791992 C-1.55073242 23.24150635 -2.26455078 23.61509277 -3 24 C-3.99 23.67 -4.98 23.34 -6 23 C-5.360625 22.566875 -4.72125 22.13375 -4.0625 21.6875 C-1.62759731 19.69530689 -1.12949284 18.1990021 -0.79467773 15.09887695 C-0.75802002 14.40238037 -0.7213623 13.70588379 -0.68359375 12.98828125 C-0.64169922 12.23095703 -0.59980469 11.47363281 -0.55664062 10.69335938 C-0.51732422 9.90767578 -0.47800781 9.12199219 -0.4375 8.3125 C-0.37272461 7.11657227 -0.37272461 7.11657227 -0.30664062 5.89648438 C-0.20072632 3.93118553 -0.09987449 1.96561504 0 0 Z " fill="#060351" transform="translate(134,85)"/>
<path d="M0 0 C0.33 0 0.66 0 1 0 C0.67 2.64 0.34 5.28 0 8 C-0.33 8 -0.66 8 -1 8 C-1.125 2.25 -1.125 2.25 0 0 Z M-3 8 C-2.34 8.33 -1.68 8.66 -1 9 C-0.4375 10.75 -0.4375 10.75 0 13 C0.185625 13.9075 0.37125 14.815 0.5625 15.75 C0.706875 16.4925 0.85125 17.235 1 18 C-0.9375 17.1875 -0.9375 17.1875 -3 16 C-4.09658936 12.71023192 -3.79953138 11.28696233 -3 8 Z " fill="#06076F" transform="translate(143,91)"/>
<path d="M0 0 C0.66 0.99 1.32 1.98 2 3 C-0.97 7.95 -0.97 7.95 -4 13 C-4.66 12.34 -5.32 11.68 -6 11 C-5.75 8.4375 -5.75 8.4375 -5 6 C-4.34 5.67 -3.68 5.34 -3 5 C-2.67 4.34 -2.34 3.68 -2 3 C-1.34 2.01 -0.68 1.02 0 0 Z " fill="#EBECF6" transform="translate(30,81)"/>
<path d="M0 0 C0.82226074 0.48218994 0.82226074 0.48218994 1.66113281 0.97412109 C4.38531533 2.16900783 6.4542022 2.31514007 9.421875 2.4140625 C10.44667969 2.45273438 11.47148438 2.49140625 12.52734375 2.53125 C13.59082031 2.5621875 14.65429688 2.593125 15.75 2.625 C17.36841797 2.68300781 17.36841797 2.68300781 19.01953125 2.7421875 C21.67951775 2.83634631 24.3394994 2.92197387 27 3 C27 3.33 27 3.66 27 4 C23.06256167 4.05797565 19.12523281 4.09358789 15.1875 4.125 C14.06794922 4.14175781 12.94839844 4.15851563 11.79492188 4.17578125 C10.72177734 4.18222656 9.64863281 4.18867187 8.54296875 4.1953125 C7.0583313 4.21102295 7.0583313 4.21102295 5.54370117 4.22705078 C3 4 3 4 0 2 C0 1.34 0 0.68 0 0 Z " fill="#08064B" transform="translate(66,105)"/>
<path d="M0 0 C0.66 0.33 1.32 0.66 2 1 C2 3.31 2 5.62 2 8 C0.35 8.33 -1.3 8.66 -3 9 C-2.4140625 2.84765625 -2.4140625 2.84765625 -2 1 C-1.34 0.67 -0.68 0.34 0 0 Z " fill="#070569" transform="translate(24,99)"/>
<path d="M0 0 C0.66 0.33 1.32 0.66 2 1 C0.6302836 4.99500618 -1.25722422 7.80009492 -4 11 C-4.93065133 8.39417629 -5.14917407 7.35801776 -4.0625 4.75 C-3.5365625 3.88375 -3.5365625 3.88375 -3 3 C-2.01 3 -1.02 3 0 3 C0 2.01 0 1.02 0 0 Z " fill="#11175A" transform="translate(37,86)"/>
<path d="M0 0 C4.875 1.75 4.875 1.75 6 4 C5.34 4 4.68 4 4 4 C4.33 4.99 4.66 5.98 5 7 C3.35 6.67 1.7 6.34 0 6 C0 4.02 0 2.04 0 0 Z M-3 5 C-2.01 5.33 -1.02 5.66 0 6 C-0.99 6.33 -1.98 6.66 -3 7 C-3 6.34 -3 5.68 -3 5 Z " fill="#F3F4F6" transform="translate(136,105)"/>
<path d="M0 0 C1.65 1.65 3.3 3.3 5 5 C1.68929162 6.00109515 -1.30084769 6.10356134 -4.75 6.0625 C-5.73484375 6.05347656 -6.7196875 6.04445313 -7.734375 6.03515625 C-8.48203125 6.02355469 -9.2296875 6.01195313 -10 6 C-10 5.67 -10 5.34 -10 5 C-5.545 4.505 -5.545 4.505 -1 4 C-0.67 2.68 -0.34 1.36 0 0 Z " fill="#A7A9C4" transform="translate(64,104)"/>
<path d="M0 0 C3 3.75 3 3.75 3 6 C2.34 6 1.68 6 1 6 C0.67 6.66 0.34 7.32 0 8 C-0.99 7.34 -1.98 6.68 -3 6 C-1.125 1.125 -1.125 1.125 0 0 Z " fill="#030368" transform="translate(46,85)"/>
<path d="M0 0 C4.51617599 -0.07654536 8.59085217 -0.10228696 13 1 C12.67 1.66 12.34 2.32 12 3 C10.56260487 3.02712066 9.12506137 3.04645067 7.6875 3.0625 C6.48673828 3.07990234 6.48673828 3.07990234 5.26171875 3.09765625 C3 3 3 3 0 2 C0 1.34 0 0.68 0 0 Z " fill="#080573" transform="translate(76,79)"/>
<path d="M0 0 C1.98 0 3.96 0 6 0 C6 1.98 6 3.96 6 6 C5.01 6.33 4.02 6.66 3 7 C2.01 8.485 2.01 8.485 1 10 C0.34 10 -0.32 10 -1 10 C-0.1875 8.0625 -0.1875 8.0625 1 6 C1.99 5.67 2.98 5.34 4 5 C4 4.01 4 3.02 4 2 C2.68 2 1.36 2 0 2 C0 1.34 0 0.68 0 0 Z " fill="#E9ECF6" transform="translate(93,74)"/>
<path d="M0 0 C3.465 1.485 3.465 1.485 7 3 C7.33 2.01 7.66 1.02 8 0 C9.02104551 0.97850195 10.0206121 1.97980427 11 3 C11 3.33 11 3.66 11 4 C7.7 4 4.4 4 1 4 C0.67 2.68 0.34 1.36 0 0 Z " fill="#0F104C" transform="translate(53,105)"/>
<path d="M0 0 C2 1 2 1 3 3 C2.0625 5.625 2.0625 5.625 1 8 C0.01 7.67 -0.98 7.34 -2 7 C-2.33 6.01 -2.66 5.02 -3 4 C-1.5625 1.8125 -1.5625 1.8125 0 0 Z " fill="#181A66" transform="translate(142,77)"/>
<path d="M0 0 C0.99 0 1.98 0 3 0 C4.10844919 3.32534757 3.84454356 5.62182575 3 9 C2.01 9 1.02 9 0 9 C0.185625 8.443125 0.37125 7.88625 0.5625 7.3125 C1.07551165 4.600867 0.6640724 2.65628961 0 0 Z " fill="#FBFEEE" transform="translate(94,94)"/>
<path d="M0 0 C0.66 0.33 1.32 0.66 2 1 C2 1.66 2 2.32 2 3 C2.66 3 3.32 3 4 3 C3.67 3.99 3.34 4.98 3 6 C0.5625 5.625 0.5625 5.625 -2 5 C-2.33 4.34 -2.66 3.68 -3 3 C-2.01 2.01 -1.02 1.02 0 0 Z " fill="#0D0C5B" transform="translate(178,71)"/>
<path d="M0 0 C0.33 0 0.66 0 1 0 C1 2.64 1 5.28 1 8 C0.34 8 -0.32 8 -1 8 C-1.99 6.02 -2.98 4.04 -4 2 C-3.01 2 -2.02 2 -1 2 C-0.67 1.34 -0.34 0.68 0 0 Z " fill="#EAECF5" transform="translate(63,98)"/>
<path d="M0 0 C4 4.625 4 4.625 4 8 C3.01 8.495 3.01 8.495 2 9 C0.4375 6.1875 0.4375 6.1875 -1 3 C-0.67 2.01 -0.34 1.02 0 0 Z " fill="#222368" transform="translate(57,98)"/>
<path d="M0 0 C0.66 0.33 1.32 0.66 2 1 C1.67 2.65 1.34 4.3 1 6 C-1.475 5.01 -1.475 5.01 -4 4 C-3.67 3.01 -3.34 2.02 -3 1 C-2.01 0.67 -1.02 0.34 0 0 Z " fill="#E2E7EA" transform="translate(135,74)"/>
<path d="M0 0 C1.65 0 3.3 0 5 0 C3.9375 2 3.9375 2 2 4 C-1.6875 4.25 -1.6875 4.25 -5 4 C-5.33 3.34 -5.66 2.68 -6 2 C-4.35 2 -2.7 2 -1 2 C-0.67 1.34 -0.34 0.68 0 0 Z " fill="#272867" transform="translate(182,74)"/>
<path d="M0 0 C0.66 0 1.32 0 2 0 C1.4140625 6.15234375 1.4140625 6.15234375 1 8 C0.01 8.495 0.01 8.495 -1 9 C-1.09765625 2.84765625 -1.09765625 2.84765625 -1 1 C-0.67 0.67 -0.34 0.34 0 0 Z " fill="#07018A" transform="translate(131,96)"/>
<path d="M0 0 C2.475 0.99 2.475 0.99 5 2 C4.401875 2.28875 3.80375 2.5775 3.1875 2.875 C0.80672208 4.04742026 0.80672208 4.04742026 -2 6 C-2.33 5.01 -2.66 4.02 -3 3 C-2.34 3 -1.68 3 -1 3 C-0.67 2.01 -0.34 1.02 0 0 Z " fill="#D5D5E9" transform="translate(37,73)"/>
<path d="M0 0 C0.99 0.99 1.98 1.98 3 3 C1.68 3.33 0.36 3.66 -1 4 C-1.33 5.98 -1.66 7.96 -2 10 C-2.33 10 -2.66 10 -3 10 C-3 7.36 -3 4.72 -3 2 C-2.01 2 -1.02 2 0 2 C0 1.34 0 0.68 0 0 Z " fill="#D1D1E5" transform="translate(174,74)"/>
<path d="M0 0 C-1.65 1.65 -3.3 3.3 -5 5 C-5.66 4.34 -6.32 3.68 -7 3 C-6.67 2.01 -6.34 1.02 -6 0 C-3.50907189 -1.24546405 -2.58919267 -0.7767578 0 0 Z " fill="#E9EDF2" transform="translate(71,75)"/>
<path d="M0 0 C0.66 0.33 1.32 0.66 2 1 C2 1.66 2 2.32 2 3 C0.37373596 4.38232443 -1.2925002 5.71937515 -3 7 C-3.33 6.01 -3.66 5.02 -4 4 C-2.68 2.68 -1.36 1.36 0 0 Z " fill="#E8EBF6" transform="translate(142,74)"/>
<path d="M0 0 C2.00720923 0.28674418 4.0085944 0.61866701 6 1 C4.824375 1.928125 4.824375 1.928125 3.625 2.875 C1.03162353 4.89858661 1.03162353 4.89858661 -1 7 C-1.04254356 5.00045254 -1.04080783 2.99958364 -1 1 C-0.67 0.67 -0.34 0.34 0 0 Z " fill="#F8FAF0" transform="translate(169,63)"/>
<path d="M0 0 C0.99 0.99 1.98 1.98 3 3 C2.67 3.66 2.34 4.32 2 5 C-0.5625 5.625 -0.5625 5.625 -3 6 C-1.125 1.125 -1.125 1.125 0 0 Z " fill="#EBEFF4" transform="translate(29,104)"/>
<path d="M0 0 C0.33 0.66 0.66 1.32 1 2 C1.66 2 2.32 2 3 2 C3 2.99 3 3.98 3 5 C2.01 5 1.02 5 0 5 C-0.33 5.99 -0.66 6.98 -1 8 C-1.04241723 5.66705225 -1.04092937 3.33297433 -1 1 C-0.67 0.67 -0.34 0.34 0 0 Z " fill="#F6F6F9" transform="translate(173,101)"/>
<path d="M0 0 C0.33 0.66 0.66 1.32 1 2 C1.66 2 2.32 2 3 2 C2.34 3.32 1.68 4.64 1 6 C-0.32 5.67 -1.64 5.34 -3 5 C-2.01 3.35 -1.02 1.7 0 0 Z " fill="#1C1C69" transform="translate(25,94)"/>
<path d="M0 0 C0.99 0.33 1.98 0.66 3 1 C3 1.66 3 2.32 3 3 C3.99 3.33 4.98 3.66 6 4 C5.01 4.495 5.01 4.495 4 5 C4 5.66 4 6.32 4 7 C3.34 7 2.68 7 2 7 C0.5393715 4.35261084 0 3.10551666 0 0 Z " fill="#E9E9F0" transform="translate(48,80)"/>
<path d="M0 0 C0 1.65 0 3.3 0 5 C-1.66666667 5 -3.33333333 5 -5 5 C-5 3.68 -5 2.36 -5 1 C-1.125 0 -1.125 0 0 0 Z " fill="#8F90CA" transform="translate(181,68)"/>
<path d="M0 0 C0.66 1.32 1.32 2.64 2 4 C0.1875 5.5625 0.1875 5.5625 -2 7 C-2.99 6.67 -3.98 6.34 -5 6 C-4.360625 5.566875 -3.72125 5.13375 -3.0625 4.6875 C-0.73253997 3.08760823 -0.73253997 3.08760823 0 0 Z " fill="#171654" transform="translate(133,102)"/>
<path d="M0 0 C2.475 0.495 2.475 0.495 5 1 C5 2.32 5 3.64 5 5 C3.0625 4.1875 3.0625 4.1875 1 3 C0.67 2.01 0.34 1.02 0 0 Z " fill="#292B6D" transform="translate(139,104)"/>
<path d="M0 0 C2.25245881 2.68841859 3.88213958 4.64641875 5 8 C4.34 8 3.68 8 3 8 C1.02610343 6.02610343 0.04109483 4.56269497 -1 2 C-0.67 1.34 -0.34 0.68 0 0 Z " fill="#1B1961" transform="translate(49,85)"/>
</svg>
