<?xml version="1.0" encoding="UTF-8"?>
<svg version="1.1" xmlns="http://www.w3.org/2000/svg" width="200" height="188">
<path d="M0 0 C66 0 132 0 200 0 C200 62.04 200 124.08 200 188 C134 188 68 188 0 188 C0 125.96 0 63.92 0 0 Z " fill="#FEFEFE" transform="translate(0,0)"/>
<path d="M0 0 C0 0.66 0 1.32 0 2 C0.66 1.67 1.32 1.34 2 1 C5.13969311 0.7369974 8.28799981 0.7685401 11.4375 0.75 C12.30955078 0.729375 13.18160156 0.70875 14.08007812 0.6875 C14.91861328 0.68234375 15.75714844 0.6771875 16.62109375 0.671875 C17.77242798 0.65785645 17.77242798 0.65785645 18.94702148 0.64355469 C21.55855625 1.09697849 22.46388253 1.86317141 24 4 C23.6875 7.1875 23.6875 7.1875 23 10 C23.99 10.495 23.99 10.495 25 11 C25.495 12.485 25.495 12.485 26 14 C27.65 10.7 29.3 7.4 31 4 C34.08356805 3.94600756 37.16618888 3.90633045 40.25 3.875 C41.55904297 3.84986328 41.55904297 3.84986328 42.89453125 3.82421875 C43.73886719 3.81777344 44.58320312 3.81132813 45.453125 3.8046875 C46.22817383 3.79421387 47.00322266 3.78374023 47.80175781 3.77294922 C50.32505711 4.03357431 51.88557674 4.60257639 54 6 C54.495 7.485 54.495 7.485 55 9 C55.66 6.69 56.32 4.38 57 2 C60.64616671 2.13816959 64.29183074 2.28681534 67.9375 2.4375 C68.97841797 2.47681641 70.01933594 2.51613281 71.09179688 2.55664062 C72.08115234 2.59853516 73.07050781 2.64042969 74.08984375 2.68359375 C75.46450806 2.73858032 75.46450806 2.73858032 76.86694336 2.79467773 C79 3 79 3 80 4 C81.44357324 4.03830842 82.88899282 4.01190675 84.33203125 3.95703125 C85.21310547 3.93576172 86.09417969 3.91449219 87.00195312 3.89257812 C88.86431435 3.83951571 90.72637748 3.77455576 92.58789062 3.69726562 C99.42693936 3.56277596 99.42693936 3.56277596 102.63671875 6.01171875 C103.31154297 6.99591797 103.31154297 6.99591797 104 8 C104.80824219 7.34644531 105.61648437 6.69289063 106.44921875 6.01953125 C110.46103933 3.34694904 114.12441437 3.50765017 118.8125 3.6875 C119.58787109 3.69716797 120.36324219 3.70683594 121.16210938 3.71679688 C126.83086635 3.83086635 126.83086635 3.83086635 128 5 C128.29386153 8.72224599 128.14809171 9.77786243 126 13 C123.8359375 13.29296875 123.8359375 13.29296875 121.375 13.1875 C120.55773437 13.16042969 119.74046875 13.13335937 118.8984375 13.10546875 C118.27195313 13.07066406 117.64546875 13.03585938 117 13 C117.33 11.35 117.66 9.7 118 8 C117.01 8 116.02 8 115 8 C114.84144531 8.54527344 114.68289062 9.09054688 114.51953125 9.65234375 C112.69131717 15.56121247 110.17078876 20.69864172 107 26 C107.99 26 108.98 26 110 26 C110.309375 25.030625 110.61875 24.06125 110.9375 23.0625 C112 20 112 20 113 19 C114.51928038 18.92820036 116.04167482 18.91607993 117.5625 18.9375 C118.38878906 18.94652344 119.21507812 18.95554687 120.06640625 18.96484375 C121.02353516 18.98224609 121.02353516 18.98224609 122 19 C121.31911019 21.91985181 120.41898766 24.35122304 119 27 C118.34 27 117.68 27 117 27 C116.06934867 29.60582371 115.85082593 30.64198224 116.9375 33.25 C117.288125 33.8275 117.63875 34.405 118 35 C117.01 35 116.02 35 115 35 C116.65 35.66 118.3 36.32 120 37 C120 38.32 120 39.64 120 41 C119.34 41 118.68 41 118 41 C118 41.66 118 42.32 118 43 C118.66 43 119.32 43 120 43 C120 44.32 120 45.64 120 47 C119.34 47 118.68 47 118 47 C118 47.66 118 48.32 118 49 C116.3125 49.6875 116.3125 49.6875 114 50 C111.25 48.8125 111.25 48.8125 109 47 C109 45.68 109 44.36 109 43 C107.68 43 106.36 43 105 43 C105 44.32 105 45.64 105 47 C104.34 47 103.68 47 103 47 C103 43.7 103 40.4 103 37 C105.97 37 108.94 37 112 37 C112 36.34 112 35.68 112 35 C106.66146176 34.9752634 101.32295697 34.9571226 95.984375 34.94506836 C94.16861388 34.94004259 92.3528568 34.93322097 90.53710938 34.92456055 C87.9257711 34.91241811 85.31448638 34.90675409 82.703125 34.90234375 C81.89256653 34.89718246 81.08200806 34.89202118 80.24688721 34.88670349 C76.6579583 34.88634704 73.45259214 35.02954053 70 36 C70 36.99 70 37.98 70 39 C73.3 39 76.6 39 80 39 C80 38.34 80 37.68 80 37 C83.68087353 34.54608431 86.44355588 34.77197241 90.6875 34.875 C91.38939453 34.88402344 92.09128906 34.89304688 92.81445312 34.90234375 C94.54311525 34.92586296 96.27160145 34.96173287 98 35 C97.67 35.66 97.34 36.32 97 37 C97.66 37.33 98.32 37.66 99 38 C99 40.97 99 43.94 99 47 C94.58774263 48.47075246 91.51718381 49.36884358 87 48 C86.67 48.66 86.34 49.32 86 50 C85.34 50 84.68 50 84 50 C84 49.34 84 48.68 84 48 C77.30386804 47.202163 70.74233419 46.87089147 64 47 C64 45.35 64 43.7 64 42 C62.68 42 61.36 42 60 42 C60 43.98 60 45.96 60 48 C59.34 48 58.68 48 58 48 C57.67 48.99 57.34 49.98 57 51 C56.67 50.01 56.34 49.02 56 48 C54.16666667 46.66666667 54.16666667 46.66666667 52 46 C50.515 46.495 50.515 46.495 49 47 C48.6278958 48.32303717 48.29369827 49.65737935 48 51 C47.01 51.495 47.01 51.495 46 52 C46 51.34 46 50.68 46 50 C41.55495938 48.51831979 38.13892211 48.93053894 34 51 C33.505 49.02 33.505 49.02 33 47 C31.68 47.33 30.36 47.66 29 48 C28.505 44.535 28.505 44.535 28 41 C27.34 41 26.68 41 26 41 C26.495 43.97 26.495 43.97 27 47 C10.33333333 47 -6.33333333 47 -23 47 C-23 44.03 -23 41.06 -23 38 C-24.32 38 -25.64 38 -27 38 C-26.505 38.495 -26.505 38.495 -26 39 C-25.85884839 41.67058851 -25.95752893 44.32432238 -26 47 C-29.3 47 -32.6 47 -36 47 C-36 47.66 -36 48.32 -36 49 C-36.66 49 -37.32 49 -38 49 C-38.33 49.99 -38.66 50.98 -39 52 C-41.66666667 50.66666667 -44.33333333 49.33333333 -47 48 C-47 47.34 -47 46.68 -47 46 C-50.465 46.495 -50.465 46.495 -54 47 C-54 43.7 -54 40.4 -54 37 C-53.34 37 -52.68 37 -52 37 C-52.33 36.154375 -52.66 35.30875 -53 34.4375 C-55.36477471 26.30858693 -53.14652834 21.61208472 -49.3125 14.37890625 C-48.879375 13.59386719 -48.44625 12.80882813 -48 12 C-47.34 12 -46.68 12 -46 12 C-45.896875 11.443125 -45.79375 10.88625 -45.6875 10.3125 C-44.85988599 7.52870742 -43.62262248 5.40148127 -42 3 C-39.38200639 1.6910032 -37.32733643 1.80506964 -34.3984375 1.71875 C-33.26792969 1.68136719 -32.13742188 1.64398438 -30.97265625 1.60546875 C-29.78542969 1.57066406 -28.59820312 1.53585938 -27.375 1.5 C-18.27390534 1.22787425 -9.06350674 -0.22658767 0 0 Z " fill="#FEE1E3" transform="translate(62,68)"/>
<path d="M0 0 C3.64616671 0.13816959 7.29183074 0.28681534 10.9375 0.4375 C11.97841797 0.47681641 13.01933594 0.51613281 14.09179688 0.55664062 C15.08115234 0.59853516 16.07050781 0.64042969 17.08984375 0.68359375 C18.46450806 0.73858032 18.46450806 0.73858032 19.86694336 0.79467773 C22 1 22 1 23 2 C24.44357324 2.03830842 25.88899282 2.01190675 27.33203125 1.95703125 C28.21310547 1.93576172 29.09417969 1.91449219 30.00195312 1.89257812 C31.86431435 1.83951571 33.72637748 1.77455576 35.58789062 1.69726562 C42.42693936 1.56277596 42.42693936 1.56277596 45.63671875 4.01171875 C46.08660156 4.66785156 46.53648437 5.32398437 47 6 C47.80824219 5.34644531 48.61648437 4.69289063 49.44921875 4.01953125 C53.46103933 1.34694904 57.12441437 1.50765017 61.8125 1.6875 C62.58787109 1.69716797 63.36324219 1.70683594 64.16210938 1.71679688 C69.83086635 1.83086635 69.83086635 1.83086635 71 3 C71.29386153 6.72224599 71.14809171 7.77786243 69 11 C66.8359375 11.29296875 66.8359375 11.29296875 64.375 11.1875 C63.55773437 11.16042969 62.74046875 11.13335937 61.8984375 11.10546875 C61.27195312 11.07066406 60.64546875 11.03585938 60 11 C60.33 9.35 60.66 7.7 61 6 C60.01 6 59.02 6 58 6 C57.76216797 6.81791016 57.76216797 6.81791016 57.51953125 7.65234375 C55.69131717 13.56121247 53.17078876 18.69864172 50 24 C50.99 24 51.98 24 53 24 C53.4640625 22.5459375 53.4640625 22.5459375 53.9375 21.0625 C55 18 55 18 56 17 C57.51928038 16.92820036 59.04167482 16.91607993 60.5625 16.9375 C61.38878906 16.94652344 62.21507812 16.95554687 63.06640625 16.96484375 C64.02353516 16.98224609 64.02353516 16.98224609 65 17 C64.31911019 19.91985181 63.41898766 22.35122304 62 25 C61.34 25 60.68 25 60 25 C59.06934867 27.60582371 58.85082593 28.64198224 59.9375 31.25 C60.288125 31.8275 60.63875 32.405 61 33 C60.01 33 59.02 33 58 33 C59.65 33.66 61.3 34.32 63 35 C63 36.32 63 37.64 63 39 C62.34 39 61.68 39 61 39 C61 39.66 61 40.32 61 41 C61.66 41 62.32 41 63 41 C63 42.32 63 43.64 63 45 C62.34 45 61.68 45 61 45 C61 45.66 61 46.32 61 47 C59.3125 47.6875 59.3125 47.6875 57 48 C54.25 46.8125 54.25 46.8125 52 45 C52 43.68 52 42.36 52 41 C50.68 41 49.36 41 48 41 C48 42.32 48 43.64 48 45 C47.34 45 46.68 45 46 45 C46 41.7 46 38.4 46 35 C48.97 35 51.94 35 55 35 C55 34.34 55 33.68 55 33 C22.99 32.34 -9.02 31.68 -42 31 C-42 30.01 -42 29.02 -42 28 C-41.01 28 -40.02 28 -39 28 C-39 27.34 -39 26.68 -39 26 C-38.34 26 -37.68 26 -37 26 C-36.76539062 25.20335938 -36.53078125 24.40671875 -36.2890625 23.5859375 C-34.66516945 19.06856229 -32.55462105 14.89569499 -30.375 10.625 C-29.95476562 9.79355469 -29.53453125 8.96210937 -29.1015625 8.10546875 C-28.07133925 6.06843641 -27.03741179 4.03337811 -26 2 C-22.91674642 1.9417747 -19.83363495 1.90632866 -16.75 1.875 C-15.44095703 1.84986328 -15.44095703 1.84986328 -14.10546875 1.82421875 C-13.26113281 1.81777344 -12.41679688 1.81132813 -11.546875 1.8046875 C-10.77182617 1.79421387 -9.99677734 1.78374023 -9.19824219 1.77294922 C-6.67494289 2.03357431 -5.11442326 2.60257639 -3 4 C-2.505 5.485 -2.505 5.485 -2 7 C-1.34 4.69 -0.68 2.38 0 0 Z " fill="#CE8B94" transform="translate(119,70)"/>
<path d="M0 0 C1.1810733 0.00007553 2.36214661 0.00015106 3.57901001 0.00022888 C4.85924042 0.00539017 6.13947083 0.01055145 7.45849609 0.01586914 C8.76523285 0.01728409 10.0719696 0.01869904 11.41830444 0.02015686 C14.89369617 0.02397645 18.36904616 0.03380197 21.84442139 0.04486084 C25.39025305 0.05508696 28.93609144 0.05965706 32.48193359 0.06469727 C39.44028408 0.07542473 46.39860683 0.09249447 53.35693359 0.11352539 C52.00483671 5.04886222 50.4243362 9.29484592 47.98193359 13.80102539 C47.39669922 14.89801758 46.81146484 15.99500977 46.20849609 17.12524414 C43.01301729 22.28250424 43.01301729 22.28250424 40.35693359 24.11352539 C37.25587709 24.58627968 34.23418005 24.49056978 31.10693359 24.36352539 C30.26646484 24.34547852 29.42599609 24.32743164 28.56005859 24.30883789 C26.49185965 24.26183337 24.42424919 24.19009263 22.35693359 24.11352539 C27.63693359 24.44352539 32.91693359 24.77352539 38.35693359 25.11352539 C32.65116303 30.81929596 28.33338274 31.33775609 20.58821106 31.41706848 C19.60052231 31.41615707 18.61283356 31.41524567 17.59521484 31.41430664 C16.56760544 31.41859177 15.53999603 31.42287689 14.48124695 31.42729187 C12.31701391 31.4330182 10.15276163 31.43354799 7.98852539 31.42919922 C4.6702429 31.42602616 1.3528412 31.44956518 -1.96533203 31.47485352 C-4.07014861 31.47712529 -6.1749676 31.47783057 -8.27978516 31.47680664 C-9.77042732 31.49062126 -9.77042732 31.49062126 -11.29118347 31.50471497 C-12.67325737 31.49537178 -12.67325737 31.49537178 -14.08325195 31.48583984 C-15.29853828 31.48678398 -15.29853828 31.48678398 -16.53837585 31.48774719 C-19.1744595 31.01904172 -20.04740046 30.23269894 -21.64306641 28.11352539 C-23.02138928 20.91561703 -19.03667784 15.26444611 -15.64306641 9.11352539 C-14.98306641 9.11352539 -14.32306641 9.11352539 -13.64306641 9.11352539 C-13.58119141 8.53602539 -13.51931641 7.95852539 -13.45556641 7.36352539 C-11.26744174 1.30410325 -5.73460099 -0.01220128 0 0 Z " fill="#EAE644" transform="translate(29.64306640625,70.886474609375)"/>
<path d="M0 0 C10.89 0.495 10.89 0.495 22 1 C23 4 23 4 21.48828125 7.51171875 C20.77307351 8.90883777 20.04733774 10.3006052 19.3125 11.6875 C18.95994141 12.37005859 18.60738281 13.05261719 18.24414062 13.75585938 C17.56886352 15.06320572 16.88946067 16.36843653 16.2043457 17.6706543 C14.43362906 21.09542777 12.72421059 24.55157882 11 28 C17.6 28 24.2 28 31 28 C31 28.33 31 28.66 31 29 C7.24 29 -16.52 29 -41 29 C-41.33 29.66 -41.66 30.32 -42 31 C-42 30.01 -42 29.02 -42 28 C-41.01 28 -40.02 28 -39 28 C-39 27.34 -39 26.68 -39 26 C-38.34 26 -37.68 26 -37 26 C-36.76539062 25.20335938 -36.53078125 24.40671875 -36.2890625 23.5859375 C-34.66516945 19.06856229 -32.55462105 14.89569499 -30.375 10.625 C-29.95476562 9.79355469 -29.53453125 8.96210937 -29.1015625 8.10546875 C-28.07133925 6.06843641 -27.03741179 4.03337811 -26 2 C-22.91674642 1.9417747 -19.83363495 1.90632866 -16.75 1.875 C-15.44095703 1.84986328 -15.44095703 1.84986328 -14.10546875 1.82421875 C-13.26113281 1.81777344 -12.41679688 1.81132813 -11.546875 1.8046875 C-10.77182617 1.79421387 -9.99677734 1.78374023 -9.19824219 1.77294922 C-6.67494289 2.03357431 -5.11442326 2.60257639 -3 4 C-2.505 5.485 -2.505 5.485 -2 7 C-1.34 4.69 -0.68 2.38 0 0 Z " fill="#F7F0EE" transform="translate(119,70)"/>
<path d="M0 0 C0 0.66 0 1.32 0 2 C0.66 1.67 1.32 1.34 2 1 C5.13969311 0.7369974 8.28799981 0.7685401 11.4375 0.75 C12.30955078 0.729375 13.18160156 0.70875 14.08007812 0.6875 C14.91861328 0.68234375 15.75714844 0.6771875 16.62109375 0.671875 C17.77242798 0.65785645 17.77242798 0.65785645 18.94702148 0.64355469 C21.55855625 1.09697849 22.46388253 1.86317141 24 4 C23.6875 7.1875 23.6875 7.1875 23 10 C23.99 10.495 23.99 10.495 25 11 C26.2417054 14.32921014 26.08972381 15.7700647 24.78515625 19.11328125 C24.21667969 20.16902344 23.64820312 21.22476563 23.0625 22.3125 C22.49660156 23.38113281 21.93070312 24.44976562 21.34765625 25.55078125 C20.90292969 26.35902344 20.45820312 27.16726562 20 28 C19.34 28 18.68 28 18 28 C18 28.66 18 29.32 18 30 C17.01 30 16.02 30 15 30 C15.495 31.98 15.495 31.98 16 34 C14.7934375 34.4021875 14.7934375 34.4021875 13.5625 34.8125 C12.2940625 35.4003125 12.2940625 35.4003125 11 36 C10.67 36.99 10.34 37.98 10 39 C7.36 39 4.72 39 2 39 C2 38.34 2 37.68 2 37 C1.01 37 0.02 37 -1 37 C-1.33 37.99 -1.66 38.98 -2 40 C-5.63 40 -9.26 40 -13 40 C-13 42.31 -13 44.62 -13 47 C-16.3 47 -19.6 47 -23 47 C-23 44.03 -23 41.06 -23 38 C-24.32 38 -25.64 38 -27 38 C-26.505 38.495 -26.505 38.495 -26 39 C-25.85884839 41.67058851 -25.95752893 44.32432238 -26 47 C-29.3 47 -32.6 47 -36 47 C-36 47.66 -36 48.32 -36 49 C-36.66 49 -37.32 49 -38 49 C-38.33 49.99 -38.66 50.98 -39 52 C-41.66666667 50.66666667 -44.33333333 49.33333333 -47 48 C-47 47.34 -47 46.68 -47 46 C-50.465 46.495 -50.465 46.495 -54 47 C-54 43.7 -54 40.4 -54 37 C-53.34 37 -52.68 37 -52 37 C-52.33 35.02 -52.66 33.04 -53 31 C-52.34 31.33 -51.68 31.66 -51 32 C-51 32.66 -51 33.32 -51 34 C-44.45259993 33.93274089 -37.90578487 33.8428338 -31.35888672 33.73754883 C-29.13402268 33.70439742 -26.90907652 33.67633534 -24.68408203 33.65356445 C-21.4765337 33.61983855 -18.26973134 33.56751288 -15.0625 33.51171875 C-14.07572266 33.50532883 -13.08894531 33.4989389 -12.07226562 33.49235535 C-2.86550455 33.31131392 -2.86550455 33.31131392 5 29 C3.94039062 28.95101562 2.88078125 28.90203125 1.7890625 28.8515625 C0.40101503 28.77653291 -0.98700451 28.70098515 -2.375 28.625 C-3.07367188 28.5940625 -3.77234375 28.563125 -4.4921875 28.53125 C-9.7734375 28.2265625 -9.7734375 28.2265625 -12 26 C-7.38 26 -2.76 26 2 26 C2 25.67 2 25.34 2 25 C3.19625 25.04125 4.3925 25.0825 5.625 25.125 C8.74222837 24.76086359 9.72403298 24.33164995 11.76171875 21.8828125 C13.28394468 19.29847931 14.65573586 16.68059753 16 14 C16.50917969 13.19046875 17.01835938 12.3809375 17.54296875 11.546875 C19.12984475 8.77303277 20.02843039 6.03657911 21 3 C13.37635159 3.10760411 5.75279196 3.22025824 -1.87068558 3.33933926 C-5.41066693 3.39447655 -8.95065668 3.44788161 -12.49072266 3.49731445 C-16.56161313 3.55423585 -20.6323535 3.61871557 -24.703125 3.68359375 C-26.60798676 3.70866249 -26.60798676 3.70866249 -28.55133057 3.73423767 C-30.32271393 3.7641555 -30.32271393 3.7641555 -32.12988281 3.79467773 C-33.68875214 3.81799416 -33.68875214 3.81799416 -35.27911377 3.84178162 C-37.67215397 3.98093589 -39.71144075 4.31731107 -42 5 C-42 4.34 -42 3.68 -42 3 C-39.38200639 1.6910032 -37.32733643 1.80506964 -34.3984375 1.71875 C-33.26792969 1.68136719 -32.13742188 1.64398438 -30.97265625 1.60546875 C-29.78542969 1.57066406 -28.59820312 1.53585938 -27.375 1.5 C-18.27390534 1.22787425 -9.06350674 -0.22658767 0 0 Z " fill="#F7F3F2" transform="translate(62,68)"/>
<path d="M0 0 C3.10408807 -0.05807043 6.2080364 -0.09361914 9.3125 -0.125 C10.19357422 -0.14175781 11.07464844 -0.15851563 11.98242188 -0.17578125 C12.82998047 -0.18222656 13.67753906 -0.18867187 14.55078125 -0.1953125 C15.72120972 -0.21102295 15.72120972 -0.21102295 16.9152832 -0.22705078 C19 0 19 0 22 2 C21.51058824 7.50588235 21.51058824 7.50588235 19.0625 9.875 C17 11 17 11 15 11 C15 11.66 15 12.32 15 13 C15.66 13 16.32 13 17 13 C16.43452454 16.95832823 15.42494621 19.79560679 13 23 C8.30616994 25.67300303 3.41952723 25.22644124 -1.8125 25.125 C-2.69615234 25.11597656 -3.57980469 25.10695313 -4.49023438 25.09765625 C-6.66027359 25.07419637 -8.83017247 25.03832865 -11 25 C-10.40541585 21.34430318 -9.39426489 18.43178554 -7.71484375 15.13671875 C-7.26689453 14.25048828 -6.81894531 13.36425781 -6.35742188 12.45117188 C-5.88884766 11.53916016 -5.42027344 10.62714844 -4.9375 9.6875 C-4.46505859 8.75615234 -3.99261719 7.82480469 -3.50585938 6.86523438 C-2.34262356 4.57401231 -1.17386868 2.2857876 0 0 Z " fill="#1A1A1A" transform="translate(93,72)"/>
<path d="M0 0 C0.95970703 0.06703125 1.91941406 0.1340625 2.90820312 0.203125 C3.88724609 0.23921875 4.86628906 0.2753125 5.875 0.3125 C8.28592432 0.40658485 10.6887875 0.53781049 13.09570312 0.703125 C11.8248709 5.66692016 10.17898321 9.85515191 7.72070312 14.390625 C7.13546875 15.48761719 6.55023438 16.58460937 5.94726562 17.71484375 C4.15369154 20.60953611 2.83425593 22.68319953 0.09570312 24.703125 C-3.14648438 25.12890625 -3.14648438 25.12890625 -6.77929688 25.015625 C-7.97296875 24.99113281 -9.16664062 24.96664062 -10.39648438 24.94140625 C-13.62813301 24.72188446 -16.72330381 24.30138516 -19.90429688 23.703125 C-18.91429687 21.723125 -17.92429688 19.743125 -16.90429688 17.703125 C-16.24429688 17.703125 -15.58429687 17.703125 -14.90429688 17.703125 C-14.81792969 17.14625 -14.7315625 16.589375 -14.64257812 16.015625 C-14.50207031 15.2525 -14.3615625 14.489375 -14.21679688 13.703125 C-14.08917969 12.960625 -13.9615625 12.218125 -13.83007812 11.453125 C-11.13246406 3.43995918 -8.91509888 -0.24678474 0 0 Z " fill="#E41E26" transform="translate(69.904296875,70.296875)"/>
<path d="M0 0 C2.27057377 -0.05398987 4.54151288 -0.09278742 6.8125 -0.125 C8.07707031 -0.14820312 9.34164062 -0.17140625 10.64453125 -0.1953125 C14 0 14 0 17 2 C14.29120665 3.35439668 11.99066732 3.06501451 9 3 C8.73445313 3.85851562 8.46890625 4.71703125 8.1953125 5.6015625 C6.98976199 9.02910808 5.52755614 12.14173798 3.875 15.375 C3.33617187 16.43460938 2.79734375 17.49421875 2.2421875 18.5859375 C1.83226562 19.38257812 1.42234375 20.17921875 1 21 C4.31344855 20.264141 4.31344855 20.264141 5.82421875 16.83984375 C6.45553148 15.54399131 7.07625399 14.24293771 7.6875 12.9375 C8.00783203 12.27427734 8.32816406 11.61105469 8.65820312 10.92773438 C9.4478598 9.28949142 10.22512362 7.64528546 11 6 C11.99 6 12.98 6 14 6 C13.67 6.99 13.34 7.98 13 9 C13.66 9 14.32 9 15 9 C15 8.01 15 7.02 15 6 C15.66 6 16.32 6 17 6 C17.33 5.01 17.66 4.02 18 3 C20 5 20 5 20 7 C19.41885574 10.64760757 18.42302889 13.77264605 16.875 17.125 C16.50117188 17.97320312 16.12734375 18.82140625 15.7421875 19.6953125 C13.35785582 22.84947325 10.74912271 24.08206283 7 25 C3.67284615 25.32385774 0.4010585 25.28651428 -2.9375 25.1875 C-4.24944336 25.16719727 -4.24944336 25.16719727 -5.58789062 25.14648438 C-7.72553086 25.11144109 -9.86284984 25.05764541 -12 25 C-8.16807409 16.57519836 -4.1928246 8.25183564 0 0 Z " fill="#141413" transform="translate(142,72)"/>
<path d="M0 0 C11.22 0 22.44 0 34 0 C34 0.66 34 1.32 34 2 C34.99 2 35.98 2 37 2 C37 5.3 37 8.6 37 12 C34.36 12 31.72 12 29 12 C29 9.03 29 6.06 29 3 C27.68 3 26.36 3 25 3 C25.33 3.33 25.66 3.66 26 4 C26.14115161 6.67058851 26.04247107 9.32432238 26 12 C22.7 12 19.4 12 16 12 C16 12.66 16 13.32 16 14 C15.34 14 14.68 14 14 14 C13.67 14.99 13.34 15.98 13 17 C10.33333333 15.66666667 7.66666667 14.33333333 5 13 C5 12.34 5 11.68 5 11 C2.69 11.33 0.38 11.66 -2 12 C-2 8.7 -2 5.4 -2 2 C-1.34 2 -0.68 2 0 2 C0 1.34 0 0.68 0 0 Z " fill="#F4F4EB" transform="translate(10,103)"/>
<path d="M0 0 C1.16982422 0.00773437 1.16982422 0.00773437 2.36328125 0.015625 C8.09537588 0.09537588 8.09537588 0.09537588 9.25 1.25 C9.54386153 4.97224599 9.39809171 6.02786243 7.25 9.25 C5.0859375 9.54296875 5.0859375 9.54296875 2.625 9.4375 C1.80773437 9.41042969 0.99046875 9.38335937 0.1484375 9.35546875 C-0.47804687 9.32066406 -1.10453125 9.28585938 -1.75 9.25 C-1.42 7.6 -1.09 5.95 -0.75 4.25 C-1.74 4.25 -2.73 4.25 -3.75 4.25 C-3.98783203 5.06791016 -3.98783203 5.06791016 -4.23046875 5.90234375 C-6.05868283 11.81121247 -8.57921124 16.94864172 -11.75 22.25 C-10.76 22.25 -9.77 22.25 -8.75 22.25 C-8.440625 21.280625 -8.13125 20.31125 -7.8125 19.3125 C-6.75 16.25 -6.75 16.25 -5.75 15.25 C-4.23071962 15.17820036 -2.70832518 15.16607993 -1.1875 15.1875 C-0.36121094 15.19652344 0.46507812 15.20554687 1.31640625 15.21484375 C1.95449219 15.22644531 2.59257812 15.23804687 3.25 15.25 C1.91447368 20.75328947 1.91447368 20.75328947 0.25 23.25 C-4.57041385 26.11212073 -11.46969921 26.82579748 -16.953125 25.86328125 C-18.57480946 25.39853022 -20.16763525 24.83478697 -21.75 24.25 C-22.55346598 21.92991915 -22.87971702 20.65290285 -22.11669922 18.28295898 C-20.96621087 16.07640167 -19.81328653 13.87402102 -18.625 11.6875 C-18.233125 10.91986328 -17.84125 10.15222656 -17.4375 9.36132812 C-13.09807538 1.22845225 -8.93397007 -0.24105147 0 0 Z " fill="#151514" transform="translate(180.75,71.75)"/>
<path d="M0 0 C0.80244141 0.04833984 1.60488281 0.09667969 2.43164062 0.14648438 C3.68170898 0.2305957 3.68170898 0.2305957 4.95703125 0.31640625 C6.22450195 0.3947168 6.22450195 0.3947168 7.51757812 0.47460938 C9.60189424 0.60414314 11.68576307 0.74083802 13.76953125 0.87890625 C13.43953125 2.19890625 13.10953125 3.51890625 12.76953125 4.87890625 C13.75953125 4.87890625 14.74953125 4.87890625 15.76953125 4.87890625 C15.43953125 7.51890625 15.10953125 10.15890625 14.76953125 12.87890625 C13.77953125 13.20890625 12.78953125 13.53890625 11.76953125 13.87890625 C11.27453125 10.41390625 11.27453125 10.41390625 10.76953125 6.87890625 C10.10953125 6.87890625 9.44953125 6.87890625 8.76953125 6.87890625 C9.26453125 9.84890625 9.26453125 9.84890625 9.76953125 12.87890625 C-0.23046875 12.87890625 -10.23046875 12.87890625 -20.23046875 12.87890625 C-21.39255859 12.89630859 -21.39255859 12.89630859 -22.578125 12.9140625 C-23.92197266 12.92759766 -23.92197266 12.92759766 -25.29296875 12.94140625 C-26.19144531 12.95300781 -27.08992188 12.96460937 -28.015625 12.9765625 C-30.23046875 12.87890625 -30.23046875 12.87890625 -31.23046875 11.87890625 C-31.27127658 9.87932261 -31.27301231 7.87845371 -31.23046875 5.87890625 C-27.17771715 4.89642101 -23.39185138 4.79731051 -19.23046875 4.87890625 C-18.90046875 4.21890625 -18.57046875 3.55890625 -18.23046875 2.87890625 C-17.24046875 2.87890625 -16.25046875 2.87890625 -15.23046875 2.87890625 C-15.23046875 3.53890625 -15.23046875 4.19890625 -15.23046875 4.87890625 C-12.59046875 4.87890625 -9.95046875 4.87890625 -7.23046875 4.87890625 C-7.23046875 3.55890625 -7.23046875 2.23890625 -7.23046875 0.87890625 C-4.35516794 -0.07952735 -2.93996944 -0.18765762 0 0 Z " fill="#C4C6C5" transform="translate(79.23046875,102.12109375)"/>
<path d="M0 0 C2.31 0.33 4.62 0.66 7 1 C7 1.99 7 2.98 7 4 C10.3 4 13.6 4 17 4 C17 3.34 17 2.68 17 2 C20.68087353 -0.45391569 23.44355588 -0.22802759 27.6875 -0.125 C28.38939453 -0.11597656 29.09128906 -0.10695313 29.81445312 -0.09765625 C31.54311525 -0.07413704 33.27160145 -0.03826713 35 0 C34.67 0.66 34.34 1.32 34 2 C34.66 2.33 35.32 2.66 36 3 C36 5.97 36 8.94 36 12 C31.58774263 13.47075246 28.51718381 14.36884358 24 13 C23.67 13.66 23.34 14.32 23 15 C22.34 15 21.68 15 21 15 C21 14.34 21 13.68 21 13 C14.30386804 12.202163 7.74233419 11.87089147 1 12 C1 10.35 1 8.7 1 7 C-0.32 7 -1.64 7 -3 7 C-3 8.65 -3 10.3 -3 12 C-3.66 12 -4.32 12 -5 12 C-5 9.36 -5 6.72 -5 4 C-3.35 3.67 -1.7 3.34 0 3 C0 2.01 0 1.02 0 0 Z " fill="#939394" transform="translate(125,103)"/>
<path d="M0 0 C1.86785156 0.01353516 1.86785156 0.01353516 3.7734375 0.02734375 C5.18496094 0.04474609 5.18496094 0.04474609 6.625 0.0625 C4.54971391 6.69132645 1.57370812 12.78046966 -1.375 19.0625 C-8.635 19.0625 -15.895 19.0625 -23.375 19.0625 C-22.5052743 14.71387149 -21.4275056 11.89979307 -19.375 8.0625 C-18.715 8.0625 -18.055 8.0625 -17.375 8.0625 C-17.2203125 7.1653125 -17.2203125 7.1653125 -17.0625 6.25 C-16.24147561 3.63764967 -15.59284974 2.66852912 -13.375 1.0625 C-8.88074025 0.08289699 -4.58933985 -0.04329566 0 0 Z " fill="#80CA27" transform="translate(33.375,71.9375)"/>
<path d="M0 0 C0.83265381 0.00523682 1.66530762 0.01047363 2.52319336 0.01586914 C3.42231445 0.0190918 4.32143555 0.02231445 5.24780273 0.02563477 C6.66609375 0.03820312 6.66609375 0.03820312 8.11303711 0.05102539 C9.06243164 0.05553711 10.01182617 0.06004883 10.98999023 0.06469727 C13.34356776 0.07652429 15.69702188 0.09300514 18.05053711 0.11352539 C17.72053711 1.10352539 17.39053711 2.09352539 17.05053711 3.11352539 C16.3634668 3.11610352 15.67639648 3.11868164 14.96850586 3.12133789 C12.21028351 3.23971653 9.7278854 3.42802076 7.05053711 4.11352539 C4.81166979 7.00032383 4.81166979 7.00032383 4.05053711 10.11352539 C6.69053711 10.11352539 9.33053711 10.11352539 12.05053711 10.11352539 C12.05053711 11.10352539 12.05053711 12.09352539 12.05053711 13.11352539 C11.37506836 13.09290039 10.69959961 13.07227539 10.00366211 13.05102539 C7.15719184 13.11683973 4.78148308 13.28739283 2.05053711 14.11352539 C-0.11935347 16.69231495 -0.81622922 18.86835624 -1.94946289 22.11352539 C1.02053711 22.11352539 3.99053711 22.11352539 7.05053711 22.11352539 C7.05053711 23.10352539 7.05053711 24.09352539 7.05053711 25.11352539 C0.12053711 25.11352539 -6.80946289 25.11352539 -13.94946289 25.11352539 C-13.11610719 21.78010258 -12.21795598 19.40472574 -10.69946289 16.38305664 C-10.25602539 15.49811523 -9.81258789 14.61317383 -9.35571289 13.70141602 C-8.89165039 12.78553711 -8.42758789 11.8696582 -7.94946289 10.92602539 C-7.48540039 9.99854492 -7.02133789 9.07106445 -6.54321289 8.11547852 C-2.53299756 0.14750706 -2.53299756 0.14750706 0 0 Z " fill="#161615" transform="translate(121.949462890625,71.886474609375)"/>
<path d="M0 0 C6.27 0 12.54 0 19 0 C18.01 0.495 18.01 0.495 17 1 C16.76863488 2.95007741 16.54173248 4.90094397 16.3515625 6.85546875 C15.85111577 9.90819381 14.52983813 12.33941195 13 15 C12.34 15 11.68 15 11 15 C10.67 15.66 10.34 16.32 10 17 C9.01 16.67 8.02 16.34 7 16 C7 15.34 7 14.68 7 14 C3.75016865 15.08784968 3.75016865 15.08784968 1 17 C-0.66617115 17.04063832 -2.33388095 17.042721 -4 17 C-3.91180119 15.29076788 -3.80361428 13.58256287 -3.6875 11.875 C-3.62949219 10.92367187 -3.57148437 9.97234375 -3.51171875 8.9921875 C-3 6 -3 6 0 0 Z " fill="#FAF009" transform="translate(40,72)"/>
<path d="M0 0 C5.625 -0.25 5.625 -0.25 9 2 C9.90625 4.21484375 9.90625 4.21484375 10 7 C8.53125 10.19140625 8.53125 10.19140625 6.5 13.5625 C3.73685944 17.70397995 3.73685944 17.70397995 3.28125 22.40234375 C3.5184375 22.92957031 3.755625 23.45679687 4 24 C10.58183362 24.8931507 16.42150508 24.95494281 23 24 C23 24.66 23 25.32 23 26 C20.40381617 27.29809191 18.50764984 27.12951281 15.6015625 27.1328125 C13.93540894 27.13571289 13.93540894 27.13571289 12.2355957 27.13867188 C10.44835083 27.1319043 10.44835083 27.1319043 8.625 27.125 C7.41739014 27.12306641 6.20978027 27.12113281 4.96557617 27.11914062 C-5.378714 27.06994392 -15.67824644 26.65908575 -26 26 C-26 25.67 -26 25.34 -26 25 C-24.69804687 24.95101562 -23.39609375 24.90203125 -22.0546875 24.8515625 C-20.32810529 24.77649371 -18.60154378 24.70094767 -16.875 24.625 C-15.59109375 24.57859375 -15.59109375 24.57859375 -14.28125 24.53125 C-7.42236064 24.23774231 -7.42236064 24.23774231 -1 22 C1.04534419 19.41253651 1.04534419 19.41253651 2.4375 16.25 C3.20900391 14.71085937 3.20900391 14.71085937 3.99609375 13.140625 C5.12243619 9.61697007 4.89758301 7.54784291 4 4 C3.67 4.66 3.34 5.32 3 6 C2.34 6 1.68 6 1 6 C1 6.99 1 7.98 1 9 C0.34 9 -0.32 9 -1 9 C-1.33 8.01 -1.66 7.02 -2 6 C-2.53109375 7.07121094 -3.0621875 8.14242187 -3.609375 9.24609375 C-4.32219556 10.64359721 -5.03577698 12.04071277 -5.75 13.4375 C-6.09804687 14.14455078 -6.44609375 14.85160156 -6.8046875 15.58007812 C-9.52331337 20.84112264 -9.52331337 20.84112264 -12.13378906 21.71118164 C-12.74963867 21.8064917 -13.36548828 21.90180176 -14 22 C-12.66224416 18.83701616 -11.27391837 15.69885704 -9.875 12.5625 C-9.49601562 11.66466797 -9.11703125 10.76683594 -8.7265625 9.84179688 C-7.61985942 7.39782757 -6.56589361 5.17980157 -5 3 C-1.6953125 1.90234375 -1.6953125 1.90234375 1 2 C0.67 1.34 0.34 0.68 0 0 Z " fill="#CEC4BF" transform="translate(156,72)"/>
<path d="M0 0 C5.94 0 11.88 0 18 0 C18.33 1.32 18.66 2.64 19 4 C18.01 4 17.02 4 16 4 C16 6.64 16 9.28 16 12 C16.66 12 17.32 12 18 12 C17.625 13.9375 17.625 13.9375 17 16 C16.34 16.33 15.68 16.66 15 17 C15 16.34 15 15.68 15 15 C10.55495938 13.51831979 7.13892211 13.93053894 3 16 C0.16977903 12.00439392 1.23789554 8.57262677 2 4 C1.34 4 0.68 4 0 4 C-0.33 4.66 -0.66 5.32 -1 6 C-1 5.34 -1 4.68 -1 4 C-1.66 3.67 -2.32 3.34 -3 3 C-2.34 3 -1.68 3 -1 3 C-0.67 2.01 -0.34 1.02 0 0 Z " fill="#EEF0EF" transform="translate(93,103)"/>
<path d="M0 0 C0.99 0 1.98 0 3 0 C3 0.66 3 1.32 3 2 C5.64 2 8.28 2 11 2 C11 1.34 11 0.68 11 0 C11.66 0 12.32 0 13 0 C13 3.3 13 6.6 13 10 C8 10 3 10 -2 10 C-3.16208984 10.01740234 -3.16208984 10.01740234 -4.34765625 10.03515625 C-5.69150391 10.04869141 -5.69150391 10.04869141 -7.0625 10.0625 C-7.96097656 10.07410156 -8.85945313 10.08570312 -9.78515625 10.09765625 C-12 10 -12 10 -13 9 C-13.04080783 7.00041636 -13.04254356 4.99954746 -13 3 C-8.9472484 2.01751476 -5.16138263 1.91840426 -1 2 C-0.67 1.34 -0.34 0.68 0 0 Z " fill="#9D9D9D" transform="translate(61,105)"/>
<path d="M0 0 C2.31 0.33 4.62 0.66 7 1 C7 1.99 7 2.98 7 4 C12.94 3.505 12.94 3.505 19 3 C21 9.75 21 9.75 21 12 C14.4 12 7.8 12 1 12 C1 10.35 1 8.7 1 7 C-0.32 7 -1.64 7 -3 7 C-3 8.65 -3 10.3 -3 12 C-3.66 12 -4.32 12 -5 12 C-5 9.36 -5 6.72 -5 4 C-3.35 3.67 -1.7 3.34 0 3 C0 2.01 0 1.02 0 0 Z " fill="#565456" transform="translate(125,103)"/>
<path d="M0 0 C3.10408807 -0.05807043 6.2080364 -0.09361914 9.3125 -0.125 C10.19357422 -0.14175781 11.07464844 -0.15851563 11.98242188 -0.17578125 C12.82998047 -0.18222656 13.67753906 -0.18867187 14.55078125 -0.1953125 C15.72120972 -0.21102295 15.72120972 -0.21102295 16.9152832 -0.22705078 C19 0 19 0 22 2 C21.51058824 7.50588235 21.51058824 7.50588235 19.0625 9.875 C17 11 17 11 15 11 C14.67 11.66 14.34 12.32 14 13 C13.67 11.68 13.34 10.36 13 9 C11.02 9.33 9.04 9.66 7 10 C6.67 8.35 6.34 6.7 6 5 C4.35 5 2.7 5 1 5 C1 5.99 1 6.98 1 8 C-0.32 7.34 -1.64 6.68 -3 6 C-2.01 4.02 -1.02 2.04 0 0 Z " fill="#2A2A2A" transform="translate(93,72)"/>
<path d="M0 0 C0.99 0 1.98 0 3 0 C3.66 1.32 4.32 2.64 5 4 C5.66 3.67 6.32 3.34 7 3 C7 3.99 7 4.98 7 6 C8.32 5.67 9.64 5.34 11 5 C10.875 6.8125 10.875 6.8125 10 9 C4.77214793 12.48523471 0.16282495 12.36481564 -5.875 12.1875 C-7.19371094 12.16719727 -7.19371094 12.16719727 -8.5390625 12.14648438 C-10.69297552 12.11136623 -12.84657004 12.05756694 -15 12 C-14.38550003 8.66177043 -13.65439171 5.97790508 -12 3 C-10.02 3.66 -8.04 4.32 -6 5 C-6 5.66 -6 6.32 -6 7 C-5.01 7 -4.02 7 -3 7 C-2.01 4.69 -1.02 2.38 0 0 Z " fill="#0C0C0A" transform="translate(97,85)"/>
<path d="M0 0 C0.33 0.66 0.66 1.32 1 2 C1.99 2 2.98 2 4 2 C4.12375 2.639375 4.2475 3.27875 4.375 3.9375 C4.58125 4.618125 4.7875 5.29875 5 6 C5.66 6.33 6.32 6.66 7 7 C7 7.99 7 8.98 7 10 C7.66 10 8.32 10 9 10 C9 11.32 9 12.64 9 14 C3.27959989 14.8320582 -2.22240116 15.12036664 -8 15 C-8 13.02 -8 11.04 -8 9 C-7.34 9 -6.68 9 -6 9 C-5.67 7.35 -5.34 5.7 -5 4 C-4.01 4 -3.02 4 -2 4 C-1.34 2.68 -0.68 1.36 0 0 Z " fill="#EC1C25" transform="translate(63,76)"/>
<path d="M0 0 C0.7352742 -0.00095673 1.4705484 -0.00191345 2.22810364 -0.00289917 C3.77015265 -0.00357517 5.31220461 -0.00176167 6.85424805 0.00244141 C9.21083948 0.00782119 11.56724235 0.00246489 13.92382812 -0.00390625 C15.42838584 -0.00324582 16.93294343 -0.00196537 18.4375 0 C19.48915596 -0.00303635 19.48915596 -0.00303635 20.5620575 -0.00613403 C23.85891578 0.0096642 26.86662596 0.11698283 30.01953125 1.1328125 C30.01953125 1.7928125 30.01953125 2.4528125 30.01953125 3.1328125 C26.69418368 4.24126169 24.3977055 3.97735606 21.01953125 3.1328125 C21.01953125 6.4328125 21.01953125 9.7328125 21.01953125 13.1328125 C20.35953125 12.4728125 19.69953125 11.8128125 19.01953125 11.1328125 C18.35953125 11.7928125 17.69953125 12.4528125 17.01953125 13.1328125 C17.01953125 10.1628125 17.01953125 7.1928125 17.01953125 4.1328125 C15.69953125 3.8028125 14.37953125 3.4728125 13.01953125 3.1328125 C13.67953125 2.8028125 14.33953125 2.4728125 15.01953125 2.1328125 C12.74876283 2.10581525 10.47790304 2.08641797 8.20703125 2.0703125 C6.94246094 2.05871094 5.67789063 2.04710938 4.375 2.03515625 C1.02347888 1.97122134 1.02347888 1.97122134 -1.98046875 3.1328125 C-1.98046875 3.7928125 -1.98046875 4.4528125 -1.98046875 5.1328125 C-5.28046875 5.1328125 -8.58046875 5.1328125 -11.98046875 5.1328125 C-11.98046875 4.1428125 -11.98046875 3.1528125 -11.98046875 2.1328125 C-12.97046875 1.8028125 -13.96046875 1.4728125 -14.98046875 1.1328125 C-9.95922793 0.31016717 -5.09172427 -0.0148293 0 0 Z " fill="#F7F5F0" transform="translate(143.98046875,101.8671875)"/>
<path d="M0 0 C1.11083984 1.71582031 1.11083984 1.71582031 2 4 C1.40087891 6.19824219 1.40087891 6.19824219 0.2265625 8.546875 C-0.14388184 9.30838867 -0.51432617 10.06990234 -0.89599609 10.85449219 C-1.38406738 11.81000977 -1.87213867 12.76552734 -2.375 13.75 C-3.90125 16.8025 -5.4275 19.855 -7 23 C-0.07 23 6.86 23 14 23 C14 23.33 14 23.66 14 24 C-3.01010801 24.87987352 -19.96858823 25.12884564 -37 25 C-37.33 25.66 -37.66 26.32 -38 27 C-38 26.01 -38 25.02 -38 24 C-37.01 24 -36.02 24 -35 24 C-35 23.34 -35 22.68 -35 22 C-34.39526855 22.01571045 -33.79053711 22.0314209 -33.16748047 22.04760742 C-30.40341704 22.1103188 -27.63950379 22.14910411 -24.875 22.1875 C-23.92367187 22.21263672 -22.97234375 22.23777344 -21.9921875 22.26367188 C-16.62193929 22.31961196 -12.52878455 22.25143506 -8 19 C-6.67698578 17.02081612 -6.67698578 17.02081612 -6.125 14.8125 C-5.75375 13.554375 -5.3825 12.29625 -5 11 C-5.66 11 -6.32 11 -7 11 C-7 10.34 -7 9.68 -7 9 C-5.824375 8.38125 -5.824375 8.38125 -4.625 7.75 C-1.3266667 5.55111113 -0.92128432 3.76889042 0 0 Z " fill="#DBCEC9" transform="translate(115,74)"/>
<path d="M0 0 C0 0.66 0 1.32 0 2 C0.66 1.67 1.32 1.34 2 1 C5.13969311 0.7369974 8.28799981 0.7685401 11.4375 0.75 C12.30955078 0.729375 13.18160156 0.70875 14.08007812 0.6875 C14.91861328 0.68234375 15.75714844 0.6771875 16.62109375 0.671875 C17.77242798 0.65785645 17.77242798 0.65785645 18.94702148 0.64355469 C21.55855625 1.09697849 22.46388253 1.86317141 24 4 C23.6875 7.1875 23.6875 7.1875 23 10 C22.34 10 21.68 10 21 10 C20.34 11.32 19.68 12.64 19 14 C18.34 14 17.68 14 17 14 C17.47730838 12.5410574 17.95691042 11.08286504 18.4375 9.625 C18.70433594 8.81289062 18.97117188 8.00078125 19.24609375 7.1640625 C20 5 20 5 21 3 C13.37635159 3.10760411 5.75279196 3.22025824 -1.87068558 3.33933926 C-5.41066693 3.39447655 -8.95065668 3.44788161 -12.49072266 3.49731445 C-16.56161313 3.55423585 -20.6323535 3.61871557 -24.703125 3.68359375 C-26.60798676 3.70866249 -26.60798676 3.70866249 -28.55133057 3.73423767 C-30.32271393 3.7641555 -30.32271393 3.7641555 -32.12988281 3.79467773 C-33.68875214 3.81799416 -33.68875214 3.81799416 -35.27911377 3.84178162 C-37.67215397 3.98093589 -39.71144075 4.31731107 -42 5 C-42 4.34 -42 3.68 -42 3 C-39.38200639 1.6910032 -37.32733643 1.80506964 -34.3984375 1.71875 C-33.26792969 1.68136719 -32.13742188 1.64398438 -30.97265625 1.60546875 C-29.78542969 1.57066406 -28.59820312 1.53585938 -27.375 1.5 C-18.27390534 1.22787425 -9.06350674 -0.22658767 0 0 Z " fill="#FFEEEB" transform="translate(62,68)"/>
<path d="M0 0 C0.99 0.495 0.99 0.495 2 1 C2 1.66 2 2.32 2 3 C27.245 2.505 27.245 2.505 53 2 C52.34 2.99 51.68 3.98 51 5 C51.495 6.485 51.495 6.485 52 8 C49.47524538 9.26237731 47.68799534 9.09856404 44.875 9.0625 C43.96492188 9.05347656 43.05484375 9.04445313 42.1171875 9.03515625 C41.41851562 9.02355469 40.71984375 9.01195313 40 9 C40 11.31 40 13.62 40 16 C39.34 16 38.68 16 38 16 C38 12.7 38 9.4 38 6 C37.01 6 36.02 6 35 6 C35 5.34 35 4.68 35 4 C23.78 4 12.56 4 1 4 C0.67 2.68 0.34 1.36 0 0 Z " fill="#F2E3CA" transform="translate(9,99)"/>
<path d="M0 0 C6.6 0.33 13.2 0.66 20 1 C15.21723082 5.78276918 12.08678002 7.06655982 5.4765625 7.1953125 C3.85925862 7.18216369 2.2420098 7.15852652 0.625 7.125 C-0.20644531 7.11597656 -1.03789063 7.10695313 -1.89453125 7.09765625 C-3.92981337 7.0742622 -5.96494564 7.03839725 -8 7 C-3.75 2.53571429 -3.75 2.53571429 0 2 C0 1.34 0 0.68 0 0 Z " fill="#D1322B" transform="translate(48,95)"/>
<path d="M0 0 C1.1765918 0.00773437 1.1765918 0.00773437 2.37695312 0.015625 C8.15807132 0.09557132 8.15807132 0.09557132 9.3125 1.25 C9.60636153 4.97224599 9.46059171 6.02786243 7.3125 9.25 C5.1484375 9.54296875 5.1484375 9.54296875 2.6875 9.4375 C1.87023437 9.41042969 1.05296875 9.38335937 0.2109375 9.35546875 C-0.41554687 9.32066406 -1.04203125 9.28585938 -1.6875 9.25 C-1.3575 7.6 -1.0275 5.95 -0.6875 4.25 C-1.285625 4.476875 -1.88375 4.70375 -2.5 4.9375 C-3.221875 5.040625 -3.94375 5.14375 -4.6875 5.25 C-5.161875 4.755 -5.63625 4.26 -6.125 3.75 C-6.640625 3.255 -7.15625 2.76 -7.6875 2.25 C-10.34216049 2.48043864 -10.34216049 2.48043864 -12.6875 3.25 C-8.9043649 -0.60413227 -5.04952261 -0.13476624 0 0 Z " fill="#232323" transform="translate(180.6875,71.75)"/>
<path d="M0 0 C3.63 0 7.26 0 11 0 C11 3.3 11 6.6 11 10 C10.34 10 9.68 10 9 10 C8.67 10.99 8.34 11.98 8 13 C5.33333333 11.66666667 2.66666667 10.33333333 0 9 C0 6.03 0 3.06 0 0 Z " fill="#DCDCDC" transform="translate(15,107)"/>
<path d="M0 0 C5.625 -0.25 5.625 -0.25 9 2 C8.67 3.65 8.34 5.3 8 7 C7.01 7 6.02 7 5 7 C4.67 6.01 4.34 5.02 4 4 C3.67 4.66 3.34 5.32 3 6 C2.34 6 1.68 6 1 6 C1 6.99 1 7.98 1 9 C0.34 9 -0.32 9 -1 9 C-1.33 8.01 -1.66 7.02 -2 6 C-2.53109375 7.07121094 -3.0621875 8.14242187 -3.609375 9.24609375 C-4.32219556 10.64359721 -5.03577698 12.04071277 -5.75 13.4375 C-6.09804687 14.14455078 -6.44609375 14.85160156 -6.8046875 15.58007812 C-9.52331337 20.84112264 -9.52331337 20.84112264 -12.13378906 21.71118164 C-12.74963867 21.8064917 -13.36548828 21.90180176 -14 22 C-12.66224416 18.83701616 -11.27391837 15.69885704 -9.875 12.5625 C-9.49601563 11.66466797 -9.11703125 10.76683594 -8.7265625 9.84179688 C-7.61985942 7.39782757 -6.56589361 5.17980157 -5 3 C-1.6953125 1.90234375 -1.6953125 1.90234375 1 2 C0.67 1.34 0.34 0.68 0 0 Z " fill="#282828" transform="translate(156,72)"/>
<path d="M0 0 C0.74958984 0.00451172 1.49917969 0.00902344 2.27148438 0.01367188 C4.11852383 0.02543646 5.96552213 0.04337135 7.8125 0.0625 C4.1875 4.9375 4.1875 4.9375 0.8125 6.0625 C0.4825 6.7225 0.1525 7.3825 -0.1875 8.0625 C-1.64492463 8.14346803 -3.10362807 8.20167774 -4.5625 8.25 C-5.37460938 8.28480469 -6.18671875 8.31960937 -7.0234375 8.35546875 C-7.73757813 8.25878906 -8.45171875 8.16210938 -9.1875 8.0625 C-11.1875 5.0625 -11.1875 5.0625 -11.1875 1.0625 C-7.42449626 -0.19183458 -3.91539091 -0.04445422 0 0 Z " fill="#87C731" transform="translate(20.1875,93.9375)"/>
<path d="M0 0 C-1.15585285 3.91211733 -2.35534962 6.8745041 -5 10 C-4.34 9.67 -3.68 9.34 -3 9 C-2.34 9.66 -1.68 10.32 -1 11 C-1.804375 11.268125 -2.60875 11.53625 -3.4375 11.8125 C-4.283125 12.204375 -5.12875 12.59625 -6 13 C-6.33 13.99 -6.66 14.98 -7 16 C-9.64 16 -12.28 16 -15 16 C-15 15.34 -15 14.68 -15 14 C-16.32 14.33 -17.64 14.66 -19 15 C-19 14.34 -19 13.68 -19 13 C-19.66 12.67 -20.32 12.34 -21 12 C-18.12090715 10.39686875 -15.75056525 9.7410848 -12.5 9.3125 C-9.76671791 8.76494595 -8.42134321 8.49528366 -6.59765625 6.3515625 C-5.65438119 4.60739353 -4.82052995 2.80516588 -4 1 C-2 0 -2 0 0 0 Z " fill="#F8F5F4" transform="translate(79,91)"/>
<path d="M0 0 C0.625 1.8125 0.625 1.8125 1 4 C0.01 5.485 0.01 5.485 -1 7 C-1.309375 7.99 -1.61875 8.98 -1.9375 10 C-2.95396265 12.87001217 -3.69157276 14.11128681 -6 16 C-4.35 15.67 -2.7 15.34 -1 15 C-0.67 14.01 -0.34 13.02 0 12 C0 12.66 0 13.32 0 14 C0.99 14.33 1.98 14.66 3 15 C2.34 16.32 1.68 17.64 1 19 C0.34 18.67 -0.32 18.34 -1 18 C-1 18.66 -1 19.32 -1 20 C0.32 20.66 1.64 21.32 3 22 C-1.00200378 23.60080151 -4.04556236 22.29279692 -8 21 C-8.84205836 18.62077693 -9.14174203 17.40070408 -8.28735352 14.98535156 C-7.90506592 14.2940918 -7.52277832 13.60283203 -7.12890625 12.890625 C-6.71962891 12.13652344 -6.31035156 11.38242188 -5.88867188 10.60546875 C-5.2322168 9.43951172 -5.2322168 9.43951172 -4.5625 8.25 C-3.9118457 7.06083984 -3.9118457 7.06083984 -3.24804688 5.84765625 C-2.17607546 3.89219191 -1.09321878 1.94364092 0 0 Z " fill="#1A1714" transform="translate(167,75)"/>
<path d="M0 0 C2.97 0 5.94 0 9 0 C8.67 0.66 8.34 1.32 8 2 C8.66 2.33 9.32 2.66 10 3 C10 5.97 10 8.94 10 12 C6.6875 13.125 6.6875 13.125 3 14 C2.01 13.34 1.02 12.68 0 12 C1.32 12 2.64 12 4 12 C4 9.36 4 6.72 4 4 C2.35 4 0.7 4 -1 4 C-0.67 2.68 -0.34 1.36 0 0 Z " fill="#F3F6F4" transform="translate(151,103)"/>
<path d="M0 0 C0.87454834 0.00523682 1.74909668 0.01047363 2.65014648 0.01586914 C3.59438477 0.0190918 4.53862305 0.02231445 5.51147461 0.02563477 C6.50469727 0.03401367 7.49791992 0.04239258 8.52124023 0.05102539 C9.51833008 0.05553711 10.51541992 0.06004883 11.54272461 0.06469727 C14.01478872 0.07652532 16.48673541 0.0930069 18.95874023 0.11352539 C17.87787276 4.13026263 16.77327999 7.86589985 14.83374023 11.55102539 C14.30393555 12.5700293 14.30393555 12.5700293 13.76342773 13.60961914 C13.49788086 14.1059082 13.23233398 14.60219727 12.95874023 15.11352539 C12.62874023 15.11352539 12.29874023 15.11352539 11.95874023 15.11352539 C11.95874023 13.13352539 11.95874023 11.15352539 11.95874023 9.11352539 C12.61874023 9.11352539 13.27874023 9.11352539 13.95874023 9.11352539 C13.62874023 8.45352539 13.29874023 7.79352539 12.95874023 7.11352539 C11.63874023 7.11352539 10.31874023 7.11352539 8.95874023 7.11352539 C8.95874023 6.45352539 8.95874023 5.79352539 8.95874023 5.11352539 C11.26874023 5.11352539 13.57874023 5.11352539 15.95874023 5.11352539 C15.95874023 4.12352539 15.95874023 3.13352539 15.95874023 2.11352539 C10.67874023 1.78352539 5.39874023 1.45352539 -0.04125977 1.11352539 C-1.50258194 4.03616973 -2.38225222 6.03815685 -3.04125977 9.11352539 C-4.03125977 9.11352539 -5.02125977 9.11352539 -6.04125977 9.11352539 C-6.37125977 10.76352539 -6.70125977 12.41352539 -7.04125977 14.11352539 C-8.04125977 11.11352539 -8.04125977 11.11352539 -7.08032227 8.66821289 C-6.61368164 7.78391602 -6.14704102 6.89961914 -5.66625977 5.98852539 C-5.20477539 5.09907227 -4.74329102 4.20961914 -4.26782227 3.29321289 C-2.49266291 0.13863034 -2.49266291 0.13863034 0 0 Z " fill="#D5434A" transform="translate(64.041259765625,70.886474609375)"/>
<path d="M0 0 C2.97 0 5.94 0 9 0 C9 3.3 9 6.6 9 10 C6.03 10 3.06 10 0 10 C0 6.7 0 3.4 0 0 Z " fill="#3E3C3E" transform="translate(99,105)"/>
<path d="M0 0 C1.98 0 3.96 0 6 0 C5.67 0.99 5.34 1.98 5 3 C5.99 3.33 6.98 3.66 8 4 C8 6.64 8 9.28 8 12 C7.278125 11.814375 6.55625 11.62875 5.8125 11.4375 C2.87173027 10.98004693 0.85896942 11.26483643 -2 12 C-2 9.36 -2 6.72 -2 4 C-1.34 3.67 -0.68 3.34 0 3 C0 2.01 0 1.02 0 0 Z " fill="#CACCCA" transform="translate(111,103)"/>
<path d="M0 0 C0.99 0.66 1.98 1.32 3 2 C2.75 4.875 2.75 4.875 2 8 C0.125 9.4375 0.125 9.4375 -2 10 C-2.99 9.67 -3.98 9.34 -5 9 C-5 8.34 -5 7.68 -5 7 C-5.66 7 -6.32 7 -7 7 C-7 5.68 -7 4.36 -7 3 C-8.32 3.33 -9.64 3.66 -11 4 C-10.67 3.01 -10.34 2.02 -10 1 C-6.47005387 -0.17664871 -3.70544587 -0.19850603 0 0 Z " fill="#101010" transform="translate(112,72)"/>
<path d="M0 0 C0.6875 1.6875 0.6875 1.6875 1 4 C-0.3125 6.5625 -0.3125 6.5625 -2 9 C-2.99 10.485 -2.99 10.485 -4 12 C-6.1640625 12.51171875 -6.1640625 12.51171875 -8.625 12.6875 C-9.44226563 12.75324219 -10.25953125 12.81898437 -11.1015625 12.88671875 C-11.72804688 12.92410156 -12.35453125 12.96148437 -13 13 C-11.35 11.68 -9.7 10.36 -8 9 C-9.05960938 8.95101562 -10.11921875 8.90203125 -11.2109375 8.8515625 C-12.59898497 8.77653291 -13.98700451 8.70098515 -15.375 8.625 C-16.07367188 8.5940625 -16.77234375 8.563125 -17.4921875 8.53125 C-22.7734375 8.2265625 -22.7734375 8.2265625 -25 6 C-20.38 6 -15.76 6 -11 6 C-11 5.67 -11 5.34 -11 5 C-9.1128125 4.87625 -9.1128125 4.87625 -7.1875 4.75 C-3.66188788 4.33442857 -3.66188788 4.33442857 -1 1.9375 C-0.67 1.298125 -0.34 0.65875 0 0 Z " fill="#FCC1C4" transform="translate(75,88)"/>
<path d="M0 0 C2.64 0 5.28 0 8 0 C8 3.3 8 6.6 8 10 C5.36 10 2.72 10 0 10 C0 6.7 0 3.4 0 0 Z " fill="#7E7D7E" transform="translate(39,105)"/>
<path d="M0 0 C0 2 0 2 -1.578125 3.61328125 C-4.78529448 5.44964442 -7.08021467 5.29759356 -10.75 5.1875 C-11.92046875 5.16042969 -13.0909375 5.13335937 -14.296875 5.10546875 C-15.18890625 5.07066406 -16.0809375 5.03585938 -17 5 C-15.203125 0.1015625 -15.203125 0.1015625 -13.375 -0.8125 C-8.78319694 -1.17501077 -4.42628982 -1.47542994 0 0 Z " fill="#F5F209" transform="translate(43,96)"/>
<path d="M0 0 C0.99 0 1.98 0 3 0 C3 0.66 3 1.32 3 2 C4.98 2 6.96 2 9 2 C9 4.64 9 7.28 9 10 C6.03 10 3.06 10 0 10 C0 6.7 0 3.4 0 0 Z " fill="#555557" transform="translate(27,105)"/>
<path d="M0 0 C2.97 0 5.94 0 9 0 C9 2.64 9 5.28 9 8 C9.66 8 10.32 8 11 8 C11 8.66 11 9.32 11 10 C9.35 10 7.7 10 6 10 C6 8.68 6 7.36 6 6 C4.68 6 3.36 6 2 6 C2 7.32 2 8.64 2 10 C1.34 10 0.68 10 0 10 C0 6.7 0 3.4 0 0 Z " fill="#514E51" transform="translate(165,105)"/>
<path d="M0 0 C0.33 0.66 0.66 1.32 1 2 C7.93 2 14.86 2 22 2 C22.33 2.66 22.66 3.32 23 4 C20.2097333 4.9300889 18.23470458 5.18698769 15.33203125 5.31640625 C13.99301758 5.37924805 13.99301758 5.37924805 12.62695312 5.44335938 C11.23379883 5.50233398 11.23379883 5.50233398 9.8125 5.5625 C8.87212891 5.60568359 7.93175781 5.64886719 6.96289062 5.69335938 C4.64207146 5.79938665 2.32114675 5.90145029 0 6 C-0.33 7.32 -0.66 8.64 -1 10 C-1.125 3.375 -1.125 3.375 0 0 Z " fill="#BFEA88" transform="translate(9,89)"/>
<path d="M0 0 C0.99 0 1.98 0 3 0 C2.67 1.65 2.34 3.3 2 5 C2.99 5.33 3.98 5.66 5 6 C5 8 5 8 3.75 9.5625 C2 11 2 11 0 11.3125 C-2.38106572 11.88506936 -2.38106572 11.88506936 -3.75 15.0625 C-4.36875 16.5165625 -4.36875 16.5165625 -5 18 C-5.99 18 -6.98 18 -8 18 C-6.65150163 13.64029169 -4.95092154 9.68658562 -2.875 5.625 C-2.33617187 4.56539063 -1.79734375 3.50578125 -1.2421875 2.4140625 C-0.83226562 1.61742188 -0.42234375 0.82078125 0 0 Z " fill="#E9E9E9" transform="translate(177,76)"/>
<path d="M0 0 C6.17775033 0.03127975 11.54883489 0.44651651 17.4609375 2.265625 C9.74229202 8.5239862 9.74229202 8.5239862 4.79296875 8.4609375 C3.90029297 8.45449219 3.00761719 8.44804688 2.08789062 8.44140625 C0.69473633 8.41626953 0.69473633 8.41626953 -0.7265625 8.390625 C-1.66693359 8.38160156 -2.60730469 8.37257813 -3.57617188 8.36328125 C-5.89739218 8.33971556 -8.21809894 8.30681616 -10.5390625 8.265625 C-9.28063482 4.49034196 -7.91412821 4.15895455 -4.5390625 2.265625 C-2.5390625 0.265625 -2.5390625 0.265625 0 0 Z M-3.5390625 3.265625 C-4.19385802 5.30068926 -4.19385802 5.30068926 -4.5390625 7.265625 C-2.45637657 7.34688587 -0.37277592 7.40493339 1.7109375 7.453125 C2.87109375 7.48792969 4.03125 7.52273437 5.2265625 7.55859375 C8.68976505 7.24489787 10.05324656 6.72695262 12.4609375 4.265625 C12.4609375 3.605625 12.4609375 2.945625 12.4609375 2.265625 C7.22750273 0.52114674 1.28454198 0.34222834 -3.5390625 3.265625 Z " fill="#EDE42E" transform="translate(30.5390625,93.734375)"/>
<path d="M0 0 C0.99 0.66 1.98 1.32 3 2 C3 6.56330809 1.96239958 9.5224005 -1 13 C-1.99 12.67 -2.98 12.34 -4 12 C-4 13.32 -4 14.64 -4 16 C-4.66 16 -5.32 16 -6 16 C-6 15.34 -6 14.68 -6 14 C-6.99 14 -7.98 14 -9 14 C-8.34 12.68 -7.68 11.36 -7 10 C-5.35 10 -3.7 10 -2 10 C-2 9.34 -2 8.68 -2 8 C-2.99 7.67 -3.98 7.34 -5 7 C-5.6875 4.9375 -5.6875 4.9375 -6 3 C-5.01 3 -4.02 3 -3 3 C-3.33 3.99 -3.66 4.98 -4 6 C-3.34 6 -2.68 6 -2 6 C-2 5.01 -2 4.02 -2 3 C-1.34 3 -0.68 3 0 3 C0 2.01 0 1.02 0 0 Z " fill="#0C0C0C" transform="translate(159,75)"/>
<path d="M0 0 C1.37478516 0.01740234 1.37478516 0.01740234 2.77734375 0.03515625 C3.69644531 0.04417969 4.61554687 0.05320312 5.5625 0.0625 C6.27277344 0.07410156 6.98304687 0.08570312 7.71484375 0.09765625 C7.38484375 1.08765625 7.05484375 2.07765625 6.71484375 3.09765625 C6.38484375 2.76765625 6.05484375 2.43765625 5.71484375 2.09765625 C5.71484375 3.08765625 5.71484375 4.07765625 5.71484375 5.09765625 C6.37484375 5.09765625 7.03484375 5.09765625 7.71484375 5.09765625 C7.71484375 6.08765625 7.71484375 7.07765625 7.71484375 8.09765625 C6.06909809 8.12453776 4.42322962 8.14399748 2.77734375 8.16015625 C1.86082031 8.17175781 0.94429687 8.18335937 0 8.1953125 C-2.28515625 8.09765625 -2.28515625 8.09765625 -3.28515625 7.09765625 C-3.41015625 4.09765625 -3.41015625 4.09765625 -3.28515625 1.09765625 C-2.28515625 0.09765625 -2.28515625 0.09765625 0 0 Z " fill="#4E4E4F" transform="translate(51.28515625,106.90234375)"/>
<path d="M0 0 C2.31 0.33 4.62 0.66 7 1 C6.01 1.33 5.02 1.66 4 2 C4 5.3 4 8.6 4 12 C3.01 12 2.02 12 1 12 C1 10.35 1 8.7 1 7 C-0.32 7 -1.64 7 -3 7 C-3 8.65 -3 10.3 -3 12 C-3.66 12 -4.32 12 -5 12 C-5 9.36 -5 6.72 -5 4 C-3.35 3.67 -1.7 3.34 0 3 C0 2.01 0 1.02 0 0 Z " fill="#989898" transform="translate(125,103)"/>
<path d="M0 0 C2.89665312 -0.27629614 5.54649175 -0.37218225 8.4375 -0.3125 C9.21416016 -0.31572266 9.99082031 -0.31894531 10.79101562 -0.32226562 C14.68867345 -0.28533691 16.69260709 -0.20492861 20 2 C18.77807617 3.5090332 18.77807617 3.5090332 17 5 C14.9152832 5.15698242 14.9152832 5.15698242 12.55078125 4.85546875 C11.70322266 4.75556641 10.85566406 4.65566406 9.98242188 4.55273438 C9.10134766 4.43220703 8.22027344 4.31167969 7.3125 4.1875 C6.41982422 4.07857422 5.52714844 3.96964844 4.60742188 3.85742188 C2.4026759 3.58624991 0.20098487 3.29994714 -2 3 C-1.34 2.01 -0.68 1.02 0 0 Z " fill="#FCF56E" transform="translate(31,91)"/>
<path d="M0 0 C1.86785156 0.01353516 1.86785156 0.01353516 3.7734375 0.02734375 C5.18496094 0.04474609 5.18496094 0.04474609 6.625 0.0625 C6.625 0.3925 6.625 0.7225 6.625 1.0625 C4.975 1.3925 3.325 1.7225 1.625 2.0625 C1.625 3.3825 1.625 4.7025 1.625 6.0625 C0.635 6.0625 -0.355 6.0625 -1.375 6.0625 C-1.375 4.7425 -1.375 3.4225 -1.375 2.0625 C-4.015 2.0625 -6.655 2.0625 -9.375 2.0625 C-9.375 2.7225 -9.375 3.3825 -9.375 4.0625 C-11.685 4.7225 -13.995 5.3825 -16.375 6.0625 C-16.375 7.3825 -16.375 8.7025 -16.375 10.0625 C-17.035 10.0625 -17.695 10.0625 -18.375 10.0625 C-18.375 10.7225 -18.375 11.3825 -18.375 12.0625 C-19.035 12.0625 -19.695 12.0625 -20.375 12.0625 C-20.045 10.7425 -19.715 9.4225 -19.375 8.0625 C-18.715 8.0625 -18.055 8.0625 -17.375 8.0625 C-17.271875 7.464375 -17.16875 6.86625 -17.0625 6.25 C-16.24147561 3.63764967 -15.59284974 2.66852912 -13.375 1.0625 C-8.88074025 0.08289699 -4.58933985 -0.04329566 0 0 Z " fill="#83C634" transform="translate(33.375,71.9375)"/>
<path d="M0 0 C0.99 0 1.98 0 3 0 C3 0.66 3 1.32 3 2 C5.31 2 7.62 2 10 2 C9.67 4.64 9.34 7.28 9 10 C8.01 10.33 7.02 10.66 6 11 C5.67 8.69 5.34 6.38 5 4 C4.34 4 3.68 4 3 4 C3.33 5.98 3.66 7.96 4 10 C2.68 10 1.36 10 0 10 C0 6.7 0 3.4 0 0 Z " fill="#676266" transform="translate(85,105)"/>
<path d="M0 0 C1.27230469 0.01804687 2.54460937 0.03609375 3.85546875 0.0546875 C5.31919922 0.08949219 5.31919922 0.08949219 6.8125 0.125 C6.8125 0.785 6.8125 1.445 6.8125 2.125 C3.48715243 3.23344919 1.19067425 2.96954356 -2.1875 2.125 C-2.1875 5.425 -2.1875 8.725 -2.1875 12.125 C-2.8475 11.465 -3.5075 10.805 -4.1875 10.125 C-4.8475 10.785 -5.5075 11.445 -6.1875 12.125 C-6.1875 9.155 -6.1875 6.185 -6.1875 3.125 C-7.5075 2.795 -8.8275 2.465 -10.1875 2.125 C-6.4507157 -0.36618953 -4.44298181 -0.0815226 0 0 Z " fill="#EBEEEB" transform="translate(167.1875,102.875)"/>
<path d="M0 0 C0.99 0 1.98 0 3 0 C3.66 1.32 4.32 2.64 5 4 C5.66 3.67 6.32 3.34 7 3 C7 3.99 7 4.98 7 6 C8.32 5.67 9.64 5.34 11 5 C10.8125 6.875 10.8125 6.875 10 9 C7.4375 10.25 7.4375 10.25 5 11 C4.34 9.35 3.68 7.7 3 6 C2.01 6 1.02 6 0 6 C-0.33 6.99 -0.66 7.98 -1 9 C-1.66 9 -2.32 9 -3 9 C-2.01 6.03 -1.02 3.06 0 0 Z " fill="#232320" transform="translate(97,85)"/>
<path d="M0 0 C0.99 0.99 1.98 1.98 3 3 C3.66 2.67 4.32 2.34 5 2 C5 2.66 5 3.32 5 4 C5.99 4 6.98 4 8 4 C8 3.34 8 2.68 8 2 C8.66 2.33 9.32 2.66 10 3 C8.68 5.64 7.36 8.28 6 11 C5.67 10.01 5.34 9.02 5 8 C3.02 8 1.04 8 -1 8 C-1 8.66 -1 9.32 -1 10 C-2.32 10.33 -3.64 10.66 -5 11 C-4.35474023 9.5414128 -3.7087728 8.08313863 -3.0625 6.625 C-2.70285156 5.81289062 -2.34320313 5.00078125 -1.97265625 4.1640625 C-1.3430097 2.76316215 -0.68687358 1.37374716 0 0 Z " fill="#171717" transform="translate(137,82)"/>
<path d="M0 0 C0.33 0.99 0.66 1.98 1 3 C1.99 3.33 2.98 3.66 4 4 C3.67 5.65 3.34 7.3 3 9 C0.69 9.33 -1.62 9.66 -4 10 C-5.25664978 7.09399739 -6 5.20395416 -6 2 C-2.25 0 -2.25 0 0 0 Z " fill="#0F0F0E" transform="translate(106,81)"/>
<path d="M0 0 C7.26 0.33 14.52 0.66 22 1 C22.33 1.99 22.66 2.98 23 4 C22.67 4.66 22.34 5.32 22 6 C19.74053416 6.35557331 17.5100223 6.44330506 15.2265625 6.55859375 C12.59007139 7.08126655 11.68584902 7.96066651 10 10 C11.65 10.33 13.3 10.66 15 11 C15 11.33 15 11.66 15 12 C12.36 12 9.72 12 7 12 C8.875 6.125 8.875 6.125 10 5 C12.58022142 4.71778828 15.16030185 4.55179803 17.75 4.37890625 C18.4925 4.25386719 19.235 4.12882812 20 4 C20.33 3.34 20.66 2.68 21 2 C10.605 2.495 10.605 2.495 0 3 C0 2.01 0 1.02 0 0 Z " fill="#CCCCCC" transform="translate(119,70)"/>
<path d="M0 0 C1.65 0.33 3.3 0.66 5 1 C5.08131463 2.43655854 5.13933559 3.8744483 5.1875 5.3125 C5.22230469 6.11300781 5.25710937 6.91351563 5.29296875 7.73828125 C5 10 5 10 3.65625 11.78125 C1.39462293 13.44546615 -0.26331821 13.22189312 -3 13 C-3.33 13.66 -3.66 14.32 -4 15 C-4.99 13.35 -5.98 11.7 -7 10 C-4.03 10 -1.06 10 2 10 C1.855625 8.72125 1.71125 7.4425 1.5625 6.125 C1.44068359 5.04605469 1.44068359 5.04605469 1.31640625 3.9453125 C1.08707039 1.92595684 1.08707039 1.92595684 0 0 Z " fill="#F6F7F6" transform="translate(34,105)"/>
<path d="M0 0 C1.134375 0.020625 2.26875 0.04125 3.4375 0.0625 C3.4375 0.7225 3.4375 1.3825 3.4375 2.0625 C2.695 2.083125 1.9525 2.10375 1.1875 2.125 C-1.59980239 2.75531379 -1.59980239 2.75531379 -2.57421875 4.65234375 C-3.03248047 5.59787109 -3.03248047 5.59787109 -3.5 6.5625 C-4.44921875 8.47265625 -4.44921875 8.47265625 -5.5625 10.0625 C-8.8125 11 -8.8125 11 -11.5625 11.0625 C-12.2225 9.4125 -12.8825 7.7625 -13.5625 6.0625 C-10.5925 6.5575 -10.5925 6.5575 -7.5625 7.0625 C-8.2225 6.7325 -8.8825 6.4025 -9.5625 6.0625 C-9.5625 5.4025 -9.5625 4.7425 -9.5625 4.0625 C-8.5725 4.0625 -7.5825 4.0625 -6.5625 4.0625 C-5.9025 3.0725 -5.2425 2.0825 -4.5625 1.0625 C-3.5625 0.0625 -3.5625 0.0625 0 0 Z " fill="#0C0C0B" transform="translate(130.5625,72.9375)"/>
<path d="M0 0 C1.65 0 3.3 0 5 0 C6 1 6 1 6.1328125 2.8125 C6.13023438 3.534375 6.12765625 4.25625 6.125 5 C6.12757812 5.721875 6.13015625 6.44375 6.1328125 7.1875 C6 9 6 9 5 10 C3.35 10 1.7 10 0 10 C0 6.7 0 3.4 0 0 Z " fill="#4A4A4A" transform="translate(8,105)"/>
<path d="M0 0 C0.99 0.66 1.98 1.32 3 2 C9.42210769 3.333109 15.55976477 2.93487286 22 2 C22 2.66 22 3.32 22 4 C19.39048764 5.30475618 17.47298715 5.11301572 14.5546875 5.09765625 C12.94013672 5.09282227 12.94013672 5.09282227 11.29296875 5.08789062 C10.16503906 5.07951172 9.03710938 5.07113281 7.875 5.0625 C6.73933594 5.05798828 5.60367188 5.05347656 4.43359375 5.04882812 C1.62234362 5.03701615 -1.1888023 5.02054507 -4 5 C-3.67 4.01 -3.34 3.02 -3 2 C-2.01 2 -1.02 2 0 2 C0 1.34 0 0.68 0 0 Z " fill="#EDE3DF" transform="translate(157,94)"/>
<path d="M0 0 C0 0.66 0 1.32 0 2 C-1.06959961 2.02505615 -2.13919922 2.0501123 -3.24121094 2.07592773 C-7.21463727 2.17019528 -11.18789668 2.27036858 -15.16113281 2.37231445 C-16.87984305 2.41559016 -18.59859424 2.45727041 -20.31738281 2.49731445 C-22.789839 2.55519565 -25.26209047 2.61883836 -27.734375 2.68359375 C-28.88459137 2.70866249 -28.88459137 2.70866249 -30.05804443 2.73423767 C-33.52173984 2.83012865 -36.66366251 3.07915862 -40 4 C-40 3.34 -40 2.68 -40 2 C-37.38200639 0.6910032 -35.32733643 0.80506964 -32.3984375 0.71875 C-31.26792969 0.68136719 -30.13742188 0.64398438 -28.97265625 0.60546875 C-27.78542969 0.57066406 -26.59820312 0.53585938 -25.375 0.5 C-16.32512555 0.28407415 -16.32512555 0.28407415 -7.3203125 -0.55859375 C-4.40010351 -0.94680977 -2.71769224 -1.01913459 0 0 Z " fill="#F7FDCC" transform="translate(60,69)"/>
<path d="M0 0 C-1.15585285 3.91211733 -2.35534962 6.8745041 -5 10 C-4.34 9.67 -3.68 9.34 -3 9 C-2.34 9.66 -1.68 10.32 -1 11 C-3.90600261 12.25664978 -5.79604584 13 -9 13 C-9 12.34 -9 11.68 -9 11 C-9.66 11 -10.32 11 -11 11 C-11 10.34 -11 9.68 -11 9 C-10.38125 8.7525 -9.7625 8.505 -9.125 8.25 C-6.5927804 6.76045906 -6.19281342 5.62418952 -5 3 C-2.42857143 0 -2.42857143 0 0 0 Z " fill="#F5FDFB" transform="translate(79,91)"/>
<path d="M0 0 C0.66 0 1.32 0 2 0 C1.36495834 4.13159633 0.01303002 7.49726486 -1.8125 11.25 C-2.31394531 12.30703125 -2.81539062 13.3640625 -3.33203125 14.453125 C-5 17 -5 17 -7.10424805 17.65917969 C-7.72984619 17.77165039 -8.35544434 17.88412109 -9 18 C-7.69100294 15.18585648 -6.37721835 12.37397463 -5.0625 9.5625 C-4.68931641 8.76005859 -4.31613281 7.95761719 -3.93164062 7.13085938 C-3.39506836 5.98520508 -3.39506836 5.98520508 -2.84765625 4.81640625 C-2.51773682 4.10943604 -2.18781738 3.40246582 -1.84790039 2.67407227 C-1 1 -1 1 0 0 Z " fill="#DADADA" transform="translate(151,76)"/>
<path d="M0 0 C1.2109375 1.515625 1.2109375 1.515625 2 4 C0.99678547 6.75737326 -0.04423072 9.16184946 -1.375 11.75 C-1.71789062 12.44738281 -2.06078125 13.14476563 -2.4140625 13.86328125 C-3.26192375 15.58255545 -4.12913813 17.29226112 -5 19 C-5.66 18.67 -6.32 18.34 -7 18 C-6.34 15.69 -5.68 13.38 -5 11 C-5.66 11 -6.32 11 -7 11 C-7 10.34 -7 9.68 -7 9 C-5.824375 8.38125 -5.824375 8.38125 -4.625 7.75 C-1.3266667 5.55111113 -0.92128432 3.76889042 0 0 Z " fill="#D7D7D5" transform="translate(115,74)"/>
<path d="M0 0 C1.65 0 3.3 0 5 0 C5 2.97 5 5.94 5 9 C4.01 9 3.02 9 2 9 C2 9.33 2 9.66 2 10 C0.02 10 -1.96 10 -4 10 C-3.67 9.01 -3.34 8.02 -3 7 C-2.34 7 -1.68 7 -1 7 C-0.67 4.69 -0.34 2.38 0 0 Z " fill="#0D0C0A" transform="translate(165,81)"/>
<path d="M0 0 C0.99 0 1.98 0 3 0 C3 3.3 3 6.6 3 10 C1.35 9.67 -0.3 9.34 -2 9 C-2 8.34 -2 7.68 -2 7 C-2.99 7.33 -3.98 7.66 -5 8 C-5 6.35 -5 4.7 -5 3 C-4.01 3 -3.02 3 -2 3 C-1.34 2.01 -0.68 1.02 0 0 Z " fill="#6C6B6B" transform="translate(61,105)"/>
<path d="M0 0 C0.33 0.66 0.66 1.32 1 2 C-4.78357065 4.01167675 -9.90218999 4.22084624 -16 4 C-11.34158975 -1.14031476 -6.42886252 -0.40532233 0 0 Z " fill="#EE1B23" transform="translate(60,97)"/>
<path d="M0 0 C0.99 0 1.98 0 3 0 C3 0.66 3 1.32 3 2 C3.66 2 4.32 2 5 2 C5 4.64 5 7.28 5 10 C3.35 10 1.7 10 0 10 C0 6.7 0 3.4 0 0 Z " fill="#454445" transform="translate(129,105)"/>
<path d="M0 0 C0.99 0.99 1.98 1.98 3 3 C2.1875 5.4375 2.1875 5.4375 1 8 C0.01 8.33 -0.98 8.66 -2 9 C-2.33 8.34 -2.66 7.68 -3 7 C-3.99 7 -4.98 7 -6 7 C-6.66 7.66 -7.32 8.32 -8 9 C-8 7.35 -8 5.7 -8 4 C-6.68 4.33 -5.36 4.66 -4 5 C-4 4.01 -4 3.02 -4 2 C-2.68 2 -1.36 2 0 2 C0 1.34 0 0.68 0 0 Z " fill="#0E0F0D" transform="translate(98,75)"/>
<path d="M0 0 C-0.1875 1.875 -0.1875 1.875 -1 4 C-3.1875 5.375 -3.1875 5.375 -6 6 C-9.3125 5.125 -9.3125 5.125 -12 4 C-8.41084094 -0.78554541 -5.58334594 -0.37222306 0 0 Z " fill="#F8F8F8" transform="translate(140,76)"/>
<path d="M0 0 C1.32 0 2.64 0 4 0 C4 1.32 4 2.64 4 4 C3.34 4 2.68 4 2 4 C2 4.66 2 5.32 2 6 C2.66 6 3.32 6 4 6 C4 7.32 4 8.64 4 10 C2.35 10 0.7 10 -1 10 C-1.02689216 8.52093108 -1.04634621 7.04172517 -1.0625 5.5625 C-1.07410156 4.73878906 -1.08570313 3.91507812 -1.09765625 3.06640625 C-1 1 -1 1 0 0 Z " fill="#2F2D2E" transform="translate(178,105)"/>
<path d="M0 0 C-0.66 2.64 -1.32 5.28 -2 8 C-2.66 8 -3.32 8 -4 8 C-4 7.34 -4 6.68 -4 6 C-5.65 6 -7.3 6 -9 6 C-8.625 3.5625 -8.625 3.5625 -8 1 C-5.29120665 -0.35439668 -2.99066732 -0.06501451 0 0 Z " fill="#F7F7F7" transform="translate(188,81)"/>
<path d="M0 0 C4.29 0 8.58 0 13 0 C11.02 0.99 11.02 0.99 9 2 C9.66 2.66 10.32 3.32 11 4 C9.35 5.32 7.7 6.64 6 8 C5.566875 7.38125 5.13375 6.7625 4.6875 6.125 C3.00259517 3.7802755 3.00259517 3.7802755 0 2 C0 1.34 0 0.68 0 0 Z " fill="#F8F8F4" transform="translate(80,66)"/>
<path d="M0 0 C0 1.32 0 2.64 0 4 C-2.40545638 5.20272819 -3.94996953 5.10071472 -6.625 5.0625 C-7.85089844 5.04896484 -7.85089844 5.04896484 -9.1015625 5.03515625 C-10.04128906 5.01775391 -10.04128906 5.01775391 -11 5 C-11.33 3.68 -11.66 2.36 -12 1 C-11.05125 1.020625 -10.1025 1.04125 -9.125 1.0625 C-5.60414781 0.99208296 -3.64101702 0 0 0 Z " fill="#0F0D0A" transform="translate(178,92)"/>
<path d="M0 0 C2.86688248 0.09096556 5.70300515 0.23767988 8.5625 0.4375 C9.36880859 0.48970703 10.17511719 0.54191406 11.00585938 0.59570312 C13.00421738 0.72577376 15.00215386 0.86229056 17 1 C17 1.33 17 1.66 17 2 C12.05 2 7.1 2 2 2 C1.34 3.98 0.68 5.96 0 8 C-1.625 10.375 -1.625 10.375 -3 12 C-3.19591515 7.78782419 -2.84922769 4.80723349 -1 1 C-0.67 0.67 -0.34 0.34 0 0 Z " fill="#ECE9EB" transform="translate(91,70)"/>
<path d="M0 0 C4.29 0 8.58 0 13 0 C13 0.66 13 1.32 13 2 C14.98 2 16.96 2 19 2 C19 2.33 19 2.66 19 3 C16.79173622 3.02722517 14.58337362 3.04649729 12.375 3.0625 C11.14523438 3.07410156 9.91546875 3.08570312 8.6484375 3.09765625 C5.32276209 3.00863924 2.25952412 2.63686087 -1 2 C-0.67 1.34 -0.34 0.68 0 0 Z " fill="#E06A66" transform="translate(51,92)"/>
<path d="M0 0 C1.65 0 3.3 0 5 0 C5 2.64 5 5.28 5 8 C3.35 8 1.7 8 0 8 C0 5.36 0 2.72 0 0 Z " fill="#454344" transform="translate(156,107)"/>
<path d="M0 0 C1.65 0 3.3 0 5 0 C5 2.64 5 5.28 5 8 C3.35 8 1.7 8 0 8 C0 5.36 0 2.72 0 0 Z " fill="#434142" transform="translate(150,107)"/>
<path d="M0 0 C1.52519276 0.08937803 3.04681929 0.24537146 4.5625 0.4375 C5.38878906 0.53933594 6.21507812 0.64117187 7.06640625 0.74609375 C7.70449219 0.82988281 8.34257812 0.91367188 9 1 C9 1.99 9 2.98 9 4 C4.05 4.33 -0.9 4.66 -6 5 C-6.33 4.34 -6.66 3.68 -7 3 C-5.35 3 -3.7 3 -2 3 C-1.67 2.34 -1.34 1.68 -1 1 C-0.67 0.67 -0.34 0.34 0 0 Z " fill="#1C1C1B" transform="translate(125,81)"/>
<path d="M0 0 C1.65 0 3.3 0 5 0 C5 2.64 5 5.28 5 8 C3.35 7.67 1.7 7.34 0 7 C0 4.69 0 2.38 0 0 Z " fill="#352E33" transform="translate(75,107)"/>
<path d="M0 0 C2.31 0.33 4.62 0.66 7 1 C7.6875 2.6875 7.6875 2.6875 8 5 C6.5625 7.75 6.5625 7.75 5 10 C3.90396677 7.9540713 3.03339847 6.14194351 2.5 3.875 C2.10722935 1.77320517 2.10722935 1.77320517 0 0 Z " fill="#1D1D1C" transform="translate(107,72)"/>
<path d="M0 0 C0.99 0 1.98 0 3 0 C3 3.3 3 6.6 3 10 C1.68 9.67 0.36 9.34 -1 9 C-1.09765625 2.84765625 -1.09765625 2.84765625 -1 1 C-0.67 0.67 -0.34 0.34 0 0 Z " fill="#6A686A" transform="translate(105,105)"/>
<path d="M0 0 C1.65 0 3.3 0 5 0 C5 2.31 5 4.62 5 7 C3.0625 7.5625 3.0625 7.5625 1 8 C0 7 0 7 -0.0625 3.4375 C-0.041875 2.303125 -0.02125 1.16875 0 0 Z " fill="#363738" transform="translate(15,107)"/>
<path d="M0 0 C2.1640625 -0.29296875 2.1640625 -0.29296875 4.625 -0.1875 C5.44226563 -0.16042969 6.25953125 -0.13335937 7.1015625 -0.10546875 C8.04128906 -0.05326172 8.04128906 -0.05326172 9 0 C6.66785852 1.20628008 4.50357861 2.1654738 2 3 C1.67 3.99 1.34 4.98 1 6 C0.67 6.33 0.34 6.66 0 7 C0 7.66 0 8.32 0 9 C-1.32 9 -2.64 9 -4 9 C-2.94124926 5.59687262 -1.99097846 2.98646769 0 0 Z " fill="#D2D2D0" transform="translate(124,85)"/>
<path d="M0 0 C0.66 0 1.32 0 2 0 C2 0.99 2 1.98 2 3 C2.66 3 3.32 3 4 3 C4 3.66 4 4.32 4 5 C4.99 5 5.98 5 7 5 C7 5.66 7 6.32 7 7 C6.34 7 5.68 7 5 7 C4.67 7.66 4.34 8.32 4 9 C3.67 7.68 3.34 6.36 3 5 C1.02 5.33 -0.96 5.66 -3 6 C-1.125 1.125 -1.125 1.125 0 0 Z " fill="#747473" transform="translate(103,76)"/>
<path d="M0 0 C2 2 2 2 2 5 C1.34 5 0.68 5 0 5 C-1.32 7.97 -2.64 10.94 -4 14 C-4.99 14 -5.98 14 -7 14 C-7 12.68 -7 11.36 -7 10 C-6.01 9.67 -5.02 9.34 -4 9 C-3.2833793 6.68152126 -2.61757973 4.34680297 -2 2 C-1.34 1.34 -0.68 0.68 0 0 Z " fill="#F5152C" transform="translate(63,76)"/>
<path d="M0 0 C0.99 0 1.98 0 3 0 C3.38133299 1.9914056 3.71325582 3.99279077 4 6 C3 7 3 7 -0.5625 7.0625 C-1.696875 7.041875 -2.83125 7.02125 -4 7 C-3.34 6.34 -2.68 5.68 -2 5 C-2 4.01 -2 3.02 -2 2 C-1.34 1.34 -0.68 0.68 0 0 Z " fill="#0C0C0C" transform="translate(185,73)"/>
<path d="M0 0 C1.98 0 3.96 0 6 0 C4.02 4.29 2.04 8.58 0 13 C-0.89377528 9.42489889 -1.0258444 7.75082437 -0.5625 4.25 C-0.46066406 3.45078125 -0.35882813 2.6515625 -0.25390625 1.828125 C-0.17011719 1.22484375 -0.08632813 0.6215625 0 0 Z " fill="#93CB17" transform="translate(34,73)"/>
<path d="M0 0 C0.99 0 1.98 0 3 0 C3 0.66 3 1.32 3 2 C3.66 2 4.32 2 5 2 C5.33 3.32 5.66 4.64 6 6 C1.38 6.33 -3.24 6.66 -8 7 C-8 6.34 -8 5.68 -8 5 C-6.865625 4.54625 -5.73125 4.0925 -4.5625 3.625 C-0.95278308 2.42904194 -0.95278308 2.42904194 0 0 Z " fill="#FAFBEE" transform="translate(29,64)"/>
<path d="M0 0 C1.65 0 3.3 0 5 0 C4.01 0.495 4.01 0.495 3 1 C3 1.99 3 2.98 3 4 C3.66 4.33 4.32 4.66 5 5 C4.34 5 3.68 5 3 5 C3 6.32 3 7.64 3 9 C3.66 9.33 4.32 9.66 5 10 C3.35 10 1.7 10 0 10 C0 6.7 0 3.4 0 0 Z " fill="#484847" transform="translate(39,105)"/>
<path d="M0 0 C0.99 0 1.98 0 3 0 C1.41037341 4.03520597 -0.28232318 8.01811282 -2 12 C-3.32 11.67 -4.64 11.34 -6 11 C-5.566875 10.29875 -5.13375 9.5975 -4.6875 8.875 C-2.98498914 5.97442594 -1.47551433 3.02129125 0 0 Z " fill="#E5E5E5" transform="translate(135,80)"/>
<path d="M0 0 C3 1 3 1 5 4 C4.34 4 3.68 4 3 4 C3 6.64 3 9.28 3 12 C3.66 12.33 4.32 12.66 5 13 C4.34 13 3.68 13 3 13 C2.67 13.99 2.34 14.98 2 16 C1.22596442 11.93631321 0.9015298 8.13574827 1 4 C0.01 4 -0.98 4 -2 4 C-1.34 2.68 -0.68 1.36 0 0 Z " fill="#E0E1E1" transform="translate(117,103)"/>
<path d="M0 0 C2.97 0 5.94 0 9 0 C9 0.99 9 1.98 9 3 C3.39 3 -2.22 3 -8 3 C-8 2.67 -8 2.34 -8 2 C-5.36 2 -2.72 2 0 2 C0 1.34 0 0.68 0 0 Z " fill="#0F0E09" transform="translate(120,94)"/>
<path d="M0 0 C0.66 0.33 1.32 0.66 2 1 C1.65066406 1.83144531 1.30132812 2.66289063 0.94140625 3.51953125 C0.48636719 4.60621094 0.03132813 5.69289063 -0.4375 6.8125 C-0.88996094 7.89144531 -1.34242187 8.97039062 -1.80859375 10.08203125 C-2.60375013 12.0295126 -3.33479648 14.00438943 -4 16 C-4.66 16 -5.32 16 -6 16 C-6.33 16.66 -6.66 17.32 -7 18 C-6.13823379 14.40190398 -5.11497952 10.8591574 -4.0625 7.3125 C-3.72347656 6.15363281 -3.38445313 4.99476562 -3.03515625 3.80078125 C-2 1 -2 1 0 0 Z " fill="#FECB25" transform="translate(59,72)"/>
<path d="M0 0 C1.65 0 3.3 0 5 0 C5 2.64 5 5.28 5 8 C3.35 8 1.7 8 0 8 C0 5.36 0 2.72 0 0 Z " fill="#353331" transform="translate(21,107)"/>
<path d="M0 0 C0.66 1.32 1.32 2.64 2 4 C7.94 4.33 13.88 4.66 20 5 C20 5.33 20 5.66 20 6 C12.74 6 5.48 6 -2 6 C-1 1 -1 1 0 0 Z " fill="#9DD062" transform="translate(12,85)"/>
<path d="M0 0 C0.66 0.66 1.32 1.32 2 2 C3.32 2.66 4.64 3.32 6 4 C4.68 6.64 3.36 9.28 2 12 C-0.35333796 7.29332409 -0.17102038 5.1306114 0 0 Z " fill="#1A1917" transform="translate(169,78)"/>
<path d="M0 0 C1.32 0 2.64 0 4 0 C4 2.64 4 5.28 4 8 C2.68 8 1.36 8 0 8 C0 5.36 0 2.72 0 0 Z " fill="#3C3B3C" transform="translate(109,107)"/>
<path d="M0 0 C0.66 0 1.32 0 2 0 C2 0.99 2 1.98 2 3 C7.94 3 13.88 3 20 3 C19.67 3.66 19.34 4.32 19 5 C12.4 4.67 5.8 4.34 -1 4 C-0.67 2.68 -0.34 1.36 0 0 Z " fill="#D23729" transform="translate(53,88)"/>
<path d="M0 0 C0.66 0 1.32 0 2 0 C0.45454854 5.47932789 -2.15543212 10.11429181 -5 15 C-5.68359375 13.359375 -5.68359375 13.359375 -6 11 C-4.78515625 8.203125 -4.78515625 8.203125 -3.0625 5.25 C-2.49660156 4.26515625 -1.93070313 3.2803125 -1.34765625 2.265625 C-0.90292969 1.51796875 -0.45820313 0.7703125 0 0 Z " fill="#CCCCCB" transform="translate(164,77)"/>
<path d="M0 0 C0.99 0.33 1.98 0.66 3 1 C2.67 2.98 2.34 4.96 2 7 C1.34 7 0.68 7 0 7 C-0.66 8.32 -1.32 9.64 -2 11 C-2.66 11 -3.32 11 -4 11 C-3.52269162 9.5410574 -3.04308958 8.08286504 -2.5625 6.625 C-2.29566406 5.81289062 -2.02882813 5.00078125 -1.75390625 4.1640625 C-1 2 -1 2 0 0 Z " fill="#FBD9D6" transform="translate(83,71)"/>
<path d="M0 0 C2.625 0.375 2.625 0.375 5 1 C5.33 1.99 5.66 2.98 6 4 C3.37684968 5.31157516 1.76966564 4.89649988 -1.125 4.5625 C-2.03507812 4.46066406 -2.94515625 4.35882813 -3.8828125 4.25390625 C-4.58148438 4.17011719 -5.28015625 4.08632812 -6 4 C-5.38125 3.71125 -4.7625 3.4225 -4.125 3.125 C-1.86674235 2.06279958 -1.86674235 2.06279958 0 0 Z " fill="#F2EDEE" transform="translate(55,103)"/>
<path d="M0 0 C2 3 2 3 1.75 5.625 C1.5025 6.40875 1.255 7.1925 1 8 C-1 9 -3 10 -5 11 C-4.35474023 9.5414128 -3.7087728 8.08313863 -3.0625 6.625 C-2.70285156 5.81289062 -2.34320313 5.00078125 -1.97265625 4.1640625 C-1.3430097 2.76316215 -0.68687358 1.37374716 0 0 Z " fill="#1F1F1F" transform="translate(137,82)"/>
<path d="M0 0 C-0.33 1.32 -0.66 2.64 -1 4 C-1.66 4 -2.32 4 -3 4 C-3 4.66 -3 5.32 -3 6 C-3.99 6 -4.98 6 -6 6 C-6.33 5.01 -6.66 4.02 -7 3 C-6.34 3 -5.68 3 -5 3 C-5 2.34 -5 1.68 -5 1 C-2 0 -2 0 0 0 Z M-10 2 C-9.67 2.66 -9.34 3.32 -9 4 C-8.34 4.33 -7.68 4.66 -7 5 C-7.66 5.99 -8.32 6.98 -9 8 C-9.33 6.02 -9.66 4.04 -10 2 Z " fill="#0C0C0C" transform="translate(148,80)"/>
<path d="M0 0 C0.99 0.66 1.98 1.32 3 2 C1.90931332 5.77545388 1.0916909 8.47043472 -2 11 C-3 9 -3 9 -2.44140625 6.8359375 C-2.15136719 6.02382812 -1.86132812 5.21171875 -1.5625 4.375 C-1.27503906 3.55773437 -0.98757812 2.74046875 -0.69140625 1.8984375 C-0.46324219 1.27195312 -0.23507812 0.64546875 0 0 Z " fill="#ECFCD7" transform="translate(11,78)"/>
<path d="M0 0 C0.33 0 0.66 0 1 0 C1 2.64 1 5.28 1 8 C1.66 8 2.32 8 3 8 C2.625 9.9375 2.625 9.9375 2 12 C1.01 12.495 1.01 12.495 0 13 C0 12.34 0 11.68 0 11 C-0.99 10.67 -1.98 10.34 -3 10 C-3 9.01 -3 8.02 -3 7 C-2.01 7.33 -1.02 7.66 0 8 C0 5.36 0 2.72 0 0 Z " fill="#E3E3E3" transform="translate(108,107)"/>
<path d="M0 0 C1.32 0 2.64 0 4 0 C4.33 1.98 4.66 3.96 5 6 C4.01 6 3.02 6 2 6 C2 6.66 2 7.32 2 8 C1.01 8.33 0.02 8.66 -1 9 C-0.67 6.03 -0.34 3.06 0 0 Z " fill="#E8E9E8" transform="translate(167,111)"/>
<path d="M0 0 C0.66 0.99 1.32 1.98 2 3 C1.34 4.32 0.68 5.64 0 7 C0.66 7 1.32 7 2 7 C2.33 6.34 2.66 5.68 3 5 C3.33 5.99 3.66 6.98 4 8 C1.69 8.33 -0.62 8.66 -3 9 C-2.44271087 5.65626525 -1.64826111 2.96687001 0 0 Z " fill="#222220" transform="translate(85,88)"/>
<path d="M0 0 C0.66 0 1.32 0 2 0 C2.33 2.31 2.66 4.62 3 7 C3.99 6.67 4.98 6.34 6 6 C6 6.66 6 7.32 6 8 C3.69 8.66 1.38 9.32 -1 10 C-1.33 8.68 -1.66 7.36 -2 6 C-1.01 6 -0.02 6 1 6 C0.67 4.02 0.34 2.04 0 0 Z " fill="#DBDCDB" transform="translate(88,109)"/>
<path d="M0 0 C0.66 0.99 1.32 1.98 2 3 C1.3203125 5.26171875 1.3203125 5.26171875 0.125 7.6875 C-0.26429688 8.49574219 -0.65359375 9.30398437 -1.0546875 10.13671875 C-1.52261719 11.05904297 -1.52261719 11.05904297 -2 12 C-2.99 12 -3.98 12 -5 12 C-3.68938409 7.76570244 -2.05643741 3.92592596 0 0 Z " fill="#D9D8D6" transform="translate(174,82)"/>
<path d="M0 0 C0.625 1.8125 0.625 1.8125 1 4 C0.01 5.485 0.01 5.485 -1 7 C-1.433125 8.5159375 -1.433125 8.5159375 -1.875 10.0625 C-3 13 -3 13 -5.125 14.375 C-5.74375 14.58125 -6.3625 14.7875 -7 15 C-5.63408831 11.45756548 -4.09068516 8.07372071 -2.375 4.6875 C-1.70597656 3.36298828 -1.70597656 3.36298828 -1.0234375 2.01171875 C-0.68570313 1.34785156 -0.34796875 0.68398437 0 0 Z " fill="#302F2E" transform="translate(167,75)"/>
<path d="M0 0 C0.99 0 1.98 0 3 0 C2.690625 0.5775 2.38125 1.155 2.0625 1.75 C1.07416636 3.84294184 0.4831387 5.74535275 0 8 C-0.99 8 -1.98 8 -3 8 C-3.33 9.65 -3.66 11.3 -4 13 C-5 10 -5 10 -4.00390625 7.51953125 C-3.52824219 6.62621094 -3.05257812 5.73289062 -2.5625 4.8125 C-2.08941406 3.91144531 -1.61632813 3.01039062 -1.12890625 2.08203125 C-0.75636719 1.39496094 -0.38382813 0.70789063 0 0 Z " fill="#D75409" transform="translate(61,72)"/>
<path d="M0 0 C-0.33 1.32 -0.66 2.64 -1 4 C-2.32 4.33 -3.64 4.66 -5 5 C-5 6.32 -5 7.64 -5 9 C-5.66 9 -6.32 9 -7 9 C-7 9.66 -7 10.32 -7 11 C-7.66 11 -8.32 11 -9 11 C-8.67 9.68 -8.34 8.36 -8 7 C-7.34 7 -6.68 7 -6 7 C-5.896875 6.401875 -5.79375 5.80375 -5.6875 5.1875 C-4.71993159 2.10887325 -3.39245825 0 0 0 Z " fill="#97CC5A" transform="translate(22,73)"/>
<path d="M0 0 C0 1.32 0 2.64 0 4 C-0.99 4 -1.98 4 -3 4 C-3 4.99 -3 5.98 -3 7 C-4.32 6.34 -5.64 5.68 -7 5 C-5.22678182 1.07358831 -4.52021524 0 0 0 Z " fill="#221A1B" transform="translate(97,73)"/>
<path d="M0 0 C-0.33 1.32 -0.66 2.64 -1 4 C-1.66 4 -2.32 4 -3 4 C-3 4.66 -3 5.32 -3 6 C-2.01 6.33 -1.02 6.66 0 7 C-1.8125 7.625 -1.8125 7.625 -4 8 C-4.99 7.34 -5.98 6.68 -7 6 C-7 5.34 -7 4.68 -7 4 C-2.52941176 0 -2.52941176 0 0 0 Z " fill="#131313" transform="translate(124,73)"/>
<path d="M0 0 C1.98 0 3.96 0 6 0 C4.01118929 2.98321607 2.45235046 4.84921651 -1 6 C-3.25 5.625 -3.25 5.625 -5 5 C-4.360625 4.731875 -3.72125 4.46375 -3.0625 4.1875 C-0.66868314 3.11332248 -0.66868314 3.11332248 0 0 Z " fill="#99C70E" transform="translate(21,95)"/>
<path d="M0 0 C0.25532751 3.06393013 0.21861333 4.63233212 -1.375 7.3125 C-2.179375 8.1478125 -2.179375 8.1478125 -3 9 C-3.66 9 -4.32 9 -5 9 C-4.38709677 3.48387097 -4.38709677 3.48387097 -2.5 1.125 C-1 0 -1 0 0 0 Z " fill="#1B1B1B" transform="translate(158,86)"/>
<path d="M0 0 C0 0.66 0 1.32 0 2 C-0.66 2 -1.32 2 -2 2 C-2.33 3.32 -2.66 4.64 -3 6 C-3.99 5.67 -4.98 5.34 -6 5 C-6 3.35 -6 1.7 -6 0 C-3 -1 -3 -1 0 0 Z " fill="#EF1624" transform="translate(78,78)"/>
<path d="M0 0 C1.65 0 3.3 0 5 0 C5 0.99 5 1.98 5 3 C4.01 3 3.02 3 2 3 C2 4.65 2 6.3 2 8 C1.34 8 0.68 8 0 8 C0 5.36 0 2.72 0 0 Z " fill="#383337" transform="translate(120,107)"/>
<path d="M0 0 C0.66 0.33 1.32 0.66 2 1 C2 1.66 2 2.32 2 3 C3.32 3.66 4.64 4.32 6 5 C3.1875 5.6875 3.1875 5.6875 0 6 C-1.875 4.5625 -1.875 4.5625 -3 3 C-2.01 2.01 -1.02 1.02 0 0 Z " fill="#191817" transform="translate(147,91)"/>
<path d="M0 0 C0.99 0 1.98 0 3 0 C3.66 1.65 4.32 3.3 5 5 C4 6 4 6 1.4375 6.0625 C0.2309375 6.0315625 0.2309375 6.0315625 -1 6 C-0.67 4.02 -0.34 2.04 0 0 Z " fill="#1B1A18" transform="translate(97,91)"/>
<path d="M0 0 C0.33 0 0.66 0 1 0 C0.67 3.3 0.34 6.6 0 10 C-1.32 10 -2.64 10 -4 10 C-2.66666667 6.66666667 -1.33333333 3.33333333 0 0 Z " fill="#DEF11C" transform="translate(36,80)"/>
<path d="M0 0 C1.32 0 2.64 0 4 0 C4 0.66 4 1.32 4 2 C4.66 2 5.32 2 6 2 C6 3.32 6 4.64 6 6 C5.01 6 4.02 6 3 6 C3 5.34 3 4.68 3 4 C2.01 3.67 1.02 3.34 0 3 C0 2.01 0 1.02 0 0 Z " fill="#FA1520" transform="translate(66,84)"/>
<path d="M0 0 C2.86724686 0.57344937 3.8614515 0.8614515 6 3 C5.67 3.33 5.34 3.66 5 4 C6.65 4.33 8.3 4.66 10 5 C10 5.33 10 5.66 10 6 C7.03 6 4.06 6 1 6 C1.33 4.35 1.66 2.7 2 1 C1.34 0.67 0.68 0.34 0 0 Z " fill="#343434" transform="translate(178,75)"/>
<path d="M0 0 C0.99 0.33 1.98 0.66 3 1 C2.34 3.97 1.68 6.94 1 10 C-1.63636364 4.72727273 -1.63636364 4.72727273 -2 2 C-1.34 1.34 -0.68 0.68 0 0 Z " fill="#F2FDFA" transform="translate(87,73)"/>
<path d="M0 0 C1.32 0 2.64 0 4 0 C4 2.31 4 4.62 4 7 C3.34 7 2.68 7 2 7 C2 6.34 2 5.68 2 5 C1.34 5 0.68 5 0 5 C0 3.35 0 1.7 0 0 Z " fill="#DADDDB" transform="translate(122,110)"/>
<path d="M0 0 C0.66 0 1.32 0 2 0 C2 2.64 2 5.28 2 8 C2.66 8 3.32 8 4 8 C4 8.66 4 9.32 4 10 C2.68 9.67 1.36 9.34 0 9 C0 6.03 0 3.06 0 0 Z " fill="#39383A" transform="translate(172,105)"/>
<path d="M0 0 C1.65 0 3.3 0 5 0 C5 0.99 5 1.98 5 3 C4.01 3 3.02 3 2 3 C2 4.32 2 5.64 2 7 C1.34 7 0.68 7 0 7 C0 4.69 0 2.38 0 0 Z " fill="#2E3030" transform="translate(66,107)"/>
<path d="M0 0 C-0.99 0.33 -1.98 0.66 -3 1 C-3 4.3 -3 7.6 -3 11 C-3.33 11 -3.66 11 -4 11 C-4 8.36 -4 5.72 -4 3 C-5.65 3 -7.3 3 -9 3 C-5.92807025 0.26939578 -4.09590633 -0.34132553 0 0 Z " fill="#E3E1E0" transform="translate(30,104)"/>
<path d="M0 0 C0.99 0 1.98 0 3 0 C1.94124926 3.40312738 0.99097846 6.01353231 -1 9 C-1.66 9 -2.32 9 -3 9 C-2.01 6.03 -1.02 3.06 0 0 Z " fill="#DADAD9" transform="translate(97,85)"/>
<path d="M0 0 C0.99 0.33 1.98 0.66 3 1 C3 1.99 3 2.98 3 4 C3.66 4.66 4.32 5.32 5 6 C4.01 7.485 4.01 7.485 3 9 C2.01 8.67 1.02 8.34 0 8 C0 5.36 0 2.72 0 0 Z " fill="#0A0A09" transform="translate(107,73)"/>
<path d="M0 0 C1.32 0 2.64 0 4 0 C3.67 0.99 3.34 1.98 3 3 C2.67 2.67 2.34 2.34 2 2 C2 2.99 2 3.98 2 5 C2.66 5 3.32 5 4 5 C4 5.99 4 6.98 4 8 C2.68 8 1.36 8 0 8 C0 5.36 0 2.72 0 0 Z " fill="#302F30" transform="translate(55,107)"/>
<path d="M0 0 C0.99 0.33 1.98 0.66 3 1 C3 3.64 3 6.28 3 9 C2.01 9 1.02 9 0 9 C-0.87890625 2.84765625 -0.87890625 2.84765625 -1 1 C-0.67 0.67 -0.34 0.34 0 0 Z " fill="#3B383B" transform="translate(116,106)"/>
<path d="M0 0 C0.66 0 1.32 0 2 0 C2.66 1.65 3.32 3.3 4 5 C6.31 5.33 8.62 5.66 11 6 C11 6.33 11 6.66 11 7 C9.54257537 7.08096803 8.08387193 7.13917774 6.625 7.1875 C5.81289062 7.22230469 5.00078125 7.25710937 4.1640625 7.29296875 C3.44992187 7.19628906 2.73578125 7.09960938 2 7 C0 4 0 4 0 0 Z " fill="#A0C85D" transform="translate(9,95)"/>
<path d="M0 0 C3 0.3125 3 0.3125 6 1 C6.33 1.66 6.66 2.32 7 3 C3.04 3 -0.92 3 -5 3 C-3.68 2.34 -2.36 1.68 -1 1 C-0.67 0.67 -0.34 0.34 0 0 Z " fill="#0A0804" transform="translate(140,94)"/>
<path d="M0 0 C0.99 0 1.98 0 3 0 C2.67 2.97 2.34 5.94 2 9 C1.34 9 0.68 9 0 9 C0 6.03 0 3.06 0 0 Z " fill="#3D3B3E" transform="translate(85,105)"/>
<path d="M0 0 C0.99 0.33 1.98 0.66 3 1 C2.67 2.98 2.34 4.96 2 7 C0.68 6.34 -0.64 5.68 -2 5 C-1.125 1.125 -1.125 1.125 0 0 Z " fill="#201F1D" transform="translate(160,90)"/>
<path d="M0 0 C0.99 0.66 1.98 1.32 3 2 C2.34 2 1.68 2 1 2 C1 2.66 1 3.32 1 4 C1.66 4 2.32 4 3 4 C3 5.32 3 6.64 3 8 C1.35 8 -0.3 8 -2 8 C-1.34 7.67 -0.68 7.34 0 7 C0 4.69 0 2.38 0 0 Z " fill="#585758" transform="translate(179,107)"/>
<path d="M0 0 C1.32 0 2.64 0 4 0 C4 2 4 2 2.4375 3.625 C-0.80680433 5.45512039 -3.33724439 5.21131282 -7 5 C-7 4.67 -7 4.34 -7 4 C-5.02 3.67 -3.04 3.34 -1 3 C-0.67 2.01 -0.34 1.02 0 0 Z " fill="#FAED12" transform="translate(39,96)"/>
<path d="M0 0 C0.99 0.33 1.98 0.66 3 1 C2.25 3.4375 2.25 3.4375 1 6 C-1.125 6.8125 -1.125 6.8125 -3 7 C-2.01 4.69 -1.02 2.38 0 0 Z " fill="#BCBCBC" transform="translate(145,87)"/>
<path d="M0 0 C0.66 0.33 1.32 0.66 2 1 C2 2.65 2 4.3 2 6 C2.66 6.33 3.32 6.66 4 7 C3.67 7.66 3.34 8.32 3 9 C2.34 9 1.68 9 1 9 C1 8.34 1 7.68 1 7 C0.01 6.67 -0.98 6.34 -2 6 C-1.01 6 -0.02 6 1 6 C0.67 4.02 0.34 2.04 0 0 Z " fill="#E0E2E1" transform="translate(145,109)"/>
<path d="M0 0 C0.33 0.66 0.66 1.32 1 2 C1.66 2 2.32 2 3 2 C3 3.65 3 5.3 3 7 C1.68 6.67 0.36 6.34 -1 6 C-0.67 4.02 -0.34 2.04 0 0 Z " fill="#636365" transform="translate(77,108)"/>
<path d="M0 0 C1.98 0 3.96 0 6 0 C6 0.99 6 1.98 6 3 C5.01 3.33 4.02 3.66 3 4 C2.01 3.34 1.02 2.68 0 2 C0 1.34 0 0.68 0 0 Z " fill="#F6FCF7" transform="translate(119,103)"/>
<path d="M0 0 C1.65 0 3.3 0 5 0 C4.01 0.33 3.02 0.66 2 1 C2 1.99 2 2.98 2 4 C1.34 4 0.68 4 0 4 C-0.33 4.66 -0.66 5.32 -1 6 C-1 5.34 -1 4.68 -1 4 C-1.66 3.67 -2.32 3.34 -3 3 C-2.34 3 -1.68 3 -1 3 C-0.67 2.01 -0.34 1.02 0 0 Z " fill="#EEF0EF" transform="translate(93,103)"/>
<path d="M0 0 C2.31 0.33 4.62 0.66 7 1 C7 1.66 7 2.32 7 3 C5.35 3.66 3.7 4.32 2 5 C2 4.01 2 3.02 2 2 C1.34 2 0.68 2 0 2 C0 1.34 0 0.68 0 0 Z " fill="#7ECE21" transform="translate(13,96)"/>
<path d="M0 0 C0 0.66 0 1.32 0 2 C-2.70879335 3.35439668 -5.00933268 3.06501451 -8 3 C-8.33 2.34 -8.66 1.68 -9 1 C-5.94152152 0.45627049 -3.11227195 0 0 0 Z " fill="#DACDCA" transform="translate(179,96)"/>
<path d="M0 0 C0.66 0 1.32 0 2 0 C2 1.65 2 3.3 2 5 C1.360625 5.12375 0.72125 5.2475 0.0625 5.375 C-0.9584375 5.684375 -0.9584375 5.684375 -2 6 C-2.33 6.66 -2.66 7.32 -3 8 C-3 7.01 -3 6.02 -3 5 C-2.34 5 -1.68 5 -1 5 C-0.67 3.35 -0.34 1.7 0 0 Z " fill="#E32417" transform="translate(58,80)"/>
<path d="M0 0 C0.33 0 0.66 0 1 0 C1 2.64 1 5.28 1 8 C1.66 8.33 2.32 8.66 3 9 C1.1875 9.625 1.1875 9.625 -1 10 C-1.99 9.34 -2.98 8.68 -4 8 C-2.68 8 -1.36 8 0 8 C0 5.36 0 2.72 0 0 Z " fill="#D6D6D6" transform="translate(155,107)"/>
<path d="M0 0 C0.99 0 1.98 0 3 0 C3 1.65 3 3.3 3 5 C2.01 5.33 1.02 5.66 0 6 C0 4.02 0 2.04 0 0 Z " fill="#2B2E2B" transform="translate(91,110)"/>
<path d="M0 0 C0.33 0.99 0.66 1.98 1 3 C2.32 2.67 3.64 2.34 5 2 C5 2.99 5 3.98 5 5 C3.35 5.33 1.7 5.66 0 6 C-1 3 -1 3 0 0 Z " fill="#1A1A19" transform="translate(103,88)"/>
<path d="M0 0 C0.99 0.66 1.98 1.32 3 2 C2.01 3.98 1.02 5.96 0 8 C-0.66 7.67 -1.32 7.34 -2 7 C-1.34 4.69 -0.68 2.38 0 0 Z " fill="#CCCCCA" transform="translate(110,85)"/>
<path d="M0 0 C0.99 0.33 1.98 0.66 3 1 C2.67 2.65 2.34 4.3 2 6 C1.01 5.34 0.02 4.68 -1 4 C-0.67 2.68 -0.34 1.36 0 0 Z " fill="#EFF400" transform="translate(49,83)"/>
<path d="M0 0 C1.65 0 3.3 0 5 0 C3.68 2.31 2.36 4.62 1 7 C0.67 7 0.34 7 0 7 C0 4.69 0 2.38 0 0 Z " fill="#E6F9CC" transform="translate(15,73)"/>
</svg>
