<?xml version="1.0" encoding="UTF-8"?>
<svg version="1.1" xmlns="http://www.w3.org/2000/svg" width="4001" height="4001">
<path d="M0 0 C1320.33 0 2640.66 0 4001 0 C4001 1320.33 4001 2640.66 4001 4001 C2680.67 4001 1360.34 4001 0 4001 C0 2680.67 0 1360.34 0 0 Z " fill="#03062C" transform="translate(0,0)"/>
<path d="M0 0 C1.36186696 0.00056958 1.36186696 0.00056958 2.75124639 0.00115067 C4.31653588 -0.00183591 4.31653588 -0.00183591 5.91344738 -0.00488281 C7.65416843 -0.00051355 7.65416843 -0.00051355 9.43005556 0.00394398 C10.65189214 0.00308955 11.87372872 0.00223513 13.13259065 0.00135481 C16.53942306 -0.00001342 19.94619873 0.00313423 23.3530243 0.00813287 C27.021071 0.01243393 30.68911581 0.0109912 34.35716432 0.0102306 C40.71741906 0.00970515 47.07766358 0.01285419 53.43791574 0.01846844 C62.6338782 0.02658054 71.8298357 0.02919836 81.02580135 0.03045643 C95.94407912 0.03264741 110.86235143 0.03930873 125.78062624 0.04875904 C140.27606867 0.05793198 154.77150962 0.06500193 169.26695436 0.06926686 C170.16891977 0.06953485 171.07088518 0.06980285 172.00018287 0.07007897 C179.05368971 0.07215828 186.10719659 0.07411524 193.16070348 0.07603353 C227.76000891 0.08547461 262.35930069 0.10559116 296.95860475 0.1241985 C296.95860475 79.3241985 296.95860475 158.5241985 296.95860475 240.1241985 C299.59860475 240.4541985 302.23860475 240.7841985 304.95860475 241.1241985 C333.34676494 245.65650455 361.42454151 251.86807347 388.95860475 260.1241985 C390.0254651 260.44372486 391.09232546 260.76325123 392.19151491 261.09246022 C476.48442609 286.48770539 555.80171704 323.95082717 626.95860475 376.1241985 C628.57313221 377.30005647 630.18771345 378.47584061 631.80235475 379.65154225 C640.38716007 385.9284585 648.81169023 392.28545308 656.95860475 399.1241985 C658.72823449 400.56317992 660.49910576 402.00063564 662.27110475 403.4366985 C672.11361662 411.498585 681.72520668 419.79488761 691.04454225 428.45622975 C693.19458864 430.42470385 695.36356012 432.33505737 697.57408327 434.23259693 C702.25002966 438.31972513 706.6405954 442.66213993 711.025011 447.05779225 C712.28159769 448.31294384 712.28159769 448.31294384 713.56356996 449.59345204 C715.3236741 451.35287953 717.08253152 453.11355503 718.84019655 454.8754192 C721.51331447 457.55389261 724.19172726 460.22698723 726.87071413 462.89958912 C728.58913378 464.61866965 730.30724317 466.33806039 732.025011 468.05779225 C732.81686296 468.84761997 733.60871492 469.6374477 734.42456239 470.4512096 C738.60510186 474.64921554 742.63183504 478.92417306 746.49194521 483.41942555 C748.54936558 485.81086984 750.69311914 488.11964084 752.83360475 490.4366985 C756.92298263 494.92082778 760.80479497 499.52687087 764.61485475 504.2491985 C766.70876664 506.81773041 768.84031161 509.34451457 770.99522585 511.86150318 C776.89883122 518.76310389 782.51699796 525.85297191 787.95860475 533.1241985 C788.47793581 533.81755299 788.99726686 534.51090748 789.53233522 535.22527272 C801.94339468 551.83978589 814.01237622 568.63372514 824.84239382 586.3273235 C826.55643033 589.08657738 828.35818818 591.78741425 830.14610475 594.4991985 C842.74152137 613.91689487 853.59625573 634.45155717 863.95860475 655.1241985 C864.48583132 656.1746233 865.01305788 657.22504811 865.556261 658.30730397 C875.50156988 678.25088859 883.93358928 698.74664912 891.70860475 719.6241985 C892.05632936 720.54418629 892.40405397 721.46417408 892.76231569 722.41204029 C893.2229944 723.67721485 893.2229944 723.67721485 893.69297975 724.9679485 C893.96336061 725.70206959 894.23374147 726.43619068 894.51231569 727.19255787 C894.95860475 729.1241985 894.95860475 729.1241985 893.95860475 732.1241985 C891.73343811 733.10729723 889.63261651 733.87869156 887.321886 734.60271412 C886.62809847 734.8306667 885.93431093 735.05861927 885.21949953 735.2934795 C882.90687393 736.05040653 880.58913464 736.79025348 878.27110475 737.5304485 C876.64059741 738.06081532 875.01047604 738.59237006 873.38072389 739.12505299 C869.96294118 740.2404099 866.54315522 741.34929035 863.12169069 742.45330006 C858.18885345 744.04667983 853.26385414 745.66307085 848.34141725 747.288261 C847.55982744 747.5462447 846.77823763 747.8042284 845.97296327 748.0700298 C844.39949203 748.58941781 842.8260311 749.10883707 841.25258058 749.62828785 C837.31333675 750.92744197 833.37233012 752.22121903 829.431261 753.5148235 C828.26411813 753.89796208 828.26411813 753.89796208 827.07339662 754.28884083 C825.49764504 754.80608821 823.92188513 755.32331023 822.34611696 755.84050709 C815.93197863 757.94592254 809.51830336 760.05274814 803.10463136 762.15958363 C800.91143704 762.87988633 798.71811422 763.59979652 796.52476686 764.31963307 C787.87096903 767.16068652 779.22336322 770.01969991 770.5892505 772.92012745 C765.86048144 774.50546849 761.11613364 776.03391238 756.36097902 777.53816944 C738.71809944 783.12755121 721.17796717 789.02440006 703.62730592 794.89519459 C694.25235656 798.03099966 684.87534819 801.16063528 675.49766725 804.288261 C674.58404169 804.5929858 673.67041612 804.89771061 672.72910494 805.2116695 C658.65660784 809.9040457 644.5719896 814.55600531 630.45860475 819.1241985 C629.62877077 819.39280689 628.79893678 819.66141529 627.94395632 819.93816334 C627.12894655 820.20193775 626.31393678 820.46571217 625.47422975 820.73747975 C623.89348174 821.24914028 622.31275205 821.76085743 620.73204225 822.272636 C619.98549379 822.51431507 619.23894533 822.75599415 618.46977419 823.00499684 C609.95420152 825.76660692 601.46623317 828.61027697 592.97807497 831.45479542 C582.49566298 834.96607802 571.99770558 838.42805987 561.48985475 841.86247975 C560.18793923 842.28808794 558.88602374 842.71369626 557.58410829 843.1393047 C554.92576435 844.00826293 552.26740002 844.87715877 549.6090259 845.74602467 C548.94460104 845.96319142 548.28017618 846.18035816 547.59561723 846.40410572 C546.25713736 846.84156558 544.91864407 847.27898438 543.58013719 847.71636158 C525.02709954 853.77943698 506.50346162 859.91644844 488.07237428 866.34270436 C487.36350572 866.58865849 486.65463716 866.83461262 485.92428774 867.08801991 C484.07748382 867.72934444 482.23219848 868.37503767 480.38707155 869.02117115 C477.76995433 869.86316614 475.3251832 870.46794439 472.64927858 871.02019459 C468.91353061 871.72390886 468.91353061 871.72390886 467.45860475 874.2491985 C467.29360475 874.8679485 467.12860475 875.4866985 466.95860475 876.1241985 C466.53732301 875.17504566 466.53732301 875.17504566 466.10753053 874.20671803 C446.58712753 830.42241448 418.70904681 787.53413558 380.73985475 757.350761 C377.94025387 755.10950748 375.23676953 752.77857795 372.52110475 750.4366985 C367.0790717 745.88856049 361.3859359 741.76289 355.58360475 737.6866985 C354.72710329 737.08317555 353.87060182 736.4796526 352.98814577 735.85784107 C348.75180059 732.91553095 344.58790288 730.41216573 339.95860475 728.1241985 C339.15680788 727.47837818 338.355011 726.83255787 337.52891725 726.16716725 C334.50535501 723.76394072 331.29103086 722.10722235 327.83360475 720.4366985 C327.13404665 720.0949358 326.43448854 719.75317311 325.71373171 719.40105397 C324.22040765 718.67359205 322.72565808 717.94905015 321.22960085 717.22722584 C319.02175026 716.15486839 316.82764294 715.05806726 314.634386 713.95622975 C305.23741699 709.29914158 295.6621491 705.34720422 285.83360475 701.6866985 C284.69560426 701.261469 283.55760378 700.83623951 282.38511842 700.39812428 C276.9530181 698.41603883 271.66148018 696.72338283 265.99107546 695.59685475 C263.95425199 695.12318625 262.13371378 694.46605896 260.196886 693.68279225 C219.96934987 677.89504525 169.66733412 678.41793038 127.23790163 681.86394459 C125.11012504 682.03281072 122.98116925 682.18763044 120.85118288 682.32585865 C113.78585921 682.81529623 107.09784808 684.00591986 100.20860475 685.6241985 C89.26552168 688.15397332 89.26552168 688.15397332 84.48985475 688.694511 C81.09336461 689.10780073 78.36468218 690.02954204 75.20860475 691.3116985 C72.57501085 692.26271852 69.93759851 692.87380409 67.20860475 693.4991985 C61.87538471 694.78398927 57.0292052 696.62146847 52.009386 698.81560475 C48.94110538 700.13170463 45.84322752 701.28875403 42.70860475 702.4366985 C36.66015654 704.72134237 30.96413442 707.52484081 25.25059694 710.53362232 C20.26484237 713.1241985 20.26484237 713.1241985 16.95860475 713.1241985 C16.95860475 713.7841985 16.95860475 714.4441985 16.95860475 715.1241985 C15.33610535 715.96239007 13.71051979 716.79461009 12.08360475 717.6241985 C11.17868288 718.088261 10.273761 718.5523235 9.34141725 719.0304485 C6.95860475 720.1241985 6.95860475 720.1241985 4.95860475 720.1241985 C4.62860475 721.1141985 4.29860475 722.1041985 3.95860475 723.1241985 C2.181261 724.29216725 2.181261 724.29216725 0.02110475 725.3116985 C-0.68916868 725.65587818 -1.39944212 726.00005787 -2.131239 726.35466725 C-4.04139525 727.1241985 -4.04139525 727.1241985 -6.04139525 727.1241985 C-6.04139525 727.7841985 -6.04139525 728.4441985 -6.04139525 729.1241985 C-8.40400261 730.98638196 -10.78349827 732.75165658 -13.22889525 734.4991985 C-30.94351388 747.48033235 -51.90673391 765.72021448 -59.04139525 787.1241985 C-59.70139525 787.1241985 -60.36139525 787.1241985 -61.04139525 787.1241985 C-61.2115515 787.74165943 -61.38170775 788.35912037 -61.55702025 788.99529225 C-62.79449672 793.3198776 -64.10250525 797.43498678 -66.04139525 801.4991985 C-75.91313778 822.83123983 -74.23452618 850.00466799 -66.43983275 871.68279225 C-65.41045745 874.46350566 -64.32612264 877.21590514 -63.21327025 879.96404225 C-62.04139525 883.1241985 -62.04139525 883.1241985 -62.04139525 886.1241985 C-61.38139525 886.1241985 -60.72139525 886.1241985 -60.04139525 886.1241985 C-59.5309265 887.2669524 -59.5309265 887.2669524 -59.01014525 888.43279225 C-55.93132374 894.99166467 -52.69766286 900.13840129 -47.58045775 905.28435475 C-46.04139525 907.1241985 -46.04139525 907.1241985 -46.04139525 910.1241985 C-45.38139525 910.1241985 -44.72139525 910.1241985 -44.04139525 910.1241985 C-44.04139525 910.7841985 -44.04139525 911.4441985 -44.04139525 912.1241985 C-43.05139525 912.4541985 -42.06139525 912.7841985 -41.04139525 913.1241985 C-39.35322592 914.76908143 -37.6878621 916.43757392 -36.04139525 918.1241985 C-35.27827025 918.6810735 -34.51514525 919.2379485 -33.72889525 919.8116985 C-32.89358275 920.461386 -32.89358275 920.461386 -32.04139525 921.1241985 C-32.04139525 921.7841985 -32.04139525 922.4441985 -32.04139525 923.1241985 C-31.05139525 923.4541985 -30.06139525 923.7841985 -29.04139525 924.1241985 C-29.04139525 924.7841985 -29.04139525 925.4441985 -29.04139525 926.1241985 C-27.72139525 926.4541985 -26.40139525 926.7841985 -25.04139525 927.1241985 C-25.04139525 927.7841985 -25.04139525 928.4441985 -25.04139525 929.1241985 C-24.49225462 929.38458912 -23.943114 929.64497975 -23.37733275 929.913261 C-20.70154438 931.30037537 -18.20326516 932.87190659 -15.66639525 934.4991985 C-14.69702025 935.11923756 -13.72764525 935.73927662 -12.72889525 936.37810475 C-10.68673257 937.70491683 -8.67031321 939.05378636 -6.66639525 940.4366985 C-4.16774208 942.16507605 -4.16774208 942.16507605 -1.662489 943.053886 C0.96035765 944.12491429 3.13980435 945.40960399 5.52110475 946.9366985 C10.23344117 949.82900079 15.04974892 951.94866172 20.196886 953.94841725 C22.95860475 955.1241985 22.95860475 955.1241985 25.48985475 956.647636 C28.00365892 958.15114545 30.38074198 959.10995621 33.14610475 960.0616985 C36.69509962 961.31400694 40.21703476 962.5944099 43.70860475 963.9991985 C44.53231569 964.33048756 45.35602663 964.66177662 46.2046985 965.00310475 C48.20015268 965.81543858 50.1918817 966.63694273 52.181261 967.46404225 C62.14574826 971.551759 72.27460646 974.99727857 82.51622194 978.32390553 C84.90176194 979.10557287 87.27755196 979.91280444 89.65391725 980.72185475 C93.38496147 981.96730855 97.12880696 982.96804098 100.95860475 983.8741985 C108.31397783 985.65927176 115.60684979 987.64955481 122.89610475 989.6866985 C123.94991335 989.97963795 125.00372194 990.2725774 126.08946413 990.57439381 C130.61669396 991.84597483 135.10847586 993.14716806 139.55235475 994.6866985 C144.46157764 996.3577235 149.45793577 997.46314968 154.52110475 998.5616985 C156.47453278 998.99523117 158.42765677 999.43013602 160.38047975 999.866386 C161.33116335 1000.07875904 162.28184694 1000.29113209 163.26133913 1000.50994068 C166.94522574 1001.34888517 170.609657 1002.2553183 174.27110475 1003.1866985 C184.56887872 1005.79799496 194.91270735 1008.20390471 205.27110475 1010.5616985 C209.74401585 1011.58747038 214.19343662 1012.68574213 218.63963503 1013.8199535 C228.83272961 1016.41181785 239.06391256 1018.7276638 249.3559131 1020.88957936 C253.92974157 1021.85105672 258.50064215 1022.82630165 263.071886 1023.79997975 C263.993752 1023.99608845 264.915618 1024.19219715 265.86541933 1024.39424855 C292.78155518 1030.12783687 319.60864401 1036.27229215 346.40733522 1042.52916676 C348.9956866 1043.13284708 351.58452555 1043.73440034 354.1734485 1044.33562428 C378.2388349 1049.9306776 402.15268871 1055.92923508 425.95237917 1062.56615406 C427.83857058 1063.09081023 429.72617912 1063.61036409 431.61387819 1064.12956959 C481.01453066 1077.72072547 530.29556784 1093.82550498 576.95860475 1115.1241985 C577.90090944 1115.55168385 578.84321413 1115.9791692 579.8140735 1116.41960865 C629.02933337 1138.77986279 676.94079541 1165.32255393 718.571886 1200.132011 C720.91843668 1202.09067032 723.30595158 1203.98499975 725.70860475 1205.8741985 C732.02437723 1210.906606 738.07790868 1216.24364369 744.1553821 1221.55876881 C746.48227289 1223.57880994 748.83619899 1225.56626152 751.19615358 1227.54753834 C753.54538085 1229.64911885 755.74042072 1231.8848482 757.95860475 1234.1241985 C758.90546099 1235.06756454 759.85324707 1236.00999804 760.80186647 1236.95159107 C763.55689372 1239.68874663 766.30881077 1242.42900597 769.05967897 1245.17034107 C770.23781297 1246.34344862 771.41684324 1247.51565678 772.59678835 1248.68694264 C778.94404829 1254.98900427 785.17333321 1261.2942781 790.95860475 1268.1241985 C792.41305992 1269.73188222 793.8708137 1271.33659564 795.33360475 1272.9366985 C800.06373751 1278.18618704 804.54409426 1283.60788456 808.95860475 1289.1241985 C809.36804323 1289.63402272 809.77748171 1290.14384693 810.19932741 1290.66912037 C827.8163477 1312.65171766 843.86762477 1335.71745539 857.95860475 1360.1241985 C858.30520143 1360.72119557 858.65179811 1361.31819264 859.00889772 1361.93328053 C886.24530264 1409.0163681 906.4228487 1459.20062863 918.95860475 1512.1241985 C919.22125124 1513.22731373 919.48389772 1514.33042897 919.75450319 1515.46697193 C924.30172197 1534.85307523 927.52430984 1554.37380254 929.95860475 1574.1241985 C930.04323976 1574.80214466 930.12787477 1575.48009083 930.21507448 1576.17858082 C935.43446781 1618.5249167 935.31865185 1662.79685176 929.95860475 1705.1241985 C929.86150209 1705.90055653 929.76439943 1706.67691456 929.66435426 1707.47679859 C918.31559888 1797.40043859 887.34192679 1882.9350471 812.95860475 2000.1241985 C812.44555788 2000.81739186 811.932511 2001.51058522 811.40391725 2002.22478443 C801.21378272 2015.9905182 790.72285235 2029.41479943 779.49229616 2042.34783131 C777.92131938 2044.16738352 776.36583659 2045.99917955 774.8140735 2047.835136 C770.0154483 2053.5037839 765.22237666 2059.05073837 759.86998171 2064.21184498 C758.09695271 2065.98577985 756.47105531 2067.81027313 754.84922975 2069.72185475 C750.46437889 2074.76899776 745.7575285 2079.47159398 741.02110475 2084.1866985 C740.16581178 2085.04585865 739.31051882 2085.90501881 738.42930788 2086.79021412 C734.0062995 2091.20647496 729.52057383 2095.47627438 724.77916139 2099.54875904 C721.99688965 2101.95642963 719.32944787 2104.48261203 716.64610475 2106.9991985 C711.90361159 2111.40646061 707.05810821 2115.6148424 702.00547975 2119.66716725 C699.70331817 2121.52365396 697.42678135 2123.39915474 695.16172975 2125.29997975 C684.7395885 2134.02537865 673.99269546 2142.19001734 662.95860475 2150.1241985 C662.24204714 2150.64224049 661.52548952 2151.16028248 660.78721803 2151.69402272 C637.55055834 2168.46557886 613.1804016 2183.52986967 587.95860475 2197.1241985 C587.1102405 2197.58262135 586.26187624 2198.0410442 585.38780397 2198.51335865 C560.94939739 2211.65539532 535.78011396 2222.98898753 509.95860475 2233.1241985 C509.00195925 2233.50495533 508.04531374 2233.88571217 507.05967897 2234.27800709 C452.1068471 2256.08041582 393.49519794 2270.08242344 335.11442751 2278.80132252 C332.99082291 2279.11937321 330.86794539 2279.44189972 328.74522585 2279.76580006 C324.88044519 2280.35451071 321.01373263 2280.92946003 317.14610475 2281.4991985 C316.02010866 2281.66709889 314.89411257 2281.83499928 313.73399538 2282.00798756 C312.16488405 2282.23180104 312.16488405 2282.23180104 310.5640735 2282.460136 C309.66841676 2282.58952564 308.77276003 2282.71891529 307.84996217 2282.85222584 C304.23433831 2283.1923259 300.59018897 2283.1241985 296.95860475 2283.1241985 C296.95860475 2360.3441985 296.95860475 2437.5641985 296.95860475 2517.1241985 C221.96470179 2517.16452985 221.96470179 2517.16452985 190.72227663 2517.17302662 C183.57050252 2517.17498464 176.41872843 2517.17700516 169.26695436 2517.17913014 C168.37053655 2517.17939389 167.47411874 2517.17965763 166.55053675 2517.17992938 C152.05900259 2517.18428437 137.56747237 2517.19217131 123.07594056 2517.20135129 C108.2151429 2517.21068701 93.35434731 2517.21625393 78.49354684 2517.21828699 C69.31602117 2517.21966239 60.13850665 2517.22401388 50.9609844 2517.23211496 C44.67643453 2517.23738142 38.39189047 2517.23900302 32.10733856 2517.23769987 C28.47590418 2517.23705634 24.84448935 2517.23807577 21.21305841 2517.24340397 C17.2853834 2517.24912509 13.3577343 2517.24719962 9.43005556 2517.24445301 C8.26957486 2517.24736585 7.10909416 2517.2502787 5.91344738 2517.25327981 C4.86992105 2517.25128876 3.82639473 2517.24929771 2.75124639 2517.24724633 C1.38937943 2517.24781591 1.38937943 2517.24781591 0 2517.24839699 C-2.04139525 2517.1241985 -2.04139525 2517.1241985 -3.04139525 2516.1241985 C-3.13948233 2512.93867901 -3.17129598 2509.77482068 -3.16164976 2506.58890492 C-3.16250419 2505.57532951 -3.16335861 2504.5617541 -3.16423893 2503.51746428 C-3.16589679 2500.09330803 -3.16036738 2496.6691999 -3.15492064 2493.24504811 C-3.15463881 2490.80158193 -3.15479642 2488.35811567 -3.15536314 2485.91464955 C-3.15559146 2480.63971983 -3.15274008 2475.36480533 -3.1471253 2470.08987957 C-3.13901246 2462.46314057 -3.13639531 2454.83640756 -3.13513731 2447.20966471 C-3.13294645 2434.83701569 -3.12628545 2422.46437324 -3.1168347 2410.09172779 C-3.10766146 2398.06991823 -3.1005802 2386.04811046 -3.09632689 2374.02629811 C-3.09606416 2373.28578593 -3.09580144 2372.54527375 -3.09553076 2371.7823218 C-3.09422576 2368.06754278 -3.09296204 2364.35276374 -3.09171885 2360.63798469 C-3.08134518 2329.80005118 -3.06365182 2298.96212583 -3.04139525 2268.1241985 C-4.91658087 2267.89458424 -4.91658087 2267.89458424 -6.82964903 2267.66033131 C-19.87525221 2266.06291266 -32.5708914 2262.55176128 -45.22889525 2259.1241985 C-46.10980833 2258.88698078 -46.99072142 2258.64976307 -47.89832884 2258.40535694 C-60.84226476 2254.91337261 -73.7195619 2251.22817323 -86.54139525 2247.3116985 C-87.25854704 2247.0934441 -87.97569884 2246.87518971 -88.7145825 2246.65032154 C-138.93821341 2231.31096301 -188.71159151 2210.56861154 -234.78358275 2185.35466725 C-237.26726055 2184.00110582 -239.76304734 2182.67157931 -242.26014525 2181.3429485 C-255.82602845 2174.08624507 -268.98081214 2166.25041873 -282.04139525 2158.1241985 C-282.88331419 2157.60325611 -283.72523314 2157.08231373 -284.59266478 2156.54558522 C-307.58178939 2142.30724823 -329.74916478 2126.79342607 -351.04139525 2110.1241985 C-352.21584169 2109.20879193 -353.39032189 2108.29342867 -354.56483275 2107.37810475 C-369.97838891 2095.3412297 -384.99498099 2082.88144937 -399.349989 2069.59685475 C-401.69578395 2067.44171947 -404.07038641 2065.33357157 -406.47889525 2063.2491985 C-409.46482982 2060.65647341 -412.27913776 2057.9572831 -415.04139525 2055.1241985 C-416.26756395 2053.87125755 -417.49689641 2052.6214072 -418.72889525 2051.3741985 C-419.31026243 2050.78122975 -419.89162962 2050.188261 -420.490614 2049.5773235 C-421.99653499 2048.02778045 -421.99653499 2048.02778045 -424.04139525 2047.1241985 C-424.04139525 2046.4641985 -424.04139525 2045.8041985 -424.04139525 2045.1241985 C-425.03139525 2044.7941985 -426.02139525 2044.4641985 -427.04139525 2044.1241985 C-428.76285025 2042.51418351 -430.41978152 2040.83473188 -432.04139525 2039.1241985 C-432.54493529 2038.5977776 -433.04847533 2038.0713567 -433.56727415 2037.52898365 C-435.17424174 2035.84193955 -436.76533398 2034.14107225 -438.35389525 2032.4366985 C-438.9036804 2031.85597584 -439.45346556 2031.27525318 -440.01991087 2030.67693287 C-444.04139525 2026.35571053 -444.04139525 2026.35571053 -444.04139525 2024.1241985 C-444.63976195 2023.8555901 -445.23812865 2023.5869817 -445.85462767 2023.31023365 C-448.05707255 2022.11569561 -449.35195197 2020.98644691 -451.0296765 2019.147636 C-451.83610594 2018.27171803 -451.83610594 2018.27171803 -452.65882689 2017.37810475 C-453.21819945 2016.75806568 -453.777572 2016.13802662 -454.35389525 2015.4991985 C-454.93711546 2014.86111256 -455.52033568 2014.22302662 -456.12122923 2013.56560475 C-460.15683189 2009.13833279 -464.14407885 2004.67378543 -468.04139525 2000.1241985 C-468.9760743 1999.04328184 -469.91099323 1997.96257258 -470.84608275 1996.882011 C-475.98172253 1990.93466902 -481.06180327 1984.96043793 -485.93202025 1978.79216725 C-487.5354918 1976.76407267 -489.14991156 1974.74750052 -490.77577025 1972.73747975 C-510.00216566 1948.9336722 -527.60646964 1923.92592539 -544.04139525 1898.1241985 C-544.43617064 1897.50705982 -544.83094603 1896.88992115 -545.23768431 1896.25408131 C-561.1491674 1871.33102285 -576.02874723 1845.6812614 -589.04139525 1819.1241985 C-589.64390871 1817.92414829 -590.24813769 1816.72495818 -590.85389525 1815.52654225 C-600.66894078 1796.09952109 -610.12305075 1776.49113861 -618.18202025 1756.26091725 C-618.95846064 1754.33040409 -619.83813194 1752.44219882 -620.72889525 1750.5616985 C-622.04139525 1747.1241985 -622.04139525 1747.1241985 -621.98988158 1745.0797649 C-620.50587503 1742.02007572 -618.28938216 1741.60533376 -615.178114 1740.397636 C-613.3827722 1739.6860735 -613.3827722 1739.6860735 -611.55116087 1738.960136 C-610.27727271 1738.47263289 -609.00318193 1737.98565894 -607.72889525 1737.4991985 C-606.46595319 1737.00586934 -605.20357523 1736.51109348 -603.94178587 1736.0148235 C-601.61692042 1735.10134979 -599.28928401 1734.19487694 -596.95814329 1733.29753834 C-594.57451766 1732.33866123 -592.32742988 1731.28731282 -590.04139525 1730.1241985 C-587.17740139 1729.13775778 -584.29355916 1728.23017864 -581.4046765 1727.319511 C-578.04710123 1726.12622641 -574.85347561 1724.74233417 -571.60951048 1723.2750774 C-566.57938374 1721.02086907 -561.49319767 1718.89566923 -556.41639525 1716.7491985 C-555.25486937 1716.25806568 -554.09334349 1715.76693287 -552.89661986 1715.26091725 C-546.03248566 1712.36610794 -539.15549836 1709.52431024 -532.224989 1706.79216725 C-528.62164648 1705.36590232 -525.03658281 1703.89662381 -521.4515515 1702.42497975 C-520.25522093 1701.93449147 -519.05889036 1701.44400318 -517.82630736 1700.93865162 C-515.43947261 1699.95914343 -513.05352306 1698.97747463 -510.66859251 1697.99333912 C-505.95184946 1696.06029813 -501.26959264 1694.1454627 -496.40858275 1692.60466725 C-492.15502103 1691.23853521 -488.19087319 1689.41137425 -484.14344603 1687.52947193 C-478.00252964 1684.74754885 -471.72921009 1682.27303366 -465.47889525 1679.7491985 C-464.04006613 1679.16617601 -462.60126428 1678.58308625 -461.162489 1677.99993092 C-453.97616558 1675.0915012 -446.77917485 1672.2150526 -439.54139525 1669.4366985 C-432.20987741 1666.61911902 -424.96510445 1663.61372766 -417.72181517 1660.5773235 C-407.12202246 1656.14121904 -396.48969753 1651.78562753 -385.85389525 1647.4366985 C-384.90434965 1647.04842884 -383.95480406 1646.66015919 -382.97648436 1646.26012379 C-366.29543919 1639.44128836 -349.59970629 1632.6590909 -332.89420897 1625.9004131 C-328.12675567 1623.97079587 -323.36186222 1622.03497935 -318.59860045 1620.09503895 C-315.27485795 1618.74142589 -311.95047829 1617.38938126 -308.62608153 1616.03737599 C-307.06402344 1615.40160357 -305.50226111 1614.76510384 -303.94083983 1614.12776905 C-296.32055093 1611.01770129 -288.69166615 1607.97060047 -280.9671765 1605.12810475 C-274.95308315 1602.90939573 -269.08530016 1600.44857262 -263.22952086 1597.84311634 C-255.00010769 1594.19181258 -246.64323858 1590.85833271 -238.29139525 1587.4991985 C-235.88944655 1586.53103887 -233.48777367 1585.56220333 -231.08643919 1584.59252125 C-229.54298972 1583.96979148 -227.99897514 1583.34846024 -226.45435911 1582.72862965 C-223.06300078 1581.36435964 -219.68474435 1579.98264544 -216.33631712 1578.51580006 C-215.26446165 1578.04883717 -214.19260618 1577.58187428 -213.08827025 1577.100761 C-211.71686888 1576.48708668 -211.71686888 1576.48708668 -210.31776243 1575.8610149 C-208.04139525 1575.1241985 -208.04139525 1575.1241985 -205.04139525 1576.1241985 C-203.66615111 1578.58245045 -203.66615111 1578.58245045 -202.256239 1581.86247975 C-201.73046263 1583.06598072 -201.20468626 1584.2694817 -200.66297728 1585.5094524 C-200.25091032 1586.47108296 -200.25091032 1586.47108296 -199.83051878 1587.45214039 C-198.40049725 1590.78455278 -196.93253737 1594.10017925 -195.4671765 1597.41716725 C-195.17558653 1598.07910084 -194.88399657 1598.74103443 -194.58357054 1599.42302662 C-189.28493407 1611.40997205 -183.71377169 1623.3379421 -176.22108275 1634.12810475 C-175.04139525 1636.1241985 -175.04139525 1636.1241985 -175.04139525 1639.1241985 C-174.38139525 1639.1241985 -173.72139525 1639.1241985 -173.04139525 1639.1241985 C-172.67014525 1639.9285735 -172.29889525 1640.7329485 -171.91639525 1641.5616985 C-170.06434549 1645.3194806 -167.66899759 1648.66341563 -165.2484265 1652.07341725 C-164.04139525 1654.1241985 -164.04139525 1654.1241985 -164.04139525 1657.1241985 C-163.38139525 1657.1241985 -162.72139525 1657.1241985 -162.04139525 1657.1241985 C-162.04139525 1658.1141985 -162.04139525 1659.1041985 -162.04139525 1660.1241985 C-161.38139525 1660.1241985 -160.72139525 1660.1241985 -160.04139525 1660.1241985 C-160.04139525 1661.1141985 -160.04139525 1662.1041985 -160.04139525 1663.1241985 C-159.38139525 1663.1241985 -158.72139525 1663.1241985 -158.04139525 1663.1241985 C-158.04139525 1664.1141985 -158.04139525 1665.1041985 -158.04139525 1666.1241985 C-157.38139525 1666.1241985 -156.72139525 1666.1241985 -156.04139525 1666.1241985 C-154.95281659 1667.68318788 -153.94705857 1669.30020494 -152.97889525 1670.9366985 C-149.77322424 1676.12429889 -146.21555772 1680.76636168 -142.29920775 1685.43279225 C-140.14324261 1688.00279221 -138.0554234 1690.61485788 -135.97889525 1693.2491985 C-131.46968339 1698.89918706 -126.78903788 1704.39009105 -121.662489 1709.491386 C-119.29804859 1711.86639767 -117.03843806 1714.29801781 -114.79041868 1716.78118092 C-109.98322589 1722.09023211 -105.11768479 1727.05748357 -99.58827025 1731.63591725 C-99.0778015 1732.12705006 -98.56733275 1732.61818287 -98.04139525 1733.1241985 C-98.04139525 1733.7841985 -98.04139525 1734.4441985 -98.04139525 1735.1241985 C-97.48580931 1735.37298756 -96.93022337 1735.62177662 -96.3578015 1735.87810475 C-93.63064543 1737.34515835 -91.38475802 1739.11305851 -88.97889525 1741.0616985 C-88.12166868 1741.75134693 -87.26444212 1742.44099537 -86.381239 1743.15154225 C-84.04139525 1745.1241985 -84.04139525 1745.1241985 -82.58827025 1746.6241985 C-79.52531369 1749.59433819 -75.83542514 1751.85131386 -72.3421765 1754.28435475 C-71.58291868 1754.89150318 -70.82366087 1755.49865162 -70.04139525 1756.1241985 C-70.04139525 1756.7841985 -70.04139525 1757.4441985 -70.04139525 1758.1241985 C-69.31952025 1758.3923235 -68.59764525 1758.6604485 -67.85389525 1758.9366985 C-60.60477553 1761.99743793 -60.60477553 1761.99743793 -59.04139525 1765.1241985 C-57.40356783 1766.17076389 -55.72745673 1767.15725772 -54.04139525 1768.1241985 C-52.69258053 1768.94961819 -51.34645737 1769.77944443 -50.00233275 1770.61247975 C-42.71771394 1775.10325913 -35.45428324 1779.57428274 -27.89295775 1783.58904225 C-25.59816111 1784.82446016 -23.32911494 1786.08841134 -21.06483275 1787.37810475 C-20.35923216 1787.77948658 -19.65363158 1788.18086842 -18.92664915 1788.59441334 C-17.54453664 1789.38234073 -16.16389928 1790.17286373 -14.78504759 1790.96648365 C-10.63594626 1793.32565414 -6.45722916 1795.29194249 -2.04139525 1797.1241985 C-0.63944718 1797.75341532 0.76018272 1798.38781503 2.1578235 1799.02654225 C9.73191644 1802.46847411 17.21901781 1805.78543675 25.18516725 1808.23747975 C27.25833939 1808.90031084 29.30627598 1809.64301297 31.337511 1810.42497975 C64.11445641 1822.84154005 98.21200136 1830.34442106 132.95860475 1834.3741985 C134.01434694 1834.4986887 134.01434694 1834.4986887 135.09141725 1834.62569386 C179.6186801 1839.81050901 225.37414584 1838.68339613 269.58360475 1831.7491985 C270.52008852 1831.60239643 271.45657228 1831.45559437 272.42143434 1831.30434376 C329.36648529 1822.27191805 382.25417575 1801.49684174 424.49083132 1761.50847584 C425.75846149 1760.31295636 427.04080558 1759.13307397 428.32579225 1757.95622975 C435.84519103 1750.83621296 441.88220127 1742.46948185 447.95860475 1734.1241985 C448.41412721 1733.50270924 448.86964967 1732.88121998 449.33897585 1732.24089772 C461.67947319 1715.21129216 470.0988631 1696.25287824 475.95860475 1676.1241985 C476.29505007 1674.98466725 476.63149538 1673.845136 476.978136 1672.6710735 C484.63590428 1644.45427216 482.47746015 1614.3728483 468.08360475 1588.7491985 C464.57004808 1582.7523385 460.52501211 1577.35496346 455.95860475 1572.1241985 C454.8003821 1570.76681568 454.8003821 1570.76681568 453.618761 1569.382011 C447.92098861 1562.88313 441.84091928 1557.34320402 434.95860475 1552.1241985 C434.18130007 1551.53122975 433.40399538 1550.938261 432.603136 1550.3273235 C425.14552211 1544.88089191 417.11327225 1540.42628111 408.95860475 1536.1241985 C408.22899538 1535.73892994 407.499386 1535.35366139 406.74766725 1534.95671803 C380.6410456 1521.40092248 352.22567845 1512.49661012 324.05943483 1504.32659107 C321.11771305 1503.4699173 318.18458734 1502.58815162 315.25425905 1501.69329029 C303.45596575 1498.09455384 291.60274294 1494.84072997 279.64610475 1491.8116985 C278.72851381 1491.57808613 277.81092287 1491.34447376 276.86552614 1491.10378224 C249.67621107 1484.18927072 222.33245708 1478.01424301 194.89976686 1472.14958912 C182.6185552 1469.51774276 170.38302018 1466.70522379 158.15080446 1463.85533863 C145.53945227 1460.91945009 132.90099407 1458.17900277 120.21348757 1455.59001881 C106.26318263 1452.70812385 92.35842482 1449.23256166 78.64610475 1445.3741985 C74.75262947 1444.28279912 70.96311032 1443.64652531 66.95860475 1443.1241985 C66.62860475 1442.7941985 66.29860475 1442.4641985 65.95860475 1442.1241985 C63.46091761 1441.58731248 60.96964442 1441.08954713 58.45860475 1440.6241985 C51.09373989 1439.25933363 51.09373989 1439.25933363 49.95860475 1438.1241985 C48.90672975 1437.9798235 47.85485475 1437.8354485 46.77110475 1437.6866985 C42.95860475 1437.1241985 42.95860475 1437.1241985 40.43516725 1436.2648235 C35.53305351 1434.65648955 30.53415477 1433.52138198 25.52110475 1432.3116985 C17.33014999 1430.30441922 9.37579198 1428.06784318 1.415636 1425.2804485 C-3.55277971 1423.6186959 -8.59583227 1422.34034393 -13.66639525 1421.0304485 C-17.17605267 1420.08804048 -20.57830067 1418.96690632 -24.006239 1417.76872975 C-26.15003406 1417.08979273 -28.27450067 1416.62757741 -30.47889525 1416.1866985 C-33.62104584 1415.52915523 -36.43134034 1414.6257671 -39.38514525 1413.3741985 C-46.17754812 1410.60451122 -53.13997643 1408.352743 -60.10389525 1406.0616985 C-61.42755746 1405.62383305 -62.75112571 1405.18568342 -64.07459837 1404.74724537 C-66.60525385 1403.90923248 -69.13658274 1403.07336491 -71.66834837 1402.23870045 C-74.49468614 1401.30483885 -77.317576 1400.36166844 -80.1390515 1399.413261 C-84.02092563 1398.11627225 -87.93740281 1396.97722494 -91.87733275 1395.87029225 C-94.04139525 1395.1241985 -94.04139525 1395.1241985 -97.04139525 1393.1241985 C-99.02663707 1392.41479075 -101.028911 1391.7521727 -103.04139525 1391.1241985 C-105.00075631 1390.50242792 -106.9590884 1389.87740574 -108.91639525 1389.2491985 C-109.88319212 1388.94240162 -110.849989 1388.63560475 -111.84608275 1388.319511 C-114.27963539 1387.40916001 -116.43637684 1386.45592975 -118.7328015 1385.27654225 C-123.72668985 1382.71776898 -128.9009806 1380.65344655 -134.10389525 1378.5616985 C-154.15208295 1370.4530797 -173.76197186 1361.35688917 -193.10389525 1351.6866985 C-194.0467639 1351.21562672 -194.98963255 1350.74455494 -195.96107298 1350.25920826 C-201.58197053 1347.4264762 -207.12551161 1344.47381574 -212.63514525 1341.43035084 C-214.72821086 1340.29420017 -216.83426568 1339.22108005 -218.97889525 1338.1866985 C-230.75349826 1332.35862537 -241.88206608 1325.03721535 -253.04139525 1318.1241985 C-253.63645872 1317.75601002 -254.2315222 1317.38782154 -254.8446179 1317.00847584 C-271.09449857 1306.89967792 -286.92052124 1295.85367647 -302.04139525 1284.1241985 C-302.83320189 1283.51729176 -302.83320189 1283.51729176 -303.64100462 1282.89812428 C-312.52875689 1276.08401041 -321.05231764 1268.91139938 -329.45985228 1261.5148235 C-331.41766104 1259.79335411 -333.38629867 1258.08446353 -335.35389525 1256.3741985 C-336.58341461 1255.29126546 -337.81252874 1254.2078723 -339.04139525 1253.1241985 C-339.71170775 1252.53872242 -340.38202025 1251.95324635 -341.07264525 1251.35002857 C-348.25145196 1244.99712267 -355.03613286 1238.28226496 -361.80140501 1231.49455982 C-363.73249072 1229.55809301 -365.66889407 1227.62705893 -367.60584837 1225.69646412 C-373.6268369 1219.67910269 -379.59451254 1213.67548228 -385.04139525 1207.1241985 C-385.48668577 1206.60059742 -385.9319763 1206.07699635 -386.39076048 1205.53752857 C-387.57709813 1204.1382761 -388.74737178 1202.72544833 -389.91639525 1201.3116985 C-390.67694212 1200.39775318 -391.437489 1199.48380787 -392.22108275 1198.54216725 C-394.04139525 1196.1241985 -394.04139525 1196.1241985 -395.04139525 1193.1241985 C-395.70139525 1193.1241985 -396.36139525 1193.1241985 -397.04139525 1193.1241985 C-398.52885094 1191.41239515 -399.9282049 1189.62401944 -401.29139525 1187.8116985 C-401.72178099 1187.24136891 -402.15216673 1186.67103932 -402.59559447 1186.08342701 C-404.08517692 1184.10263266 -405.56345769 1182.11369463 -407.04139525 1180.1241985 C-407.60568236 1179.3694524 -408.16996947 1178.61470631 -408.75135618 1177.83708912 C-418.03671543 1165.41251526 -426.82743267 1152.87064494 -434.90077025 1139.616386 C-436.43116424 1137.10751976 -437.98673894 1134.61610547 -439.55702025 1132.132011 C-439.99030638 1131.44526295 -440.42359251 1130.7585149 -440.87000853 1130.05095631 C-441.69910931 1128.7387599 -442.53058808 1127.42806106 -443.36512572 1126.11931568 C-446.84987914 1120.59256861 -449.95691327 1114.88189818 -453.04139525 1109.1241985 C-453.73023802 1107.84609303 -453.73023802 1107.84609303 -454.43299681 1106.54216725 C-496.46945527 1028.19464611 -521.60421087 941.03760985 -500.90369993 677.45500904 C-494.23494796 655.61177251 -486.69922934 633.8398967 -477.04139525 613.1241985 C-476.52705931 611.98853443 -476.01272337 610.85287037 -475.4828015 609.68279225 C-473.70974853 605.80928804 -471.88917706 601.96247697 -470.04139525 598.1241985 C-469.62792845 597.26326588 -469.21446165 596.40233326 -468.78846556 595.51531178 C-461.2623773 579.93248409 -452.9534615 564.95307661 -444.04139525 550.1241985 C-443.54220579 549.28598561 -443.04301634 548.44777272 -442.52869993 547.58415943 C-434.39535744 533.92879299 -425.92739108 520.4394859 -415.69764525 508.23747975 C-413.99688733 506.16136689 -413.99688733 506.16136689 -412.68983275 503.8429485 C-410.43792136 500.12889559 -407.81555348 496.74956735 -405.16639525 493.3116985 C-404.30908812 492.1977068 -404.30908812 492.1977068 -403.43446165 491.06121022 C-386.39745532 469.01524007 -386.39745532 469.01524007 -376.67420775 459.7491985 C-373.9111989 456.99438849 -371.37086109 454.1118248 -368.81825072 451.16374928 C-359.70871372 440.7074327 -349.89383181 430.87536467 -340.10389525 421.0616985 C-339.61389036 420.56910542 -339.12388548 420.07651234 -338.61903197 419.5689922 C-332.94044975 413.86673335 -327.17932846 408.33286323 -321.04139525 403.1241985 C-319.86491317 402.10417292 -318.68911552 401.08335733 -317.5140515 400.0616985 C-311.9701482 395.27726683 -306.4220129 390.54407992 -300.5921765 386.1085735 C-296.25981034 382.7382182 -292.03321796 379.2350153 -287.79969603 375.74163014 C-284.00319642 372.63163236 -280.15881342 369.80579905 -276.04139525 367.1241985 C-274.66119025 366.15970763 -273.28520253 365.18916584 -271.912489 364.21404225 C-271.18739134 363.69906178 -270.46229368 363.18408131 -269.71522337 362.65349537 C-268.21989964 361.58913831 -266.72511076 360.52402945 -265.23084837 359.45818287 C-264.50703978 358.94449147 -263.78323118 358.43080006 -263.037489 357.90154225 C-262.38965452 357.4399773 -261.74182005 356.97841236 -261.07435423 356.50286061 C-259.60747993 355.50809188 -258.10516802 354.56489875 -256.58363158 353.65593678 C-254.08793672 352.15224048 -251.73793271 350.53486679 -249.36952025 348.83904225 C-244.29051724 345.25911581 -239.08559508 341.9374883 -233.79139525 338.6866985 C-232.87027952 338.11959156 -231.9491638 337.55248463 -231.00013548 336.96819264 C-223.76338673 332.53092801 -216.46791923 328.23726461 -209.04139525 324.1241985 C-207.91338499 323.49360523 -207.91338499 323.49360523 -206.76258665 322.85027272 C-195.40495422 316.50920713 -183.91530361 310.45948147 -172.29139525 304.6241985 C-170.5431848 303.74320484 -170.5431848 303.74320484 -168.75965697 302.84441334 C-162.28684948 299.61966307 -155.79176504 296.71228494 -149.04139525 294.1241985 C-146.0420619 292.88687371 -143.05527789 291.63672649 -140.15833861 290.1722942 C-124.65158005 282.49491968 -107.9013824 276.86648864 -91.60389525 271.1241985 C-90.81765776 270.84538838 -90.03142027 270.56657826 -89.22135741 270.27931935 C-81.06753665 267.39520285 -72.99922923 264.73538453 -64.56751829 262.76433522 C-62.36437377 262.20604345 -60.34984207 261.53844372 -58.24452025 260.694511 C-51.95834412 258.20149285 -45.32436722 256.7071752 -38.79139525 254.9991985 C-37.416297 254.63628931 -36.04129616 254.27301081 -34.66639525 253.90935475 C-27.64090951 252.05426042 -20.61137985 250.24000906 -13.54139525 248.5616985 C-12.41733275 248.29228443 -11.29327025 248.02287037 -10.13514525 247.74529225 C-7.04139525 247.1241985 -7.04139525 247.1241985 -3.04139525 247.1241985 C-3.04231704 245.85730214 -3.04323883 244.59040579 -3.04418856 243.28511864 C-3.06582471 213.24288883 -3.08232488 183.20066102 -3.09246058 153.15842533 C-3.09371135 149.46448057 -3.09500567 145.77053582 -3.09632689 142.07659107 C-3.0965892 141.34116215 -3.09685151 140.60573323 -3.09712177 139.84801858 C-3.10147858 127.92441681 -3.10936619 116.00081984 -3.11854804 104.07722092 C-3.12788427 91.85161224 -3.13345079 79.62600607 -3.13548374 67.40039396 C-3.13685903 59.8504689 -3.14120997 52.3005574 -3.14931171 44.75063651 C-3.15519949 38.97110931 -3.15585429 33.19159088 -3.15450293 27.41206127 C-3.15477945 25.03395844 -3.15678711 22.65585512 -3.16060072 20.27775532 C-3.16553125 17.04633893 -3.16439591 13.81498193 -3.16164976 10.58356434 C-3.16456261 9.6293039 -3.16747545 8.67504346 -3.17047656 7.69186604 C-3.15309058 0.19183405 -3.15309058 0.19183405 0 0 Z " fill="#3680AA" transform="translate(1846.0413952469826,741.8758015036583)"/>
</svg>
