<?xml version="1.0" encoding="UTF-8"?>
<svg version="1.1" xmlns="http://www.w3.org/2000/svg" width="270" height="148">
<path d="M0 0 C89.1 0 178.2 0 270 0 C270 48.84 270 97.68 270 148 C180.9 148 91.8 148 0 148 C0 99.16 0 50.32 0 0 Z " fill="#F4F5F5" transform="translate(0,0)"/>
<path d="M0 0 C1.81908875 -0.00143509 1.81908875 -0.00143509 3.67492676 -0.00289917 C6.21264702 -0.0035742 8.75036908 -0.00176762 11.28808594 0.00244141 C15.17386711 0.00783696 19.05953468 0.00245425 22.9453125 -0.00390625 C25.42187525 -0.00324608 27.89843794 -0.00196618 30.375 0 C32.11251526 -0.00303635 32.11251526 -0.00303635 33.88513184 -0.00613403 C34.9639563 -0.00298187 36.04278076 0.00017029 37.15429688 0.00341797 C38.57107727 0.00461136 38.57107727 0.00461136 40.01647949 0.00582886 C42.66101035 0.13304149 45.07481237 0.56286037 47.65625 1.1328125 C49.34767906 1.33420856 51.04207146 1.51187582 52.73828125 1.66796875 C53.66962891 1.75498047 54.60097656 1.84199219 55.56054688 1.93164062 C56.52025391 2.01865234 57.47996094 2.10566406 58.46875 2.1953125 C59.44779297 2.28619141 60.42683594 2.37707031 61.43554688 2.47070312 C63.84224071 2.69376255 66.24913182 2.91438822 68.65625 3.1328125 C68.65625 3.4628125 68.65625 3.7928125 68.65625 4.1328125 C67.63958755 4.14161186 67.63958755 4.14161186 66.60238647 4.15058899 C60.10449907 4.20934103 53.60691293 4.28185655 47.10933495 4.36852741 C43.77161026 4.41259869 40.43410253 4.45046224 37.09619141 4.47924805 C20.71639955 4.62422926 4.81159542 5.35207571 -11.34375 8.1328125 C-12.60268066 8.34172119 -13.86161133 8.55062988 -15.15869141 8.76586914 C-27.22850822 10.87305725 -39.05878546 13.25855551 -50.34375 18.1328125 C-51.02373047 18.42027344 -51.70371094 18.70773438 -52.40429688 19.00390625 C-61.71161744 22.97744789 -69.85085344 27.19024167 -77.34375 34.1328125 C-77.99730469 34.68453125 -78.65085938 35.23625 -79.32421875 35.8046875 C-85.30581746 41.16134306 -88.76357359 47.6135436 -89.7890625 55.6015625 C-90.18911283 67.86977277 -86.19013299 77.0466309 -77.90625 86.0078125 C-72.73138397 91.04776582 -66.65677478 94.68670421 -60.34375 98.1328125 C-59.64314453 98.51961182 -58.94253906 98.90641113 -58.22070312 99.30493164 C-50.97414527 103.12759546 -43.3740969 105.71013339 -35.59375 108.1953125 C-34.92020477 108.41314392 -34.24665955 108.63097534 -33.55270386 108.85540771 C-21.64030769 112.68797369 -9.74782232 115.3886932 2.65625 117.1328125 C2.65625 117.4628125 2.65625 117.7928125 2.65625 118.1328125 C-6.15582487 118.6466916 -14.42671654 117.27360602 -23.02392578 115.57714844 C-25.32251296 115.13688021 -27.62506193 114.74372281 -29.93359375 114.359375 C-53.82250957 110.21754418 -79.90077904 102.61793092 -98.34375 86.1328125 C-99.23900391 85.42705078 -99.23900391 85.42705078 -100.15234375 84.70703125 C-107.03218731 78.77718836 -112.01254199 69.07080702 -113.98828125 60.2578125 C-114.36109239 51.64173277 -110.52749761 42.84119176 -105.34375 36.1328125 C-104.80234375 35.359375 -104.80234375 35.359375 -104.25 34.5703125 C-90.77170877 16.81841673 -63.16260246 6.93311025 -41.96875 3.7578125 C-40.0939621 3.54757903 -38.21898353 3.3390332 -36.34375 3.1328125 C-34.67345283 2.79618338 -33.00649616 2.44245093 -31.34375 2.0703125 C-21.05407973 -0.04515976 -10.4639038 -0.01854517 0 0 Z " fill="#1177B1" transform="translate(134.34375,14.8671875)"/>
<path d="M0 0 C4.599375 -0.061875 9.19875 -0.12375 13.9375 -0.1875 C15.36956787 -0.21481201 16.80163574 -0.24212402 18.27709961 -0.27026367 C26.887499 -0.32611686 34.31461404 -0.22471272 41 5.625 C41.66 6.40875 42.32 7.1925 43 8 C43.495 8.495 43.495 8.495 44 9 C44.35885595 14.38283923 44.38768835 17.56994601 41 22 C40.34 22.66 39.68 23.32 39 24 C47.25 24 55.5 24 64 24 C64.33 22.68 64.66 21.36 65 20 C64.21625 19.79375 63.4325 19.5875 62.625 19.375 C57.01324896 17.24640478 51.27425943 14.27425943 47 10 C46.5 7.125 46.5 7.125 47 4 C52.00051723 -0.48503119 56.25216541 -0.54228421 62.7734375 -0.390625 C64.1590538 -0.38213531 64.1590538 -0.38213531 65.57266235 -0.37347412 C68.50731418 -0.35118052 71.44072061 -0.30099748 74.375 -0.25 C76.37107605 -0.22992592 78.36717134 -0.21167674 80.36328125 -0.1953125 C85.24266338 -0.15133872 90.12112093 -0.08235999 95 0 C95 2.31 95 4.62 95 7 C95.61407715 6.92144775 96.2281543 6.84289551 96.86083984 6.76196289 C114.0292125 4.85167917 114.0292125 4.85167917 118.99121094 8.43994141 C122.56891665 12.46566612 124.75324688 17.146577 127 22 C127.99 22.99 127.99 22.99 129 24 C132.96 18.72 136.92 13.44 141 8 C142.98 8.495 142.98 8.495 145 9 C143.79247036 10.66724905 142.58392683 12.33376378 141.375 14 C140.70210937 14.928125 140.02921875 15.85625 139.3359375 16.8125 C138.56507813 17.864375 137.79421875 18.91625 137 20 C136.41705925 21.00490227 136.41705925 21.00490227 135.82234192 22.03010559 C132.35835838 27.56403392 132.35835838 27.56403392 128.74658203 28.72323608 C126.02455615 28.97535761 123.40794646 28.97899041 120.67578125 28.88671875 C119.69256393 28.88251419 118.70934662 28.87830963 117.69633484 28.87397766 C115.62601667 28.85756198 113.55577229 28.82194945 111.48608398 28.76831055 C108.3120347 28.68748815 105.14178191 28.66584049 101.96679688 28.65429688 C99.95308229 28.63104858 97.93940279 28.60447101 95.92578125 28.57421875 C94.97576736 28.56460617 94.02575348 28.55499359 93.04695129 28.54508972 C92.1656102 28.51949478 91.2842691 28.49389984 90.3762207 28.4675293 C89.6015596 28.45006149 88.8268985 28.43259369 88.02876282 28.41459656 C85.48365226 27.89447953 84.57080672 27.03724262 83 25 C82.65942383 22.63989258 82.65942383 22.63989258 82.70703125 19.89453125 C82.71827026 18.56578979 82.71827026 18.56578979 82.72973633 17.21020508 C82.75704834 16.0889624 82.78436035 14.96771973 82.8125 13.8125 C82.874375 10.244375 82.93625 6.67625 83 3 C75.74 3.33 68.48 3.66 61 4 C60.34 5.32 59.68 6.64 59 8 C59.78375 8.20625 60.5675 8.4125 61.375 8.625 C67.30165491 10.87304152 73.83775467 14.07379825 78 19 C78.5625 21.4375 78.5625 21.4375 78 24 C73.53372705 27.69106218 70.44179619 28.49432839 64.70947266 28.45410156 C64.00633942 28.45468567 63.30320618 28.45526978 62.57876587 28.45587158 C60.27334825 28.45310277 57.96925193 28.4220709 55.6640625 28.390625 C54.05838731 28.38315826 52.45270297 28.37746737 50.84701538 28.37347412 C46.63493385 28.35825172 42.42341006 28.3189999 38.21154785 28.2746582 C33.90803572 28.23363175 29.60443286 28.21544742 25.30078125 28.1953125 C16.86690388 28.15250156 8.43358573 28.08218021 0 28 C0 18.76 0 9.52 0 0 Z " fill="#1476B0" transform="translate(85,56)"/>
<path d="M0 0 C3.96567985 -0.06939297 7.92978564 -0.12896219 11.89575195 -0.16479492 C13.89744576 -0.18705458 15.89894275 -0.22520146 17.90039062 -0.26367188 C26.62786853 -0.32962259 34.21274432 -0.31384872 41 5.625 C41.66 6.40875 42.32 7.1925 43 8 C43.495 8.495 43.495 8.495 44 9 C44.35885595 14.38283923 44.38768835 17.56994601 41 22 C40.34 22.66 39.68 23.32 39 24 C40.08885498 24.03758423 40.08885498 24.03758423 41.19970703 24.07592773 C44.50829446 24.19241241 47.81663376 24.31490014 51.125 24.4375 C52.26710937 24.47681641 53.40921875 24.51613281 54.5859375 24.55664062 C55.69453125 24.59853516 56.803125 24.64042969 57.9453125 24.68359375 C59.46922607 24.73858032 59.46922607 24.73858032 61.02392578 24.79467773 C64.06733757 25.00464568 67.00085508 25.45061296 70 26 C70 26.33 70 26.66 70 27 C46.9 27 23.8 27 0 27 C0 18.09 0 9.18 0 0 Z " fill="#0B73AF" transform="translate(85,56)"/>
<path d="M0 0 C0.33 0 0.66 0 1 0 C1 2.31 1 4.62 1 7 C1.61407715 6.92144775 2.2281543 6.84289551 2.86083984 6.76196289 C19.97913557 4.85725111 19.97913557 4.85725111 25.00732422 8.42382812 C29.32746452 13.17867533 31.98206708 18.94620123 34 25 C31.57609961 27.42390039 25.78077885 26.17322421 22.39453125 26.18554688 C21.34386475 26.18542603 21.34386475 26.18542603 20.27197266 26.18530273 C18.14074585 26.18748389 16.010041 26.20562102 13.87890625 26.22460938 C12.52604344 26.22754433 11.17317817 26.22952844 9.8203125 26.23046875 C8.58555176 26.23457764 7.35079102 26.23868652 6.07861328 26.24291992 C3 26 3 26 0 24 C-0.29296875 20.7421875 -0.29296875 20.7421875 -0.1875 16.875 C-0.16042969 15.59367187 -0.13335937 14.31234375 -0.10546875 12.9921875 C-0.07066406 12.00476563 -0.03585938 11.01734375 0 10 C5.94 9.505 5.94 9.505 12 9 C8.04 8.67 4.08 8.34 0 8 C0 5.36 0 2.72 0 0 Z " fill="#2A83B7" transform="translate(179,56)"/>
<path d="M0 0 C-0.57584432 2.38564077 -1.22227595 4.66682784 -2 7 C-1.21625 7.20625 -0.4325 7.4125 0.375 7.625 C6.30165491 9.87304152 12.83775467 13.07379825 17 18 C17.5625 20.4375 17.5625 20.4375 17 23 C12.53372705 26.69106218 9.44179619 27.49432839 3.70947266 27.45410156 C3.00633942 27.45468567 2.30320618 27.45526978 1.57876587 27.45587158 C-0.72665175 27.45310277 -3.03074807 27.4220709 -5.3359375 27.390625 C-6.94161269 27.38315826 -8.54729703 27.37746737 -10.15298462 27.37347412 C-14.36506615 27.35825172 -18.57658994 27.3189999 -22.78845215 27.2746582 C-27.09196428 27.23363175 -31.39556714 27.21544742 -35.69921875 27.1953125 C-44.13306754 27.1525017 -52.56646425 27.08429235 -61 27 C-61 26.67 -61 26.34 -61 26 C-39.88 25.67 -18.76 25.34 3 25 C3.33 23.02 3.66 21.04 4 19 C3.21625 18.79375 2.4325 18.5875 1.625 18.375 C-3.98675104 16.24640478 -9.72574057 13.27425943 -14 9 C-14.5 6.125 -14.5 6.125 -14 3 C-9.28371341 -1.59837942 -6.02875403 -1.24732842 0 0 Z " fill="#1D7BB3" transform="translate(146,57)"/>
<path d="M0 0 C14.39744613 -0.65442937 14.39744613 -0.65442937 20 4 C22.08953023 7.48024406 22.63730936 9.93715283 22 14 C19.55253962 17.76769926 17.3120135 20.56266217 13 22 C8.66328697 22.13501597 4.33988266 22.04296914 0 22 C0 14.74 0 7.48 0 0 Z " fill="#F0F3F5" transform="translate(96,59)"/>
<path d="M0 0 C7.63588964 -1.05322616 7.63588964 -1.05322616 12 0 C15.82188781 3.55003805 18.48244398 7.40991049 21 12 C21 12.66 21 13.32 21 14 C14.07 14 7.14 14 0 14 C0 9.38 0 4.76 0 0 Z " fill="#F1F4F6" transform="translate(180,67)"/>
<path d="M0 0 C4.3017912 0.3072708 8.0154769 0.92104152 12.05859375 2.41015625 C17.46379887 4.2586896 22.94148528 5.23144389 28.5625 6.1875 C29.57119141 6.36474609 30.57988281 6.54199219 31.61914062 6.72460938 C34.07843079 7.15585931 36.53862257 7.58085819 39 8 C39 8.33 39 8.66 39 9 C30.17146792 9.5148388 21.86723081 8.11450554 13.24902344 6.43652344 C10.95185919 5.99065613 8.65233044 5.55966932 6.3515625 5.1328125 C2.56609462 4.43021451 -1.21739196 3.71783006 -5 3 C-4.360625 2.690625 -3.72125 2.38125 -3.0625 2.0625 C-1.06389179 1.1654837 -1.06389179 1.1654837 0 0 Z " fill="#2C82B6" transform="translate(98,124)"/>
<path d="M0 0 C0.66 0 1.32 0 2 0 C3.05404945 3.98196457 2.84098656 6.98195309 2 11 C-4.15234375 11.09765625 -4.15234375 11.09765625 -6 11 C-7 10 -7 10 -7.1875 7.5625 C-7 5 -7 5 -5 3 C-3.68 3 -2.36 3 -1 3 C-0.67 2.01 -0.34 1.02 0 0 Z " fill="#9BC1D6" transform="translate(181,88)"/>
<path d="M0 0 C1.81242052 -0.02687279 3.62495233 -0.04633715 5.4375 -0.0625 C6.44683594 -0.07410156 7.45617187 -0.08570312 8.49609375 -0.09765625 C11 0 11 0 12 1 C12.04092937 3.33297433 12.04241723 5.66705225 12 8 C11.34 8 10.68 8 10 8 C10 6.02 10 4.04 10 2 C9.01 2 8.02 2 7 2 C7 3.98 7 5.96 7 8 C6.34 8 5.68 8 5 8 C5 6.02 5 4.04 5 2 C4.01 2 3.02 2 2 2 C2 3.98 2 5.96 2 8 C1.34 8 0.68 8 0 8 C0 5.36 0 2.72 0 0 Z " fill="#2C7DB1" transform="translate(194,91)"/>
<path d="M0 0 C2.625 0.375 2.625 0.375 5 1 C5.625 3.375 5.625 3.375 6 6 C5.34 6.66 4.68 7.32 4 8 C1.375 7.625 1.375 7.625 -1 7 C-1.625 4.625 -1.625 4.625 -2 2 C-1.34 1.34 -0.68 0.68 0 0 Z " fill="#68A1C5" transform="translate(210,91)"/>
<path d="M0 0 C2.625 0.375 2.625 0.375 5 1 C5.625 3.375 5.625 3.375 6 6 C5.34 6.66 4.68 7.32 4 8 C1.375 7.625 1.375 7.625 -1 7 C-1.625 4.625 -1.625 4.625 -2 2 C-1.34 1.34 -0.68 0.68 0 0 Z " fill="#669CBE" transform="translate(140,91)"/>
<path d="M0 0 C1.0828125 0.18304688 2.165625 0.36609375 3.28125 0.5546875 C4.3434375 0.74289063 5.405625 0.93109375 6.5 1.125 C8.49975152 1.45982078 10.49967527 1.7936209 12.5 2.125 C12.5 2.455 12.5 2.785 12.5 3.125 C3.98627215 3.43774919 -4.1030674 2.49792913 -12.5 1.125 C-12.5 0.795 -12.5 0.465 -12.5 0.125 C-8.02415936 -0.83218279 -4.49972478 -0.78209502 0 0 Z " fill="#72A3C5" transform="translate(124.5,129.875)"/>
<path d="M0 0 C1.67542976 0.28604898 3.34385343 0.61781233 5 1 C5.33 2.32 5.66 3.64 6 5 C4.35 5 2.7 5 1 5 C1 5.66 1 6.32 1 7 C2.32 7.33 3.64 7.66 5 8 C3.33388095 8.042721 1.66617115 8.04063832 0 8 C-1 7 -1 7 -1.125 4 C-1 1 -1 1 0 0 Z " fill="#5191BB" transform="translate(225,91)"/>
<path d="M0 0 C0.66 0.66 1.32 1.32 2 2 C-1 4 -1 4 -3 5 C-3.99 4.67 -4.98 4.34 -6 4 C-8.05893621 3.77674186 -10.12233653 3.59294241 -12.1875 3.4375 C-13.81751953 3.31181641 -13.81751953 3.31181641 -15.48046875 3.18359375 C-16.31191406 3.12300781 -17.14335938 3.06242187 -18 3 C-18 2.67 -18 2.34 -18 2 C-16.95199219 1.90912109 -16.95199219 1.90912109 -15.8828125 1.81640625 C-14.97273438 1.73261719 -14.06265625 1.64882813 -13.125 1.5625 C-12.22007813 1.48128906 -11.31515625 1.40007813 -10.3828125 1.31640625 C-0.31899265 -0.01993704 -0.31899265 -0.01993704 0 0 Z " fill="#2A7DB1" transform="translate(114,56)"/>
<path d="M0 0 C1.60568666 0.28317926 3.20952047 0.57687791 4.8125 0.875 C6.15248047 1.11863281 6.15248047 1.11863281 7.51953125 1.3671875 C10 2 10 2 13 4 C11.5629191 4.05422947 10.12524538 4.09289723 8.6875 4.125 C7.88699219 4.14820313 7.08648437 4.17140625 6.26171875 4.1953125 C4 4 4 4 1 2 C0.67 1.34 0.34 0.68 0 0 Z " fill="#1574AE" transform="translate(105,126)"/>
<path d="M0 0 C1.32 0.33 2.64 0.66 4 1 C2.68 2.65 1.36 4.3 0 6 C-0.99 5.67 -1.98 5.34 -3 5 C-2.01 3.35 -1.02 1.7 0 0 Z " fill="#1375AF" transform="translate(226,64)"/>
<path d="M0 0 C1.65 0 3.3 0 5 0 C5 0.66 5 1.32 5 2 C4.01 2 3.02 2 2 2 C2 3.98 2 5.96 2 8 C1.34 8 0.68 8 0 8 C0 5.36 0 2.72 0 0 Z " fill="#3E87B5" transform="translate(218,91)"/>
<path d="M0 0 C0.99 0.33 1.98 0.66 3 1 C2.67 2.65 2.34 4.3 2 6 C1.01 6 0.02 6 -1 6 C-1.042721 4.33388095 -1.04063832 2.66617115 -1 1 C-0.67 0.67 -0.34 0.34 0 0 Z " fill="#F0F5F8" transform="translate(141,92)"/>
</svg>
