<?xml version="1.0" encoding="UTF-8"?>
<svg version="1.1" xmlns="http://www.w3.org/2000/svg" width="144" height="137">
<path d="M0 0 C47.52 0 95.04 0 144 0 C144 45.21 144 90.42 144 137 C96.48 137 48.96 137 0 137 C0 91.79 0 46.58 0 0 Z " fill="#F7F5F9" transform="translate(0,0)"/>
<path d="M0 0 C47.52 0 95.04 0 144 0 C144 42 144 42 141 47 C140.01 47.33 139.02 47.66 138 48 C137.34 48.99 136.68 49.98 136 51 C135.16151196 49.54462432 134.32936066 48.08559627 133.5 46.625 C133.0359375 45.81289063 132.571875 45.00078125 132.09375 44.1640625 C131 42 131 42 131 40 C130.34 40 129.68 40 129 40 C128.2575 39.21625 127.515 38.4325 126.75 37.625 C122.03880686 33.12795201 117.18635271 32.74836802 110.8515625 32.5859375 C110.19417084 32.56657135 109.53677917 32.5472052 108.85946655 32.5272522 C106.78143865 32.46797539 104.70335376 32.42128206 102.625 32.375 C101.2070085 32.33677222 99.78903903 32.29771777 98.37109375 32.2578125 C94.91418405 32.16077644 91.45747888 32.08080209 88 32 C88 36.29 88 40.58 88 45 C89.81886719 44.95359375 91.63773437 44.9071875 93.51171875 44.859375 C95.90362941 44.82185483 98.29555783 44.78545494 100.6875 44.75 C101.88568359 44.71648438 103.08386719 44.68296875 104.31835938 44.6484375 C105.47529297 44.63554688 106.63222656 44.62265625 107.82421875 44.609375 C109.41882935 44.5779541 109.41882935 44.5779541 111.0456543 44.54589844 C114.72090694 45.11080794 116.35271234 46.44506303 119 49 C120.96266524 52.92533048 120.34140779 57.71067672 120 62 C118.31651863 66.25300557 116.17826153 68.18336455 112 70 C107.545 70.495 107.545 70.495 103 71 C103 64.4 103 57.8 103 51 C98.05 51 93.1 51 88 51 C88 61.56 88 72.12 88 83 C87.01 83 86.02 83 85 83 C85 78.71 85 74.42 85 70 C78.07 70 71.14 70 64 70 C64 68.02 64 66.04 64 64 C70.93 64 77.86 64 85 64 C85 59.71 85 55.42 85 51 C76.75 51 68.5 51 60 51 C62 47 62 47 64 45 C66.15478516 44.77294922 66.15478516 44.77294922 68.7890625 44.8046875 C69.73007813 44.81113281 70.67109375 44.81757812 71.640625 44.82421875 C73.11789063 44.84935547 73.11789063 44.84935547 74.625 44.875 C75.61757812 44.88402344 76.61015625 44.89304688 77.6328125 44.90234375 C80.08864388 44.92595751 82.54435174 44.9618293 85 45 C85 40.71 85 36.42 85 32 C82.03 32 79.06 32 76 32 C76.33 31.195625 76.66 30.39125 77 29.5625 C78.06059041 27.30318875 78.06059041 27.30318875 78 26 C77.62738037 26.42877441 77.25476074 26.85754883 76.87084961 27.29931641 C73.26176431 30.9546925 70.69686636 32.42079977 65.50390625 32.5859375 C63.52258334 32.54644269 61.54166959 32.47543932 59.5625 32.375 C58.03592773 32.33439453 58.03592773 32.33439453 56.47851562 32.29296875 C53.98344487 32.22268507 51.49286153 32.12437201 49 32 C48.56880859 33.15822266 48.56880859 33.15822266 48.12890625 34.33984375 C46.98236259 37.04156081 45.53521075 38.87813888 43.6171875 41.07421875 C39.8647438 45.54270847 36.48234958 50.32021092 33 55 C31.81327515 56.5839144 30.62590096 58.16734279 29.4375 59.75 C28.96183594 60.38421875 28.48617188 61.0184375 27.99609375 61.671875 C27.66738281 62.11015625 27.33867187 62.5484375 27 63 C24.525 60.525 24.525 60.525 22 58 C23.47079084 54.75539105 25.31424176 52.19445505 27.5625 49.4375 C28.61630859 48.14005859 28.61630859 48.14005859 29.69140625 46.81640625 C30.45324219 45.88699219 31.21507813 44.95757812 32 44 C32.83402344 42.97777344 33.66804688 41.95554688 34.52734375 40.90234375 C36.68127073 38.26522936 38.83895022 35.63127821 41 33 C31.18497141 31.63429055 31.18497141 31.63429055 22.3671875 34.98046875 C20.37394899 37.56386219 18.682008 40.20615621 17 43 C15.88267052 44.33684895 14.73956166 45.65293154 13.5625 46.9375 C10.12528977 51.0453854 9.82900183 53.98611856 9.4375 59.1875 C9.35371094 60.27417969 9.26992187 61.36085937 9.18359375 62.48046875 C9.12300781 63.31191406 9.06242188 64.14335938 9 65 C8.67 65 8.34 65 8 65 C8 60.38 8 55.76 8 51 C7.34 51 6.68 51 6 51 C6 55.29 6 59.58 6 64 C4.02 64 2.04 64 0 64 C0 42.88 0 21.76 0 0 Z " fill="#F8F6F9" transform="translate(0,0)"/>
<path d="M0 0 C4.62 0 9.24 0 14 0 C14 0.99 14 1.98 14 3 C15.17357056 2.99214478 15.17357056 2.99214478 16.37084961 2.98413086 C19.89305833 2.96342894 23.4152543 2.95036162 26.9375 2.9375 C28.78504883 2.92493164 28.78504883 2.92493164 30.66992188 2.91210938 C32.4246582 2.90727539 32.4246582 2.90727539 34.21484375 2.90234375 C35.84087524 2.89448853 35.84087524 2.89448853 37.49975586 2.88647461 C40 3 40 3 41 4 C41.33 3.34 41.66 2.68 42 2 C80.85203459 1.58722095 80.85203459 1.58722095 98 4 C98 4.66 98 5.32 98 6 C97.01 6 96.02 6 95 6 C95 8.31 95 10.62 95 13 C94.071875 13.144375 93.14375 13.28875 92.1875 13.4375 C88.99274889 13.92100111 88.99274889 13.92100111 86 15 C86 15.99 86 16.98 86 18 C105.14 18.33 124.28 18.66 144 19 C144 24.94 144 30.88 144 37 C96.48 37 48.96 37 0 37 C0 24.79 0 12.58 0 0 Z " fill="#F0EAF3" transform="translate(0,100)"/>
<path d="M0 0 C0 3.57575896 -1.08840607 5.05295935 -3 8 C-0.03 8 2.94 8 6 8 C6 12.29 6 16.58 6 21 C3.79570312 21.02126953 3.79570312 21.02126953 1.546875 21.04296875 C-0.38544806 21.0898698 -2.31773877 21.13811718 -4.25 21.1875 C-5.70212891 21.19620117 -5.70212891 21.19620117 -7.18359375 21.20507812 C-8.11816406 21.23408203 -9.05273438 21.26308594 -10.015625 21.29296875 C-10.87446289 21.3086792 -11.73330078 21.32438965 -12.61816406 21.34057617 C-15.7711831 21.96310103 -15.7711831 21.96310103 -19 27 C-10.75 27 -2.5 27 6 27 C6 31.29 6 35.58 6 40 C-0.93 40 -7.86 40 -15 40 C-15 41.98 -15 43.96 -15 46 C-8.07 46 -1.14 46 6 46 C6 50.29 6 54.58 6 59 C-5.88 59 -17.76 59 -30 59 C-30 52.73 -30 46.46 -30 40 C-30.66 40 -31.32 40 -32 40 C-32.226875 40.53625 -32.45375 41.0725 -32.6875 41.625 C-34.44384951 44.80315626 -36.58979175 47.28079069 -39 50 C-39.33 50 -39.66 50 -40 50 C-39.67 45.38 -39.34 40.76 -39 36 C-41.31 37.98 -43.62 39.96 -46 42 C-45.00523938 45.9790425 -44.69367575 46.42344058 -42 49 C-42 49.66 -42 50.32 -42 51 C-41.4225 51.2475 -40.845 51.495 -40.25 51.75 C-37.67060021 53.18299988 -35.93878408 54.78424676 -34 57 C-34 57.66 -34 58.32 -34 59 C-37.27066566 59.08706892 -40.54103365 59.14041241 -43.8125 59.1875 C-45.2056543 59.22520508 -45.2056543 59.22520508 -46.62695312 59.26367188 C-47.51962891 59.27333984 -48.41230469 59.28300781 -49.33203125 59.29296875 C-50.15421143 59.3086792 -50.9763916 59.32438965 -51.82348633 59.34057617 C-54.50456255 58.92104714 -55.3869427 58.14498486 -57 56 C-57 55.34 -57 54.68 -57 54 C-59.75072177 55.52817876 -61.95315792 56.95315792 -64.1875 59.1875 C-64.785625 59.785625 -65.38375 60.38375 -66 61 C-66.66 61 -67.32 61 -68 61 C-67.690625 60.401875 -67.38125 59.80375 -67.0625 59.1875 C-65.89790296 56.91043228 -65.89790296 56.91043228 -65 54 C-64.01 53.505 -64.01 53.505 -63 53 C-63.05111395 50.7144047 -63.05111395 50.7144047 -64 48 C-65.010625 47.175 -66.02125 46.35 -67.0625 45.5 C-69.46701637 43.28622651 -69.96898448 42.19215085 -70.5 38.90234375 C-70.67711057 29.08377671 -67.64811879 24.52414857 -61.4375 17.375 C-57.52213699 12.84260477 -57.52213699 12.84260477 -54 8 C-51.04935852 7.7791436 -48.31631769 7.71939011 -45.375 7.8125 C-44.57320312 7.82603516 -43.77140625 7.83957031 -42.9453125 7.85351562 C-40.96325622 7.88890949 -38.98154449 7.94271766 -37 8 C-41.11766098 13.60491941 -45.42578947 19.02143952 -49.8515625 24.38671875 C-51.92358759 26.90705473 -53.96742921 29.44779007 -56 32 C-54.84826645 34.46800047 -53.95216435 36.04783565 -52 38 C-51.28714844 37.02160156 -50.57429688 36.04320312 -49.83984375 35.03515625 C-40.4469549 22.1702326 -40.4469549 22.1702326 -35.53515625 16.02734375 C-33.82281373 13.91032869 -33.82281373 13.91032869 -32.48046875 10.78125 C-30 8 -30 8 -27.74829102 7.53930664 C-23.92968229 7.39929913 -20.14477338 7.52721148 -16.328125 7.67773438 C-10.7110642 7.70444594 -7.6113186 7.2423577 -3.296875 3.46484375 C-2.17275776 2.33436839 -1.06395836 1.1872686 0 0 Z " fill="#EFC527" transform="translate(79,24)"/>
<path d="M0 0 C47.52 0 95.04 0 144 0 C144 4.62 144 9.24 144 14 C96.48 14 48.96 14 0 14 C0 9.38 0 4.76 0 0 Z " fill="#F8F7F8" transform="translate(0,0)"/>
<path d="M0 0 C21.78 0 43.56 0 66 0 C66 23 66 23 63 28 C61.515 28.495 61.515 28.495 60 29 C59.01 30.485 59.01 30.485 58 32 C57.16151196 30.54462432 56.32936066 29.08559627 55.5 27.625 C54.80390625 26.40683594 54.80390625 26.40683594 54.09375 25.1640625 C53 23 53 23 53 21 C52.34 21 51.68 21 51 21 C50.2575 20.21625 49.515 19.4325 48.75 18.625 C44.03880686 14.12795201 39.18635271 13.74836802 32.8515625 13.5859375 C32.19417084 13.56657135 31.53677917 13.5472052 30.85946655 13.5272522 C28.78143865 13.46797539 26.70335376 13.42128206 24.625 13.375 C23.2070085 13.33677222 21.78903903 13.29771777 20.37109375 13.2578125 C16.91418405 13.16077644 13.45747888 13.08080209 10 13 C10 17.29 10 21.58 10 26 C11.81886719 25.95359375 13.63773438 25.9071875 15.51171875 25.859375 C17.90362941 25.82185483 20.29555783 25.78545494 22.6875 25.75 C23.88568359 25.71648438 25.08386719 25.68296875 26.31835938 25.6484375 C28.05375977 25.62910156 28.05375977 25.62910156 29.82421875 25.609375 C30.88729248 25.58842773 31.95036621 25.56748047 33.0456543 25.54589844 C36.72090694 26.11080794 38.35271234 27.44506303 41 30 C42.96266524 33.92533048 42.34140779 38.71067672 42 43 C40.31651863 47.25300557 38.17826153 49.18336455 34 51 C29.545 51.495 29.545 51.495 25 52 C25 45.4 25 38.8 25 32 C20.05 32 15.1 32 10 32 C10 42.56 10 53.12 10 64 C9.01 64 8.02 64 7 64 C7 59.71 7 55.42 7 51 C0.07 51 -6.86 51 -14 51 C-14 49.02 -14 47.04 -14 45 C-7.07 45 -0.14 45 7 45 C7 40.71 7 36.42 7 32 C-1.25 32 -9.5 32 -18 32 C-16 28 -16 28 -14 26 C-11.84521484 25.77294922 -11.84521484 25.77294922 -9.2109375 25.8046875 C-8.26992187 25.81113281 -7.32890625 25.81757812 -6.359375 25.82421875 C-5.37453125 25.84097656 -4.3896875 25.85773437 -3.375 25.875 C-2.38242188 25.88402344 -1.38984375 25.89304687 -0.3671875 25.90234375 C2.08864388 25.92595751 4.54435174 25.9618293 7 26 C7 21.71 7 17.42 7 13 C4.03 13 1.06 13 -2 13 C-1.67 12.195625 -1.34 11.39125 -1 10.5625 C0.2714609 7.38007961 0.2714609 7.38007961 -1 4 C-0.01 4 0.98 4 2 4 C2 3.34 2 2.68 2 2 C1.34 2 0.68 2 0 2 C0 1.34 0 0.68 0 0 Z " fill="#FBFAFA" transform="translate(78,19)"/>
<path d="M0 0 C47.52 0 95.04 0 144 0 C144 7.92 144 15.84 144 24 C124.53 24 105.06 24 85 24 C85.33 22.35 85.66 20.7 86 19 C91.625 16.875 91.625 16.875 95 18 C95 15.69 95 13.38 95 11 C95.99 11 96.98 11 98 11 C98 10.34 98 9.68 98 9 C97.22736816 8.97494385 96.45473633 8.9498877 95.65869141 8.92407227 C77.76997953 8.34169208 59.88416672 7.71070481 42 7 C41.67 7.99 41.34 8.98 41 10 C40.505 9.505 40.505 9.505 40 9 C38.07521187 8.84193469 36.1450079 8.748865 34.21484375 8.68359375 C33.04501953 8.64169922 31.87519531 8.59980469 30.66992188 8.55664062 C28.82237305 8.49766602 28.82237305 8.49766602 26.9375 8.4375 C25.70193359 8.39431641 24.46636719 8.35113281 23.19335938 8.30664062 C20.12902665 8.20015802 17.06460927 8.09814576 14 8 C14 7.01 14 6.02 14 5 C9.38 5 4.76 5 0 5 C0 3.35 0 1.7 0 0 Z " fill="#E0D1E8" transform="translate(0,95)"/>
<path d="M0 0 C47.52 0 95.04 0 144 0 C144 4.29 144 8.58 144 13 C96.48 13 48.96 13 0 13 C0 8.71 0 4.42 0 0 Z " fill="#FAF9FC" transform="translate(0,124)"/>
<path d="M0 0 C4.14492657 -0.06921028 8.28781539 -0.12883443 12.43286133 -0.16479492 C13.84015734 -0.17979877 15.24740724 -0.20020863 16.65454102 -0.22631836 C18.68777907 -0.26307665 20.72039432 -0.27980984 22.75390625 -0.29296875 C23.97408447 -0.3086792 25.1942627 -0.32438965 26.45141602 -0.34057617 C31.95220274 0.18736311 36.87533625 2.20530935 41 6 C41 6.66 41 7.32 41 8 C41.66 8 42.32 8 43 8 C48.31395334 16.06582204 49.11815525 23.47970673 48 33 C46.5340638 38.80911363 42.91097147 42.48139959 38.5859375 46.45703125 C30.34751594 51.37270575 21.72225017 51.38909803 12.375 51.1875 C8.29125 51.125625 4.2075 51.06375 0 51 C0 40.44 0 29.88 0 19 C4.95 19 9.9 19 15 19 C15 25.6 15 32.2 15 39 C16.753125 38.525625 18.50625 38.05125 20.3125 37.5625 C21.29863281 37.29566406 22.28476563 37.02882812 23.30078125 36.75390625 C25.21517526 36.21920575 27.11433615 35.62855462 29 35 C30.82251591 31.51451503 31.34425133 28.4054738 31.4375 24.5 C31.47746094 23.5821875 31.51742187 22.664375 31.55859375 21.71875 C30.70252175 17.55213386 29.56475433 16.38071655 26 14 C21.56581411 13.24519644 17.17790768 13.20923947 12.6875 13.1875 C10.8612207 13.14979492 10.8612207 13.14979492 8.99804688 13.11132812 C5.99904481 13.05252416 2.99948737 13.02338367 0 13 C0 8.71 0 4.42 0 0 Z " fill="#2E206D" transform="translate(88,32)"/>
<path d="M0 0 C0 3.57575896 -1.08840607 5.05295935 -3 8 C-0.03 8 2.94 8 6 8 C6 12.29 6 16.58 6 21 C3.79570313 21.02126953 3.79570313 21.02126953 1.546875 21.04296875 C-0.38544806 21.0898698 -2.31773877 21.13811718 -4.25 21.1875 C-5.70212891 21.19620117 -5.70212891 21.19620117 -7.18359375 21.20507812 C-8.11816406 21.23408203 -9.05273438 21.26308594 -10.015625 21.29296875 C-10.87446289 21.3086792 -11.73330078 21.32438965 -12.61816406 21.34057617 C-15.7711831 21.96310103 -15.7711831 21.96310103 -19 27 C-10.75 27 -2.5 27 6 27 C6 31.29 6 35.58 6 40 C-0.93 40 -7.86 40 -15 40 C-15 41.98 -15 43.96 -15 46 C-8.07 46 -1.14 46 6 46 C6 50.29 6 54.58 6 59 C-5.88 59 -17.76 59 -30 59 C-30.061875 55.9475 -30.12375 52.895 -30.1875 49.75 C-30.21481201 48.79448242 -30.24212402 47.83896484 -30.27026367 46.85449219 C-30.33202983 40.57692477 -30.33202983 40.57692477 -28.5859375 37.54296875 C-28.06257813 37.03378906 -27.53921875 36.52460937 -27 36 C-25.45586433 33.59114835 -24.13850298 31.39353491 -23.1875 28.69140625 C-21.75038299 25.43425618 -19.8481694 23.09978815 -17.5625 20.375 C-16.78003906 19.43398438 -15.99757813 18.49296875 -15.19140625 17.5234375 C-11.6078125 13.396875 -11.6078125 13.396875 -10 12 C-9.34 12 -8.68 12 -8 12 C-8 11.34 -8 10.68 -8 10 C-8.845625 10.639375 -9.69125 11.27875 -10.5625 11.9375 C-13.90728565 14.1966273 -16.97396992 14.67791759 -21 15 C-21.33 16.32 -21.66 17.64 -22 19 C-24.31 19.66 -26.62 20.32 -29 21 C-29.14285714 12.42857143 -29.14285714 12.42857143 -28 9 C-28.66 8.67 -29.32 8.34 -30 8 C-29.06317383 8.00954712 -29.06317383 8.00954712 -28.10742188 8.01928711 C-25.23710761 8.02805102 -22.36994449 7.98314161 -19.5 7.9375 C-18.51773438 7.94845703 -17.53546875 7.95941406 -16.5234375 7.97070312 C-9.6687519 7.81076046 -6.20355045 6.37513345 -1.34570312 1.49829102 C-0.90162109 1.00385498 -0.45753906 0.50941895 0 0 Z " fill="#2A1C6B" transform="translate(79,24)"/>
<path d="M0 0 C0.99 0 1.98 0 3 0 C3 4.29 3 8.58 3 13 C4.81886719 12.95359375 6.63773438 12.9071875 8.51171875 12.859375 C10.90362941 12.82185483 13.29555783 12.78545494 15.6875 12.75 C16.88568359 12.71648438 18.08386719 12.68296875 19.31835938 12.6484375 C21.05375977 12.62910156 21.05375977 12.62910156 22.82421875 12.609375 C23.88729248 12.58842773 24.95036621 12.56748047 26.0456543 12.54589844 C29.72090694 13.11080794 31.35271234 14.44506303 34 17 C35.96266524 20.92533048 35.34140779 25.71067672 35 30 C33.31651863 34.25300557 31.17826153 36.18336455 27 38 C22.545 38.495 22.545 38.495 18 39 C18 32.4 18 25.8 18 19 C13.05 19 8.1 19 3 19 C3 29.56 3 40.12 3 51 C2.01 51 1.02 51 0 51 C0 46.71 0 42.42 0 38 C-6.93 38 -13.86 38 -21 38 C-21 36.02 -21 34.04 -21 32 C-14.07 32 -7.14 32 0 32 C0 27.71 0 23.42 0 19 C-8.25 19 -16.5 19 -25 19 C-23 15 -23 15 -21 13 C-18.84521484 12.77294922 -18.84521484 12.77294922 -16.2109375 12.8046875 C-15.26992187 12.81113281 -14.32890625 12.81757812 -13.359375 12.82421875 C-12.37453125 12.84097656 -11.3896875 12.85773437 -10.375 12.875 C-9.38242188 12.88402344 -8.38984375 12.89304687 -7.3671875 12.90234375 C-4.91135612 12.92595751 -2.45564826 12.9618293 0 13 C0 8.71 0 4.42 0 0 Z " fill="#F7F5F9" transform="translate(85,32)"/>
<path d="M0 0 C2.95064148 -0.2208564 5.68368231 -0.28060989 8.625 -0.1875 C9.42679688 -0.17396484 10.22859375 -0.16042969 11.0546875 -0.14648438 C13.03674378 -0.11109051 15.01845551 -0.05728234 17 0 C12.88233902 5.60491941 8.57421053 11.02143952 4.1484375 16.38671875 C2.07641241 18.90705473 0.03257079 21.44779007 -2 24 C-1.71125 24.5775 -1.4225 25.155 -1.125 25.75 C-0.08333333 27.83333333 0.95833333 29.91666667 2 32 C-1 35 -4 38 -7 41 C-10.97487372 39.380607 -13.51309332 37.52311779 -16 34 C-16.92919526 27.29774901 -17.05934426 21.60451401 -13 16 C-11.19800088 13.74485006 -9.33048744 11.55404994 -7.4375 9.375 C-3.52213699 4.84260477 -3.52213699 4.84260477 0 0 Z " fill="#2C1E68" transform="translate(25,32)"/>
<path d="M0 0 C47.52 0 95.04 0 144 0 C144 1.32 144 2.64 144 4 C96.48 4 48.96 4 0 4 C0 2.68 0 1.36 0 0 Z " fill="#33236C" transform="translate(0,120)"/>
<path d="M0 0 C47.52 0 95.04 0 144 0 C144 1.32 144 2.64 144 4 C96.48 4 48.96 4 0 4 C0 2.68 0 1.36 0 0 Z " fill="#291B63" transform="translate(0,95)"/>
<path d="M0 0 C47.52 0 95.04 0 144 0 C144 1.32 144 2.64 144 4 C96.48 4 48.96 4 0 4 C0 2.68 0 1.36 0 0 Z " fill="#31266B" transform="translate(0,14)"/>
<path d="M0 0 C0 3.57575896 -1.08840607 5.05295935 -3 8 C-0.03 8 2.94 8 6 8 C6 12.29 6 16.58 6 21 C4.55367187 20.99097656 3.10734375 20.98195313 1.6171875 20.97265625 C-0.29690231 21.00080463 -2.21096485 21.03085259 -4.125 21.0625 C-5.55199219 21.04606445 -5.55199219 21.04606445 -7.0078125 21.02929688 C-12.38869704 21.08622287 -12.38869704 21.08622287 -16.94824219 23.62060547 C-18.56880229 25.51294845 -18.56880229 25.51294845 -19.87451172 27.50170898 C-20.24592285 27.99614502 -20.61733398 28.49058105 -21 29 C-21.66 29 -22.32 29 -23 29 C-21.46203092 25.56546802 -19.4264398 22.85610724 -17.0625 19.9375 C-16.37285156 19.08027344 -15.68320312 18.22304688 -14.97265625 17.33984375 C-11.76049374 13.52977376 -11.76049374 13.52977376 -10 12 C-9.34 12 -8.68 12 -8 12 C-8 11.34 -8 10.68 -8 10 C-8.845625 10.639375 -9.69125 11.27875 -10.5625 11.9375 C-13.90728565 14.1966273 -16.97396992 14.67791759 -21 15 C-21.33 16.32 -21.66 17.64 -22 19 C-24.31 19.66 -26.62 20.32 -29 21 C-29.14285714 12.42857143 -29.14285714 12.42857143 -28 9 C-28.66 8.67 -29.32 8.34 -30 8 C-29.06317383 8.00954712 -29.06317383 8.00954712 -28.10742188 8.01928711 C-25.23710761 8.02805102 -22.36994449 7.98314161 -19.5 7.9375 C-18.51773438 7.94845703 -17.53546875 7.95941406 -16.5234375 7.97070312 C-9.6687519 7.81076046 -6.20355045 6.37513345 -1.34570312 1.49829102 C-0.90162109 1.00385498 -0.45753906 0.50941895 0 0 Z " fill="#4C214F" transform="translate(79,24)"/>
<path d="M0 0 C4.62 0 9.24 0 14 0 C14 0.99 14 1.98 14 3 C22.58 3 31.16 3 40 3 C40 6.3 40 9.6 40 13 C36.37 13 32.74 13 29 13 C29 11.02 29 9.04 29 7 C28.34 7 27.68 7 27 7 C27 8.98 27 10.96 27 13 C18 13 9 13 0 13 C0 8.71 0 4.42 0 0 Z " fill="#FEEEE8" transform="translate(0,100)"/>
<path d="M0 0 C0.99 0 1.98 0 3 0 C3 5.94 3 11.88 3 18 C7.95 18 12.9 18 18 18 C18 18.33 18 18.66 18 19 C13.05 19 8.1 19 3 19 C3 29.56 3 40.12 3 51 C2.01 51 1.02 51 0 51 C0 46.71 0 42.42 0 38 C-6.93 38 -13.86 38 -21 38 C-21 36.02 -21 34.04 -21 32 C-14.07 32 -7.14 32 0 32 C0 27.71 0 23.42 0 19 C-8.25 19 -16.5 19 -25 19 C-23 15 -23 15 -21 13 C-18.84521484 12.77294922 -18.84521484 12.77294922 -16.2109375 12.8046875 C-15.26992187 12.81113281 -14.32890625 12.81757812 -13.359375 12.82421875 C-12.37453125 12.84097656 -11.3896875 12.85773437 -10.375 12.875 C-9.38242188 12.88402344 -8.38984375 12.89304687 -7.3671875 12.90234375 C-4.91135612 12.92595751 -2.45564826 12.9618293 0 13 C0 8.71 0 4.42 0 0 Z " fill="#DDD6EC" transform="translate(85,32)"/>
<path d="M0 0 C1.51815699 0.00015911 3.0363194 0.00585313 4.55444336 0.01586914 C5.35208603 0.01728409 6.1497287 0.01869904 6.97154236 0.02015686 C9.52916146 0.02577223 12.08669429 0.03832727 14.64428711 0.05102539 C16.37410356 0.05603841 18.10392137 0.06060166 19.83374023 0.06469727 C24.08312264 0.07574664 28.33244023 0.09302153 32.58178711 0.11352539 C32.58178711 3.41352539 32.58178711 6.71352539 32.58178711 10.11352539 C25.64819336 10.21118164 25.64819336 10.21118164 23.58178711 10.11352539 C22.58178711 9.11352539 22.58178711 9.11352539 22.51928711 6.55102539 C22.53991211 5.74665039 22.56053711 4.94227539 22.58178711 4.11352539 C21.92178711 4.11352539 21.26178711 4.11352539 20.58178711 4.11352539 C20.58178711 6.09352539 20.58178711 8.07352539 20.58178711 10.11352539 C11.24845378 10.11352539 1.91512044 10.11352539 -7.41821289 10.11352539 C-7.74821289 9.12352539 -8.07821289 8.13352539 -8.41821289 7.11352539 C-9.07821289 7.11352539 -9.73821289 7.11352539 -10.41821289 7.11352539 C-10.41821289 7.77352539 -10.41821289 8.43352539 -10.41821289 9.11352539 C-11.07821289 9.11352539 -11.73821289 9.11352539 -12.41821289 9.11352539 C-12.41821289 6.47352539 -12.41821289 3.83352539 -12.41821289 1.11352539 C-11.11883789 1.13415039 -9.81946289 1.15477539 -8.48071289 1.17602539 C-7.12655656 1.19751994 -5.77065206 1.18500738 -4.41821289 1.11352539 C-3.41821289 0.11352539 -3.41821289 0.11352539 0 0 Z " fill="#FEE2DB" transform="translate(111.418212890625,102.886474609375)"/>
<path d="M0 0 C0.66 0 1.32 0 2 0 C2 1.98 2 3.96 2 6 C3.25296875 5.9278125 4.5059375 5.855625 5.796875 5.78125 C7.44791332 5.687441 9.09895517 5.59369426 10.75 5.5 C11.575 5.45230469 12.4 5.40460938 13.25 5.35546875 C14.04921875 5.31035156 14.8484375 5.26523438 15.671875 5.21875 C16.4050293 5.17685547 17.13818359 5.13496094 17.89355469 5.09179688 C19.92733614 5.00316662 21.96428825 5 24 5 C24.99 4.98259766 24.99 4.98259766 26 4.96484375 C29.49118565 4.9171127 32.64568318 4.88189439 36 6 C36 4.02 36 2.04 36 0 C36.66 0 37.32 0 38 0 C38.495 2.475 38.495 2.475 39 5 C41.97 5.33 44.94 5.66 48 6 C48 7.98 48 9.96 48 12 C28.53 12 9.06 12 -11 12 C-10.67 10.35 -10.34 8.7 -10 7 C-4.375 5 -4.375 5 -1 5 C-0.67 3.35 -0.34 1.7 0 0 Z " fill="#FDF8F8" transform="translate(96,107)"/>
<path d="M0 0 C4.62 0 9.24 0 14 0 C14.08089542 2.77141717 14.14044062 5.54047819 14.1875 8.3125 C14.22520508 9.49102539 14.22520508 9.49102539 14.26367188 10.69335938 C14.27817383 11.8293457 14.27817383 11.8293457 14.29296875 12.98828125 C14.31653442 14.03302612 14.31653442 14.03302612 14.34057617 15.09887695 C13.8861026 17.63578428 13.07555825 18.50266015 11 20 C9.68 20 8.36 20 7 20 C7 23.3 7 26.6 7 30 C4.69 30 2.38 30 0 30 C0 20.1 0 10.2 0 0 Z " fill="#271869" transform="translate(89,52)"/>
<path d="M0 0 C0.66 0 1.32 0 2 0 C2 1.98 2 3.96 2 6 C2.680625 5.814375 3.36125 5.62875 4.0625 5.4375 C7.59251433 4.91175319 10.50846194 5.32855037 14 6 C14.495 6.495 14.495 6.495 15 7 C16.66617115 7.04063832 18.33388095 7.042721 20 7 C20.66 8.32 21.32 9.64 22 11 C21 12 21 12 19.05747986 12.12025452 C18.20698563 12.11803391 17.35649139 12.11581329 16.48022461 12.11352539 C15.03884377 12.11341209 15.03884377 12.11341209 13.56834412 12.11329651 C12.523564 12.10813522 11.47878387 12.10297394 10.40234375 12.09765625 C9.33834854 12.0962413 8.27435333 12.09482635 7.17811584 12.09336853 C3.76454917 12.08775064 0.351047 12.07519511 -3.0625 12.0625 C-5.37044176 12.05748731 -7.67838455 12.052924 -9.98632812 12.04882812 C-15.65757426 12.0377754 -21.32878253 12.02101987 -27 12 C-27 10.02 -27 8.04 -27 6 C-22.38 6 -17.76 6 -13 6 C-12.67 5.34 -12.34 4.68 -12 4 C-11.67 4.33 -11.34 4.66 -11 5 C-9.00249552 5 -7.00444719 4.99644125 -5.0078125 4.9375 C-3 5 -3 5 0 6 C0 4.02 0 2.04 0 0 Z " fill="#FDF9FA" transform="translate(27,107)"/>
<path d="M0 0 C8.58 0 17.16 0 26 0 C26 4.29 26 8.58 26 13 C22.54120466 13.08064549 19.08427259 13.1403281 15.625 13.1875 C14.14773437 13.22520508 14.14773437 13.22520508 12.640625 13.26367188 C11.22910156 13.27817383 11.22910156 13.27817383 9.7890625 13.29296875 C8.91975098 13.3086792 8.05043945 13.32438965 7.15478516 13.34057617 C6.44370605 13.22818604 5.73262695 13.1157959 5 13 C4.34 12.01 3.68 11.02 3 10 C3.66 10 4.32 10 5 10 C5 8.68 5 7.36 5 6 C4.34 6 3.68 6 3 6 C2.01 4.02 1.02 2.04 0 0 Z " fill="#332470" transform="translate(59,51)"/>
<path d="M0 0 C3.79160297 -0.05786668 7.58309311 -0.09355054 11.375 -0.125 C12.45523438 -0.14175781 13.53546875 -0.15851562 14.6484375 -0.17578125 C15.6796875 -0.18222656 16.7109375 -0.18867187 17.7734375 -0.1953125 C19.20308838 -0.21102295 19.20308838 -0.21102295 20.66162109 -0.22705078 C23 0 23 0 25 2 C24.67 2.99 24.34 3.98 24 5 C25.32 5 26.64 5 28 5 C28 8 28 8 26.88745117 9.68286133 C24.13616834 11.60281617 22.12042969 11.24565599 18.80078125 11.07421875 C17.59228516 11.01943359 16.38378906 10.96464844 15.13867188 10.90820312 C13.2447168 10.79895508 13.2447168 10.79895508 11.3125 10.6875 C10.03826172 10.62626953 8.76402344 10.56503906 7.45117188 10.50195312 C4.29981484 10.34851627 1.14989608 10.1806358 -2 10 C-2 7.69 -2 5.38 -2 3 C-1.34 3 -0.68 3 0 3 C0 2.01 0 1.02 0 0 Z " fill="#26176B" transform="translate(91,33)"/>
<path d="M0 0 C2.75105422 -0.10812003 5.49785087 -0.18734945 8.25 -0.25 C9.02730469 -0.28351562 9.80460937 -0.31703125 10.60546875 -0.3515625 C16.42997175 -0.45112665 16.42997175 -0.45112665 19.546875 2.015625 C20.02640625 2.67046875 20.5059375 3.3253125 21 4 C19.60670567 7.02331343 17.9579503 9.47092231 15.875 12.0625 C12.39817718 16.44663566 9.12899298 20.95439484 5.89453125 25.51953125 C4.08113086 27.89377712 2.16201629 29.94344792 0 32 C-1.32 30.35 -2.64 28.7 -4 27 C-2.52920916 23.75539105 -0.68575824 21.19445505 1.5625 18.4375 C2.26503906 17.57253906 2.96757812 16.70757812 3.69140625 15.81640625 C4.45324219 14.88699219 5.21507812 13.95757812 6 13 C7.25103516 11.46666016 7.25103516 11.46666016 8.52734375 9.90234375 C10.68125372 7.26525018 12.8401924 4.63226552 15 2 C10.05 1.67 5.1 1.34 0 1 C0 0.67 0 0.34 0 0 Z " fill="#ECE4EB" transform="translate(26,31)"/>
<path d="M0 0 C0 0.66 0 1.32 0 2 C-0.99 2 -1.98 2 -3 2 C-3 4.31 -3 6.62 -3 9 C-8 9 -13 9 -18 9 C-18 8.34 -18 7.68 -18 7 C-18.99 7.66 -19.98 8.32 -21 9 C-23.6875 9.125 -23.6875 9.125 -26 9 C-26 6.03 -26 3.06 -26 0 C-18.22596065 -2.59134645 -8.01279431 -1.30821132 0 0 Z " fill="#FDDFD5" transform="translate(98,104)"/>
<path d="M0 0 C27.06 0 54.12 0 82 0 C82 0.66 82 1.32 82 2 C79.5055943 3.24720285 77.82188816 3.12936605 75.03125 3.1328125 C73.99661621 3.13474609 72.96198242 3.13667969 71.89599609 3.13867188 C70.77531738 3.13416016 69.65463867 3.12964844 68.5 3.125 C67.3548291 3.12306641 66.2096582 3.12113281 65.02978516 3.11914062 C52.67514396 3.05855391 40.34007781 2.57381514 28 2 C27.67 2.99 27.34 3.98 27 5 C26.67 4.67 26.34 4.34 26 4 C24.07521187 3.84193469 22.1450079 3.748865 20.21484375 3.68359375 C19.04501953 3.64169922 17.87519531 3.59980469 16.66992188 3.55664062 C14.82237305 3.49766602 14.82237305 3.49766602 12.9375 3.4375 C11.70193359 3.39431641 10.46636719 3.35113281 9.19335938 3.30664062 C6.12902665 3.20015802 3.06460927 3.09814576 0 3 C0 2.01 0 1.02 0 0 Z " fill="#FBFAFB" transform="translate(14,100)"/>
<path d="M0 0 C0.33 3.3 0.66 6.6 1 10 C2.32 10 3.64 10 5 10 C4.64984512 15.95263302 3.35066139 18.04485328 -1 22 C-2.76153511 24.27710636 -4.36990207 26.62471445 -6 29 C-7.13732426 25.59598052 -6.83989957 23.22543336 -6.0625 19.75 C-5.86785156 18.85796875 -5.67320313 17.9659375 -5.47265625 17.046875 C-5.23869141 16.03367187 -5.23869141 16.03367187 -5 15 C-6.65 15 -8.3 15 -10 15 C-10 15.66 -10 16.32 -10 17 C-10.99 16.67 -11.98 16.34 -13 16 C-12.38125 15.113125 -11.7625 14.22625 -11.125 13.3125 C-8.97980744 10.23321292 -8.97980744 10.23321292 -8.0625 7.4375 C-6.57480153 4.02454468 -4.01551152 0 0 0 Z " fill="#FAEF0A" transform="translate(48,41)"/>
<path d="M0 0 C2.16662589 1.50394856 2.63711861 2.92267472 3.80078125 5.25 C5.11611535 5.95151152 6.45195717 6.61525925 7.80078125 7.25 C10.05078125 9.25 10.05078125 9.25 11.80078125 11.25 C11.80078125 11.91 11.80078125 12.57 11.80078125 13.25 C8.53011559 13.33706892 5.2597476 13.39041241 1.98828125 13.4375 C1.05951172 13.46263672 0.13074219 13.48777344 -0.82617188 13.51367188 C-2.16518555 13.52817383 -2.16518555 13.52817383 -3.53125 13.54296875 C-4.35343018 13.5586792 -5.17561035 13.57438965 -6.02270508 13.59057617 C-8.72343792 13.16797131 -9.59594066 12.43337151 -11.19921875 10.25 C-11.38671875 7.375 -11.38671875 7.375 -10.19921875 4.25 C-4.0396208 -1.37763267 -4.0396208 -1.37763267 0 0 Z " fill="#2A166B" transform="translate(33.19921875,69.75)"/>
<path d="M0 0 C0 3.33896168 -0.59422625 4.40480889 -2.3125 7.1875 C-2.74175781 7.90292969 -3.17101563 8.61835937 -3.61328125 9.35546875 C-4.29970703 10.16951172 -4.29970703 10.16951172 -5 11 C-5.99 11 -6.98 11 -8 11 C-8.226875 11.53625 -8.45375 12.0725 -8.6875 12.625 C-10.44384951 15.80315626 -12.58979175 18.28079069 -15 21 C-15.33 21 -15.66 21 -16 21 C-15.67 16.38 -15.34 11.76 -15 7 C-19.32556923 10.50942409 -22.15513652 13.21545688 -25 18 C-29.24137931 21 -29.24137931 21 -32 21 C-32.061875 21.598125 -32.12375 22.19625 -32.1875 22.8125 C-33.33135807 25.89211788 -35.17695452 26.42434671 -38 28 C-38.721875 28.721875 -39.44375 29.44375 -40.1875 30.1875 C-41.0846875 31.0846875 -41.0846875 31.0846875 -42 32 C-42.66 32 -43.32 32 -44 32 C-43.690625 31.401875 -43.38125 30.80375 -43.0625 30.1875 C-41.89790296 27.91043228 -41.89790296 27.91043228 -41 25 C-40.34 24.67 -39.68 24.34 -39 24 C-38.7525 23.2575 -38.505 22.515 -38.25 21.75 C-36.54359374 17.99590624 -34.26413889 16.48358394 -31 14 C-32.2491742 17.45925163 -33.67527795 20.14693203 -36 23 C-35.54625 22.505 -35.0925 22.01 -34.625 21.5 C-33 20 -33 20 -31 20 C-31 19.34 -31 18.68 -31 18 C-29.56640625 16.5546875 -29.56640625 16.5546875 -27.5625 14.875 C-23.58378677 11.50621429 -19.7229439 8.0296018 -15.8828125 4.50390625 C-14 3 -14 3 -12 3 C-12.33 6.96 -12.66 10.92 -13 15 C-12.05125 13.845 -11.1025 12.69 -10.125 11.5 C-8.5078125 9.53125 -8.5078125 9.53125 -7 8 C-6.34 8 -5.68 8 -5 8 C-4.731875 7.236875 -4.46375 6.47375 -4.1875 5.6875 C-3.05575888 3.12619116 -2.08776599 1.80307062 0 0 Z " fill="#AD652B" transform="translate(55,53)"/>
<path d="M0 0 C0.33 0.66 0.66 1.32 1 2 C1.99 2.33 2.98 2.66 4 3 C4 8.61 4 14.22 4 20 C3.01 20.33 2.02 20.66 1 21 C0.67 21.99 0.34 22.98 0 24 C-0.66 24 -1.32 24 -2 24 C-2.66 22.68 -3.32 21.36 -4 20 C-4.66 20 -5.32 20 -6 20 C-6.66 18.35 -7.32 16.7 -8 15 C-7.34 15 -6.68 15 -6 15 C-5.67 13.02 -5.34 11.04 -5 9 C-4.34 9 -3.68 9 -3 9 C-3 6.36 -3 3.72 -3 1 C-2.01 1.33 -1.02 1.66 0 2 C0 1.34 0 0.68 0 0 Z " fill="#291B69" transform="translate(131,44)"/>
<path d="M0 0 C0.33 0 0.66 0 1 0 C1.19148936 21.72340426 1.19148936 21.72340426 0 31 C-0.33 31 -0.66 31 -1 31 C-1 26.71 -1 22.42 -1 18 C-7.93 18 -14.86 18 -22 18 C-22 16.02 -22 14.04 -22 12 C-11.605 11.505 -11.605 11.505 -1 11 C-0.67 7.37 -0.34 3.74 0 0 Z " fill="#EEEAF9" transform="translate(86,52)"/>
<path d="M0 0 C0.66 0 1.32 0 2 0 C2 0.99 2 1.98 2 3 C2.99 3 3.98 3 5 3 C5 2.34 5 1.68 5 1 C5.99 1 6.98 1 8 1 C8 1.66 8 2.32 8 3 C52.88 3 97.76 3 144 3 C144 3.33 144 3.66 144 4 C96.48 4 48.96 4 0 4 C0 2.68 0 1.36 0 0 Z " fill="#362665" transform="translate(0,95)"/>
<path d="M0 0 C0.91933305 3.67733219 0.99485581 5.59899538 0.5625 9.25 C0.46066406 10.14203125 0.35882813 11.0340625 0.25390625 11.953125 C0.17011719 12.62859375 0.08632813 13.3040625 0 14 C0.48210938 13.3503125 0.96421875 12.700625 1.4609375 12.03125 C2.09257813 11.1959375 2.72421875 10.360625 3.375 9.5 C4.00148438 8.6646875 4.62796875 7.829375 5.2734375 6.96875 C5.84320313 6.3190625 6.41296875 5.669375 7 5 C7.66 5 8.32 5 9 5 C9 11.27 9 17.54 9 24 C8.67 24 8.34 24 8 24 C7.67 19.05 7.34 14.1 7 9 C6.484375 10.258125 5.96875 11.51625 5.4375 12.8125 C5.14746094 13.52019531 4.85742188 14.22789063 4.55859375 14.95703125 C3.74936976 17.1735067 3.74936976 17.1735067 5 20 C4.01 20.33 3.02 20.66 2 21 C0.51207039 19.42489875 -0.9650606 17.83959136 -2.4375 16.25 C-3.26121094 15.36828125 -4.08492187 14.4865625 -4.93359375 13.578125 C-7 11 -7 11 -8 7 C-5.36 4.69 -2.72 2.38 0 0 Z " fill="#E6DAE4" transform="translate(40,59)"/>
<path d="M0 0 C5.94 0 11.88 0 18 0 C17.67 1.32 17.34 2.64 17 4 C16.34 4 15.68 4 15 4 C15 4.66 15 5.32 15 6 C13.02 6.33 11.04 6.66 9 7 C8.67 8.32 8.34 9.64 8 11 C5.69 11.66 3.38 12.32 1 13 C0.85714286 4.42857143 0.85714286 4.42857143 2 1 C1.34 0.67 0.68 0.34 0 0 Z " fill="#441E4F" transform="translate(49,32)"/>
<path d="M0 0 C1.794375 0.2165625 1.794375 0.2165625 3.625 0.4375 C3.625 4.0675 3.625 7.6975 3.625 11.4375 C-1.655 11.4375 -6.935 11.4375 -12.375 11.4375 C-6.63859416 -0.03531167 -6.63859416 -0.03531167 0 0 Z " fill="#261963" transform="translate(80.375,32.5625)"/>
<path d="M0 0 C5.94 0 11.88 0 18 0 C18 2.97 18 5.94 18 9 C14.37 9 10.74 9 7 9 C7 7.02 7 5.04 7 3 C6.34 3 5.68 3 5 3 C5 4.98 5 6.96 5 9 C4.01 9 3.02 9 2 9 C2 6.69 2 4.38 2 2 C1.34 2 0.68 2 0 2 C0 1.34 0 0.68 0 0 Z " fill="#C14D4F" transform="translate(22,104)"/>
<path d="M0 0 C5.61 0 11.22 0 17 0 C17 2.97 17 5.94 17 9 C10.06640625 9.09765625 10.06640625 9.09765625 8 9 C7 8 7 8 6.9375 5.4375 C6.958125 4.633125 6.97875 3.82875 7 3 C6.34 3 5.68 3 5 3 C5 4.98 5 6.96 5 9 C3.68 9 2.36 9 1 9 C0.67 6.03 0.34 3.06 0 0 Z " fill="#F0B3AF" transform="translate(127,104)"/>
<path d="M0 0 C0 2 0 2 -1.6875 4.125 C-4 6 -4 6 -6.75 6.25 C-7.4925 6.1675 -8.235 6.085 -9 6 C-8.67 7.65 -8.34 9.3 -8 11 C-6.35 10.67 -4.7 10.34 -3 10 C-2.67 10.99 -2.34 11.98 -2 13 C-1.34 13 -0.68 13 0 13 C-0.57344937 15.86724686 -0.8614515 16.8614515 -3 19 C-3.99 19 -4.98 19 -6 19 C-6 17.68 -6 16.36 -6 15 C-6.78375 15.04125 -7.5675 15.0825 -8.375 15.125 C-11 15 -11 15 -13 13 C-13.1953125 10.3984375 -13.1953125 10.3984375 -13.125 7.375 C-13.10695313 6.37210938 -13.08890625 5.36921875 -13.0703125 4.3359375 C-13.04710937 3.56507812 -13.02390625 2.79421875 -13 2 C-12.34 2 -11.68 2 -11 2 C-10.34 2.66 -9.68 3.32 -9 4 C-6.89439669 4.23063512 -6.89439669 4.23063512 -5.5 2.5625 C-5.005 2.046875 -4.51 1.53125 -4 1 C-2 0 -2 0 0 0 Z " fill="#26176C" transform="translate(24,51)"/>
<path d="M0 0 C0.83265381 0.00523682 1.66530762 0.01047363 2.52319336 0.01586914 C3.42231445 0.0190918 4.32143555 0.02231445 5.24780273 0.02563477 C6.66609375 0.03820313 6.66609375 0.03820313 8.11303711 0.05102539 C9.06243164 0.05553711 10.01182617 0.06004883 10.98999023 0.06469727 C13.34356776 0.07652429 15.69702188 0.09300514 18.05053711 0.11352539 C18.38053711 1.76352539 18.71053711 3.41352539 19.05053711 5.11352539 C11.13053711 5.11352539 3.21053711 5.11352539 -4.94946289 5.11352539 C-2.46445805 0.14351572 -2.46445805 0.14351572 0 0 Z " fill="#FDF9FC" transform="translate(65.949462890625,44.886474609375)"/>
<path d="M0 0 C0.33 0 0.66 0 1 0 C1 9.9 1 19.8 1 30 C-3.94517407 23.40643457 -4.92827209 18.11698385 -4 10 C-2.9363665 6.5223809 -1.58829343 3.2687646 0 0 Z " fill="#2A1D66" transform="translate(143,42)"/>
<path d="M0 0 C3.33333333 0 6.66666667 0 10 0 C10 2.31 10 4.62 10 7 C10.66 7 11.32 7 12 7 C12 4.69 12 2.38 12 0 C12.66 0 13.32 0 14 0 C14 2.64 14 5.28 14 8 C9.29561575 9.04541872 4.79792331 9 0 9 C0 6.03 0 3.06 0 0 Z " fill="#C05853" transform="translate(111,104)"/>
<path d="M0 0 C3.3 0.33 6.6 0.66 10 1 C10 3.97 10 6.94 10 10 C3.06640625 10.09765625 3.06640625 10.09765625 1 10 C0 9 0 9 -0.09765625 6.93359375 C-0.06510417 4.62239583 -0.03255208 2.31119792 0 0 Z " fill="#E9AFAE" transform="translate(42,103)"/>
<path d="M0 0 C9.9 0 19.8 0 30 0 C30 0.33 30 0.66 30 1 C21.09 1 12.18 1 3 1 C3 1.99 3 2.98 3 4 C2.34 4 1.68 4 1 4 C1 6.31 1 8.62 1 11 C1.64324219 10.82597656 2.28648438 10.65195312 2.94921875 10.47265625 C6.97625611 9.84874905 10.76240413 10.14214515 14.8125 10.4375 C15.99489258 10.51581055 15.99489258 10.51581055 17.20117188 10.59570312 C19.13451529 10.72459269 21.06732164 10.86149494 23 11 C23.33 11.66 23.66 12.32 24 13 C16.08 13 8.16 13 0 13 C0 8.71 0 4.42 0 0 Z " fill="#4C4278" transform="translate(88,32)"/>
<path d="M0 0 C1.27351308 2.54702616 0.80191925 3.4282945 0.0625 6.125 C-0.13214844 6.84945312 -0.32679687 7.57390625 -0.52734375 8.3203125 C-0.68332031 8.87460938 -0.83929688 9.42890625 -1 10 C-2.32 10 -3.64 10 -5 10 C-5 9.34 -5 8.68 -5 8 C-5.66 8 -6.32 8 -7 8 C-7.33 7.01 -7.66 6.02 -8 5 C-8.33 6.65 -8.66 8.3 -9 10 C-9.66 10 -10.32 10 -11 10 C-11 7.69 -11 5.38 -11 3 C-11.99 3 -12.98 3 -14 3 C-14 2.34 -14 1.68 -14 1 C-9.32798795 -0.20568053 -4.78503708 -0.09382426 0 0 Z " fill="#F3C9C5" transform="translate(67,103)"/>
<path d="M0 0 C3.3 0 6.6 0 10 0 C10 2.97 10 5.94 10 9 C8.35 9 6.7 9 5 9 C4.67 8.01 4.34 7.02 4 6 C3.34 6 2.68 6 2 6 C2 6.66 2 7.32 2 8 C1.34 8 0.68 8 0 8 C0 5.36 0 2.72 0 0 Z " fill="#BB4F4E" transform="translate(99,104)"/>
<path d="M0 0 C1.98 0 3.96 0 6 0 C6 4.29 6 8.58 6 13 C4.02 13 2.04 13 0 13 C0 8.71 0 4.42 0 0 Z " fill="#3F3176" transform="translate(0,70)"/>
<path d="M0 0 C1.98 0 3.96 0 6 0 C6 4.29 6 8.58 6 13 C4.02 13 2.04 13 0 13 C0 8.71 0 4.42 0 0 Z " fill="#392D71" transform="translate(0,51)"/>
<path d="M0 0 C1.98 0 3.96 0 6 0 C6 4.29 6 8.58 6 13 C4.02 13 2.04 13 0 13 C0 8.71 0 4.42 0 0 Z " fill="#3A3071" transform="translate(0,32)"/>
<path d="M0 0 C10.56 0 21.12 0 32 0 C32 0.99 32 1.98 32 3 C21.30779968 3.19558903 10.67200792 2.59054589 0 2 C0 1.34 0 0.68 0 0 Z " fill="#FDF9FD" transform="translate(112,100)"/>
<path d="M0 0 C0.99 0 1.98 0 3 0 C3 2.31 3 4.62 3 7 C4.32 7 5.64 7 7 7 C7 4.69 7 2.38 7 0 C8.98 0 10.96 0 13 0 C13 0.66 13 1.32 13 2 C11.68 2 10.36 2 9 2 C9 2.66 9 3.32 9 4 C10.32 4.33 11.64 4.66 13 5 C11.68 5 10.36 5 9 5 C9 5.66 9 6.32 9 7 C10.32 7 11.64 7 13 7 C13 7.66 13 8.32 13 9 C8.71 9 4.42 9 0 9 C0 6.03 0 3.06 0 0 Z " fill="#BE6566" transform="translate(0,104)"/>
<path d="M0 0 C0 3.99904969 -1.72586967 5.80200422 -4 9 C-3.54625 8.505 -3.0925 8.01 -2.625 7.5 C-1 6 -1 6 1 6 C1 5.34 1 4.68 1 4 C3.31 3.01 5.62 2.02 8 1 C6.74874616 4.75376152 5.4347596 5.24073289 2 7 C1.34 7 0.68 7 0 7 C-0.061875 7.598125 -0.12375 8.19625 -0.1875 8.8125 C-1.33135807 11.89211788 -3.17695452 12.42434671 -6 14 C-6.721875 14.721875 -7.44375 15.44375 -8.1875 16.1875 C-9.0846875 17.0846875 -9.0846875 17.0846875 -10 18 C-10.66 18 -11.32 18 -12 18 C-11.690625 17.401875 -11.38125 16.80375 -11.0625 16.1875 C-9.89790296 13.91043228 -9.89790296 13.91043228 -9 11 C-8.34 10.67 -7.68 10.34 -7 10 C-6.5978125 8.88625 -6.5978125 8.88625 -6.1875 7.75 C-4.73169188 4.37865489 -2.67938535 2.46785493 0 0 Z " fill="#954A43" transform="translate(23,67)"/>
<path d="M0 0 C0.99 0 1.98 0 3 0 C3 1.65 3 3.3 3 5 C3.66 3.35 4.32 1.7 5 0 C6.65 0.33 8.3 0.66 10 1 C9.34 1.66 8.68 2.32 8 3 C8.66 3.33 9.32 3.66 10 4 C9.67 5.65 9.34 7.3 9 9 C8.2575 8.814375 7.515 8.62875 6.75 8.4375 C3.77159084 7.77947289 3.77159084 7.77947289 0 9 C0 6.03 0 3.06 0 0 Z " fill="#D88182" transform="translate(80,104)"/>
<path d="M0 0 C0.99 0.33 1.98 0.66 3 1 C2.67 7.6 2.34 14.2 2 21 C-3 19 -3 19 -4.3125 16.375 C-4.539375 15.59125 -4.76625 14.8075 -5 14 C-4.34 14 -3.68 14 -3 14 C-2.67 12.02 -2.34 10.04 -2 8 C-1.34 8 -0.68 8 0 8 C0 5.36 0 2.72 0 0 Z " fill="#281777" transform="translate(128,45)"/>
<path d="M0 0 C5.61 0 11.22 0 17 0 C17 0.99 17 1.98 17 3 C17.99 3.66 18.98 4.32 20 5 C13.4 4.67 6.8 4.34 0 4 C0 2.68 0 1.36 0 0 Z " fill="#FBFAFB" transform="translate(65,65)"/>
<path d="M0 0 C1.65 0 3.3 0 5 0 C5.33 1.65 5.66 3.3 6 5 C6.99 5 7.98 5 9 5 C9 4.01 9 3.02 9 2 C9.99 2 10.98 2 12 2 C10.59491996 6.47070922 8.40653888 8.83678532 5 12 C3.8553125 13.1446875 3.8553125 13.1446875 2.6875 14.3125 C2.130625 14.869375 1.57375 15.42625 1 16 C1.14204741 14.41632253 1.28880153 12.83306682 1.4375 11.25 C1.51871094 10.36828125 1.59992187 9.4865625 1.68359375 8.578125 C1.96238465 6.30649548 2.38790577 4.20148177 3 2 C2.01 2 1.02 2 0 2 C0 1.34 0 0.68 0 0 Z " fill="#F5DC1E" transform="translate(40,54)"/>
<path d="M0 0 C11.88 0 23.76 0 36 0 C32.69711664 2.20192224 31.72537273 2.23959968 27.89453125 2.1953125 C26.91162109 2.18886719 25.92871094 2.18242188 24.91601562 2.17578125 C23.37977539 2.15064453 23.37977539 2.15064453 21.8125 2.125 C20.77673828 2.11597656 19.74097656 2.10695313 18.67382812 2.09765625 C16.11565315 2.0740786 13.55794252 2.0411703 11 2 C11 2.66 11 3.32 11 4 C11.99 4 12.98 4 14 4 C14 6.31 14 8.62 14 11 C13.67 11 13.34 11 13 11 C13 9.02 13 7.04 13 5 C12.34 5 11.68 5 11 5 C11 6.98 11 8.96 11 11 C10.67 11 10.34 11 10 11 C10 8.03 10 5.06 10 2 C6.7 1.67 3.4 1.34 0 1 C0 0.67 0 0.34 0 0 Z " fill="#F7E9E1" transform="translate(42,102)"/>
<path d="M0 0 C0.33 0 0.66 0 1 0 C1.05398987 2.27057377 1.09278742 4.54151288 1.125 6.8125 C1.14820312 8.07707031 1.17140625 9.34164062 1.1953125 10.64453125 C1 14 1 14 -1 17 C-3.06298828 17.34057617 -3.06298828 17.34057617 -5.5703125 17.29296875 C-6.46621094 17.28330078 -7.36210938 17.27363281 -8.28515625 17.26367188 C-9.69087891 17.2259668 -9.69087891 17.2259668 -11.125 17.1875 C-12.54232422 17.16719727 -12.54232422 17.16719727 -13.98828125 17.14648438 C-16.32608779 17.11106306 -18.66276237 17.06167271 -21 17 C-21 16.67 -21 16.34 -21 16 C-14.73 16 -8.46 16 -2 16 C-2 15.34 -2 14.68 -2 14 C-2.66 14 -3.32 14 -4 14 C-4 13.34 -4 12.68 -4 12 C-3.34 12 -2.68 12 -2 12 C-2.36867188 11.42765625 -2.73734375 10.8553125 -3.1171875 10.265625 C-4 8 -4 8 -3.3203125 5.859375 C-2.92585938 5.16328125 -2.53140625 4.4671875 -2.125 3.75 C-1.73570313 3.04359375 -1.34640625 2.3371875 -0.9453125 1.609375 C-0.63335937 1.07828125 -0.32140625 0.5471875 0 0 Z " fill="#EBECF3" transform="translate(47,67)"/>
<path d="M0 0 C0 0.66 0 1.32 0 2 C0.66 2 1.32 2 2 2 C2 3.98 2 5.96 2 8 C0.56445975 8.50559908 -0.8735202 9.0042749 -2.3125 9.5 C-3.11300781 9.7784375 -3.91351563 10.056875 -4.73828125 10.34375 C-7 11 -7 11 -10 11 C-8.64763423 8.06120516 -7.10057341 5.70767089 -5 3.25 C-4.484375 2.63640625 -3.96875 2.0228125 -3.4375 1.390625 C-2 0 -2 0 0 0 Z " fill="#2B1770" transform="translate(78,33)"/>
<path d="M0 0 C0.33 0.99 0.66 1.98 1 3 C-0.32 4.65 -1.64 6.3 -3 8 C3.27 8 9.54 8 16 8 C16 8.33 16 8.66 16 9 C15.39526855 8.99363525 14.79053711 8.98727051 14.16748047 8.98071289 C11.40209186 8.97197674 8.64000287 9.01678236 5.875 9.0625 C4.44800781 9.04606445 4.44800781 9.04606445 2.9921875 9.02929688 C-2.38869704 9.08622287 -2.38869704 9.08622287 -6.94824219 11.62060547 C-8.56880229 13.51294845 -8.56880229 13.51294845 -9.87451172 15.50170898 C-10.24592285 15.99614502 -10.61733398 16.49058105 -11 17 C-11.66 17 -12.32 17 -13 17 C-11.46203092 13.56546802 -9.4264398 10.85610724 -7.0625 7.9375 C-6.37285156 7.08027344 -5.68320312 6.22304688 -4.97265625 5.33984375 C-3.38385308 3.45530297 -1.77941245 1.70131911 0 0 Z " fill="#98694A" transform="translate(69,36)"/>
<path d="M0 0 C0.33 0.99 0.66 1.98 1 3 C1.639375 3.144375 2.27875 3.28875 2.9375 3.4375 C5 4 5 4 6.3125 5.9375 C6.6528125 6.9584375 6.6528125 6.9584375 7 8 C6.67 8.66 6.34 9.32 6 10 C5.34 10 4.68 10 4 10 C4 9.34 4 8.68 4 8 C3.34 8 2.68 8 2 8 C1.34 7.34 0.68 6.68 0 6 C-1.65 6.66 -3.3 7.32 -5 8 C-5 5.69 -5 3.38 -5 1 C-3.35 0.67 -1.7 0.34 0 0 Z " fill="#271663" transform="translate(20,56)"/>
<path d="M0 0 C2.31 0.33 4.62 0.66 7 1 C7.125 3.875 7.125 3.875 7 7 C5 9 5 9 2.375 9.125 C1.59125 9.08375 0.8075 9.0425 0 9 C0 6.03 0 3.06 0 0 Z " fill="#C66D6C" transform="translate(72,104)"/>
<path d="M0 0 C0.33 0 0.66 0 1 0 C1.33 1.98 1.66 3.96 2 6 C3.98 5.67 5.96 5.34 8 5 C8.33 3.68 8.66 2.36 9 1 C10.98 0.67 12.96 0.34 15 0 C11.25045598 5.31185402 6.2289348 9.9236884 0 12 C0 8.04 0 4.08 0 0 Z " fill="#B97A36" transform="translate(49,38)"/>
<path d="M0 0 C1.55907264 0.02653741 3.11789956 0.07416901 4.67578125 0.140625 C5.47306641 0.15867187 6.27035156 0.17671875 7.09179688 0.1953125 C9.05780574 0.24240253 11.02319619 0.31414601 12.98828125 0.390625 C10.01828125 4.350625 10.01828125 4.350625 6.98828125 8.390625 C5.99828125 7.400625 5.00828125 6.410625 3.98828125 5.390625 C4.31828125 4.400625 4.64828125 3.410625 4.98828125 2.390625 C2.01828125 1.895625 2.01828125 1.895625 -1.01171875 1.390625 C-1.34171875 2.380625 -1.67171875 3.370625 -2.01171875 4.390625 C-2.34171875 3.730625 -2.67171875 3.070625 -3.01171875 2.390625 C-4.00171875 3.875625 -4.00171875 3.875625 -5.01171875 5.390625 C-5.67171875 5.060625 -6.33171875 4.730625 -7.01171875 4.390625 C-5.28944225 0.8195374 -3.79017889 0.10573277 0 0 Z " fill="#362A6C" transform="translate(29.01171875,31.609375)"/>
<path d="M0 0 C2.33294775 -0.04241723 4.66702567 -0.04092937 7 0 C8 1 8 1 8.0625 4.5625 C8.041875 5.696875 8.02125 6.83125 8 8 C8.66 8 9.32 8 10 8 C10 7.34 10 6.68 10 6 C10.66 6 11.32 6 12 6 C11.67 6.99 11.34 7.98 11 9 C9.68 9 8.36 9 7 9 C7 7.02 7 5.04 7 3 C6.34 3 5.68 3 5 3 C5 4.98 5 6.96 5 9 C4.01 9 3.02 9 2 9 C2 6.69 2 4.38 2 2 C1.34 2 0.68 2 0 2 C0 1.34 0 0.68 0 0 Z " fill="#E8B1AB" transform="translate(22,104)"/>
<path d="M0 0 C0.86044922 0.55880859 0.86044922 0.55880859 1.73828125 1.12890625 C1.40828125 2.11890625 1.07828125 3.10890625 0.73828125 4.12890625 C-0.58171875 4.12890625 -1.90171875 4.12890625 -3.26171875 4.12890625 C-3.26171875 5.11890625 -3.26171875 6.10890625 -3.26171875 7.12890625 C-5.24171875 7.12890625 -7.22171875 7.12890625 -9.26171875 7.12890625 C-9.26171875 7.78890625 -9.26171875 8.44890625 -9.26171875 9.12890625 C-9.92171875 9.12890625 -10.58171875 9.12890625 -11.26171875 9.12890625 C-11.26171875 6.94140625 -11.26171875 6.94140625 -10.26171875 4.12890625 C-3.91367791 -1.50734054 -3.91367791 -1.50734054 0 0 Z " fill="#2E1A62" transform="translate(33.26171875,69.87109375)"/>
<path d="M0 0 C0.66 0 1.32 0 2 0 C1.67 1.32 1.34 2.64 1 4 C0.34 3.67 -0.32 3.34 -1 3 C-1.25136719 3.54914062 -1.50273438 4.09828125 -1.76171875 4.6640625 C-5.4764727 11.6717056 -10.82259298 18.01362313 -16 24 C-16 20.52474027 -15.4647013 19.95409678 -13.375 17.3125 C-12.8284375 16.61125 -12.281875 15.91 -11.71875 15.1875 C-11.1515625 14.465625 -10.584375 13.74375 -10 13 C-8.95499701 11.60666268 -7.91321047 10.21090594 -6.875 8.8125 C-5.91719081 7.54127158 -4.9588994 6.27040627 -4 5 C-3.2575 4.01 -2.515 3.02 -1.75 2 C-0.88375 1.01 -0.88375 1.01 0 0 Z " fill="#AA602A" transform="translate(49,33)"/>
<path d="M0 0 C-0.1135629 1.64666203 -0.24117381 3.29236082 -0.375 4.9375 C-0.44460937 5.85402344 -0.51421875 6.77054688 -0.5859375 7.71484375 C-0.72257812 8.46894531 -0.85921875 9.22304687 -1 10 C-1.99 10.495 -1.99 10.495 -3 11 C-3 8.69 -3 6.38 -3 4 C-4.12894876 4.93274109 -5.25300876 5.87140122 -6.375 6.8125 C-7.00148438 7.33457031 -7.62796875 7.85664062 -8.2734375 8.39453125 C-10.2221048 10.08225739 -10.2221048 10.08225739 -12 13 C-14.125 13.6875 -14.125 13.6875 -16 14 C-16 12 -16 12 -14.4609375 10.44921875 C-13.77257812 9.86785156 -13.08421875 9.28648438 -12.375 8.6875 C-11.64796875 8.07132813 -10.9209375 7.45515625 -10.171875 6.8203125 C-9.09679688 5.91925781 -9.09679688 5.91925781 -8 5 C-7.11054687 4.22269531 -7.11054687 4.22269531 -6.203125 3.4296875 C-2.24428571 0 -2.24428571 0 0 0 Z " fill="#AD6926" transform="translate(43,56)"/>
<path d="M0 0 C1.32 0 2.64 0 4 0 C4 2.97 4 5.94 4 9 C-0.875 8.125 -0.875 8.125 -2 7 C-2.1875 4.5625 -2.1875 4.5625 -2 2 C-1.34 1.34 -0.68 0.68 0 0 Z " fill="#C87474" transform="translate(140,104)"/>
<path d="M0 0 C-0.33 3.63 -0.66 7.26 -1 11 C-5 9 -5 9 -7 7 C-6.81511956 4.13435314 -6.20773139 3.18762835 -4.0625 1.25 C-2 0 -2 0 0 0 Z " fill="#F6ECEA" transform="translate(39,62)"/>
<path d="M0 0 C0.99 0 1.98 0 3 0 C3 2.31 3 4.62 3 7 C3.66 7 4.32 7 5 7 C5 4.69 5 2.38 5 0 C5.66 0 6.32 0 7 0 C7 2.64 7 5.28 7 8 C4.6875 8.625 4.6875 8.625 2 9 C1.01 8.34 0.02 7.68 -1 7 C-0.67 4.69 -0.34 2.38 0 0 Z " fill="#BD6767" transform="translate(118,104)"/>
<path d="M0 0 C0 3.64478912 -0.85802506 5.09303401 -3 8 C-5.125 8.6875 -5.125 8.6875 -7 9 C-7.33 9.66 -7.66 10.32 -8 11 C-10.30532837 12.30635274 -12.47571223 13.15857074 -15 14 C-15 13.34 -15 12.68 -15 12 C-14.34 11.67 -13.68 11.34 -13 11 C-12.67 10.01 -12.34 9.02 -12 8 C-11.29875 7.731875 -10.5975 7.46375 -9.875 7.1875 C-5.90738358 5.54870191 -3.13913507 2.87678661 0 0 Z " fill="#A84F45" transform="translate(79,24)"/>
<path d="M0 0 C0 0.66 0 1.32 0 2 C-0.66 2 -1.32 2 -2 2 C-2.33 2.99 -2.66 3.98 -3 5 C-4.6222454 6.70993434 -6.29413425 8.37347684 -8 10 C-9.1446875 11.1446875 -9.1446875 11.1446875 -10.3125 12.3125 C-10.869375 12.869375 -11.42625 13.42625 -12 14 C-12 13.34 -12 12.68 -12 12 C-12.99 11.67 -13.98 11.34 -15 11 C-12.87996003 9.16064138 -10.75442773 7.32843267 -8.625 5.5 C-8.02171875 4.97535156 -7.4184375 4.45070313 -6.796875 3.91015625 C-2.2265625 0 -2.2265625 0 0 0 Z " fill="#F4B742" transform="translate(71,34)"/>
<path d="M0 0 C1.134375 0.020625 2.26875 0.04125 3.4375 0.0625 C3.4375 4.0625 3.4375 4.0625 1.75 5.875 C-1.14199326 7.36007762 -2.51455066 6.99381785 -5.5625 6.0625 C-4.48849278 0.07874549 -4.48849278 0.07874549 0 0 Z " fill="#281475" transform="translate(60.5625,56.9375)"/>
<path d="M0 0 C0.33 0 0.66 0 1 0 C1 3.3 1 6.6 1 10 C-0.98 10.99 -0.98 10.99 -3 12 C-3 14.97 -3 17.94 -3 21 C-3.33 21 -3.66 21 -4 21 C-4.54470737 13.0412201 -3.48901845 7.18052459 0 0 Z " fill="#42386F" transform="translate(143,42)"/>
<path d="M0 0 C1.32 0.66 2.64 1.32 4 2 C4 3.32 4 4.64 4 6 C3.278125 5.9175 2.55625 5.835 1.8125 5.75 C-1.83548794 6.07426559 -3.34568298 7.57319587 -6 10 C-4.79157144 5.56909529 -3.48331435 3.01887244 0 0 Z " fill="#3C1852" transform="translate(58,52)"/>
<path d="M0 0 C1.29581717 3.79217084 0.8626334 7.17724097 0.5 11.125 C-0.15219776 15.7181339 -0.15219776 15.7181339 1 20 C0.01 20 -0.98 20 -2 20 C-2.05379226 17.04142591 -2.09357093 14.08382279 -2.125 11.125 C-2.14175781 10.28324219 -2.15851562 9.44148438 -2.17578125 8.57421875 C-2.18222656 7.76855469 -2.18867187 6.96289062 -2.1953125 6.1328125 C-2.21102295 5.01737061 -2.21102295 5.01737061 -2.22705078 3.87939453 C-2 2 -2 2 0 0 Z " fill="#291A5C" transform="translate(51,62)"/>
<path d="M0 0 C0.66 1.32 1.32 2.64 2 4 C2.598125 3.835 3.19625 3.67 3.8125 3.5 C6 3 6 3 9 3 C8.01 4.485 8.01 4.485 7 6 C6.34 6 5.68 6 5 6 C4.67 6.99 4.34 7.98 4 9 C2.68 9 1.36 9 0 9 C-0.12375 8.195625 -0.2475 7.39125 -0.375 6.5625 C-0.684375 5.2940625 -0.684375 5.2940625 -1 4 C-1.66 3.67 -2.32 3.34 -3 3 C-2.01 2.01 -1.02 1.02 0 0 Z " fill="#31227A" transform="translate(13,47)"/>
<path d="M0 0 C0.99 0 1.98 0 3 0 C3 2.97 3 5.94 3 9 C1.02 9 -0.96 9 -3 9 C-2.34 8.67 -1.68 8.34 -1 8 C-1.20625 7.4225 -1.4125 6.845 -1.625 6.25 C-2.08661261 3.48032433 -1.42944945 2.35438733 0 0 Z " fill="#D58B88" transform="translate(37,104)"/>
<path d="M0 0 C0 1.32 0 2.64 0 4 C2.29225435 3.88628503 4.58382388 3.75869036 6.875 3.625 C8.78925781 3.52058594 8.78925781 3.52058594 10.7421875 3.4140625 C14.08061699 3.32758894 14.08061699 3.32758894 16 1 C16.99 1.66 17.98 2.32 19 3 C19 3.66 19 4.32 19 5 C15.72946483 5.11608726 12.4594582 5.18720711 9.1875 5.25 C8.25873047 5.28351563 7.32996094 5.31703125 6.37304688 5.3515625 C5.0340332 5.37089844 5.0340332 5.37089844 3.66796875 5.390625 C2.84578857 5.41157227 2.0236084 5.43251953 1.17651367 5.45410156 C-1 5 -1 5 -2.79174805 2.97558594 C-3.38983276 1.9976709 -3.38983276 1.9976709 -4 1 C-2 0 -2 0 0 0 Z " fill="#3F3867" transform="translate(26,78)"/>
<path d="M0 0 C0.66 0.33 1.32 0.66 2 1 C2 1.66 2 2.32 2 3 C3.32 3.66 4.64 4.32 6 5 C5.67 5.99 5.34 6.98 5 8 C3.35 8.33 1.7 8.66 0 9 C-0.66 8.01 -1.32 7.02 -2 6 C-1.01 6 -0.02 6 1 6 C0.67 4.02 0.34 2.04 0 0 Z M-5 6 C-4.34 6 -3.68 6 -3 6 C-3 6.66 -3 7.32 -3 8 C-2.34 8.33 -1.68 8.66 -1 9 C-2.32 8.67 -3.64 8.34 -5 8 C-5 7.34 -5 6.68 -5 6 Z " fill="#322170" transform="translate(35,72)"/>
<path d="M0 0 C0.66 0 1.32 0 2 0 C2 1.32 2 2.64 2 4 C-2.07142857 7 -2.07142857 7 -5 7 C-5 7.66 -5 8.32 -5 9 C-5.99 9.33 -6.98 9.66 -8 10 C-7.67 7.69 -7.34 5.38 -7 3 C-3.535 2.505 -3.535 2.505 0 2 C0 1.34 0 0.68 0 0 Z " fill="#311470" transform="translate(61,33)"/>
<path d="M0 0 C1.65 0 3.3 0 5 0 C5 2.97 5 5.94 5 9 C3.68 9 2.36 9 1 9 C0.67 6.03 0.34 3.06 0 0 Z " fill="#CE8787" transform="translate(104,104)"/>
<path d="M0 0 C1.67542976 0.28604898 3.34385343 0.61781233 5 1 C5 1.66 5 2.32 5 3 C3.68 2.67 2.36 2.34 1 2 C1 3.65 1 5.3 1 7 C2.32 6.67 3.64 6.34 5 6 C5 6.66 5 7.32 5 8 C2.625 8.625 2.625 8.625 0 9 C-0.66 8.34 -1.32 7.68 -2 7 C-1.43181818 1.43181818 -1.43181818 1.43181818 0 0 Z " fill="#BA6867" transform="translate(16,104)"/>
<path d="M0 0 C0 1.65 0 3.3 0 5 C-0.99 5.495 -0.99 5.495 -2 6 C-2.66 5.67 -3.32 5.34 -4 5 C-4.33 6.65 -4.66 8.3 -5 10 C-5.66 9.67 -6.32 9.34 -7 9 C-6.6875 5.625 -6.6875 5.625 -6 2 C-3 0 -3 0 0 0 Z " fill="#FCFBFB" transform="translate(37,44)"/>
<path d="M0 0 C0 2.97 0 5.94 0 9 C-0.33 9 -0.66 9 -1 9 C-1.33 7.35 -1.66 5.7 -2 4 C-3.65 6.31 -5.3 8.62 -7 11 C-7.66 10.67 -8.32 10.34 -9 10 C-7.6834994 5.81113445 -4.97532335 0 0 0 Z " fill="#FBDF19" transform="translate(48,41)"/>
<path d="M0 0 C1.65 0.33 3.3 0.66 5 1 C4.34 1.66 3.68 2.32 3 3 C3.66 3.33 4.32 3.66 5 4 C4.67 5.65 4.34 7.3 4 9 C2.35 8.67 0.7 8.34 -1 8 C-1 7.34 -1 6.68 -1 6 C0.32 6.33 1.64 6.66 3 7 C3 6.34 3 5.68 3 5 C1.68 4.67 0.36 4.34 -1 4 C-0.67 2.68 -0.34 1.36 0 0 Z " fill="#B6565A" transform="translate(85,104)"/>
<path d="M0 0 C2.31 0.33 4.62 0.66 7 1 C7 2.65 7 4.3 7 6 C5.35 6.33 3.7 6.66 2 7 C2.66 6.67 3.32 6.34 4 6 C4 5.34 4 4.68 4 4 C2.68 4.33 1.36 4.66 0 5 C0 3.35 0 1.7 0 0 Z " fill="#F9E0D6" transform="translate(17,106)"/>
<path d="M0 0 C1.67542976 0.28604898 3.34385343 0.61781233 5 1 C4.67 1.66 4.34 2.32 4 3 C3.01 2.67 2.02 2.34 1 2 C1 3.65 1 5.3 1 7 C2.32 6.67 3.64 6.34 5 6 C4.67 6.99 4.34 7.98 4 9 C2.35 8.67 0.7 8.34 -1 8 C-1.04241723 5.66705225 -1.04092937 3.33297433 -1 1 C-0.67 0.67 -0.34 0.34 0 0 Z " fill="#B1615B" transform="translate(43,104)"/>
<path d="M0 0 C0.99 0 1.98 0 3 0 C3.33 1.32 3.66 2.64 4 4 C2.02 5.32 0.04 6.64 -2 8 C-3.0625 6.125 -3.0625 6.125 -4 4 C-3.67 3.34 -3.34 2.68 -3 2 C-2.01 2 -1.02 2 0 2 C0 1.34 0 0.68 0 0 Z " fill="#231764" transform="translate(17,45)"/>
<path d="M0 0 C0.99 0.33 1.98 0.66 3 1 C3 1.66 3 2.32 3 3 C2.34 3 1.68 3 1 3 C1 4.65 1 6.3 1 8 C-0.32 8.33 -1.64 8.66 -3 9 C-3.75 7.3125 -3.75 7.3125 -4 5 C-2.0625 2.25 -2.0625 2.25 0 0 Z " fill="#F9F8F7" transform="translate(41,35)"/>
<path d="M0 0 C1.32 0.33 2.64 0.66 4 1 C4.63019694 10.17286652 4.63019694 10.17286652 2 13.625 C1.34 14.07875 0.68 14.5325 0 15 C0.14204741 13.41632253 0.28880153 11.83306682 0.4375 10.25 C0.51871094 9.36828125 0.59992187 8.4865625 0.68359375 7.578125 C0.96238465 5.30649548 1.38790577 3.20148177 2 1 C1.34 0.67 0.68 0.34 0 0 Z " fill="#F4C12A" transform="translate(41,55)"/>
<path d="M0 0 C0.33 0.66 0.66 1.32 1 2 C1.66 2 2.32 2 3 2 C2.67 5.96 2.34 9.92 2 14 C-0.63091471 10.05362794 -1.40815007 6.27397897 -0.5625 1.5625 C-0.376875 1.046875 -0.19125 0.53125 0 0 Z " fill="#24175F" transform="translate(131,44)"/>
<path d="M0 0 C1.65 0 3.3 0 5 0 C4.125 6.75 4.125 6.75 3 9 C2.01 9 1.02 9 0 9 C0 6.03 0 3.06 0 0 Z " fill="#D59796" transform="translate(135,104)"/>
<path d="M0 0 C0.33 0 0.66 0 1 0 C1 1.98 1 3.96 1 6 C0.01 6.33 -0.98 6.66 -2 7 C-2 7.66 -2 8.32 -2 9 C-2.66 9 -3.32 9 -4 9 C-4.33 9.99 -4.66 10.98 -5 12 C-5.66 12 -6.32 12 -7 12 C-5.33333333 8.66666667 -3.66666667 5.33333333 -2 2 C-1.34 2 -0.68 2 0 2 C0 1.34 0 0.68 0 0 Z " fill="#DD9542" transform="translate(26,64)"/>
<path d="M0 0 C2.02350324 3.03525486 2.32124018 4.19426202 2.625 7.6875 C2.69976562 8.49574219 2.77453125 9.30398437 2.8515625 10.13671875 C2.92503906 11.05904297 2.92503906 11.05904297 3 12 C1.078125 11.66015625 1.078125 11.66015625 -1 11 C-2.25 8.4375 -2.25 8.4375 -3 6 C-2.34 6 -1.68 6 -1 6 C-0.67 4.02 -0.34 2.04 0 0 Z " fill="#22136E" transform="translate(126,53)"/>
<path d="M0 0 C1.32 0.99 2.64 1.98 4 3 C3.0479279 4.00596297 2.08812654 5.00461563 1.125 6 C0.59132813 6.556875 0.05765625 7.11375 -0.4921875 7.6875 C-2 9 -2 9 -4 9 C-3.46930939 5.17902761 -2.50298434 2.93828597 0 0 Z " fill="#FBCB37" transform="translate(31,59)"/>
<path d="M0 0 C1.15154588 2.82652171 1.07817396 3.81325108 -0.125 6.6875 C-2 9 -2 9 -4.6875 9.8125 C-5.450625 9.874375 -6.21375 9.93625 -7 10 C-5.33248852 6.05860922 -2.77289351 3.2107188 0 0 Z " fill="#3C3269" transform="translate(21,37)"/>
<path d="M0 0 C1.32 0 2.64 0 4 0 C3.625 1.9375 3.625 1.9375 3 4 C2.01 4.495 2.01 4.495 1 5 C1 5.99 1 6.98 1 8 C0.01 8.33 -0.98 8.66 -2 9 C-2.25 3.375 -2.25 3.375 0 0 Z " fill="#FDEDEC" transform="translate(68,104)"/>
<path d="M0 0 C0.66 1.32 1.32 2.64 2 4 C1.01 4 0.02 4 -1 4 C-1.33 5.65 -1.66 7.3 -2 9 C-2.66 9 -3.32 9 -4 9 C-4.33 9.66 -4.66 10.32 -5 11 C-6 8 -6 8 -5.3125 6.0625 C-3.80558405 3.69448922 -2.04700257 1.91053573 0 0 Z " fill="#23165B" transform="translate(26,33)"/>
<path d="M0 0 C2.31 0 4.62 0 7 0 C7 0.66 7 1.32 7 2 C6.01 2 5.02 2 4 2 C4 4.31 4 6.62 4 9 C3.34 9 2.68 9 2 9 C2 6.69 2 4.38 2 2 C1.34 2 0.68 2 0 2 C0 1.34 0 0.68 0 0 Z " fill="#B5595D" transform="translate(91,104)"/>
<path d="M0 0 C1.0625 1.875 1.0625 1.875 2 4 C1.67 4.66 1.34 5.32 1 6 C2.32 6.66 3.64 7.32 5 8 C2.03 8 -0.94 8 -4 8 C-2.87548273 5.0280615 -1.77706209 2.66559313 0 0 Z " fill="#EADADC" transform="translate(80,24)"/>
<path d="M0 0 C0.66 0.33 1.32 0.66 2 1 C1.67 3.64 1.34 6.28 1 9 C0.67 8.34 0.34 7.68 0 7 C-1.32 7 -2.64 7 -4 7 C-4 5.35 -4 3.7 -4 2 C-2.68 2 -1.36 2 0 2 C0 1.34 0 0.68 0 0 Z " fill="#F7BAB5" transform="translate(13,104)"/>
<path d="M0 0 C3.3 0 6.6 0 10 0 C10 0.66 10 1.32 10 2 C6.52674819 3.1577506 3.63932552 3.06866652 0 3 C0 2.01 0 1.02 0 0 Z " fill="#F9FCFD" transform="translate(0,100)"/>
<path d="M0 0 C0.66 0 1.32 0 2 0 C2.33 0.66 2.66 1.32 3 2 C3.33 1.34 3.66 0.68 4 0 C4.99 0.33 5.98 0.66 7 1 C6.01 3.31 5.02 5.62 4 8 C3.34 8 2.68 8 2 8 C0.74335022 5.09399739 0 3.20395416 0 0 Z " fill="#AB605D" transform="translate(61,104)"/>
<path d="M0 0 C-0.33 1.65 -0.66 3.3 -1 5 C-2.32 5 -3.64 5 -5 5 C-5.33 5.66 -5.66 6.32 -6 7 C-6.99 6.67 -7.98 6.34 -9 6 C-8.07213211 4.99105628 -7.13231567 3.99309093 -6.1875 3 C-5.66542969 2.443125 -5.14335937 1.88625 -4.60546875 1.3125 C-3 0 -3 0 0 0 Z " fill="#FBEAEE" transform="translate(22,78)"/>
<path d="M0 0 C1.65 0 3.3 0 5 0 C5 3.63 5 7.26 5 11 C3 9 3 9 2.875 5.375 C2.91625 4.26125 2.9575 3.1475 3 2 C2.01 2 1.02 2 0 2 C0 1.34 0 0.68 0 0 Z " fill="#241959" transform="translate(0,71)"/>
<path d="M0 0 C0.33 0.66 0.66 1.32 1 2 C1.66 2 2.32 2 3 2 C2.42655063 4.86724686 2.1385485 5.8614515 0 8 C-0.99 8 -1.98 8 -3 8 C-3 6.68 -3 5.36 -3 4 C-2.01 4 -1.02 4 0 4 C0 2.68 0 1.36 0 0 Z " fill="#31126A" transform="translate(21,62)"/>
<path d="M0 0 C0.99 0.33 1.98 0.66 3 1 C3 1.66 3 2.32 3 3 C3.99 3.33 4.98 3.66 6 4 C4.68 4.99 3.36 5.98 2 7 C1.34 6.01 0.68 5.02 0 4 C-1.32 4.33 -2.64 4.66 -4 5 C-2.68 3.35 -1.36 1.7 0 0 Z " fill="#F4E9E5" transform="translate(35,41)"/>
<path d="M0 0 C-1.28627711 1.17260611 -2.57919783 2.3379283 -3.875 3.5 C-4.59429687 4.1496875 -5.31359375 4.799375 -6.0546875 5.46875 C-8 7 -8 7 -10 7 C-9.67 6.01 -9.34 5.02 -9 4 C-8.34 4 -7.68 4 -7 4 C-6.67 2.68 -6.34 1.36 -6 0 C-2.25 -1.125 -2.25 -1.125 0 0 Z " fill="#864D24" transform="translate(64,39)"/>
<path d="M0 0 C1.16691444 3.48419134 0.85285758 6.10222787 0.1875 9.6875 C0.01605469 10.66074219 -0.15539063 11.63398437 -0.33203125 12.63671875 C-0.55246094 13.41660156 -0.77289063 14.19648437 -1 15 C-1.99 15.495 -1.99 15.495 -3 16 C-2.88628503 13.70774565 -2.75869036 11.41617612 -2.625 9.125 C-2.55539063 7.84882812 -2.48578125 6.57265625 -2.4140625 5.2578125 C-2 2 -2 2 0 0 Z " fill="#EDC6BB" transform="translate(40,59)"/>
<path d="M0 0 C0.99 0.33 1.98 0.66 3 1 C1.35 3.64 -0.3 6.28 -2 9 C-2.33 8.34 -2.66 7.68 -3 7 C-3.66 6.67 -4.32 6.34 -5 6 C-4.67 5.34 -4.34 4.68 -4 4 C-3.34 4 -2.68 4 -2 4 C-1.34 2.68 -0.68 1.36 0 0 Z " fill="#F9E7E2" transform="translate(33,49)"/>
<path d="M0 0 C0.66 0 1.32 0 2 0 C3.35439668 2.70879335 3.06501451 5.00933268 3 8 C1.68 8.33 0.36 8.66 -1 9 C-0.67 6.03 -0.34 3.06 0 0 Z " fill="#F8D1CE" transform="translate(125,104)"/>
<path d="M0 0 C1.98 0 3.96 0 6 0 C6 0.66 6 1.32 6 2 C5.34 2 4.68 2 4 2 C4 3.98 4 5.96 4 8 C3.34 8 2.68 8 2 8 C2 6.02 2 4.04 2 2 C1.34 2 0.68 2 0 2 C0 1.34 0 0.68 0 0 Z " fill="#B34B4F" transform="translate(127,104)"/>
<path d="M0 0 C1.98 0 3.96 0 6 0 C6 0.66 6 1.32 6 2 C5.34 2 4.68 2 4 2 C4 3.98 4 5.96 4 8 C3.34 8 2.68 8 2 8 C2 6.02 2 4.04 2 2 C1.34 2 0.68 2 0 2 C0 1.34 0 0.68 0 0 Z " fill="#B74D5B" transform="translate(22,104)"/>
<path d="M0 0 C3.3 0 6.6 0 10 0 C10 0.99 10 1.98 10 3 C8.68 3 7.36 3 6 3 C6 2.34 6 1.68 6 1 C5.01 1 4.02 1 3 1 C3 1.66 3 2.32 3 3 C2.01 3 1.02 3 0 3 C0 2.01 0 1.02 0 0 Z " fill="#21205F" transform="translate(2,95)"/>
<path d="M0 0 C0 3.36403475 -0.61880053 4.40092917 -2.375 7.1875 C-2.81585938 7.90292969 -3.25671875 8.61835937 -3.7109375 9.35546875 C-4.13632812 9.89816406 -4.56171875 10.44085938 -5 11 C-5.66 11 -6.32 11 -7 11 C-7 10.01 -7 9.02 -7 8 C-6.34 8 -5.68 8 -5 8 C-4.731875 7.236875 -4.46375 6.47375 -4.1875 5.6875 C-3.05575888 3.12619116 -2.08776599 1.80307062 0 0 Z " fill="#854321" transform="translate(55,53)"/>
<path d="M0 0 C0.99 0.33 1.98 0.66 3 1 C2.34 2.65 1.68 4.3 1 6 C-0.32 6 -1.64 6 -3 6 C-2.42655063 3.13275314 -2.1385485 2.1385485 0 0 Z " fill="#F6F3FC" transform="translate(140,41)"/>
<path d="M0 0 C0.66 0 1.32 0 2 0 C2 2.64 2 5.28 2 8 C-0.31 7.67 -2.62 7.34 -5 7 C-5 6.34 -5 5.68 -5 5 C-2.525 5.495 -2.525 5.495 0 6 C0 4.02 0 2.04 0 0 Z " fill="#FEF5ED" transform="translate(27,107)"/>
<path d="M0 0 C0 1.65 0 3.3 0 5 C-2.31 5 -4.62 5 -7 5 C-7 4.34 -7 3.68 -7 3 C-6.34 3 -5.68 3 -5 3 C-4.67 2.34 -4.34 1.68 -4 1 C-1 0 -1 0 0 0 Z " fill="#2E1778" transform="translate(21,61)"/>
<path d="M0 0 C0 0.66 0 1.32 0 2 C-3.71973879 4.84450614 -6.37390802 5.3227506 -11 5 C-10.4225 4.731875 -9.845 4.46375 -9.25 4.1875 C-6.94603902 3.05815166 -6.94603902 3.05815166 -4.9375 1.375 C-3 0 -3 0 0 0 Z " fill="#E7E1F5" transform="translate(117,65)"/>
<path d="M0 0 C1.32 1.32 2.64 2.64 4 4 C3.67 4.99 3.34 5.98 3 7 C2.34 7 1.68 7 1 7 C1 6.34 1 5.68 1 5 C0.34 5 -0.32 5 -1 5 C-1.33 3.68 -1.66 2.36 -2 1 C-1.34 0.67 -0.68 0.34 0 0 Z " fill="#4A2956" transform="translate(23,59)"/>
<path d="M0 0 C2.31 0 4.62 0 7 0 C7 0.66 7 1.32 7 2 C6.01 2 5.02 2 4 2 C4 4.31 4 6.62 4 9 C3.67 9 3.34 9 3 9 C3 6.69 3 4.38 3 2 C2.01 2 1.02 2 0 2 C0 1.34 0 0.68 0 0 Z " fill="#B1525A" transform="translate(53,104)"/>
<path d="M0 0 C0.66 0.33 1.32 0.66 2 1 C1.67 2.32 1.34 3.64 1 5 C0.01 5 -0.98 5 -2 5 C-2 5.66 -2 6.32 -2 7 C-2.66 7 -3.32 7 -4 7 C-3.6875 4.625 -3.6875 4.625 -3 2 C-2.01 1.34 -1.02 0.68 0 0 Z " fill="#40154E" transform="translate(26,72)"/>
<path d="M0 0 C0.66 0 1.32 0 2 0 C1.8864371 1.64666203 1.75882619 3.29236082 1.625 4.9375 C1.52058594 6.31228516 1.52058594 6.31228516 1.4140625 7.71484375 C1.27742188 8.46894531 1.14078125 9.22304687 1 10 C0.01 10.495 0.01 10.495 -1 11 C-0.67 8.36 -0.34 5.72 0 3 C-0.66 2.67 -1.32 2.34 -2 2 C-1.34 1.34 -0.68 0.68 0 0 Z " fill="#A56413" transform="translate(41,56)"/>
<path d="M0 0 C0.66 0 1.32 0 2 0 C2 1.98 2 3.96 2 6 C0.68 6 -0.64 6 -2 6 C-2 4.68 -2 3.36 -2 2 C-1.34 2 -0.68 2 0 2 C0 1.34 0 0.68 0 0 Z " fill="#FCE0D8" transform="translate(5,105)"/>
<path d="M0 0 C1.32 0 2.64 0 4 0 C3.67 0.99 3.34 1.98 3 3 C2.34 3 1.68 3 1 3 C1 3.66 1 4.32 1 5 C-0.65 5.33 -2.3 5.66 -4 6 C-3.67 5.34 -3.34 4.68 -3 4 C-2.01 4 -1.02 4 0 4 C0 2.68 0 1.36 0 0 Z " fill="#401943" transform="translate(63,33)"/>
<path d="M0 0 C0.33 0 0.66 0 1 0 C1 2.31 1 4.62 1 7 C0.01 7.33 -0.98 7.66 -2 8 C-2.66 7.67 -3.32 7.34 -4 7 C-4 6.34 -4 5.68 -4 5 C-3.01 4.34 -2.02 3.68 -1 3 C-0.67 2.01 -0.34 1.02 0 0 Z " fill="#F4F0FA" transform="translate(47,74)"/>
<path d="M0 0 C0.99 0 1.98 0 3 0 C3 0.99 3 1.98 3 3 C2.34 3 1.68 3 1 3 C1.33 5.64 1.66 8.28 2 11 C1.34 11 0.68 11 0 11 C0 7.37 0 3.74 0 0 Z " fill="#312567" transform="translate(88,33)"/>
<path d="M0 0 C1.67542976 0.28604898 3.34385343 0.61781233 5 1 C5 1.66 5 2.32 5 3 C3.68 3 2.36 3 1 3 C0.34 3.99 -0.32 4.98 -1 6 C-1.042721 4.33388095 -1.04063832 2.66617115 -1 1 C-0.67 0.67 -0.34 0.34 0 0 Z " fill="#AA5B59" transform="translate(16,104)"/>
<path d="M0 0 C2.5 1.375 2.5 1.375 5 3 C5 3.66 5 4.32 5 5 C4.01 5.33 3.02 5.66 2 6 C1.01 4.68 0.02 3.36 -1 2 C-0.67 1.34 -0.34 0.68 0 0 Z " fill="#3A2F6B" transform="translate(11,64)"/>
<path d="M0 0 C0.66 0.66 1.32 1.32 2 2 C1.625 5.625 1.625 5.625 1 9 C0.34 8.34 -0.32 7.68 -1 7 C-0.625 3.375 -0.625 3.375 0 0 Z " fill="#FAF6FD" transform="translate(137,56)"/>
<path d="M0 0 C0.66 0.66 1.32 1.32 2 2 C0.02 4.31 -1.96 6.62 -4 9 C-4 5.00095031 -2.27413033 3.19799578 0 0 Z " fill="#B57633" transform="translate(37,48)"/>
<path d="M0 0 C1.32 1.65 2.64 3.3 4 5 C2.68 5.33 1.36 5.66 0 6 C-0.66 4.35 -1.32 2.7 -2 1 C-1.34 0.67 -0.68 0.34 0 0 Z " fill="#382F66" transform="translate(130,40)"/>
</svg>
