<?xml version="1.0" encoding="UTF-8"?>
<svg version="1.1" xmlns="http://www.w3.org/2000/svg" width="200" height="188">
<path d="M0 0 C66 0 132 0 200 0 C200 62.04 200 124.08 200 188 C134 188 68 188 0 188 C0 125.96 0 63.92 0 0 Z " fill="#FEFEFE" transform="translate(0,0)"/>
<path d="M0 0 C22.55897698 -0.20054405 22.55897698 -0.20054405 32.21484375 -0.24414062 C38.7897574 -0.27396783 45.3643211 -0.30915835 51.93896484 -0.37719727 C57.24284309 -0.43173858 62.54634578 -0.46146724 67.85048294 -0.47438622 C69.86860689 -0.48358645 71.88671154 -0.50155222 73.90467453 -0.52865028 C86.80984975 -0.69496986 95.99125843 -0.42366015 106.0625 8.4375 C108.86998748 11.44269787 109.89741182 13.79388475 110 18 C110.66 18 111.32 18 112 18 C112.13535156 17.41992188 112.27070313 16.83984375 112.41015625 16.2421875 C114.13590968 9.97987267 116.46513637 6.4537549 122 3 C129.24594476 -0.82585884 135.77476663 -0.78492818 143.5 1.5 C144.985 1.995 146.47 2.49 148 3 C148 6.63 148 10.26 148 14 C147.01 14 146.02 14 145 14 C145 13.34 145 12.68 145 12 C139.39 11.34 133.78 10.68 128 10 C128 10.66 128 11.32 128 12 C127.195625 12.495 126.39125 12.99 125.5625 13.5 C122.26022609 16.72173064 122.04233651 18.88777257 121.7890625 23.38671875 C122.11717453 27.4516622 123.58493579 30.73155622 126 34 C128.8194068 35.4097034 131.23267226 35.16984647 134.375 35.1875 C136.08816406 35.20876953 136.08816406 35.20876953 137.8359375 35.23046875 C140.90089086 35.00721906 142.37983739 34.46013467 145 33 C145.99 33 146.98 33 148 33 C148 36.3 148 39.6 148 43 C143.0078656 44.6168074 138.73846231 45.29618935 133.4375 45.3125 C132.17808594 45.32925781 130.91867188 45.34601563 129.62109375 45.36328125 C122.51875333 44.65074872 118.86740986 41.25664712 114.48046875 36.0078125 C112.83896252 33.78160088 111.75019041 31.66734369 111 29 C110.70867187 29.60328125 110.41734375 30.2065625 110.1171875 30.828125 C107.41061078 36.10509848 105.32291452 39.27939924 100 42 C99.34 42 98.68 42 98 42 C98 42.66 98 43.32 98 44 C92.1212212 45.69114622 86.92891705 46.28100475 80.83007812 46.22705078 C79.95108856 46.22734283 79.072099 46.22763489 78.16647339 46.22793579 C75.2879619 46.22655278 72.40971575 46.21104042 69.53125 46.1953125 C67.52486309 46.19157871 65.51847435 46.18873347 63.51208496 46.18673706 C58.25137224 46.17912946 52.99077133 46.15950578 47.73010254 46.1373291 C41.40740265 46.11319575 35.08466522 46.10407601 28.76193237 46.09242249 C19.17454401 46.07307963 9.58740059 46.03473696 0 46 C0 30.82 0 15.64 0 0 Z " fill="#D35056" transform="translate(26,62)"/>
<path d="M0 0 C1.65 0.33 3.3 0.66 5 1 C5 1.66 5 2.32 5 3 C7.64 3 10.28 3 13 3 C13 3.66 13 4.32 13 5 C13.91845703 4.50886719 13.91845703 4.50886719 14.85546875 4.0078125 C19.35579191 2.5654729 23.62009636 2.78877916 28.3125 2.875 C29.24384766 2.88402344 30.17519531 2.89304687 31.13476562 2.90234375 C33.4234436 2.92581737 35.71158672 2.95865271 38 3 C38 2.34 38 1.68 38 1 C38.556875 1.144375 39.11375 1.28875 39.6875 1.4375 C42.11387604 2.02769958 44.55038269 2.51657635 47 3 C46.88496731 5.5216376 46.75825223 8.0418119 46.625 10.5625 C46.57859375 11.61920898 46.57859375 11.61920898 46.53125 12.69726562 C46.27047442 17.41295741 45.45341877 21.50385496 44 26 C43.01 26 42.02 26 41 26 C40.67 24.68 40.34 23.36 40 22 C39.62875 22.9590625 39.62875 22.9590625 39.25 23.9375 C38 26 38 26 35.9375 26.8125 C35.298125 26.874375 34.65875 26.93625 34 27 C33.67 26.67 33.34 26.34 33 26 C31.88625 26 30.7725 26 29.625 26 C26 26 26 26 23 25 C22.505 26.485 22.505 26.485 22 28 C21.12988281 27.85691406 21.12988281 27.85691406 20.2421875 27.7109375 C15.11855493 26.98382133 11.92537416 27.20895485 7 29 C5.32542015 28.70901679 3.65919896 28.36871088 2 28 C-0.01748379 27.76140139 -2.03886478 27.55408276 -4.0625 27.375 C-5.08472656 27.27960938 -6.10695313 27.18421875 -7.16015625 27.0859375 C-9.92767374 26.87195264 -9.92767374 26.87195264 -12.25 27.5703125 C-12.8275 27.71210938 -13.405 27.85390625 -14 28 C-14.9590625 27.2575 -14.9590625 27.2575 -15.9375 26.5 C-17.95072841 24.68069452 -17.95072841 24.68069452 -20.75 25.3125 C-21.4925 25.539375 -22.235 25.76625 -23 26 C-23.495 24.515 -23.495 24.515 -24 23 C-24.66 22.67 -25.32 22.34 -26 22 C-26 23.98 -26 25.96 -26 28 C-26.86951294 27.99214478 -26.86951294 27.99214478 -27.7565918 27.98413086 C-30.4002167 27.96325666 -33.04382421 27.95030673 -35.6875 27.9375 C-36.59951172 27.92912109 -37.51152344 27.92074219 -38.45117188 27.91210938 C-39.78051758 27.90727539 -39.78051758 27.90727539 -41.13671875 27.90234375 C-41.94842529 27.89710693 -42.76013184 27.89187012 -43.59643555 27.88647461 C-46.14864673 28.0070209 -48.51026137 28.440051 -51 29 C-51 28.01 -51 27.02 -51 26 C-51.82886719 26.34546875 -52.65773437 26.6909375 -53.51171875 27.046875 C-57.52443807 28.14329551 -60.78002254 27.8794599 -64.8125 27.25 C-65.49248047 27.16234375 -66.17246094 27.0746875 -66.87304688 26.984375 C-68.59558413 26.73707154 -70.30114144 26.37705862 -72 26 C-72.33 25.34 -72.66 24.68 -73 24 C-73.33 24.99 -73.66 25.98 -74 27 C-74.84763916 26.95456055 -74.84763916 26.95456055 -75.71240234 26.90820312 C-78.26657265 26.77158838 -80.82078543 26.6357844 -83.375 26.5 C-84.26445313 26.45230469 -85.15390625 26.40460938 -86.0703125 26.35546875 C-86.92109375 26.31035156 -87.771875 26.26523438 -88.6484375 26.21875 C-89.43395996 26.17685547 -90.21948242 26.13496094 -91.02880859 26.09179688 C-92.35145924 26.03020205 -93.67591592 26 -95 26 C-97.33333333 26 -99.66666667 26 -102 26 C-102.02887512 22.35418313 -102.04675585 18.70839537 -102.0625 15.0625 C-102.07087891 14.02158203 -102.07925781 12.98066406 -102.08789062 11.90820312 C-102.09272461 10.42416992 -102.09272461 10.42416992 -102.09765625 8.91015625 C-102.10289307 7.99371338 -102.10812988 7.07727051 -102.11352539 6.13305664 C-102 4 -102 4 -101 3 C-97.29320571 2.5774013 -93.69865783 2.48429508 -90 3 C-87.9375 5.4375 -87.9375 5.4375 -87 8 C-86.34 8.33 -85.68 8.66 -85 9 C-85 7.02 -85 5.04 -85 3 C-84.34 3 -83.68 3 -83 3 C-83 6.63 -83 10.26 -83 14 C-83.99 14 -84.98 14 -86 14 C-87.04892238 12.36368108 -88.04906703 10.69514137 -89 9 C-89.66 8.67 -90.32 8.34 -91 8 C-91 9.98 -91 11.96 -91 14 C-91.99 14 -92.98 14 -94 14 C-94 14.99 -94 15.98 -94 17 C-88.72 16.67 -83.44 16.34 -78 16 C-78.99 14.68 -79.98 13.36 -81 12 C-81.37460816 9.26286305 -81.13898721 6.77974416 -81 4 C-80.34 4 -79.68 4 -79 4 C-79 6.31 -79 8.62 -79 11 C-77.68 11 -76.36 11 -75 11 C-75 8.36 -75 5.72 -75 3 C-72.525 3.495 -72.525 3.495 -70 4 C-70 3.34 -70 2.68 -70 2 C-68.83082031 2.01160156 -67.66164062 2.02320312 -66.45703125 2.03515625 C-64.90885577 2.04453913 -63.36067855 2.0536388 -61.8125 2.0625 C-61.04357422 2.07087891 -60.27464844 2.07925781 -59.48242188 2.08789062 C-55.51473211 2.10491934 -51.87428766 1.98604115 -48 1 C-48 1.99 -48 2.98 -48 4 C-47.29786377 3.51104248 -46.59572754 3.02208496 -45.87231445 2.51831055 C-42.60670528 0.79210371 -40.70711264 0.65065981 -37.04296875 0.70703125 C-35.93115234 0.71669922 -34.81933594 0.72636719 -33.67382812 0.73632812 C-32.52333984 0.76146484 -31.37285156 0.78660156 -30.1875 0.8125 C-29.01767578 0.82603516 -27.84785156 0.83957031 -26.64257812 0.85351562 C-23.761248 0.88879722 -20.88086096 0.9380972 -18 1 C-18 1.66 -18 2.32 -18 3 C-17.34 3 -16.68 3 -16 3 C-16 2.34 -16 1.68 -16 1 C-10.55306686 0.90311779 -5.36095333 0.87137825 0 2 C0 1.34 0 0.68 0 0 Z " fill="#E6FAFB" transform="translate(128,108)"/>
<path d="M0 0 C30.36 0 60.72 0 92 0 C92 0.33 92 0.66 92 1 C64.775 1.495 64.775 1.495 37 2 C37 15.86 37 29.72 37 44 C53.335 44.495 53.335 44.495 70 45 C70 44.34 70 43.68 70 43 C68.515 42.505 68.515 42.505 67 42 C66.45859375 41.17113281 65.9171875 40.34226563 65.359375 39.48828125 C62.38725061 36.35377258 60.76988122 36.36524784 56.60546875 36.20507812 C55.82816406 36.19927734 55.05085938 36.19347656 54.25 36.1875 C53.45722656 36.16236328 52.66445312 36.13722656 51.84765625 36.11132812 C49.89896805 36.0526327 47.94943141 36.0234102 46 36 C46 33.03 46 30.06 46 27 C51.28 27 56.56 27 62 27 C62 24.36 62 21.72 62 19 C56.72 19 51.44 19 46 19 C46 16.03 46 13.06 46 10 C47.84464844 10.01353516 47.84464844 10.01353516 49.7265625 10.02734375 C58.50809099 10.26453645 58.50809099 10.26453645 66.49609375 7.375 C68.27207576 5.2878227 68.27207576 5.2878227 70 2 C70.33 2 70.66 2 71 2 C71 16.19 71 30.38 71 45 C77.27 45 83.54 45 90 45 C90 45.33 90 45.66 90 46 C60.3 46 30.6 46 0 46 C0 30.82 0 15.64 0 0 Z " fill="#FCF3F1" transform="translate(26,62)"/>
<path d="M0 0 C4.95 0.99 4.95 0.99 10 2 C10 2.66 10 3.32 10 4 C10.66 4 11.32 4 12 4 C12 3.34 12 2.68 12 2 C12.66 2 13.32 2 14 2 C14 4.31 14 6.62 14 9 C15.32 9 16.64 9 18 9 C18 6.36 18 3.72 18 1 C18.99 1 19.98 1 21 1 C20.91918418 4.43846747 20.80633848 7.87515312 20.6875 11.3125 C20.66494141 12.28896484 20.64238281 13.26542969 20.61914062 14.27148438 C20.58369141 15.20927734 20.54824219 16.14707031 20.51171875 17.11328125 C20.48553467 17.97735596 20.45935059 18.84143066 20.43237305 19.73168945 C19.91746068 22.43301683 19.13275889 23.31958439 17 25 C13.21260983 26.63802458 9.27494388 25.74171432 5.3125 25.1875 C4.62349609 25.10435547 3.93449219 25.02121094 3.22460938 24.93554688 C1.47121026 24.6993466 -0.2672422 24.35742049 -2 24 C-2.33 23.34 -2.66 22.68 -3 22 C-3.33 22.99 -3.66 23.98 -4 25 C-4.84763916 24.95456055 -4.84763916 24.95456055 -5.71240234 24.90820312 C-8.26657265 24.77158838 -10.82078543 24.6357844 -13.375 24.5 C-14.26445313 24.45230469 -15.15390625 24.40460938 -16.0703125 24.35546875 C-16.92109375 24.31035156 -17.771875 24.26523438 -18.6484375 24.21875 C-19.43395996 24.17685547 -20.21948242 24.13496094 -21.02880859 24.09179688 C-22.35145924 24.03020205 -23.67591592 24 -25 24 C-27.33333333 24 -29.66666667 24 -32 24 C-32.02887512 20.35418313 -32.04675585 16.70839537 -32.0625 13.0625 C-32.07087891 12.02158203 -32.07925781 10.98066406 -32.08789062 9.90820312 C-32.09272461 8.42416992 -32.09272461 8.42416992 -32.09765625 6.91015625 C-32.10289307 5.99371338 -32.10812988 5.07727051 -32.11352539 4.13305664 C-32 2 -32 2 -31 1 C-27.29320571 0.5774013 -23.69865783 0.48429508 -20 1 C-17.9375 3.4375 -17.9375 3.4375 -17 6 C-16.34 6.33 -15.68 6.66 -15 7 C-15 5.02 -15 3.04 -15 1 C-14.34 1 -13.68 1 -13 1 C-13 4.63 -13 8.26 -13 12 C-13.99 12 -14.98 12 -16 12 C-17.04892238 10.36368108 -18.04906703 8.69514137 -19 7 C-19.66 6.67 -20.32 6.34 -21 6 C-21 7.98 -21 9.96 -21 12 C-21.99 12 -22.98 12 -24 12 C-24 12.99 -24 13.98 -24 15 C-16.08 14.505 -16.08 14.505 -8 14 C-8.99 12.68 -9.98 11.36 -11 10 C-11.37460816 7.26286305 -11.13898721 4.77974416 -11 2 C-10.34 2 -9.68 2 -9 2 C-9 4.31 -9 6.62 -9 9 C-7.68 9 -6.36 9 -5 9 C-5 6.36 -5 3.72 -5 1 C-2.525 1.495 -2.525 1.495 0 2 C0 1.34 0 0.68 0 0 Z " fill="#CBF3FB" transform="translate(58,110)"/>
<path d="M0 0 C11.55 0 23.1 0 35 0 C29 7 29 7 27 9 C24.0906442 9.14517744 21.280054 9.18630796 18.375 9.125 C17.57320312 9.11597656 16.77140625 9.10695313 15.9453125 9.09765625 C13.96341477 9.07406223 11.98167019 9.03819065 10 9 C10 11.97 10 14.94 10 18 C15.61 18 21.22 18 27 18 C27 20.97 27 23.94 27 27 C21.72 27 16.44 27 11 27 C11 29.64 11 32.28 11 35 C12.07378906 34.91878906 13.14757812 34.83757812 14.25390625 34.75390625 C25.51964865 34.15944283 25.51964865 34.15944283 29.62109375 36.48828125 C34 40.88539501 34 40.88539501 34 44 C22.78 44 11.56 44 0 44 C0 29.48 0 14.96 0 0 Z " fill="#DD3339" transform="translate(26,63)"/>
<path d="M0 0 C0 3.63 0 7.26 0 11 C-0.99 11 -1.98 11 -3 11 C-3 10.34 -3 9.68 -3 9 C-8.61 8.34 -14.22 7.68 -20 7 C-20 7.66 -20 8.32 -20 9 C-20.804375 9.495 -21.60875 9.99 -22.4375 10.5 C-25.73977391 13.72173064 -25.95766349 15.88777257 -26.2109375 20.38671875 C-25.88282547 24.4516622 -24.41506421 27.73155622 -22 31 C-19.1805932 32.4097034 -16.76732774 32.16984647 -13.625 32.1875 C-12.48289063 32.20167969 -11.34078125 32.21585938 -10.1640625 32.23046875 C-7.09910914 32.00721906 -5.62016261 31.46013467 -3 30 C-2.01 30 -1.02 30 0 30 C0 33.3 0 36.6 0 40 C-4.9921344 41.6168074 -9.26153769 42.29618935 -14.5625 42.3125 C-15.82191406 42.32925781 -17.08132812 42.34601563 -18.37890625 42.36328125 C-23.48483856 41.85103561 -26.73897364 39.97442946 -30.75 36.875 C-33.34628166 33.55752899 -33.95427924 31.07203854 -34.640625 26.98828125 C-34.91568717 24.93446244 -34.91568717 24.93446244 -36 23 C-35.98850868 20.89421517 -35.89276137 18.78847144 -35.75 16.6875 C-35.68296875 15.55699219 -35.6159375 14.42648438 -35.546875 13.26171875 C-34.63456388 7.82043456 -32.05127112 4.51868011 -27.73046875 1.13671875 C-18.46162515 -4.95184443 -9.96391805 -3.32130602 0 0 Z " fill="#CE4850" transform="translate(174,65)"/>
<path d="M0 0 C9.24 0 18.48 0 28 0 C28.33 0.66 28.66 1.32 29 2 C28.01 2 27.02 2 26 2 C26 2.66 26 3.32 26 4 C24.86820313 4.13277344 23.73640625 4.26554687 22.5703125 4.40234375 C21.08851821 4.5805342 19.60674864 4.75893029 18.125 4.9375 C17.37863281 5.02451172 16.63226563 5.11152344 15.86328125 5.20117188 C11.8046769 5.63326063 11.8046769 5.63326063 8 7 C7.53248212 9.35599235 7.53248212 9.35599235 7.375 12.0625 C7.25125 13.691875 7.1275 15.32125 7 17 C12.61 17 18.22 17 24 17 C24 18.65 24 20.3 24 22 C23 23 23 23 19.83984375 23.09765625 C18.55207031 23.08605469 17.26429687 23.07445313 15.9375 23.0625 C14.64714844 23.05347656 13.35679688 23.04445313 12.02734375 23.03515625 C11.02832031 23.02355469 10.02929688 23.01195313 9 23 C9 26.3 9 29.6 9 33 C10.16917969 32.93039063 11.33835937 32.86078125 12.54296875 32.7890625 C14.09108821 32.73276725 15.63927002 32.67816898 17.1875 32.625 C17.95642578 32.57472656 18.72535156 32.52445313 19.51757812 32.47265625 C25.19006686 32.32658358 25.19006686 32.32658358 27.59619141 34.32714844 C28.81254735 35.82179662 29.91366403 37.40834391 31 39 C31.66 39.33 32.32 39.66 33 40 C33 40.66 33 41.32 33 42 C22.11 42 11.22 42 0 42 C0 28.14 0 14.28 0 0 Z " fill="#D9222A" transform="translate(63,65)"/>
<path d="M0 0 C3.43742918 -0.05802698 6.87473253 -0.09360486 10.3125 -0.125 C11.28896484 -0.14175781 12.26542969 -0.15851563 13.27148438 -0.17578125 C14.20927734 -0.18222656 15.14707031 -0.18867187 16.11328125 -0.1953125 C16.97735596 -0.20578613 17.84143066 -0.21625977 18.73168945 -0.22705078 C21 0 21 0 24 2 C20.55512522 2.91863327 17.34589248 3.05428223 13.8046875 3.03125 C12.90476074 3.02673828 12.00483398 3.02222656 11.07763672 3.01757812 C10.04920654 3.00887695 10.04920654 3.00887695 9 3 C8.97534496 7.39656173 8.95716158 11.7930872 8.94506836 16.18969727 C8.94002879 17.68644918 8.93319713 19.18319616 8.92456055 20.67993164 C8.91247841 22.82699807 8.90676809 24.97399962 8.90234375 27.12109375 C8.89710693 28.4145874 8.89187012 29.70808105 8.88647461 31.04077148 C8.66003068 33.88652404 8.66003068 33.88652404 10 35 C12.53541298 34.90913549 15.03554784 34.7629055 17.5625 34.5625 C18.62887695 34.48418945 18.62887695 34.48418945 19.71679688 34.40429688 C21.47821999 34.27425893 23.23916173 34.13773103 25 34 C27.43430815 27.42736799 28.90109517 20.91663627 30 14 C29.34 14 28.68 14 28 14 C26.08152136 11.12228205 24.49920512 8.11373372 23 5 C22.01 5 21.02 5 20 5 C20 4.34 20 3.68 20 3 C21.32 3.33 22.64 3.66 24 4 C24 4.66 24 5.32 24 6 C25.8871875 6.0928125 25.8871875 6.0928125 27.8125 6.1875 C29.95703125 6.29296875 29.95703125 6.29296875 32 7 C35.11824455 10.83017253 35.51158437 14.34734859 35.8125 19.1875 C35.90144531 20.41855469 35.99039063 21.64960937 36.08203125 22.91796875 C36 26 36 26 34 28 C33.35232207 30.57061311 33.35232207 30.57061311 33 33 C31.68 33 30.36 33 29 33 C28.979375 33.598125 28.95875 34.19625 28.9375 34.8125 C27.69104534 37.72089422 25.94916306 38.23226409 23.10571289 39.3737793 C19.34401475 40.49247561 15.64969213 40.51278588 11.75 40.5 C10.54730469 40.54253906 10.54730469 40.54253906 9.3203125 40.5859375 C8.54945312 40.58851562 7.77859375 40.59109375 6.984375 40.59375 C5.94361816 40.60438477 5.94361816 40.60438477 4.88183594 40.61523438 C3 40 3 40 1.26928711 37.97192383 C-0.33630819 34.21256402 -0.37693034 30.86692164 -0.29296875 26.85546875 C-0.28872391 26.08568192 -0.28447906 25.31589508 -0.28010559 24.52278137 C-0.26338597 22.07732354 -0.2257477 19.63270643 -0.1875 17.1875 C-0.17244441 15.52410049 -0.15875754 13.86068799 -0.14648438 12.19726562 C-0.11350465 8.13118918 -0.06177006 4.06573687 0 0 Z " fill="#E31D27" transform="translate(99,65)"/>
<path d="M0 0 C0.556875 0.144375 1.11375 0.28875 1.6875 0.4375 C4.11387604 1.02769958 6.55038269 1.51657635 9 2 C8.88496731 4.5216376 8.75825223 7.0418119 8.625 9.5625 C8.57859375 10.61920898 8.57859375 10.61920898 8.53125 11.69726562 C8.27047442 16.41295741 7.45341877 20.50385496 6 25 C5.01 25 4.02 25 3 25 C2.67 23.68 2.34 22.36 2 21 C1.7525 21.639375 1.505 22.27875 1.25 22.9375 C0 25 0 25 -2.0625 25.8125 C-3.0215625 25.9053125 -3.0215625 25.9053125 -4 26 C-4.33 25.67 -4.66 25.34 -5 25 C-6.11375 25 -7.2275 25 -8.375 25 C-12 25 -12 25 -15 24 C-15.33 24.99 -15.66 25.98 -16 27 C-18.64 26.67 -21.28 26.34 -24 26 C-23.34 25.67 -22.68 25.34 -22 25 C-22 23.68 -22 22.36 -22 21 C-21.01 20.67 -20.02 20.34 -19 20 C-19 18.35 -19 16.7 -19 15 C-19.66 14.67 -20.32 14.34 -21 14 C-17.49223216 12.39644899 -14.85645121 11.77963136 -11 12 C-10.67 9.69 -10.34 7.38 -10 5 C-9.01 5 -8.02 5 -7 5 C-7 7.64 -7 10.28 -7 13 C-6.01 13 -5.02 13 -4 13 C-4 10.36 -4 7.72 -4 5 C-2.35 5 -0.7 5 1 5 C1.28875 6.134375 1.5775 7.26875 1.875 8.4375 C2.24625 9.613125 2.6175 10.78875 3 12 C3.66 12.33 4.32 12.66 5 13 C5 10.69 5 8.38 5 6 C5.66 6 6.32 6 7 6 C7 5.34 7 4.68 7 4 C6.34 3.67 5.68 3.34 5 3 C5 3.66 5 4.32 5 5 C4.01 4.67 3.02 4.34 2 4 C2 3.34 2 2.68 2 2 C1.34 2 0.68 2 0 2 C0 1.34 0 0.68 0 0 Z " fill="#D4F8FA" transform="translate(166,109)"/>
<path d="M0 0 C1.32 0 2.64 0 4 0 C5.31191997 6.95214281 5.11058058 13.88444903 5.0625 20.9375 C5.05798828 22.19369141 5.05347656 23.44988281 5.04882812 24.74414062 C5.03709681 27.82947663 5.020681 30.91471316 5 34 C0.16259766 32.19775391 0.16259766 32.19775391 -1.30078125 30.41796875 C-4.13898902 28.0495333 -7.64088245 28.42091189 -11.1875 28.3125 C-11.93708984 28.27833984 -12.68667969 28.24417969 -13.45898438 28.20898438 C-15.30546838 28.12665706 -17.15270994 28.06164719 -19 28 C-19 25.36 -19 22.72 -19 20 C-13.72 20 -8.44 20 -3 20 C-3.33 16.7 -3.66 13.4 -4 10 C-8.29 9.67 -12.58 9.34 -17 9 C-16.67 7.68 -16.34 6.36 -16 5 C-15.01257812 4.89042969 -14.02515625 4.78085938 -13.0078125 4.66796875 C-11.08582031 4.43013672 -11.08582031 4.43013672 -9.125 4.1875 C-7.84882812 4.03667969 -6.57265625 3.88585937 -5.2578125 3.73046875 C-1.72229684 3.33151918 -1.72229684 3.33151918 0 0 Z " fill="#F9FBF9" transform="translate(56,70)"/>
<path d="M0 0 C10.4 0 10.4 0 16 4 C18.97794964 8.46692447 18.61357248 12.76218611 18 18 C15.75946586 22.56108735 14.58950321 23.70524839 10 26 C6.7 26 3.4 26 0 26 C0 17.42 0 8.84 0 0 Z " fill="#FCF7F6" transform="translate(108,72)"/>
<path d="M0 0 C30.36 0 60.72 0 92 0 C92 0.33 92 0.66 92 1 C64.775 1.495 64.775 1.495 37 2 C37 15.86 37 29.72 37 44 C53.335 44.495 53.335 44.495 70 45 C70 44.34 70 43.68 70 43 C68.515 42.505 68.515 42.505 67 42 C67.66 41.67 68.32 41.34 69 41 C69.33 29.12 69.66 17.24 70 5 C69.01 4.505 69.01 4.505 68 4 C68.99 3.34 69.98 2.68 71 2 C71 16.19 71 30.38 71 45 C77.27 45 83.54 45 90 45 C90 45.33 90 45.66 90 46 C60.3 46 30.6 46 0 46 C0 45.67 0 45.34 0 45 C11.22 45 22.44 45 34 45 C33.34 43.68 32.68 42.36 32 41 C32.66 41 33.32 41 34 41 C34.02914348 36.79168132 34.04684712 32.58338878 34.0625 28.375 C34.07506836 26.59029297 34.07506836 26.59029297 34.08789062 24.76953125 C34.09111328 23.61582031 34.09433594 22.46210937 34.09765625 21.2734375 C34.10289307 20.21560059 34.10812988 19.15776367 34.11352539 18.06787109 C33.99875578 14.96637654 33.57696282 12.04652343 33 9 C32.01 9 31.02 9 30 9 C29.01 10.485 29.01 10.485 28 12 C24.7421875 12.73046875 24.7421875 12.73046875 20.875 13.1875 C19.59367187 13.34605469 18.31234375 13.50460938 16.9921875 13.66796875 C16.00476563 13.77753906 15.01734375 13.88710937 14 14 C13.67 14.99 13.34 15.98 13 17 C17.29 17 21.58 17 26 17 C26.33 17.66 26.66 18.32 27 19 C21.39 19 15.78 19 10 19 C10 16.03 10 13.06 10 10 C11.14597656 10.00902344 12.29195312 10.01804687 13.47265625 10.02734375 C15.00263813 9.99918457 16.53258606 9.96913594 18.0625 9.9375 C18.81466797 9.94845703 19.56683594 9.95941406 20.34179688 9.97070312 C27.82896611 9.74381921 27.93475226 8.06524774 34 2 C22.78 1.67 11.56 1.34 0 1 C0 0.67 0 0.34 0 0 Z " fill="#FCC1C2" transform="translate(26,62)"/>
<path d="M0 0 C0.99 0 1.98 0 3 0 C3 0.66 3 1.32 3 2 C3.71784668 1.67620361 4.43569336 1.35240723 5.17529297 1.01879883 C9.76164189 -0.6353787 14.29514278 -0.32816102 19.125 -0.3125 C20.12660156 -0.32861328 21.12820312 -0.34472656 22.16015625 -0.36132812 C23.12050781 -0.36197266 24.08085937 -0.36261719 25.0703125 -0.36328125 C25.94445801 -0.36626221 26.81860352 -0.36924316 27.71923828 -0.37231445 C30.43033498 0.07024843 31.30297157 0.89661633 33 3 C33 2.34 33 1.68 33 1 C33.99 1.33 34.98 1.66 36 2 C35.67 2.66 35.34 3.32 35 4 C34.34 4 33.68 4 33 4 C33 6.31 33 8.62 33 11 C32.01 10.67 31.02 10.34 30 10 C29.505 7.03 29.505 7.03 29 4 C26.525 3.505 26.525 3.505 24 3 C24 5.64 24 8.28 24 11 C23.01 11 22.02 11 21 11 C21 8.36 21 5.72 21 3 C20.01 3 19.02 3 18 3 C18 5.31 18 7.62 18 10 C15.3260876 10.89130413 12.76276177 11.47731534 10 12 C10 12.99 10 13.98 10 15 C9.6937566 16.33981486 9.36548445 17.67511887 9 19 C8.01 19 7.02 19 6 19 C6 20.32 6 21.64 6 23 C3.03 23 0.06 23 -3 23 C-3.33 22.01 -3.66 21.02 -4 20 C-4.33 20.66 -4.66 21.32 -5 22 C-5.66 22 -6.32 22 -7 22 C-6.67 19.69 -6.34 17.38 -6 15 C-5.01 15 -4.02 15 -3 15 C-2.67 15.66 -2.34 16.32 -2 17 C-1.67 15.68 -1.34 14.36 -1 13 C0.98 12.67 2.96 12.34 5 12 C5 11.34 5 10.68 5 10 C3.35 10.33 1.7 10.66 0 11 C0 7.37 0 3.74 0 0 Z " fill="#79C0CF" transform="translate(138,111)"/>
<path d="M0 0 C2.43757413 -0.02698422 4.87484915 -0.04683099 7.3125 -0.0625 C8.00279297 -0.07087891 8.69308594 -0.07925781 9.40429688 -0.08789062 C12.5483025 -0.10307906 14.99420019 -0.00193327 18 1 C18 4.3 18 7.6 18 11 C19.65 10.67 21.3 10.34 23 10 C23.33 10.99 23.66 11.98 24 13 C21.69 13 19.38 13 17 13 C16.67 14.65 16.34 16.3 16 18 C15.67 17.01 15.34 16.02 15 15 C14.01 15 13.02 15 12 15 C11.67 17.31 11.34 19.62 11 22 C11.66 22 12.32 22 13 22 C13.33 21.01 13.66 20.02 14 19 C14.33 20.32 14.66 21.64 15 23 C16.98 23 18.96 23 21 23 C20.67 23.66 20.34 24.32 20 25 C16.25879302 26.14314658 13.76086747 25.77865848 10 25 C6.394782 24.55036964 2.78852476 24.11494474 -0.8203125 23.6953125 C-3.9803563 23.00429555 -5.23279238 22.67044707 -7 20 C-6.57894737 15.57894737 -6.57894737 15.57894737 -5 14 C-2.46950598 13.92686433 0.03304837 13.90752473 2.5625 13.9375 C3.27341797 13.94201172 3.98433594 13.94652344 4.71679688 13.95117188 C6.47790013 13.96299136 8.23896036 13.98092737 10 14 C10.33 13.01 10.66 12.02 11 11 C10.01 10.67 9.02 10.34 8 10 C7.67 9.01 7.34 8.02 7 7 C6.34 6.67 5.68 6.34 5 6 C5.33 7.32 5.66 8.64 6 10 C4.68 10 3.36 10 2 10 C2 7.36 2 4.72 2 2 C1.34 2 0.68 2 0 2 C0 1.34 0 0.68 0 0 Z " fill="#C7EFF8" transform="translate(120,111)"/>
<path d="M0 0 C3.01953125 0.01171875 3.01953125 0.01171875 5.625 0.375 C7.6875 2.8125 7.6875 2.8125 8.625 5.375 C9.285 5.705 9.945 6.035 10.625 6.375 C10.625 4.395 10.625 2.415 10.625 0.375 C11.285 0.375 11.945 0.375 12.625 0.375 C12.625 4.005 12.625 7.635 12.625 11.375 C11.635 11.375 10.645 11.375 9.625 11.375 C8.57607762 9.73868108 7.57593297 8.07014137 6.625 6.375 C5.965 6.045 5.305 5.715 4.625 5.375 C4.625 7.355 4.625 9.335 4.625 11.375 C3.635 11.375 2.645 11.375 1.625 11.375 C1.625 12.365 1.625 13.355 1.625 14.375 C6.905 14.375 12.185 14.375 17.625 14.375 C17.295 17.345 16.965 20.315 16.625 23.375 C8.95833333 23.375 1.29166667 23.375 -6.375 23.375 C-6.40387512 19.72918313 -6.42175585 16.08339537 -6.4375 12.4375 C-6.44587891 11.39658203 -6.45425781 10.35566406 -6.46289062 9.28320312 C-6.46772461 7.79916992 -6.46772461 7.79916992 -6.47265625 6.28515625 C-6.47789307 5.36871338 -6.48312988 4.45227051 -6.48852539 3.50805664 C-6.26657746 -0.6621779 -3.61822155 0.12345638 0 0 Z " fill="#A5DFEC" transform="translate(32.375,110.625)"/>
<path d="M0 0 C2.51815182 1.25907591 2.69260426 2.21474667 3.8125 4.75 C6.02400275 9.32043901 8.57341966 12.76300434 13.19921875 15.12109375 C16.69903265 16.21936171 19.71046849 16.2283822 23.375 16.1875 C24.64085937 16.18105469 25.90671875 16.17460938 27.2109375 16.16796875 C30.89623047 16.00460009 34.36437083 15.58714941 38 15 C38 11.7 38 8.4 38 5 C37.01 4.67 36.02 4.34 35 4 C36.65 3.34 38.3 2.68 40 2 C39.67 6.62 39.34 11.24 39 16 C38.34 16 37.68 16 37 16 C36.505 17.485 36.505 17.485 36 19 C34.02 19 32.04 19 30 19 C30 19.66 30 20.32 30 21 C29.42032471 21.02505615 28.84064941 21.0501123 28.2434082 21.07592773 C25.59957893 21.19246234 22.95605591 21.31492682 20.3125 21.4375 C19.40048828 21.47681641 18.48847656 21.51613281 17.54882812 21.55664062 C16.66259766 21.59853516 15.77636719 21.64042969 14.86328125 21.68359375 C13.64572144 21.73858032 13.64572144 21.73858032 12.40356445 21.79467773 C9.87855515 22.01037431 7.47399303 22.45899452 5 23 C5 22.34 5 21.68 5 21 C4.113125 21.2475 3.22625 21.495 2.3125 21.75 C-1 22 -1 22 -3.875 20.1875 C-6 18 -6 18 -6 16 C-7.98 16 -9.96 16 -12 16 C-12 15.34 -12 14.68 -12 14 C-10.7790696 13.2621076 -9.52130647 12.58475275 -8.25 11.9375 C-3.30223553 9.02498617 -1.75782977 5.30818333 0 0 Z " fill="#EBFCFC" transform="translate(136,90)"/>
<path d="M0 0 C0 0.66 0 1.32 0 2 C-0.66 2 -1.32 2 -2 2 C-2 2.66 -2 3.32 -2 4 C-7.28 3.67 -12.56 3.34 -18 3 C-18 3.66 -18 4.32 -18 5 C-18.66 5 -19.32 5 -20 5 C-20 4.34 -20 3.68 -20 3 C-20.94746094 3.10828125 -20.94746094 3.10828125 -21.9140625 3.21875 C-28.69225617 3.92196318 -35.31689217 4.02637207 -42.12890625 3.83984375 C-45.13178513 3.68736755 -45.13178513 3.68736755 -47 6 C-47.99 6 -48.98 6 -50 6 C-50 5.01 -50 4.02 -50 3 C-50.84046875 3.32613281 -51.6809375 3.65226562 -52.546875 3.98828125 C-56.28970269 5.08487896 -59.35905633 5.23303232 -63.25 5.1875 C-65.08304688 5.17783203 -65.08304688 5.17783203 -66.953125 5.16796875 C-70 5 -70 5 -72 4 C-72 4.66 -72 5.32 -72 6 C-74.475 5.505 -74.475 5.505 -77 5 C-77 7.64 -77 10.28 -77 13 C-78.32 13 -79.64 13 -81 13 C-81 10.69 -81 8.38 -81 6 C-81.66 6 -82.32 6 -83 6 C-82.896875 7.216875 -82.79375 8.43375 -82.6875 9.6875 C-82.62949219 10.37199219 -82.57148437 11.05648437 -82.51171875 11.76171875 C-81.8696516 14.57014988 -80.56624119 16.60234928 -79 19 C-81.0825867 19.19561869 -83.16611856 19.38119313 -85.25 19.5625 C-86.41015625 19.66691406 -87.5703125 19.77132812 -88.765625 19.87890625 C-91.51871477 19.98198087 -93.419982 19.86213473 -96 19 C-96 18.01 -96 17.02 -96 16 C-95.01 16 -94.02 16 -93 16 C-93 14.02 -93 12.04 -93 10 C-92.01 10.33 -91.02 10.66 -90 11 C-88.8125 13.5625 -88.8125 13.5625 -88 16 C-87.01 16 -86.02 16 -85 16 C-85 12.37 -85 8.74 -85 5 C-85.66 5 -86.32 5 -87 5 C-87 6.98 -87 8.96 -87 11 C-90 10 -90 10 -91 8.0625 C-91.33 7.381875 -91.66 6.70125 -92 6 C-94.90092502 4.06604999 -95.89674737 3.69868059 -99.1875 3.375 C-100.445625 3.25125 -101.70375 3.1275 -103 3 C-103 2.67 -103 2.34 -103 2 C-101.89832489 1.98969254 -100.79664978 1.97938507 -99.66159058 1.96876526 C-89.27380725 1.87096264 -78.88608291 1.76822213 -68.49839592 1.66066074 C-63.15813086 1.60552224 -57.81786024 1.55211689 -52.47753906 1.50268555 C-47.3227993 1.45490801 -42.16812425 1.40256064 -37.01346207 1.34705925 C-35.04793029 1.32669628 -33.08238081 1.30797339 -31.11681747 1.29092598 C-28.36150475 1.2667475 -25.60631294 1.23671181 -22.85107422 1.20532227 C-21.63510811 1.19668907 -21.63510811 1.19668907 -20.39457703 1.18788147 C-13.5104305 1.09887477 -6.89948968 -0.11895672 0 0 Z " fill="#FAF3F1" transform="translate(130,106)"/>
<path d="M0 0 C3.63 0 7.26 0 11 0 C11.66 1.65 12.32 3.3 13 5 C13.33 3.68 13.66 2.36 14 1 C16.64 1 19.28 1 22 1 C22 1.99 22 2.98 22 4 C22.66 4 23.32 4 24 4 C24.6496875 3.2265625 24.6496875 3.2265625 25.3125 2.4375 C25.869375 1.963125 26.42625 1.48875 27 1 C29.6875 1.3125 29.6875 1.3125 32 2 C32 2.66 32 3.32 32 4 C30.02 4 28.04 4 26 4 C26 5.65 26 7.3 26 9 C27.98 9 29.96 9 32 9 C31.67 9.99 31.34 10.98 31 12 C20.44 12 9.88 12 -1 12 C-1 2 -1 2 0 0 Z " fill="#B8E6EF" transform="translate(86,110)"/>
<path d="M0 0 C0 3.63 0 7.26 0 11 C-0.99 11 -1.98 11 -3 11 C-3 10.34 -3 9.68 -3 9 C-8.61 8.34 -14.22 7.68 -20 7 C-20 7.66 -20 8.32 -20 9 C-21.96147874 10.38938077 -23.96166576 11.7260411 -26 13 C-25.67 11.35 -25.34 9.7 -25 8 C-24.34 8 -23.68 8 -23 8 C-23 7.34 -23 6.68 -23 6 C-22.01 6 -21.02 6 -20 6 C-20 5.34 -20 4.68 -20 4 C-18.35 3.34 -16.7 2.68 -15 2 C-15 1.34 -15 0.68 -15 0 C-15.7734375 0.433125 -15.7734375 0.433125 -16.5625 0.875 C-19 2 -19 2 -22.4375 2.875 C-26.1382993 4.04367346 -28.09478265 5.49828506 -31 8 C-31.99 8.33 -32.98 8.66 -34 9 C-32.23062627 4.22269094 -28.50310723 1.30327071 -24.109375 -0.984375 C-15.43817436 -4.60306503 -8.60298773 -2.86766258 0 0 Z " fill="#D62C30" transform="translate(174,65)"/>
<path d="M0 0 C0 0.66 0 1.32 0 2 C-1.65 2.66 -3.3 3.32 -5 4 C-5 4.66 -5 5.32 -5 6 C-5.99 6 -6.98 6 -8 6 C-8 6.66 -8 7.32 -8 8 C-8.66 8 -9.32 8 -10 8 C-10.33 9.65 -10.66 11.3 -11 13 C-11.33 13 -11.66 13 -12 13 C-12.33 17.95 -12.66 22.9 -13 28 C-12.34 28 -11.68 28 -11 28 C-11 29.32 -11 30.64 -11 32 C-10.01 32.33 -9.02 32.66 -8 33 C-11 35 -11 35 -13.1875 34.625 C-13.785625 34.41875 -14.38375 34.2125 -15 34 C-15 33.34 -15 32.68 -15 32 C-15.99 32 -16.98 32 -18 32 C-18.309375 30.88625 -18.61875 29.7725 -18.9375 28.625 C-19.82326483 25.2054845 -19.82326483 25.2054845 -21 23 C-21.01429225 20.85330424 -20.9391213 18.70550583 -20.8125 16.5625 C-20.75707031 15.40878906 -20.70164063 14.25507812 -20.64453125 13.06640625 C-20 10 -20 10 -18.07421875 8.08984375 C-16 7 -16 7 -14 7 C-13.67 6.01 -13.34 5.02 -13 4 C-8.93662608 1.29108405 -4.89951609 0 0 0 Z " fill="#E21E24" transform="translate(159,65)"/>
<path d="M0 0 C2.97 0 5.94 0 9 0 C9 0.66 9 1.32 9 2 C9.66 2 10.32 2 11 2 C11 1.34 11 0.68 11 0 C12.76949095 -0.10815225 14.54087487 -0.18566083 16.3125 -0.25 C17.29863281 -0.29640625 18.28476563 -0.3428125 19.30078125 -0.390625 C22 0 22 0 23.85546875 2.015625 C24.23316406 2.67046875 24.61085938 3.3253125 25 4 C25.33 2.68 25.66 1.36 26 0 C26.66 0 27.32 0 28 0 C28 2.97 28 5.94 28 9 C27.01 9 26.02 9 25 9 C24.67 8.01 24.34 7.02 24 6 C23.34 5.67 22.68 5.34 22 5 C22 6.98 22 8.96 22 11 C20.27119018 11.05449838 18.54187288 11.09301688 16.8125 11.125 C15.84957031 11.14820313 14.88664062 11.17140625 13.89453125 11.1953125 C9.72612156 10.91404329 6.96311369 9.96311369 4 7 C3.67 7.66 3.34 8.32 3 9 C2.34 9 1.68 9 1 9 C0.67 6.03 0.34 3.06 0 0 Z " fill="#C4F2F9" transform="translate(80,125)"/>
<path d="M0 0 C0 0.66 0 1.32 0 2 C0.66 2 1.32 2 2 2 C2 1.34 2 0.68 2 0 C2.66 0 3.32 0 4 0 C4 2.31 4 4.62 4 7 C5.32 7 6.64 7 8 7 C8 4.36 8 1.72 8 -1 C8.99 -1 9.98 -1 11 -1 C10.8904307 2.45900478 10.75973152 5.91689109 10.625 9.375 C10.57859375 10.85226563 10.57859375 10.85226563 10.53125 12.359375 C10.49257812 13.30039063 10.45390625 14.24140625 10.4140625 15.2109375 C10.3826416 16.08024902 10.3512207 16.94956055 10.31884766 17.84521484 C10 20 10 20 8 22 C4.46428571 21.46428571 4.46428571 21.46428571 3 20 C2.95907063 17.66702567 2.95758277 15.33294775 3 13 C3.66 13 4.32 13 5 13 C5 14.98 5 16.96 5 19 C5.99 19 6.98 19 8 19 C7.67 16.36 7.34 13.72 7 11 C5.94039062 10.95101562 4.88078125 10.90203125 3.7890625 10.8515625 C2.40101503 10.77653291 1.01299549 10.70098515 -0.375 10.625 C-1.07367188 10.5940625 -1.77234375 10.563125 -2.4921875 10.53125 C-7.7734375 10.2265625 -7.7734375 10.2265625 -10 8 C-10.3125 4.5 -10.3125 4.5 -10 1 C-6.1496895 -1.56687367 -4.41430237 -0.83288724 0 0 Z " fill="#BFF1F9" transform="translate(68,112)"/>
<path d="M0 0 C10.56 0 21.12 0 32 0 C30.56218905 5.75124378 30.56218905 5.75124378 28 8 C24.92637355 8.50048431 21.91593884 8.37480961 18.8125 8.25 C17.96751953 8.23195313 17.12253906 8.21390625 16.25195312 8.1953125 C14.16748427 8.14820586 12.08359856 8.07646233 10 8 C10 10.97 10 13.94 10 17 C15.28 17 20.56 17 26 17 C26 19.64 26 22.28 26 25 C20.72 25 15.44 25 10 25 C10 24.67 10 24.34 10 24 C14.62 23.67 19.24 23.34 24 23 C24.33 21.35 24.66 19.7 25 18 C19.39 18 13.78 18 8 18 C7.70703125 10.3828125 7.70703125 10.3828125 8 8 C11.72066472 5.51955685 14.86540474 5.55618827 19.1875 5.375 C19.93708984 5.33632812 20.68667969 5.29765625 21.45898438 5.2578125 C23.30559199 5.16371784 25.1527619 5.08077681 27 5 C27 4.34 27 3.68 27 3 C27.66 2.67 28.32 2.34 29 2 C15.14 1.505 15.14 1.505 1 1 C1 14.53 1 28.06 1 42 C0.67 42 0.34 42 0 42 C0 28.14 0 14.28 0 0 Z " fill="#CA4148" transform="translate(62,64)"/>
<path d="M0 0 C0.99 0.33 1.98 0.66 3 1 C4.83880283 5.46135768 3.54906806 10.36342527 3 15 C8.94 15 14.88 15 21 15 C21 16.98 21 18.96 21 21 C11.595 21.495 11.595 21.495 2 22 C2 24.31 2 26.62 2 29 C1.34 29 0.68 29 0 29 C0 19.43 0 9.86 0 0 Z " fill="#E11C21" transform="translate(31,67)"/>
<path d="M0 0 C2.908125 -0.04125 5.81625 -0.0825 8.8125 -0.125 C10.18112183 -0.15231201 10.18112183 -0.15231201 11.57739258 -0.18017578 C12.30079834 -0.1851709 13.0242041 -0.19016602 13.76953125 -0.1953125 C14.50792236 -0.20578613 15.24631348 -0.21625977 16.00708008 -0.22705078 C18 0 18 0 21 2 C15.77294503 3.39388132 11.82152988 3 6 3 C5.67 12.9 5.34 22.8 5 33 C3.35 32.67 1.7 32.34 0 32 C0 21.44 0 10.88 0 0 Z " fill="#D72328" transform="translate(102,65)"/>
<path d="M0 0 C1.05445313 -0.00257812 2.10890625 -0.00515625 3.1953125 -0.0078125 C5.875 0.125 5.875 0.125 7.875 1.125 C7.875 4.095 7.875 7.065 7.875 10.125 C6.555 10.125 5.235 10.125 3.875 10.125 C3.875 7.815 3.875 5.505 3.875 3.125 C3.215 3.125 2.555 3.125 1.875 3.125 C1.978125 4.341875 2.08125 5.55875 2.1875 6.8125 C2.27451172 7.83923828 2.27451172 7.83923828 2.36328125 8.88671875 C3.0053484 11.69514988 4.30875881 13.72734928 5.875 16.125 C3.7924133 16.32061869 1.70888144 16.50619313 -0.375 16.6875 C-1.53515625 16.79191406 -2.6953125 16.89632812 -3.890625 17.00390625 C-6.64371477 17.10698087 -8.544982 16.98713473 -11.125 16.125 C-11.125 15.135 -11.125 14.145 -11.125 13.125 C-10.135 13.125 -9.145 13.125 -8.125 13.125 C-8.125 11.145 -8.125 9.165 -8.125 7.125 C-7.135 7.455 -6.145 7.785 -5.125 8.125 C-3.9375 10.6875 -3.9375 10.6875 -3.125 13.125 C-2.135 13.125 -1.145 13.125 -0.125 13.125 C-0.125 9.495 -0.125 5.865 -0.125 2.125 C-0.785 2.125 -1.445 2.125 -2.125 2.125 C-2.125 4.105 -2.125 6.085 -2.125 8.125 C-5.125 7.125 -5.125 7.125 -6.125 5.1875 C-6.455 4.506875 -6.785 3.82625 -7.125 3.125 C-8.115 2.465 -9.105 1.805 -10.125 1.125 C-6.7086981 0.08525594 -3.56073988 -0.00874875 0 0 Z " fill="#D3F6FC" transform="translate(45.125,108.875)"/>
<path d="M0 0 C0.99 0 1.98 0 3 0 C3.05418326 2.08304538 3.09287551 4.16649768 3.125 6.25 C3.14820312 7.41015625 3.17140625 8.5703125 3.1953125 9.765625 C3.0103949 12.82786046 2.60823023 14.44202751 1 17 C0.01 16.67 -0.98 16.34 -2 16 C-2.33 15.01 -2.66 14.02 -3 13 C-8.28 12.67 -13.56 12.34 -19 12 C-19 10.02 -19 8.04 -19 6 C-17.57107422 5.97873047 -17.57107422 5.97873047 -16.11328125 5.95703125 C-9.31283437 5.98439609 -9.31283437 5.98439609 -3.0625 3.8203125 C-1.65839427 2.31124813 -1.65839427 2.31124813 0 0 Z " fill="#FBFAF9" transform="translate(93,67)"/>
<path d="M0 0 C0.99 0 1.98 0 3 0 C3 0.66 3 1.32 3 2 C3.99 2.33 4.98 2.66 6 3 C6 5.31 6 7.62 6 10 C7.32 10.66 8.64 11.32 10 12 C10 14.62113708 9.68707555 16.50935112 9 19 C8.01 19 7.02 19 6 19 C6 20.32 6 21.64 6 23 C3.03 23 0.06 23 -3 23 C-3.33 22.01 -3.66 21.02 -4 20 C-4.33 20.66 -4.66 21.32 -5 22 C-5.66 22 -6.32 22 -7 22 C-6.67 19.69 -6.34 17.38 -6 15 C-5.01 15 -4.02 15 -3 15 C-2.67 15.66 -2.34 16.32 -2 17 C-1.67 15.68 -1.34 14.36 -1 13 C0.98 12.67 2.96 12.34 5 12 C5 11.34 5 10.68 5 10 C3.35 10.33 1.7 10.66 0 11 C0 7.37 0 3.74 0 0 Z " fill="#A1DBE7" transform="translate(138,111)"/>
<path d="M0 0 C0.99 0 1.98 0 3 0 C3.25356577 7.35340729 3.25356577 7.35340729 1.75 11.1875 C1.5025 12.115625 1.255 13.04375 1 14 C2.78468339 16.77287937 2.78468339 16.77287937 5 19 C5 19.66 5 20.32 5 21 C5.66 21 6.32 21 7 21 C7.33 20.01 7.66 19.02 8 18 C8 19.65 8 21.3 8 23 C3.25 21.33108108 3.25 21.33108108 1.84375 19.46875 C-1.11564556 17.1112654 -4.54936227 17.42370945 -8.1875 17.3125 C-8.93708984 17.27833984 -9.68667969 17.24417969 -10.45898438 17.20898438 C-12.30546838 17.12665706 -14.15270994 17.06164719 -16 17 C-16 14.36 -16 11.72 -16 9 C-10.72 9 -5.44 9 0 9 C0 6.03 0 3.06 0 0 Z " fill="#FCFBF9" transform="translate(53,81)"/>
<path d="M0 0 C3.14621682 0.13822199 6.29185566 0.28685084 9.4375 0.4375 C10.33533203 0.47681641 11.23316406 0.51613281 12.15820312 0.55664062 C13.01220703 0.59853516 13.86621094 0.64042969 14.74609375 0.68359375 C15.53685303 0.72025146 16.3276123 0.75690918 17.14233398 0.79467773 C19 1 19 1 20 2 C20.14115161 4.67058851 20.04247107 7.32432238 20 10 C19.01 10 18.02 10 17 10 C17 8.02 17 6.04 17 4 C16.34 4 15.68 4 15 4 C15.32504259 8.82194643 15.32504259 8.82194643 17.5625 12.9375 C18.036875 13.288125 18.51125 13.63875 19 14 C14.28278991 15.54715835 10.72074219 14.18018555 6 13 C6 10.03 6 7.06 6 4 C4.68 4.33 3.36 4.66 2 5 C1.34 4.67 0.68 4.34 0 4 C0 2.68 0 1.36 0 0 Z " fill="#D3F6F9" transform="translate(56,121)"/>
<path d="M0 0 C8.58 0 17.16 0 26 0 C26.33 0.66 26.66 1.32 27 2 C26.01 2 25.02 2 24 2 C24 2.66 24 3.32 24 4 C22.33710937 4.19916016 22.33710937 4.19916016 20.640625 4.40234375 C19.1770673 4.58059757 17.71352651 4.75899028 16.25 4.9375 C15.52039063 5.02451172 14.79078125 5.11152344 14.0390625 5.20117188 C10.62415558 5.62027409 7.32396457 6.117274 4 7 C4 9.64 4 12.28 4 15 C2.68 15 1.36 15 0 15 C0 10.05 0 5.1 0 0 Z " fill="#E42023" transform="translate(65,65)"/>
<path d="M0 0 C3.375 -0.125 3.375 -0.125 7 0 C7.66 0.66 8.32 1.32 9 2 C11.73434962 2.3063859 14.38279821 2.5113336 17.125 2.625 C17.87910156 2.66367188 18.63320312 2.70234375 19.41015625 2.7421875 C21.27303184 2.83651031 23.13648255 2.91934662 25 3 C25 3.66 25 4.32 25 5 C25.99 5 26.98 5 28 5 C28.33 5.99 28.66 6.98 29 8 C19.43 8 9.86 8 0 8 C0 5.36 0 2.72 0 0 Z " fill="#E31D25" transform="translate(63,98)"/>
<path d="M0 0 C1.41778293 2.83556587 0.86257622 4.9908706 0.5625 8.125 C0.46066406 9.22070312 0.35882813 10.31640625 0.25390625 11.4453125 C0.17011719 12.28835937 0.08632812 13.13140625 0 14 C-0.66 14 -1.32 14 -2 14 C-2.33 14.99 -2.66 15.98 -3 17 C-6.95075379 17.16755938 -10.90172321 17.3281242 -14.85302734 17.48217773 C-16.85920071 17.56187238 -18.86515076 17.64712518 -20.87109375 17.73242188 C-22.12792969 17.78076172 -23.38476562 17.82910156 -24.6796875 17.87890625 C-25.84226074 17.9260376 -27.00483398 17.97316895 -28.20263672 18.02172852 C-31 18 -31 18 -33 17 C-34.66619446 16.9603287 -36.33391013 16.95615553 -38 17 C-37.6875 15.125 -37.6875 15.125 -37 13 C-36.01 12.34 -35.02 11.68 -34 11 C-33.27617533 8.94074861 -33.27617533 8.94074861 -33 7 C-32.278125 7.78375 -31.55625 8.5675 -30.8125 9.375 C-25.99938156 13.86724387 -22.11048619 14.25985329 -15.625 14.1875 C-14.35914063 14.18105469 -13.09328125 14.17460938 -11.7890625 14.16796875 C-8.10376953 14.00460009 -4.63562917 13.58714941 -1 13 C-1 9.7 -1 6.4 -1 3 C-1.99 2.67 -2.98 2.34 -4 2 C-2.68 1.34 -1.36 0.68 0 0 Z " fill="#F8E6E5" transform="translate(175,92)"/>
<path d="M0 0 C5.78461538 4.18461538 5.78461538 4.18461538 6.875 8.3125 C6.936875 9.6428125 6.936875 9.6428125 7 11 C7.66 11 8.32 11 9 11 C9.33 10.34 9.66 9.68 10 9 C9.97679687 9.75925781 9.95359375 10.51851562 9.9296875 11.30078125 C9.91164062 12.29464844 9.89359375 13.28851563 9.875 14.3125 C9.85179687 15.29863281 9.82859375 16.28476563 9.8046875 17.30078125 C9.79317361 20.22406527 9.79317361 20.22406527 12 23 C12.125 25.6875 12.125 25.6875 12 28 C9.7522025 25.94766315 8.9977758 24.99332739 8 22 C7.731875 22.59167969 7.46375 23.18335937 7.1875 23.79296875 C4.34816908 29.5183301 1.25007562 33.83794601 -5 36 C-7.24609375 35.6171875 -7.24609375 35.6171875 -9 35 C-6.35261084 33.5393715 -5.10551666 33 -2 33 C-1.67 31.68 -1.34 30.36 -1 29 C0.32 29 1.64 29 3 29 C2.938125 27.88625 2.938125 27.88625 2.875 26.75 C3 24 3 24 4.015625 22.203125 C5.31687122 19.29081203 5.12034773 17.1657772 4.875 14 C4.81054688 12.96875 4.74609375 11.9375 4.6796875 10.875 C3.86881968 7.44512231 2.48682905 6.39694367 0 4 C0 2.68 0 1.36 0 0 Z " fill="#D83D41" transform="translate(129,69)"/>
<path d="M0 0 C2.97 0 5.94 0 9 0 C9 0.66 9 1.32 9 2 C9.99 2 10.98 2 12 2 C12 1.34 12 0.68 12 0 C12.99 0 13.98 0 15 0 C15 2.97 15 5.94 15 9 C13.68 9.33 12.36 9.66 11 10 C10.67 9.67 10.34 9.34 10 9 C7.66702567 8.95907063 5.33294775 8.95758277 3 9 C3 8.34 3 7.68 3 7 C1.68 7 0.36 7 -1 7 C-1 7.66 -1 8.32 -1 9 C-1.66 9 -2.32 9 -3 9 C-2.01 6.03 -1.02 3.06 0 0 Z " fill="#ACE7F3" transform="translate(151,125)"/>
<path d="M0 0 C1.74965358 -0.05429959 3.49979787 -0.09292823 5.25 -0.125 C6.22453125 -0.14820312 7.1990625 -0.17140625 8.203125 -0.1953125 C11.0196498 0.00137219 12.60949036 0.55431084 15 2 C14.67 2.66 14.34 3.32 14 4 C12.68 3.34 11.36 2.68 10 2 C7.03 1.67 4.06 1.34 1 1 C1 9.58 1 18.16 1 27 C9.59750712 26.68751499 9.59750712 26.68751499 16 23 C17.75125338 20.0833442 18.32755325 17.62106313 18.625 14.25 C18.69976562 13.45078125 18.77453125 12.6515625 18.8515625 11.828125 C18.90054688 11.22484375 18.94953125 10.6215625 19 10 C19.66 10 20.32 10 21 10 C21.47266289 17.32627475 20.09866202 22.37384327 17 29 C14.54220024 29.22126178 12.08472352 29.42750395 9.625 29.625 C8.57699219 29.72167969 8.57699219 29.72167969 7.5078125 29.8203125 C5.67630889 29.96119739 3.83687252 29.98761659 2 30 C0 28 0 28 -0.22705078 25.20263672 C-0.21134033 23.45877686 -0.21134033 23.45877686 -0.1953125 21.6796875 C-0.18886719 20.42285156 -0.18242188 19.16601562 -0.17578125 17.87109375 C-0.15902344 16.55238281 -0.14226562 15.23367187 -0.125 13.875 C-0.11496983 12.53516279 -0.10584404 11.19531848 -0.09765625 9.85546875 C-0.07402075 6.57013427 -0.04107234 3.28515535 0 0 Z " fill="#D95A5F" transform="translate(107,71)"/>
<path d="M0 0 C0.66 0 1.32 0 2 0 C2 2.64 2 5.28 2 8 C3.16917969 7.93039063 4.33835937 7.86078125 5.54296875 7.7890625 C7.09108821 7.73276725 8.63927002 7.67816898 10.1875 7.625 C11.34088867 7.54958984 11.34088867 7.54958984 12.51757812 7.47265625 C18.19006686 7.32658358 18.19006686 7.32658358 20.59619141 9.32714844 C21.81254735 10.82179662 22.91366403 12.40834391 24 14 C24.66 14.33 25.32 14.66 26 15 C26 15.66 26 16.32 26 17 C15.11 17 4.22 17 -7 17 C-7 16.67 -7 16.34 -7 16 C2.24 15.67 11.48 15.34 21 15 C21 14.34 21 13.68 21 13 C20.01 13 19.02 13 18 13 C18 12.34 18 11.68 18 11 C16.86820313 11.02320312 15.73640625 11.04640625 14.5703125 11.0703125 C13.08854825 11.08906901 11.60677688 11.10726934 10.125 11.125 C9.37863281 11.14175781 8.63226563 11.15851563 7.86328125 11.17578125 C5.90805539 11.1933959 3.95257979 11.10320189 2 11 C0 9 0 9 -0.1953125 6.8359375 C-0.16050781 5.61777344 -0.16050781 5.61777344 -0.125 4.375 C-0.10695313 3.55773437 -0.08890625 2.74046875 -0.0703125 1.8984375 C-0.04710938 1.27195312 -0.02390625 0.64546875 0 0 Z " fill="#D14C52" transform="translate(70,90)"/>
<path d="M0 0 C0 3.63 0 7.26 0 11 C-0.33 11 -0.66 11 -1 11 C-1.33 9.02 -1.66 7.04 -2 5 C-2.99 5 -3.98 5 -5 5 C-5.99 6.485 -5.99 6.485 -7 8 C-10.2578125 8.73046875 -10.2578125 8.73046875 -14.125 9.1875 C-15.40632813 9.34605469 -16.68765625 9.50460938 -18.0078125 9.66796875 C-18.99523438 9.77753906 -19.98265625 9.88710937 -21 10 C-21.33 10.99 -21.66 11.98 -22 13 C-17.71 13 -13.42 13 -9 13 C-8.67 13.66 -8.34 14.32 -8 15 C-13.61 15 -19.22 15 -25 15 C-25 12.03 -25 9.06 -25 6 C-23.81921875 5.97421875 -22.6384375 5.9484375 -21.421875 5.921875 C-19.86454677 5.86558603 -18.30725653 5.80823886 -16.75 5.75 C-15.97269531 5.73582031 -15.19539063 5.72164063 -14.39453125 5.70703125 C-9.60782569 5.53984013 -9.60782569 5.53984013 -5.640625 3.015625 C-5.09921875 2.35046875 -4.5578125 1.6853125 -4 1 C-1 0 -1 0 0 0 Z " fill="#FDD6D4" transform="translate(61,66)"/>
<path d="M0 0 C1.1859375 0.00257812 2.371875 0.00515625 3.59375 0.0078125 C4.7796875 0.00523438 5.965625 0.00265625 7.1875 0 C10.09375 0.1328125 10.09375 0.1328125 11.09375 1.1328125 C11.28125 4.0703125 11.28125 4.0703125 11.09375 7.1328125 C10.43375 7.7928125 9.77375 8.4528125 9.09375 9.1328125 C6.64276444 8.73749225 4.45470721 7.91979824 2.09375 7.1328125 C2.09375 7.7928125 2.09375 8.4528125 2.09375 9.1328125 C-2.65625 8.3828125 -2.65625 8.3828125 -4.90625 6.1328125 C-4.18165054 0.19109693 -4.18165054 0.19109693 0 0 Z " fill="#B7EBF5" transform="translate(117.90625,124.8671875)"/>
<path d="M0 0 C4.95 0 9.9 0 15 0 C14.96744792 1.98567708 14.93489583 3.97135417 14.90234375 5.95703125 C14.91736783 8.20305461 14.91736783 8.20305461 16 11 C14 10 12 9 10 8 C9.67 8.99 9.34 9.98 9 11 C8.71125 10.360625 8.4225 9.72125 8.125 9.0625 C7.17176549 6.84793921 7.17176549 6.84793921 5 6 C5.33 7.32 5.66 8.64 6 10 C4.68 10 3.36 10 2 10 C2 7.36 2 4.72 2 2 C1.34 2 0.68 2 0 2 C0 1.34 0 0.68 0 0 Z " fill="#5AAFCD" transform="translate(120,111)"/>
<path d="M0 0 C0.33 0 0.66 0 1 0 C1.33 3.96 1.66 7.92 2 12 C0.02 12.99 0.02 12.99 -2 14 C-2.33 13.01 -2.66 12.02 -3 11 C-3.70125 10.87625 -4.4025 10.7525 -5.125 10.625 C-8.17656387 9.96161655 -11.05340938 9.02788045 -14 8 C-14.66 8.66 -15.32 9.32 -16 10 C-17.64991582 10.70710678 -19.31562256 11.37943989 -21 12 C-21 12.66 -21 13.32 -21 14 C-21.66 14 -22.32 14 -23 14 C-24.5121867 17.02437339 -24.17263369 19.66241534 -24 23 C-23.36345658 24.3479743 -22.70394612 25.68596724 -22 27 C-22.33 27.99 -22.66 28.98 -23 30 C-26.41102283 24.41832628 -27.59444868 20.73341897 -26.62109375 14.2109375 C-25.78277329 11.22672755 -24.56879012 9.71252675 -22 8 C-21.34 8 -20.68 8 -20 8 C-20 7.34 -20 6.68 -20 6 C-8.47835991 5.6309795 -8.47835991 5.6309795 -3 8 C-3 8.66 -3 9.32 -3 10 C-2.01 10 -1.02 10 0 10 C0 6.7 0 3.4 0 0 Z " fill="#FBCCCC" transform="translate(174,66)"/>
<path d="M0 0 C11.55 0 23.1 0 35 0 C35 0.33 35 0.66 35 1 C23.78 1 12.56 1 1 1 C1 14.86 1 28.72 1 43 C10.9 43 20.8 43 31 43 C31.33 42.01 31.66 41.02 32 40 C32.66 41.32 33.32 42.64 34 44 C22.78 44 11.56 44 0 44 C0 29.48 0 14.96 0 0 Z " fill="#D8747A" transform="translate(26,63)"/>
<path d="M0 0 C2.6875 0.3125 2.6875 0.3125 5 1 C5 1.66 5 2.32 5 3 C3.02 3 1.04 3 -1 3 C-1 4.65 -1 6.3 -1 8 C0.98 8 2.96 8 5 8 C4.67 8.99 4.34 9.98 4 11 C-0.95 11 -5.9 11 -11 11 C-11 7.7 -11 4.4 -11 1 C-9.35 1 -7.7 1 -6 1 C-6.99 1.33 -7.98 1.66 -9 2 C-9 2.66 -9 3.32 -9 4 C-4.77571817 3.67890545 -4.77571817 3.67890545 -1.4375 1.375 C-0.963125 0.92125 -0.48875 0.4675 0 0 Z " fill="#A0DEEC" transform="translate(113,111)"/>
<path d="M0 0 C10.89 0 21.78 0 33 0 C27 7 27 7 23.1328125 7.68359375 C21.79514614 7.63769343 20.45828027 7.55506638 19.125 7.4375 C18.09246094 7.39012695 18.09246094 7.39012695 17.0390625 7.34179688 C15.35750108 7.26005431 13.67816503 7.13450941 12 7 C12 6.67 12 6.34 12 6 C13.39025391 5.92652344 13.39025391 5.92652344 14.80859375 5.8515625 C16.00613281 5.77679688 17.20367187 5.70203125 18.4375 5.625 C19.63246094 5.55539063 20.82742187 5.48578125 22.05859375 5.4140625 C23.02925781 5.27742188 23.99992187 5.14078125 25 5 C25.33 4.34 25.66 3.68 26 3 C26.66 3 27.32 3 28 3 C28 2.34 28 1.68 28 1 C19.09 1 10.18 1 1 1 C1.07388407 6.51837565 1.15660296 12.03509447 1.26245117 17.55273438 C1.29575202 19.43057747 1.32376776 21.3085219 1.34643555 23.18652344 C1.37988742 25.88260175 1.43219641 28.577747 1.48828125 31.2734375 C1.49467117 32.11619232 1.5010611 32.95894714 1.50764465 33.82723999 C1.53930845 36.43938687 1.53930845 36.43938687 2 40 C2.99 40.66 3.98 41.32 5 42 C3.35 42 1.7 42 0 42 C0 28.14 0 14.28 0 0 Z " fill="#C22C34" transform="translate(27,64)"/>
<path d="M0 0 C0.556875 0.144375 1.11375 0.28875 1.6875 0.4375 C4.11387604 1.02769958 6.55038269 1.51657635 9 2 C8.88496731 4.5216376 8.75825223 7.0418119 8.625 9.5625 C8.57859375 10.61920898 8.57859375 10.61920898 8.53125 11.69726562 C8.27047442 16.41295741 7.45341877 20.50385496 6 25 C5.01 25 4.02 25 3 25 C2.67 23.68 2.34 22.36 2 21 C1.34 21.33 0.68 21.66 0 22 C-0.25 16.375 -0.25 16.375 2 13 C2.99 13 3.98 13 5 13 C5 10.69 5 8.38 5 6 C5.66 6 6.32 6 7 6 C7 5.34 7 4.68 7 4 C6.34 3.67 5.68 3.34 5 3 C5 3.66 5 4.32 5 5 C4.01 4.67 3.02 4.34 2 4 C2 3.34 2 2.68 2 2 C1.34 2 0.68 2 0 2 C0 1.34 0 0.68 0 0 Z " fill="#D8F7FC" transform="translate(166,109)"/>
<path d="M0 0 C2.475 0.495 2.475 0.495 5 1 C5 1.66 5 2.32 5 3 C3.35 3 1.7 3 0 3 C-0.33 3.66 -0.66 4.32 -1 5 C-1 4.34 -1 3.68 -1 3 C-3.31 3 -5.62 3 -8 3 C-8 3.66 -8 4.32 -8 5 C-7.34 5 -6.68 5 -6 5 C-6 7.64 -6 10.28 -6 13 C-5.34 13.33 -4.68 13.66 -4 14 C-4.99 14 -5.98 14 -7 14 C-7 11.69 -7 9.38 -7 7 C-8.65 7.33 -10.3 7.66 -12 8 C-11.01 8.33 -10.02 8.66 -9 9 C-9.33 10.32 -9.66 11.64 -10 13 C-10 12.34 -10 11.68 -10 11 C-11.98 11 -13.96 11 -16 11 C-16 9.35 -16 7.7 -16 6 C-14.02 6 -12.04 6 -10 6 C-10.33 5.34 -10.66 4.68 -11 4 C-12.98 4 -14.96 4 -17 4 C-17.33 4.99 -17.66 5.98 -18 7 C-19.98 7 -21.96 7 -24 7 C-22.68 6.67 -21.36 6.34 -20 6 C-20 5.01 -20 4.02 -20 3 C-18.68 3 -17.36 3 -16 3 C-16 2.34 -16 1.68 -16 1 C-10.55306686 0.90311779 -5.36095333 0.87137825 0 2 C0 1.34 0 0.68 0 0 Z " fill="#E0FAFD" transform="translate(128,108)"/>
<path d="M0 0 C5.28 0 10.56 0 16 0 C16 0.33 16 0.66 16 1 C11.38 1 6.76 1 2 1 C2 2.98 2 4.96 2 7 C3.14339844 6.98839844 4.28679687 6.97679688 5.46484375 6.96484375 C6.95572754 6.95546712 8.44661309 6.94636679 9.9375 6.9375 C11.06961914 6.92493164 11.06961914 6.92493164 12.22460938 6.91210938 C14.14994313 6.90347559 16.07535581 6.94775667 18 7 C19 8 19 8 19.1875 11.375 C19 15 19 15 17 18 C14.04935852 18.2208564 11.31631769 18.28060989 8.375 18.1875 C7.57320313 18.17396484 6.77140625 18.16042969 5.9453125 18.14648438 C3.96325622 18.11109051 1.98154449 18.05728234 0 18 C0 17.67 0 17.34 0 17 C5.28 17 10.56 17 16 17 C16 14.36 16 11.72 16 9 C10.72 9 5.44 9 0 9 C0 6.03 0 3.06 0 0 Z " fill="#F9C1C2" transform="translate(72,72)"/>
<path d="M0 0 C0 2.64 0 5.28 0 8 C-6.85988773 8.94870788 -13.14011227 8.94870788 -20 8 C-20.33 7.01 -20.66 6.02 -21 5 C-19.00383446 3.00383446 -15.18298037 3.59016573 -12.4375 3.4375 C-11.72658203 3.39431641 -11.01566406 3.35113281 -10.28320312 3.30664062 C-8.52238088 3.20028223 -6.7612168 3.09961154 -5 3 C-5 2.34 -5 1.68 -5 1 C-2 0 -2 0 0 0 Z " fill="#DD1F24" transform="translate(173,97)"/>
<path d="M0 0 C0.99 0 1.98 0 3 0 C3.33 0.66 3.66 1.32 4 2 C10.93 2.33 17.86 2.66 25 3 C25 3.33 25 3.66 25 4 C18.565 4.495 18.565 4.495 12 5 C12 5.99 12 6.98 12 8 C17.61 8 23.22 8 29 8 C25.25902881 10.49398079 23.15004478 10.29925803 18.6875 10.3125 C16.74423828 10.33763672 16.74423828 10.33763672 14.76171875 10.36328125 C8.21757304 9.7312921 4.26133673 6.8880039 0 2 C0 1.34 0 0.68 0 0 Z " fill="#D32B34" transform="translate(141,97)"/>
<path d="M0 0 C0.66 0 1.32 0 2 0 C2 14.85 2 29.7 2 45 C1.34 45 0.68 45 0 45 C-0.81386532 42.16592863 -1.10348768 39.72555644 -1.02172852 36.78222656 C-0.99158409 35.5514035 -0.99158409 35.5514035 -0.96083069 34.29571533 C-0.93379562 33.41953552 -0.90676056 32.54335571 -0.87890625 31.640625 C-0.85529526 30.73624695 -0.83168427 29.8318689 -0.80735779 28.90008545 C-0.73089281 26.01655712 -0.64679464 23.13330903 -0.5625 20.25 C-0.50926213 18.29298238 -0.45652185 16.33595116 -0.40429688 14.37890625 C-0.27530089 9.58576063 -0.13945947 4.79285213 0 0 Z " fill="#FEE3E2" transform="translate(24,63)"/>
<path d="M0 0 C1.98 0 3.96 0 6 0 C5.01 0.33 4.02 0.66 3 1 C3 1.99 3 2.98 3 4 C3.9590625 4.2165625 3.9590625 4.2165625 4.9375 4.4375 C7 5 7 5 8 6 C8.33 4.02 8.66 2.04 9 0 C9.66 0 10.32 0 11 0 C11 2.64 11 5.28 11 8 C12.32 8 13.64 8 15 8 C15 8.66 15 9.32 15 10 C10.05 10 5.1 10 0 10 C0 6.7 0 3.4 0 0 Z " fill="#7BBFD6" transform="translate(85,112)"/>
<path d="M0 0 C3.46679688 0.04882812 3.46679688 0.04882812 6.93359375 0.09765625 C6.93359375 3.06765625 6.93359375 6.03765625 6.93359375 9.09765625 C4.95359375 9.09765625 2.97359375 9.09765625 0.93359375 9.09765625 C0.60359375 8.43765625 0.27359375 7.77765625 -0.06640625 7.09765625 C-0.39640625 7.75765625 -0.72640625 8.41765625 -1.06640625 9.09765625 C-1.72640625 9.09765625 -2.38640625 9.09765625 -3.06640625 9.09765625 C-3.1640625 2.9453125 -3.1640625 2.9453125 -3.06640625 1.09765625 C-2.06640625 0.09765625 -2.06640625 0.09765625 0 0 Z " fill="#94D0DD" transform="translate(55.06640625,124.90234375)"/>
<path d="M0 0 C5.28 0 10.56 0 16 0 C16 0.33 16 0.66 16 1 C11.38 1 6.76 1 2 1 C2.33 2.65 2.66 4.3 3 6 C4.57201172 5.93039063 4.57201172 5.93039063 6.17578125 5.859375 C7.55465901 5.82185452 8.93356758 5.78545464 10.3125 5.75 C11.00279297 5.71648437 11.69308594 5.68296875 12.40429688 5.6484375 C17.52801696 5.54942842 17.52801696 5.54942842 19.98046875 7.890625 C21 10 21 10 21 12 C21.66 12 22.32 12 23 12 C23.33 11.01 23.66 10.02 24 9 C24 10.65 24 12.3 24 14 C19.25 12.33108108 19.25 12.33108108 17.84375 10.46875 C14.88435444 8.1112654 11.45063773 8.42370945 7.8125 8.3125 C7.06291016 8.27833984 6.31332031 8.24417969 5.54101562 8.20898438 C3.69453162 8.12665706 1.84729006 8.06164719 0 8 C0 5.36 0 2.72 0 0 Z " fill="#FEEAE4" transform="translate(37,90)"/>
<path d="M0 0 C4.95 0 9.9 0 15 0 C15 1.98 15 3.96 15 6 C13.08364783 6.05423638 11.16685075 6.09289963 9.25 6.125 C7.64898437 6.15980469 7.64898437 6.15980469 6.015625 6.1953125 C3.07529894 6.00487687 1.47638122 5.52670104 -1 4 C0.32 3.67 1.64 3.34 3 3 C2.01 2.67 1.02 2.34 0 2 C0 1.34 0 0.68 0 0 Z " fill="#D8242E" transform="translate(37,82)"/>
<path d="M0 0 C1.65 0 3.3 0 5 0 C7 6.625 7 6.625 7 10 C6.030625 10.12375 5.06125 10.2475 4.0625 10.375 C3.051875 10.58125 2.04125 10.7875 1 11 C0.67 11.66 0.34 12.32 0 13 C-0.66 11.68 -1.32 10.36 -2 9 C-1.34 9 -0.68 9 0 9 C0 6.03 0 3.06 0 0 Z " fill="#DEF9FC" transform="translate(162,114)"/>
<path d="M0 0 C2.1875 0.3125 2.1875 0.3125 5 1 C7.33177975 1.34403308 9.66487041 1.67949202 12 2 C12 2.33 12 2.66 12 3 C10.6078125 3.1546875 10.6078125 3.1546875 9.1875 3.3125 C6.11420058 3.78835778 6.11420058 3.78835778 4.1875 5.125 C2.41060583 7.93062237 2.30744876 10.74104317 2 14 C1.01 14 0.02 14 -1 14 C-1.22142255 12.04310341 -1.4267568 10.08438048 -1.625 8.125 C-1.74101563 7.03445312 -1.85703125 5.94390625 -1.9765625 4.8203125 C-1.98429687 3.88960938 -1.99203125 2.95890625 -2 2 C-1.34 1.34 -0.68 0.68 0 0 Z " fill="#E51E21" transform="translate(67,82)"/>
<path d="M0 0 C1.32 0.33 2.64 0.66 4 1 C5.125 3 5.125 3 6 5 C6.66 5.33 7.32 5.66 8 6 C8 4.02 8 2.04 8 0 C8.66 0 9.32 0 10 0 C10 3.63 10 7.26 10 11 C9.01 11 8.02 11 7 11 C5.95107762 9.36368108 4.95093297 7.69514137 4 6 C3.34 5.67 2.68 5.34 2 5 C2 6.98 2 8.96 2 11 C1.34 11 0.68 11 0 11 C0 7.37 0 3.74 0 0 Z " fill="#53ADC4" transform="translate(35,111)"/>
<path d="M0 0 C4.875 2.75 4.875 2.75 6 5 C6.49988513 10.01524102 7.00045732 15.20269608 4.25 19.625 C2.05671496 21.94013421 1.1323445 22.77626111 -2 23 C-2 22.34 -2 21.68 -2 21 C-1.01 21 -0.02 21 1 21 C1.144375 20.195625 1.28875 19.39125 1.4375 18.5625 C2 16 2 16 3 15 C3.07148199 13.64756083 3.08399454 12.29165633 3.0625 10.9375 C3.041875 9.638125 3.02125 8.33875 3 7 C2.34 7 1.68 7 1 7 C0.67 4.69 0.34 2.38 0 0 Z " fill="#FBDAD7" transform="translate(120,74)"/>
<path d="M0 0 C0.66 0 1.32 0 2 0 C2 2.31 2 4.62 2 7 C6.64586892 6.51515724 6.64586892 6.51515724 11 5 C11 5.66 11 6.32 11 7 C11.54140625 6.82597656 12.0828125 6.65195313 12.640625 6.47265625 C15.48751809 5.90233495 17.86718522 6.12862699 20.75 6.4375 C21.73484375 6.53933594 22.7196875 6.64117187 23.734375 6.74609375 C24.48203125 6.82988281 25.2296875 6.91367188 26 7 C25.67 7.66 25.34 8.32 25 9 C22.33566255 9.81410311 20.48443467 10.10765215 17.75 9.5 C12.78776538 8.59777552 7.7547578 9.41508073 3 11 C2.67 10.34 2.34 9.68 2 9 C1.34 9 0.68 9 0 9 C0 6.03 0 3.06 0 0 Z " fill="#E4FAFC" transform="translate(24,127)"/>
<path d="M0 0 C0 3.3 0 6.6 0 10 C-0.33 10 -0.66 10 -1 10 C-1 7.36 -1 4.72 -1 2 C-1.99 2 -2.98 2 -4 2 C-4 4.64 -4 7.28 -4 10 C-5.32 10 -6.64 10 -8 10 C-8 7.69 -8 5.38 -8 3 C-8.66 3 -9.32 3 -10 3 C-10 3.66 -10 4.32 -10 5 C-10.66 5 -11.32 5 -12 5 C-12 4.34 -12 3.68 -12 3 C-12.99 2.67 -13.98 2.34 -15 2 C-14.06027344 1.90912109 -14.06027344 1.90912109 -13.1015625 1.81640625 C-11.87566406 1.69072266 -11.87566406 1.69072266 -10.625 1.5625 C-9.81289062 1.48128906 -9.00078125 1.40007812 -8.1640625 1.31640625 C-4.91207355 0.84093494 -3.56824114 0 0 0 Z " fill="#CFF4F9" transform="translate(80,109)"/>
<path d="M0 0 C0.928125 0.20625 1.85625 0.4125 2.8125 0.625 C2.8125 1.615 2.8125 2.605 2.8125 3.625 C0.5025 3.295 -1.8075 2.965 -4.1875 2.625 C-3.8575 4.605 -3.5275 6.585 -3.1875 8.625 C-1.8675 8.625 -0.5475 8.625 0.8125 8.625 C0.8125 7.965 0.8125 7.305 0.8125 6.625 C0.1525 6.625 -0.5075 6.625 -1.1875 6.625 C-1.1875 5.965 -1.1875 5.305 -1.1875 4.625 C0.4625 4.625 2.1125 4.625 3.8125 4.625 C3.4825 6.275 3.1525 7.925 2.8125 9.625 C-0.5625 10.25 -0.5625 10.25 -4.1875 10.625 C-6.1875 8.625 -6.1875 8.625 -6.5 5.125 C-6.396875 3.97 -6.29375 2.815 -6.1875 1.625 C-3.1875 -0.375 -3.1875 -0.375 0 0 Z " fill="#53A6BE" transform="translate(64.1875,111.375)"/>
<path d="M0 0 C0.66 0 1.32 0 2 0 C2 3.3 2 6.6 2 10 C3.26457031 9.95359375 4.52914062 9.9071875 5.83203125 9.859375 C7.49216391 9.82185788 9.15232208 9.78545765 10.8125 9.75 C11.64587891 9.71648437 12.47925781 9.68296875 13.33789062 9.6484375 C15.62620111 9.61167749 17.74321261 9.61504207 20 10 C22.07421875 12.015625 22.07421875 12.015625 23 14 C22.01 14.495 22.01 14.495 21 15 C20.34 14.67 19.68 14.34 19 14 C19 13.34 19 12.68 19 12 C13.06 12 7.12 12 1 12 C0.15271797 7.76358987 -0.08384078 4.27587998 0 0 Z " fill="#CA343B" transform="translate(34,89)"/>
<path d="M0 0 C2.375 -0.125 2.375 -0.125 5 0 C7 2 7 2 7.25 4.5 C7 7 7 7 5 9 C0.44444444 8.44444444 0.44444444 8.44444444 -1 7 C-0.71269945 4.66055264 -0.38063221 2.3260857 0 0 Z " fill="#62A6B9" transform="translate(91,125)"/>
<path d="M0 0 C2.5 0.125 2.5 0.125 3.5 1.125 C3.6875 4.0625 3.6875 4.0625 3.5 7.125 C2.84 7.785 2.18 8.445 1.5 9.125 C-1.43453261 8.75818342 -2.36437246 8.26062754 -4.5 6.125 C-3.77607362 0.18880368 -3.77607362 0.18880368 0 0 Z " fill="#5D9DB3" transform="translate(125.5,124.875)"/>
<path d="M0 0 C2.64 0 5.28 0 8 0 C8 2.97 8 5.94 8 9 C7.34 9 6.68 9 6 9 C5.34 8.34 4.68 7.68 4 7 C3.67 7.66 3.34 8.32 3 9 C2.34 9 1.68 9 1 9 C0.67 6.03 0.34 3.06 0 0 Z " fill="#8FCDD8" transform="translate(80,125)"/>
<path d="M0 0 C0.99 0 1.98 0 3 0 C3.08096803 1.45742463 3.13917774 2.91612807 3.1875 4.375 C3.22230469 5.18710938 3.25710937 5.99921875 3.29296875 6.8359375 C3.19628906 7.55007812 3.09960938 8.26421875 3 9 C0 11 0 11 -2.625 10.6875 C-5 10 -5 10 -6 9 C-6.14115161 6.32941149 -6.04247107 3.67567762 -6 1 C-5.34 1 -4.68 1 -4 1 C-4 3.31 -4 5.62 -4 8 C-2.68 8 -1.36 8 0 8 C0 5.36 0 2.72 0 0 Z " fill="#5FA8C3" transform="translate(53,111)"/>
<path d="M0 0 C1.98 0 3.96 0 6 0 C6 3.66666667 6 7.33333333 6 11 C4.02 11 2.04 11 0 11 C0 7.37 0 3.74 0 0 Z " fill="#65AEC9" transform="translate(27,111)"/>
<path d="M0 0 C2.31 0 4.62 0 7 0 C6.67 2.97 6.34 5.94 6 9 C3.69 9 1.38 9 -1 9 C-0.690625 7.824375 -0.690625 7.824375 -0.375 6.625 C-0.25125 5.75875 -0.1275 4.8925 0 4 C-0.66 3.34 -1.32 2.68 -2 2 C-1.34 2 -0.68 2 0 2 C0 1.34 0 0.68 0 0 Z " fill="#BCECF6" transform="translate(43,125)"/>
<path d="M0 0 C0.99 0 1.98 0 3 0 C3 2.97 3 5.94 3 9 C0.04335481 10.4783226 -2.74229737 10.06032783 -6 10 C-6 7.03 -6 4.06 -6 1 C-5.34 1 -4.68 1 -4 1 C-4 3.31 -4 5.62 -4 8 C-2.68 8 -1.36 8 0 8 C0 5.36 0 2.72 0 0 Z " fill="#5EA7C3" transform="translate(76,111)"/>
<path d="M0 0 C-3 2 -3 2 -5 3 C-3.948125 2.98259766 -3.948125 2.98259766 -2.875 2.96484375 C2.86113102 2.91028816 8.32778253 3.14381623 14 4 C14 4.33 14 4.66 14 5 C9.89589245 5.05796132 5.79188984 5.09358313 1.6875 5.125 C0.52025391 5.14175781 -0.64699219 5.15851563 -1.84960938 5.17578125 C-3.52700195 5.18544922 -3.52700195 5.18544922 -5.23828125 5.1953125 C-6.7857605 5.21102295 -6.7857605 5.21102295 -8.36450195 5.22705078 C-11 5 -11 5 -14 3 C-8.99067246 -0.00559652 -5.67276511 -0.29341888 0 0 Z " fill="#D4252B" transform="translate(43,101)"/>
<path d="M0 0 C2.97 0 5.94 0 9 0 C9.33 1.65 9.66 3.3 10 5 C6.7 5.33 3.4 5.66 0 6 C0 4.02 0 2.04 0 0 Z " fill="#F9FBF9" transform="translate(74,91)"/>
<path d="M0 0 C2.31 0 4.62 0 7 0 C7.33 2.31 7.66 4.62 8 7 C7.01 6.67 6.02 6.34 5 6 C5.33 7.32 5.66 8.64 6 10 C4.68 10 3.36 10 2 10 C2 7.36 2 4.72 2 2 C1.34 2 0.68 2 0 2 C0 1.34 0 0.68 0 0 Z " fill="#AEE7F1" transform="translate(120,111)"/>
<path d="M0 0 C2.35694954 0.09031574 4.71153582 0.24688128 7.0625 0.4375 C8.35285156 0.53933594 9.64320312 0.64117187 10.97265625 0.74609375 C12.47119141 0.87177734 12.47119141 0.87177734 14 1 C9.96707255 3.2344598 6.55032566 3.54496743 2 4 C1.67 8.62 1.34 13.24 1 18 C0.34 17.67 -0.32 17.34 -1 17 C-1.02684679 14.35409986 -1.04676357 11.70846904 -1.0625 9.0625 C-1.07087891 8.30775391 -1.07925781 7.55300781 -1.08789062 6.77539062 C-1.09652441 4.85005687 -1.05224333 2.92464419 -1 1 C-0.67 0.67 -0.34 0.34 0 0 Z " fill="#EFFAFD" transform="translate(25,108)"/>
<path d="M0 0 C2.09960938 1.85546875 2.09960938 1.85546875 4.19921875 3.7109375 C8.74401889 6.96426515 13.36472709 7.37476737 18.8125 7.625 C19.50537109 7.66367188 20.19824219 7.70234375 20.91210938 7.7421875 C22.60767015 7.83573568 24.30379712 7.91892364 26 8 C26 8.33 26 8.66 26 9 C23.06243881 9.0269501 20.12512445 9.04681474 17.1875 9.0625 C15.93743164 9.07506836 15.93743164 9.07506836 14.66210938 9.08789062 C13.45844727 9.09272461 13.45844727 9.09272461 12.23046875 9.09765625 C11.49207764 9.10289307 10.75368652 9.10812988 9.99291992 9.11352539 C8 9 8 9 5 8 C5 7.34 5 6.68 5 6 C2.69 6.33 0.38 6.66 -2 7 C-1.67 6.21625 -1.34 5.4325 -1 4.625 C0.11866511 2.15667503 0.11866511 2.15667503 0 0 Z " fill="#F9CBCC" transform="translate(141,99)"/>
<path d="M0 0 C1.66611905 -0.042721 3.33382885 -0.04063832 5 0 C6 1 6 1 6.1875 3.9375 C6 7 6 7 4 9 C2.68 9 1.36 9 0 9 C0 6.03 0 3.06 0 0 Z " fill="#76B7C6" transform="translate(27,125)"/>
<path d="M0 0 C4 2 4 2 5 4 C5.33 2.68 5.66 1.36 6 0 C6.66 0 7.32 0 8 0 C8 2.97 8 5.94 8 9 C7.01 9 6.02 9 5 9 C4.67 8.01 4.34 7.02 4 6 C3.34 5.67 2.68 5.34 2 5 C2 6.32 2 7.64 2 9 C1.34 9 0.68 9 0 9 C0 6.03 0 3.06 0 0 Z " fill="#6AA6C1" transform="translate(100,125)"/>
<path d="M0 0 C0.99 0.33 1.98 0.66 3 1 C3.99 0.67 4.98 0.34 6 0 C5.9175 0.7425 5.835 1.485 5.75 2.25 C6.07105184 5.78157027 7.35265617 6.76630364 10 9 C8.25 9.6875 8.25 9.6875 6 10 C3.75 8.5625 3.75 8.5625 2 7 C1.01 7.495 1.01 7.495 0 8 C0 5.36 0 2.72 0 0 Z " fill="#D3F4F9" transform="translate(108,126)"/>
<path d="M0 0 C0 0.66 0 1.32 0 2 C-1.98 2 -3.96 2 -6 2 C-5.67 3.32 -5.34 4.64 -5 6 C-3.35 6.33 -1.7 6.66 0 7 C-0.33 7.99 -0.66 8.98 -1 10 C-3.97 9.505 -3.97 9.505 -7 9 C-8.33078101 2.58805513 -8.33078101 2.58805513 -6.875 0 C-4.28103624 -1.38344734 -2.74857743 -0.81714464 0 0 Z " fill="#63A4BA" transform="translate(151,112)"/>
<path d="M0 0 C1.1446875 0.3403125 1.1446875 0.3403125 2.3125 0.6875 C2.3125 1.3475 2.3125 2.0075 2.3125 2.6875 C0.3325 2.6875 -1.6475 2.6875 -3.6875 2.6875 C-3.6875 4.3375 -3.6875 5.9875 -3.6875 7.6875 C-1.7075 7.6875 0.2725 7.6875 2.3125 7.6875 C1.9825 8.6775 1.6525 9.6675 1.3125 10.6875 C-3.4375 9.8125 -3.4375 9.8125 -5.6875 8.6875 C-6.04825949 3.27610759 -6.04825949 3.27610759 -4.5 0.75 C-2.6875 -0.3125 -2.6875 -0.3125 0 0 Z " fill="#5AA9BF" transform="translate(115.6875,111.3125)"/>
<path d="M0 0 C1.32 0.33 2.64 0.66 4 1 C4 3.64 4 6.28 4 9 C4.66 9.33 5.32 9.66 6 10 C5.01 10 4.02 10 3 10 C3 7.69 3 5.38 3 3 C1.35 3.33 -0.3 3.66 -2 4 C-1.01 4.33 -0.02 4.66 1 5 C0.67 6.32 0.34 7.64 0 9 C0 8.34 0 7.68 0 7 C-1.98 7 -3.96 7 -6 7 C-6 5.35 -6 3.7 -6 2 C-4.02 2 -2.04 2 0 2 C0 1.34 0 0.68 0 0 Z " fill="#B9E6F3" transform="translate(118,112)"/>
<path d="M0 0 C2.475 0.495 2.475 0.495 5 1 C5.625 3.875 5.625 3.875 6 7 C5.34 7.66 4.68 8.32 4 9 C2.68 9 1.36 9 0 9 C0 6.03 0 3.06 0 0 Z " fill="#60B1CA" transform="translate(64,125)"/>
<path d="M0 0 C0.66 0.33 1.32 0.66 2 1 C2 1.99 2 2.98 2 4 C3.98 4 5.96 4 8 4 C7.67 4.66 7.34 5.32 7 6 C3.28040445 7.13654308 0.73759686 6.82325922 -3 6 C-3.88300781 5.82339844 -4.76601562 5.64679688 -5.67578125 5.46484375 C-8.1171875 4.9765625 -10.55859375 4.48828125 -13 4 C-13 3.34 -13 2.68 -13 2 C-8.71 2.66 -4.42 3.32 0 4 C0 2.68 0 1.36 0 0 Z " fill="#DAF8FB" transform="translate(133,130)"/>
<path d="M0 0 C0.99 0 1.98 0 3 0 C3 2.64 3 5.28 3 8 C2.34 7.01 1.68 6.02 1 5 C0.01 5.99 -0.98 6.98 -2 8 C-2.33 7.34 -2.66 6.68 -3 6 C-3.33 6.66 -3.66 7.32 -4 8 C-4.66 8 -5.32 8 -6 8 C-5.67 5.69 -5.34 3.38 -5 1 C-4.01 1 -3.02 1 -2 1 C-1.67 1.66 -1.34 2.32 -1 3 C-0.67 2.01 -0.34 1.02 0 0 Z " fill="#58A8BE" transform="translate(137,125)"/>
<path d="M0 0 C1.5625 1.6875 1.5625 1.6875 3 4 C2.6875 6.75 2.6875 6.75 2 9 C1.01 8.67 0.02 8.34 -1 8 C-1 7.34 -1 6.68 -1 6 C-2.98 6 -4.96 6 -7 6 C-7 5.34 -7 4.68 -7 4 C-4.69 2.68 -2.38 1.36 0 0 Z " fill="#FBE3E1" transform="translate(131,100)"/>
<path d="M0 0 C1.125 1.75 1.125 1.75 2 4 C1.125 6.25 1.125 6.25 0 8 C0.66 8 1.32 8 2 8 C2 7.34 2 6.68 2 6 C3.32 6.33 4.64 6.66 6 7 C5.01 7 4.02 7 3 7 C2.67 7.99 2.34 8.98 2 10 C-0.64 9.67 -3.28 9.34 -6 9 C-5.34 8.67 -4.68 8.34 -4 8 C-4 6.68 -4 5.36 -4 4 C-3.01 3.67 -2.02 3.34 -1 3 C-0.67 2.01 -0.34 1.02 0 0 Z " fill="#C6F2F9" transform="translate(148,126)"/>
<path d="M0 0 C4.62 0 9.24 0 14 0 C14 1.65 14 3.3 14 5 C13 6 13 6 9.83984375 6.09765625 C7.90818359 6.08025391 7.90818359 6.08025391 5.9375 6.0625 C4.64714844 6.05347656 3.35679688 6.04445313 2.02734375 6.03515625 C1.02832031 6.02355469 0.02929688 6.01195313 -1 6 C-1 5.67 -1 5.34 -1 5 C3.29 5 7.58 5 12 5 C12 4.01 12 3.02 12 2 C8.04 1.67 4.08 1.34 0 1 C0 0.67 0 0.34 0 0 Z " fill="#CB262F" transform="translate(73,82)"/>
<path d="M0 0 C0.33 1.32 0.66 2.64 1 4 C2.32 4.33 3.64 4.66 5 5 C4.34 7.31 3.68 9.62 3 12 C2.34 12 1.68 12 1 12 C0.566875 10.9275 0.13375 9.855 -0.3125 8.75 C-1.55321513 5.83727354 -2.95070379 3.43963834 -5 1 C-3.35 0.67 -1.7 0.34 0 0 Z " fill="#FACFCF" transform="translate(135,68)"/>
<path d="M0 0 C2.0625 0.4375 2.0625 0.4375 4 1 C4.33 3.64 4.66 6.28 5 9 C4.34 9 3.68 9 3 9 C2.67 8.34 2.34 7.68 2 7 C1.67 7.66 1.34 8.32 1 9 C0.34 9 -0.32 9 -1 9 C-1.09765625 2.84765625 -1.09765625 2.84765625 -1 1 C-0.67 0.67 -0.34 0.34 0 0 Z " fill="#5BADC3" transform="translate(53,125)"/>
<path d="M0 0 C3 1 3 1 4.1875 2.8125 C5 5 5 5 5 9 C4.34 9 3.68 9 3 9 C3 8.34 3 7.68 3 7 C1.68 7 0.36 7 -1 7 C-1 7.66 -1 8.32 -1 9 C-1.66 9 -2.32 9 -3 9 C-2.01 6.03 -1.02 3.06 0 0 Z " fill="#6AACC0" transform="translate(151,125)"/>
<path d="M0 0 C0.66 0 1.32 0 2 0 C2.33 0.66 2.66 1.32 3 2 C10.59 2.33 18.18 2.66 26 3 C26 2.34 26 1.68 26 1 C26.66 1 27.32 1 28 1 C28.33 1.99 28.66 2.98 29 4 C19.43 4 9.86 4 0 4 C0 2.68 0 1.36 0 0 Z " fill="#CD2930" transform="translate(63,102)"/>
<path d="M0 0 C0.66 0 1.32 0 2 0 C2 1.98 2 3.96 2 6 C2.99 6 3.98 6 5 6 C5 4.02 5 2.04 5 0 C5.66 0 6.32 0 7 0 C7.125 3.375 7.125 3.375 7 7 C6.34 7.66 5.68 8.32 5 9 C1.46428571 8.46428571 1.46428571 8.46428571 0 7 C-0.04092937 4.66702567 -0.04241723 2.33294775 0 0 Z " fill="#62A0B8" transform="translate(71,125)"/>
<path d="M0 0 C0.99 0.66 1.98 1.32 3 2 C3 2.66 3 3.32 3 4 C-7.89 4 -18.78 4 -30 4 C-30 3.67 -30 3.34 -30 3 C-20.1 3 -10.2 3 0 3 C0 2.01 0 1.02 0 0 Z " fill="#CC575C" transform="translate(57,103)"/>
<path d="M0 0 C-0.33 1.65 -0.66 3.3 -1 5 C-3.97 4.505 -3.97 4.505 -7 4 C-7.99 5.32 -8.98 6.64 -10 8 C-10.25 5.1875 -10.25 5.1875 -10 2 C-6.92702006 -1.66393762 -4.38919352 -1.09729838 0 0 Z " fill="#D3252C" transform="translate(149,73)"/>
<path d="M0 0 C0 0.33 0 0.66 0 1 C-6.93 1 -13.86 1 -21 1 C-15.54959546 -4.45040454 -6.58090504 -2.19363501 0 0 Z " fill="#C9585E" transform="translate(171,64)"/>
<path d="M0 0 C1 3 1 3 0.0625 5.875 C-2.52598823 9.79695187 -5.58887837 12.29820452 -10 14 C-12.25390625 13.62890625 -12.25390625 13.62890625 -14 13 C-11.35261084 11.5393715 -10.10551666 11 -7 11 C-6.67 9.68 -6.34 8.36 -6 7 C-4.68 7 -3.36 7 -2 7 C-2.04125 6.21625 -2.0825 5.4325 -2.125 4.625 C-2 2 -2 2 0 0 Z " fill="#C33A40" transform="translate(134,91)"/>
<path d="M0 0 C3.05882701 1.52941351 3.68951234 3.94219546 5 7 C4.67 7.66 4.34 8.32 4 9 C3.01 8.67 2.02 8.34 1 8 C-0.65 8.66 -2.3 9.32 -4 10 C-2.68 6.7 -1.36 3.4 0 0 Z " fill="#FAC7C7" transform="translate(136,90)"/>
<path d="M0 0 C0.99 0 1.98 0 3 0 C3.33 0.99 3.66 1.98 4 3 C3.34 3.66 2.68 4.32 2 5 C1.3574765 7.06874034 1.3574765 7.06874034 1 9 C-0.65 8.67 -2.3 8.34 -4 8 C-3.67 6.35 -3.34 4.7 -3 3 C-2.34 3 -1.68 3 -1 3 C-0.67 2.01 -0.34 1.02 0 0 Z " fill="#F3FAF9" transform="translate(139,64)"/>
<path d="M0 0 C4.62 0 9.24 0 14 0 C14 0.33 14 0.66 14 1 C10.92382812 1.29296875 10.92382812 1.29296875 7.84765625 1.5859375 C7.23792969 1.72257812 6.62820312 1.85921875 6 2 C5.67 2.66 5.34 3.32 5 4 C5.66 4.33 6.32 4.66 7 5 C4.69 5.33 2.38 5.66 0 6 C0 4.02 0 2.04 0 0 Z " fill="#DA212E" transform="translate(72,65)"/>
<path d="M0 0 C1.65 0 3.3 0 5 0 C5.33 1.32 5.66 2.64 6 4 C4.68 4.33 3.36 4.66 2 5 C2 6.32 2 7.64 2 9 C1.34 9 0.68 9 0 9 C0 6.03 0 3.06 0 0 Z " fill="#64B2C3" transform="translate(142,125)"/>
<path d="M0 0 C2.475 0.99 2.475 0.99 5 2 C5 1.34 5 0.68 5 0 C5.99 0.33 6.98 0.66 8 1 C7.67 1.66 7.34 2.32 7 3 C6.34 3 5.68 3 5 3 C5 5.31 5 7.62 5 10 C4.01 9.67 3.02 9.34 2 9 C1.26953125 6.93359375 1.26953125 6.93359375 0.8125 4.4375 C0.65394531 3.61121094 0.49539062 2.78492187 0.33203125 1.93359375 C0.16767578 0.97646484 0.16767578 0.97646484 0 0 Z " fill="#5AA6B8" transform="translate(166,112)"/>
<path d="M0 0 C0.66 0 1.32 0 2 0 C2 0.66 2 1.32 2 2 C2.66 2 3.32 2 4 2 C4.33 2.66 4.66 3.32 5 4 C5.66 3.01 6.32 2.02 7 1 C7 3.31 7 5.62 7 8 C6.34 8 5.68 8 5 8 C5 7.34 5 6.68 5 6 C4.34 6 3.68 6 3 6 C2.67 6.66 2.34 7.32 2 8 C1.34 8 0.68 8 0 8 C0 5.36 0 2.72 0 0 Z " fill="#4FA2B7" transform="translate(158,125)"/>
<path d="M0 0 C2.31 0 4.62 0 7 0 C7 1.98 7 3.96 7 6 C4.69 5.34 2.38 4.68 0 4 C0 2.68 0 1.36 0 0 Z " fill="#C9F8FC" transform="translate(145,114)"/>
<path d="M0 0 C1.21236328 0.02707031 1.21236328 0.02707031 2.44921875 0.0546875 C3.37154297 0.08949219 3.37154297 0.08949219 4.3125 0.125 C3.9825 1.115 3.6525 2.105 3.3125 3.125 C2.6525 3.125 1.9925 3.125 1.3125 3.125 C1.3125 3.785 1.3125 4.445 1.3125 5.125 C0.6525 5.125 -0.0075 5.125 -0.6875 5.125 C-0.6875 4.465 -0.6875 3.805 -0.6875 3.125 C-2.9975 2.795 -5.3075 2.465 -7.6875 2.125 C-4.48369983 -0.01086678 -3.66810033 -0.10632175 0 0 Z " fill="#DFFAFE" transform="translate(89.6875,121.875)"/>
<path d="M0 0 C0.99 0 1.98 0 3 0 C3.103125 1.093125 3.20625 2.18625 3.3125 3.3125 C3.97307727 6.85559629 4.2027092 7.93243723 7 10 C3.18243176 11.37432457 -0.07255329 10.67975039 -4 10 C-3.0409375 9.5978125 -3.0409375 9.5978125 -2.0625 9.1875 C0.33131686 8.11332248 0.33131686 8.11332248 1 5 C0.60602665 2.36195411 0.60602665 2.36195411 0 0 Z " fill="#C4F4F9" transform="translate(68,125)"/>
<path d="M0 0 C0.66 0.33 1.32 0.66 2 1 C1.6875 2.9375 1.6875 2.9375 1 5 C0.01 5.33 -0.98 5.66 -2 6 C-2 5.34 -2 4.68 -2 4 C-2.66 4 -3.32 4 -4 4 C-4 3.34 -4 2.68 -4 2 C-4.66 2 -5.32 2 -6 2 C-6 1.34 -6 0.68 -6 0 C-3.4832097 -1.25839515 -2.62168527 -0.81927665 0 0 Z " fill="#F3FBFC" transform="translate(112,122)"/>
<path d="M0 0 C1.98 0 3.96 0 6 0 C6 2.64 6 5.28 6 8 C4.68 8 3.36 8 2 8 C2 5.69 2 3.38 2 1 C1.34 0.67 0.68 0.34 0 0 Z " fill="#BBEFFA" transform="translate(47,111)"/>
<path d="M0 0 C0.99 0.33 1.98 0.66 3 1 C3 2.32 3 3.64 3 5 C8.94 5 14.88 5 21 5 C21 5.33 21 5.66 21 6 C14.07 6 7.14 6 0 6 C0 4.02 0 2.04 0 0 Z " fill="#CE2932" transform="translate(99,100)"/>
<path d="M0 0 C0.99 0.33 1.98 0.66 3 1 C3.99 0.67 4.98 0.34 6 0 C5.34 2.97 4.68 5.94 4 9 C3.01 9 2.02 9 1 9 C0.67 6.03 0.34 3.06 0 0 Z " fill="#74B1BF" transform="translate(168,125)"/>
<path d="M0 0 C0.99 0 1.98 0 3 0 C3 3.3 3 6.6 3 10 C2.34 10 1.68 10 1 10 C-1.56687367 6.1496895 -0.83288724 4.41430237 0 0 Z " fill="#BCF5FB" transform="translate(135,112)"/>
<path d="M0 0 C0.66 0 1.32 0 2 0 C2 3.63 2 7.26 2 11 C1.34 11 0.68 11 0 11 C-1.625 9 -1.625 9 -3 7 C-2.01 7 -1.02 7 0 7 C0 6.01 0 5.02 0 4 C-1.32 3.67 -2.64 3.34 -4 3 C-2.68 3 -1.36 3 0 3 C0 2.01 0 1.02 0 0 Z " fill="#BAF6FA" transform="translate(33,111)"/>
<path d="M0 0 C0.99 0.495 0.99 0.495 2 1 C1.97679687 1.65226562 1.95359375 2.30453125 1.9296875 2.9765625 C1.82416247 8.08698903 1.98073698 12.20425033 4 17 C3.34 17.33 2.68 17.66 2 18 C2 17.34 2 16.68 2 16 C1.34 16 0.68 16 0 16 C0 10.72 0 5.44 0 0 Z " fill="#C83B3F" transform="translate(146,77)"/>
<path d="M0 0 C5.13503344 0.64187918 9.9943454 1.68272247 15 3 C11.68929162 4.00109515 8.69915231 4.10356134 5.25 4.0625 C4.26515625 4.05347656 3.2803125 4.04445313 2.265625 4.03515625 C1.51796875 4.02355469 0.7703125 4.01195312 0 4 C0 2.66666667 0 1.33333333 0 0 Z " fill="#FCE4E2" transform="translate(153,59)"/>
<path d="M0 0 C2.09271564 1.71901642 2.3978759 2.79656923 2.75 5.4375 C2.028125 5.086875 1.30625 4.73625 0.5625 4.375 C-2.5622705 3.33340983 -4.13161996 3.54653428 -7.25 4.4375 C-7.25 3.7775 -7.25 3.1175 -7.25 2.4375 C-3.11486486 -0.77871622 -3.11486486 -0.77871622 0 0 Z M-1.25 6.4375 C0.75 7.4375 0.75 7.4375 0.75 7.4375 Z " fill="#FCF8F8" transform="translate(139.25,97.5625)"/>
<path d="M0 0 C1.65 0 3.3 0 5 0 C4.01 0.33 3.02 0.66 2 1 C2 1.99 2 2.98 2 4 C3.32 4.33 4.64 4.66 6 5 C4.68 5 3.36 5 2 5 C2 5.99 2 6.98 2 8 C2.99 8.33 3.98 8.66 5 9 C3.35 9 1.7 9 0 9 C0 6.03 0 3.06 0 0 Z " fill="#3793BB" transform="translate(86,112)"/>
<path d="M0 0 C-2.21934164 3.32901247 -3.34683329 3.75023244 -7 5 C-7 5.66 -7 6.32 -7 7 C-7.99 6.67 -8.98 6.34 -10 6 C-9.6875 4.125 -9.6875 4.125 -9 2 C-5.5647952 -0.29013653 -4.014669 -0.17842973 0 0 Z " fill="#FCE0E0" transform="translate(160,73)"/>
<path d="M0 0 C-0.33 0.99 -0.66 1.98 -1 3 C-3.64 3 -6.28 3 -9 3 C-9 2.01 -9 1.02 -9 0 C-5.67465243 -1.10844919 -3.37817425 -0.84454356 0 0 Z " fill="#F2FEFB" transform="translate(84,75)"/>
<path d="M0 0 C1.65 0 3.3 0 5 0 C4.01 0.33 3.02 0.66 2 1 C2 1.99 2 2.98 2 4 C2.99 4.33 3.98 4.66 5 5 C4.01 5 3.02 5 2 5 C2 5.99 2 6.98 2 8 C2.99 8.33 3.98 8.66 5 9 C3.35 9 1.7 9 0 9 C0 6.03 0 3.06 0 0 Z " fill="#3D94B9" transform="translate(102,112)"/>
<path d="M0 0 C1.98 0 3.96 0 6 0 C6.33 2.31 6.66 4.62 7 7 C5.35 7 3.7 7 2 7 C2.04125 6.21625 2.0825 5.4325 2.125 4.625 C2.28728734 1.83883881 2.28728734 1.83883881 0 0 Z " fill="#9DD8E5" transform="translate(86,111)"/>
<path d="M0 0 C2 3 2 3 2 7 C0.68 7.33 -0.64 7.66 -2 8 C-2.66 7.01 -3.32 6.02 -4 5 C-1.125 1.125 -1.125 1.125 0 0 Z " fill="#E8191D" transform="translate(129,91)"/>
<path d="M0 0 C0.66 0.33 1.32 0.66 2 1 C-3 7.57142857 -3 7.57142857 -8 9 C-6.4169423 4.7257442 -3.49431596 2.73468206 0 0 Z " fill="#CE5356" transform="translate(148,65)"/>
<path d="M0 0 C1.67542976 0.28604898 3.34385343 0.61781233 5 1 C3.02 1.99 3.02 1.99 1 3 C1 3.99 1 4.98 1 6 C1.99 6.66 2.98 7.32 4 8 C2.68 8 1.36 8 0 8 C-0.66 7.34 -1.32 6.68 -2 6 C-1.44444444 1.44444444 -1.44444444 1.44444444 0 0 Z " fill="#5F9AAF" transform="translate(115,125)"/>
<path d="M0 0 C0.99 0 1.98 0 3 0 C3.33 2.31 3.66 4.62 4 7 C2.02 7.99 2.02 7.99 0 9 C0 8.34 0 7.68 0 7 C0.66 7 1.32 7 2 7 C2 6.34 2 5.68 2 5 C1.01 4.67 0.02 4.34 -1 4 C-0.67 2.68 -0.34 1.36 0 0 Z " fill="#66A2B4" transform="translate(40,125)"/>
<path d="M0 0 C0.99 0 1.98 0 3 0 C2.67 3.63 2.34 7.26 2 11 C1.34 11 0.68 11 0 11 C0 7.37 0 3.74 0 0 Z " fill="#4DA4B2" transform="translate(35,111)"/>
<path d="M0 0 C0.99 0 1.98 0 3 0 C3.33 0.66 3.66 1.32 4 2 C5.64142963 3.0409066 7.30712215 4.04504326 9 5 C8.67 5.99 8.34 6.98 8 8 C4.63820226 6.55922954 2.40843732 4.75249979 0 2 C0 1.34 0 0.68 0 0 Z " fill="#CE444E" transform="translate(141,97)"/>
<path d="M0 0 C0.99 0 1.98 0 3 0 C3 3.63 3 7.26 3 11 C2.01 11 1.02 11 0 11 C0 7.37 0 3.74 0 0 Z " fill="#CD5F66" transform="translate(171,65)"/>
<path d="M0 0 C-0.33 0.99 -0.66 1.98 -1 3 C-6.61 3 -12.22 3 -18 3 C-18 2.67 -18 2.34 -18 2 C-15.37518273 1.66517137 -12.75016613 1.3320723 -10.125 1 C-9.37863281 0.90460938 -8.63226563 0.80921875 -7.86328125 0.7109375 C-2.2265625 0 -2.2265625 0 0 0 Z " fill="#FCE7E6" transform="translate(173,106)"/>
<path d="M0 0 C1.9375 0.75 1.9375 0.75 4 2 C4.75 4.125 4.75 4.125 5 6 C5.66 6 6.32 6 7 6 C7.33 5.01 7.66 4.02 8 3 C8 4.65 8 6.3 8 8 C4.67689517 6.83242263 2.16638868 5.85051143 0 3 C0 2.01 0 1.02 0 0 Z " fill="#FCDEDB" transform="translate(53,96)"/>
<path d="M0 0 C0.33 0 0.66 0 1 0 C1.36275695 4.47400242 1.36275695 4.47400242 -0.25 6.8125 C-2 8 -2 8 -6 8 C-5.67 7.01 -5.34 6.02 -5 5 C-4.01 5 -3.02 5 -2 5 C-1.855625 4.360625 -1.71125 3.72125 -1.5625 3.0625 C-1 1 -1 1 0 0 Z " fill="#E2FBFC" transform="translate(168,129)"/>
<path d="M0 0 C0.99 0 1.98 0 3 0 C2.67 2.31 2.34 4.62 2 7 C2.66 7.33 3.32 7.66 4 8 C2.02 8 0.04 8 -2 8 C-1.34 5.36 -0.68 2.72 0 0 Z " fill="#A7E4F2" transform="translate(129,126)"/>
<path d="M0 0 C0.66 0 1.32 0 2 0 C2 2.97 2 5.94 2 9 C1.01 9 0.02 9 -1 9 C-1.80967438 6.08517222 -2.21845993 4.53886783 -1.0625 1.6875 C-0.711875 1.130625 -0.36125 0.57375 0 0 Z " fill="#64AAB8" transform="translate(106,125)"/>
<path d="M0 0 C0 2.31 0 4.62 0 7 C-0.99 6.67 -1.98 6.34 -3 6 C-2.67 4.68 -2.34 3.36 -2 2 C-3.98 2 -5.96 2 -8 2 C-4.77208445 -0.1519437 -3.71599191 -0.20086443 0 0 Z " fill="#E6FEFE" transform="translate(121,115)"/>
<path d="M0 0 C1.98 0 3.96 0 6 0 C6 0.66 6 1.32 6 2 C5.34 2 4.68 2 4 2 C4 4.31 4 6.62 4 9 C3.34 9 2.68 9 2 9 C2 6.36 2 3.72 2 1 C1.34 0.67 0.68 0.34 0 0 Z " fill="#4994BA" transform="translate(120,112)"/>
<path d="M0 0 C1.77074917 -0.02705729 3.54161711 -0.04642195 5.3125 -0.0625 C6.29863281 -0.07410156 7.28476563 -0.08570312 8.30078125 -0.09765625 C11 0 11 0 14 1 C14.6875 3.0625 14.6875 3.0625 15 5 C14.01 4.525625 13.02 4.05125 12 3.5625 C8.00810505 1.83186252 4.31885418 1.37884686 0 1 C0 0.67 0 0.34 0 0 Z " fill="#FACAC9" transform="translate(154,72)"/>
<path d="M0 0 C0.66 0.33 1.32 0.66 2 1 C2 1.66 2 2.32 2 3 C2.66 3 3.32 3 4 3 C4 3.99 4 4.98 4 6 C2.02 6.33 0.04 6.66 -2 7 C-2 6.01 -2 5.02 -2 4 C-1.34 4 -0.68 4 0 4 C0 2.68 0 1.36 0 0 Z " fill="#E3FAFD" transform="translate(54,131)"/>
<path d="M0 0 C0.99 0 1.98 0 3 0 C3 0.66 3 1.32 3 2 C3.66 2.33 4.32 2.66 5 3 C4.34 3 3.68 3 3 3 C3 4.65 3 6.3 3 8 C0.9375 6.25 0.9375 6.25 -1 4 C-0.75 1.75 -0.75 1.75 0 0 Z " fill="#C4F4F9" transform="translate(103,122)"/>
<path d="M0 0 C0.99 0.33 1.98 0.66 3 1 C3 1.99 3 2.98 3 4 C3.99 4 4.98 4 6 4 C6 4.66 6 5.32 6 6 C4.68 6.33 3.36 6.66 2 7 C0 4 0 4 0 0 Z " fill="#CFF8FD" transform="translate(102,130)"/>
<path d="M0 0 C1.32 0 2.64 0 4 0 C3.67 2.97 3.34 5.94 3 9 C2.34 9 1.68 9 1 9 C0.67 6.03 0.34 3.06 0 0 Z " fill="#5CA3BA" transform="translate(80,125)"/>
<path d="M0 0 C1.32 0 2.64 0 4 0 C3.67 2.97 3.34 5.94 3 9 C2.34 9 1.68 9 1 9 C0.67 6.03 0.34 3.06 0 0 Z " fill="#66A0B2" transform="translate(46,125)"/>
<path d="M0 0 C3.1875 0.3125 3.1875 0.3125 6 1 C6 1.99 6 2.98 6 4 C3.03 3.67 0.06 3.34 -3 3 C-2.01 2.01 -1.02 1.02 0 0 Z " fill="#64ACC6" transform="translate(61,111)"/>
<path d="M0 0 C0.556875 0.144375 1.11375 0.28875 1.6875 0.4375 C4.11384195 1.02769128 6.54906345 1.523429 9 2 C9 2.99 9 3.98 9 5 C7.68 4.34 6.36 3.68 5 3 C5 3.66 5 4.32 5 5 C4.01 4.67 3.02 4.34 2 4 C2 3.34 2 2.68 2 2 C1.34 2 0.68 2 0 2 C0 1.34 0 0.68 0 0 Z " fill="#BEEAF0" transform="translate(166,109)"/>
<path d="M0 0 C1.98 0 3.96 0 6 0 C6 0.66 6 1.32 6 2 C5.34 2 4.68 2 4 2 C4 2.66 4 3.32 4 4 C2.02 4 0.04 4 -2 4 C-1.34 2.68 -0.68 1.36 0 0 Z " fill="#F7FEFB" transform="translate(124,106)"/>
<path d="M0 0 C0.33 0 0.66 0 1 0 C1.33 3.3 1.66 6.6 2 10 C0.02 10 -1.96 10 -4 10 C-4 9.01 -4 8.02 -4 7 C-2.68 7 -1.36 7 0 7 C0 4.69 0 2.38 0 0 Z " fill="#D41F26" transform="translate(33,89)"/>
<path d="M0 0 C1.98 0.495 1.98 0.495 4 1 C3.67 2.32 3.34 3.64 3 5 C1.68 4.67 0.36 4.34 -1 4 C-0.67 2.68 -0.34 1.36 0 0 Z " fill="#ADEFF8" transform="translate(124,127)"/>
<path d="M0 0 C1.2065625 0.0309375 1.2065625 0.0309375 2.4375 0.0625 C1.1175 0.3925 -0.2025 0.7225 -1.5625 1.0625 C-1.2325 3.3725 -0.9025 5.6825 -0.5625 8.0625 C-1.5525 7.7325 -2.5425 7.4025 -3.5625 7.0625 C-3.60504356 5.06295254 -3.60330783 3.06208364 -3.5625 1.0625 C-2.5625 0.0625 -2.5625 0.0625 0 0 Z " fill="#BAEFF6" transform="translate(81.5625,123.9375)"/>
<path d="M0 0 C0.99 0.33 1.98 0.66 3 1 C2.67 1.66 2.34 2.32 2 3 C1.34 3 0.68 3 0 3 C0 4.98 0 6.96 0 9 C-0.66 9 -1.32 9 -2 9 C-2 6.69 -2 4.38 -2 2 C-1.34 2 -0.68 2 0 2 C0 1.34 0 0.68 0 0 Z " fill="#B4F3F7" transform="translate(58,110)"/>
<path d="M0 0 C4.75 0.875 4.75 0.875 7 2 C6.67 3.32 6.34 4.64 6 6 C3.97945196 4.35830472 1.97956942 2.69088222 0 1 C0 0.67 0 0.34 0 0 Z " fill="#FEE3E7" transform="translate(89,98)"/>
<path d="M0 0 C0.66 0 1.32 0 2 0 C2 0.66 2 1.32 2 2 C4.64 2 7.28 2 10 2 C7.08291076 3.98362069 5.87619096 3.9876191 2.25 3.625 C1.1775 3.41875 0.105 3.2125 -1 3 C-0.67 2.01 -0.34 1.02 0 0 Z " fill="#DF1C1F" transform="translate(78,66)"/>
<path d="M0 0 C0.33 0.99 0.66 1.98 1 3 C-0.45736087 3.19491452 -1.91594593 3.38069358 -3.375 3.5625 C-4.18710938 3.66691406 -4.99921875 3.77132812 -5.8359375 3.87890625 C-8 4 -8 4 -10 3 C-10 2.34 -10 1.68 -10 1 C-6.7 1.33 -3.4 1.66 0 2 C0 1.34 0 0.68 0 0 Z " fill="#E6FBFD" transform="translate(161,132)"/>
<path d="M0 0 C1.67542976 0.28604898 3.34385343 0.61781233 5 1 C3 3 1 5 -1 7 C-1.04254356 5.00045254 -1.04080783 2.99958364 -1 1 C-0.67 0.67 -0.34 0.34 0 0 Z " fill="#C3F1FB" transform="translate(167,124)"/>
<path d="M0 0 C0.66 0 1.32 0 2 0 C2.33 1.65 2.66 3.3 3 5 C1.68 5.33 0.36 5.66 -1 6 C-1.042721 4.33388095 -1.04063832 2.66617115 -1 1 C-0.67 0.67 -0.34 0.34 0 0 Z " fill="#F0FBFF" transform="translate(164,114)"/>
<path d="M0 0 C1.95766281 -0.08082094 3.91626728 -0.13910778 5.875 -0.1875 C7.51082031 -0.23970703 7.51082031 -0.23970703 9.1796875 -0.29296875 C10.11039063 -0.19628906 11.04109375 -0.09960938 12 0 C12.66 0.99 13.32 1.98 14 3 C13.01 3.495 13.01 3.495 12 4 C11.34 3.67 10.68 3.34 10 3 C10 2.34 10 1.68 10 1 C6.7 1 3.4 1 0 1 C0 0.67 0 0.34 0 0 Z " fill="#D72B38" transform="translate(43,100)"/>
<path d="M0 0 C0.99 0 1.98 0 3 0 C3 2.64 3 5.28 3 8 C2.01 8 1.02 8 0 8 C0 5.36 0 2.72 0 0 Z " fill="#FCDEDB" transform="translate(53,81)"/>
<path d="M0 0 C1.32 0.33 2.64 0.66 4 1 C4.33 2.32 4.66 3.64 5 5 C5.66 5 6.32 5 7 5 C6.67 5.99 6.34 6.98 6 8 C3.38472619 5.63379989 1.73559438 3.057952 0 0 Z " fill="#C23637" transform="translate(122,74)"/>
<path d="M0 0 C-0.33 0.99 -0.66 1.98 -1 3 C-1.66 3 -2.32 3 -3 3 C-3.33 3.99 -3.66 4.98 -4 6 C-5.32 5.67 -6.64 5.34 -8 5 C-3.375 0 -3.375 0 0 0 Z " fill="#FEE2E5" transform="translate(96,67)"/>
<path d="M0 0 C0.33 0.99 0.66 1.98 1 3 C-5.0546875 3.9765625 -5.0546875 3.9765625 -7 4 C-7.66 3.34 -8.32 2.68 -9 2 C-2.25 0 -2.25 0 0 0 Z " fill="#EEFCFD" transform="translate(143,121)"/>
<path d="M0 0 C-0.33 1.32 -0.66 2.64 -1 4 C-2.98 4 -4.96 4 -7 4 C-3.375 0 -3.375 0 0 0 Z " fill="#E9FBF9" transform="translate(176,107)"/>
<path d="M0 0 C1.32 0 2.64 0 4 0 C4 0.99 4 1.98 4 3 C4.66 3.33 5.32 3.66 6 4 C4.02 4 2.04 4 0 4 C-0.33 3.01 -0.66 2.02 -1 1 C-0.67 0.67 -0.34 0.34 0 0 Z " fill="#EE1D25" transform="translate(153,101)"/>
<path d="M0 0 C0 2.64 0 5.28 0 8 C-0.66 8 -1.32 8 -2 8 C-2 6.02 -2 4.04 -2 2 C-2.99 1.67 -3.98 1.34 -5 1 C-2 0 -2 0 0 0 Z " fill="#C42A38" transform="translate(173,97)"/>
<path d="M0 0 C2.64 0.33 5.28 0.66 8 1 C8 1.33 8 1.66 8 2 C4.7 2.33 1.4 2.66 -2 3 C-1.34 2.01 -0.68 1.02 0 0 Z " fill="#D12122" transform="translate(115,65)"/>
<path d="M0 0 C2.31 0 4.62 0 7 0 C5.35 1.98 3.7 3.96 2 6 C1.67 5.34 1.34 4.68 1 4 C1.33 3.01 1.66 2.02 2 1 C1.34 0.67 0.68 0.34 0 0 Z " fill="#BD373F" transform="translate(53,64)"/>
<path d="M0 0 C1.32 0 2.64 0 4 0 C3.67 1.65 3.34 3.3 3 5 C2.01 4.67 1.02 4.34 0 4 C0 2.68 0 1.36 0 0 Z " fill="#BAF3FB" transform="translate(92,127)"/>
<path d="M0 0 C0.66 0 1.32 0 2 0 C2 1.98 2 3.96 2 6 C2.99 6.33 3.98 6.66 5 7 C3.0625 7.5625 3.0625 7.5625 1 8 C0 7 0 7 -0.0625 3.4375 C-0.041875 2.303125 -0.02125 1.16875 0 0 Z " fill="#66ADC5" transform="translate(71,125)"/>
<path d="M0 0 C0.99 0.33 1.98 0.66 3 1 C2.67 2.32 2.34 3.64 2 5 C0.68 4.67 -0.64 4.34 -2 4 C-1.34 2.68 -0.68 1.36 0 0 Z " fill="#F1F8FE" transform="translate(155,121)"/>
<path d="M0 0 C0.99 0.33 1.98 0.66 3 1 C4.1875 3.5625 4.1875 3.5625 5 6 C3.35 5.67 1.7 5.34 0 5 C0 3.35 0 1.7 0 0 Z " fill="#ADE7FA" transform="translate(37,116)"/>
<path d="M0 0 C0.66 0 1.32 0 2 0 C2.33 1.32 2.66 2.64 3 4 C3.66 4 4.32 4 5 4 C5 4.66 5 5.32 5 6 C3.68 6 2.36 6 1 6 C0.67 4.02 0.34 2.04 0 0 Z " fill="#A0EBF8" transform="translate(60,114)"/>
<path d="M0 0 C2 1.25 2 1.25 4 3 C4 4.32 4 5.64 4 7 C2.68 6.67 1.36 6.34 0 6 C0 4.02 0 2.04 0 0 Z " fill="#D42326" transform="translate(106,98)"/>
<path d="M0 0 C2.9375 0.75 2.9375 0.75 6 2 C6.875 4.125 6.875 4.125 7 6 C6.01 5.67 5.02 5.34 4 5 C4 4.34 4 3.68 4 3 C3.01 3 2.02 3 1 3 C0.67 2.01 0.34 1.02 0 0 Z " fill="#B93937" transform="translate(87,100)"/>
<path d="M0 0 C-0.639375 0.309375 -1.27875 0.61875 -1.9375 0.9375 C-3.93610821 1.8345163 -3.93610821 1.8345163 -5 3 C-6.99958364 3.04080783 -9.00045254 3.04254356 -11 3 C-10 1 -10 1 -8.3125 0.375 C-5.51555886 -0.07855802 -2.82858003 -0.06428591 0 0 Z " fill="#CD262F" transform="translate(160,64)"/>
<path d="M0 0 C1.32 0.33 2.64 0.66 4 1 C4 2.32 4 3.64 4 5 C2.02 5 0.04 5 -2 5 C-1.34 3.35 -0.68 1.7 0 0 Z " fill="#9FDDE9" transform="translate(137,129)"/>
<path d="M0 0 C1.65 0 3.3 0 5 0 C4.01 0.495 4.01 0.495 3 1 C2.67 1.99 2.34 2.98 2 4 C0.02 4 -1.96 4 -4 4 C-2.68 3.67 -1.36 3.34 0 3 C0 2.01 0 1.02 0 0 Z " fill="#C4F4FA" transform="translate(108,111)"/>
<path d="M0 0 C2.0625 2.25 2.0625 2.25 4 5 C3.875 7.25 3.875 7.25 3 9 C2.01 9.495 2.01 9.495 1 10 C0.67 6.7 0.34 3.4 0 0 Z " fill="#E4202E" transform="translate(130,72)"/>
</svg>
