<?xml version="1.0" encoding="UTF-8"?>
<svg version="1.1" xmlns="http://www.w3.org/2000/svg" width="225" height="144">
<path d="M0 0 C74.25 0 148.5 0 225 0 C225 47.52 225 95.04 225 144 C150.75 144 76.5 144 0 144 C0 96.48 0 48.96 0 0 Z " fill="#FEFEFE" transform="translate(0,0)"/>
<path d="M0 0 C2.42594947 1.67108158 3.97970149 3.37810614 4.90234375 6.1875 C5.70437262 11.25563986 5.26694582 14.7864321 2.20703125 19.0703125 C-3.12275987 23.03349052 -7.95189789 23.21332871 -14.41796875 23.1328125 C-15.09859375 23.12830078 -15.77921875 23.12378906 -16.48046875 23.11914062 C-18.25133452 23.10689155 -20.02215895 23.08897443 -21.79296875 23.0703125 C-22.45296875 23.0703125 -23.11296875 23.0703125 -23.79296875 23.0703125 C-23.79296875 24.3903125 -23.79296875 25.7103125 -23.79296875 27.0703125 C-22.80296875 27.4003125 -21.81296875 27.7303125 -20.79296875 28.0703125 C-22.77296875 29.0603125 -22.77296875 29.0603125 -24.79296875 30.0703125 C-24.46296875 31.0603125 -24.13296875 32.0503125 -23.79296875 33.0703125 C-22.80296875 33.4003125 -21.81296875 33.7303125 -20.79296875 34.0703125 C-21.66796875 39.8203125 -21.66796875 39.8203125 -22.79296875 42.0703125 C-24.79180744 42.41054036 -26.79187597 42.74360347 -28.79296875 43.0703125 C-29.45296875 43.7303125 -30.11296875 44.3903125 -30.79296875 45.0703125 C-31.12296875 44.4103125 -31.45296875 43.7503125 -31.79296875 43.0703125 C-34.1489611 42.60279462 -34.1489611 42.60279462 -36.85546875 42.4453125 C-38.48484375 42.3215625 -40.11421875 42.1978125 -41.79296875 42.0703125 C-41.79296875 38.4403125 -41.79296875 34.8103125 -41.79296875 31.0703125 C-40.47296875 31.0703125 -39.15296875 31.0703125 -37.79296875 31.0703125 C-37.79296875 30.4103125 -37.79296875 29.7503125 -37.79296875 29.0703125 C-37.13296875 29.0703125 -36.47296875 29.0703125 -35.79296875 29.0703125 C-35.58671875 28.5134375 -35.38046875 27.9565625 -35.16796875 27.3828125 C-33.24296101 24.14529948 -30.75445973 22.38800109 -27.79296875 20.0703125 C-29.11296875 19.0803125 -30.43296875 18.0903125 -31.79296875 17.0703125 C-31.94765625 17.9984375 -31.94765625 17.9984375 -32.10546875 18.9453125 C-32.79296875 21.0703125 -32.79296875 21.0703125 -35.79296875 23.0703125 C-37.82666016 23.32910156 -37.82666016 23.32910156 -40.14453125 23.3359375 C-40.99660156 23.33851562 -41.84867188 23.34109375 -42.7265625 23.34375 C-43.61472656 23.33601563 -44.50289062 23.32828125 -45.41796875 23.3203125 C-46.71541016 23.33191406 -46.71541016 23.33191406 -48.0390625 23.34375 C-56.75201414 23.31762421 -64.59103647 22.21454984 -71.79296875 17.0703125 C-73.77055903 14.02152748 -73.79296875 12.21610275 -73.79296875 8.5703125 C-72.76530308 4.97348267 -71.64993297 3.45730288 -68.75390625 1.11328125 C-62.01905093 -2.46880316 -55.30152208 -2.17485968 -47.85546875 -2.0546875 C-46.79005859 -2.04566406 -45.72464844 -2.03664062 -44.62695312 -2.02734375 C-42.01538841 -2.00392164 -39.40429938 -1.97112202 -36.79296875 -1.9296875 C-36.79296875 -1.2696875 -36.79296875 -0.6096875 -36.79296875 0.0703125 C-37.85515625 0.09609375 -38.91734375 0.121875 -40.01171875 0.1484375 C-51.10816167 0.30540024 -51.10816167 0.30540024 -60.79296875 5.0703125 C-62.0832436 7.84847186 -62.3720838 10.06130235 -61.79296875 13.0703125 C-59.29502091 16.33152218 -57.68867134 17.77174497 -53.79296875 19.0703125 C-51.73151768 19.1393035 -49.66795474 19.15498977 -47.60546875 19.1328125 C-46.51878906 19.12378906 -45.43210937 19.11476563 -44.3125 19.10546875 C-43.48105469 19.09386719 -42.64960937 19.08226563 -41.79296875 19.0703125 C-41.79296875 16.7603125 -41.79296875 14.4503125 -41.79296875 12.0703125 C-44.43296875 12.0703125 -47.07296875 12.0703125 -49.79296875 12.0703125 C-49.79296875 11.0803125 -49.79296875 10.0903125 -49.79296875 9.0703125 C-44.18296875 9.0703125 -38.57296875 9.0703125 -32.79296875 9.0703125 C-32.13296875 7.0903125 -31.47296875 5.1103125 -30.79296875 3.0703125 C-22.89400644 -4.82864981 -9.64929325 -5.00333724 0 0 Z " fill="#CD2630" transform="translate(115.79296875,50.9296875)"/>
<path d="M0 0 C3.63 0 7.26 0 11 0 C11 1.98 11 3.96 11 6 C11.89138672 5.92144775 11.89138672 5.92144775 12.80078125 5.84130859 C29.82983626 4.53367315 29.82983626 4.53367315 35.03515625 8.05078125 C37.00740423 10.61584365 38.50040037 13.13864695 40 16 C41.30326582 17.69028215 42.62926214 19.36395804 44 21 C44.73605469 20.00097656 45.47210938 19.00195312 46.23046875 17.97265625 C47.2154422 16.66873901 48.20115837 15.36538259 49.1875 14.0625 C49.67025391 13.40314453 50.15300781 12.74378906 50.65039062 12.06445312 C54.35915535 7.21070063 54.35915535 7.21070063 57.86328125 6.05859375 C58.92095703 6.02958984 58.92095703 6.02958984 60 6 C57.2422432 10.19959769 54.37717581 14.28115021 51.375 18.3125 C50.59898437 19.36050781 49.82296875 20.40851563 49.0234375 21.48828125 C47 24 47 24 45 25 C43.65779616 25.0988921 42.31091172 25.13826154 40.96508789 25.14526367 C39.71853172 25.15483345 39.71853172 25.15483345 38.4467926 25.16459656 C37.54782761 25.16570938 36.64886261 25.1668222 35.72265625 25.16796875 C34.80036728 25.17129715 33.87807831 25.17462555 32.92784119 25.17805481 C30.97509257 25.1831227 29.02233527 25.18546318 27.06958008 25.18530273 C24.07814296 25.18748857 21.08707491 25.20564391 18.09570312 25.22460938 C16.2005221 25.22754342 14.30533931 25.22952814 12.41015625 25.23046875 C11.51321548 25.23765427 10.61627472 25.24483978 9.69215393 25.25224304 C8.85796432 25.24916641 8.02377472 25.24608978 7.16430664 25.24291992 C6.4308754 25.24434494 5.69744415 25.24576996 4.94178772 25.24723816 C3 25 3 25 0 23 C-0.34057617 20.66162109 -0.34057617 20.66162109 -0.29296875 17.7734375 C-0.28330078 16.7421875 -0.27363281 15.7109375 -0.26367188 14.6484375 C-0.23853516 13.56820312 -0.21339844 12.48796875 -0.1875 11.375 C-0.17396484 10.28703125 -0.16042969 9.1990625 -0.14648438 8.078125 C-0.11105124 5.38520709 -0.05724303 2.69254259 0 0 Z " fill="#0A904C" transform="translate(123,49)"/>
<path d="M0 0 C0.9075 0.185625 1.815 0.37125 2.75 0.5625 C5.68314324 0.95734621 7.2644657 0.94691572 10 0 C10.495 0.99 10.495 0.99 11 2 C10.21625 2.7425 9.4325 3.485 8.625 4.25 C5.76871373 6.97242945 5.76871373 6.97242945 4 11 C-1.61 11 -7.22 11 -13 11 C-13 11.99 -13 12.98 -13 14 C-10.36 14 -7.72 14 -5 14 C-5 16.31 -5 18.62 -5 21 C-8.69253265 22.84626633 -12.96137304 22.34740877 -17 22 C-20.28379817 20.80589158 -22.32739495 19.5858173 -24.9375 17.3125 C-26.325554 14.29144129 -26.25350224 12.15245169 -25.71484375 8.90234375 C-24.47436573 5.60118094 -22.03210841 4.51605421 -19 3 C-15.23699626 1.74566542 -11.72789091 1.89304578 -7.8125 1.9375 C-7.06291016 1.94201172 -6.31332031 1.94652344 -5.54101562 1.95117188 C-3.69397617 1.96293646 -1.84697787 1.98087135 0 2 C0 1.34 0 0.68 0 0 Z " fill="#FBF6F6" transform="translate(79,49)"/>
<path d="M0 0 C1.06541016 0.00902344 2.13082031 0.01804688 3.22851562 0.02734375 C5.84008034 0.05076586 8.45116937 0.08356548 11.0625 0.125 C11.0625 0.785 11.0625 1.445 11.0625 2.125 C10.0003125 2.15078125 8.938125 2.1765625 7.84375 2.203125 C-3.25269292 2.36008774 -3.25269292 2.36008774 -12.9375 7.125 C-14.22777485 9.90315936 -14.51661505 12.11598985 -13.9375 15.125 C-11.43955216 18.38620968 -9.83320259 19.82643247 -5.9375 21.125 C-3.87604893 21.193991 -1.81248599 21.20967727 0.25 21.1875 C1.33667969 21.17847656 2.42335938 21.16945313 3.54296875 21.16015625 C4.37441406 21.14855469 5.20585938 21.13695313 6.0625 21.125 C6.0625 21.785 6.0625 22.445 6.0625 23.125 C8.0425 23.455 10.0225 23.785 12.0625 24.125 C12.0625 24.455 12.0625 24.785 12.0625 25.125 C8.91674793 25.18396868 5.7711414 25.21891603 2.625 25.25 C1.30725586 25.27513672 1.30725586 25.27513672 -0.03710938 25.30078125 C-8.83964371 25.3657446 -16.65492605 24.32683853 -23.9375 19.125 C-25.91509028 16.07621498 -25.9375 14.27079025 -25.9375 10.625 C-24.90983433 7.02817017 -23.79446422 5.51199038 -20.8984375 3.16796875 C-14.16358218 -0.41411566 -7.44605333 -0.12017218 0 0 Z " fill="#D11B2B" transform="translate(67.9375,48.875)"/>
<path d="M0 0 C3.63 0 7.26 0 11 0 C11 7.26 11 14.52 11 22 C17.6 22 24.2 22 31 22 C31.33 22.99 31.66 23.98 32 25 C27.92492428 25.04946866 23.84996503 25.08575189 19.7746582 25.10986328 C18.38855952 25.1199157 17.00248201 25.1335597 15.61645508 25.15087891 C13.6233025 25.17515952 11.62999467 25.18542031 9.63671875 25.1953125 C7.83787231 25.21102295 7.83787231 25.21102295 6.00268555 25.22705078 C3 25 3 25 0 23 C-0.34057617 20.66162109 -0.34057617 20.66162109 -0.29296875 17.7734375 C-0.28330078 16.7421875 -0.27363281 15.7109375 -0.26367188 14.6484375 C-0.23853516 13.56820312 -0.21339844 12.48796875 -0.1875 11.375 C-0.17396484 10.28703125 -0.16042969 9.1990625 -0.14648438 8.078125 C-0.11105124 5.38520709 -0.05724303 2.69254259 0 0 Z " fill="#0B8F4F" transform="translate(123,49)"/>
<path d="M0 0 C0 0.66 0 1.32 0 2 C0.66 2 1.32 2 2 2 C2 3.32 2 4.64 2 6 C2.99 6.33 3.98 6.66 5 7 C3.02 7.99 3.02 7.99 1 9 C1.33 9.99 1.66 10.98 2 12 C2.99 12.33 3.98 12.66 5 13 C4.125 18.75 4.125 18.75 3 21 C1.00116131 21.34022786 -0.99890722 21.67329097 -3 22 C-3.66 22.66 -4.32 23.32 -5 24 C-5.33 23.34 -5.66 22.68 -6 22 C-8.35599235 21.53248212 -8.35599235 21.53248212 -11.0625 21.375 C-13.5065625 21.189375 -13.5065625 21.189375 -16 21 C-16 17.37 -16 13.74 -16 10 C-14.68 10 -13.36 10 -12 10 C-12 9.34 -12 8.68 -12 8 C-11.34 8 -10.68 8 -10 8 C-9.7525 7.4225 -9.505 6.845 -9.25 6.25 C-6.7671793 1.78092274 -5.23421741 0 0 0 Z " fill="#F8F8F7" transform="translate(90,72)"/>
<path d="M0 0 C3.1875 0.3125 3.1875 0.3125 5.5 2.125 C8.22059676 5.65169951 8.53778155 8.90801345 8.46484375 13.30859375 C8.0076775 16.61178091 6.66174652 18.16381223 4.1875 20.3125 C1.25 21.4375 1.25 21.4375 -1.8125 21.3125 C-4.43205544 19.15864331 -6.29223297 17.35303406 -7.8125 14.3125 C-8.36192113 8.59852029 -7.34317525 5.80608668 -3.8125 1.3125 C-2.8125 0.3125 -2.8125 0.3125 0 0 Z " fill="#FBFBF7" transform="translate(101.8125,50.6875)"/>
<path d="M0 0 C2.475 0.495 2.475 0.495 5 1 C4.67 5.62 4.34 10.24 4 15 C2.68 15 1.36 15 0 15 C-0.33 15.66 -0.66 16.32 -1 17 C-1 16.01 -1 15.02 -1 14 C-3.86724686 14.57344937 -4.8614515 14.8614515 -7 17 C-7.6425235 19.06874034 -7.6425235 19.06874034 -8 21 C-10.64 21 -13.28 21 -16 21 C-15.67 17.7 -15.34 14.4 -15 11 C-17.64 11 -20.28 11 -23 11 C-23 10.01 -23 9.02 -23 8 C-17.39 8 -11.78 8 -6 8 C-5.67 7.34 -5.34 6.68 -5 6 C-4.34 6.33 -3.68 6.66 -3 7 C-2.87625 6.21625 -2.7525 5.4325 -2.625 4.625 C-2 2 -2 2 0 0 Z " fill="#F21F2A" transform="translate(89,52)"/>
<path d="M0 0 C7.80354205 -0.78912223 7.80354205 -0.78912223 12 0 C15.11236997 2.55493057 17.1675026 5.42533957 19 9 C19 9.66 19 10.32 19 11 C19.66 11 20.32 11 21 11 C21 11.66 21 12.32 21 13 C14.07 13 7.14 13 0 13 C0 8.71 0 4.42 0 0 Z " fill="#F0FCF6" transform="translate(134,58)"/>
<path d="M0 0 C3.3125 0.125 3.3125 0.125 7 1 C9.16422008 4.21142334 10 6.12446408 10 10 C8.68 10 7.36 10 6 10 C6 10.66 6 11.32 6 12 C6.99 12 7.98 12 9 12 C8.67 13.65 8.34 15.3 8 17 C6.02 17.33 4.04 17.66 2 18 C0.18494323 14.36988647 0.99115629 10.05719496 1.0625 6.06640625 C1.15090725 2.95800526 1.15090725 2.95800526 0 0 Z " fill="#F01A26" transform="translate(109,52)"/>
<path d="M0 0 C0.33 0 0.66 0 1 0 C1.14695312 0.90492187 1.14695312 0.90492187 1.296875 1.828125 C1.97510763 5.45316145 2.56257431 8.34386146 4.625 11.4375 C7.96918908 13.6376244 11.07971508 14.21594302 15 15 C15 15.33 15 15.66 15 16 C12.79229195 16.08165496 10.58369575 16.13948488 8.375 16.1875 C6.53035156 16.23970703 6.53035156 16.23970703 4.6484375 16.29296875 C-0.88816665 15.84838062 -4.7475444 13.43467568 -9 10 C-9.33 11.32 -9.66 12.64 -10 14 C-10.99 14 -11.98 14 -13 14 C-12.34 13.67 -11.68 13.34 -11 13 C-11.33 12.01 -11.66 11.02 -12 10 C-9.06171403 7.49701566 -6.82097239 6.53069061 -3 6 C-3 6.66 -3 7.32 -3 8 C-3.33 8.33 -3.66 8.66 -4 9 C-2.68 8.34 -1.36 7.68 0 7 C-0.66 6.67 -1.32 6.34 -2 6 C-1.34 6 -0.68 6 0 6 C0 4.02 0 2.04 0 0 Z " fill="#DA1922" transform="translate(93,58)"/>
<path d="M0 0 C1.65 0 3.3 0 5 0 C5.60552093 7.14514693 5.60552093 7.14514693 2.875 11 C-0.42755191 13.29742742 -2.0645403 13.45761159 -6 13 C-6.33 11.35 -6.66 9.7 -7 8 C-6.34 8 -5.68 8 -5 8 C-4.67 6.02 -4.34 4.04 -4 2 C-2.68 2 -1.36 2 0 2 C0 1.34 0 0.68 0 0 Z " fill="#FAF8F9" transform="translate(104,56)"/>
<path d="M0 0 C1.2065625 0.0309375 1.2065625 0.0309375 2.4375 0.0625 C2.7675 1.0525 3.0975 2.0425 3.4375 3.0625 C3.1075 3.7225 2.7775 4.3825 2.4375 5.0625 C1.7775 5.0625 1.1175 5.0625 0.4375 5.0625 C0.4375 5.7225 0.4375 6.3825 0.4375 7.0625 C1.4275 6.7325 2.4175 6.4025 3.4375 6.0625 C3.685 7.34125 3.9325 8.62 4.1875 9.9375 C4.95740586 13.32997318 4.95740586 13.32997318 7.5625 15.5625 C8.18125 15.7275 8.8 15.8925 9.4375 16.0625 C5.99288369 17.21070544 5.18331478 16.87565918 1.875 15.6875 C1.08996094 15.41164063 0.30492187 15.13578125 -0.50390625 14.8515625 C-2.5625 14.0625 -2.5625 14.0625 -4.5625 13.0625 C-4.42216889 11.08293559 -4.2750877 9.10384859 -4.125 7.125 C-4.04378906 6.02285156 -3.96257813 4.92070313 -3.87890625 3.78515625 C-3.44879983 0.08411707 -3.44879983 0.08411707 0 0 Z " fill="#E02026" transform="translate(48.5625,54.9375)"/>
<path d="M0 0 C2.0625 0.4375 2.0625 0.4375 4 1 C2.44209679 3.06611241 0.87890323 5.12784639 -0.6875 7.1875 C-1.12255859 7.76564453 -1.55761719 8.34378906 -2.00585938 8.93945312 C-9.41552371 18.65434636 -9.41552371 18.65434636 -13.23828125 19.48828125 C-15.15885417 19.32552083 -17.07942708 19.16276042 -19 19 C-18.01 18.34 -17.02 17.68 -16 17 C-16.144375 16.4225 -16.28875 15.845 -16.4375 15.25 C-16.95833333 13.16666667 -17.47916667 11.08333333 -18 9 C-16 11 -14 13 -12 15 C-11.21753906 14.00097656 -10.43507812 13.00195312 -9.62890625 11.97265625 C-8.60680564 10.66924354 -7.58466832 9.36585961 -6.5625 8.0625 C-6.04623047 7.40314453 -5.52996094 6.74378906 -4.99804688 6.06445312 C-4.50498047 5.43603516 -4.01191406 4.80761719 -3.50390625 4.16015625 C-3.04830322 3.57886963 -2.5927002 2.99758301 -2.12329102 2.39868164 C-1 1 -1 1 0 0 Z " fill="#1F8C5A" transform="translate(179,55)"/>
<path d="M0 0 C0.33 0 0.66 0 1 0 C1 6.93 1 13.86 1 21 C0.01 21 -0.98 21 -2 21 C-2.46921875 21.80824219 -2.9384375 22.61648437 -3.421875 23.44921875 C-7.61798109 27.60082068 -12.57658613 26.78288241 -18.25 26.8125 C-19.37664062 26.83763672 -20.50328125 26.86277344 -21.6640625 26.88867188 C-24.44305908 26.94754892 -27.22048033 26.98382525 -30 27 C-30 26.34 -30 25.68 -30 25 C-30.66 25 -31.32 25 -32 25 C-31.67 24.34 -31.34 23.68 -31 23 C-30.01 23.33 -29.02 23.66 -28 24 C-16.06310868 24.78390338 -16.06310868 24.78390338 -5 21 C-2.14521873 17.36664202 -1.82749207 14.70423614 -2.25 10.25 C-2.59171321 7.85800751 -2.91726559 6.16546882 -4 4 C-3.01 4.33 -2.02 4.66 -1 5 C-0.67 3.35 -0.34 1.7 0 0 Z " fill="#FDE4DE" transform="translate(122,49)"/>
<path d="M0 0 C2.97 0 5.94 0 9 0 C9.33 2.64 9.66 5.28 10 8 C8.02 8.33 6.04 8.66 4 9 C4.33 9.99 4.66 10.98 5 12 C3.35 12 1.7 12 0 12 C0 8 0 4 0 0 Z " fill="#03934B" transform="translate(124,50)"/>
<path d="M0 0 C2.64 0 5.28 0 8 0 C8.144375 0.61875 8.28875 1.2375 8.4375 1.875 C8.93152225 4.03258322 8.93152225 4.03258322 10 6 C9.34 6.66 8.68 7.32 8 8 C7.3574765 10.06874034 7.3574765 10.06874034 7 12 C4.36 12 1.72 12 -1 12 C-0.690625 11.29875 -0.38125 10.5975 -0.0625 9.875 C1.03302678 6.91063343 1.56422992 4.12301892 2 1 C1.34 0.67 0.68 0.34 0 0 Z " fill="#ED1924" transform="translate(74,61)"/>
<path d="M0 0 C3.41621788 -0.14539953 6.83163991 -0.23409725 10.25 -0.3125 C11.21808594 -0.35439453 12.18617188 -0.39628906 13.18359375 -0.43945312 C20.4019949 -0.56390832 20.4019949 -0.56390832 23.671875 2.51953125 C24.32929688 3.74736328 24.32929688 3.74736328 25 5 C24.01 5 23.02 5 22 5 C21.34 4.34 20.68 3.68 20 3 C17.39719432 3.32041397 17.39719432 3.32041397 15 4 C15 4.99 15 5.98 15 7 C14.63261719 6.51917969 14.26523438 6.03835937 13.88671875 5.54296875 C11.25159557 3.38795083 9.17494364 3.49327654 5.8125 3.3125 C4.72582031 3.24675781 3.63914063 3.18101563 2.51953125 3.11328125 C1.68808594 3.07589844 0.85664063 3.03851563 0 3 C0 2.01 0 1.02 0 0 Z " fill="#308E5F" transform="translate(134,55)"/>
<path d="M0 0 C0.66 0 1.32 0 2 0 C2.33 0.66 2.66 1.32 3 2 C4.32 1.67 5.64 1.34 7 1 C7 1.66 7 2.32 7 3 C7.66 3 8.32 3 9 3 C9 3.66 9 4.32 9 5 C8.34 5 7.68 5 7 5 C7 6.32 7 7.64 7 9 C7.66 9 8.32 9 9 9 C9 9.66 9 10.32 9 11 C6.03 11 3.06 11 0 11 C0 7.37 0 3.74 0 0 Z " fill="#7B7B7B" transform="translate(169,82)"/>
<path d="M0 0 C0.66 0 1.32 0 2 0 C2 1.65 2 3.3 2 5 C1.360625 5.144375 0.72125 5.28875 0.0625 5.4375 C-1.97545146 5.81007181 -1.97545146 5.81007181 -3 7 C-3.99 7 -4.98 7 -6 7 C-6 6.01 -6 5.02 -6 4 C-7.98 4.33 -9.96 4.66 -12 5 C-11.938125 6.423125 -11.938125 6.423125 -11.875 7.875 C-12 11 -12 11 -14 13 C-14 10.69 -14 8.38 -14 6 C-16.64 6 -19.28 6 -22 6 C-22 5.01 -22 4.02 -22 3 C-15.07 3 -8.14 3 -1 3 C-0.67 2.01 -0.34 1.02 0 0 Z " fill="#CF242B" transform="translate(88,57)"/>
<path d="M0 0 C2.86724686 0.57344937 3.8614515 0.8614515 6 3 C6 3.99 6 4.98 6 6 C9.465 5.505 9.465 5.505 13 5 C13.33 4.01 13.66 3.02 14 2 C14.99 2.33 15.98 2.66 17 3 C14.36 6.3 11.72 9.6 9 13 C6.3998525 10.3998525 4.32688515 8.28520326 2.25 5.375 C1.82203125 4.78460938 1.3940625 4.19421875 0.953125 3.5859375 C0 2 0 2 0 0 Z " fill="#DFF8E9" transform="translate(158,58)"/>
<path d="M0 0 C6.27 0 12.54 0 19 0 C19.33 0.99 19.66 1.98 20 3 C10.43 3 0.86 3 -9 3 C-9 2.67 -9 2.34 -9 2 C-6.03 2 -3.06 2 0 2 C0 1.34 0 0.68 0 0 Z " fill="#1F8D5E" transform="translate(135,71)"/>
<path d="M0 0 C0.66 0 1.32 0 2 0 C2 1.98 2 3.96 2 6 C5.01490557 7.00496852 7.04181692 7.10335303 10.1875 7.0625 C11.08855469 7.05347656 11.98960938 7.04445313 12.91796875 7.03515625 C13.94857422 7.01775391 13.94857422 7.01775391 15 7 C15 8.32 15 9.64 15 11 C10.71 11 6.42 11 2 11 C0.22002971 6.55007426 -0.21222719 4.56288469 0 0 Z " fill="#F4FDF9" transform="translate(56,58)"/>
<path d="M0 0 C0.33 0 0.66 0 1 0 C1.19335938 0.63808594 1.38671875 1.27617188 1.5859375 1.93359375 C1.84632812 2.75988281 2.10671875 3.58617187 2.375 4.4375 C2.63023438 5.26121094 2.88546875 6.08492188 3.1484375 6.93359375 C3.80882227 9.17798016 3.80882227 9.17798016 6 10 C8.67745172 9.72538957 10.51181097 9.33127112 12.75 7.8125 C14.47091655 5.31717101 14.66943712 2.97506592 15 0 C15.33 0 15.66 0 16 0 C16.48315912 7.12659698 16.48315912 7.12659698 14.375 10.9375 C11.43011986 13.49489592 9.90667838 14.15945626 6 14 C3.38044456 11.84614331 1.52026703 10.04053406 0 7 C-0.04022391 4.6670134 -0.04320247 2.33293334 0 0 Z " fill="#FACEC4" transform="translate(94,58)"/>
<path d="M0 0 C2.64 0 5.28 0 8 0 C8 2.31 8 4.62 8 7 C5.53630468 8.23184766 3.8105499 8.16732342 1.0625 8.1875 C0.18722656 8.20167969 -0.68804687 8.21585938 -1.58984375 8.23046875 C-4 8 -4 8 -7 6 C-3.04 6 0.92 6 5 6 C5 4.68 5 3.36 5 2 C3.35 2.33 1.7 2.66 0 3 C0 2.01 0 1.02 0 0 Z " fill="#FEE3DD" transform="translate(66,63)"/>
<path d="M0 0 C2.5 0.125 2.5 0.125 3.5 1.125 C3.625 4.125 3.625 4.125 3.5 7.125 C2.5 8.125 2.5 8.125 0 8.25 C-2.5 8.125 -2.5 8.125 -3.5 7.125 C-3.625 4.125 -3.625 4.125 -3.5 1.125 C-2.5 0.125 -2.5 0.125 0 0 Z " fill="#424242" transform="translate(141.5,84.875)"/>
<path d="M0 0 C1.18851563 0.00902344 2.37703125 0.01804687 3.6015625 0.02734375 C4.51679687 0.03894531 5.43203125 0.05054687 6.375 0.0625 C6.375 0.7225 6.375 1.3825 6.375 2.0625 C9.345 2.5575 9.345 2.5575 12.375 3.0625 C12.375 3.3925 12.375 3.7225 12.375 4.0625 C5.775 4.0625 -0.825 4.0625 -7.625 4.0625 C-7.955 3.0725 -8.285 2.0825 -8.625 1.0625 C-5.74084117 -0.37957941 -3.20778472 -0.03144887 0 0 Z " fill="#D42B3A" transform="translate(67.625,69.9375)"/>
<path d="M0 0 C3.875 1.75 3.875 1.75 5 4 C4.01 4 3.02 4 2 4 C1.67 4.99 1.34 5.98 1 7 C-3.82181981 8.32575494 -8.38832067 7.90062439 -13.3125 7.5625 C-14.14845703 7.51029297 -14.98441406 7.45808594 -15.84570312 7.40429688 C-17.89750789 7.27532629 -19.94881306 7.13844979 -22 7 C-22 6.67 -22 6.34 -22 6 C-20.73542969 5.95101562 -19.47085938 5.90203125 -18.16796875 5.8515625 C-16.50779053 5.7765262 -14.84763536 5.70097873 -13.1875 5.625 C-12.35412109 5.5940625 -11.52074219 5.563125 -10.66210938 5.53125 C-9.85966797 5.49257812 -9.05722656 5.45390625 -8.23046875 5.4140625 C-7.12288208 5.36693115 -7.12288208 5.36693115 -5.99291992 5.31884766 C-3.68650412 5.09165386 -3.68650412 5.09165386 -1 3 C-0.67 2.01 -0.34 1.02 0 0 Z " fill="#FDE5E2" transform="translate(84,68)"/>
<path d="M0 0 C3.63 0 7.26 0 11 0 C11 1.98 11 3.96 11 6 C10.67 6 10.34 6 10 6 C10 4.35 10 2.7 10 1 C7.69 1.33 5.38 1.66 3 2 C1.54963903 6.53237804 1.61437915 11.11474251 2.5625 15.75 C3 18 3 18 2 21 C1.34 21 0.68 21 0 21 C0 14.07 0 7.14 0 0 Z " fill="#158449" transform="translate(123,49)"/>
<path d="M0 0 C0.99 0 1.98 0 3 0 C3 0.66 3 1.32 3 2 C3.66 2 4.32 2 5 2 C5 2.66 5 3.32 5 4 C4.34 4 3.68 4 3 4 C3 5.32 3 6.64 3 8 C4.98 7.67 6.96 7.34 9 7 C9 7.99 9 8.98 9 10 C6.36 10 3.72 10 1 10 C-0.60725635 6.78548731 -0.05748185 3.56387464 0 0 Z " fill="#404040" transform="translate(114,83)"/>
<path d="M0 0 C1.67542976 0.28604898 3.34385343 0.61781233 5 1 C5.33 2.32 5.66 3.64 6 5 C4.68 5.33 3.36 5.66 2 6 C2.99 6.66 3.98 7.32 5 8 C2.625 8.125 2.625 8.125 0 8 C-0.66 7.34 -1.32 6.68 -2 6 C-1.44444444 1.44444444 -1.44444444 1.44444444 0 0 Z " fill="#2F2F2F" transform="translate(98,85)"/>
<path d="M0 0 C0.33 0 0.66 0 1 0 C1 6.93 1 13.86 1 21 C-0.32 20.01 -1.64 19.02 -3 18 C-3.1015625 15.9140625 -3.1015625 15.9140625 -2.625 13.625 C-1.99261832 9.78688147 -2.07458871 7.51104412 -4 4 C-3.01 4.33 -2.02 4.66 -1 5 C-0.67 3.35 -0.34 1.7 0 0 Z " fill="#D2DDC1" transform="translate(122,49)"/>
<path d="M0 0 C0.99 0.66 1.98 1.32 3 2 C1.7934375 2.7734375 1.7934375 2.7734375 0.5625 3.5625 C-2.72721137 6.69173765 -2.843179 8.53060147 -3 13 C-2.64025105 15.81237541 -2.64025105 15.81237541 -2 18 C-2.66 18.33 -3.32 18.66 -4 19 C-6.41963753 14.71461787 -6.87996127 10.839787 -6 6 C-3.5625 3 -3.5625 3 -1 1 C-0.67 0.67 -0.34 0.34 0 0 Z " fill="#FEE6E5" transform="translate(46,50)"/>
<path d="M0 0 C6.93 0 13.86 0 21 0 C21 0.66 21 1.32 21 2 C17.8765076 2.25427918 14.75153179 2.47412319 11.625 2.6875 C10.29082031 2.79674805 10.29082031 2.79674805 8.9296875 2.90820312 C7.65351562 2.99038086 7.65351562 2.99038086 6.3515625 3.07421875 C5.56604004 3.13182373 4.78051758 3.18942871 3.97119141 3.2487793 C2.99545166 3.12563354 2.99545166 3.12563354 2 3 C1.34 2.01 0.68 1.02 0 0 Z " fill="#A71E20" transform="translate(58,49)"/>
<path d="M0 0 C0.99 0 1.98 0 3 0 C3 2.97 3 5.94 3 9 C4.65 9 6.3 9 8 9 C8 9.66 8 10.32 8 11 C5.36 11 2.72 11 0 11 C0 7.37 0 3.74 0 0 Z " fill="#212121" transform="translate(74,82)"/>
<path d="M0 0 C1.2065625 0.0309375 1.2065625 0.0309375 2.4375 0.0625 C2.7675 1.7125 3.0975 3.3625 3.4375 5.0625 C2.1175 5.3925 0.7975 5.7225 -0.5625 6.0625 C0.4275 6.7225 1.4175 7.3825 2.4375 8.0625 C0.77138095 8.105221 -0.89632885 8.10313832 -2.5625 8.0625 C-3.5625 7.0625 -3.5625 7.0625 -3.6875 4.0625 C-3.52180824 0.08589776 -3.52180824 0.08589776 0 0 Z " fill="#0D0D0D" transform="translate(159.5625,84.9375)"/>
<path d="M0 0 C0.99 0 1.98 0 3 0 C3 2.97 3 5.94 3 9 C4.65 9 6.3 9 8 9 C8 9.66 8 10.32 8 11 C5.36 11 2.72 11 0 11 C0 7.37 0 3.74 0 0 Z " fill="#0E0E0E" transform="translate(129,82)"/>
<path d="M0 0 C0.37125 1.918125 0.37125 1.918125 0.75 3.875 C1.51990586 7.26747318 1.51990586 7.26747318 4.125 9.5 C4.74375 9.665 5.3625 9.83 6 10 C1.82412255 11.39195915 -0.13474776 9.82323219 -4 8 C-4 7.01 -4 6.02 -4 5 C-3.01 5 -2.02 5 -1 5 C-1.66 4.67 -2.32 4.34 -3 4 C-3 3.01 -3 2.02 -3 1 C-1 0 -1 0 0 0 Z " fill="#F31C2D" transform="translate(52,61)"/>
<path d="M0 0 C1.67642578 0.08507813 1.67642578 0.08507813 3.38671875 0.171875 C6.13351688 0.31273644 8.87931568 0.46408776 11.625 0.625 C11.625 0.955 11.625 1.285 11.625 1.625 C10.63487915 1.66258423 10.63487915 1.66258423 9.62475586 1.70092773 C6.60384631 1.81771752 3.58318578 1.94006446 0.5625 2.0625 C-0.99500977 2.12147461 -0.99500977 2.12147461 -2.58398438 2.18164062 C-7.91530641 2.40166344 -13.11189893 2.7366184 -18.375 3.625 C-18.375 2.965 -18.375 2.305 -18.375 1.625 C-12.35627459 -1.14150185 -6.43465896 -0.37895518 0 0 Z " fill="#FDBCBE" transform="translate(67.375,47.375)"/>
<path d="M0 0 C0.73154297 0.01353516 1.46308594 0.02707031 2.21679688 0.04101562 C3.99902422 0.07596126 5.78086573 0.12975195 7.5625 0.1875 C7.5625 0.5175 7.5625 0.8475 7.5625 1.1875 C6.51449219 1.24808594 5.46648437 1.30867188 4.38671875 1.37109375 C3.00779952 1.45551738 1.62889395 1.54016447 0.25 1.625 C-0.78543945 1.68397461 -0.78543945 1.68397461 -1.84179688 1.74414062 C-4.90911535 1.93677415 -7.50718152 2.21072717 -10.4375 3.1875 C-10.4375 3.8475 -10.4375 4.5075 -10.4375 5.1875 C-12.7475 5.8475 -15.0575 6.5075 -17.4375 7.1875 C-16.41998111 3.90882801 -15.46484459 3.20200937 -12.375 1.5625 C-8.21613391 -0.12575257 -4.43374392 -0.15820312 0 0 Z " fill="#FBC9C3" transform="translate(71.4375,50.8125)"/>
<path d="M0 0 C0.33 0.66 0.66 1.32 1 2 C0.34 2.66 -0.32 3.32 -1 4 C0.32 4.99 1.64 5.98 3 7 C2.67 7.66 2.34 8.32 2 9 C-0.31 7.35 -2.62 5.7 -5 4 C-5.33 5.32 -5.66 6.64 -6 8 C-6.99 8 -7.98 8 -9 8 C-8.34 7.67 -7.68 7.34 -7 7 C-7.33 6.01 -7.66 5.02 -8 4 C-5.37801226 1.84622436 -3.35595828 0.59927826 0 0 Z " fill="#D7232D" transform="translate(89,64)"/>
<path d="M0 0 C1.21236328 0.04060547 1.21236328 0.04060547 2.44921875 0.08203125 C3.06410156 0.11683594 3.67898437 0.15164062 4.3125 0.1875 C4.3125 3.70466303 3.48804415 4.55871748 1.3125 7.1875 C1.3125 5.5375 1.3125 3.8875 1.3125 2.1875 C-1.10395782 2.02062552 -1.10395782 2.02062552 -3.6875 2.1875 C-5.8260485 4.3260485 -6.11405063 5.32025314 -6.6875 8.1875 C-7.3475 8.1875 -8.0075 8.1875 -8.6875 8.1875 C-7.89324492 2.31001244 -6.14505479 -0.2671763 0 0 Z " fill="#D82531" transform="translate(92.6875,50.8125)"/>
<path d="M0 0 C1.32 0.33 2.64 0.66 4 1 C1.69 3.97 -0.62 6.94 -3 10 C-3.33 9.34 -3.66 8.68 -4 8 C-4.66 7.67 -5.32 7.34 -6 7 C-4.02 4.69 -2.04 2.38 0 0 Z " fill="#33875E" transform="translate(179,55)"/>
<path d="M0 0 C0.66 0 1.32 0 2 0 C2.33 1.32 2.66 2.64 3 4 C3.66 2.68 4.32 1.36 5 0 C5.66 0 6.32 0 7 0 C6.67 2.64 6.34 5.28 6 8 C4.35 8 2.7 8 1 8 C0.67 5.36 0.34 2.72 0 0 Z " fill="#181818" transform="translate(147,85)"/>
<path d="M0 0 C0.66 0 1.32 0 2 0 C2.33 1.32 2.66 2.64 3 4 C3.66 2.68 4.32 1.36 5 0 C5.66 0 6.32 0 7 0 C6.125 5.75 6.125 5.75 5 8 C3.68 8 2.36 8 1 8 C0.67 5.36 0.34 2.72 0 0 Z " fill="#131313" transform="translate(88,85)"/>
<path d="M0 0 C0.99 0 1.98 0 3 0 C3 3.63 3 7.26 3 11 C2.01 11 1.02 11 0 11 C0 7.37 0 3.74 0 0 Z " fill="#4F4F4F" transform="translate(109,82)"/>
<path d="M0 0 C0.99 0 1.98 0 3 0 C3 3.63 3 7.26 3 11 C2.01 11 1.02 11 0 11 C0 7.37 0 3.74 0 0 Z " fill="#3D3D3D" transform="translate(83,82)"/>
<path d="M0 0 C1.2065625 0.0309375 1.2065625 0.0309375 2.4375 0.0625 C2.7675 1.0525 3.0975 2.0425 3.4375 3.0625 C3.1075 3.7225 2.7775 4.3825 2.4375 5.0625 C0.7875 5.0625 -0.8625 5.0625 -2.5625 5.0625 C-2.8925 5.7225 -3.2225 6.3825 -3.5625 7.0625 C-3.60504356 5.06295254 -3.60330783 3.06208364 -3.5625 1.0625 C-2.5625 0.0625 -2.5625 0.0625 0 0 Z " fill="#F41923" transform="translate(48.5625,54.9375)"/>
<path d="M0 0 C0.56847656 0.26554687 1.13695312 0.53109375 1.72265625 0.8046875 C6.43192114 2.95884206 10.98231131 4.71888799 16 6 C16 6.33 16 6.66 16 7 C9.54487966 7.56131481 4.84560277 5.63463787 -1 3 C-0.67 2.01 -0.34 1.02 0 0 Z " fill="#FED9D4" transform="translate(45,68)"/>
<path d="M0 0 C-0.33 1.32 -0.66 2.64 -1 4 C-3.31 4 -5.62 4 -8 4 C-7.1875 2.0625 -7.1875 2.0625 -6 0 C-3 -1 -3 -1 0 0 Z " fill="#019649" transform="translate(164,69)"/>
<path d="M0 0 C1.32 0.66 2.64 1.32 4 2 C4 2.66 4 3.32 4 4 C2.8553125 4.6496875 2.8553125 4.6496875 1.6875 5.3125 C-1.34395518 7.21597186 -2.23737591 8.95546748 -4 12 C-4.99 12.33 -5.98 12.66 -7 13 C-7 12.34 -7 11.68 -7 11 C-6.34 11 -5.68 11 -5 11 C-4.7525 10.2575 -4.505 9.515 -4.25 8.75 C-2.90852699 5.79875938 -1.39094474 4.15185026 1 2 C0.67 1.34 0.34 0.68 0 0 Z " fill="#CC2931" transform="translate(56,49)"/>
<path d="M0 0 C0.33 1.32 0.66 2.64 1 4 C0.01 4 -0.98 4 -2 4 C-1.67 7.3 -1.34 10.6 -1 14 C-1.99 13.67 -2.98 13.34 -4 13 C-4 9.7 -4 6.4 -4 3 C-3.34 2.67 -2.68 2.34 -2 2 C-1.34 2.33 -0.68 2.66 0 3 C0 2.01 0 1.02 0 0 Z " fill="#EDEDED" transform="translate(116,79)"/>
<path d="M0 0 C0.28875 0.639375 0.5775 1.27875 0.875 1.9375 C1.82823451 4.15206079 1.82823451 4.15206079 4 5 C3.01 5.33 2.02 5.66 1 6 C0.34 6.66 -0.32 7.32 -1 8 C-3.125 7.625 -3.125 7.625 -5 7 C-5 5 -5 5 -2.5 2.375 C-1.675 1.59125 -0.85 0.8075 0 0 Z " fill="#D72632" transform="translate(109,66)"/>
<path d="M0 0 C0.66 0 1.32 0 2 0 C2 0.66 2 1.32 2 2 C2.66 2 3.32 2 4 2 C4 2.66 4 3.32 4 4 C3.34 4 2.68 4 2 4 C2 5.32 2 6.64 2 8 C2.66 8 3.32 8 4 8 C4 8.66 4 9.32 4 10 C2.68 10 1.36 10 0 10 C0 6.7 0 3.4 0 0 Z " fill="#101010" transform="translate(174,83)"/>
<path d="M0 0 C2.9297008 2.82506863 5.50174717 5.78796065 8 9 C7 10 7 10 5.15234375 10.09765625 C3.1015625 10.06510417 1.05078125 10.03255208 -1 10 C-0.01 9.34 0.98 8.68 2 8 C1.855625 7.4225 1.71125 6.845 1.5625 6.25 C1.04166667 4.16666667 0.52083333 2.08333333 0 0 Z " fill="#1E8550" transform="translate(161,64)"/>
<path d="M0 0 C0.33 0 0.66 0 1 0 C1.33 3.3 1.66 6.6 2 10 C2.99 10.33 3.98 10.66 5 11 C4.01 11.495 4.01 11.495 3 12 C2.67 12.99 2.34 13.98 2 15 C0 13 0 13 -0.1953125 9.9609375 C-0.17210938 8.77757812 -0.14890625 7.59421875 -0.125 6.375 C-0.10695313 5.18648437 -0.08890625 3.99796875 -0.0703125 2.7734375 C-0.04710938 1.85820313 -0.02390625 0.94296875 0 0 Z " fill="#D8181E" transform="translate(110,55)"/>
<path d="M0 0 C0.66 0.33 1.32 0.66 2 1 C1.67 4.3 1.34 7.6 1 11 C0.34 11 -0.32 11 -1 11 C-2.25 3.375 -2.25 3.375 0 0 Z " fill="#CA3440" transform="translate(44,55)"/>
<path d="M0 0 C0.66 0.33 1.32 0.66 2 1 C2 2.98 2 4.96 2 7 C-0.64 5.68 -3.28 4.36 -6 3 C-3 1 -3 1 0 0 Z " fill="#F2ECE4" transform="translate(120,48)"/>
<path d="M0 0 C5.2858549 -0.50341475 7.86554151 0.73089329 12 4 C12.33 4.66 12.66 5.32 13 6 C11.39253944 5.57476184 9.78910164 5.13429874 8.1875 4.6875 C7.29417969 4.44386719 6.40085937 4.20023438 5.48046875 3.94921875 C2.94752262 2.9799181 1.7283504 2.04990396 0 0 Z " fill="#C51F2B" transform="translate(106,49)"/>
<path d="M0 0 C1.98 0.495 1.98 0.495 4 1 C3.67 2.65 3.34 4.3 3 6 C1.68 6.33 0.36 6.66 -1 7 C-0.67 4.69 -0.34 2.38 0 0 Z " fill="#F3F9F5" transform="translate(41,48)"/>
<path d="M0 0 C2.83680518 1.41840259 3.62592304 3.18641385 5 6 C4.6875 8.3125 4.6875 8.3125 4 10 C0.06153846 5.69230769 0.06153846 5.69230769 -0.25 2.1875 C-0.1675 1.465625 -0.085 0.74375 0 0 Z " fill="#FED3D2" transform="translate(53,59)"/>
<path d="M0 0 C1.32 0 2.64 0 4 0 C3.67 1.32 3.34 2.64 3 4 C2.01 4 1.02 4 0 4 C-0.33 5.32 -0.66 6.64 -1 8 C-1.66 8 -2.32 8 -3 8 C-3 7.34 -3 6.68 -3 6 C-2.34 6 -1.68 6 -1 6 C-0.67 4.02 -0.34 2.04 0 0 Z " fill="#F3FEF7" transform="translate(100,58)"/>
<path d="M0 0 C0.99 0.33 1.98 0.66 3 1 C2.67 2.98 2.34 4.96 2 7 C1.01 7.33 0.02 7.66 -1 8 C-0.67 5.36 -0.34 2.72 0 0 Z M-3 8 C-2.01 8.495 -2.01 8.495 -1 9 C-1.99 9.495 -1.99 9.495 -3 10 C-3 9.34 -3 8.68 -3 8 Z " fill="#D5D5D5" transform="translate(154,85)"/>
<path d="M0 0 C0.33 0 0.66 0 1 0 C1.61538462 7.26153846 1.61538462 7.26153846 -1.5 11 C-2.325 11.66 -3.15 12.32 -4 13 C-4.33 12.01 -4.66 11.02 -5 10 C-4.360625 9.46375 -3.72125 8.9275 -3.0625 8.375 C-0.61470596 5.55632807 -0.33285388 3.66139268 0 0 Z " fill="#FECFD0" transform="translate(109,58)"/>
<path d="M0 0 C0.33 0.99 0.66 1.98 1 3 C-0.1446875 3.4021875 -0.1446875 3.4021875 -1.3125 3.8125 C-3.87380884 4.94424112 -5.19692938 5.91223401 -7 8 C-6.65930765 4.84859577 -6.41923159 3.39218439 -4.0625 1.1875 C-2 0 -2 0 0 0 Z " fill="#E0FAF0" transform="translate(182,52)"/>
<path d="M0 0 C1.76462683 3.08809695 2 4.23312136 2 8 C0 9.75 0 9.75 -2 11 C-2 7.07103605 -0.99700137 3.80106772 0 0 Z " fill="#E5E5E5" transform="translate(87,85)"/>
<path d="M0 0 C5.28 0.66 10.56 1.32 16 2 C16 2.33 16 2.66 16 3 C11.38 3.33 6.76 3.66 2 4 C2 3.34 2 2.68 2 2 C1.34 2 0.68 2 0 2 C0 1.34 0 0.68 0 0 Z " fill="#FED0D3" transform="translate(90,72)"/>
<path d="M0 0 C1.5 1.375 1.5 1.375 3 3 C3 3.66 3 4.32 3 5 C3.66 5 4.32 5 5 5 C5 5.66 5 6.32 5 7 C2.03 7 -0.94 7 -4 7 C-4 6.67 -4 6.34 -4 6 C-2.35 6 -0.7 6 1 6 C0.67 4.02 0.34 2.04 0 0 Z " fill="#C7F5DE" transform="translate(150,64)"/>
<path d="M0 0 C2.64 0 5.28 0 8 0 C8 2.31 8 4.62 8 7 C7.67 7 7.34 7 7 7 C6.67 5.35 6.34 3.7 6 2 C4.02 2.33 2.04 2.66 0 3 C0 2.01 0 1.02 0 0 Z " fill="#FCCDD1" transform="translate(66,63)"/>
<path d="M0 0 C1.65 0 3.3 0 5 0 C5 1.32 5 2.64 5 4 C3.68 4 2.36 4 1 4 C0.67 2.68 0.34 1.36 0 0 Z " fill="#555555" transform="translate(157,85)"/>
<path d="M0 0 C3.3 0.66 6.6 1.32 10 2 C10 2.33 10 2.66 10 3 C6.04 3 2.08 3 -2 3 C-1.34 2.67 -0.68 2.34 0 2 C0 1.34 0 0.68 0 0 Z " fill="#BD151F" transform="translate(98,71)"/>
<path d="M0 0 C2.75 -0.25 2.75 -0.25 6 0 C8.375 2 8.375 2 10 4 C9.01 4.495 9.01 4.495 8 5 C8 4.34 8 3.68 8 3 C7.05125 2.87625 6.1025 2.7525 5.125 2.625 C2 2 2 2 0 0 Z " fill="#FDD8D0" transform="translate(99,51)"/>
<path d="M0 0 C3.96 0 7.92 0 12 0 C12 0.33 12 0.66 12 1 C8.7 1.66 5.4 2.32 2 3 C1.34 2.01 0.68 1.02 0 0 Z " fill="#C01926" transform="translate(58,49)"/>
<path d="M0 0 C0.33 0.66 0.66 1.32 1 2 C0.01 2.495 0.01 2.495 -1 3 C-1 3.66 -1 4.32 -1 5 C-2.98 5 -4.96 5 -7 5 C-4.63707344 2.47411298 -3.33537489 1.11179163 0 0 Z " fill="#D1242F" transform="translate(52,50)"/>
<path d="M0 0 C2.3431213 0.25561323 4.67843403 0.59270772 7 1 C7.33 1.66 7.66 2.32 8 3 C7.05125 2.95875 6.1025 2.9175 5.125 2.875 C1.89755144 2.65026182 1.89755144 2.65026182 0 5 C0 3.35 0 1.7 0 0 Z " fill="#038C46" transform="translate(126,68)"/>
<path d="M0 0 C2.475 0.495 2.475 0.495 5 1 C4.67 1.99 4.34 2.98 4 4 C1.9375 4.6875 1.9375 4.6875 0 5 C0 3.35 0 1.7 0 0 Z " fill="#DC2F33" transform="translate(94,69)"/>
<path d="M0 0 C1.65 0.33 3.3 0.66 5 1 C5 1.66 5 2.32 5 3 C2.69 3.33 0.38 3.66 -2 4 C-1.34 2.68 -0.68 1.36 0 0 Z " fill="#FCEFE8" transform="translate(98,52)"/>
<path d="M0 0 C1.98 0.99 1.98 0.99 4 2 C4 2.99 4 3.98 4 5 C4.66 5.33 5.32 5.66 6 6 C5.01 7.485 5.01 7.485 4 9 C3.71125 8.195625 3.4225 7.39125 3.125 6.5625 C2.26737432 3.8673532 2.26737432 3.8673532 0 3 C0 2.01 0 1.02 0 0 Z " fill="#CF2E38" transform="translate(105,49)"/>
</svg>
