<?xml version="1.0" encoding="UTF-8"?>
<svg version="1.1" xmlns="http://www.w3.org/2000/svg" width="204" height="192">
<path d="M0 0 C67.32 0 134.64 0 204 0 C204 63.36 204 126.72 204 192 C136.68 192 69.36 192 0 192 C0 128.64 0 65.28 0 0 Z " fill="#00345C" transform="translate(0,0)"/>
<path d="M0 0 C4.94258187 2.86202893 8.28342189 6.94845244 11.0625 11.875 C11.93917195 15.469355 11.81279943 18.74116691 11.6875 22.4375 C12.3475 22.4375 13.0075 22.4375 13.6875 22.4375 C13.1925 24.9125 13.1925 24.9125 12.6875 27.4375 C14.81114481 27.66359337 14.81114481 27.66359337 16.3125 25.9375 C16.76625 25.4425 17.22 24.9475 17.6875 24.4375 C17.6875 25.7575 17.6875 27.0775 17.6875 28.4375 C17.0275 28.4375 16.3675 28.4375 15.6875 28.4375 C15.6875 29.0975 15.6875 29.7575 15.6875 30.4375 C14.6975 30.4375 13.7075 30.4375 12.6875 30.4375 C12.6875 31.0975 12.6875 31.7575 12.6875 32.4375 C12.0275 32.4375 11.3675 32.4375 10.6875 32.4375 C10.6875 33.7575 10.6875 35.0775 10.6875 36.4375 C9.6975 36.9325 9.6975 36.9325 8.6875 37.4375 C7.96590576 39.08113134 7.29398579 40.74800386 6.6875 42.4375 C6.0275 42.4375 5.3675 42.4375 4.6875 42.4375 C4.3575 43.4275 4.0275 44.4175 3.6875 45.4375 C6.7620356 44.6611068 6.7620356 44.6611068 8.6875 42.4375 C8.6875 43.0975 8.6875 43.7575 8.6875 44.4375 C9.3475 44.4375 10.0075 44.4375 10.6875 44.4375 C10.6875 42.1275 10.6875 39.8175 10.6875 37.4375 C14.12415891 35.32263298 16.71172713 35.3546714 20.6875 35.4375 C21.43 35.23125 22.1725 35.025 22.9375 34.8125 C23.515 34.68875 24.0925 34.565 24.6875 34.4375 C25.3475 35.0975 26.0075 35.7575 26.6875 36.4375 C29.2165915 36.82636088 29.2165915 36.82636088 32.0625 36.9375 C35.73060291 37.1352414 38.61571424 37.30490391 41.6875 39.4375 C42.47534206 42.71007473 43.08217326 45.25348022 42 48.5 C41.42447025 50.77154778 41.42447025 50.77154778 43.5625 53.6875 C44.26375 54.595 44.965 55.5025 45.6875 56.4375 C46.0175 56.4375 46.3475 56.4375 46.6875 56.4375 C47.0175 50.4975 47.3475 44.5575 47.6875 38.4375 C50.87574568 36.84337716 54.31646662 37.33575265 57.8125 37.375 C58.94365234 37.38176758 58.94365234 37.38176758 60.09765625 37.38867188 C61.96097127 37.40046501 63.82424555 37.41840058 65.6875 37.4375 C66.1825 39.9125 66.1825 39.9125 66.6875 42.4375 C62.3975 42.4375 58.1075 42.4375 53.6875 42.4375 C53.6875 44.0875 53.6875 45.7375 53.6875 47.4375 C55.9975 47.4375 58.3075 47.4375 60.6875 47.4375 C61.1825 49.9125 61.1825 49.9125 61.6875 52.4375 C58.97870665 53.79189668 56.67816732 53.50251451 53.6875 53.4375 C53.6875 55.0875 53.6875 56.7375 53.6875 58.4375 C57.9775 58.4375 62.2675 58.4375 66.6875 58.4375 C67.1825 60.9125 67.1825 60.9125 67.6875 63.4375 C65.7075 64.4275 65.7075 64.4275 63.6875 65.4375 C63.6875 66.0975 63.6875 66.7575 63.6875 67.4375 C61.6875 69.0625 61.6875 69.0625 59.6875 70.4375 C60.3475 70.7675 61.0075 71.0975 61.6875 71.4375 C61.6875 70.7775 61.6875 70.1175 61.6875 69.4375 C62.3475 69.4375 63.0075 69.4375 63.6875 69.4375 C63.6875 70.0975 63.6875 70.7575 63.6875 71.4375 C64.3475 71.7675 65.0075 72.0975 65.6875 72.4375 C65.0275 72.4375 64.3675 72.4375 63.6875 72.4375 C63.6875 73.4275 63.6875 74.4175 63.6875 75.4375 C63.0275 75.4375 62.3675 75.4375 61.6875 75.4375 C61.6875 74.4475 61.6875 73.4575 61.6875 72.4375 C60.6975 72.4375 59.7075 72.4375 58.6875 72.4375 C58.6875 73.0975 58.6875 73.7575 58.6875 74.4375 C59.3475 74.4375 60.0075 74.4375 60.6875 74.4375 C60.6875 75.0975 60.6875 75.7575 60.6875 76.4375 C58.7075 77.0975 56.7275 77.7575 54.6875 78.4375 C54.6875 77.1175 54.6875 75.7975 54.6875 74.4375 C55.3475 74.4375 56.0075 74.4375 56.6875 74.4375 C56.34522428 71.46684491 56.34522428 71.46684491 55.6875 68.4375 C52.80354263 66.99552132 49.86319521 66.84916419 46.6875 66.4375 C48.0075 67.4275 49.3275 68.4175 50.6875 69.4375 C45.33847076 70.02948743 40.07865154 70.57937241 34.6875 70.4375 C34.6875 68.7875 34.6875 67.1375 34.6875 65.4375 C33.91664062 65.44910156 33.14578125 65.46070312 32.3515625 65.47265625 C30.84722656 65.48619141 30.84722656 65.48619141 29.3125 65.5 C28.31476563 65.51160156 27.31703125 65.52320312 26.2890625 65.53515625 C23.6875 65.4375 23.6875 65.4375 21.6875 64.4375 C21.6875 58.1675 21.6875 51.8975 21.6875 45.4375 C21.0275 45.4375 20.3675 45.4375 19.6875 45.4375 C19.3575 51.0475 19.0275 56.6575 18.6875 62.4375 C14.6875 64.4375 14.6875 64.4375 13.6875 64.4375 C13.6875 65.4275 13.6875 66.4175 13.6875 67.4375 C14.3475 67.4375 15.0075 67.4375 15.6875 67.4375 C15.6875 68.7575 15.6875 70.0775 15.6875 71.4375 C19.41364153 70.31895414 19.41364153 70.31895414 21.6875 67.4375 C23.9975 67.7675 26.3075 68.0975 28.6875 68.4375 C28.6875 69.0975 28.6875 69.7575 28.6875 70.4375 C27.6975 70.7675 26.7075 71.0975 25.6875 71.4375 C25.6875 73.4175 25.6875 75.3975 25.6875 77.4375 C23.7075 77.9325 23.7075 77.9325 21.6875 78.4375 C22.1825 76.4575 22.1825 76.4575 22.6875 74.4375 C23.3475 74.4375 24.0075 74.4375 24.6875 74.4375 C24.6875 73.7775 24.6875 73.1175 24.6875 72.4375 C23.6975 72.4375 22.7075 72.4375 21.6875 72.4375 C21.1925 73.9225 21.1925 73.9225 20.6875 75.4375 C1.84134615 78.51442308 1.84134615 78.51442308 -4.3125 75.4375 C-4.3125 74.1175 -4.3125 72.7975 -4.3125 71.4375 C-3.3225 71.4375 -2.3325 71.4375 -1.3125 71.4375 C-1.3125 70.1175 -1.3125 68.7975 -1.3125 67.4375 C-2.6325 67.1075 -3.9525 66.7775 -5.3125 66.4375 C-2.3425 65.9425 -2.3425 65.9425 0.6875 65.4375 C0.6875 66.0975 0.6875 66.7575 0.6875 67.4375 C1.3475 67.7675 2.0075 68.0975 2.6875 68.4375 C2.3575 66.7875 2.0275 65.1375 1.6875 63.4375 C0.49125 63.80875 -0.705 64.18 -1.9375 64.5625 C-8.54778535 66.07010894 -17.18759535 65.49995232 -23.3125 62.4375 C-23.3125 58.4775 -23.3125 54.5175 -23.3125 50.4375 C-22.6525 50.4375 -21.9925 50.4375 -21.3125 50.4375 C-20.8265402 46.35543771 -20.97989314 44.86249766 -23.5625 41.5625 C-24.01496094 41.05589844 -24.46742187 40.54929688 -24.93359375 40.02734375 C-31.24378339 32.75185598 -31.06187203 24.68514031 -30.52709961 15.46704102 C-30.08311414 11.26812038 -29.44341156 7.6682713 -26.54296875 4.51171875 C-25.86878906 4.05410156 -25.19460937 3.59648438 -24.5 3.125 C-23.50033203 2.41923828 -23.50033203 2.41923828 -22.48046875 1.69921875 C-15.51895802 -2.35225506 -7.5074011 -3.36389318 0 0 Z " fill="#133658" transform="translate(53.3125,49.5625)"/>
<path d="M0 0 C4.65763581 0.10350302 7.89469339 0.49154394 11.75 3.3125 C14.69665267 6.64687012 15.98976647 9.10366191 16.0625 13.5 C15.75 17.3125 15.75 17.3125 14.75 20.3125 C16.07 19.9825 17.39 19.6525 18.75 19.3125 C18.68039063 18.59964844 18.61078125 17.88679688 18.5390625 17.15234375 C18.24243445 11.9048523 18.08493275 8.3032578 21.625 4.1875 C24.88038375 0.90066327 27.00620576 0.14473373 31.625 0.0625 C32.92050781 0.02382812 32.92050781 0.02382812 34.2421875 -0.015625 C37.20024649 0.37141076 38.54201784 1.36125995 40.75 3.3125 C40.42 4.9625 40.09 6.6125 39.75 8.3125 C38.7290625 7.8175 38.7290625 7.8175 37.6875 7.3125 C34.10229844 6.09200585 31.51106061 5.82495511 27.75 6.3125 C25.24603846 9.0587804 24.78966786 10.80673479 24.5 14.5 C24.57253891 17.26279852 24.57253891 17.26279852 25.75 19.3125 C30.77439385 20.98729795 35.65085558 20.54865622 40.75 19.3125 C41.41 21.6225 42.07 23.9325 42.75 26.3125 C41.76 26.9725 40.77 27.6325 39.75 28.3125 C41.07 28.6425 42.39 28.9725 43.75 29.3125 C41.875 30.375 41.875 30.375 39.75 31.3125 C39.09 30.9825 38.43 30.6525 37.75 30.3125 C37.75 30.9725 37.75 31.6325 37.75 32.3125 C38.74 32.6425 39.73 32.9725 40.75 33.3125 C36.79 33.3125 32.83 33.3125 28.75 33.3125 C28.75 32.6525 28.75 31.9925 28.75 31.3125 C27.76 31.6425 26.77 31.9725 25.75 32.3125 C24.76 31.9825 23.77 31.6525 22.75 31.3125 C23.41 32.3025 24.07 33.2925 24.75 34.3125 C28.33357241 34.56265873 28.33357241 34.56265873 31.75 34.3125 C32.08 35.3025 32.41 36.2925 32.75 37.3125 C32.255 38.3025 32.255 38.3025 31.75 39.3125 C30.1721875 39.0340625 30.1721875 39.0340625 28.5625 38.75 C25.17880118 38.36170669 22.98574112 38.43002515 19.75 39.3125 C19.42 37.6625 19.09 36.0125 18.75 34.3125 C18.09 34.3125 17.43 34.3125 16.75 34.3125 C16.75 36.2925 16.75 38.2725 16.75 40.3125 C14.275 40.8075 14.275 40.8075 11.75 41.3125 C11.75 40.6525 11.75 39.9925 11.75 39.3125 C11.09 39.3125 10.43 39.3125 9.75 39.3125 C9.75 37.9925 9.75 36.6725 9.75 35.3125 C9.09 35.3125 8.43 35.3125 7.75 35.3125 C7.75 36.9625 7.75 38.6125 7.75 40.3125 C5.11 40.6425 2.47 40.9725 -0.25 41.3125 C-0.25 40.3225 -0.25 39.3325 -0.25 38.3125 C-0.91 38.3125 -1.57 38.3125 -2.25 38.3125 C-2.25 37.3225 -2.25 36.3325 -2.25 35.3125 C-2.91 35.3125 -3.57 35.3125 -4.25 35.3125 C-4.58 36.6325 -4.91 37.9525 -5.25 39.3125 C-6.9 39.3125 -8.55 39.3125 -10.25 39.3125 C-10.58 39.9725 -10.91 40.6325 -11.25 41.3125 C-11.58 39.3325 -11.91 37.3525 -12.25 35.3125 C-9.94 34.6525 -7.63 33.9925 -5.25 33.3125 C-6.19875 33.35375 -7.1475 33.395 -8.125 33.4375 C-11.25 33.3125 -11.25 33.3125 -13.25 31.3125 C-13.25 30.3225 -13.25 29.3325 -13.25 28.3125 C-12.43917969 27.99410156 -11.62835938 27.67570312 -10.79296875 27.34765625 C-8.04371255 25.5940435 -8.04371255 25.5940435 -7.77587891 22.95263672 C-7.6031446 19.87817349 -7.55316308 16.82931665 -7.5625 13.75 C-7.54596094 11.64445086 -7.52161485 9.53894398 -7.48828125 7.43359375 C-7.48868408 6.4995874 -7.48908691 5.56558105 -7.48950195 4.60327148 C-6.99220078 -0.15327985 -4.07063927 0.01668295 0 0 Z " fill="#0A335B" transform="translate(131.25,86.6875)"/>
<path d="M0 0 C2.8984375 -0.36328125 2.8984375 -0.36328125 6.375 -0.3125 C7.51710938 -0.30863281 8.65921875 -0.30476563 9.8359375 -0.30078125 C12.83205246 -0.01596538 14.58067948 0.23891943 17 2 C17.78784206 5.27257473 18.39467326 7.81598022 17.3125 11.0625 C16.73697025 13.33404778 16.73697025 13.33404778 18.875 16.25 C19.57625 17.1575 20.2775 18.065 21 19 C21.33 19 21.66 19 22 19 C22.33 13.06 22.66 7.12 23 1 C26.18824568 -0.59412284 29.62896662 -0.10174735 33.125 -0.0625 C33.87910156 -0.05798828 34.63320312 -0.05347656 35.41015625 -0.04882812 C37.27347127 -0.03703499 39.13674555 -0.01909942 41 0 C41.495 2.475 41.495 2.475 42 5 C37.71 5 33.42 5 29 5 C29 6.65 29 8.3 29 10 C31.31 10 33.62 10 36 10 C36.495 12.475 36.495 12.475 37 15 C34.29120665 16.35439668 31.99066732 16.06501451 29 16 C29 17.65 29 19.3 29 21 C33.29 21 37.58 21 42 21 C42.495 23.475 42.495 23.475 43 26 C41.02 26.99 41.02 26.99 39 28 C39 28.66 39 29.32 39 30 C37 31.625 37 31.625 35 33 C35.99 33.495 35.99 33.495 37 34 C37 33.34 37 32.68 37 32 C37.66 32 38.32 32 39 32 C39 32.66 39 33.32 39 34 C39.99 34.495 39.99 34.495 41 35 C40.34 35 39.68 35 39 35 C39 35.99 39 36.98 39 38 C38.34 38 37.68 38 37 38 C37 37.01 37 36.02 37 35 C36.01 35 35.02 35 34 35 C34 35.66 34 36.32 34 37 C34.66 37 35.32 37 36 37 C36 37.66 36 38.32 36 39 C34.02 39.66 32.04 40.32 30 41 C30 39.68 30 38.36 30 37 C30.66 37 31.32 37 32 37 C31.65772428 34.02934491 31.65772428 34.02934491 31 31 C28.11604263 29.55802132 25.17569521 29.41166419 22 29 C23.32 29.99 24.64 30.98 26 32 C20.65097076 32.59198743 15.39115154 33.14187241 10 33 C10 31.35 10 29.7 10 28 C9.22914062 28.01160156 8.45828125 28.02320312 7.6640625 28.03515625 C6.15972656 28.04869141 6.15972656 28.04869141 4.625 28.0625 C3.62726563 28.07410156 2.62953125 28.08570312 1.6015625 28.09765625 C-1 28 -1 28 -3 27 C-3.45251397 5.17877095 -3.45251397 5.17877095 0 0 Z " fill="#04325A" transform="translate(78,87)"/>
<path d="M0 0 C4.6209371 2.66082649 6.89459424 6.37128273 8.5625 11.375 C9.26307671 21.53336223 5.68833183 28.62020795 0.4765625 37.1875 C-1.77855366 39.76477561 -3.08396075 40.09841944 -6.4375 40.375 C-8.25763461 36.73473078 -7.81980927 32.74440156 -6.74609375 28.8984375 C-4.66132341 24.8782535 -1.1736117 22.928451 2.4453125 20.33984375 C3.14398438 19.69144531 3.84265625 19.04304688 4.5625 18.375 C4.5625 17.055 4.5625 15.735 4.5625 14.375 C0.88891418 14.71672891 -1.04947635 15.05488049 -3.9375 17.4375 C-6.4375 19.375 -6.4375 19.375 -9.25 20 C-13.82987558 19.10198518 -17.12278625 16.62240992 -20.4375 13.375 C-20.4375 12.715 -20.4375 12.055 -20.4375 11.375 C-21.4275 11.705 -22.4175 12.035 -23.4375 12.375 C-24.11100769 15.07512347 -24.11100769 15.07512347 -23.4375 18.375 C-21.52819365 20.43807599 -19.497034 22.12732258 -17.28515625 23.859375 C-15.4375 25.375 -15.4375 25.375 -14.4375 27.375 C-14.3419069 29.03944461 -14.30765355 30.70781963 -14.3125 32.375 C-14.30992188 33.261875 -14.30734375 34.14875 -14.3046875 35.0625 C-14.4375 37.375 -14.4375 37.375 -15.4375 39.375 C-18.63674794 39.10839601 -20.13355348 38.66052552 -22.5 36.4375 C-27.95108045 27.82127606 -30.07372178 19.38079943 -28 9.234375 C-26.30275956 4.35480874 -22.79579706 1.77206338 -18.4375 -0.625 C-12.47744265 -2.61168578 -5.76969281 -2.61371422 0 0 Z " fill="#0E345A" transform="translate(53.4375,52.625)"/>
<path d="M0 0 C4.62283511 2.65384979 8.30472435 6.6719487 10.6875 11.4375 C12.04121657 22.30150385 9.61471126 33.94352201 2.90625 42.78515625 C0.32591477 45.17875669 -1.74975903 46.36566073 -5.25 46.8125 C-6.2709375 46.626875 -6.2709375 46.626875 -7.3125 46.4375 C-7.3125 45.7775 -7.3125 45.1175 -7.3125 44.4375 C-7.9725 44.4375 -8.6325 44.4375 -9.3125 44.4375 C-11.17808515 40.7063297 -10.90149088 36.26268685 -9.640625 32.35546875 C-8.92166165 30.69032251 -8.12362518 29.05975036 -7.3125 27.4375 C-6.6525 27.4375 -5.9925 27.4375 -5.3125 27.4375 C-5.3125 26.7775 -5.3125 26.1175 -5.3125 25.4375 C-3.0025 24.1175 -0.6925 22.7975 1.6875 21.4375 C-1.36049181 22.35111475 -1.36049181 22.35111475 -4.125 24 C-7.71047418 25.61697855 -9.44239425 26.14833575 -13.3125 25.4375 C-15.87038443 23.65473207 -18.10384035 21.63309066 -20.3125 19.4375 C-11.53079522 27.73133229 -11.53079522 27.73133229 -11.06640625 33.48828125 C-11.06288808 36.48224773 -11.13841138 39.44897866 -11.3125 42.4375 C-11.9725 42.4375 -12.6325 42.4375 -13.3125 42.4375 C-13.6425 43.4275 -13.9725 44.4175 -14.3125 45.4375 C-16.9375 45.875 -16.9375 45.875 -20.3125 45.4375 C-22.80171036 43.44247111 -24.51425881 41.05404196 -26.3125 38.4375 C-26.93898438 37.62152344 -26.93898438 37.62152344 -27.578125 36.7890625 C-32.41054865 29.2681778 -31.25476552 18.02225461 -29.52734375 9.6171875 C-28.24947633 6.27254417 -27.4115595 5.10129756 -24.5 3.125 C-23.50033203 2.41923828 -23.50033203 2.41923828 -22.48046875 1.69921875 C-15.51895802 -2.35225506 -7.5074011 -3.36389318 0 0 Z M-26.3125 9.4375 C-29.33574967 15.68484459 -29.31377106 22.56772265 -27.58984375 29.23046875 C-25.65182191 34.4168349 -23.33790315 38.613367 -19.3125 42.4375 C-17.9925 42.4375 -16.6725 42.4375 -15.3125 42.4375 C-13.45332536 38.71915072 -13.73682538 34.48641147 -14.3125 30.4375 C-16.4380155 27.47839856 -16.4380155 27.47839856 -19.3125 25.4375 C-21.625 23.5 -21.625 23.5 -23.3125 21.4375 C-23.5625 18.1875 -23.5625 18.1875 -23.3125 15.4375 C-22.3225 15.1075 -21.3325 14.7775 -20.3125 14.4375 C-20.3125 15.0975 -20.3125 15.7575 -20.3125 16.4375 C-17.05163125 19.63215822 -13.72572073 22.12024637 -9.25 23.125 C-5.74901161 22.30561974 -3.74124422 20.82798808 -1.0234375 18.53125 C0.6875 17.4375 0.6875 17.4375 4.6875 17.4375 C4.40182228 20.859681 3.99312201 22.15257115 1.4375 24.53515625 C0.53 25.18355469 -0.3775 25.83195312 -1.3125 26.5 C-4.91000658 28.91389262 -4.91000658 28.91389262 -7.1171875 32.45703125 C-7.75898951 38.10679934 -7.75898951 38.10679934 -6.3125 43.4375 C-2.74336855 43.19457482 -1.56278891 42.71935688 0.85546875 39.99609375 C6.09749946 31.89477357 10.22851542 24.37704946 8.6875 14.4375 C6.81298558 8.60094372 4.18922608 5.36395004 -1.3125 2.4375 C-11.14406901 -0.83968967 -19.63502075 1.64710754 -26.3125 9.4375 Z " fill="#DB8617" transform="translate(53.3125,49.5625)"/>
<path d="M0 0 C4.65763581 0.10350302 7.89469339 0.49154394 11.75 3.3125 C15.1803482 7.1942098 16.41243718 10.27840547 16.140625 15.35546875 C15.3291771 19.42082272 12.94564042 22.16825589 10.0234375 24.96484375 C6.9462862 26.78892829 4.67621877 26.64266295 1.125 26.5625 C-0.02226562 26.54703125 -1.16953125 26.5315625 -2.3515625 26.515625 C-5.25 26.3125 -5.25 26.3125 -7.25 25.3125 C-7.30786668 21.52089703 -7.34355054 17.72940689 -7.375 13.9375 C-7.39175781 12.85726562 -7.40851563 11.77703125 -7.42578125 10.6640625 C-7.43222656 9.6328125 -7.43867187 8.6015625 -7.4453125 7.5390625 C-7.45578613 6.58596191 -7.46625977 5.63286133 -7.47705078 4.65087891 C-7.01154224 -0.14335857 -4.10464887 0.01682233 0 0 Z " fill="#D8DCE2" transform="translate(131.25,86.6875)"/>
<path d="M0 0 C1.15113281 -0.01417969 2.30226563 -0.02835937 3.48828125 -0.04296875 C6.53824315 0.17674767 8.23880036 0.38905314 10.6875 2.1875 C11.48482044 5.49944646 12.00915464 8.06170874 11.0625 11.375 C10.93875 11.973125 10.815 12.57125 10.6875 13.1875 C11.1825 13.826875 11.6775 14.46625 12.1875 15.125 C13.6875 17.1875 13.6875 17.1875 13.625 19.6875 C12.43656654 22.85665588 11.40077411 24.13421149 8.6875 26.1875 C5.79300051 26.4781124 3.30800065 26.56936045 0.4375 26.4375 C-0.68011719 26.41042969 -0.68011719 26.41042969 -1.8203125 26.3828125 C-3.65159701 26.33585649 -5.48221649 26.26411652 -7.3125 26.1875 C-7.34136751 22.04168113 -7.35925327 17.89588784 -7.375 13.75 C-7.38337891 12.56599609 -7.39175781 11.38199219 -7.40039062 10.16210938 C-7.40361328 9.03740234 -7.40683594 7.91269531 -7.41015625 6.75390625 C-7.41539307 5.71177979 -7.42062988 4.66965332 -7.42602539 3.59594727 C-7.20129322 -1.17175778 -4.09818371 0.02279301 0 0 Z " fill="#D2D8DE" transform="translate(84.3125,86.8125)"/>
<path d="M0 0 C4.6209371 2.66082649 6.89459424 6.37128273 8.5625 11.375 C9.26307671 21.53336223 5.68833183 28.62020795 0.4765625 37.1875 C-1.77855366 39.76477561 -3.08396075 40.09841944 -6.4375 40.375 C-8.25763461 36.73473078 -7.81980927 32.74440156 -6.74609375 28.8984375 C-4.66132341 24.8782535 -1.1736117 22.928451 2.4453125 20.33984375 C3.14398438 19.69144531 3.84265625 19.04304688 4.5625 18.375 C4.5625 17.055 4.5625 15.735 4.5625 14.375 C3.634375 14.54 2.70625 14.705 1.75 14.875 C-1.4375 15.375 -1.4375 15.375 -4.4375 15.375 C-4.4375 13.065 -4.4375 10.755 -4.4375 8.375 C-7.4075 8.375 -10.3775 8.375 -13.4375 8.375 C-13.4375 7.385 -13.4375 6.395 -13.4375 5.375 C-13.7675 4.715 -14.0975 4.055 -14.4375 3.375 C-16.4175 3.705 -18.3975 4.035 -20.4375 4.375 C-19.625 1.9375 -19.625 1.9375 -18.4375 -0.625 C-12.47744265 -2.61168578 -5.76969281 -2.61371422 0 0 Z " fill="#10335D" transform="translate(53.4375,52.625)"/>
<path d="M0 0 C0.33 0 0.66 0 1 0 C1 1.98 1 3.96 1 6 C1.66 6 2.32 6 3 6 C3.33 4.68 3.66 3.36 4 2 C4.1094017 9.75536526 3.91988309 17.29597913 3 25 C7.29 25.33 11.58 25.66 16 26 C16.33 27.32 16.66 28.64 17 30 C20.63 30 24.26 30 28 30 C28.1490712 27.9254644 28.1490712 27.9254644 27 26 C35.11169031 26.3401128 35.11169031 26.3401128 38.1875 28.625 C39.41667434 32.21797116 38.36533765 34.55414785 37 38 C36.01 38.495 36.01 38.495 35 39 C34.505 35.535 34.505 35.535 34 32 C33.01 32.33 32.02 32.66 31 33 C29.33333333 33 27.66666667 33 26 33 C24.65667272 33.29044914 23.31774196 33.60955794 22 34 C22 33.34 22 32.68 22 32 C19.56282742 32.27034634 19.56282742 32.27034634 17 33 C16.34 33.99 15.68 34.98 15 36 C15 34.68 15 33.36 15 32 C13.35 32 11.7 32 10 32 C10 33.32 10 34.64 10 36 C9.34 36 8.68 36 8 36 C7.67 36.66 7.34 37.32 7 38 C6.67 35.69 6.34 33.38 6 31 C7.32 31 8.64 31 10 31 C10 30.34 10 29.68 10 29 C9.01 29.33 8.02 29.66 7 30 C7 29.34 7 28.68 7 28 C5.68 28 4.36 28 3 28 C2.34 29.32 1.68 30.64 1 32 C-0.32 32 -1.64 32 -3 32 C-3 30.68 -3 29.36 -3 28 C-3.66 28 -4.32 28 -5 28 C-6.88414642 24.80542649 -7.23819737 22.48497371 -7.1953125 18.796875 C-7.18886719 17.8171875 -7.18242188 16.8375 -7.17578125 15.828125 C-7.15902344 14.81234375 -7.14226562 13.7965625 -7.125 12.75 C-7.11597656 11.71875 -7.10695313 10.6875 -7.09765625 9.625 C-7.07412011 7.08309713 -7.04124023 4.5416672 -7 2 C-6.67 2 -6.34 2 -6 2 C-5.67 8.93 -5.34 15.86 -5 23 C-3.68 23 -2.36 23 -1 23 C-0.67 15.41 -0.34 7.82 0 0 Z " fill="#062E57" transform="translate(72,89)"/>
<path d="M0 0 C1.48831242 0.00667405 2.97660807 0.01863442 4.46484375 0.03515625 C5.22345703 0.03966797 5.98207031 0.04417969 6.76367188 0.04882812 C8.64326246 0.06064945 10.52281274 0.07858547 12.40234375 0.09765625 C12.73234375 1.74765625 13.06234375 3.39765625 13.40234375 5.09765625 C9.11234375 5.09765625 4.82234375 5.09765625 0.40234375 5.09765625 C0.40234375 6.74765625 0.40234375 8.39765625 0.40234375 10.09765625 C2.71234375 10.09765625 5.02234375 10.09765625 7.40234375 10.09765625 C7.73234375 11.74765625 8.06234375 13.39765625 8.40234375 15.09765625 C5.6935504 16.45205293 3.39301107 16.16267076 0.40234375 16.09765625 C0.40234375 17.74765625 0.40234375 19.39765625 0.40234375 21.09765625 C4.69234375 21.09765625 8.98234375 21.09765625 13.40234375 21.09765625 C13.73234375 22.74765625 14.06234375 24.39765625 14.40234375 26.09765625 C11.42311782 26.12449612 8.4441308 26.14441662 5.46484375 26.16015625 C4.18963867 26.17272461 4.18963867 26.17272461 2.88867188 26.18554688 C2.07978516 26.18876953 1.27089844 26.19199219 0.4375 26.1953125 C-0.31136475 26.20054932 -1.06022949 26.20578613 -1.83178711 26.21118164 C-3.59765625 26.09765625 -3.59765625 26.09765625 -4.59765625 25.09765625 C-4.69712078 23.32906432 -4.72845842 21.55654174 -4.73046875 19.78515625 C-4.73175781 18.71007812 -4.73304687 17.635 -4.734375 16.52734375 C-4.72857422 14.82964844 -4.72857422 14.82964844 -4.72265625 13.09765625 C-4.72652344 11.96585938 -4.73039062 10.8340625 -4.734375 9.66796875 C-4.73308594 8.59289062 -4.73179688 7.5178125 -4.73046875 6.41015625 C-4.72934082 5.41628906 -4.72821289 4.42242187 -4.72705078 3.3984375 C-4.51360849 -0.39680802 -3.96567245 0.10764583 0 0 Z " fill="#EDEFEF" transform="translate(106.59765625,86.90234375)"/>
<path d="M0 0 C1.29550781 -0.03867188 1.29550781 -0.03867188 2.6171875 -0.078125 C5.57524649 0.30891076 6.91701784 1.29875995 9.125 3.25 C8.795 4.9 8.465 6.55 8.125 8.25 C7.1040625 7.755 7.1040625 7.755 6.0625 7.25 C2.47729844 6.02950585 -0.11393939 5.76245511 -3.875 6.25 C-6.37896154 8.9962804 -6.83533214 10.74423479 -7.125 14.4375 C-7.05246109 17.20029852 -7.05246109 17.20029852 -5.875 19.25 C-0.85060615 20.92479795 4.02585558 20.48615622 9.125 19.25 C8.8573244 22.55133235 8.5646165 23.87503298 6 26.0625 C2.37711036 27.55891094 0.01916868 27.72823124 -3.875 27.25 C-7.79788321 25.13767827 -10.52513043 23.0272975 -12.875 19.25 C-13.77657356 14.68622064 -13.94586061 10.12646218 -11.59765625 6.01171875 C-7.99001456 1.75134971 -5.64925074 0.10058013 0 0 Z " fill="#DEE2E6" transform="translate(162.875,86.75)"/>
<path d="M0 0 C0.66 0 1.32 0 2 0 C2.66 1.98 3.32 3.96 4 6 C5.32 5.01 6.64 4.02 8 3 C8.7734375 3.495 8.7734375 3.495 9.5625 4 C12.89310774 5.36640318 15.42646082 5.31346835 19 5 C21.87305972 3.59539303 23.74510999 2.25489001 26 0 C26.495 2.475 26.495 2.475 27 5 C26.01 5.66 25.02 6.32 24 7 C25.32 7.33 26.64 7.66 28 8 C26.125 9.0625 26.125 9.0625 24 10 C23.34 9.67 22.68 9.34 22 9 C22 9.66 22 10.32 22 11 C22.99 11.33 23.98 11.66 25 12 C21.04 12 17.08 12 13 12 C13 11.34 13 10.68 13 10 C12.01 10.33 11.02 10.66 10 11 C9.01 10.67 8.02 10.34 7 10 C7.99 11.485 7.99 11.485 9 13 C12.58357241 13.25015873 12.58357241 13.25015873 16 13 C16.33 13.99 16.66 14.98 17 16 C16.67 16.66 16.34 17.32 16 18 C14.948125 17.814375 13.89625 17.62875 12.8125 17.4375 C9.42880118 17.04920669 7.23574112 17.11752515 4 18 C3.67 16.35 3.34 14.7 3 13 C1.68 12.67 0.36 12.34 -1 12 C-1 11.01 -1 10.02 -1 9 C-2.65 8.67 -4.3 8.34 -6 8 C-6 7.34 -6 6.68 -6 6 C-5.01 6 -4.02 6 -3 6 C-2.690625 5.38125 -2.38125 4.7625 -2.0625 4.125 C-1.375 2.75 -0.6875 1.375 0 0 Z M-1 6 C0 8 0 8 0 8 Z " fill="#073761" transform="translate(147,108)"/>
<path d="M0 0 C2.97 0 5.94 0 9 0 C8.67 0.66 8.34 1.32 8 2 C9.32 2.66 10.64 3.32 12 4 C9.36 4 6.72 4 4 4 C4 4.99 4 5.98 4 7 C3.01 7.495 3.01 7.495 2 8 C1.53476937 9.89533342 1.53476937 9.89533342 1.375 12.0625 C1.25125 13.361875 1.1275 14.66125 1 16 C1.99 16 2.98 16 4 16 C4.33 17.98 4.66 19.96 5 22 C5.66 21.67 6.32 21.34 7 21 C9.3329866 20.95977609 11.66706666 20.95679753 14 21 C14 19.02 14 17.04 14 15 C12.02 14.34 10.04 13.68 8 13 C8 12.67 8 12.34 8 12 C6.35 11.67 4.7 11.34 3 11 C3 10.67 3 10.34 3 10 C6.63 10 10.26 10 14 10 C14.33 8.35 14.66 6.7 15 5 C15.66 5.33 16.32 5.66 17 6 C17.33 5.67 17.66 5.34 18 5 C19 8 19 8 18.375 9.9375 C18.25125 10.618125 18.1275 11.29875 18 12 C18.495 12.639375 18.99 13.27875 19.5 13.9375 C21 16 21 16 20.9375 18.5 C19.74906654 21.66915588 18.71327411 22.94671149 16 25 C13.07545478 25.29362904 10.64493292 25.38195943 7.75 25.25 C5.1925 25.1675 2.635 25.085 0 25 C0 16.75 0 8.5 0 0 Z " fill="#E3E6EC" transform="translate(77,88)"/>
<path d="M0 0 C4.72044127 2.67916937 4.72044127 2.67916937 6.40234375 4.609375 C7.90380085 6.1843913 7.90380085 6.1843913 10.015625 6.21484375 C15.58241012 5.52386168 19.31063633 4.09298455 24 1 C22.74874616 4.75376152 21.4347596 5.24073289 18 7 C17.34 7 16.68 7 16 7 C16 7.66 16 8.32 16 9 C15.525625 9.45375 15.05125 9.9075 14.5625 10.375 C11.59963937 13.45637505 11.88362868 17.1557795 11.9375 21.25 C11.95103516 22.58804688 11.95103516 22.58804688 11.96484375 23.953125 C11.97644531 24.62859375 11.98804688 25.3040625 12 26 C12.66 26 13.32 26 14 26 C14 26.66 14 27.32 14 28 C15.98 28.99 17.96 29.98 20 31 C20 31.33 20 31.66 20 32 C11.585 32.495 11.585 32.495 3 33 C8.61 33.33 14.22 33.66 20 34 C20 34.99 20 35.98 20 37 C17.04160645 37.02689449 14.08345573 37.04678741 11.125 37.0625 C10.28324219 37.07087891 9.44148438 37.07925781 8.57421875 37.08789062 C7.76855469 37.09111328 6.96289062 37.09433594 6.1328125 37.09765625 C5.01737061 37.10551147 5.01737061 37.10551147 3.87939453 37.11352539 C2 37 2 37 0 36 C-0.125 29.25 -0.125 29.25 1 27 C3 26.66666667 5 26.33333333 7 26 C7.33 25.34 7.66 24.68 8 24 C8.66 24 9.32 24 10 24 C9.81190926 14.22914827 9.81190926 14.22914827 5 6 C3.34808509 4.64843325 1.68477344 3.31037934 0 2 C0 1.34 0 0.68 0 0 Z " fill="#343C54" transform="translate(32,68)"/>
<path d="M0 0 C0.33 0 0.66 0 1 0 C1.08696177 3.93736123 1.14037835 7.87447628 1.1875 11.8125 C1.21263672 12.93205078 1.23777344 14.05160156 1.26367188 15.20507812 C1.27333984 16.27822266 1.28300781 17.35136719 1.29296875 18.45703125 C1.3086792 19.44678955 1.32438965 20.43654785 1.34057617 21.45629883 C1 24 1 24 -0.33081055 25.84643555 C-2 27 -2 27 -5 27 C-4.34 27.33 -3.68 27.66 -3 28 C-3 29.32 -3 30.64 -3 32 C0.96 31.505 0.96 31.505 5 31 C5.33 31.66 5.66 32.32 6 33 C5.071875 33.144375 4.14375 33.28875 3.1875 33.4375 C-0.00725111 33.92100111 -0.00725111 33.92100111 -3 35 C-3.99 34.34 -4.98 33.68 -6 33 C-6 32.34 -6 31.68 -6 31 C-6.66 31 -7.32 31 -8 31 C-8 31.66 -8 32.32 -8 33 C-8.99 32.67 -9.98 32.34 -11 32 C-9.625 30.5 -9.625 30.5 -8 29 C-7.34 29 -6.68 29 -6 29 C-6 28.34 -6 27.68 -6 27 C-6.99 26.67 -7.98 26.34 -9 26 C-5.535 25.505 -5.535 25.505 -2 25 C-2.33 23.68 -2.66 22.36 -3 21 C-7.29 20.67 -11.58 20.34 -16 20 C-16 18.35 -16 16.7 -16 15 C-8.25 14.875 -8.25 14.875 -6 16 C-5.67 13.69 -5.34 11.38 -5 9 C-5.99 9 -6.98 9 -8 9 C-8.33 8.01 -8.66 7.02 -9 6 C-6.03 6 -3.06 6 0 6 C0 4.02 0 2.04 0 0 Z " fill="#022D56" transform="translate(123,88)"/>
<path d="M0 0 C0.99 0.33 1.98 0.66 3 1 C5.33268608 7.99805823 3.97548203 14.45393954 1 21 C-1.05913736 24.8793131 -3.10166715 28.6876196 -6 32 C-8.7265625 32.8125 -8.7265625 32.8125 -11 33 C-12.8252417 29.3495166 -12.37383025 25.35381464 -11.30859375 21.49609375 C-9.6664242 18.36371662 -7.82643614 17.28376354 -4.875 15.375 C-0.96329919 12.47150513 -0.96329919 12.47150513 0.65625 8.0390625 C0.62803166 5.29482877 0.44765125 2.70580314 0 0 Z " fill="#19375B" transform="translate(58,60)"/>
<path d="M0 0 C7.90909091 0 7.90909091 0 11 3 C11.81972163 7.08314172 11.50923881 10.69507554 10 14.5625 C8 16 8 16 0 16 C0 10.72 0 5.44 0 0 Z " fill="#033257" transform="translate(130,92)"/>
<path d="M0 0 C1.65 0.33 3.3 0.66 5 1 C5 8.92 5 16.84 5 25 C3.02 25.99 3.02 25.99 1 27 C-1 25 -1 25 -1.24291992 22.58569336 C-1.23881104 21.59706299 -1.23470215 20.60843262 -1.23046875 19.58984375 C-1.22853516 18.51798828 -1.22660156 17.44613281 -1.22460938 16.34179688 C-1.21236328 15.21837891 -1.20011719 14.09496094 -1.1875 12.9375 C-1.18685547 11.81021484 -1.18621094 10.68292969 -1.18554688 9.52148438 C-1.14013317 1.14013317 -1.14013317 1.14013317 0 0 Z " fill="#C5C8D3" transform="translate(67,87)"/>
<path d="M0 0 C3.68684241 0.25722156 5.78603703 0.85580757 8.875 2.9375 C11.84222023 7.21378798 11.62761249 10.93427059 11 16 C10.67 16.66 10.34 17.32 10 18 C6.73491983 17.72790999 5.25870946 17.23653436 2.8125 15 C0.50760483 11.1850011 -0.57624302 7.43698484 -1 3 C-0.67 2.01 -0.34 1.02 0 0 Z " fill="#09335B" transform="translate(28,74)"/>
<path d="M0 0 C0.33 0 0.66 0 1 0 C1 1.65 1 3.3 1 5 C3.31 5 5.62 5 8 5 C8.33 6.65 8.66 8.3 9 10 C6.29120665 11.35439668 3.99066732 11.06501451 1 11 C1 12.65 1 14.3 1 16 C5.29 16 9.58 16 14 16 C14.33 17.65 14.66 19.3 15 21 C9.06 21 3.12 21 -3 21 C-2.01 19.515 -2.01 19.515 -1 18 C-0.63648496 15.97457852 -0.63648496 15.97457852 -0.5859375 13.76953125 C-0.54726562 12.96708984 -0.50859375 12.16464844 -0.46875 11.33789062 C-0.4378125 10.50451172 -0.406875 9.67113281 -0.375 8.8125 C-0.33632812 7.96751953 -0.29765625 7.12253906 -0.2578125 6.25195312 C-0.16363721 4.16832476 -0.08073325 2.08419247 0 0 Z " fill="#DBDFE7" transform="translate(106,92)"/>
<path d="M0 0 C0.33 0 0.66 0 1 0 C1.33 8.25 1.66 16.5 2 25 C-13.66183137 28.13236627 -13.66183137 28.13236627 -18.6875 27.625 C-19.64011719 27.53476563 -20.59273438 27.44453125 -21.57421875 27.3515625 C-24 27 -24 27 -26 26 C-26.16677223 17.95787245 -25.6466598 10.01396246 -25 2 C-24.67 2 -24.34 2 -24 2 C-24 9.59 -24 17.18 -24 25 C-20.16375 24.87625 -20.16375 24.87625 -16.25 24.75 C-15.05165527 24.72631348 -15.05165527 24.72631348 -13.82910156 24.70214844 C-10.2566046 24.53117251 -8.35954898 24.30784913 -5.609375 21.953125 C-5.07828125 21.30859375 -4.5471875 20.6640625 -4 20 C-3.34 20 -2.68 20 -2 20 C-0.88176185 17.76352369 -0.80603939 16.35108471 -0.68359375 13.8671875 C-0.64169922 13.06152344 -0.59980469 12.25585938 -0.55664062 11.42578125 C-0.51732422 10.58402344 -0.47800781 9.74226563 -0.4375 8.875 C-0.39431641 8.02550781 -0.35113281 7.17601563 -0.30664062 6.30078125 C-0.20045764 4.20071777 -0.09971503 2.10038052 0 0 Z " fill="#21405E" transform="translate(101,88)"/>
<path d="M0 0 C2.97 0 5.94 0 9 0 C8.67 0.66 8.34 1.32 8 2 C9.32 2.66 10.64 3.32 12 4 C9.36 4 6.72 4 4 4 C4 4.99 4 5.98 4 7 C3.01 7.495 3.01 7.495 2 8 C1.53476937 9.89533342 1.53476937 9.89533342 1.375 12.0625 C1.25125 13.361875 1.1275 14.66125 1 16 C1.99 16 2.98 16 4 16 C4.33 17.98 4.66 19.96 5 22 C5.763125 21.814375 6.52625 21.62875 7.3125 21.4375 C10 21 10 21 13 22 C12.67 22.99 12.34 23.98 12 25 C8.04 25 4.08 25 0 25 C0 16.75 0 8.5 0 0 Z " fill="#EFF5F8" transform="translate(77,88)"/>
<path d="M0 0 C2.27141109 0.11402064 4.54214552 0.24158505 6.8125 0.375 C8.07707031 0.44460937 9.34164062 0.51421875 10.64453125 0.5859375 C14 1 14 1 17 3 C17 3.99 17 4.98 17 6 C17.99 6 18.98 6 20 6 C20.33 8.31 20.66 10.62 21 13 C19.68 13.99 18.36 14.98 17 16 C16.34 15.67 15.68 15.34 15 15 C15 12.69 15 10.38 15 8 C12.03 8 9.06 8 6 8 C6 7.01 6 6.02 6 5 C5.67 4.34 5.34 3.68 5 3 C3.02 3.33 1.04 3.66 -1 4 C-0.67 2.68 -0.34 1.36 0 0 Z " fill="#03335A" transform="translate(34,53)"/>
<path d="M0 0 C0.72896484 -0.01224609 1.45792969 -0.02449219 2.20898438 -0.03710938 C6.0338391 -0.04762685 7.80606564 0.01654376 11.0625 2.1875 C11.0625 3.5075 11.0625 4.8275 11.0625 6.1875 C7.75255287 7.84247356 4.07127 7.28834335 0.4375 7.25 C-0.36429688 7.24548828 -1.16609375 7.24097656 -1.9921875 7.23632812 C-3.97399006 7.22453168 -5.95575433 7.20659605 -7.9375 7.1875 C-5.9375 5.1875 -5.9375 5.1875 -2.6796875 4.9921875 C-1.40351562 5.01539062 -0.12734375 5.03859375 1.1875 5.0625 C3.10949219 5.08957031 3.10949219 5.08957031 5.0703125 5.1171875 C6.55144531 5.15199219 6.55144531 5.15199219 8.0625 5.1875 C8.0625 4.5275 8.0625 3.8675 8.0625 3.1875 C3.1125 3.1875 -1.8375 3.1875 -6.9375 3.1875 C-6.9375 3.8475 -6.9375 4.5075 -6.9375 5.1875 C-7.9275 5.1875 -8.9175 5.1875 -9.9375 5.1875 C-9.9375 3.8675 -9.9375 2.5475 -9.9375 1.1875 C-6.79347519 -0.3845124 -3.44802603 0.00303256 0 0 Z " fill="#D6821B" transform="translate(41.9375,105.8125)"/>
<path d="M0 0 C6.27 0 12.54 0 19 0 C19.33 0.66 19.66 1.32 20 2 C11.585 2.495 11.585 2.495 3 3 C8.61 3.33 14.22 3.66 20 4 C20 4.99 20 5.98 20 7 C17.04160645 7.02689449 14.08345573 7.04678741 11.125 7.0625 C9.86236328 7.07506836 9.86236328 7.07506836 8.57421875 7.08789062 C7.76855469 7.09111328 6.96289062 7.09433594 6.1328125 7.09765625 C5.01737061 7.10551147 5.01737061 7.10551147 3.87939453 7.11352539 C2 7 2 7 0 6 C0 4.02 0 2.04 0 0 Z " fill="#E98D10" transform="translate(32,98)"/>
<path d="M0 0 C2.31 0 4.62 0 7 0 C6.34 0.66 5.68 1.32 5 2 C4.35232207 4.57061311 4.35232207 4.57061311 4 7 C2.865625 7.12375 1.73125 7.2475 0.5625 7.375 C-1.2009375 7.684375 -1.2009375 7.684375 -3 8 C-3.33 8.66 -3.66 9.32 -4 10 C-3.01 10 -2.02 10 -1 10 C-1.33 12.31 -1.66 14.62 -2 17 C-3.32 16.34 -4.64 15.68 -6 15 C-5.34 15 -4.68 15 -4 15 C-4.33 13.68 -4.66 12.36 -5 11 C-7.31 10.67 -9.62 10.34 -12 10 C-12 8.35 -12 6.7 -12 5 C-7.71 5 -3.42 5 1 5 C0.67 3.35 0.34 1.7 0 0 Z " fill="#14375C" transform="translate(119,87)"/>
<path d="M0 0 C11.65875128 -0.62272262 11.65875128 -0.62272262 16.5 1.625 C24.86247653 9.56935271 24.86247653 9.56935271 25.16796875 14.96875 C25.17441406 16.1340625 25.18085937 17.299375 25.1875 18.5 C25.20167969 19.6653125 25.21585938 20.830625 25.23046875 22.03125 C25 25 25 25 23 27 C22.97421875 26.2265625 22.9484375 25.453125 22.921875 24.65625 C22.42690726 15.16926893 22.42690726 15.16926893 18 7 C13.38372659 3.41768828 8.51631423 2.52902945 2.78515625 2.2734375 C2.19605469 2.18320312 1.60695312 2.09296875 1 2 C0.67 1.34 0.34 0.68 0 0 Z " fill="#E98B0F" transform="translate(39,49)"/>
<path d="M0 0 C4.95 0 9.9 0 15 0 C13.11656068 3.76687864 12.30867531 4.79421646 9 7 C9.66 7.33 10.32 7.66 11 8 C11 7.34 11 6.68 11 6 C11.66 6 12.32 6 13 6 C13 6.66 13 7.32 13 8 C13.66 8.33 14.32 8.66 15 9 C14.34 9 13.68 9 13 9 C13 9.99 13 10.98 13 12 C12.34 12 11.68 12 11 12 C11 11.01 11 10.02 11 9 C10.01 9 9.02 9 8 9 C8 9.66 8 10.32 8 11 C8.66 11 9.32 11 10 11 C10 11.66 10 12.32 10 13 C8.02 13.66 6.04 14.32 4 15 C4 13.68 4 12.36 4 11 C4.66 11 5.32 11 6 11 C5.58600376 5.06605392 4.70172404 4.70172404 0 0 Z " fill="#1A4266" transform="translate(104,113)"/>
<path d="M0 0 C1.4434948 2.30645365 2.09746152 3.45519011 1.609375 6.18359375 C1.32578125 6.92738281 1.0421875 7.67117187 0.75 8.4375 C0.4509375 9.22640625 0.151875 10.0153125 -0.15625 10.828125 C-0.4346875 11.54484375 -0.713125 12.2615625 -1 13 C-1.2475 13.886875 -1.495 14.77375 -1.75 15.6875 C-3.70642109 19.30687903 -6.54441702 21.79762201 -10 24 C-12.9375 24.375 -12.9375 24.375 -15 24 C-15 23.34 -15 22.68 -15 22 C-15.66 22 -16.32 22 -17 22 C-18.60725635 18.78548731 -18.05748185 15.56387464 -18 12 C-17.67 12 -17.34 12 -17 12 C-16.67 14.97 -16.34 17.94 -16 21 C-11.77398137 20.56877361 -9.84294668 19.99299119 -7.046875 16.69921875 C-3.47599517 11.27538237 -1.08730158 6.40299822 0 0 Z " fill="#DF8716" transform="translate(61,72)"/>
<path d="M0 0 C0.33 0 0.66 0 1 0 C1 2.64 1 5.28 1 8 C1.66 8 2.32 8 3 8 C2.67 9.65 2.34 11.3 2 13 C4.12364481 13.22609337 4.12364481 13.22609337 5.625 11.5 C6.07875 11.005 6.5325 10.51 7 10 C7 11.32 7 12.64 7 14 C6.34 14 5.68 14 5 14 C5 14.66 5 15.32 5 16 C4.01 16 3.02 16 2 16 C2 16.66 2 17.32 2 18 C1.34 18 0.68 18 0 18 C0 19.32 0 20.64 0 22 C-1.32 22.33 -2.64 22.66 -4 23 C-4 23.66 -4 24.32 -4 25 C-4.66 25 -5.32 25 -6 25 C-5.54166667 23.625 -5.08333333 22.25 -4.625 20.875 C-4.35171875 20.04613281 -4.0784375 19.21726562 -3.796875 18.36328125 C-3.1963541 16.58232466 -2.54718961 14.81766177 -1.875 13.0625 C-0.6461235 8.76143224 -0.33412612 4.44915308 0 0 Z " fill="#253D52" transform="translate(64,64)"/>
<path d="M0 0 C0.66 0 1.32 0 2 0 C2 1.32 2 2.64 2 4 C7.28 4.33 12.56 4.66 18 5 C18 5.33 18 5.66 18 6 C10.08 6.495 10.08 6.495 2 7 C2 8.32 2 9.64 2 11 C2.99 11 3.98 11 5 11 C5 10.34 5 9.68 5 9 C9.95 9 14.9 9 20 9 C20 9.66 20 10.32 20 11 C19.03578125 11.06058594 18.0715625 11.12117188 17.078125 11.18359375 C15.81484375 11.26738281 14.5515625 11.35117188 13.25 11.4375 C11.99703125 11.51871094 10.7440625 11.59992188 9.453125 11.68359375 C6.16084995 11.89285146 6.16084995 11.89285146 3.671875 12.59765625 C2 13 2 13 0 12 C0 8.04 0 4.08 0 0 Z " fill="#625044" transform="translate(30,100)"/>
<path d="M0 0 C0.79953138 3.28696233 1.09658936 4.71023192 0 8 C-2.25 8.6875 -2.25 8.6875 -5 9 C-7.3125 7.5625 -7.3125 7.5625 -9 6 C-8.625 3.0625 -8.625 3.0625 -8 0 C-5.13822943 -1.43088528 -3.06624227 -0.59991697 0 0 Z " fill="#BC7A25" transform="translate(48,62)"/>
<path d="M0 0 C3 1 3 1 4.67578125 3.16796875 C6.22065943 6.47191176 6.30703329 8.68665678 6.1875 12.3125 C6.16042969 13.38113281 6.13335937 14.44976562 6.10546875 15.55078125 C6.07066406 16.35902344 6.03585938 17.16726562 6 18 C3 18 3 18 1.25 16.5625 C-0.4127699 13.1538217 0.17491608 10.86627262 0.73828125 7.1953125 C1.04614481 4.61293454 0.72304418 2.49048551 0 0 Z " fill="#073560" transform="translate(94,86)"/>
<path d="M0 0 C2.31 0.33 4.62 0.66 7 1 C7 1.66 7 2.32 7 3 C6.01 3.33 5.02 3.66 4 4 C4 5.98 4 7.96 4 10 C2.68 10.33 1.36 10.66 0 11 C0.33 9.68 0.66 8.36 1 7 C1.66 7 2.32 7 3 7 C3 6.34 3 5.68 3 5 C2.01 5 1.02 5 0 5 C-0.33 5.99 -0.66 6.98 -1 8 C-2.32 8 -3.64 8 -5 8 C-5.33 6.68 -5.66 5.36 -6 4 C-4.7934375 3.566875 -4.7934375 3.566875 -3.5625 3.125 C-0.8673532 2.26737432 -0.8673532 2.26737432 0 0 Z " fill="#0C335D" transform="translate(75,117)"/>
<path d="M0 0 C1.32 0 2.64 0 4 0 C3.7323244 3.30133235 3.4396165 4.62503298 0.875 6.8125 C-2.58445601 8.24140574 -5.29159398 8.21814153 -9 8 C-9 7.34 -9 6.68 -9 6 C-7.35 5.34 -5.7 4.68 -4 4 C-5.98 3.34 -7.96 2.68 -10 2 C-7.06156148 0.53078074 -4.24602179 1 -1 1 C-0.67 0.67 -0.34 0.34 0 0 Z " fill="#D4D7E0" transform="translate(168,106)"/>
<path d="M0 0 C0.33 0 0.66 0 1 0 C1 1.65 1 3.3 1 5 C3.31 5 5.62 5 8 5 C8.33 6.65 8.66 8.3 9 10 C6.29120665 11.35439668 3.99066732 11.06501451 1 11 C1 12.65 1 14.3 1 16 C0.67 16 0.34 16 0 16 C0 10.72 0 5.44 0 0 Z " fill="#AFB9C9" transform="translate(106,92)"/>
<path d="M0 0 C0.99386719 0.00902344 1.98773438 0.01804688 3.01171875 0.02734375 C4.15060547 0.04474609 4.15060547 0.04474609 5.3125 0.0625 C5.3125 0.3925 5.3125 0.7225 5.3125 1.0625 C4.68601562 1.11148438 4.05953125 1.16046875 3.4140625 1.2109375 C2.18816406 1.32308594 2.18816406 1.32308594 0.9375 1.4375 C0.12539063 1.50710937 -0.68671875 1.57671875 -1.5234375 1.6484375 C-3.89084191 1.89142588 -3.89084191 1.89142588 -5.6875 4.0625 C-6.63625 4.51625 -7.585 4.97 -8.5625 5.4375 C-11.71677666 6.87847528 -11.71677666 6.87847528 -13.8125 9.1875 C-15.81248812 11.18748812 -16.93365407 11.66909344 -19.6875 12.0625 C-18.36978785 7.87431221 -16.96023352 6.12758824 -13.25 3.8125 C-12.46753906 3.31234375 -11.68507813 2.8121875 -10.87890625 2.296875 C-7.12669794 0.18333164 -4.23108098 -0.04977742 0 0 Z " fill="#DF8616" transform="translate(43.6875,47.9375)"/>
<path d="M0 0 C0.66 0.66 1.32 1.32 2 2 C3.9931567 2.02375926 3.9931567 2.02375926 6.125 1.625 C7.40375 1.41875 8.6825 1.2125 10 1 C10.33 1.66 10.66 2.32 11 3 C10.01 4.485 10.01 4.485 9 6 C9 5.01 9 4.02 9 3 C8.67 4.32 8.34 5.64 8 7 C3.80838094 7 0.11142314 6.86556277 -4 6 C-4 5.01 -4 4.02 -4 3 C-2.68 2.67 -1.36 2.34 0 2 C0 1.34 0 0.68 0 0 Z " fill="#697E99" transform="translate(37,119)"/>
<path d="M0 0 C1.125 3.75 1.125 3.75 0 6 C0.66 6.33 1.32 6.66 2 7 C2.33 7.66 2.66 8.32 3 9 C-1.62 9 -6.24 9 -11 9 C-11 7.35 -11 5.7 -11 4 C-3.25 3.875 -3.25 3.875 -1 5 C-0.67 3.35 -0.34 1.7 0 0 Z " fill="#03234E" transform="translate(118,99)"/>
<path d="M0 0 C0.33 0 0.66 0 1 0 C1.04898438 0.77085938 1.09796875 1.54171875 1.1484375 2.3359375 C1.22320312 3.33882813 1.29796875 4.34171875 1.375 5.375 C1.44460937 6.37273437 1.51421875 7.37046875 1.5859375 8.3984375 C1.76363964 11.15508879 1.76363964 11.15508879 4 13 C4.1953125 15.1640625 4.1953125 15.1640625 4.125 17.625 C4.10695313 18.44226563 4.08890625 19.25953125 4.0703125 20.1015625 C4.03550781 21.04128906 4.03550781 21.04128906 4 22 C2.02 22.99 2.02 22.99 0 24 C0 16.08 0 8.16 0 0 Z " fill="#E5E7E7" transform="translate(102,88)"/>
<path d="M0 0 C2.97 0 5.94 0 9 0 C9.38218767 1.65614657 9.71395102 3.32457024 10 5 C9 6 9 6 6.93359375 6.09765625 C6.10988281 6.08605469 5.28617187 6.07445313 4.4375 6.0625 C3.61121094 6.05347656 2.78492187 6.04445313 1.93359375 6.03515625 C1.29550781 6.02355469 0.65742187 6.01195313 0 6 C0 4.02 0 2.04 0 0 Z " fill="#0C244C" transform="translate(82,102)"/>
<path d="M0 0 C1.32 0.33 2.64 0.66 4 1 C3.67 4.3 3.34 7.6 3 11 C3.66 11.33 4.32 11.66 5 12 C5.33 11.34 5.66 10.68 6 10 C6.99 10.33 7.98 10.66 9 11 C8.67 11.99 8.34 12.98 8 14 C5.36 14 2.72 14 0 14 C0 9.38 0 4.76 0 0 Z " fill="#092B56" transform="translate(130,94)"/>
<path d="M0 0 C1.14982602 4.09003859 1.11094256 8.03177051 1.0625 12.25 C1.05798828 12.99507812 1.05347656 13.74015625 1.04882812 14.5078125 C1.03709246 16.3385764 1.0191585 18.16929873 1 20 C0.01 20 -0.98 20 -2 20 C-2.05379226 17.04142591 -2.09357093 14.08382279 -2.125 11.125 C-2.14175781 10.28324219 -2.15851563 9.44148438 -2.17578125 8.57421875 C-2.18222656 7.76855469 -2.18867187 6.96289062 -2.1953125 6.1328125 C-2.21102295 5.01737061 -2.21102295 5.01737061 -2.22705078 3.87939453 C-2 2 -2 2 0 0 Z " fill="#F0ECED" transform="translate(69,92)"/>
<path d="M0 0 C0.99 0 1.98 0 3 0 C3.66 0.66 4.32 1.32 5 2 C8.58343976 2.16677282 8.58343976 2.16677282 12 2 C12.33 2.99 12.66 3.98 13 5 C12.67 5.66 12.34 6.32 12 7 C10.948125 6.814375 9.89625 6.62875 8.8125 6.4375 C5.42880118 6.04920669 3.23574112 6.11752515 0 7 C0 4.69 0 2.38 0 0 Z " fill="#798BA7" transform="translate(151,119)"/>
<path d="M0 0 C0.99 0 1.98 0 3 0 C3.33 1.98 3.66 3.96 4 6 C4.763125 5.814375 5.52625 5.62875 6.3125 5.4375 C9 5 9 5 12 6 C11.67 6.99 11.34 7.98 11 9 C7.04 9 3.08 9 -1 9 C-0.67 6.03 -0.34 3.06 0 0 Z " fill="#EEEEF0" transform="translate(78,104)"/>
<path d="M0 0 C2.64 0 5.28 0 8 0 C7.67 0.66 7.34 1.32 7 2 C6.01 2 5.02 2 4 2 C4 2.66 4 3.32 4 4 C3.01 4.33 2.02 4.66 1 5 C0.67 7.31 0.34 9.62 0 12 C-2.31 12.33 -4.62 12.66 -7 13 C-6.67 11.68 -6.34 10.36 -6 9 C-5.34 9 -4.68 9 -4 9 C-3.34 7.35 -2.68 5.7 -2 4 C-1.34 4 -0.68 4 0 4 C0 2.68 0 1.36 0 0 Z " fill="#043158" transform="translate(64,82)"/>
<path d="M0 0 C-0.66 0.66 -1.32 1.32 -2 2 C-2.99 2 -3.98 2 -5 2 C-4.34 2.33 -3.68 2.66 -3 3 C-3 4.32 -3 5.64 -3 7 C-0.36 6.67 2.28 6.34 5 6 C5.33 6.66 5.66 7.32 6 8 C5.071875 8.144375 4.14375 8.28875 3.1875 8.4375 C-0.00725111 8.92100111 -0.00725111 8.92100111 -3 10 C-3.99 9.34 -4.98 8.68 -6 8 C-6 7.34 -6 6.68 -6 6 C-6.66 6 -7.32 6 -8 6 C-8 6.66 -8 7.32 -8 8 C-8.99 7.67 -9.98 7.34 -11 7 C-9.625 5.5 -9.625 5.5 -8 4 C-7.34 4 -6.68 4 -6 4 C-6 3.34 -6 2.68 -6 2 C-6.99 1.67 -7.98 1.34 -9 1 C-2.25 -1.125 -2.25 -1.125 0 0 Z " fill="#06264D" transform="translate(123,113)"/>
<path d="M0 0 C0.33 0.99 0.66 1.98 1 3 C1.66 3 2.32 3 3 3 C2.61502006 5.23288365 2.10506663 6.83656302 0.875 8.75 C-1.99745901 10.66497267 -4.64483583 10.18991495 -8 10 C-7.67 9.01 -7.34 8.02 -7 7 C-6.01 7 -5.02 7 -4 7 C-3.34 5.35 -2.68 3.7 -2 2 C-1.34 2 -0.68 2 0 2 C0 1.34 0 0.68 0 0 Z " fill="#DFE2E9" transform="translate(142,102)"/>
<path d="M0 0 C5.28 0 10.56 0 16 0 C16.33 1.65 16.66 3.3 17 5 C14.03 5 11.06 5 8 5 C7.67 4.01 7.34 3.02 7 2 C4.69 1.67 2.38 1.34 0 1 C0 0.67 0 0.34 0 0 Z " fill="#D5D9DF" transform="translate(103,87)"/>
<path d="M0 0 C4.72044127 2.67916937 4.72044127 2.67916937 6.40234375 4.609375 C7.90380085 6.1843913 7.90380085 6.1843913 10.015625 6.21484375 C15.58241012 5.52386168 19.31063633 4.09298455 24 1 C22.74874616 4.75376152 21.4347596 5.24073289 18 7 C17.34 7 16.68 7 16 7 C16 7.66 16 8.32 16 9 C14.35 8.67 12.7 8.34 11 8 C11 8.66 11 9.32 11 10 C8 10 8 10 5.5 7.6875 C4.675 6.800625 3.85 5.91375 3 5 C2.401875 4.443125 1.80375 3.88625 1.1875 3.3125 C0 2 0 2 0 0 Z " fill="#343952" transform="translate(32,68)"/>
<path d="M0 0 C3.3 0 6.6 0 10 0 C10 1.98 10 3.96 10 6 C8.35 6.33 6.7 6.66 5 7 C5 6.34 5 5.68 5 5 C4.34 5 3.68 5 3 5 C3 3.68 3 2.36 3 1 C2.34 1 1.68 1 1 1 C0.67 1.99 0.34 2.98 0 4 C0 2.68 0 1.36 0 0 Z " fill="#607493" transform="translate(138,121)"/>
<path d="M0 0 C0.33 0 0.66 0 1 0 C1.33 8.25 1.66 16.5 2 25 C-1 26 -1 26 -4 25 C-4.6875 22.9375 -4.6875 22.9375 -5 21 C-4.01 20.67 -3.02 20.34 -2 20 C-0.88176185 17.76352369 -0.80603939 16.35108471 -0.68359375 13.8671875 C-0.64169922 13.06152344 -0.59980469 12.25585938 -0.55664062 11.42578125 C-0.51732422 10.58402344 -0.47800781 9.74226563 -0.4375 8.875 C-0.37272461 7.60076172 -0.37272461 7.60076172 -0.30664062 6.30078125 C-0.20045764 4.20071777 -0.09971503 2.10038052 0 0 Z " fill="#455D7E" transform="translate(101,88)"/>
<path d="M0 0 C1.58246707 -0.08153933 3.16616273 -0.13943557 4.75 -0.1875 C6.07257813 -0.23970703 6.07257813 -0.23970703 7.421875 -0.29296875 C10.44671583 0.05076316 11.75583602 1.00227459 14 3 C13.67 4.65 13.34 6.3 13 8 C10.03 7.01 7.06 6.02 4 5 C4.33 4.01 4.66 3.02 5 2 C3.35 1.67 1.7 1.34 0 1 C0 0.67 0 0.34 0 0 Z " fill="#CFD5DD" transform="translate(158,87)"/>
<path d="M0 0 C1.11084961 0.0918457 1.11084961 0.0918457 2.24414062 0.18554688 C4.05991672 0.33783777 5.87395401 0.51062066 7.6875 0.6875 C7.6875 1.3475 7.6875 2.0075 7.6875 2.6875 C1.0875 3.0175 -5.5125 3.3475 -12.3125 3.6875 C-12.6425 4.3475 -12.9725 5.0075 -13.3125 5.6875 C-13.3125 4.6975 -13.3125 3.7075 -13.3125 2.6875 C-9.15238306 -0.89824182 -5.16704142 -0.52178345 0 0 Z " fill="#173C62" transform="translate(131.3125,112.3125)"/>
<path d="M0 0 C0.33 0 0.66 0 1 0 C1.33 2.64 1.66 5.28 2 8 C2.33 6.02 2.66 4.04 3 2 C3.33 2 3.66 2 4 2 C4.28875 2.928125 4.5775 3.85625 4.875 4.8125 C5.8875 8.09791667 5.8875 8.09791667 8 11 C7.01 11.495 7.01 11.495 6 12 C6 11.34 6 10.68 6 10 C5.01 10 4.02 10 3 10 C2.67 11.65 2.34 13.3 2 15 C2.66 15.33 3.32 15.66 4 16 C3.34 16.66 2.68 17.32 2 18 C-0.61281488 12.12116651 -0.18328202 6.29268272 0 0 Z " fill="#413F4C" transform="translate(25,64)"/>
<path d="M0 0 C2.33294775 -0.04241723 4.66702567 -0.04092937 7 0 C8.58867866 1.58867866 8.20794039 3.24689516 8.25 5.4375 C8.28867187 6.64212891 8.28867187 6.64212891 8.328125 7.87109375 C8.21984375 8.57363281 8.1115625 9.27617188 8 10 C4.48175489 12.34549674 3.14224306 12.57991403 -1 12 C-3.875 9.5 -3.875 9.5 -6 7 C-5.34 7 -4.68 7 -4 7 C-3.67 6.34 -3.34 5.68 -3 5 C-2.7215625 5.9590625 -2.7215625 5.9590625 -2.4375 6.9375 C-1.05753944 9.42126213 -1.05753944 9.42126213 2.625 9.75 C3.73875 9.8325 4.8525 9.915 6 10 C6 7.36 6 4.72 6 2 C3.03 1.505 3.03 1.505 0 1 C0 0.67 0 0.34 0 0 Z " fill="#34374E" transform="translate(42,60)"/>
<path d="M0 0 C0.99 0 1.98 0 3 0 C3 0.66 3 1.32 3 2 C3.99 2 4.98 2 6 2 C5.67 3.65 5.34 5.3 5 7 C-0.75 7.125 -0.75 7.125 -3 6 C-3 4.68 -3 3.36 -3 2 C-2.01 2 -1.02 2 0 2 C0 1.34 0 0.68 0 0 Z " fill="#7084A0" transform="translate(52,119)"/>
<path d="M0 0 C0.33 0 0.66 0 1 0 C1.33 6.93 1.66 13.86 2 21 C3.32 21.33 4.64 21.66 6 22 C5.95875 22.94875 5.9175 23.8975 5.875 24.875 C5.65026182 28.10244856 5.65026182 28.10244856 8 30 C6.68 30 5.36 30 4 30 C4 28.68 4 27.36 4 26 C3.34 26 2.68 26 2 26 C0.11585358 22.80542649 -0.23819737 20.48497371 -0.1953125 16.796875 C-0.18886719 15.8171875 -0.18242188 14.8375 -0.17578125 13.828125 C-0.15902344 12.81234375 -0.14226562 11.7965625 -0.125 10.75 C-0.11597656 9.71875 -0.10695313 8.6875 -0.09765625 7.625 C-0.07412011 5.08309713 -0.04124023 2.5416672 0 0 Z " fill="#021A47" transform="translate(65,91)"/>
<path d="M0 0 C1.00333983 2.00667967 1.45815006 3.83260024 2 6 C2.33 6.66 2.66 7.32 3 8 C2.01 8.66 1.02 9.32 0 10 C-1.2188121 13.55672179 -1.2188121 13.55672179 -2 17 C-2.33 17 -2.66 17 -3 17 C-3.08126087 14.91731407 -3.13930839 12.83371342 -3.1875 10.75 C-3.22230469 9.58984375 -3.25710937 8.4296875 -3.29296875 7.234375 C-2.97982934 3.77731593 -2.34290892 2.48434437 0 0 Z " fill="#193656" transform="translate(29,56)"/>
<path d="M0 0 C0.66 0 1.32 0 2 0 C2.66 0.99 3.32 1.98 4 3 C7.56769552 3.73606499 7.56769552 3.73606499 11 4 C11 4.66 11 5.32 11 6 C10.01 6.33 9.02 6.66 8 7 C8 6.34 8 5.68 8 5 C6.68 5 5.36 5 4 5 C3.67 5.99 3.34 6.98 3 8 C1.68 7.67 0.36 7.34 -1 7 C-0.67 4.69 -0.34 2.38 0 0 Z " fill="#022F58" transform="translate(71,112)"/>
<path d="M0 0 C4.67461851 -0.32613618 7.16674383 0.29417212 11 3 C10.34 5.97 9.68 8.94 9 12 C8.67 12 8.34 12 8 12 C8 10.35 8 8.7 8 7 C7.34 6.67 6.68 6.34 6 6 C6.33 5.34 6.66 4.68 7 4 C6.34 4 5.68 4 5 4 C5 3.34 5 2.68 5 2 C3.35 2 1.7 2 0 2 C0 1.34 0 0.68 0 0 Z " fill="#143B61" transform="translate(130,92)"/>
<path d="M0 0 C2.64 0 5.28 0 8 0 C8.5625 1.9375 8.5625 1.9375 9 4 C8 5 8 5 6.15234375 5.09765625 C4.1015625 5.06510417 2.05078125 5.03255208 0 5 C0 3.35 0 1.7 0 0 Z " fill="#102F53" transform="translate(82,92)"/>
<path d="M0 0 C1.32 0 2.64 0 4 0 C4 0.99 4 1.98 4 3 C4.99 2.67 5.98 2.34 7 2 C7.99 1.67 8.98 1.34 10 1 C10.33 2.32 10.66 3.64 11 5 C9.02 5.99 9.02 5.99 7 7 C7 6.34 7 5.68 7 5 C4.69 5 2.38 5 0 5 C0 3.35 0 1.7 0 0 Z " fill="#21466F" transform="translate(164,121)"/>
<path d="M0 0 C1.74965358 -0.05429959 3.49979787 -0.09292823 5.25 -0.125 C6.22453125 -0.14820312 7.1990625 -0.17140625 8.203125 -0.1953125 C11.0196498 0.00137219 12.60949036 0.55431084 15 2 C14.01 2.33 13.02 2.66 12 3 C11.67 3.99 11.34 4.98 11 6 C10.34 5.01 9.68 4.02 9 3 C6.36 3.33 3.72 3.66 1 4 C0.67 2.68 0.34 1.36 0 0 Z " fill="#133154" transform="translate(37,118)"/>
<path d="M0 0 C0.66 0.33 1.32 0.66 2 1 C2.33 0.67 2.66 0.34 3 0 C3.33 0.99 3.66 1.98 4 3 C1.28220859 7.28258041 1.28220859 7.28258041 -1 9 C-4.3125 8.875 -4.3125 8.875 -7 8 C-7 7.67 -7 7.34 -7 7 C-8.65 6.67 -10.3 6.34 -12 6 C-12 5.67 -12 5.34 -12 5 C-8.37 5 -4.74 5 -1 5 C-0.67 3.35 -0.34 1.7 0 0 Z " fill="#EFF2EE" transform="translate(92,93)"/>
<path d="M0 0 C0 1.65 0 3.3 0 5 C-3 6 -3 6 -6 6 C-6 5.01 -6 4.02 -6 3 C-6.66 3 -7.32 3 -8 3 C-8 2.01 -8 1.02 -8 0 C-5.13822943 -1.43088528 -3.06624227 -0.59991697 0 0 Z " fill="#536588" transform="translate(137,122)"/>
<path d="M0 0 C0.66 1.32 1.32 2.64 2 4 C1.01 4.99 0.02 5.98 -1 7 C0.32 7.33 1.64 7.66 3 8 C1.125 9.0625 1.125 9.0625 -1 10 C-1.66 9.67 -2.32 9.34 -3 9 C-3.33 9.66 -3.66 10.32 -4 11 C-4 10.34 -4 9.68 -4 9 C-4.66 8.67 -5.32 8.34 -6 8 C-6 7.01 -6 6.02 -6 5 C-4.36368108 3.95107762 -2.69514137 2.95093297 -1 2 C-0.67 1.34 -0.34 0.68 0 0 Z " fill="#163E63" transform="translate(172,108)"/>
<path d="M0 0 C0.66 0.33 1.32 0.66 2 1 C2.1953125 7.0546875 2.1953125 7.0546875 2 9 C1.34 9.66 0.68 10.32 0 11 C-1.32 10.34 -2.64 9.68 -4 9 C-4 6.36 -4 3.72 -4 1 C-3.01 2.32 -2.02 3.64 -1 5 C-0.67 3.35 -0.34 1.7 0 0 Z " fill="#D7DCE4" transform="translate(145,95)"/>
<path d="M0 0 C0.66 0 1.32 0 2 0 C2.02698189 1.62490954 2.04638757 3.24994633 2.0625 4.875 C2.07410156 5.77992187 2.08570313 6.68484375 2.09765625 7.6171875 C2 10 2 10 1 12 C-2.67420866 11.69381595 -3.78135513 11.24228216 -6.3125 8.4375 C-6.869375 7.633125 -7.42625 6.82875 -8 6 C-7.34 5.67 -6.68 5.34 -6 5 C-5.34 5.33 -4.68 5.66 -4 6 C-4 6.99 -4 7.98 -4 9 C-3.34 9 -2.68 9 -2 9 C-2 9.66 -2 10.32 -2 11 C-1.34 11 -0.68 11 0 11 C0 7.37 0 3.74 0 0 Z " fill="#1D3456" transform="translate(37,80)"/>
<path d="M0 0 C3.5625 0.125 3.5625 0.125 5.5625 1.125 C5.5625 2.445 5.5625 3.765 5.5625 5.125 C2.5925 5.125 -0.3775 5.125 -3.4375 5.125 C-3.7675 3.805 -4.0975 2.485 -4.4375 1.125 C-3.4375 0.125 -3.4375 0.125 0 0 Z " fill="#6D7E9F" transform="translate(92.4375,120.875)"/>
<path d="M0 0 C3.67230705 3.07999946 4.56802365 5.2482602 5 10 C4.401875 9.835 3.80375 9.67 3.1875 9.5 C0.88655664 8.8885876 0.88655664 8.8885876 -2 9 C-2 6.36 -2 3.72 -2 1 C-1.34 0.67 -0.68 0.34 0 0 Z " fill="#CED5DB" transform="translate(93,98)"/>
<path d="M0 0 C0.99 0 1.98 0 3 0 C2.67 4.95 2.34 9.9 2 15 C1.67 13.68 1.34 12.36 1 11 C0.01 11 -0.98 11 -2 11 C-1.125 3.375 -1.125 3.375 0 0 Z " fill="#39424C" transform="translate(21,61)"/>
<path d="M0 0 C0.33 0 0.66 0 1 0 C1 5.61 1 11.22 1 17 C1.99 17.33 2.98 17.66 4 18 C3.67 18.66 3.34 19.32 3 20 C1.33388095 20.042721 -0.33382885 20.04063832 -2 20 C-3 19 -3 19 -3.0625 16.4375 C-3.041875 15.633125 -3.02125 14.82875 -3 14 C-2.01 14.495 -2.01 14.495 -1 15 C-0.67 10.05 -0.34 5.1 0 0 Z " fill="#D4D6DD" transform="translate(129,92)"/>
<path d="M0 0 C0.99773437 0.02320312 1.99546875 0.04640625 3.0234375 0.0703125 C4.52777344 0.09738281 4.52777344 0.09738281 6.0625 0.125 C6.83335937 0.14820312 7.60421875 0.17140625 8.3984375 0.1953125 C8.3984375 1.1853125 8.3984375 2.1753125 8.3984375 3.1953125 C7.44130859 3.28619141 7.44130859 3.28619141 6.46484375 3.37890625 C5.22541016 3.50458984 5.22541016 3.50458984 3.9609375 3.6328125 C3.13722656 3.71402344 2.31351563 3.79523438 1.46484375 3.87890625 C-0.58818275 3.98462065 -0.58818275 3.98462065 -1.6015625 5.1953125 C-2.2615625 5.1953125 -2.9215625 5.1953125 -3.6015625 5.1953125 C-3.9315625 4.2053125 -4.2615625 3.2153125 -4.6015625 2.1953125 C-2.6015625 0.1953125 -2.6015625 0.1953125 0 0 Z " fill="#EDEDEF" transform="translate(158.6015625,87.8046875)"/>
<path d="M0 0 C2.64 0 5.28 0 8 0 C8.33 1.98 8.66 3.96 9 6 C6.69 5.67 4.38 5.34 2 5 C1.34 3.35 0.68 1.7 0 0 Z " fill="#6D7F9E" transform="translate(98,121)"/>
<path d="M0 0 C0.639375 0.28875 1.27875 0.5775 1.9375 0.875 C5.88410292 2.3247725 9.8874607 3.15778062 14 4 C14 5.32 14 6.64 14 8 C12.35 8 10.7 8 9 8 C9 7.01 9 6.02 9 5 C4.38492226 3.95785309 4.38492226 3.95785309 0 5 C-0.33 4.01 -0.66 3.02 -1 2 C-0.67 1.34 -0.34 0.68 0 0 Z " fill="#04294F" transform="translate(154,111)"/>
<path d="M0 0 C0.66 0.33 1.32 0.66 2 1 C1.84660156 1.51046875 1.69320313 2.0209375 1.53515625 2.546875 C0.83094597 5.7749338 0.65111796 8.95418001 0.4375 12.25 C0.35371094 13.51328125 0.26992188 14.7765625 0.18359375 16.078125 C0.12300781 17.04234375 0.06242187 18.0065625 0 19 C-2 17 -2 17 -2.265625 14.1015625 C-2.26046875 12.95429687 -2.2553125 11.80703125 -2.25 10.625 C-2.25515625 9.48289062 -2.2603125 8.34078125 -2.265625 7.1640625 C-2.01510533 4.17993117 -1.55829924 2.51059322 0 0 Z " fill="#EB8F10" transform="translate(25,59)"/>
<path d="M0 0 C-0.99 0.495 -0.99 0.495 -2 1 C-2.65213292 3.02463255 -2.65213292 3.02463255 -3 5 C-4.65 5 -6.3 5 -8 5 C-8.33 5.66 -8.66 6.32 -9 7 C-9.33 5.02 -9.66 3.04 -10 1 C-6.78548731 -0.60725635 -3.56387464 -0.05748185 0 0 Z " fill="#7286A7" transform="translate(129,121)"/>
<path d="M0 0 C-0.33 0.66 -0.66 1.32 -1 2 C-0.34 2 0.32 2 1 2 C1 2.66 1 3.32 1 4 C0.21882813 3.76990234 0.21882813 3.76990234 -0.578125 3.53515625 C-3.63278515 2.86017489 -6.63015971 2.65588882 -9.75 2.4375 C-10.92046875 2.35371094 -12.0909375 2.26992187 -13.296875 2.18359375 C-14.18890625 2.12300781 -15.0809375 2.06242187 -16 2 C-13.34549733 -0.65450267 -11.69774614 -0.41639121 -8 -0.6875 C-6.9275 -0.77386719 -5.855 -0.86023438 -4.75 -0.94921875 C-2 -1 -2 -1 0 0 Z " fill="#062A53" transform="translate(94,85)"/>
<path d="M0 0 C-0.33 0.99 -0.66 1.98 -1 3 C-6.61 3 -12.22 3 -18 3 C-15.16183272 0.16183272 -12.95449046 0.59379353 -9 0.375 C-7.741875 0.30023438 -6.48375 0.22546875 -5.1875 0.1484375 C-3.45949826 0.06796683 -1.72987443 0 0 0 Z " fill="#EB8B10" transform="translate(52,110)"/>
<path d="M0 0 C3.96 0 7.92 0 12 0 C12 0.99 12 1.98 12 3 C6.06 3 0.12 3 -6 3 C-6 2.67 -6 2.34 -6 2 C-4.02 1.67 -2.04 1.34 0 1 C0 0.67 0 0.34 0 0 Z " fill="#CE7E1F" transform="translate(40,102)"/>
<path d="M0 0 C0.33 0.99 0.66 1.98 1 3 C1.66 3 2.32 3 3 3 C3 2.01 3 1.02 3 0 C4.98 0 6.96 0 9 0 C8.125 3.875 8.125 3.875 7 5 C5.00041636 5.04080783 2.99954746 5.04254356 1 5 C0.67 3.35 0.34 1.7 0 0 Z " fill="#7389A4" transform="translate(59,121)"/>
<path d="M0 0 C0.99 0.33 1.98 0.66 3 1 C3.75612577 6.23471686 4.2063366 10.77254141 3 16 C2.01 15.34 1.02 14.68 0 14 C0.08378906 13.40832031 0.16757813 12.81664063 0.25390625 12.20703125 C0.80889424 7.90060543 1.23226652 4.24447356 0 0 Z " fill="#17385E" transform="translate(94,86)"/>
<path d="M0 0 C0.99 0 1.98 0 3 0 C2.690625 1.11375 2.38125 2.2275 2.0625 3.375 C0.84199336 8.20509012 0.38600363 13.04290069 0 18 C-0.33 18 -0.66 18 -1 18 C-1.33 12.72 -1.66 7.44 -2 2 C-1.34 2 -0.68 2 0 2 C0 1.34 0 0.68 0 0 Z " fill="#0D2D5C" transform="translate(43,76)"/>
<path d="M0 0 C1.32 0 2.64 0 4 0 C3.67 1.32 3.34 2.64 3 4 C2.01 3.67 1.02 3.34 0 3 C0 3.66 0 4.32 0 5 C-0.99 5 -1.98 5 -3 5 C-3 4.34 -3 3.68 -3 3 C-4.98 3 -6.96 3 -9 3 C-9.33 2.34 -9.66 1.68 -10 1 C-9.36191406 1.01160156 -8.72382813 1.02320312 -8.06640625 1.03515625 C-7.24011719 1.04417969 -6.41382813 1.05320312 -5.5625 1.0625 C-4.32693359 1.07990234 -4.32693359 1.07990234 -3.06640625 1.09765625 C-1.00836062 1.23267348 -1.00836062 1.23267348 0 0 Z " fill="#BEC3CD" transform="translate(168,106)"/>
<path d="M0 0 C0.99 0 1.98 0 3 0 C2 3 2 3 -0.75 4.75 C-4.17896517 6.06883276 -5.57318882 6.10867421 -9 5 C-9 4.34 -9 3.68 -9 3 C-8.43410156 2.86722656 -7.86820313 2.73445313 -7.28515625 2.59765625 C-6.18494141 2.33275391 -6.18494141 2.33275391 -5.0625 2.0625 C-4.33160156 1.88847656 -3.60070313 1.71445313 -2.84765625 1.53515625 C-1.00030102 1.16112431 -1.00030102 1.16112431 0 0 Z " fill="#E98F12" transform="translate(50,69)"/>
<path d="M0 0 C2.64 0.33 5.28 0.66 8 1 C8 1.66 8 2.32 8 3 C9.32 3 10.64 3 12 3 C11.67 3.99 11.34 4.98 11 6 C11 5.34 11 4.68 11 4 C6.545 4.495 6.545 4.495 2 5 C2 3.68 2 2.36 2 1 C1.34 0.67 0.68 0.34 0 0 Z " fill="#0C2F53" transform="translate(152,117)"/>
<path d="M0 0 C2.31 0 4.62 0 7 0 C7 1.32 7 2.64 7 4 C4.69 4 2.38 4 0 4 C0 2.68 0 1.36 0 0 Z " fill="#E6E8EC" transform="translate(108,98)"/>
<path d="M0 0 C0.33 0.66 0.66 1.32 1 2 C7.435 1.505 7.435 1.505 14 1 C14 1.66 14 2.32 14 3 C12.67935547 3.09087891 12.67935547 3.09087891 11.33203125 3.18359375 C9.58986328 3.30927734 9.58986328 3.30927734 7.8125 3.4375 C6.08966797 3.55931641 6.08966797 3.55931641 4.33203125 3.68359375 C1.48401829 3.95403812 -1.21210482 4.37521747 -4 5 C-4 4.34 -4 3.68 -4 3 C-3.01 3 -2.02 3 -1 3 C-0.67 2.01 -0.34 1.02 0 0 Z " fill="#093364" transform="translate(103,83)"/>
<path d="M0 0 C0.33 0.99 0.66 1.98 1 3 C1.99 2.01 2.98 1.02 4 0 C4 2.31 4 4.62 4 7 C2.02 7.99 2.02 7.99 0 9 C0 6.03 0 3.06 0 0 Z " fill="#EDEEED" transform="translate(102,103)"/>
<path d="M0 0 C4.75 0.75 4.75 0.75 7 3 C6.625 6.125 6.625 6.125 6 9 C5.34 9 4.68 9 4 9 C3.71125 8.071875 3.4225 7.14375 3.125 6.1875 C2.1125 2.90208333 2.1125 2.90208333 0 0 Z " fill="#12365B" transform="translate(26,91)"/>
<path d="M0 0 C0.66 0 1.32 0 2 0 C3.91847864 2.87771795 5.50079488 5.88626628 7 9 C3.76939581 8.44299928 1.9341777 7.70784878 0 5 C-0.1875 2.3125 -0.1875 2.3125 0 0 Z " fill="#EA8D16" transform="translate(29,66)"/>
<path d="M0 0 C5.625 -0.25 5.625 -0.25 9 2 C9.1875 5.125 9.1875 5.125 9 8 C8.34 6.68 7.68 5.36 7 4 C4.03 4 1.06 4 -2 4 C-1.34 2.68 -0.68 1.36 0 0 Z " fill="#043469" transform="translate(42,57)"/>
<path d="M0 0 C2.64 0.33 5.28 0.66 8 1 C7.67 3.31 7.34 5.62 7 8 C4.35247996 5.42215154 2.05567935 3.08351902 0 0 Z " fill="#203A51" transform="translate(56,51)"/>
<path d="M0 0 C0 2.64 0 5.28 0 8 C-1.98 8.99 -1.98 8.99 -4 10 C-4.36814024 3.49618902 -4.36814024 3.49618902 -2.5625 1.0625 C-1 0 -1 0 0 0 Z " fill="#F4F2F3" transform="translate(155,96)"/>
<path d="M0 0 C0.33 1.32 0.66 2.64 1 4 C1.99 3.67 2.98 3.34 4 3 C7.0625 2.8125 7.0625 2.8125 10 3 C10.66 3.66 11.32 4.32 12 5 C2.58997722 6.33257403 2.58997722 6.33257403 -2 5 C-1.34 4.67 -0.68 4.34 0 4 C0 2.68 0 1.36 0 0 Z " fill="#042245" transform="translate(50,122)"/>
<path d="M0 0 C1.65 0 3.3 0 5 0 C4.67 1.65 4.34 3.3 4 5 C2.68 5.33 1.36 5.66 0 6 C0 4.02 0 2.04 0 0 Z " fill="#6C82A1" transform="translate(82,121)"/>
<path d="M0 0 C0.33 0 0.66 0 1 0 C1.33 2.97 1.66 5.94 2 9 C3.65 9 5.3 9 7 9 C7.33 9.99 7.66 10.98 8 12 C6.35 12 4.7 12 3 12 C3 11.34 3 10.68 3 10 C2.34 10 1.68 10 1 10 C-0.60725635 6.78548731 -0.05748185 3.56387464 0 0 Z " fill="#BC792D" transform="translate(43,84)"/>
<path d="M0 0 C0.66 0.99 1.32 1.98 2 3 C-0.52788007 5.79872437 -2.20411134 7.45773019 -6 8 C-4.73058503 4.08597051 -3.48832306 2.20927127 0 0 Z " fill="#C77D1F" transform="translate(30,52)"/>
<path d="M0 0 C0.66 0.66 1.32 1.32 2 2 C1.01 3.485 1.01 3.485 0 5 C0 4.01 0 3.02 0 2 C-0.33 3.32 -0.66 4.64 -1 6 C-2.32 6 -3.64 6 -5 6 C-5 4.35 -5 2.7 -5 1 C-2.625 0.375 -2.625 0.375 0 0 Z " fill="#7789A9" transform="translate(46,120)"/>
<path d="M0 0 C0.66 0 1.32 0 2 0 C2.33 2.97 2.66 5.94 3 9 C1.68 9.33 0.36 9.66 -1 10 C-0.67 6.7 -0.34 3.4 0 0 Z " fill="#072350" transform="translate(147,97)"/>
<path d="M0 0 C3 1 3 1 5 4 C5.125 6.6875 5.125 6.6875 5 9 C4.34 9 3.68 9 3 9 C2.67 7.68 2.34 6.36 2 5 C-0.31 4.67 -2.62 4.34 -5 4 C-5 3.67 -5 3.34 -5 3 C-3.35 2.67 -1.7 2.34 0 2 C0 1.34 0 0.68 0 0 Z " fill="#0C365E" transform="translate(118,103)"/>
<path d="M0 0 C1.98 0.66 3.96 1.32 6 2 C6.33 1.34 6.66 0.68 7 0 C7.5625 1.9375 7.5625 1.9375 8 4 C7 5 7 5 3.9375 5.0625 C2.968125 5.041875 1.99875 5.02125 1 5 C0.67 3.35 0.34 1.7 0 0 Z " fill="#D07F21" transform="translate(32,90)"/>
<path d="M0 0 C2 2 4 4 6 6 C3.36 6 0.72 6 -2 6 C-2 4.35 -2 2.7 -2 1 C-1.34 0.67 -0.68 0.34 0 0 Z " fill="#0F3659" transform="translate(162,81)"/>
<path d="M0 0 C-0.33 1.65 -0.66 3.3 -1 5 C-2.98 5 -4.96 5 -7 5 C-6.67 3.35 -6.34 1.7 -6 0 C-2.25 -1.125 -2.25 -1.125 0 0 Z " fill="#093B64" transform="translate(95,115)"/>
<path d="M0 0 C0.99 0 1.98 0 3 0 C3 1.98 3 3.96 3 6 C2.34 6 1.68 6 1 6 C1 6.99 1 7.98 1 9 C0.34 9 -0.32 9 -1 9 C-0.67 6.03 -0.34 3.06 0 0 Z " fill="#E5E6E7" transform="translate(78,104)"/>
<path d="M0 0 C2.475 0.495 2.475 0.495 5 1 C4.67 3.31 4.34 5.62 4 8 C1.10067643 5.60490662 0.49831724 3.68754757 0 0 Z " fill="#ECEDEB" transform="translate(141,93)"/>
<path d="M0 0 C0 0.99 0 1.98 0 3 C-4.22222222 6 -4.22222222 6 -7 6 C-7 6.66 -7 7.32 -7 8 C-8.65 7.67 -10.3 7.34 -12 7 C-9.47764868 5.31843245 -6.96413358 3.83531994 -4.3125 2.375 C-3.50425781 1.92898437 -2.69601563 1.48296875 -1.86328125 1.0234375 C-1.24839844 0.68570313 -0.63351563 0.34796875 0 0 Z " fill="#4A454B" transform="translate(55,69)"/>
<path d="M0 0 C2.97 0 5.94 0 9 0 C9 0.33 9 0.66 9 1 C7.35 1 5.7 1 4 1 C4 2.32 4 3.64 4 5 C3.34 5 2.68 5 2 5 C1.67 5.66 1.34 6.32 1 7 C0.67 4.69 0.34 2.38 0 0 Z " fill="#04214A" transform="translate(78,120)"/>
<path d="M0 0 C0.33 0 0.66 0 1 0 C1.28875 0.969375 1.5775 1.93875 1.875 2.9375 C2.64214682 6.10664203 2.64214682 6.10664203 5 7 C5 6.34 5 5.68 5 5 C5.66 5 6.32 5 7 5 C6.34 6.32 5.68 7.64 5 9 C3.68 9 2.36 9 1 9 C-0.4783226 6.04335481 -0.06032783 3.25770263 0 0 Z " fill="#47414F" transform="translate(46,84)"/>
<path d="M0 0 C1.5625 1.0625 1.5625 1.0625 3 3 C2.6875 6.6875 2.6875 6.6875 2 10 C1.01 9.67 0.02 9.34 -1 9 C-1.125 2.25 -1.125 2.25 0 0 Z " fill="#16364A" transform="translate(57,56)"/>
<path d="M0 0 C2.97 0.495 2.97 0.495 6 1 C6 1.66 6 2.32 6 3 C6.66 3 7.32 3 8 3 C8 3.99 8 4.98 8 6 C7.34 6 6.68 6 6 6 C6 5.34 6 4.68 6 4 C5.01 4 4.02 4 3 4 C3 3.01 3 2.02 3 1 C2.34 1 1.68 1 1 1 C0.67 1.99 0.34 2.98 0 4 C0 2.68 0 1.36 0 0 Z " fill="#7E8FAC" transform="translate(138,121)"/>
<path d="M0 0 C0.99 0.33 1.98 0.66 3 1 C2.67 2.98 2.34 4.96 2 7 C1.01 7 0.02 7 -1 7 C-0.67 4.69 -0.34 2.38 0 0 Z " fill="#082D56" transform="translate(156,95)"/>
<path d="M0 0 C1.32 0 2.64 0 4 0 C4 1.98 4 3.96 4 6 C2.68 6.33 1.36 6.66 0 7 C0.33 5.68 0.66 4.36 1 3 C1.66 3 2.32 3 3 3 C3 2.34 3 1.68 3 1 C2.01 0.67 1.02 0.34 0 0 Z " fill="#7C93B0" transform="translate(75,121)"/>
<path d="M0 0 C1.32 0.33 2.64 0.66 4 1 C4 2.32 4 3.64 4 5 C2.68 4.67 1.36 4.34 0 4 C0 2.68 0 1.36 0 0 Z " fill="#0A3964" transform="translate(70,115)"/>
<path d="M0 0 C0.99 0.99 1.98 1.98 3 3 C1.68 4.65 0.36 6.3 -1 8 C-2.4606285 5.35261084 -3 4.10551666 -3 1 C-2.34 1 -1.68 1 -1 1 C-0.67 0.67 -0.34 0.34 0 0 Z " fill="#DBDDE5" transform="translate(156,90)"/>
<path d="M0 0 C0.66 0 1.32 0 2 0 C2 0.66 2 1.32 2 2 C2.66 2 3.32 2 4 2 C4 2.66 4 3.32 4 4 C2.02 4.66 0.04 5.32 -2 6 C-2 4.68 -2 3.36 -2 2 C-1.34 2 -0.68 2 0 2 C0 1.34 0 0.68 0 0 Z " fill="#406187" transform="translate(110,122)"/>
<path d="M0 0 C0 1.32 0 2.64 0 4 C-1.98 4 -3.96 4 -6 4 C-5.67 3.01 -5.34 2.02 -5 1 C-2 0 -2 0 0 0 Z " fill="#F2EFED" transform="translate(140,108)"/>
<path d="M0 0 C-1.76956458 2.14210449 -2.87575652 2.96060573 -5.5625 3.8125 C-6.366875 3.874375 -7.17125 3.93625 -8 4 C-8.66 3.34 -9.32 2.68 -10 2 C-6.49223216 0.39644899 -3.85645121 -0.22036864 0 0 Z " fill="#E1E3E3" transform="translate(165,109)"/>
<path d="M0 0 C0.66 0.66 1.32 1.32 2 2 C1.01 2 0.02 2 -1 2 C-1.33 2.99 -1.66 3.98 -2 5 C-3.32 4.67 -4.64 4.34 -6 4 C-6 3.01 -6 2.02 -6 1 C-3.125 0.375 -3.125 0.375 0 0 Z " fill="#133869" transform="translate(90,102)"/>
<path d="M0 0 C-0.33 0.99 -0.66 1.98 -1 3 C-2.98 3 -4.96 3 -7 3 C-7 2.01 -7 1.02 -7 0 C-2.25 -1.125 -2.25 -1.125 0 0 Z " fill="#163F6A" transform="translate(91,93)"/>
<path d="M0 0 C0 0.99 0 1.98 0 3 C-1.98 3.66 -3.96 4.32 -6 5 C-5.625 3.0625 -5.625 3.0625 -5 1 C-3 0 -3 0 0 0 Z " fill="#072D53" transform="translate(160,84)"/>
<path d="M0 0 C3 3.625 3 3.625 3 7 C2.01 7 1.02 7 0 7 C-0.66 5.02 -1.32 3.04 -2 1 C-1.34 0.67 -0.68 0.34 0 0 Z " fill="#D6861E" transform="translate(61,57)"/>
<path d="M0 0 C0.99 0.33 1.98 0.66 3 1 C3 2.32 3 3.64 3 5 C0.03 4.505 0.03 4.505 -3 4 C-3 3.34 -3 2.68 -3 2 C-2.01 2 -1.02 2 0 2 C0 1.34 0 0.68 0 0 Z " fill="#7588A3" transform="translate(95,121)"/>
<path d="M0 0 C0.99 0 1.98 0 3 0 C2.67 1.98 2.34 3.96 2 6 C2.66 6.33 3.32 6.66 4 7 C2.68 7 1.36 7 0 7 C0 4.69 0 2.38 0 0 Z " fill="#55708F" transform="translate(151,119)"/>
<path d="M0 0 C1.65 0 3.3 0 5 0 C5 0.99 5 1.98 5 3 C3 4.6875 3 4.6875 1 6 C0.67 4.02 0.34 2.04 0 0 Z " fill="#E8EAE9" transform="translate(77,88)"/>
<path d="M0 0 C2.97 0.495 2.97 0.495 6 1 C5.67 1.99 5.34 2.98 5 4 C3.68 4 2.36 4 1 4 C0.67 2.68 0.34 1.36 0 0 Z " fill="#7F92B3" transform="translate(69,121)"/>
<path d="M0 0 C1.32 0 2.64 0 4 0 C3.67 1.65 3.34 3.3 3 5 C2.01 4.67 1.02 4.34 0 4 C0 2.68 0 1.36 0 0 Z " fill="#697D9C" transform="translate(164,121)"/>
<path d="M0 0 C0 1.65 0 3.3 0 5 C-0.33 3.68 -0.66 2.36 -1 1 C-1.66 1 -2.32 1 -3 1 C-3 1.99 -3 2.98 -3 4 C-3.99 4 -4.98 4 -6 4 C-6 3.01 -6 2.02 -6 1 C-4 0 -4 0 0 0 Z " fill="#94A4C1" transform="translate(135,121)"/>
<path d="M0 0 C0.66 0 1.32 0 2 0 C2 0.66 2 1.32 2 2 C2.66 2.33 3.32 2.66 4 3 C3.34 3 2.68 3 2 3 C2 3.99 2 4.98 2 6 C1.34 6 0.68 6 0 6 C0 5.01 0 4.02 0 3 C-0.99 2.67 -1.98 2.34 -3 2 C-2.01 2 -1.02 2 0 2 C0 1.34 0 0.68 0 0 Z " fill="#7D93AF" transform="translate(115,119)"/>
<path d="M0 0 C2.09749995 2.35968744 2.96905704 3.54616994 3.1875 6.75 C3.0946875 7.86375 3.0946875 7.86375 3 9 C2.01 8.67 1.02 8.34 0 8 C0 5.36 0 2.72 0 0 Z " fill="#C2CAD3" transform="translate(141,96)"/>
<path d="M0 0 C1.5 1 1.5 1 3 3 C3.27345479 5.71846235 3.13491285 8.25677199 3 11 C2.67 11 2.34 11 2 11 C2 9.02 2 7.04 2 5 C1.34 5 0.68 5 0 5 C0 3.35 0 1.7 0 0 Z " fill="#1F4371" transform="translate(147,92)"/>
<path d="M0 0 C0.33 0.66 0.66 1.32 1 2 C1.99 1.67 2.98 1.34 4 1 C3.67 2.32 3.34 3.64 3 5 C1 4 1 4 0 3 C-0.33 3.99 -0.66 4.98 -1 6 C-1.33 4.35 -1.66 2.7 -2 1 C-1.34 0.67 -0.68 0.34 0 0 Z " fill="#DEE1E3" transform="translate(92,90)"/>
<path d="M0 0 C0 0.99 0 1.98 0 3 C-0.66 3 -1.32 3 -2 3 C-2 3.99 -2 4.98 -2 6 C-2.66 6 -3.32 6 -4 6 C-4 5.34 -4 4.68 -4 4 C-4.99 3.67 -5.98 3.34 -7 3 C-4.69 2.01 -2.38 1.02 0 0 Z " fill="#0B3848" transform="translate(57,76)"/>
<path d="M0 0 C0.763125 0.20625 1.52625 0.4125 2.3125 0.625 C0.9925 0.955 -0.3275 1.285 -1.6875 1.625 C-1.6875 2.285 -1.6875 2.945 -1.6875 3.625 C-3.0075 2.965 -4.3275 2.305 -5.6875 1.625 C-2.6875 -0.375 -2.6875 -0.375 0 0 Z " fill="#C8862D" transform="translate(56.6875,66.375)"/>
</svg>
