<?xml version="1.0" encoding="UTF-8"?>
<svg version="1.1" xmlns="http://www.w3.org/2000/svg" width="200" height="188">
<path d="M0 0 C66 0 132 0 200 0 C200 62.04 200 124.08 200 188 C134 188 68 188 0 188 C0 125.96 0 63.92 0 0 Z " fill="#FEFEFE" transform="translate(0,0)"/>
<path d="M0 0 C0 0.66 0 1.32 0 2 C0.62648438 1.91621094 1.25296875 1.83242188 1.8984375 1.74609375 C2.71570313 1.64425781 3.53296875 1.54242188 4.375 1.4375 C5.18710938 1.33308594 5.99921875 1.22867188 6.8359375 1.12109375 C9 1 9 1 11 2 C11 2.99 11 3.98 11 5 C11.5775 5.2475 12.155 5.495 12.75 5.75 C15.34908658 7.19393699 17.07836838 8.73521987 19 11 C19 11.99 19 12.98 19 14 C18.34 14 17.68 14 17 14 C17 14.66 17 15.32 17 16 C17.99 16 18.98 16 20 16 C19.505 18.475 19.505 18.475 19 21 C20.0725 20.896875 21.145 20.79375 22.25 20.6875 C28.98738038 20.63920337 35.09117669 24.04558835 41 27 C41 27.66 41 28.32 41 29 C39.68 29.33 38.36 29.66 37 30 C38.65 32.31 40.3 34.62 42 37 C42.495 36.01 42.495 36.01 43 35 C52 44.84466019 52 44.84466019 52 50 C50.35 50 48.7 50 47 50 C47.495 51.11375 47.99 52.2275 48.5 53.375 C51.02768494 60.09959578 50.46188954 67.05602467 49 74 C47.35 74 45.7 74 44 74 C43.70867187 74.64066406 43.41734375 75.28132813 43.1171875 75.94140625 C40.50417277 81.45503166 37.79598735 87.04265525 33 91 C32.01 91 31.02 91 30 91 C29.67 90.01 29.34 89.02 29 88 C26.03 88.495 26.03 88.495 23 89 C23.99 89.99 23.99 89.99 25 91 C18.91026866 94.49595688 14.00004889 95.71311275 7 96 C7 94.35 7 92.7 7 91 C6.03900391 91.16048828 6.03900391 91.16048828 5.05859375 91.32421875 C-0.95337074 92.15747165 -4.48077163 91.86575319 -10 89 C-11.99263591 88.31163487 -13.99041337 87.63718601 -16 87 C-15.73703125 86.45085937 -15.4740625 85.90171875 -15.203125 85.3359375 C-14.71502956 82.76880967 -14.71502956 82.76880967 -16.984375 80.4140625 C-17.89703125 79.49367188 -18.8096875 78.57328125 -19.75 77.625 C-28 69.25714286 -28 69.25714286 -28 64 C-26.35 64 -24.7 64 -23 64 C-23.33 63.34 -23.66 62.68 -24 62 C-24.12114921 60.35744209 -24.17540767 58.70947522 -24.1875 57.0625 C-24.20167969 56.18722656 -24.21585938 55.31195313 -24.23046875 54.41015625 C-24 52 -24 52 -22 49 C-21.87882812 49.59167969 -21.75765625 50.18335938 -21.6328125 50.79296875 C-20.89404755 54.27652961 -20.20149791 57.5227681 -18.8125 60.8125 C-17.84343255 63.42152775 -18.34287931 64.37151723 -19 67 C-17.34816315 73.44216371 -12.05490515 77.10050174 -7 81 C-7.33 81.99 -7.66 82.98 -8 84 C-3.38033912 85.47538908 1.5249624 85.31057429 6.33203125 85.4296875 C8.4453125 85.5234375 8.4453125 85.5234375 12 86 C12.99 87.485 12.99 87.485 14 89 C17.95196719 87.49825247 21.07207033 86.12313127 24.25 83.3125 C27 81 27 81 30 81 C30 81.99 30 82.98 30 84 C30.66 84 31.32 84 32 84 C32.41572266 83.1646875 32.41572266 83.1646875 32.83984375 82.3125 C33.63627621 80.72499827 34.44144722 79.1418596 35.25390625 77.5625 C35.68574219 76.716875 36.11757812 75.87125 36.5625 75 C36.99691406 74.154375 37.43132812 73.30875 37.87890625 72.4375 C38.87345504 70.27513608 39.52152279 68.32249614 40 66 C41.98 66.495 41.98 66.495 44 67 C43.34 60.73 42.68 54.46 42 48 C43.32 48 44.64 48 46 48 C45.67 47.01 45.34 46.02 45 45 C44.34 45 43.68 45 43 45 C42.690625 44.1646875 42.690625 44.1646875 42.375 43.3125 C39.79274963 38.96962437 35.62366596 35.95616637 31 34 C32 31 32 31 34 29 C27.66226532 27.46667709 21.49850211 26.51553879 15 26 C14.4465236 28.07553648 14 29.84365964 14 32 C15.94729537 31.15811388 15.94729537 31.15811388 17 30 C17 29.34 17 28.68 17 28 C21.92210994 28.49221099 25.84319544 29.22879696 30 32 C30.875 34.6875 30.875 34.6875 31 37 C31.66 37 32.32 37 33 37 C33.66 38.65 34.32 40.3 35 42 C34.01 42.33 33.02 42.66 32 43 C32 42.34 32 41.68 32 41 C29.48916886 42.25541557 29.12874554 43.50063488 28 46 C27.34 46 26.68 46 26 46 C26.99 46.66 27.98 47.32 29 48 C28.41501018 51.0497139 27.57639619 52.83796545 25.53125 55.1640625 C25.04269531 55.72867188 24.55414063 56.29328125 24.05078125 56.875 C23.28314453 57.74125 23.28314453 57.74125 22.5 58.625 C18.87840054 62.55225501 18.87840054 62.55225501 16 67 C22.435 66.01 22.435 66.01 29 65 C29 67.64 29 70.28 29 73 C23.41311774 74.39672056 18.2455019 74.79253008 12.8125 72.875 C9.40964456 70.60642971 7.4583876 68.25374829 5 65 C4.67 67.97 4.34 70.94 4 74 C1.36 74 -1.28 74 -4 74 C-4.01981934 73.11739502 -4.03963867 72.23479004 -4.06005859 71.32543945 C-4.13837866 68.03578043 -4.22507855 64.74656036 -4.31738281 61.45727539 C-4.35555149 60.0364627 -4.39042513 58.61555737 -4.421875 57.19458008 C-4.46779065 55.14631145 -4.52573805 53.09867392 -4.5859375 51.05078125 C-4.6173584 49.82012939 -4.6487793 48.58947754 -4.68115234 47.3215332 C-4.99024963 44.10157253 -5.44975105 41.83169685 -7 39 C-8.485 38.505 -8.485 38.505 -10 38 C-10 35.36 -10 32.72 -10 30 C-10.5775 29.9175 -11.155 29.835 -11.75 29.75 C-14.6159304 28.79468987 -15.9990764 27.21530827 -18 25 C-17.67 24.01 -17.34 23.02 -17 22 C-17.65358081 19.99568551 -18.32136945 17.9959722 -19 16 C-19.125 13.125 -19.125 13.125 -19 11 C-18.34 11 -17.68 11 -17 11 C-16.69707031 10.36191406 -16.39414062 9.72382812 -16.08203125 9.06640625 C-15.66308594 8.24011719 -15.24414062 7.41382813 -14.8125 6.5625 C-14.40644531 5.73878906 -14.00039063 4.91507813 -13.58203125 4.06640625 C-12 2 -12 2 -9.44921875 1.27734375 C-8.64097656 1.18582031 -7.83273438 1.09429687 -7 1 C-4.53721199 -0.231394 -2.7204945 -0.07159196 0 0 Z " fill="#EEB431" transform="translate(67,38)"/>
<path d="M0 0 C0 0.66 0 1.32 0 2 C0.99 1.67 1.98 1.34 3 1 C5.33299825 0.96045766 7.66708189 0.95598268 10 1 C10.33 1.99 10.66 2.98 11 4 C13.475 4.495 13.475 4.495 16 5 C16.33 6.65 16.66 8.3 17 10 C16.34 10 15.68 10 15 10 C15 11.32 15 12.64 15 14 C13.68 14.33 12.36 14.66 11 15 C10.34 12.36 9.68 9.72 9 7 C7.39679026 6.80448662 5.79237014 6.61888017 4.1875 6.4375 C2.84751953 6.28087891 2.84751953 6.28087891 1.48046875 6.12109375 C-1.13375572 5.84341291 -1.13375572 5.84341291 -4 7 C-4.33 10.3 -4.66 13.6 -5 17 C-4.34 17 -3.68 17 -3 17 C-2.34 19.97 -1.68 22.94 -1 26 C1.64 26 4.28 26 7 26 C7.66 23.03 8.32 20.06 9 17 C10.65 17.33 12.3 17.66 14 18 C13.88637738 19.4800841 13.75877092 20.95910074 13.625 22.4375 C13.55539063 23.26121094 13.48578125 24.08492187 13.4140625 24.93359375 C13.27742188 25.61550781 13.14078125 26.29742187 13 27 C12.34 27.33 11.68 27.66 11 28 C11 27.34 11 26.68 11 26 C10.01 26.7734375 10.01 26.7734375 9 27.5625 C4.85340174 29.54941167 2.46979435 28.83335149 -2 28 C-1.34 30.64 -0.68 33.28 0 36 C1.32 36 2.64 36 4 36 C4.66 34.02 5.32 32.04 6 30 C10.75 28.875 10.75 28.875 13 30 C16.26878522 28.96543458 16.26878522 28.96543458 19 27 C19 26.34 19 25.68 19 25 C23.92210994 25.49221099 27.84319544 26.22879696 32 29 C32.875 31.6875 32.875 31.6875 33 34 C33.66 34 34.32 34 35 34 C35.66 35.65 36.32 37.3 37 39 C36.01 39.33 35.02 39.66 34 40 C34 39.34 34 38.68 34 38 C31.48916886 39.25541557 31.12874554 40.50063488 30 43 C29.34 43 28.68 43 28 43 C28.99 43.66 29.98 44.32 31 45 C30.41501018 48.0497139 29.57639619 49.83796545 27.53125 52.1640625 C27.04269531 52.72867188 26.55414063 53.29328125 26.05078125 53.875 C25.28314453 54.74125 25.28314453 54.74125 24.5 55.625 C20.87840054 59.55225501 20.87840054 59.55225501 18 64 C22.29 63.34 26.58 62.68 31 62 C31 64.64 31 67.28 31 70 C25.41311774 71.39672056 20.2455019 71.79253008 14.8125 69.875 C11.40964456 67.60642971 9.4583876 65.25374829 7 62 C6.67 64.97 6.34 67.94 6 71 C3.36 71 0.72 71 -2 71 C-2.01981934 70.11739502 -2.03963867 69.23479004 -2.06005859 68.32543945 C-2.13837866 65.03578043 -2.22507855 61.74656036 -2.31738281 58.45727539 C-2.35555149 57.0364627 -2.39042513 55.61555737 -2.421875 54.19458008 C-2.46779065 52.14631145 -2.52573805 50.09867392 -2.5859375 48.05078125 C-2.63306885 46.20480347 -2.63306885 46.20480347 -2.68115234 44.3215332 C-2.99024963 41.10157253 -3.44975105 38.83169685 -5 36 C-5.99 35.67 -6.98 35.34 -8 35 C-8 33.68 -8 32.36 -8 31 C-6.68 30.67 -5.36 30.34 -4 30 C-4.19471111 28.05000871 -4.19471111 28.05000871 -5 26 C-7.27600998 24.55852701 -9.43336266 23.85554578 -12 23 C-12 22.34 -12 21.68 -12 21 C-11.34 21 -10.68 21 -10 21 C-10.99 18.03 -11.98 15.06 -13 12 C-12.34 12 -11.68 12 -11 12 C-10.34 9.03 -9.68 6.06 -9 3 C-7.68 2.67 -6.36 2.34 -5 2 C-2 0 -2 0 0 0 Z " fill="#F9F9F8" transform="translate(65,41)"/>
<path d="M0 0 C6.65050424 -0.24991456 12.56986533 0.26044666 19 2 C19 5 19 5 17.5 6.6875 C17.005 7.120625 16.51 7.55375 16 8 C16.94875 8.2475 17.8975 8.495 18.875 8.75 C22.43303673 10.17321469 22.55234022 10.69106337 24 14 C26.0335948 15.26804566 26.0335948 15.26804566 28 16 C28 16.99 28 17.98 28 19 C28.66 17.68 29.32 16.36 30 15 C30.495 18.465 30.495 18.465 31 22 C29.68 22 28.36 22 27 22 C27.495 23.6396875 27.495 23.6396875 28 25.3125 C29.32985532 30.52890432 29.17693984 35.65248469 29 41 C27.68 40.67 26.36 40.34 25 40 C24.9071875 41.485 24.9071875 41.485 24.8125 43 C24.15762638 47.73820324 21.68803767 51.1479834 19 55 C18.34 55.99 17.68 56.98 17 58 C16.34 58 15.68 58 15 58 C15 57.01 15 56.02 15 55 C12.01832928 56.71671951 9.24161313 58.55529206 6.5 60.625 C3.71105741 62.65720543 1.50462883 63.68139738 -2 64 C-2.495 62.02 -2.495 62.02 -3 60 C-4.10859375 60.02320313 -5.2171875 60.04640625 -6.359375 60.0703125 C-7.82290992 60.08907577 -9.28645214 60.10727537 -10.75 60.125 C-11.47960937 60.14175781 -12.20921875 60.15851563 -12.9609375 60.17578125 C-20.20848881 60.24166808 -20.20848881 60.24166808 -23 58 C-23.36295539 56.6744238 -23.69585656 55.34029312 -24 54 C-25.50911608 52.59491337 -25.50911608 52.59491337 -27.375 51.5 C-31.23757473 48.90384322 -33.52615974 46.89536105 -34.6875 42.25 C-34.790625 41.5075 -34.89375 40.765 -35 40 C-34.34 40 -33.68 40 -33 40 C-33.33 38.02 -33.66 36.04 -34 34 C-32.68 34.33 -31.36 34.66 -30 35 C-30 35.66 -30 36.32 -30 37 C-30.66 37 -31.32 37 -32 37 C-30.85485202 42.41342681 -29.65987191 44.9342948 -25 48 C-23.02 47.01 -21.04 46.02 -19 45 C-19 45.99 -19 46.98 -19 48 C-16.36 48 -13.72 48 -11 48 C-11 44.37 -11 40.74 -11 37 C-10.443125 37.7425 -9.88625 38.485 -9.3125 39.25 C-6.26649201 42.87227977 -3.52272135 45.49242622 1 47 C3.22818441 47.06937062 5.45834524 47.08457084 7.6875 47.0625 C8.86699219 47.05347656 10.04648438 47.04445312 11.26171875 47.03515625 C12.16535156 47.02355469 13.06898437 47.01195312 14 47 C14 44.36 14 41.72 14 39 C13.01 39.495 13.01 39.495 12 40 C8.13938967 41.28687011 5.05849717 41.13757618 1 41 C2.91419532 36.43453416 6.30584924 32.9946939 9.54296875 29.33398438 C12.4138977 26.14525333 12.4138977 26.14525333 13 22 C11.05990478 20.29467677 11.05990478 20.29467677 9 19 C10.32 19 11.64 19 13 19 C13.66 17.68 14.32 16.36 15 15 C15.66 15 16.32 15 17 15 C17 15.66 17 16.32 17 17 C17.66 16.34 18.32 15.68 19 15 C18.34 14.34 17.68 13.68 17 13 C17.33 12.34 17.66 11.68 18 11 C17.34 11 16.68 11 16 11 C15.505 8.525 15.505 8.525 15 6 C11.00999834 4.57499941 7.19469571 3.59924224 3 3 C3 4.32 3 5.64 3 7 C-1 7 -1 7 -3 6 C-2.01 4.02 -1.02 2.04 0 0 Z " fill="#F7F8F7" transform="translate(82,64)"/>
<path d="M0 0 C2.64 0 5.28 0 8 0 C8.33 3.63 8.66 7.26 9 11 C9.763125 10.21625 10.52625 9.4325 11.3125 8.625 C14.85851599 5.1614495 16.9042658 3.7003953 21.8125 3.625 C26.78983481 3.69787459 29.23216503 4.82708634 33 8 C32.41501018 11.0497139 31.57639619 12.83796545 29.53125 15.1640625 C29.04269531 15.72867188 28.55414063 16.29328125 28.05078125 16.875 C27.28314453 17.74125 27.28314453 17.74125 26.5 18.625 C22.87840054 22.55225501 22.87840054 22.55225501 20 27 C24.29 26.34 28.58 25.68 33 25 C33 27.64 33 30.28 33 33 C27.41311774 34.39672056 22.2455019 34.79253008 16.8125 32.875 C13.40964456 30.60642971 11.4583876 28.25374829 9 25 C8.67 27.97 8.34 30.94 8 34 C5.36 34 2.72 34 0 34 C0 22.78 0 11.56 0 0 Z " fill="#07080A" transform="translate(63,78)"/>
<path d="M0 0 C0.33 0 0.66 0 1 0 C1.12117188 0.59167969 1.24234375 1.18335937 1.3671875 1.79296875 C2.10595245 5.27652961 2.79850209 8.5227681 4.1875 11.8125 C5.15656745 14.42152775 4.65712069 15.37151723 4 18 C5.65183685 24.44216371 10.94509485 28.10050174 16 32 C15.67 32.99 15.34 33.98 15 35 C19.61966088 36.47538908 24.5249624 36.31057429 29.33203125 36.4296875 C31.4453125 36.5234375 31.4453125 36.5234375 35 37 C35.66 37.99 36.32 38.98 37 40 C40.95196719 38.49825247 44.07207033 37.12313127 47.25 34.3125 C50 32 50 32 53 32 C53 32.99 53 33.98 53 35 C53.66 35 54.32 35 55 35 C55.2475 34.38125 55.495 33.7625 55.75 33.125 C57 31 57 31 58.8125 30.1875 C61.79311625 28.56945118 63.04653353 26.27770245 64.8515625 23.4609375 C65.42003906 22.73777344 65.42003906 22.73777344 66 22 C66.66 22 67.32 22 68 22 C67.731875 22.515625 67.46375 23.03125 67.1875 23.5625 C66.24808933 25.490764 65.39002442 27.45863725 64.5625 29.4375 C62.38847887 34.39426817 60.1807694 38.47247582 56 42 C55.01 42 54.02 42 53 42 C52.67 41.01 52.34 40.02 52 39 C49.03 39.495 49.03 39.495 46 40 C46.66 40.66 47.32 41.32 48 42 C41.91026866 45.49595688 37.00004889 46.71311275 30 47 C30 45.35 30 43.7 30 42 C29.35933594 42.10699219 28.71867187 42.21398437 28.05859375 42.32421875 C22.04662926 43.15747165 18.51922837 42.86575319 13 40 C11.00736409 39.31163487 9.00958663 38.63718601 7 38 C7.26296875 37.45085937 7.5259375 36.90171875 7.796875 36.3359375 C8.28497044 33.76880967 8.28497044 33.76880967 6.015625 31.4140625 C5.10296875 30.49367188 4.1903125 29.57328125 3.25 28.625 C-5 20.25714286 -5 20.25714286 -5 15 C-3.35 15 -1.7 15 0 15 C-0.33 14.34 -0.66 13.68 -1 13 C-1.09585131 11.35643193 -1.12983511 9.70885358 -1.125 8.0625 C-1.12757812 7.18722656 -1.13015625 6.31195313 -1.1328125 5.41015625 C-1 3 -1 3 0 0 Z " fill="#E8B651" transform="translate(44,87)"/>
<path d="M0 0 C5.94 0 11.88 0 18 0 C18 0.66 18 1.32 18 2 C16.35 2 14.7 2 13 2 C13 2.66 13 3.32 13 4 C14.32 4.33 15.64 4.66 17 5 C15.68 5 14.36 5 13 5 C13 5.99 13 6.98 13 8 C16.62885324 8.15149298 16.62885324 8.15149298 20 7 C20.66 7.33 21.32 7.66 22 8 C22 5.36 22 2.72 22 0 C22.66 0 23.32 0 24 0 C24 1.65 24 3.3 24 5 C24.66 5 25.32 5 26 5 C26.66 3.35 27.32 1.7 28 0 C30.52259061 1.97420135 30.9929808 2.96745642 31.6875 6.1875 C31.790625 7.115625 31.89375 8.04375 32 9 C31.34 9 30.68 9 30 9 C30 8.34 30 7.68 30 7 C29.01 7 28.02 7 27 7 C26.67 7.99 26.34 8.98 26 10 C25.34 10 24.68 10 24 10 C23.6596875 10.9590625 23.6596875 10.9590625 23.3125 11.9375 C22 14 22 14 19.375 14.75 C18.199375 14.87375 18.199375 14.87375 17 15 C17 15.66 17 16.32 17 17 C18.32 17 19.64 17 21 17 C21 17.66 21 18.32 21 19 C19.68 19 18.36 19 17 19 C17 19.66 17 20.32 17 21 C18.32 21 19.64 21 21 21 C21 21.66 21 22.32 21 23 C19.02090602 23.02686553 17.04171029 23.04633375 15.0625 23.0625 C13.96035156 23.07410156 12.85820312 23.08570313 11.72265625 23.09765625 C9 23 9 23 8 22 C7.95919217 20.00041636 7.95745644 17.99954746 8 16 C7.67 16.99 7.34 17.98 7 19 C5.35 19 3.7 19 2 19 C2 19.66 2 20.32 2 21 C3.65 21 5.3 21 7 21 C7 21.66 7 22.32 7 23 C5.00045254 23.04254356 2.99958364 23.04080783 1 23 C0 22 0 22 -0.11352539 19.86694336 C-0.10828857 18.95050049 -0.10305176 18.03405762 -0.09765625 17.08984375 C-0.09443359 16.10048828 -0.09121094 15.11113281 -0.08789062 14.09179688 C-0.07951172 13.05087891 -0.07113281 12.00996094 -0.0625 10.9375 C-0.05798828 9.89271484 -0.05347656 8.84792969 -0.04882812 7.77148438 C-0.03699927 5.18096546 -0.01906319 2.59047578 0 0 Z " fill="#F6F6F6" transform="translate(119,112)"/>
<path d="M0 0 C0 0.66 0 1.32 0 2 C0.99 1.67 1.98 1.34 3 1 C5.33299825 0.96045766 7.66708189 0.95598268 10 1 C10.33 1.99 10.66 2.98 11 4 C13.475 4.495 13.475 4.495 16 5 C16.33 6.65 16.66 8.3 17 10 C16.34 10 15.68 10 15 10 C15 11.32 15 12.64 15 14 C13.68 14.33 12.36 14.66 11 15 C10.34 12.36 9.68 9.72 9 7 C7.39679026 6.80448662 5.79237014 6.61888017 4.1875 6.4375 C2.84751953 6.28087891 2.84751953 6.28087891 1.48046875 6.12109375 C-1.13375572 5.84341291 -1.13375572 5.84341291 -4 7 C-4.33 10.3 -4.66 13.6 -5 17 C-4.34 17 -3.68 17 -3 17 C-2.34 19.97 -1.68 22.94 -1 26 C1.64 26 4.28 26 7 26 C7.66 23.03 8.32 20.06 9 17 C10.65 17.33 12.3 17.66 14 18 C13.88637738 19.4800841 13.75877092 20.95910074 13.625 22.4375 C13.55539063 23.26121094 13.48578125 24.08492187 13.4140625 24.93359375 C13.27742188 25.61550781 13.14078125 26.29742187 13 27 C12.34 27.33 11.68 27.66 11 28 C11 27.34 11 26.68 11 26 C10.01 26.7734375 10.01 26.7734375 9 27.5625 C4.85340174 29.54941167 2.46979435 28.83335149 -2 28 C-1.34 30.64 -0.68 33.28 0 36 C-0.66 35.67 -1.32 35.34 -2 35 C-2 34.34 -2 33.68 -2 33 C-4.97 33.495 -4.97 33.495 -8 34 C-8 33.01 -8 32.02 -8 31 C-6.68 30.67 -5.36 30.34 -4 30 C-4.19471111 28.05000871 -4.19471111 28.05000871 -5 26 C-7.27600998 24.55852701 -9.43336266 23.85554578 -12 23 C-12 22.34 -12 21.68 -12 21 C-11.34 21 -10.68 21 -10 21 C-10.99 18.03 -11.98 15.06 -13 12 C-12.34 12 -11.68 12 -11 12 C-10.34 9.03 -9.68 6.06 -9 3 C-7.68 2.67 -6.36 2.34 -5 2 C-2 0 -2 0 0 0 Z " fill="#F7DBB9" transform="translate(65,41)"/>
<path d="M0 0 C2.64 0 5.28 0 8 0 C8.33 3.63 8.66 7.26 9 11 C9.763125 10.21625 10.52625 9.4325 11.3125 8.625 C14.85851599 5.1614495 16.9042658 3.7003953 21.8125 3.625 C26.78983481 3.69787459 29.23216503 4.82708634 33 8 C32.50485982 12.34037775 29.68886128 15.08612375 26.9375 18.25 C26.46505859 18.80429688 25.99261719 19.35859375 25.50585938 19.9296875 C24.34341033 21.291749 23.17252145 22.64659956 22 24 C19.36 23.34 16.72 22.68 14 22 C13.5359375 20.2984375 13.5359375 20.2984375 13.0625 18.5625 C12.37075469 15.21224901 12.37075469 15.21224901 11 14 C10.34 15.65 9.68 17.3 9 19 C8.01 18.34 7.02 17.68 6 17 C5.94367576 14.19564589 6.04185298 11.64853322 6.3125 8.875 C6.37373047 8.12089844 6.43496094 7.36679688 6.49804688 6.58984375 C6.6514533 4.72536562 6.82393459 2.86247502 7 1 C5.02 1 3.04 1 1 1 C1 10.9 1 20.8 1 31 C0.67 31 0.34 31 0 31 C0 20.77 0 10.54 0 0 Z " fill="#1A1C1B" transform="translate(63,78)"/>
<path d="M0 0 C6.69034366 0.44602291 12.02812122 3.07345542 18 6 C18 6.66 18 7.32 18 8 C16.68 8.33 15.36 8.66 14 9 C16.475 12.465 16.475 12.465 19 16 C19.33 15.34 19.66 14.68 20 14 C29 23.84466019 29 23.84466019 29 29 C27.35 29 25.7 29 24 29 C24.495 30.11375 24.99 31.2275 25.5 32.375 C28.02768494 39.09959578 27.46188954 46.05602467 26 53 C24.68 52.67 23.36 52.34 22 52 C22 51.34 22 50.68 22 50 C21.34 50 20.68 50 20 50 C19.773125 50.53625 19.54625 51.0725 19.3125 51.625 C17.56617944 54.78500863 15.3597151 57.2676983 13 60 C12.67 59.34 12.34 58.68 12 58 C12.7421875 55.9765625 12.7421875 55.9765625 13.875 53.625 C15.24561558 50.75916741 16.33240022 48.11073087 17 45 C18.32 45.33 19.64 45.66 21 46 C20.34 39.73 19.68 33.46 19 27 C20.32 27 21.64 27 23 27 C22.67 26.01 22.34 25.02 22 24 C21.34 24 20.68 24 20 24 C19.690625 23.1646875 19.690625 23.1646875 19.375 22.3125 C16.79274963 17.96962437 12.62366596 14.95616637 8 13 C9 10 9 10 11 8 C11 7.34 11 6.68 11 6 C9.948125 5.5978125 9.948125 5.5978125 8.875 5.1875 C5.8350176 3.9318551 2.9272226 2.49764877 0 1 C0 0.67 0 0.34 0 0 Z " fill="#E7BF58" transform="translate(90,59)"/>
<path d="M0 0 C2.75 0.4375 2.75 0.4375 6 1.5 C9.96524267 2.49131067 12.44029171 2.24937162 16.39453125 1.6640625 C20.27151458 1.291152 23.90493425 1.88820489 27.75 2.4375 C27.75 3.4275 27.75 4.4175 27.75 5.4375 C26.43 5.4375 25.11 5.4375 23.75 5.4375 C23.75 7.0875 23.75 8.7375 23.75 10.4375 C25.07 10.4375 26.39 10.4375 27.75 10.4375 C27.75 9.7775 27.75 9.1175 27.75 8.4375 C28.41 8.4375 29.07 8.4375 29.75 8.4375 C29.09 9.7575 28.43 11.0775 27.75 12.4375 C22.875 11.5625 22.875 11.5625 21.75 10.4375 C21.42 11.0975 21.09 11.7575 20.75 12.4375 C19.1 12.4375 17.45 12.4375 15.75 12.4375 C15.75 11.1175 15.75 9.7975 15.75 8.4375 C14.76 8.4375 13.77 8.4375 12.75 8.4375 C12.75 9.7575 12.75 11.0775 12.75 12.4375 C12.09 12.4375 11.43 12.4375 10.75 12.4375 C10.75 9.7975 10.75 7.1575 10.75 4.4375 C9.76 4.4375 8.77 4.4375 7.75 4.4375 C7.75 7.0775 7.75 9.7175 7.75 12.4375 C3.23281619 13.80634358 0.16225737 12.90825246 -4.25 11.4375 C-5.15077361 7.91629408 -5.46686761 5.99171722 -4.125 2.5625 C-2.25 0.4375 -2.25 0.4375 0 0 Z " fill="#9A9A9A" transform="translate(146.25,122.5625)"/>
<path d="M0 0 C1.65 0 3.3 0 5 0 C5 0.99 5 1.98 5 3 C5.66 3 6.32 3 7 3 C8.26237731 5.52475462 8.09856404 7.31200466 8.0625 10.125 C8.05347656 11.03507812 8.04445312 11.94515625 8.03515625 12.8828125 C8.02355469 13.58148438 8.01195312 14.28015625 8 15 C7.01 15.33 6.02 15.66 5 16 C5.495 16.99 5.495 16.99 6 18 C8.02742081 24.08226242 7.60858559 32.06915917 5 38 C2.41104656 39.72240291 1.15857975 40 -2 40 C-1.5359375 41.3921875 -1.5359375 41.3921875 -1.0625 42.8125 C-0.375 44.875 0.3125 46.9375 1 49 C-0.485 49.495 -0.485 49.495 -2 50 C-2.103125 50.639375 -2.20625 51.27875 -2.3125 51.9375 C-2.539375 52.618125 -2.76625 53.29875 -3 54 C-6.73397847 55.69726294 -9.92157346 56.23990744 -14 56 C-14 56.66 -14 57.32 -14 58 C-14.66 58 -15.32 58 -16 58 C-16.33 57.34 -16.66 56.68 -17 56 C-17.515625 56.28875 -18.03125 56.5775 -18.5625 56.875 C-21.68323025 58.31533704 -24.63627997 59.27920285 -28 60 C-29.32 59.34 -30.64 58.68 -32 58 C-28.7 56.68 -25.4 55.36 -22 54 C-22.66 53.34 -23.32 52.68 -24 52 C-21.36 51.34 -18.72 50.68 -16 50 C-15.67 51.32 -15.34 52.64 -15 54 C-11.72226496 53.24849977 -11.72226496 53.24849977 -10 50 C-9.34 50 -8.68 50 -8 50 C-7.7525 49.34 -7.505 48.68 -7.25 48 C-6.23140806 45.55537933 -5.18753905 43.14663492 -4.0625 40.75 C-3.74410156 40.06421875 -3.42570312 39.3784375 -3.09765625 38.671875 C-2 37 -2 37 1 36 C1.99 36.33 2.98 36.66 4 37 C4.05394705 34.39555652 4.09364469 31.79223002 4.125 29.1875 C4.14175781 28.44951172 4.15851563 27.71152344 4.17578125 26.95117188 C4.21074628 23.08753574 4.19397555 21.29096332 2 18 C1.875 15.3125 1.875 15.3125 2 13 C3.65 13 5.3 13 7 13 C6.21085079 11.39459341 5.41858235 9.79071984 4.625 8.1875 C4.18414062 7.29417969 3.74328125 6.40085937 3.2890625 5.48046875 C1.98133095 2.85443619 1.98133095 2.85443619 0 0 Z M1 47 C3 48 3 48 3 48 Z " fill="#F9EDE5" transform="translate(112,75)"/>
<path d="M0 0 C0 0.66 0 1.32 0 2 C0.62648438 1.91621094 1.25296875 1.83242188 1.8984375 1.74609375 C2.71570313 1.64425781 3.53296875 1.54242188 4.375 1.4375 C5.18710938 1.33308594 5.99921875 1.22867188 6.8359375 1.12109375 C9 1 9 1 11 2 C11 2.99 11 3.98 11 5 C11.598125 5.268125 12.19625 5.53625 12.8125 5.8125 C15.01819033 7.00987475 16.43583187 8.04478984 18 10 C18 10.99 18 11.98 18 13 C17.34 13 16.68 13 16 13 C16 13.99 16 14.98 16 16 C15.01 15.67 14.02 15.34 13 15 C13 14.34 13 13.68 13 13 C13.66 13 14.32 13 15 13 C14.42055068 11.00136244 14.42055068 11.00136244 13 9 C9.95800528 7.70768358 9.95800528 7.70768358 7 7 C7.33 6.01 7.66 5.02 8 4 C4.7 4.33 1.4 4.66 -2 5 C-2 4.34 -2 3.68 -2 3 C-3.423125 3.99 -3.423125 3.99 -4.875 5 C-8 7 -8 7 -10 7 C-10.99 9.64 -11.98 12.28 -13 15 C-13.66 15 -14.32 15 -15 15 C-14.505 15.928125 -14.01 16.85625 -13.5 17.8125 C-12 21 -12 21 -12 24 C-12.66 24 -13.32 24 -14 24 C-14 24.66 -14 25.32 -14 26 C-13.401875 26.12375 -12.80375 26.2475 -12.1875 26.375 C-10 27 -10 27 -7 29 C-5.8125 31.625 -5.8125 31.625 -5 34 C-6.65 34 -8.3 34 -10 34 C-10.061875 33.38125 -10.12375 32.7625 -10.1875 32.125 C-10.455625 31.42375 -10.72375 30.7225 -11 30 C-11.804375 29.690625 -12.60875 29.38125 -13.4375 29.0625 C-16 28 -16 28 -17.3125 25.5625 C-18 23 -18 23 -18 20 C-18.15127402 18.43593472 -18.31902522 16.87340748 -18.5 15.3125 C-18.5928125 14.50425781 -18.685625 13.69601563 -18.78125 12.86328125 C-18.8534375 12.24839844 -18.925625 11.63351563 -19 11 C-18.34 11 -17.68 11 -17 11 C-16.69707031 10.36191406 -16.39414062 9.72382812 -16.08203125 9.06640625 C-15.66308594 8.24011719 -15.24414062 7.41382813 -14.8125 6.5625 C-14.40644531 5.73878906 -14.00039063 4.91507813 -13.58203125 4.06640625 C-12 2 -12 2 -9.44921875 1.27734375 C-8.64097656 1.18582031 -7.83273438 1.09429687 -7 1 C-4.53721199 -0.231394 -2.7204945 -0.07159196 0 0 Z " fill="#B65A5D" transform="translate(67,38)"/>
<path d="M0 0 C2.3125 0.625 2.3125 0.625 4 2 C4.9375 4.9375 4.9375 4.9375 5 8 C3.21220342 10.59230504 2.03997185 10.98667605 -1 12 C-1.33 12.66 -1.66 13.32 -2 14 C-0.68 14 0.64 14 2 14 C1.34 16.31 0.68 18.62 0 21 C-2.875 21.1875 -2.875 21.1875 -6 21 C-8.29013653 17.5647952 -8.17842973 16.014669 -8 12 C-8.66 12 -9.32 12 -10 12 C-9.9129995 10.37399059 -9.8048219 8.74910322 -9.6875 7.125 C-9.62949219 6.22007813 -9.57148437 5.31515625 -9.51171875 4.3828125 C-8.42180061 -0.69237885 -4.34142819 -0.3544023 0 0 Z " fill="#F5B415" transform="translate(70,46)"/>
<path d="M0 0 C6.65050424 -0.24991456 12.56986533 0.26044666 19 2 C19 5 19 5 17.5 6.6875 C17.005 7.120625 16.51 7.55375 16 8 C16.94875 8.2475 17.8975 8.495 18.875 8.75 C22.43303673 10.17321469 22.55234022 10.69106337 24 14 C26.0335948 15.26804566 26.0335948 15.26804566 28 16 C28 16.99 28 17.98 28 19 C28.66 17.68 29.32 16.36 30 15 C30.495 18.465 30.495 18.465 31 22 C29.68 22 28.36 22 27 22 C27.33 23.093125 27.66 24.18625 28 25.3125 C29.32985532 30.52890432 29.17693984 35.65248469 29 41 C27.68 40.67 26.36 40.34 25 40 C25.02320312 38.94941406 25.04640625 37.89882812 25.0703125 36.81640625 C25.18589374 29.23138758 25.10248032 22.35868111 23 15 C20.03 14.505 20.03 14.505 17 14 C17.33 13.01 17.66 12.02 18 11 C17.34 11 16.68 11 16 11 C15.67 9.35 15.34 7.7 15 6 C11.00999834 4.57499941 7.19469571 3.59924224 3 3 C3 4.32 3 5.64 3 7 C-1 7 -1 7 -3 6 C-2.01 4.02 -1.02 2.04 0 0 Z " fill="#FBEDDA" transform="translate(82,64)"/>
<path d="M0 0 C2.64 0 5.28 0 8 0 C8.33 3.63 8.66 7.26 9 11 C9.763125 10.175 10.52625 9.35 11.3125 8.5 C14 6 14 6 17 6 C17.33 7.65 17.66 9.3 18 11 C19.65 11 21.3 11 23 11 C23 11.66 23 12.32 23 13 C22.34 13 21.68 13 21 13 C20.71125 13.5775 20.4225 14.155 20.125 14.75 C19.08333333 16.83333333 18.04166667 18.91666667 17 21 C17.66 21.33 18.32 21.66 19 22 C18.01 22.33 17.02 22.66 16 23 C15.34 22.67 14.68 22.34 14 22 C13.29508733 19.67793475 12.62787571 17.34406932 12 15 C11.67 14.67 11.34 14.34 11 14 C10.34 15.65 9.68 17.3 9 19 C8.01 18.34 7.02 17.68 6 17 C5.94367576 14.19564589 6.04185298 11.64853322 6.3125 8.875 C6.37373047 8.12089844 6.43496094 7.36679688 6.49804688 6.58984375 C6.6514533 4.72536562 6.82393459 2.86247502 7 1 C5.02 1 3.04 1 1 1 C1 10.9 1 20.8 1 31 C0.67 31 0.34 31 0 31 C0 20.77 0 10.54 0 0 Z " fill="#37383A" transform="translate(63,78)"/>
<path d="M0 0 C0.66 0.33 1.32 0.66 2 1 C1.01 1.33 0.02 1.66 -1 2 C-1.33 5.3 -1.66 8.6 -2 12 C-1.34 12 -0.68 12 0 12 C0.66 14.97 1.32 17.94 2 21 C4.64 21 7.28 21 10 21 C10.66 18.03 11.32 15.06 12 12 C14.475 12.495 14.475 12.495 17 13 C16.88637738 14.4800841 16.75877092 15.95910074 16.625 17.4375 C16.55539063 18.26121094 16.48578125 19.08492187 16.4140625 19.93359375 C16.27742188 20.61550781 16.14078125 21.29742187 16 22 C15.34 22.33 14.68 22.66 14 23 C14 22.34 14 21.68 14 21 C13.01 21.7734375 13.01 21.7734375 12 22.5625 C7.85340174 24.54941167 5.46979435 23.83335149 1 23 C1.66 25.64 2.32 28.28 3 31 C2.34 30.67 1.68 30.34 1 30 C1 29.34 1 28.68 1 28 C-0.98 28.33 -2.96 28.66 -5 29 C-5 28.01 -5 27.02 -5 26 C-3.68 25.67 -2.36 25.34 -1 25 C-1.34786708 23.02463255 -1.34786708 23.02463255 -2 21 C-2.66 20.67 -3.32 20.34 -4 20 C-3.01 20 -2.02 20 -1 20 C-2.30155006 15.92035719 -2.30155006 15.92035719 -4 12 C-4.35141497 8.96400511 -4.42725927 6.02965662 -4 3 C-2 0.9375 -2 0.9375 0 0 Z " fill="#E4BF6A" transform="translate(62,46)"/>
<path d="M0 0 C1.98 0 3.96 0 6 0 C6.05380578 2.79192205 6.09357669 5.5828141 6.125 8.375 C6.15013672 9.56609375 6.15013672 9.56609375 6.17578125 10.78125 C6.19335473 12.85492015 6.10335168 14.92883241 6 17 C5.34 17.66 4.68 18.32 4 19 C3.32059533 21.42715206 3.32059533 21.42715206 2.875 24.125 C2.70742187 25.03507812 2.53984375 25.94515625 2.3671875 26.8828125 C2.24601562 27.58148438 2.12484375 28.28015625 2 29 C1.34 29 0.68 29 0 29 C0 19.43 0 9.86 0 0 Z " fill="#040507" transform="translate(64,79)"/>
<path d="M0 0 C3.35274214 0.5333908 6.51307947 1.42199552 9.75 2.4375 C7.77 3.4275 7.77 3.4275 5.75 4.4375 C5.75 7.0775 5.75 9.7175 5.75 12.4375 C1.81329512 13.74973496 -0.37488144 12.68046256 -4.25 11.4375 C-5.15077361 7.91629408 -5.46686761 5.99171722 -4.125 2.5625 C-2.25 0.4375 -2.25 0.4375 0 0 Z " fill="#B2B2B2" transform="translate(146.25,122.5625)"/>
<path d="M0 0 C0 2.97 0 5.94 0 9 C-0.66 8.01 -1.32 7.02 -2 6 C-2 9.96 -2 13.92 -2 18 C-3.65 18 -5.3 18 -7 18 C-6.67 19.32 -6.34 20.64 -6 22 C-8.31 21.67 -10.62 21.34 -13 21 C-13.84454356 17.62182575 -14.10844919 15.32534757 -13 12 C-9.71303767 11.20046862 -8.28976808 10.90341064 -5 12 C-4.96261719 11.38511719 -4.92523438 10.77023438 -4.88671875 10.13671875 C-4.82097656 9.32847656 -4.75523438 8.52023438 -4.6875 7.6875 C-4.62949219 6.88699219 -4.57148437 6.08648437 -4.51171875 5.26171875 C-3.99058337 2.95837994 -2.79582327 0 0 0 Z " fill="#F6F9F8" transform="translate(46,84)"/>
<path d="M0 0 C0.33 0 0.66 0 1 0 C1.12117188 0.59167969 1.24234375 1.18335937 1.3671875 1.79296875 C2.27255056 6.06210379 3.33492253 9.95624043 5 14 C5 14.99 5 15.98 5 17 C3.35 17 1.7 17 0 17 C2.31 21.62 4.62 26.24 7 31 C1.11299603 28.05649802 -1.98331585 23.5879233 -4.375 17.5 C-4.58125 16.675 -4.7875 15.85 -5 15 C-3.35 15 -1.7 15 0 15 C-0.33 14.34 -0.66 13.68 -1 13 C-1.09585131 11.35643193 -1.12983511 9.70885358 -1.125 8.0625 C-1.12757812 7.18722656 -1.13015625 6.31195313 -1.1328125 5.41015625 C-1 3 -1 3 0 0 Z " fill="#AD1C2E" transform="translate(44,87)"/>
<path d="M0 0 C5.94 0 11.88 0 18 0 C18 0.66 18 1.32 18 2 C16.35 2 14.7 2 13 2 C13 2.66 13 3.32 13 4 C14.32 4.33 15.64 4.66 17 5 C15.68 5 14.36 5 13 5 C13 5.99 13 6.98 13 8 C14.65 8 16.3 8 18 8 C18 8.33 18 8.66 18 9 C16.56344146 9.08131463 15.1255517 9.13933559 13.6875 9.1875 C12.48673828 9.23970703 12.48673828 9.23970703 11.26171875 9.29296875 C8.52148416 8.93801608 7.70828921 8.10633718 6 6 C5.01 7.485 5.01 7.485 4 9 C4 6.36 4 3.72 4 1 C3.34 1 2.68 1 2 1 C2 3.64 2 6.28 2 9 C1.34 9 0.68 9 0 9 C0 6.03 0 3.06 0 0 Z " fill="#848484" transform="translate(119,112)"/>
<path d="M0 0 C6.69034366 0.44602291 12.02812122 3.07345542 18 6 C18 6.66 18 7.32 18 8 C16.68 8.33 15.36 8.66 14 9 C14.66708984 10.04800781 14.66708984 10.04800781 15.34765625 11.1171875 C16.19650391 12.48230469 16.19650391 12.48230469 17.0625 13.875 C17.63097656 14.77992187 18.19945313 15.68484375 18.78515625 16.6171875 C19.18605469 17.40351562 19.58695313 18.18984375 20 19 C19.67 19.66 19.34 20.32 19 21 C18.54109375 20.59007813 18.0821875 20.18015625 17.609375 19.7578125 C16.99578125 19.21898438 16.3821875 18.68015625 15.75 18.125 C15.14671875 17.59132813 14.5434375 17.05765625 13.921875 16.5078125 C12.02581254 15.0202513 10.18709995 13.99677564 8 13 C9 10 9 10 11 8 C11 7.34 11 6.68 11 6 C9.948125 5.5978125 9.948125 5.5978125 8.875 5.1875 C5.8350176 3.9318551 2.9272226 2.49764877 0 1 C0 0.67 0 0.34 0 0 Z " fill="#B34250" transform="translate(90,59)"/>
<path d="M0 0 C5.61 0.66 11.22 1.32 17 2 C17 3.32 17 4.64 17 6 C21.62 5.67 26.24 5.34 31 5 C25.31293522 9.26529859 20.22908519 11.54218139 13 11 C13.33 9.02 13.66 7.04 14 5 C13.11248047 4.94392578 13.11248047 4.94392578 12.20703125 4.88671875 C7.42978922 4.48926468 3.91240961 4.02896228 0 1 C0 0.67 0 0.34 0 0 Z " fill="#AF393E" transform="translate(61,123)"/>
<path d="M0 0 C11.52164009 -0.55353075 11.52164009 -0.55353075 17 3 C17.33 2.34 17.66 1.68 18 1 C18 5.95 18 10.9 18 16 C17.34 16 16.68 16 16 16 C15.67 16.66 15.34 17.32 15 18 C14.16094435 16.87926138 13.32892169 15.75325453 12.5 14.625 C12.0359375 13.99851562 11.571875 13.37203125 11.09375 12.7265625 C10 11 10 11 10 9 C11.32 8.67 12.64 8.34 14 8 C14 7.34 14 6.68 14 6 C13.175 5.731875 12.35 5.46375 11.5 5.1875 C7.63084439 3.87475078 3.82005706 2.44898716 0 1 C0 0.67 0 0.34 0 0 Z " fill="#F5E7E3" transform="translate(94,59)"/>
<path d="M0 0 C2 2 2 2 2.23046875 4.171875 C2.15200005 8.87999721 1.97451578 13.37105003 1 18 C-0.32 17.67 -1.64 17.34 -3 17 C-3 16.34 -3 15.68 -3 15 C-3.66 15 -4.32 15 -5 15 C-5.226875 15.53625 -5.45375 16.0725 -5.6875 16.625 C-7.43382056 19.78500863 -9.6402849 22.2676983 -12 25 C-12.33 24.34 -12.66 23.68 -13 23 C-12.26821134 20.92803369 -11.44100997 18.8891448 -10.5625 16.875 C-10.08941406 15.77929688 -9.61632812 14.68359375 -9.12890625 13.5546875 C-8.75636719 12.71164063 -8.38382812 11.86859375 -8 11 C-5.525 11.99 -5.525 11.99 -3 13 C-2.01 8.71 -1.02 4.42 0 0 Z " fill="#A8222C" transform="translate(115,94)"/>
<path d="M0 0 C1.98 0.495 1.98 0.495 4 1 C4 1.66 4 2.32 4 3 C3.34 3 2.68 3 2 3 C3.24149649 8.64316588 4.72896385 12.01369959 9 16 C12.67924984 16.96838142 12.67924984 16.96838142 16 17 C16.1875 19.875 16.1875 19.875 16 23 C15.01 23.66 14.02 24.32 13 25 C12.34 24.67 11.68 24.34 11 24 C10.86335938 23.3709375 10.72671875 22.741875 10.5859375 22.09375 C9.84293208 19.43874398 8.92727938 18.93771033 6.625 17.5 C2.76242527 14.90384322 0.47384026 12.89536105 -0.6875 8.25 C-0.790625 7.5075 -0.89375 6.765 -1 6 C-0.34 6 0.32 6 1 6 C0.67 4.02 0.34 2.04 0 0 Z " fill="#FCEEC0" transform="translate(48,98)"/>
<path d="M0 0 C-0.66 0.66 -1.32 1.32 -2 2 C-2.31863689 4.10589077 -2.31863689 4.10589077 -2.25 6.4375 C-2.25515625 7.21996094 -2.2603125 8.00242187 -2.265625 8.80859375 C-2.13176831 11.29044107 -2.13176831 11.29044107 0 14 C0.125 16.6875 0.125 16.6875 0 19 C-2.76276177 18.47731534 -5.3260876 17.89130413 -8 17 C-8 16.34 -8 15.68 -8 15 C-7.34 15 -6.68 15 -6 15 C-6.99 12.03 -7.98 9.06 -9 6 C-8.34 6 -7.68 6 -7 6 C-6.9175 5.21625 -6.835 4.4325 -6.75 3.625 C-6 1 -6 1 -4.0625 -0.375 C-2 -1 -2 -1 0 0 Z " fill="#FAF4E2" transform="translate(61,47)"/>
<path d="M0 0 C0.66 0.33 1.32 0.66 2 1 C1.74445946 2.46109063 1.46999628 3.91888096 1.1875 5.375 C1.03667969 6.18710938 0.88585937 6.99921875 0.73046875 7.8359375 C0 10 0 10 -3 12 C-3.99 11.67 -4.98 11.34 -6 11 C-6.99 11.33 -7.98 11.66 -9 12 C-10.21869929 14.50447516 -10.21869929 14.50447516 -11 17 C-12.32 17 -13.64 17 -15 17 C-16.76462683 13.91190305 -17 12.76687864 -17 9 C-16.39671875 9.02320312 -15.7934375 9.04640625 -15.171875 9.0703125 C-14.37265625 9.08835937 -13.5734375 9.10640625 -12.75 9.125 C-11.56664063 9.15980469 -11.56664063 9.15980469 -10.359375 9.1953125 C-7.79268059 8.9828378 -6.2083933 8.28654105 -4 7 C-3.67 7.33 -3.34 7.66 -3 8 C-2.01 5.36 -1.02 2.72 0 0 Z " fill="#393732" transform="translate(80,60)"/>
<path d="M0 0 C0.66 0 1.32 0 2 0 C2 1.65 2 3.3 2 5 C2.66 5 3.32 5 4 5 C4.66 3.35 5.32 1.7 6 0 C8.52259061 1.97420135 8.9929808 2.96745642 9.6875 6.1875 C9.790625 7.115625 9.89375 8.04375 10 9 C9.34 9 8.68 9 8 9 C8 8.34 8 7.68 8 7 C7.01 7 6.02 7 5 7 C4.67 7.99 4.34 8.98 4 10 C3.34 10 2.68 10 2 10 C1.34 11.32 0.68 12.64 0 14 C-1.32 13.01 -2.64 12.02 -4 11 C-3.34 9.68 -2.68 8.36 -2 7 C-1.34 7.33 -0.68 7.66 0 8 C0 5.36 0 2.72 0 0 Z " fill="#B0B0B0" transform="translate(141,112)"/>
<path d="M0 0 C1.65 0 3.3 0 5 0 C5 0.66 5 1.32 5 2 C5.62648438 1.91621094 6.25296875 1.83242188 6.8984375 1.74609375 C7.71570313 1.64425781 8.53296875 1.54242188 9.375 1.4375 C10.18710938 1.33308594 10.99921875 1.22867188 11.8359375 1.12109375 C14 1 14 1 16 2 C16 2.99 16 3.98 16 5 C16.598125 5.268125 17.19625 5.53625 17.8125 5.8125 C20.01819033 7.00987475 21.43583187 8.04478984 23 10 C23 10.99 23 11.98 23 13 C22.34 13 21.68 13 21 13 C21 13.99 21 14.98 21 16 C20.01 15.67 19.02 15.34 18 15 C18 14.34 18 13.68 18 13 C18.66 13 19.32 13 20 13 C19.42055068 11.00136244 19.42055068 11.00136244 18 9 C14.95800528 7.70768358 14.95800528 7.70768358 12 7 C12.33 6.01 12.66 5.02 13 4 C10.03 4 7.06 4 4 4 C4 3.34 4 2.68 4 2 C2.35 2 0.7 2 -1 2 C-0.67 1.34 -0.34 0.68 0 0 Z " fill="#B25B5F" transform="translate(62,38)"/>
<path d="M0 0 C0.33 0.33 0.66 0.66 1 1 C3.05396726 0.59070014 3.05396726 0.59070014 5 0 C2.00487645 5.03725324 -1.26707856 6.0269737 -6.66015625 7.421875 C-7.43230469 7.61265625 -8.20445313 7.8034375 -9 8 C-9.99 8.33 -10.98 8.66 -12 9 C-12.66 8.67 -13.32 8.34 -14 8 C-14.66 9.65 -15.32 11.3 -16 13 C-16.66 12.67 -17.32 12.34 -18 12 C-18 11.01 -18 10.02 -18 9 C-17.01 9 -16.02 9 -15 9 C-15 8.01 -15 7.02 -15 6 C-14.34 6 -13.68 6 -13 6 C-12.67 5.34 -12.34 4.68 -12 4 C-10.35 4 -8.7 4 -7 4 C-7.66 3.34 -8.32 2.68 -9 2 C-5.87703962 0.14935681 -3.62059232 -0.29356154 0 0 Z " fill="#F3F8F7" transform="translate(69,32)"/>
<path d="M0 0 C0 2.64 0 5.28 0 8 C1.32 8 2.64 8 4 8 C4 8.66 4 9.32 4 10 C2.33388095 10.042721 0.66617115 10.04063832 -1 10 C-2 9 -2 9 -2.0625 5.9375 C-2.041875 4.968125 -2.02125 3.99875 -2 3 C-2.33 3.99 -2.66 4.98 -3 6 C-4.65 6 -6.3 6 -8 6 C-8 6.66 -8 7.32 -8 8 C-6.35 8 -4.7 8 -3 8 C-3 8.66 -3 9.32 -3 10 C-4.98 10 -6.96 10 -9 10 C-9 6.7 -9 3.4 -9 0 C-3.375 -1.125 -3.375 -1.125 0 0 Z " fill="#949494" transform="translate(129,125)"/>
<path d="M0 0 C4.85320605 0.28548271 4.85320605 0.28548271 7.1875 2.1875 C8.125 5.125 8.125 5.125 8.1875 8.1875 C6.39970342 10.77980504 5.22747185 11.17417605 2.1875 12.1875 C1.8575 12.8475 1.5275 13.5075 1.1875 14.1875 C2.5075 14.1875 3.8275 14.1875 5.1875 14.1875 C4.5275 15.5075 3.8675 16.8275 3.1875 18.1875 C3.1875 17.5275 3.1875 16.8675 3.1875 16.1875 C1.8675 15.8575 0.5475 15.5275 -0.8125 15.1875 C-0.855221 13.52138095 -0.85313832 11.85367115 -0.8125 10.1875 C0.1875 9.1875 0.1875 9.1875 3.25 9.125 C4.7040625 9.1559375 4.7040625 9.1559375 6.1875 9.1875 C6.1875 7.8675 6.1875 6.5475 6.1875 5.1875 C4.5375 5.5175 2.8875 5.8475 1.1875 6.1875 C0.73375 5.548125 0.28 4.90875 -0.1875 4.25 C-1.65171726 2.09047594 -1.65171726 2.09047594 -3.8125 1.1875 C-2.8125 0.1875 -2.8125 0.1875 0 0 Z " fill="#F3B52B" transform="translate(66.8125,45.8125)"/>
<path d="M0 0 C0 2.64 0 5.28 0 8 C-4.43409099 9.10852275 -8.45468578 9.21993456 -13 9 C-13.99 8.34 -14.98 7.68 -16 7 C-14.02 6.67 -12.04 6.34 -10 6 C-10 6.66 -10 7.32 -10 8 C-9.34 7.67 -8.68 7.34 -8 7 C-8.66 5.35 -9.32 3.7 -10 2 C-8.7090864 1.66376204 -7.41723903 1.33110751 -6.125 1 C-5.40570313 0.814375 -4.68640625 0.62875 -3.9453125 0.4375 C-2 0 -2 0 0 0 Z " fill="#0D0E0D" transform="translate(96,103)"/>
<path d="M0 0 C2 2 2 2 2.125 4.625 C2.08375 5.40875 2.0425 6.1925 2 7 C0.68 7 -0.64 7 -2 7 C-1.67 8.093125 -1.34 9.18625 -1 10.3125 C0.32985532 15.52890432 0.17693984 20.65248469 0 26 C-1.32 25.67 -2.64 25.34 -4 25 C-4 19.06 -4 13.12 -4 7 C-3.01 6.67 -2.02 6.34 -1 6 C-0.67 4.02 -0.34 2.04 0 0 Z " fill="#FCF6DB" transform="translate(111,79)"/>
<path d="M0 0 C1.32 0.33 2.64 0.66 4 1 C3.01 2.485 3.01 2.485 2 4 C2.94875 4.2475 3.8975 4.495 4.875 4.75 C8.43303673 6.17321469 8.55234022 6.69106337 10 10 C12.0335948 11.26804566 12.0335948 11.26804566 14 12 C14 13.65 14 15.3 14 17 C13.01 17.33 12.02 17.66 11 18 C10.34 15.69 9.68 13.38 9 11 C6.03 10.505 6.03 10.505 3 10 C3.33 9.01 3.66 8.02 4 7 C3.34 7 2.68 7 2 7 C1.34 4.69 0.68 2.38 0 0 Z " fill="#FAE7E7" transform="translate(96,68)"/>
<path d="M0 0 C0 0.66 0 1.32 0 2 C0.66 2.33 1.32 2.66 2 3 C1.01 3 0.02 3 -1 3 C-1 2.34 -1 1.68 -1 1 C-2.423125 1.99 -2.423125 1.99 -3.875 3 C-7 5 -7 5 -9 5 C-9.804375 5.99 -10.60875 6.98 -11.4375 8 C-12.283125 8.99 -13.12875 9.98 -14 11 C-14.99 11 -15.98 11 -17 11 C-17.33 11.99 -17.66 12.98 -18 14 C-18 12.35 -18 10.7 -18 9 C-17.34 9 -16.68 9 -16 9 C-15.69707031 8.36191406 -15.39414062 7.72382812 -15.08203125 7.06640625 C-14.66308594 6.24011719 -14.24414062 5.41382813 -13.8125 4.5625 C-13.40644531 3.73878906 -13.00039063 2.91507813 -12.58203125 2.06640625 C-11 0 -11 0 -8.53125 -0.8125 C-5.53820748 -1.03420685 -2.92912689 -0.61307307 0 0 Z " fill="#D49393" transform="translate(66,40)"/>
<path d="M0 0 C0.8971875 1.1446875 0.8971875 1.1446875 1.8125 2.3125 C3.46959332 4.3483575 5.10297674 6.1978279 7 8 C6.3125 9.9375 6.3125 9.9375 5 12 C0.51055376 13.76856973 -4.34463 12.65925719 -9 12 C-8.67 10.68 -8.34 9.36 -8 8 C-8 8.99 -8 9.98 -8 11 C-5.36 11 -2.72 11 0 11 C0 7.37 0 3.74 0 0 Z " fill="#EFF4F6" transform="translate(71,101)"/>
<path d="M0 0 C0.99 0 1.98 0 3 0 C2.50269348 4.97306516 1.44697666 8.63799813 -1 13 C-1.66 13 -2.32 13 -3 13 C-3 12.01 -3 11.02 -3 10 C-6.3 9.34 -9.6 8.68 -13 8 C-13 7.67 -13 7.34 -13 7 C-11.35 7 -9.7 7 -8 7 C-8 6.01 -8 5.02 -8 4 C-7.34 4 -6.68 4 -6 4 C-6 4.66 -6 5.32 -6 6 C-5.01 5.67 -4.02 5.34 -3 5 C-2.34 5.33 -1.68 5.66 -1 6 C-0.67 4.02 -0.34 2.04 0 0 Z " fill="#E6E6E5" transform="translate(104,104)"/>
<path d="M0 0 C0 0.99 0 1.98 0 3 C0.99 3.33 1.98 3.66 3 4 C1.948125 4.103125 0.89625 4.20625 -0.1875 4.3125 C-3.93485437 4.98825243 -5.86457358 5.96620989 -9 8 C-11.0625 8.8125 -11.0625 8.8125 -13 9 C-14.32 8.34 -15.64 7.68 -17 7 C-13.7 5.68 -10.4 4.36 -7 3 C-7.66 2.34 -8.32 1.68 -9 1 C-3.375 -1.125 -3.375 -1.125 0 0 Z " fill="#F6E3DB" transform="translate(97,126)"/>
<path d="M0 0 C6.69286912 -0.47617251 10.77531236 -0.39973696 16 4 C15.42676569 7.86933162 13.61046448 10.15222057 11 13 C10.34 13 9.68 13 9 13 C9.33 11.68 9.66 10.36 10 9 C10.66 9 11.32 9 12 9 C11.34 7.68 10.68 6.36 10 5 C9.01 5 8.02 5 7 5 C7 4.01 7 3.02 7 2 C4.69 1.67 2.38 1.34 0 1 C0 0.67 0 0.34 0 0 Z " fill="#141615" transform="translate(80,82)"/>
<path d="M0 0 C1.65 0.33 3.3 0.66 5 1 C4.88637738 2.4800841 4.75877092 3.95910074 4.625 5.4375 C4.55539063 6.26121094 4.48578125 7.08492188 4.4140625 7.93359375 C4.27742188 8.61550781 4.14078125 9.29742187 4 10 C3.01 10.495 3.01 10.495 2 11 C2 10.34 2 9.68 2 9 C-0.475 10.485 -0.475 10.485 -3 12 C-3.33 11.01 -3.66 10.02 -4 9 C-3.34 9 -2.68 9 -2 9 C-1.34 6.03 -0.68 3.06 0 0 Z " fill="#FBE2C7" transform="translate(74,58)"/>
<path d="M0 0 C0 0.66 0 1.32 0 2 C0.99 1.67 1.98 1.34 3 1 C2.67 2.32 2.34 3.64 2 5 C-0.64 5 -3.28 5 -6 5 C-6 3 -6 3 -4.6875 1.375 C-3 0 -3 0 0 0 Z M-7 5 C-5.68374806 7.63250388 -6.25186342 8.80179056 -6.9375 11.625 C-7.13214844 12.44226563 -7.32679688 13.25953125 -7.52734375 14.1015625 C-7.76130859 15.04128906 -7.76130859 15.04128906 -8 16 C-8.33 15.34 -8.66 14.68 -9 14 C-10.32 14 -11.64 14 -13 14 C-13 13.34 -13 12.68 -13 12 C-11.68 12 -10.36 12 -9 12 C-9 11.34 -9 10.68 -9 10 C-10.32 10 -11.64 10 -13 10 C-13 9.34 -13 8.68 -13 8 C-12.195625 7.690625 -11.39125 7.38125 -10.5625 7.0625 C-8.10919595 6.23664655 -8.10919595 6.23664655 -7 5 Z " fill="#F7F7F7" transform="translate(149,119)"/>
<path d="M0 0 C3.96 0 7.92 0 12 0 C11.01 0.33 10.02 0.66 9 1 C9 1.66 9 2.32 9 3 C10.32 3 11.64 3 13 3 C13.33 4.65 13.66 6.3 14 8 C13.34 8 12.68 8 12 8 C12 7.01 12 6.02 12 5 C11.01 5 10.02 5 9 5 C9 6.32 9 7.64 9 9 C8.34 9 7.68 9 7 9 C7 6.36 7 3.72 7 1 C6.01 1 5.02 1 4 1 C4 3.64 4 6.28 4 9 C3.34 9 2.68 9 2 9 C2 6.36 2 3.72 2 1 C1.34 0.67 0.68 0.34 0 0 Z " fill="#717171" transform="translate(150,126)"/>
<path d="M0 0 C0.33 0 0.66 0 1 0 C1 2.97 1 5.94 1 9 C0.34 8.01 -0.32 7.02 -1 6 C-1 9.96 -1 13.92 -1 18 C-2.65 18 -4.3 18 -6 18 C-5.67 19.32 -5.34 20.64 -5 22 C-5.99 21.67 -6.98 21.34 -8 21 C-8 19.68 -8 18.36 -8 17 C-6.68 16.67 -5.36 16.34 -4 16 C-4.05220703 15.00419922 -4.05220703 15.00419922 -4.10546875 13.98828125 C-4.37533753 5.18541854 -4.37533753 5.18541854 -1 1 C-0.67 0.67 -0.34 0.34 0 0 Z " fill="#F8DCE1" transform="translate(45,84)"/>
<path d="M0 0 C1.875 0.1875 1.875 0.1875 4 1 C5.18904741 3.31551338 5.88251319 5.46291746 6.4375 8 C6.93207721 10.16086313 6.93207721 10.16086313 8.5625 12.3125 C10.37409028 15.69938617 10.22262474 18.21537938 10 22 C9.01 21.67 8.02 21.34 7 21 C7.20625 20.4225 7.4125 19.845 7.625 19.25 C8.45336517 14.27980898 3.60868344 8.68439676 1.2421875 4.4609375 C0 2 0 2 0 0 Z " fill="#F3C79A" transform="translate(44,104)"/>
<path d="M0 0 C2.31 1.65 4.62 3.3 7 5 C6.67 6.65 6.34 8.3 6 10 C7.299375 10.433125 7.299375 10.433125 8.625 10.875 C11.75 11.91666667 14.875 12.95833333 18 14 C18 14.33 18 14.66 18 15 C15.125 15.125 15.125 15.125 12 15 C11.34 14.34 10.68 13.68 10 13 C8.03309626 12.32707499 8.03309626 12.32707499 5.875 11.875 C4.59625 11.58625 3.3175 11.2975 2 11 C1.855625 9.9275 1.71125 8.855 1.5625 7.75 C1.05134338 3.93354093 1.05134338 3.93354093 0 0 Z " fill="#FBF1DE" transform="translate(46,115)"/>
<path d="M0 0 C2 1.75 2 1.75 4 4 C4 5.32 4 6.64 4 8 C0.67465243 9.10844919 -1.62182575 8.84454356 -5 8 C-5 6.02 -5 4.04 -5 2 C-3.35 2 -1.7 2 0 2 C0 1.34 0 0.68 0 0 Z " fill="#F1F1F1" transform="translate(137,112)"/>
<path d="M0 0 C2 2 2 2 2.23046875 4.171875 C2.15200005 8.87999721 1.97451578 13.37105003 1 18 C-0.32 17.67 -1.64 17.34 -3 17 C-2.01 11.39 -1.02 5.78 0 0 Z " fill="#AE363D" transform="translate(115,94)"/>
<path d="M0 0 C0.33 0.66 0.66 1.32 1 2 C1.66 2 2.32 2 3 2 C3.433125 2.45375 3.86625 2.9075 4.3125 3.375 C7.84663835 6.77824434 12.28314616 7.34183435 17 8 C16.67 9.32 16.34 10.64 16 12 C16 11.01 16 10.02 16 9 C15.32453125 9.09539062 14.6490625 9.19078125 13.953125 9.2890625 C13.06109375 9.39992187 12.1690625 9.51078125 11.25 9.625 C10.36828125 9.74101562 9.4865625 9.85703125 8.578125 9.9765625 C5.77140122 10.00207817 4.36615134 9.44843844 2 8 C2.99 7.67 3.98 7.34 5 7 C2.69 5.35 0.38 3.7 -2 2 C-1.34 1.34 -0.68 0.68 0 0 Z " fill="#F1B986" transform="translate(58,120)"/>
<path d="M0 0 C1.54296875 1.62109375 1.54296875 1.62109375 3 4 C2.92578125 6.91015625 2.92578125 6.91015625 2.3125 10.0625 C2.12300781 11.10535156 1.93351562 12.14820312 1.73828125 13.22265625 C1 16 1 16 -1 19 C-3.475 18.01 -3.475 18.01 -6 17 C-5.34 16.67 -4.68 16.34 -4 16 C-3.34 16.33 -2.68 16.66 -2 17 C-2 14.03 -2 11.06 -2 8 C-1.67 8 -1.34 8 -1 8 C-0.67 5.36 -0.34 2.72 0 0 Z " fill="#EBB388" transform="translate(113,88)"/>
<path d="M0 0 C0.66 0.66 1.32 1.32 2 2 C1.9765625 4.6015625 1.9765625 4.6015625 1.625 7.625 C1.45871094 9.12933594 1.45871094 9.12933594 1.2890625 10.6640625 C1.14597656 11.82035156 1.14597656 11.82035156 1 13 C-1.64 13 -4.28 13 -7 13 C-6.67 11.68 -6.34 10.36 -6 9 C-5.34 9 -4.68 9 -4 9 C-4 7.02 -4 5.04 -4 3 C-3.67 3 -3.34 3 -3 3 C-2.34 5.31 -1.68 7.62 -1 10 C-0.67 6.7 -0.34 3.4 0 0 Z " fill="#191A1D" transform="translate(70,99)"/>
<path d="M0 0 C1.65 0 3.3 0 5 0 C5 0.99 5 1.98 5 3 C5.66 3 6.32 3 7 3 C8.26237731 5.52475462 8.09856404 7.31200466 8.0625 10.125 C8.05347656 11.03507812 8.04445313 11.94515625 8.03515625 12.8828125 C8.02355469 13.58148438 8.01195313 14.28015625 8 15 C6.35 15.33 4.7 15.66 3 16 C3 15.34 3 14.68 3 14 C4.32 14 5.64 14 7 14 C4.92090046 9.15580362 2.86684109 4.44360369 0 0 Z " fill="#FDF1DA" transform="translate(112,75)"/>
<path d="M0 0 C0.33 0 0.66 0 1 0 C1 1.98 1 3.96 1 6 C1.99 6.33 2.98 6.66 4 7 C2.68 7 1.36 7 0 7 C-0.99 9.64 -1.98 12.28 -3 15 C-3.66 15 -4.32 15 -5 15 C-4.125 10.25 -4.125 10.25 -3 8 C-4.32 8 -5.64 8 -7 8 C-6.67 7.01 -6.34 6.02 -6 5 C-4.35 4.67 -2.7 4.34 -1 4 C-0.67 2.68 -0.34 1.36 0 0 Z " fill="#EEC560" transform="translate(75,52)"/>
<path d="M0 0 C0.66 0 1.32 0 2 0 C2.09688221 5.44693314 2.12862175 10.63904667 1 16 C0.01 16 -0.98 16 -2 16 C-2 15.34 -2 14.68 -2 14 C-1.34 14 -0.68 14 0 14 C-0.99 11.03 -1.98 8.06 -3 5 C-2.34 5 -1.68 5 -1 5 C-0.67 3.35 -0.34 1.7 0 0 Z " fill="#F8E3E6" transform="translate(55,48)"/>
<path d="M0 0 C0.66 0 1.32 0 2 0 C1.33333333 1.33333333 0.66666667 2.66666667 0 4 C-0.433125 4.99 -0.433125 4.99 -0.875 6 C-2.25819063 8.45900556 -3.88208656 10.14682574 -6 12 C-6.66 12 -7.32 12 -8 12 C-8 12.66 -8 13.32 -8 14 C-9.65 14.33 -11.3 14.66 -13 15 C-13 14.34 -13 13.68 -13 13 C-12.34 13 -11.68 13 -11 13 C-10.7525 12.38125 -10.505 11.7625 -10.25 11.125 C-9 9 -9 9 -7.1875 8.1875 C-4.20688375 6.56945118 -2.95346647 4.27770245 -1.1484375 1.4609375 C-0.76945312 0.97882813 -0.39046875 0.49671875 0 0 Z " fill="#EDB683" transform="translate(110,109)"/>
<path d="M0 0 C1.485 0.99 1.485 0.99 3 2 C3 2.66 3 3.32 3 4 C5.31 4.66 7.62 5.32 10 6 C9.67 7.32 9.34 8.64 9 10 C8.34 10 7.68 10 7 10 C6.67 9.34 6.34 8.68 6 8 C5.01 7.67 4.02 7.34 3 7 C3 8.65 3 10.3 3 12 C2.01 11.67 1.02 11.34 0 11 C0.185625 10.29875 0.37125 9.5975 0.5625 8.875 C1.05156976 5.66111302 0.66231558 3.16439664 0 0 Z " fill="#F7DFDF" transform="translate(48,62)"/>
<path d="M0 0 C2.33944736 0.28730055 4.6739143 0.61936779 7 1 C7.1875 3.875 7.1875 3.875 7 7 C6.01 7.66 5.02 8.32 4 9 C3.34 8.67 2.68 8.34 2 8 C1.64587656 6.67203709 1.31478446 5.33783393 1 4 C0.34 3.01 -0.32 2.02 -1 1 C-0.67 0.67 -0.34 0.34 0 0 Z " fill="#F9F1DA" transform="translate(57,114)"/>
<path d="M0 0 C0.33 0 0.66 0 1 0 C1.12117188 0.59167969 1.24234375 1.18335937 1.3671875 1.79296875 C2.27255056 6.06210379 3.33492253 9.95624043 5 14 C5 14.99 5 15.98 5 17 C3.35 17 1.7 17 0 17 C0.99 16.34 1.98 15.68 3 15 C3 14.01 3 13.02 3 12 C2.34 12 1.68 12 1 12 C0.67 12.66 0.34 13.32 0 14 C-1 13 -1 13 -1.1328125 10.8203125 C-1.13023438 9.93085937 -1.12765625 9.04140625 -1.125 8.125 C-1.12757812 7.24070312 -1.13015625 6.35640625 -1.1328125 5.4453125 C-1 3 -1 3 0 0 Z " fill="#AE3D4E" transform="translate(44,87)"/>
<path d="M0 0 C3.5625 0.1875 3.5625 0.1875 5.5625 2.1875 C2.98845029 6.04857457 0.95229741 6.13069692 -3.4375 7.1875 C-3.81883299 5.1960944 -4.15075582 3.19470923 -4.4375 1.1875 C-3.4375 0.1875 -3.4375 0.1875 0 0 Z " fill="#070908" transform="translate(83.4375,82.8125)"/>
<path d="M0 0 C0.66 0.33 1.32 0.66 2 1 C1.74445946 2.46109063 1.46999628 3.91888096 1.1875 5.375 C1.03667969 6.18710938 0.88585937 6.99921875 0.73046875 7.8359375 C0 10 0 10 -3 12 C-3.99 11.67 -4.98 11.34 -6 11 C-8.14255793 11.38932856 -8.14255793 11.38932856 -10 12 C-9.67 11.01 -9.34 10.02 -9 9 C-6.4375 7.8125 -6.4375 7.8125 -4 7 C-3.67 7.33 -3.34 7.66 -3 8 C-2.01 5.36 -1.02 2.72 0 0 Z " fill="#A45253" transform="translate(80,60)"/>
<path d="M0 0 C0.66 0 1.32 0 2 0 C2.19573608 1.43640171 2.38127816 2.87419504 2.5625 4.3125 C2.66691406 5.11300781 2.77132812 5.91351563 2.87890625 6.73828125 C3 9 3 9 2 12 C1.01 12 0.02 12 -1 12 C-1 14.97 -1 17.94 -1 21 C-1.33 21 -1.66 21 -2 21 C-2 16.71 -2 12.42 -2 8 C-1.34 8 -0.68 8 0 8 C0 5.36 0 2.72 0 0 Z " fill="#E1E1E1" transform="translate(121,113)"/>
<path d="M0 0 C1 3 1 3 0 6 C-0.66 6 -1.32 6 -2 6 C-1.814375 6.556875 -1.62875 7.11375 -1.4375 7.6875 C-0.92448835 10.399133 -1.3359276 12.34371039 -2 15 C-2.99 14.67 -3.98 14.34 -5 14 C-5 10.66666667 -5 7.33333333 -5 4 C-4.01 3.67 -3.02 3.34 -2 3 C-1.34 2.01 -0.68 1.02 0 0 Z " fill="#BC6665" transform="translate(54,47)"/>
<path d="M0 0 C3.63 0.33 7.26 0.66 11 1 C11 1.33 11 1.66 11 2 C9.37787941 2.52973311 7.75218416 3.04853107 6.125 3.5625 C5.22007813 3.85253906 4.31515625 4.14257812 3.3828125 4.44140625 C1 5 1 5 -1 4 C-1.66 5.65 -2.32 7.3 -3 9 C-3.66 8.67 -4.32 8.34 -5 8 C-5 7.01 -5 6.02 -5 5 C-4.01 5 -3.02 5 -2 5 C-2 4.01 -2 3.02 -2 2 C-1.34 2 -0.68 2 0 2 C0 1.34 0 0.68 0 0 Z " fill="#F9E9E7" transform="translate(56,36)"/>
<path d="M0 0 C0 0.99 0 1.98 0 3 C1.65 3 3.3 3 5 3 C4.67 4.32 4.34 5.64 4 7 C4 6.01 4 5.02 4 4 C3.278125 4.433125 2.55625 4.86625 1.8125 5.3125 C-0.79166667 6.875 -3.39583333 8.4375 -6 10 C-6 9.01 -6 8.02 -6 7 C-5.01 7 -4.02 7 -3 7 C-3.66 5.02 -4.32 3.04 -5 1 C-2 0 -2 0 0 0 Z " fill="#FBF4DA" transform="translate(93,115)"/>
<path d="M0 0 C0.99 0.33 1.98 0.66 3 1 C3 2.32 3 3.64 3 5 C2.34 5 1.68 5 1 5 C1.061875 5.78375 1.12375 6.5675 1.1875 7.375 C1.125625 8.24125 1.06375 9.1075 1 10 C0.01 10.66 -0.98 11.32 -2 12 C-2 11.34 -2 10.68 -2 10 C-2.66 9.67 -3.32 9.34 -4 9 C-4 8.01 -4 7.02 -4 6 C-3.34 6 -2.68 6 -2 6 C-2 4.68 -2 3.36 -2 2 C-1.34 1.34 -0.68 0.68 0 0 Z " fill="#050605" transform="translate(89,86)"/>
<path d="M0 0 C3.96 0 7.92 0 12 0 C8.08720339 2.93459746 7.2725511 3.38996374 2.75 3.6875 C1.85796875 3.75324219 0.9659375 3.81898438 0.046875 3.88671875 C-0.62859375 3.92410156 -1.3040625 3.96148437 -2 4 C-2 3.34 -2 2.68 -2 2 C-1.34 2 -0.68 2 0 2 C0 1.34 0 0.68 0 0 Z " fill="#A4292E" transform="translate(76,130)"/>
<path d="M0 0 C1.98 0 3.96 0 6 0 C4.68 0.33 3.36 0.66 2 1 C2 1.66 2 2.32 2 3 C3.32 3 4.64 3 6 3 C6 3.66 6 4.32 6 5 C4.68 5 3.36 5 2 5 C2 5.66 2 6.32 2 7 C3.32 7 4.64 7 6 7 C6 7.66 6 8.32 6 9 C4.02 9 2.04 9 0 9 C0 6.03 0 3.06 0 0 Z " fill="#787878" transform="translate(134,126)"/>
<path d="M0 0 C0.33 0.66 0.66 1.32 1 2 C4.02934491 2.65772428 4.02934491 2.65772428 7 3 C7.33 4.65 7.66 6.3 8 8 C7.01 8 6.02 8 5 8 C5 7.34 5 6.68 5 6 C3.02 6.33 1.04 6.66 -1 7 C-1 4.37886292 -0.68707555 2.49064888 0 0 Z " fill="#030504" transform="translate(81,103)"/>
<path d="M0 0 C0.763125 0.0825 1.52625 0.165 2.3125 0.25 C2.3125 0.91 2.3125 1.57 2.3125 2.25 C1.6525 2.25 0.9925 2.25 0.3125 2.25 C0.065 2.8275 -0.1825 3.405 -0.4375 4 C-1.85433317 6.5502997 -3.56377537 8.26785701 -5.6875 10.25 C-5.90929212 6.99704886 -5.97351103 4.82202207 -4.5 1.875 C-2.6875 0.25 -2.6875 0.25 0 0 Z " fill="#DDDEDE" transform="translate(83.6875,88.75)"/>
<path d="M0 0 C0.33 0 0.66 0 1 0 C1 1.98 1 3.96 1 6 C-1.64 6 -4.28 6 -7 6 C-7.33 7.32 -7.66 8.64 -8 10 C-8.268125 9.21625 -8.53625 8.4325 -8.8125 7.625 C-9.84814432 4.71885077 -9.84814432 4.71885077 -13 3 C-12 2 -12 2 -9.4375 1.9375 C-8.2309375 1.9684375 -8.2309375 1.9684375 -7 2 C-6.67 2.66 -6.34 3.32 -6 4 C-3.47266765 4.65555119 -3.47266765 4.65555119 -1 5 C-0.67 3.35 -0.34 1.7 0 0 Z " fill="#EEEDEB" transform="translate(70,72)"/>
<path d="M0 0 C0.33 0.99 0.66 1.98 1 3 C0.34 3 -0.32 3 -1 3 C-1 3.66 -1 4.32 -1 5 C-0.01 5 0.98 5 2 5 C1.67 6.65 1.34 8.3 1 10 C0.34 10 -0.32 10 -1 10 C-1 9.01 -1 8.02 -1 7 C-3.64 7.66 -6.28 8.32 -9 9 C-9 8.34 -9 7.68 -9 7 C-8.360625 6.87625 -7.72125 6.7525 -7.0625 6.625 C-6.381875 6.41875 -5.70125 6.2125 -5 6 C-4.67 5.34 -4.34 4.68 -4 4 C-3.34 4.33 -2.68 4.66 -2 5 C-2 4.01 -2 3.02 -2 2 C-1.34 2 -0.68 2 0 2 C0 1.34 0 0.68 0 0 Z " fill="#DFB258" transform="translate(85,49)"/>
<path d="M0 0 C1.21185923 3.63557769 0.59260392 4.63783618 -1 8 C-2 9 -2 9 -4.5625 9.0625 C-5.366875 9.041875 -6.17125 9.02125 -7 9 C-7 9.66 -7 10.32 -7 11 C-7.66 11 -8.32 11 -9 11 C-9.33 9.68 -9.66 8.36 -10 7 C-7.525 7.495 -7.525 7.495 -5 8 C-4.34 6.35 -3.68 4.7 -3 3 C-2.34 3 -1.68 3 -1 3 C-0.67 2.01 -0.34 1.02 0 0 Z " fill="#FBF5D2" transform="translate(105,122)"/>
<path d="M0 0 C0.66 1.32 1.32 2.64 2 4 C1.01 4 0.02 4 -1 4 C-0.79375 4.928125 -0.5875 5.85625 -0.375 6.8125 C0 10 0 10 -2 13 C-2.66 12.67 -3.32 12.34 -4 12 C-4.50423019 6.70558305 -3.18923033 4.18586481 0 0 Z " fill="#FAF5F3" transform="translate(52,37)"/>
<path d="M0 0 C2.97 0 5.94 0 9 0 C9 0.66 9 1.32 9 2 C9.99 2.33 10.98 2.66 12 3 C12 3.66 12 4.32 12 5 C10.02 5 8.04 5 6 5 C6 4.34 6 3.68 6 3 C5.34 2.67 4.68 2.34 4 2 C3.67 2.33 3.34 2.66 3 3 C2.34 3 1.68 3 1 3 C0.67 2.01 0.34 1.02 0 0 Z " fill="#E2E2E2" transform="translate(128,121)"/>
<path d="M0 0 C5.27749285 0.53851968 9.25645564 1.77343836 14 4 C13.67 4.99 13.34 5.98 13 7 C8.1725201 5.58707905 4.2837641 3.57025846 0 1 C0 0.67 0 0.34 0 0 Z " fill="#A0383C" transform="translate(90,59)"/>
<path d="M0 0 C1.4540625 0.0309375 1.4540625 0.0309375 2.9375 0.0625 C2.9375 1.3825 2.9375 2.7025 2.9375 4.0625 C2.2775 4.0625 1.6175 4.0625 0.9375 4.0625 C0.9375 4.7225 0.9375 5.3825 0.9375 6.0625 C-0.3825 6.0625 -1.7025 6.0625 -3.0625 6.0625 C-3.44468767 4.40635343 -3.77645102 2.73792976 -4.0625 1.0625 C-3.0625 0.0625 -3.0625 0.0625 0 0 Z " fill="#E7E7E7" transform="translate(173.0625,126.9375)"/>
<path d="M0 0 C-0.33 1.98 -0.66 3.96 -1 6 C-2.32 6.33 -3.64 6.66 -5 7 C-5.66 4.69 -6.32 2.38 -7 0 C-3.86650268 -1.04449911 -3.01031744 -0.93423645 0 0 Z " fill="#FCE7CF" transform="translate(81,49)"/>
<path d="M0 0 C2.12038635 2.61514317 4.13091744 5.19637616 6 8 C4.02 8.99 2.04 9.98 0 11 C0 7.37 0 3.74 0 0 Z " fill="#D4D5D7" transform="translate(71,101)"/>
<path d="M0 0 C2.52259061 1.97420135 2.9929808 2.96745642 3.6875 6.1875 C3.790625 7.115625 3.89375 8.04375 4 9 C3.34 9 2.68 9 2 9 C2 8.34 2 7.68 2 7 C0.68 7 -0.64 7 -2 7 C-1.125 1.125 -1.125 1.125 0 0 Z " fill="#707070" transform="translate(147,112)"/>
<path d="M0 0 C3.85025879 0.60355408 6.86101159 1.76772603 10.3125 3.5625 C11.19550781 4.01753906 12.07851562 4.47257812 12.98828125 4.94140625 C13.65214844 5.29074219 14.31601563 5.64007813 15 6 C15 6.33 15 6.66 15 7 C12.03 6.67 9.06 6.34 6 6 C6 5.34 6 4.68 6 4 C4.02 3.01 2.04 2.02 0 1 C0 0.67 0 0.34 0 0 Z " fill="#F3BF85" transform="translate(86,59)"/>
<path d="M0 0 C0 1.65 0 3.3 0 5 C1.98 5 3.96 5 6 5 C5.34 5.66 4.68 6.32 4 7 C1.0625 6.1875 1.0625 6.1875 -2 5 C-2.33 4.01 -2.66 3.02 -3 2 C-5.31 2 -7.62 2 -10 2 C-10 1.67 -10 1.34 -10 1 C-6.56484998 0.37542727 -3.50935186 0 0 0 Z " fill="#F4DBCF" transform="translate(74,129)"/>
<path d="M0 0 C1.58971965 2.38457948 2.86741593 4.6304124 4.125 7.1875 C4.47820313 7.90292969 4.83140625 8.61835937 5.1953125 9.35546875 C5.46085937 9.89816406 5.72640625 10.44085938 6 11 C2.78034336 9.63783758 1.18312565 8.27468847 -0.75 5.375 C-1.17796875 4.74335937 -1.6059375 4.11171875 -2.046875 3.4609375 C-2.36140625 2.97882813 -2.6759375 2.49671875 -3 2 C-2.01 1.34 -1.02 0.68 0 0 Z " fill="#B04449" transform="translate(45,107)"/>
<path d="M0 0 C0 2.64 0 5.28 0 8 C-1.32 8 -2.64 8 -4 8 C-4 6.68 -4 5.36 -4 4 C-4.33 3.01 -4.66 2.02 -5 1 C-2 0 -2 0 0 0 Z " fill="#2E3130" transform="translate(96,103)"/>
<path d="M0 0 C1.14889133 3.93905597 1.52582695 7.93565958 2 12 C-1.08089673 9.22719294 -2.68775452 6.93673644 -4 3 C-2.68 2.67 -1.36 2.34 0 2 C0 1.34 0 0.68 0 0 Z " fill="#F2C1AF" transform="translate(108,65)"/>
<path d="M0 0 C0.33 0.66 0.66 1.32 1 2 C1.99 1.67 2.98 1.34 4 1 C6.33299825 0.96045766 8.66708189 0.95598268 11 1 C10.34 2.32 9.68 3.64 9 5 C4.545 4.01 4.545 4.01 0 3 C0 2.01 0 1.02 0 0 Z " fill="#FDE8E1" transform="translate(64,41)"/>
<path d="M0 0 C0.33 1.65 0.66 3.3 1 5 C-2.28696233 5.79953138 -3.71023192 6.09658936 -7 5 C-7 4.34 -7 3.68 -7 3 C-2.61538462 0 -2.61538462 0 0 0 Z " fill="#F4F8F7" transform="translate(95,130)"/>
<path d="M0 0 C0.125 3.375 0.125 3.375 0 7 C-0.66 7.66 -1.32 8.32 -2 9 C-2 8.34 -2 7.68 -2 7 C-3.32 7 -4.64 7 -6 7 C-6 6.34 -6 5.68 -6 5 C-4.68 5 -3.36 5 -2 5 C-2 4.34 -2 3.68 -2 3 C-3.32 3 -4.64 3 -6 3 C-6 2.34 -6 1.68 -6 1 C-3.92446352 0.4465236 -2.15634036 0 0 0 Z " fill="#EFEFEF" transform="translate(142,126)"/>
<path d="M0 0 C2.40072955 2.88087546 4.47291037 5.56404834 6 9 C5.01 9.33 4.02 9.66 3 10 C1.5 8.9375 1.5 8.9375 0 7 C-0.1875 3.3125 -0.1875 3.3125 0 0 Z " fill="#F4DADA" transform="translate(40,106)"/>
<path d="M0 0 C0.33 0.99 0.66 1.98 1 3 C1.66 3 2.32 3 3 3 C2.71125 3.495 2.4225 3.99 2.125 4.5 C0.58711584 7.91752035 -0.14847805 11.3506202 -1 15 C-1.33 15 -1.66 15 -2 15 C-2.21755666 9.5610835 -2.10428384 5.12919186 0 0 Z " fill="#F3F9F6" transform="translate(42,80)"/>
<path d="M0 0 C0.66 0 1.32 0 2 0 C2 2.97 2 5.94 2 9 C1.01 9 0.02 9 -1 9 C-1 8.01 -1 7.02 -1 6 C-2.94009522 4.29467677 -2.94009522 4.29467677 -5 3 C-3.68 3 -2.36 3 -1 3 C-0.67 2.01 -0.34 1.02 0 0 Z " fill="#E0E2D9" transform="translate(96,80)"/>
<path d="M0 0 C0.66 3.3 1.32 6.6 2 10 C1.34 9.67 0.68 9.34 0 9 C0 8.34 0 7.68 0 7 C-1.98 7.33 -3.96 7.66 -6 8 C-6 7.01 -6 6.02 -6 5 C-4.68 4.67 -3.36 4.34 -2 4 C-2.33 3.01 -2.66 2.02 -3 1 C-1 0 -1 0 0 0 Z " fill="#E3C4BC" transform="translate(63,67)"/>
<path d="M0 0 C0.66 0 1.32 0 2 0 C3.32229189 2.64458379 3.09677194 4.67761301 3.0625 7.625 C3.05347656 8.62789062 3.04445313 9.63078125 3.03515625 10.6640625 C3.02355469 11.43492188 3.01195313 12.20578125 3 13 C0.62054735 8.24109471 -0.10095578 5.45161235 0 0 Z " fill="#E0BA47" transform="translate(110,87)"/>
<path d="M0 0 C0.66 1.32 1.32 2.64 2 4 C2.97581759 5.35113205 3.97029741 6.68946944 5 8 C3.33333333 9.66666667 1.66666667 11.33333333 0 13 C0 8.71 0 4.42 0 0 Z " fill="#ECEDEF" transform="translate(71,78)"/>
<path d="M0 0 C2.04119788 1.61594832 4.04072937 3.2856382 6 5 C6 5.66 6 6.32 6 7 C3 9 3 9 1 10 C0.67 6.7 0.34 3.4 0 0 Z " fill="#DFB470" transform="translate(109,73)"/>
<path d="M0 0 C1.65 0.33 3.3 0.66 5 1 C5 1.66 5 2.32 5 3 C3.68 3.33 2.36 3.66 1 4 C1 4.66 1 5.32 1 6 C-0.32 6.33 -1.64 6.66 -3 7 C-2.67 5.35 -2.34 3.7 -2 2 C-1.34 2 -0.68 2 0 2 C0 1.34 0 0.68 0 0 Z " fill="#B12233" transform="translate(103,64)"/>
<path d="M0 0 C3.40667322 0.44824648 5.07914607 1.05276405 8 3 C8 3.66 8 4.32 8 5 C6.68 5.33 5.36 5.66 4 6 C3.54625 5.360625 3.0925 4.72125 2.625 4.0625 C1.16078274 1.90297594 1.16078274 1.90297594 -1 1 C-0.67 0.67 -0.34 0.34 0 0 Z " fill="#F2B427" transform="translate(64,46)"/>
<path d="M0 0 C0.99 0.66 1.98 1.32 3 2 C3 2.99 3 3.98 3 5 C3.66 5 4.32 5 5 5 C5 6.65 5 8.3 5 10 C3.68 10.33 2.36 10.66 1 11 C1 10.34 1 9.68 1 9 C1.66 9 2.32 9 3 9 C1.38731308 6.28775382 -0.24901874 3.62647188 -2 1 C-1.34 0.67 -0.68 0.34 0 0 Z " fill="#FCE8DC" transform="translate(83,43)"/>
<path d="M0 0 C0 1.65 0 3.3 0 5 C-0.66 5 -1.32 5 -2 5 C-2 4.34 -2 3.68 -2 3 C-5.63 3 -9.26 3 -13 3 C-13 2.34 -13 1.68 -13 1 C-11.20843648 0.83222817 -9.4167455 0.66581706 -7.625 0.5 C-6.62726563 0.4071875 -5.62953125 0.314375 -4.6015625 0.21875 C-2 0 -2 0 0 0 Z " fill="#F2C1C0" transform="translate(80,37)"/>
<path d="M0 0 C0.33 0 0.66 0 1 0 C1 2.64 1 5.28 1 8 C-0.65 7.67 -2.3 7.34 -4 7 C-3.67 5.35 -3.34 3.7 -3 2 C-2.34 2 -1.68 2 -1 2 C-0.67 1.34 -0.34 0.68 0 0 Z " fill="#ECECEC" transform="translate(133,126)"/>
<path d="M0 0 C1.65 0.33 3.3 0.66 5 1 C5 2.32 5 3.64 5 5 C1.25 6.125 1.25 6.125 -1 5 C-0.67 3.35 -0.34 1.7 0 0 Z " fill="#F0FCF5" transform="translate(41,114)"/>
<path d="M0 0 C1.98 0.495 1.98 0.495 4 1 C4 1.66 4 2.32 4 3 C3.34 3 2.68 3 2 3 C2.66 5.64 3.32 8.28 4 11 C2.68 10.67 1.36 10.34 0 10 C-0.33 8.68 -0.66 7.36 -1 6 C-0.34 6 0.32 6 1 6 C0.67 4.02 0.34 2.04 0 0 Z " fill="#F8E8DC" transform="translate(48,98)"/>
<path d="M0 0 C0.061875 0.61875 0.12375 1.2375 0.1875 1.875 C0.828919 4.27761141 0.828919 4.27761141 3.5625 5.25 C4.366875 5.4975 5.17125 5.745 6 6 C5.67 6.99 5.34 7.98 5 9 C2.13302508 7.71480435 0.02392288 6.42870746 -2 4 C-2 3.34 -2 2.68 -2 2 C-1.34 2 -0.68 2 0 2 C0 1.34 0 0.68 0 0 Z " fill="#1A1B1D" transform="translate(75,101)"/>
<path d="M0 0 C1.60332791 -0.08121924 3.20784026 -0.13929134 4.8125 -0.1875 C6.15248047 -0.23970703 6.15248047 -0.23970703 7.51953125 -0.29296875 C10.41647515 0.04918998 11.22555028 0.75393573 13 3 C10 5 10 5 7 5 C7 4.01 7 3.02 7 2 C4.69 1.67 2.38 1.34 0 1 C0 0.67 0 0.34 0 0 Z " fill="#292B2A" transform="translate(80,82)"/>
<path d="M0 0 C0.66 0 1.32 0 2 0 C2 2.31 2 4.62 2 7 C3.32 7 4.64 7 6 7 C6 7.66 6 8.32 6 9 C4.33388095 9.042721 2.66617115 9.04063832 1 9 C0 8 0 8 -0.09765625 6.15234375 C-0.06510417 4.1015625 -0.03255208 2.05078125 0 0 Z " fill="#7B7B7B" transform="translate(127,126)"/>
<path d="M0 0 C0.33 0.99 0.66 1.98 1 3 C-0.8125 5 -0.8125 5 -3 7 C-3.99 7 -4.98 7 -6 7 C-6.33 7.99 -6.66 8.98 -7 10 C-7 8.35 -7 6.7 -7 5 C-6.34 5 -5.68 5 -5 5 C-3.97971135 3.68212715 -2.98028616 2.34789347 -2 1 C-1.34 0.67 -0.68 0.34 0 0 Z " fill="#DC8E93" transform="translate(55,44)"/>
<path d="M0 0 C1.9375 0.75 1.9375 0.75 4 2 C4.75 4.125 4.75 4.125 5 6 C4.34 6 3.68 6 3 6 C3 6.99 3 7.98 3 9 C2.01 8.67 1.02 8.34 0 8 C0 7.34 0 6.68 0 6 C0.66 6 1.32 6 2 6 C1.34 4.02 0.68 2.04 0 0 Z " fill="#A34F48" transform="translate(80,45)"/>
<path d="M0 0 C4.33168317 -0.26252625 7.8803623 0.70756464 12 2 C12 2.33 12 2.66 12 3 C3.57142857 4.28571429 3.57142857 4.28571429 -1 3 C-0.67 2.01 -0.34 1.02 0 0 Z " fill="#DADADA" transform="translate(144,123)"/>
<path d="M0 0 C2.31 0.33 4.62 0.66 7 1 C7.33 2.65 7.66 4.3 8 6 C6 5 6 5 3 3 C2.67 3.66 2.34 4.32 2 5 C1.34 4.67 0.68 4.34 0 4 C0 2.68 0 1.36 0 0 Z " fill="#F3C5C5" transform="translate(74,45)"/>
<path d="M0 0 C2 2 2 2 2.125 4.625 C2.08375 5.40875 2.0425 6.1925 2 7 C0.68 7 -0.64 7 -2 7 C-2.33 8.32 -2.66 9.64 -3 11 C-3.33 9.68 -3.66 8.36 -4 7 C-3.01 6.67 -2.02 6.34 -1 6 C-0.67 4.02 -0.34 2.04 0 0 Z " fill="#FAD89F" transform="translate(111,79)"/>
<path d="M0 0 C1.32 0 2.64 0 4 0 C3.75 1.875 3.75 1.875 3 4 C0.9375 5.25 0.9375 5.25 -1 6 C-0.67 4.02 -0.34 2.04 0 0 Z " fill="#FEF4F4" transform="translate(75,60)"/>
<path d="M0 0 C0.33 0 0.66 0 1 0 C1 1.98 1 3.96 1 6 C1.99 6.33 2.98 6.66 4 7 C2.68 7 1.36 7 0 7 C-0.66 7.66 -1.32 8.32 -2 9 C-2.33 7.35 -2.66 5.7 -3 4 C-2.34 4 -1.68 4 -1 4 C-0.67 2.68 -0.34 1.36 0 0 Z " fill="#F5D48B" transform="translate(75,52)"/>
<path d="M0 0 C1.98 0.66 3.96 1.32 6 2 C7.125 7.75 7.125 7.75 6 10 C5.34 9.67 4.68 9.34 4 9 C3.855625 8.05125 3.71125 7.1025 3.5625 6.125 C2.9801943 2.88996834 2.51806487 1.97065946 0 0 Z " fill="#E0B439" transform="translate(68,46)"/>
<path d="M0 0 C1.66611905 -0.042721 3.33382885 -0.04063832 5 0 C6 1 6 1 6.0625 4.5625 C6.041875 5.696875 6.02125 6.83125 6 8 C5.67 6.68 5.34 5.36 5 4 C3.68 4 2.36 4 1 4 C0.67 2.68 0.34 1.36 0 0 Z " fill="#B2B2B2" transform="translate(158,125)"/>
<path d="M0 0 C0.33 0.66 0.66 1.32 1 2 C0.34 2.66 -0.32 3.32 -1 4 C-3.625 3.625 -3.625 3.625 -6 3 C-6 2.01 -6 1.02 -6 0 C-2.25 -1.125 -2.25 -1.125 0 0 Z " fill="#DBDBDB" transform="translate(138,117)"/>
<path d="M0 0 C0.99 0.33 1.98 0.66 3 1 C1.19587357 4.26460973 0.16605307 5.88929795 -3 8 C-1.125 1.125 -1.125 1.125 0 0 Z " fill="#9F3F44" transform="translate(105,111)"/>
<path d="M0 0 C2.79872437 2.52788007 4.45773019 4.20411134 5 8 C2.00675737 6.9024777 1.15389099 6.32317108 -0.25 3.375 C-0.4975 2.59125 -0.745 1.8075 -1 1 C-0.67 0.67 -0.34 0.34 0 0 Z " fill="#AE2B2D" transform="translate(105,72)"/>
<path d="M0 0 C2.00720923 0.28674418 4.0085944 0.61866701 6 1 C4 4 4 4 0.875 4.6875 C-0.07375 4.790625 -1.0225 4.89375 -2 5 C-1.125 1.125 -1.125 1.125 0 0 Z " fill="#AC4250" transform="translate(55,41)"/>
<path d="M0 0 C0.66 0.33 1.32 0.66 2 1 C2 3.31 2 5.62 2 8 C1.34 8 0.68 8 0 8 C-1.4606285 5.35261084 -2 4.10551666 -2 1 C-1.34 0.67 -0.68 0.34 0 0 Z " fill="#F1F9F2" transform="translate(86,40)"/>
<path d="M0 0 C0.99 0 1.98 0 3 0 C3 2.31 3 4.62 3 7 C2.34 7 1.68 7 1 7 C0.67 4.69 0.34 2.38 0 0 Z " fill="#F5F5F5" transform="translate(154,127)"/>
<path d="M0 0 C0.99 0 1.98 0 3 0 C3 1.98 3 3.96 3 6 C1.68 5.67 0.36 5.34 -1 5 C-0.67 3.35 -0.34 1.7 0 0 Z " fill="#F7F7F7" transform="translate(144,127)"/>
<path d="M0 0 C0.99 0 1.98 0 3 0 C2.74438677 2.3431213 2.40729228 4.67843403 2 7 C1.01 7.495 1.01 7.495 0 8 C0 5.36 0 2.72 0 0 Z " fill="#F6CFCE" transform="translate(104,104)"/>
<path d="M0 0 C1.85776765 3.13498292 2.20140476 5.37471432 2 9 C1.01 8.34 0.02 7.68 -1 7 C-1.25 3.9375 -1.25 3.9375 -1 1 C-0.67 0.67 -0.34 0.34 0 0 Z " fill="#010204" transform="translate(68,101)"/>
<path d="M0 0 C2.31 0.33 4.62 0.66 7 1 C6.34 2.32 5.68 3.64 5 5 C4.34 5 3.68 5 3 5 C3 4.34 3 3.68 3 3 C2.34 3 1.68 3 1 3 C0.67 2.01 0.34 1.02 0 0 Z " fill="#020302" transform="translate(82,83)"/>
<path d="M0 0 C1.32 0.33 2.64 0.66 4 1 C3.67 3.64 3.34 6.28 3 9 C2.4465236 6.92446352 2 5.15634036 2 3 C1.34 3.66 0.68 4.32 0 5 C0 3.35 0 1.7 0 0 Z " fill="#EAA56A" transform="translate(79,58)"/>
<path d="M0 0 C-1 2 -1 2 -2.8125 2.75 C-5.49828639 3.05694702 -6.7252187 2.38111722 -9 1 C-3.375 -1.125 -3.375 -1.125 0 0 Z " fill="#F2CC99" transform="translate(97,126)"/>
<path d="M0 0 C1.98 0 3.96 0 6 0 C5.67 0.99 5.34 1.98 5 3 C3.02 3 1.04 3 -1 3 C-0.67 2.01 -0.34 1.02 0 0 Z " fill="#F0FDFB" transform="translate(68,120)"/>
<path d="M0 0 C0.33 0 0.66 0 1 0 C0.67 2.31 0.34 4.62 0 7 C-0.66 7 -1.32 7 -2 7 C-2 6.01 -2 5.02 -2 4 C-2.66 3.67 -3.32 3.34 -4 3 C-2.68 2.67 -1.36 2.34 0 2 C0 1.34 0 0.68 0 0 Z " fill="#FAECE5" transform="translate(103,110)"/>
<path d="M0 0 C0 0.99 0 1.98 0 3 C-2.70879335 4.35439668 -5.00933268 4.06501451 -8 4 C-2.7826087 0 -2.7826087 0 0 0 Z " fill="#E4BE5E" transform="translate(90,124)"/>
<path d="M0 0 C2.31 0.33 4.62 0.66 7 1 C6.67 1.66 6.34 2.32 6 3 C3.4375 3.625 3.4375 3.625 1 4 C0.67 2.68 0.34 1.36 0 0 Z " fill="#FBF2D9" transform="translate(79,124)"/>
<path d="M0 0 C1 2 1 2 0.25 5.5625 C-0.1625 6.696875 -0.575 7.83125 -1 9 C-1.99 9.33 -2.98 9.66 -4 10 C-3.52449439 8.51965236 -3.04448784 7.04074979 -2.5625 5.5625 C-2.29566406 4.73878906 -2.02882813 3.91507812 -1.75390625 3.06640625 C-1 1 -1 1 0 0 Z " fill="#FAEDC0" transform="translate(110,112)"/>
<path d="M0 0 C0 0.66 0 1.32 0 2 C1.65 2 3.3 2 5 2 C5 2.33 5 2.66 5 3 C3.741875 3.04125 2.48375 3.0825 1.1875 3.125 C0.47980469 3.14820312 -0.22789063 3.17140625 -0.95703125 3.1953125 C-3 3 -3 3 -6 1 C-3 0 -3 0 0 0 Z " fill="#323433" transform="translate(86,109)"/>
<path d="M0 0 C0.33 0.66 0.66 1.32 1 2 C-0.65 2 -2.3 2 -4 2 C-3.67 3.32 -3.34 4.64 -3 6 C-3.99 5.67 -4.98 5.34 -6 5 C-6 3.68 -6 2.36 -6 1 C-4.02 0.67 -2.04 0.34 0 0 Z " fill="#F1C7C4" transform="translate(43,100)"/>
<path d="M0 0 C0.66 0 1.32 0 2 0 C2 1.32 2 2.64 2 4 C2.66 4 3.32 4 4 4 C4 4.99 4 5.98 4 7 C3.01 7 2.02 7 1 7 C0.67 4.69 0.34 2.38 0 0 Z " fill="#E5B825" transform="translate(113,80)"/>
<path d="M0 0 C0.99 0.33 1.98 0.66 3 1 C4.1875 3.5625 4.1875 3.5625 5 6 C3.35 6 1.7 6 0 6 C0 4.02 0 2.04 0 0 Z " fill="#9E4046" transform="translate(57,66)"/>
</svg>
