<?xml version="1.0" encoding="utf-8"?>
<!-- Generator: Adobe Illustrator 26.0.3, SVG Export Plug-In . SVG Version: 6.00 Build 0)  -->
<svg version="1.0" id="katman_1" xmlns="http://www.w3.org/2000/svg" xmlns:xlink="http://www.w3.org/1999/xlink" x="0px" y="0px"
	 viewBox="0 0 600 450" style="enable-background:new 0 0 600 450;" xml:space="preserve">
<style type="text/css">
	.st0{fill:#E4152B;}
	.st1{fill:#E83C38;}
	.st2{fill:#AE1736;}
	.st3{fill:#D01231;}
</style>
<g>
	<path class="st0" d="M144,171c-8.8-7-19.2-10.1-30.4-9l1.5,22.2c5.8-0.7,10.6,0.6,15,4.1c6.7,5.4,11.6,15.3,14.6,26.1l22.9,0.2l0,0
		c-0.8-3.6-1.7-7.2-2.8-10.6C160.2,189.6,153,178.2,144,171L144,171z"/>
	<g>
		<path class="st1" d="M116.9,161.8L116.9,161.8c-3.2,0.1-6.5,0.5-9.8,1.3c-18.5,4.3-33.9,20.6-41.2,43.5
			c-8.8,27.5-7.1,55.1,4.4,75.8c3,5.4,9.8,7.3,15.1,4.3s7.3-9.8,4.3-15.1c-8.6-15.4-9.6-36.6-2.7-58.3c5.8-18.1,17.1-26.8,25.1-28.6
			c1.6-0.4,3.2-0.6,4.7-0.7c0,0,0.1,0,0.1,0c6.1,0,11.1-5,11.1-11.1C128.1,166.8,123.1,161.8,116.9,161.8z"/>
		<path class="st2" d="M123.1,253.8c-1.1-6.4,2.3-12,9.1-14.6c4.9-1.8,10.2-2.5,15.8-2.7l22.2,0.3c5.9-0.3,10.6-5.1,10.6-11.1
			c0-6.1-5-11.1-11.1-11.1c-0.7,0-1.4,0-2.1,0l-22.9-0.2c-6.7,0.4-13.6,1.4-20.3,4c-17,6.4-26.1,22.1-23.3,38.8L123.1,253.8
			L123.1,253.8z"/>
		<path class="st0" d="M170.3,236.9l-22.2-0.3c0,1,0,1.9,0,2.8c-0.2,13.6-2.2,22.1-6,25.4c-1,0.8-2.4,1.4-4.1,1.7
			c-6.6,1-12.3-4.5-14.2-10.3c-0.1-0.4-0.3-0.8-0.4-1.2c-0.2-0.8-0.2-1.3-0.3-1.7c-1-5.1-5.5-9-10.9-9c-6.1,0-11.1,5-11.1,11.1
			c0,0.8,0.1,1.7,0.3,2.4c0,0.1,0,0.2,0,0.3c0.3,1.7,0.8,3.5,1.4,5.2c5.3,15.3,19,25.4,33.7,25.4c1.6,0,3.2-0.1,4.9-0.4
			c5.8-0.9,11-3.2,15.2-6.7c12-10.1,13.7-27.8,13.9-42C170.3,238.8,170.3,237.8,170.3,236.9L170.3,236.9z"/>
		<path class="st3" d="M148,236.6c0,0.8,0,1.7,0,2.8c0,1.7-0.1,3.4-0.2,4.9h22.3c0.1-1.6,0.1-3.1,0.1-4.6c0-0.9,0-1.9,0-2.8
			L148,236.6L148,236.6z"/>
	</g>
</g>
<path class="st1" d="M276.8,214.8v51.7h-13.3v-6.1c-3.7,4.7-9.3,7.6-16.9,7.6c-13.8,0-25.1-11.9-25.1-27.3s11.4-27.3,25.1-27.3
	c7.6,0,13.1,2.9,16.9,7.6v-6.1H276.8z M263.4,240.7c0-8.7-6.1-14.6-14.4-14.6c-8.2,0-14.3,5.9-14.3,14.6s6.1,14.6,14.3,14.6
	C257.3,255.2,263.4,249.3,263.4,240.7z M284.1,200.4c0-4.4,3.7-8.3,8.2-8.3c4.6,0,8.3,3.8,8.3,8.3s-3.7,8.2-8.3,8.2
	C287.8,208.6,284.1,204.9,284.1,200.4z M285.7,214.8H299v51.7h-13.3C285.7,266.5,285.7,214.8,285.7,214.8z M337,213.8v14.9
	c-6.9-0.8-15.7,2.3-15.7,13.1v24.7h-13.3v-51.7h13.3v8.9C323.9,216.7,330.4,213.8,337,213.8z M366,227.6v21.5c0,5.6,4,5.7,11.7,5.3
	v12.1c-18.7,2.1-25-3.4-25-17.4v-21.5h-9v-12.8h9v-10.5l13.3-4v14.5h11.7v12.8H366L366,227.6z M384.2,200.4c0-4.4,3.7-8.3,8.2-8.3
	c4.6,0,8.3,3.8,8.3,8.3s-3.7,8.2-8.3,8.2C388,208.6,384.2,204.9,384.2,200.4z M385.8,214.8h13.3v51.7h-13.3
	C385.8,266.5,385.8,214.8,385.8,214.8z M484.8,234.7v31.9h-13.3v-30.9c0-6.1-3.1-9.8-8.7-9.8c-5.9,0-9.6,3.9-9.6,11.7v29.1h-13.3
	v-30.9c0-6.1-3.1-9.8-8.7-9.8c-5.7,0-9.7,3.9-9.7,11.7v29.1h-13.3v-51.7h13.3v5.5c2.9-4.3,7.8-6.9,14.4-6.9c6.4,0,11.2,2.7,14.1,7.4
	c3.2-4.7,8.4-7.4,15.4-7.4C477.1,213.3,484.8,221.7,484.8,234.7L484.8,234.7z M520,255.9c5.2,0,9.3-2.2,11.6-5.2l10.8,6.2
	c-4.9,7-12.6,11.1-22.6,11.1c-17.4,0-28.3-11.9-28.3-27.3s11.1-27.3,27.3-27.3c15.3,0,26.2,12.1,26.2,27.3c0,2-0.2,3.7-0.5,5.5h-39
	C507.2,253,512.9,255.9,520,255.9L520,255.9z M531.5,235.8c-1.7-7.4-7.2-10.5-12.8-10.5c-7.1,0-12,3.8-13.6,10.5H531.5L531.5,235.8z
	"/>
</svg>
