<?xml version="1.0" encoding="UTF-8"?>
<svg version="1.1" xmlns="http://www.w3.org/2000/svg" width="148" height="148">
<path d="M0 0 C48.84 0 97.68 0 148 0 C148 48.84 148 97.68 148 148 C99.16 148 50.32 148 0 148 C0 99.16 0 50.32 0 0 Z " fill="#FDFDFC" transform="translate(0,0)"/>
<path d="M0 0 C0.89332031 0.29519531 1.78664063 0.59039063 2.70703125 0.89453125 C14.20512982 5.15922574 22.88877273 12.93729111 31.85546875 21.10546875 C35.42313028 24.25722802 39.20504904 27.12911511 43 30 C43.86882812 29.57847656 44.73765625 29.15695313 45.6328125 28.72265625 C46.78523438 28.17480469 47.93765625 27.62695312 49.125 27.0625 C50.26195313 26.51722656 51.39890625 25.97195312 52.5703125 25.41015625 C55.78186661 24.0896881 58.56709079 23.41215779 62 23 C62 22.34 62 21.68 62 21 C79.62936294 15.30983098 79.62936294 15.30983098 89.0625 17.8125 C91 19 91 19 92 22 C92.1484944 24.61864161 92.2310027 27.1932477 92.25 29.8125 C92.270625 30.51181641 92.29125 31.21113281 92.3125 31.93164062 C92.34841516 36.73080409 91.53400438 39.9335263 89 44 C84.24336264 48.39988956 80.81381405 49.15187813 74.4375 49.1875 C73.28121094 49.20167969 72.12492187 49.21585938 70.93359375 49.23046875 C68 49 68 49 66 47 C72.625 44 72.625 44 76 44 C76 43.34 76 42.68 76 42 C77.32 41.34 78.64 40.68 80 40 C74.90919695 39.79896192 70.90383354 40.37628821 66.0625 41.9375 C65.39790771 42.15132324 64.73331543 42.36514648 64.04858398 42.58544922 C55.45521976 45.41354729 47.01620028 48.68826107 38.56640625 51.9140625 C36.71151401 52.6109115 34.85607927 53.30631889 33 54 C32.20142578 54.30671631 31.40285156 54.61343262 30.58007812 54.92944336 C25.39894013 56.81649071 20.87433493 57.43840053 15.375 57.3125 C14.6634375 57.31572266 13.951875 57.31894531 13.21875 57.32226562 C8.47546701 57.2744853 4.50429533 56.48369833 0 55 C0 54.34 0 53.68 0 53 C0.50861572 52.77860352 1.01723145 52.55720703 1.54125977 52.32910156 C3.88346933 51.30679504 6.2229781 50.27844143 8.5625 49.25 C9.36236328 48.90195313 10.16222656 48.55390625 10.98632812 48.1953125 C14.75817148 46.53262237 18.4093676 44.82507241 21.96484375 42.734375 C25 41 25 41 27 41 C27 40.34 27 39.68 27 39 C25.90909058 38.57678467 25.90909058 38.57678467 24.79614258 38.14501953 C22.21652563 37.08866718 19.75068001 35.93237961 17.26171875 34.6796875 C16.36694824 34.23069092 15.47217773 33.78169434 14.55029297 33.3190918 C13.60557129 32.8425415 12.66084961 32.36599121 11.6875 31.875 C9.70443341 30.87889366 7.72136045 29.8828 5.73828125 28.88671875 C4.7632666 28.39606934 3.78825195 27.90541992 2.78369141 27.39990234 C-1.01588917 25.4891152 -4.8201657 23.58779733 -8.625 21.6875 C-9.8880529 21.05605372 -11.15107472 20.42454526 -12.4140625 19.79296875 C-13.00864258 19.49567871 -13.60322266 19.19838867 -14.21582031 18.89208984 C-18.81054688 16.59472656 -23.40527344 14.29736328 -28 12 C-26.58326878 3.18745159 -26.58326878 3.18745159 -22 -0.25 C-15.16843178 -3.85752251 -7.04070838 -2.38903749 0 0 Z " fill="#FCAF04" transform="translate(52,28)"/>
<path d="M0 0 C4.06275446 0.13923048 8.12512857 0.28753918 12.1875 0.4375 C13.33798828 0.47681641 14.48847656 0.51613281 15.67382812 0.55664062 C17.34155273 0.61948242 17.34155273 0.61948242 19.04296875 0.68359375 C20.57473755 0.73858032 20.57473755 0.73858032 22.13745117 0.79467773 C24.83828463 0.98840063 27.36166128 1.40451953 30 2 C30 2.33 30 2.66 30 3 C28.35 3.33 26.7 3.66 25 4 C27.36234576 5.18117288 29.53204193 5.56385422 32.125 6.0625 C33.03507812 6.23910156 33.94515625 6.41570312 34.8828125 6.59765625 C35.58148438 6.73042969 36.28015625 6.86320312 37 7 C37.495 8.98 37.495 8.98 38 11 C39.918125 10.938125 39.918125 10.938125 41.875 10.875 C44.0546875 10.8046875 44.0546875 10.8046875 46 11 C48.1385485 13.1385485 48.42655063 14.13275314 49 17 C49.0825 16.2575 49.165 15.515 49.25 14.75 C50.14809799 11.45697405 51.38416074 10.14023212 54 8 C54.66 8 55.32 8 56 8 C56 7.01 56 6.02 56 5 C58.4375 5.6875 58.4375 5.6875 61 7 C62.61396422 11.03491056 61.73918616 14.81127845 61 19 C61.66 19 62.32 19 63 19 C63 19.66 63 20.32 63 21 C62.113125 20.814375 61.22625 20.62875 60.3125 20.4375 C57.05981898 20.00790062 55.13808711 20.21547822 52 21 C46.25352113 22.12676056 46.25352113 22.12676056 44 21 C44.27617533 22.94074861 44.27617533 22.94074861 45 25 C45.99 25.66 46.98 26.32 48 27 C49.65 26.34 51.3 25.68 53 25 C52.67 29.62 52.34 34.24 52 39 C51.34 39 50.68 39 50 39 C49.505 35.04 49.505 35.04 49 31 C48.34 31 47.68 31 47 31 C47.99 34.96 47.99 34.96 49 39 C47.68 39 46.36 39 45 39 C44.505 36.03 44.505 36.03 44 33 C43.67 34.98 43.34 36.96 43 39 C39.625 39.125 39.625 39.125 36 39 C35.34 38.34 34.68 37.68 34 37 C33.34 38.32 32.68 39.64 32 41 C31.236875 40.979375 30.47375 40.95875 29.6875 40.9375 C26.89814214 40.87057159 26.89814214 40.87057159 24 42 C23.505 42.99 23.505 42.99 23 44 C23 43.34 23 42.68 23 42 C22.01 41.67 21.02 41.34 20 41 C20 38.36 20 35.72 20 33 C19.34 33 18.68 33 18 33 C17.34 34.98 16.68 36.96 16 39 C13.36 39 10.72 39 8 39 C7.67 39.66 7.34 40.32 7 41 C5.02 40.67 3.04 40.34 1 40 C1 39.34 1 38.68 1 38 C-1.475 38.495 -1.475 38.495 -4 39 C-4.66 37.68 -5.32 36.36 -6 35 C-6.495 35.66 -6.99 36.32 -7.5 37 C-11.10340212 39.8827217 -13.46985042 39.30200997 -18 39 C-18 34.71 -18 30.42 -18 26 C-16.68 25.67 -15.36 25.34 -14 25 C-14.33 23.68 -14.66 22.36 -15 21 C-16.32 21 -17.64 21 -19 21 C-19.33 19.35 -19.66 17.7 -20 16 C-18.02 16.66 -16.04 17.32 -14 18 C-14 14.37 -14 10.74 -14 7 C-13.01 7 -12.02 7 -11 7 C-10.67 8.32 -10.34 9.64 -10 11 C-9.113125 10.195625 -8.22625 9.39125 -7.3125 8.5625 C-4.61712968 6.2960841 -2.57936522 5.31582634 1 5 C1.33 5.99 1.66 6.98 2 8 C6.40219569 7.33300065 10.00855246 5.91896516 14 4 C14.33 3.34 14.66 2.68 15 2 C14.08476563 2.02320312 13.16953125 2.04640625 12.2265625 2.0703125 C10.44378906 2.09738281 10.44378906 2.09738281 8.625 2.125 C6.84996094 2.15980469 6.84996094 2.15980469 5.0390625 2.1953125 C2 2 2 2 0 0 Z " fill="#F3F3F3" transform="translate(34,83)"/>
<path d="M0 0 C0.66 0.33 1.32 0.66 2 1 C1.67 1.5775 1.34 2.155 1 2.75 C-0.27075898 5.19883862 -0.27075898 5.19883862 0 9 C0.5669458 9.25056152 1.1338916 9.50112305 1.71801758 9.75927734 C15.09350942 15.69407149 28.13566523 22.03009515 41 29 C42.35641 29.72853679 43.71316506 30.45643162 45.0703125 31.18359375 C48.05073869 32.78196276 51.02690819 34.38801844 54 36 C54 36.66 54 37.32 54 38 C35.65957447 48.14893617 35.65957447 48.14893617 27 50 C27 50.66 27 51.32 27 52 C28.98 52 30.96 52 33 52 C33 52.33 33 52.66 33 53 C18.15152212 53.28097556 6.26190264 53.3928053 -7 46 C-7 45.34 -7 44.68 -7 44 C-8.051875 43.7215625 -8.051875 43.7215625 -9.125 43.4375 C-13.04135028 41.47932486 -15.5338864 38.59323769 -18 35 C-18 34.34 -18 33.68 -18 33 C-18.66 33 -19.32 33 -20 33 C-22.07153537 26.78539389 -22.13339655 19.4411618 -19.375 13.5 C-13.74930963 7.57822066 -7.53040577 3.2730195 0 0 Z " fill="#FCB404" transform="translate(25,31)"/>
<path d="M0 0 C0.89332031 0.29519531 1.78664063 0.59039063 2.70703125 0.89453125 C14.20512982 5.15922574 22.88877273 12.93729111 31.85546875 21.10546875 C35.42313028 24.25722802 39.20504904 27.12911511 43 30 C42.67 30.99 42.34 31.98 42 33 C40.02 33.33 38.04 33.66 36 34 C36 34.66 36 35.32 36 36 C32.08842923 38.18320229 29.4767186 39.58952673 25 39 C21.92640748 37.70911436 19.04016699 36.11212493 16.125 34.5 C15.28074463 34.04512207 14.43648926 33.59024414 13.56665039 33.12158203 C11.03869494 31.75797045 8.51820297 30.38152473 6 29 C3.48230845 27.61911869 0.96230537 26.24283336 -1.5625 24.875 C-2.43938477 24.3958313 -2.43938477 24.3958313 -3.33398438 23.90698242 C-6.78889086 22.05647387 -10.28075088 20.42146345 -13.89453125 18.90234375 C-14.72202881 18.55252441 -15.54952637 18.20270508 -16.40209961 17.84228516 C-18.01918216 17.16888658 -19.64361493 16.51280818 -21.27563477 15.87646484 C-26.74450871 13.60795738 -26.74450871 13.60795738 -28.0703125 10.453125 C-27.96751415 6.86660485 -27.02042895 4.96750502 -25 2 C-17.41314607 -3.88368264 -8.80345184 -2.98716768 0 0 Z " fill="#030538" transform="translate(52,28)"/>
<path d="M0 0 C6.19928785 1.9211763 12.03272372 4.24277731 17.875 7.0625 C18.68437012 7.44954102 19.49374023 7.83658203 20.32763672 8.23535156 C32.43394807 14.07720132 44.27073157 20.43880004 56 27 C56 27.66 56 28.32 56 29 C53.29466468 30.46413471 50.58599307 31.92140832 47.875 33.375 C47.11445312 33.7875 46.35390625 34.2 45.5703125 34.625 C39.4468028 37.89791036 34.11146423 40.48487256 27 40 C26.34 39.67 25.68 39.34 25 39 C25 38.34 25 37.68 25 37 C24.443125 36.9175 23.88625 36.835 23.3125 36.75 C20.26322081 35.76104459 18.34810037 34.15242534 16 32 C16 31.34 16 30.68 16 30 C15.40058594 29.731875 14.80117188 29.46375 14.18359375 29.1875 C6.65740767 25.09454729 2.59335186 15.78005559 0 8 C-0.12781786 5.32605036 -0.04391871 2.67904143 0 0 Z " fill="#FBFBF7" transform="translate(23,40)"/>
<path d="M0 0 C2.4375 0.6875 2.4375 0.6875 5 2 C6.61396422 6.03491056 5.73918616 9.81127845 5 14 C5.66 14 6.32 14 7 14 C7 14.66 7 15.32 7 16 C6.113125 15.814375 5.22625 15.62875 4.3125 15.4375 C1.05981898 15.00790062 -0.86191289 15.21547822 -4 16 C-9.74647887 17.12676056 -9.74647887 17.12676056 -12 16 C-11.72382467 17.94074861 -11.72382467 17.94074861 -11 20 C-9.515 20.99 -9.515 20.99 -8 22 C-6.35 21.34 -4.7 20.68 -3 20 C-3.33 24.62 -3.66 29.24 -4 34 C-4.66 34 -5.32 34 -6 34 C-6.495 30.04 -6.495 30.04 -7 26 C-7.66 26 -8.32 26 -9 26 C-8.34 28.64 -7.68 31.28 -7 34 C-8.32 34 -9.64 34 -11 34 C-11.33 32.02 -11.66 30.04 -12 28 C-12.33 29.98 -12.66 31.96 -13 34 C-16.375 34.125 -16.375 34.125 -20 34 C-20.66 33.34 -21.32 32.68 -22 32 C-22.66 33.32 -23.32 34.64 -24 36 C-24.763125 35.979375 -25.52625 35.95875 -26.3125 35.9375 C-29.10185786 35.87057159 -29.10185786 35.87057159 -32 37 C-32.33 37.66 -32.66 38.32 -33 39 C-33 38.34 -33 37.68 -33 37 C-33.99 36.67 -34.98 36.34 -36 36 C-36 33.36 -36 30.72 -36 28 C-36.66 28 -37.32 28 -38 28 C-38.66 29.98 -39.32 31.96 -40 34 C-40.66 34 -41.32 34 -42 34 C-42 30.7 -42 27.4 -42 24 C-39.69 24 -37.38 24 -35 24 C-35.33 22.68 -35.66 21.36 -36 20 C-34.02 20 -32.04 20 -30 20 C-30 19.01 -30 18.02 -30 17 C-30.99 16.67 -31.98 16.34 -33 16 C-33 11.38 -33 6.76 -33 2 C-28.38 2 -23.76 2 -19 2 C-18.67 3.32 -18.34 4.64 -18 6 C-16.081875 5.938125 -16.081875 5.938125 -14.125 5.875 C-11.9453125 5.8046875 -11.9453125 5.8046875 -10 6 C-7.8614515 8.1385485 -7.57344937 9.13275314 -7 12 C-6.9175 11.2575 -6.835 10.515 -6.75 9.75 C-5.85190201 6.45697405 -4.61583926 5.14023212 -2 3 C-1.34 3 -0.68 3 0 3 C0 2.01 0 1.02 0 0 Z " fill="#ECECEC" transform="translate(90,88)"/>
<path d="M0 0 C0.99 0 1.98 0 3 0 C3.33 1.32 3.66 2.64 4 4 C4.515625 3.34 5.03125 2.68 5.5625 2 C8 0 8 0 11.625 -0.4375 C12.73875 -0.293125 13.8525 -0.14875 15 0 C17.47342266 3.71013399 17.38503486 5.61060262 17 10 C15.75 12.4375 15.75 12.4375 14 14 C12.68 14 11.36 14 10 14 C10.32742187 14.51046875 10.65484375 15.0209375 10.9921875 15.546875 C12.35648384 18.86772037 12.1912273 21.67372568 12.125 25.25 C12.10695313 26.51328125 12.08890625 27.7765625 12.0703125 29.078125 C12.04710938 30.04234375 12.02390625 31.0065625 12 32 C11.34 32 10.68 32 10 32 C9.34 30.68 8.68 29.36 8 28 C7.505 28.66 7.01 29.32 6.5 30 C2.89659788 32.8827217 0.53014958 32.30200997 -4 32 C-4 27.71 -4 23.42 -4 19 C-2.68 18.67 -1.36 18.34 0 18 C-0.33 16.68 -0.66 15.36 -1 14 C-2.32 14 -3.64 14 -5 14 C-5.33 12.35 -5.66 10.7 -6 9 C-4.02 9.66 -2.04 10.32 0 11 C0 7.37 0 3.74 0 0 Z " fill="#C7C7C7" transform="translate(20,90)"/>
<path d="M0 0 C0 0.66 0 1.32 0 2 C-0.99 2.33 -1.98 2.66 -3 3 C-1.68 3.33 -0.36 3.66 1 4 C1 5.65 1 7.3 1 9 C1.66 9 2.32 9 3 9 C3.495 10.98 3.495 10.98 4 13 C7.33339535 11.94306977 10.51902155 10.78213469 13.6875 9.3125 C17 8 17 8 20 9 C4.21108154 17.25710223 -14.0052824 25.02778733 -31.96875 19.9609375 C-32.9690625 19.64382812 -33.969375 19.32671875 -35 19 C-35 18.34 -35 17.68 -35 17 C-34.23707642 16.66790527 -34.23707642 16.66790527 -33.45874023 16.32910156 C-31.11653067 15.30679504 -28.7770219 14.27844143 -26.4375 13.25 C-25.23770508 12.72792969 -25.23770508 12.72792969 -24.01367188 12.1953125 C-20.24182852 10.53262237 -16.5906324 8.82507241 -13.03515625 6.734375 C-10 5 -10 5 -8 5 C-8 4.34 -8 3.68 -8 3 C-2.25 0 -2.25 0 0 0 Z " fill="#F73B0B" transform="translate(87,64)"/>
<path d="M0 0 C6.02545658 1.26488592 9.38853809 3.5579874 13.875 7.6875 C15.09234932 8.77110685 16.31110039 9.85314101 17.53125 10.93359375 C18.1190625 11.45808105 18.706875 11.98256836 19.3125 12.52294922 C22.73774166 15.52102677 26.36229048 18.26690607 30 21 C29.67 21.99 29.34 22.98 29 24 C27.02 24.33 25.04 24.66 23 25 C23 25.66 23 26.32 23 27 C19.14243493 29.15305957 16.44870215 30.39253254 12 30 C12.66 29.34 13.32 28.68 14 28 C13.24074219 27.68546875 12.48148438 27.3709375 11.69921875 27.046875 C10.70535156 26.61890625 9.71148437 26.1909375 8.6875 25.75 C7.20830078 25.12351562 7.20830078 25.12351562 5.69921875 24.484375 C2.91584476 22.95372071 1.66680128 21.66233105 0 19 C1.65 19.33 3.3 19.66 5 20 C4.67 15.38 4.34 10.76 4 6 C3.01 5.67 2.02 5.34 1 5 C0.67 3.35 0.34 1.7 0 0 Z " fill="#0B3A5C" transform="translate(65,37)"/>
<path d="M0 0 C0 0.66 0 1.32 0 2 C-1.32 2 -2.64 2 -4 2 C-4 2.66 -4 3.32 -4 4 C-4.99 4.33 -5.98 4.66 -7 5 C-7.33 5.66 -7.66 6.32 -8 7 C-8.99 7 -9.98 7 -11 7 C-11 7.66 -11 8.32 -11 9 C-9.865625 9.28875 -8.73125 9.5775 -7.5625 9.875 C-6.386875 10.24625 -5.21125 10.6175 -4 11 C-3.67 11.66 -3.34 12.32 -3 13 C-3.33 13.66 -3.66 14.32 -4 15 C-3.01 15 -2.02 15 -1 15 C-1 15.66 -1 16.32 -1 17 C4.445 16.01 4.445 16.01 10 15 C6.8799811 18.1200189 5.73430319 18.60048879 1.625 19.625 C0.68914062 19.86476563 -0.24671875 20.10453125 -1.2109375 20.3515625 C-2.98710759 20.76450961 -4.77399856 21.1352733 -6.5703125 21.44921875 C-9.15176978 22.0344044 -11.15340331 22.97701967 -13.5 24.1875 C-17.60109245 26.09769164 -17.60109245 26.09769164 -21.0625 25.25 C-21.701875 24.8375 -22.34125 24.425 -23 24 C-22.34 23.67 -21.68 23.34 -21 23 C-21 22.34 -21 21.68 -21 21 C-21.66 21 -22.32 21 -23 21 C-23.268125 20.38125 -23.53625 19.7625 -23.8125 19.125 C-24.95556848 16.7004767 -24.95556848 16.7004767 -28 15 C-26.68 14.67 -25.36 14.34 -24 14 C-23.979375 13.401875 -23.95875 12.80375 -23.9375 12.1875 C-23 10 -23 10 -20.25 8.6875 C-19.63125 8.45804688 -19.0125 8.22859375 -18.375 7.9921875 C-14.03466284 6.17895454 -9.98795378 3.72695544 -5.890625 1.42578125 C-3 0 -3 0 0 0 Z " fill="#FB7403" transform="translate(111,52)"/>
<path d="M0 0 C11.10364498 -0.38808856 11.10364498 -0.38808856 15 2 C16.21347754 5.64043263 16.2224972 9.02055186 16.25 12.8125 C16.270625 13.51181641 16.29125 14.21113281 16.3125 14.93164062 C16.34841516 19.73080409 15.53400438 22.9335263 13 27 C8.24336264 31.39988956 4.81381405 32.15187813 -1.5625 32.1875 C-2.71878906 32.20167969 -3.87507813 32.21585938 -5.06640625 32.23046875 C-8 32 -8 32 -10 30 C-3.375 27 -3.375 27 0 27 C0 26.34 0 25.68 0 25 C1.32 24.34 2.64 23.68 4 23 C3.34 22.34 2.68 21.68 2 21 C5.465 20.505 5.465 20.505 9 20 C9.33 17.03 9.66 14.06 10 11 C9.34 10.67 8.68 10.34 8 10 C8.66 10 9.32 10 10 10 C10.33 8.68 10.66 7.36 11 6 C10.01 6 9.02 6 8 6 C8 5.01 8 4.02 8 3 C6.8553125 3.0928125 6.8553125 3.0928125 5.6875 3.1875 C2.51219194 2.96596688 2.04264341 2.28224968 0 0 Z " fill="#F9BC09" transform="translate(128,45)"/>
<path d="M0 0 C-0.66 0.99 -1.32 1.98 -2 3 C-2.99 3 -3.98 3 -5 3 C-5 3.66 -5 4.32 -5 5 C-7.64 5.99 -10.28 6.98 -13 8 C-13 8.33 -13 8.66 -13 9 C-3.009093 9.68796201 -3.009093 9.68796201 6 6 C7.95216435 4.04783565 8.84826645 2.46800047 10 0 C10.6875 2.8125 10.6875 2.8125 11 6 C9.6875 7.875 9.6875 7.875 8 9 C7.34 9 6.68 9 6 9 C6 9.66 6 10.32 6 11 C1.02984829 11.82300054 -3.6309638 12.08050207 -8.6875 12 C-15.50858875 11.92981106 -22.21153483 12.28001127 -29 13 C-29 12.67 -29 12.34 -29 12 C-31.64 11.67 -34.28 11.34 -37 11 C-26.78107772 4.18738515 -12.25262684 -0.69354492 0 0 Z " fill="#EDF9EF" transform="translate(133,67)"/>
<path d="M0 0 C2.4375 0.6875 2.4375 0.6875 5 2 C6.61396422 6.03491056 5.73918616 9.81127845 5 14 C5.66 14 6.32 14 7 14 C7 14.66 7 15.32 7 16 C6.113125 15.814375 5.22625 15.62875 4.3125 15.4375 C0.16022053 14.88908573 -2.86623495 15.7042352 -6.875 16.75 C-11.07609358 17.08608749 -13.2595372 15.8702314 -17 14 C-17.125 11.125 -17.125 11.125 -17 8 C-15 6 -15 6 -12.5 5.75 C-10 6 -10 6 -8 8 C-7.375 10.125 -7.375 10.125 -7 12 C-6.9175 11.2575 -6.835 10.515 -6.75 9.75 C-5.85190201 6.45697405 -4.61583926 5.14023212 -2 3 C-1.34 3 -0.68 3 0 3 C0 2.01 0 1.02 0 0 Z " fill="#E1E1E1" transform="translate(90,88)"/>
<path d="M0 0 C0.33 0.66 0.66 1.32 1 2 C1.99 2 2.98 2 4 2 C4 4.97 4 7.94 4 11 C4.66 11 5.32 11 6 11 C6.12375 10.030625 6.2475 9.06125 6.375 8.0625 C6.58125 7.051875 6.7875 6.04125 7 5 C7.66 4.67 8.32 4.34 9 4 C8.13462527 8.14275134 7.28549908 12.19108593 5.875 16.1875 C4.9188967 19.26068919 4.8476489 21.80062691 5 25 C5.66 24.34 6.32 23.68 7 23 C10.125 23.375 10.125 23.375 13 24 C13 24.66 13 25.32 13 26 C11.02 25.67 9.04 25.34 7 25 C7 26.98 7 28.96 7 31 C8.98 30.67 10.96 30.34 13 30 C12.34 30.99 11.68 31.98 11 33 C6.125 32.125 6.125 32.125 5 31 C4.67 31.66 4.34 32.32 4 33 C3.01 33 2.02 33 1 33 C1 27.72 1 22.44 1 17 C1.99 16.67 2.98 16.34 4 16 C3.34 15.01 2.68 14.02 2 13 C1.67 13.66 1.34 14.32 1 15 C-0.32 14.67 -1.64 14.34 -3 14 C-3.33 11.69 -3.66 9.38 -4 7 C-4.33 9.64 -4.66 12.28 -5 15 C-5.66 15 -6.32 15 -7 15 C-7 11.7 -7 8.4 -7 5 C-6.01 4.67 -5.02 4.34 -4 4 C-3.67 3.01 -3.34 2.02 -3 1 C-2.01 0.67 -1.02 0.34 0 0 Z " fill="#686868" transform="translate(125,89)"/>
<path d="M0 0 C1.98 0 3.96 0 6 0 C6.33 1.32 6.66 2.64 7 4 C8.2065625 4.185625 8.2065625 4.185625 9.4375 4.375 C10.283125 4.58125 11.12875 4.7875 12 5 C13.60725635 8.21451269 13.05748185 11.43612536 13 15 C11 16 11 16 7.4375 16.4375 C6.303125 16.623125 5.16875 16.80875 4 17 C3.67 17.66 3.34 18.32 3 19 C3 18.34 3 17.68 3 17 C2.01 16.67 1.02 16.34 0 16 C0 13.36 0 10.72 0 8 C-0.66 8 -1.32 8 -2 8 C-2.66 9.98 -3.32 11.96 -4 14 C-4.66 14 -5.32 14 -6 14 C-6 10.7 -6 7.4 -6 4 C-3.69 4 -1.38 4 1 4 C0.67 2.68 0.34 1.36 0 0 Z " fill="#F1F1F1" transform="translate(54,108)"/>
<path d="M0 0 C0 0.66 0 1.32 0 2 C-0.99 2.33 -1.98 2.66 -3 3 C-1.68 3.33 -0.36 3.66 1 4 C1 5.65 1 7.3 1 9 C1.66 9 2.32 9 3 9 C3.33 10.32 3.66 11.64 4 13 C7.33339535 11.94306977 10.51902155 10.78213469 13.6875 9.3125 C17 8 17 8 20 9 C2.18070273 18.62242052 2.18070273 18.62242052 -7 18 C-7.33 17.34 -7.66 16.68 -8 16 C-8.66 16 -9.32 16 -10 16 C-10 15.34 -10 14.68 -10 14 C-10.66 13.67 -11.32 13.34 -12 13 C-10.68 12.34 -9.36 11.68 -8 11 C-8.33 10.34 -8.66 9.68 -9 9 C-9.61875 9.495 -10.2375 9.99 -10.875 10.5 C-13 12 -13 12 -15 12 C-15 11.34 -15 10.68 -15 10 C-13.33333333 9 -11.66666667 8 -10 7 C-10 6.34 -10 5.68 -10 5 C-9.34 5 -8.68 5 -8 5 C-8 4.34 -8 3.68 -8 3 C-2.25 0 -2.25 0 0 0 Z " fill="#FA5506" transform="translate(87,64)"/>
<path d="M0 0 C-0.165 0.763125 -0.33 1.52625 -0.5 2.3125 C-1.09145396 5.03596236 -1.09145396 5.03596236 -1 8 C-1.62599617 9.68236471 -2.28752268 11.3523962 -3 13 C-3.66 12.67 -4.32 12.34 -5 12 C-5.625 9.9375 -5.625 9.9375 -6 8 C-6.94875 8.020625 -7.8975 8.04125 -8.875 8.0625 C-12 8 -12 8 -14 7 C-14.33 7.66 -14.66 8.32 -15 9 C-15 7.02 -15 5.04 -15 3 C-15.66 3 -16.32 3 -17 3 C-17.33 3.66 -17.66 4.32 -18 5 C-18.33 4.34 -18.66 3.68 -19 3 C-20.89533342 2.53476937 -20.89533342 2.53476937 -23.0625 2.375 C-24.361875 2.25125 -25.66125 2.1275 -27 2 C-27.33 1.01 -27.66 0.02 -28 -1 C-25.12597533 -1.36452514 -22.25130957 -1.71689691 -19.375 -2.0625 C-18.56675781 -2.16626953 -17.75851563 -2.27003906 -16.92578125 -2.37695312 C-10.77191884 -3.10240845 -5.53041507 -3.19062408 0 0 Z " fill="#F2ECE8" transform="translate(86,87)"/>
<path d="M0 0 C4.62 0 9.24 0 14 0 C14 4.29 14 8.58 14 13 C9.38 13 4.76 13 0 13 C0 8.71 0 4.42 0 0 Z " fill="#C2C2C2" transform="translate(57,90)"/>
<path d="M0 0 C1.9375 0.3125 1.9375 0.3125 4 1 C4.33 1.99 4.66 2.98 5 4 C6.31077107 4.710001 7.64908118 5.36972977 9 6 C11.30846342 7.75979694 13.54079121 9.59609687 15.78125 11.44140625 C17.93442099 12.95393305 19.43168306 13.57389287 22 14 C22 15.32 22 16.64 22 18 C20.02 18.33 18.04 18.66 16 19 C16 19.66 16 20.32 16 21 C12.14243493 23.15305957 9.44870215 24.39253254 5 24 C5.99 23.67 6.98 23.34 8 23 C8 22.34 8 21.68 8 21 C8.99 21 9.98 21 11 21 C10.814375 20.38125 10.62875 19.7625 10.4375 19.125 C10 17 10 17 11 15 C9.35 15 7.7 15 6 15 C5.81824219 14.25234375 5.63648437 13.5046875 5.44921875 12.734375 C5.07216797 11.25710937 5.07216797 11.25710937 4.6875 9.75 C4.44386719 8.77546875 4.20023437 7.8009375 3.94921875 6.796875 C3.00347644 4.01024335 1.89291287 2.22695632 0 0 Z " fill="#024C6E" transform="translate(72,43)"/>
<path d="M0 0 C0.66 0.33 1.32 0.66 2 1 C1.505 2.155 1.01 3.31 0.5 4.5 C-1.73710158 10.5904823 -1.84626421 15.48164986 0.625 21.4375 C2.63535284 25.58790586 5.09740452 29.37273003 7.73046875 33.15234375 C9 35 9 35 10 37 C8.68 36.67 7.36 36.34 6 36 C5.896875 35.360625 5.79375 34.72125 5.6875 34.0625 C5.460625 33.381875 5.23375 32.70125 5 32 C4.01 31.67 3.02 31.34 2 31 C1.3125 28.9375 1.3125 28.9375 1 27 C0.34 27 -0.32 27 -1 27 C-2.32 23.7 -3.64 20.4 -5 17 C-5.33 17 -5.66 17 -6 17 C-6 14.36 -6 11.72 -6 9 C-8.31 9 -10.62 9 -13 9 C-13 9.99 -13 10.98 -13 12 C-13.66 12 -14.32 12 -15 12 C-15 12.66 -15 13.32 -15 14 C-15.66 14 -16.32 14 -17 14 C-16.70362397 11.23382371 -16.11090246 10.11090246 -14.125 8.125 C-9.63340577 5.07071592 -4.97325137 2.20232549 0 0 Z " fill="#F7881E" transform="translate(25,31)"/>
<path d="M0 0 C2.45811625 3.68717438 2.31118164 5.64345704 2 10 C0 13 0 13 -1.875 13.3984375 C-2.926875 13.38683594 -2.926875 13.38683594 -4 13.375 C-4.70125 13.38273437 -5.4025 13.39046875 -6.125 13.3984375 C-8 13 -8 13 -10 10 C-10.53748871 3.98012647 -10.53748871 3.98012647 -8.9375 1.0625 C-5.88907484 -0.60921702 -3.39471203 -0.37033222 0 0 Z " fill="#141414" transform="translate(35,90)"/>
<path d="M0 0 C-0.7959497 4.21853341 -2.46433379 5.55870667 -6 8 C-9.3653636 9.12178787 -12.0203755 9.16771159 -15.5625 9.1875 C-16.71878906 9.20167969 -17.87507813 9.21585938 -19.06640625 9.23046875 C-22 9 -22 9 -24 7 C-17.375 4 -17.375 4 -14 4 C-14 3.34 -14 2.68 -14 2 C-9.51480643 -1.90645891 -5.4456773 -0.98473032 0 0 Z " fill="#F27F13" transform="translate(142,68)"/>
<path d="M0 0 C0.66 0 1.32 0 2 0 C2.88106198 3.74451341 3 7.16512499 3 11 C3.33 11.66 3.66 12.32 4 13 C2.35 13 0.7 13 -1 13 C-1.33 13.66 -1.66 14.32 -2 15 C-4.97 14.505 -4.97 14.505 -8 14 C-8.33 12.68 -8.66 11.36 -9 10 C-6.525 10.495 -6.525 10.495 -4 11 C-4 10.34 -4 9.68 -4 9 C-5.65 8.67 -7.3 8.34 -9 8 C-8.67 6.35 -8.34 4.7 -8 3 C-6.865625 2.690625 -5.73125 2.38125 -4.5625 2.0625 C-1.21224901 1.37075469 -1.21224901 1.37075469 0 0 Z " fill="#E3E3E3" transform="translate(43,109)"/>
<path d="M0 0 C4.30764815 1.56641751 8.06171464 3.68336156 12 6 C12 6.66 12 7.32 12 8 C14.97 8.495 14.97 8.495 18 9 C17.01 9.495 17.01 9.495 16 10 C16 10.66 16 11.32 16 12 C17.98 12 19.96 12 22 12 C22 12.33 22 12.66 22 13 C15.4 13 8.8 13 2 13 C1.67 11.68 1.34 10.36 1 9 C1.99 9 2.98 9 4 9 C3.42618522 5.67187429 2.40619252 4.30157545 0 2 C0 1.34 0 0.68 0 0 Z " fill="#F7A705" transform="translate(36,71)"/>
<path d="M0 0 C1.8871875 0.0309375 1.8871875 0.0309375 3.8125 0.0625 C2.8225 1.5475 2.8225 1.5475 1.8125 3.0625 C0.8225 3.0625 -0.1675 3.0625 -1.1875 3.0625 C-1.1875 3.7225 -1.1875 4.3825 -1.1875 5.0625 C-8.84721785 9.01098287 -14.72639411 9.3999944 -23.1875 8.0625 C-23.1875 7.4025 -23.1875 6.7425 -23.1875 6.0625 C-22.06730469 5.71316406 -20.94710937 5.36382812 -19.79296875 5.00390625 C-18.32030778 4.54428595 -16.84765179 4.0846497 -15.375 3.625 C-14.63701172 3.39490234 -13.89902344 3.16480469 -13.13867188 2.92773438 C-3.57378845 -0.0585867 -3.57378845 -0.0585867 0 0 Z " fill="#F9F1DF" transform="translate(129.1875,66.9375)"/>
<path d="M0 0 C0.78688445 2.77723925 1.11949924 5.22610077 1.09765625 8.109375 C1.09282227 9.24052734 1.09282227 9.24052734 1.08789062 10.39453125 C1.07951172 11.17183594 1.07113281 11.94914062 1.0625 12.75 C1.05798828 13.54277344 1.05347656 14.33554687 1.04882812 15.15234375 C1.03708565 17.10159508 1.01915146 19.05080738 1 21 C1.94875 20.95875 2.8975 20.9175 3.875 20.875 C7 21 7 21 9 23 C8.649375 23.5775 8.29875 24.155 7.9375 24.75 C6.83422289 27.39786506 7.19843491 28.33185326 8 31 C6.84481082 30.09515208 5.70114594 29.1755794 4.5625 28.25 C3.92441406 27.73953125 3.28632813 27.2290625 2.62890625 26.703125 C0.81189446 24.80332371 0.39576803 23.56413092 0 21 C-0.66 21 -1.32 21 -2 21 C-3.10111689 17.69664934 -3.20226528 15.10167863 -3.25 11.625 C-3.27578125 10.50351562 -3.3015625 9.38203125 -3.328125 8.2265625 C-2.97040062 4.70893943 -2.02975523 2.85234025 0 0 Z " fill="#F2B61B" transform="translate(7,43)"/>
<path d="M0 0 C0.33 0.66 0.66 1.32 1 2 C1.99 2 2.98 2 4 2 C3.67 2.99 3.34 3.98 3 5 C2.34 5 1.68 5 1 5 C1.350625 5.5775 1.70125 6.155 2.0625 6.75 C3.16413578 9.39392586 2.96737246 10.36171148 2 13 C1.67 13.66 1.34 14.32 1 15 C-0.32 14.67 -1.64 14.34 -3 14 C-3.33 11.69 -3.66 9.38 -4 7 C-4.33 9.64 -4.66 12.28 -5 15 C-5.66 15 -6.32 15 -7 15 C-7 11.7 -7 8.4 -7 5 C-6.01 4.67 -5.02 4.34 -4 4 C-3.67 3.01 -3.34 2.02 -3 1 C-2.01 0.67 -1.02 0.34 0 0 Z " fill="#DCDCDC" transform="translate(125,89)"/>
<path d="M0 0 C6.6 0 13.2 0 20 0 C19.67 1.32 19.34 2.64 19 4 C19.33 4.99 19.66 5.98 20 7 C18.125 8.0625 18.125 8.0625 16 9 C15.34 8.67 14.68 8.34 14 8 C13.67 8.66 13.34 9.32 13 10 C13 8.02 13 6.04 13 4 C12.34 4 11.68 4 11 4 C10.67 4.66 10.34 5.32 10 6 C9.67 5.34 9.34 4.68 9 4 C7.10466658 3.53476937 7.10466658 3.53476937 4.9375 3.375 C3.638125 3.25125 2.33875 3.1275 1 3 C0.67 2.01 0.34 1.02 0 0 Z " fill="#F6F8F7" transform="translate(58,86)"/>
<path d="M0 0 C0.66 0 1.32 0 2 0 C2.33 1.32 2.66 2.64 3 4 C4.65 4.33 6.3 4.66 8 5 C8.625 7.8125 8.625 7.8125 9 11 C8.01 12.485 8.01 12.485 7 14 C4.69 14 2.38 14 0 14 C0 9.38 0 4.76 0 0 Z " fill="#3D3D3D" transform="translate(58,108)"/>
<path d="M0 0 C7 0 7 0 10 2 C10.25 4.5625 10.25 4.5625 10 7 C9 8 9 8 5.4375 8.0625 C4.303125 8.041875 3.16875 8.02125 2 8 C2 9.98 2 11.96 2 14 C1.34 14 0.68 14 0 14 C0 9.38 0 4.76 0 0 Z " fill="#3F3F3F" transform="translate(114,108)"/>
<path d="M0 0 C2.5 0.25 2.5 0.25 4.5 2.25 C4.84342449 3.58076989 5.17619874 4.91431979 5.5 6.25 C6.49 7.735 6.49 7.735 7.5 9.25 C5.4375 10.4375 5.4375 10.4375 2.5 11.25 C-0.04812724 10.52873258 -2.12082896 9.46291073 -4.5 8.25 C-4.625 5.375 -4.625 5.375 -4.5 2.25 C-2.5 0.25 -2.5 0.25 0 0 Z " fill="#D3D3D3" transform="translate(77.5,93.75)"/>
<path d="M0 0 C0.99 0 1.98 0 3 0 C3 2.64 3 5.28 3 8 C3.66 8 4.32 8 5 8 C5.21914063 8.54527344 5.43828125 9.09054688 5.6640625 9.65234375 C7.86767579 14.89264364 10.48163321 19.4888254 13.73046875 24.15234375 C15 26 15 26 16 28 C14.68 27.67 13.36 27.34 12 27 C11.8453125 26.0409375 11.8453125 26.0409375 11.6875 25.0625 C11.460625 24.381875 11.23375 23.70125 11 23 C10.01 22.67 9.02 22.34 8 22 C7.3125 19.9375 7.3125 19.9375 7 18 C6.34 18 5.68 18 5 18 C3.68 14.7 2.36 11.4 1 8 C0.67 8 0.34 8 0 8 C0 5.36 0 2.72 0 0 Z " fill="#FB9606" transform="translate(19,40)"/>
<path d="M0 0 C2.33944736 0.28730055 4.6739143 0.61936779 7 1 C7.33 1.99 7.66 2.98 8 4 C7.01 4 6.02 4 5 4 C5 3.34 5 2.68 5 2 C3.68 2 2.36 2 1 2 C1 2.66 1 3.32 1 4 C1.94875 4.28875 2.8975 4.5775 3.875 4.875 C7 6 7 6 9 8 C8.46428571 11.53571429 8.46428571 11.53571429 7 13 C4.66702567 13.04092937 2.33294775 13.04241723 0 13 C-0.66 11.68 -1.32 10.36 -2 9 C-1.01 9 -0.02 9 1 9 C1.33 9.66 1.66 10.32 2 11 C2.99 11 3.98 11 5 11 C5.33 10.01 5.66 9.02 6 8 C5.05125 7.87625 4.1025 7.7525 3.125 7.625 C0 7 0 7 -2 5 C-1.46428571 1.46428571 -1.46428571 1.46428571 0 0 Z " fill="#212121" transform="translate(41,90)"/>
<path d="M0 0 C1.984375 1.14453125 1.984375 1.14453125 4 3 C4.390625 5.69921875 4.390625 5.69921875 4.25 8.6875 C4.21390625 9.68136719 4.1778125 10.67523438 4.140625 11.69921875 C4.07101563 12.83810547 4.07101563 12.83810547 4 14 C3.360625 14.12375 2.72125 14.2475 2.0625 14.375 C1.381875 14.58125 0.70125 14.7875 0 15 C-0.33 15.66 -0.66 16.32 -1 17 C-1 16.34 -1 15.68 -1 15 C-2.65 15.33 -4.3 15.66 -6 16 C-6 14.02 -6 12.04 -6 10 C-2.535 9.505 -2.535 9.505 1 9 C1.16687448 6.58354218 1.16687448 6.58354218 1 4 C0.34 3.34 -0.32 2.68 -1 2 C-0.67 1.34 -0.34 0.68 0 0 Z " fill="#F1F1F1" transform="translate(122,106)"/>
<path d="M0 0 C2.64 0 5.28 0 8 0 C8 3.3 8 6.6 8 10 C7.34 10 6.68 10 6 10 C5.67 9.34 5.34 8.68 5 8 C4.54625 8.495 4.0925 8.99 3.625 9.5 C2 11 2 11 0 11 C0 7.37 0 3.74 0 0 Z " fill="#818181" transform="translate(98,93)"/>
<path d="M0 0 C3.29714793 0.32971479 4.6226839 0.6226839 7 3 C6.625 6.125 6.625 6.125 6 9 C0.25 10.125 0.25 10.125 -2 9 C-2.125 5.625 -2.125 5.625 -2 2 C-1.34 1.34 -0.68 0.68 0 0 Z " fill="#333333" transform="translate(90,112)"/>
<path d="M0 0 C2.875 -0.125 2.875 -0.125 6 0 C8 2 8 2 8.25 5 C8 8 8 8 6 10 C2.875 10.125 2.875 10.125 0 10 C0 6.7 0 3.4 0 0 Z " fill="#E8E8E8" transform="translate(18,110)"/>
<path d="M0 0 C0.66 0.99 1.32 1.98 2 3 C3.32 2.67 4.64 2.34 6 2 C6.185625 2.78375 6.37125 3.5675 6.5625 4.375 C7.83961627 7.39376342 7.83961627 7.39376342 11.625 8.3125 C12.73875 8.539375 13.8525 8.76625 15 9 C15 9.66 15 10.32 15 11 C15.66 11.33 16.32 11.66 17 12 C17 12.66 17 13.32 17 14 C12.64029169 12.65150163 8.68658562 10.95092154 4.625 8.875 C3.56539062 8.33617187 2.50578125 7.79734375 1.4140625 7.2421875 C0.61742188 6.83226562 -0.17921875 6.42234375 -1 6 C-0.67 4.02 -0.34 2.04 0 0 Z " fill="#100D29" transform="translate(25,34)"/>
<path d="M0 0 C2.34314224 0.16501002 3.96947356 -0.22744826 6.21875 -0.84375 C8.55175933 -0.88263349 10.88584801 -0.8886135 13.21875 -0.84375 C13.54875 -0.18375 13.87875 0.47625 14.21875 1.15625 C12.26271149 1.68563657 10.30382711 2.20451801 8.34375 2.71875 C6.70792969 3.15380859 6.70792969 3.15380859 5.0390625 3.59765625 C2.21875 4.15625 2.21875 4.15625 0.21875 3.15625 C-0.709375 3.465625 -1.6375 3.775 -2.59375 4.09375 C-5.58860213 5.09203404 -7.66672704 5.33945723 -10.78125 5.15625 C-9.79125 4.82625 -8.80125 4.49625 -7.78125 4.15625 C-7.78125 3.49625 -7.78125 2.83625 -7.78125 2.15625 C-8.77125 2.15625 -9.76125 2.15625 -10.78125 2.15625 C-10.78125 1.49625 -10.78125 0.83625 -10.78125 0.15625 C-6.92901761 -1.03444001 -3.9253504 -0.59149116 0 0 Z " fill="#F79504" transform="translate(117.78125,64.84375)"/>
<path d="M0 0 C1.65 0 3.3 0 5 0 C5 0.66 5 1.32 5 2 C6.03125 1.79375 7.0625 1.5875 8.125 1.375 C12.1234216 0.98805597 14.33693757 1.48116924 18 3 C17.67 4.65 17.34 6.3 17 8 C18.32 8.33 19.64 8.66 21 9 C18.62077693 9.84205836 17.40070408 10.14174203 14.98535156 9.28735352 C14.2940918 8.90506592 13.60283203 8.52277832 12.890625 8.12890625 C12.13652344 7.71962891 11.38242187 7.31035156 10.60546875 6.88867188 C9.82816406 6.45103516 9.05085938 6.01339844 8.25 5.5625 C7.06083984 4.9118457 7.06083984 4.9118457 5.84765625 4.24804688 C3.89219191 3.17607546 1.94364092 2.09321878 0 1 C0 0.67 0 0.34 0 0 Z " fill="#13122E" transform="translate(43,48)"/>
<path d="M0 0 C0.66 0 1.32 0 2 0 C1.67 4.62 1.34 9.24 1 14 C0.34 14 -0.32 14 -1 14 C-1.33 11.36 -1.66 8.72 -2 6 C-2.66 6 -3.32 6 -4 6 C-3.34 8.64 -2.68 11.28 -2 14 C-3.32 14 -4.64 14 -6 14 C-6.2493357 12.39884424 -6.47378648 10.79379841 -6.6875 9.1875 C-6.81511719 8.29417969 -6.94273438 7.40085937 -7.07421875 6.48046875 C-7 4 -7 4 -5.70703125 2.17578125 C-4 1 -4 1 -1 1 C-0.67 0.67 -0.34 0.34 0 0 Z " fill="#898989" transform="translate(85,108)"/>
<path d="M0 0 C1.32 0.33 2.64 0.66 4 1 C3.67 1.99 3.34 2.98 3 4 C3.99 4 4.98 4 6 4 C6 4.66 6 5.32 6 6 C11.445 5.01 11.445 5.01 17 4 C11.37005324 9.62994676 2.70737213 10.27288942 -5 11 C-4.0409375 10.2265625 -4.0409375 10.2265625 -3.0625 9.4375 C-0.44208319 6.34064377 -0.30610183 3.97932377 0 0 Z " fill="#F68508" transform="translate(104,63)"/>
<path d="M0 0 C3.90158354 0.57801238 5.97857777 2.58286221 9 5 C11.18214568 5.77833534 11.18214568 5.77833534 13 6 C13 7.32 13 8.64 13 10 C11.02 10.33 9.04 10.66 7 11 C7 11.66 7 12.32 7 13 C3.14243493 15.15305957 0.44870215 16.39253254 -4 16 C-3.01 15.67 -2.02 15.34 -1 15 C-1 14.34 -1 13.68 -1 13 C0.98 12.67 2.96 12.34 5 12 C5 10.68 5 9.36 5 8 C5.99 7.67 6.98 7.34 8 7 C7.4225 6.773125 6.845 6.54625 6.25 6.3125 C3.4336339 4.66961977 1.91922886 2.60466773 0 0 Z " fill="#186D90" transform="translate(81,51)"/>
<path d="M0 0 C0.66 0 1.32 0 2 0 C2.33 2.64 2.66 5.28 3 8 C4.32 8.33 5.64 8.66 7 9 C7 10.98 7 12.96 7 15 C-0.94758065 13.23387097 -0.94758065 13.23387097 -3.8125 9.875 C-4.4003125 8.946875 -4.4003125 8.946875 -5 8 C-2.525 8.495 -2.525 8.495 0 9 C0 6.03 0 3.06 0 0 Z " fill="#021E5A" transform="translate(70,48)"/>
<path d="M0 0 C-0.66 2.64 -1.32 5.28 -2 8 C-4.64 8 -7.28 8 -10 8 C-10.33 7.01 -10.66 6.02 -11 5 C-10.67 4.34 -10.34 3.68 -10 3 C-9.34 3 -8.68 3 -8 3 C-8 2.01 -8 1.02 -8 0 C-2.25 -1.125 -2.25 -1.125 0 0 Z " fill="#F9A104" transform="translate(20,40)"/>
<path d="M0 0 C8.25 0.33 16.5 0.66 25 1 C25 1.33 25 1.66 25 2 C22.69 2.66 20.38 3.32 18 4 C18 5.32 18 6.64 18 8 C15.21176345 9.0326802 14.1322726 9.04509293 11.25 8.0625 C10.5075 7.711875 9.765 7.36125 9 7 C9.33 6.34 9.66 5.68 10 5 C11.33333333 4.66666667 12.66666667 4.33333333 14 4 C14.33 3.34 14.66 2.68 15 2 C14.08476563 2.02320312 13.16953125 2.04640625 12.2265625 2.0703125 C10.44378906 2.09738281 10.44378906 2.09738281 8.625 2.125 C6.84996094 2.15980469 6.84996094 2.15980469 5.0390625 2.1953125 C2 2 2 2 0 0 Z M18 5 C18.99 5 19.98 5 21 5 C21 5.66 21 6.32 21 7 C20.01 6.67 19.02 6.34 18 6 C18 5.67 18 5.34 18 5 Z " fill="#F3E9C3" transform="translate(34,83)"/>
<path d="M0 0 C1.65 0.33 3.3 0.66 5 1 C5 1.66 5 2.32 5 3 C5.99 3.33 6.98 3.66 8 4 C6.68 4.33 5.36 4.66 4 5 C4.33 5.66 4.66 6.32 5 7 C2.87527424 7.05386629 0.75016348 7.09273071 -1.375 7.125 C-3.15003906 7.15980469 -3.15003906 7.15980469 -4.9609375 7.1953125 C-8 7 -8 7 -10 5 C-3.375 2 -3.375 2 0 2 C0 1.34 0 0.68 0 0 Z " fill="#F8A411" transform="translate(128,70)"/>
<path d="M0 0 C0.94875 0.33 1.8975 0.66 2.875 1 C2.875 1.99 2.875 2.98 2.875 4 C2.1015625 3.9278125 1.328125 3.855625 0.53125 3.78125 C-5.38173813 3.25435007 -11.18929031 2.88585174 -17.125 3 C-16.795 2.01 -16.465 1.02 -16.125 0 C-11.44979446 -2.33760277 -4.89787981 -1.41227209 0 0 Z " fill="#090920" transform="translate(48.125,27)"/>
<path d="M0 0 C4.55555556 0.55555556 4.55555556 0.55555556 6 2 C6.04080783 3.99958364 6.04254356 6.00045254 6 8 C0.25 9.125 0.25 9.125 -2 8 C-2.125 5.125 -2.125 5.125 -2 2 C-1.34 1.34 -0.68 0.68 0 0 Z " fill="#EAEAEA" transform="translate(29,92)"/>
<path d="M0 0 C0 0.66 0 1.32 0 2 C-1.32 2 -2.64 2 -4 2 C-4 2.66 -4 3.32 -4 4 C-4.99 4.33 -5.98 4.66 -7 5 C-7.33 5.66 -7.66 6.32 -8 7 C-8.99 7 -9.98 7 -11 7 C-11 7.66 -11 8.32 -11 9 C-11.66 9 -12.32 9 -13 9 C-13 9.66 -13 10.32 -13 11 C-19.0546875 11.9765625 -19.0546875 11.9765625 -21 12 C-21.66 11.34 -22.32 10.68 -23 10 C-22.113125 9.649375 -21.22625 9.29875 -20.3125 8.9375 C-15.30559713 6.81959037 -10.62512416 4.08480811 -5.890625 1.42578125 C-3 0 -3 0 0 0 Z " fill="#F38323" transform="translate(111,52)"/>
<path d="M0 0 C6.8359375 -0.1953125 6.8359375 -0.1953125 9 0 C11 2 11 2 11.3125 5.9375 C11.22787031 8.39176089 11.10592691 9.78814617 10 12 C6.72032242 13.63983879 3.62861311 13.17845638 0 13 C0 8.71 0 4.42 0 0 Z M2 1 C2 4.3 2 7.6 2 11 C4.91652174 11.16681109 4.91652174 11.16681109 8 11 C10.31563087 9.11499729 10.31563087 9.11499729 10.25 6 C10.31563087 2.88500271 10.31563087 2.88500271 8 1 C4.91652174 0.83318891 4.91652174 0.83318891 2 1 Z " fill="#323232" transform="translate(16,109)"/>
<path d="M0 0 C11.10364498 -0.38808856 11.10364498 -0.38808856 15 2 C16.25433458 5.76300374 16.10695422 9.27210909 16.0625 13.1875 C16.05798828 13.93708984 16.05347656 14.68667969 16.04882812 15.45898438 C16.03706354 17.30602383 16.01912865 19.15302213 16 21 C15.67 21 15.34 21 15 21 C14.67 15.72 14.34 10.44 14 5 C13.34 5 12.68 5 12 5 C12 4.34 12 3.68 12 3 C11.01 3 10.02 3 9 3 C8.67 3.99 8.34 4.98 8 6 C8 5.01 8 4.02 8 3 C7.236875 3.061875 6.47375 3.12375 5.6875 3.1875 C2.51219194 2.96596688 2.04264341 2.28224968 0 0 Z " fill="#F8C32C" transform="translate(128,45)"/>
<path d="M0 0 C0.99 0.33 1.98 0.66 3 1 C3 1.66 3 2.32 3 3 C3.99 3.33 4.98 3.66 6 4 C6.268125 4.639375 6.53625 5.27875 6.8125 5.9375 C7.91161165 8.338822 7.91161165 8.338822 11.125 9.25 C12.07375 9.4975 13.0225 9.745 14 10 C13.67 11.32 13.34 12.64 13 14 C11.68 13.67 10.36 13.34 9 13 C9 12.34 9 11.68 9 11 C8.01 11 7.02 11 6 11 C5.67 11.66 5.34 12.32 5 13 C3.06860205 11.06860205 3.35915934 7.60390519 3 5 C2.67 4.01 2.34 3.02 2 2 C0.35 2 -1.3 2 -3 2 C-2.01 1.34 -1.02 0.68 0 0 Z " fill="#D8D8D8" transform="translate(33,88)"/>
<path d="M0 0 C2.64 0 5.28 0 8 0 C8 3.3 8 6.6 8 10 C7.34 10 6.68 10 6 10 C6 8.02 6 6.04 6 4 C5.34 4 4.68 4 4 4 C3.34 5.98 2.68 7.96 2 10 C1.34 10 0.68 10 0 10 C0 6.7 0 3.4 0 0 Z " fill="#868686" transform="translate(48,112)"/>
<path d="M0 0 C3.3 0 6.6 0 10 0 C10 0.66 10 1.32 10 2 C7.36 2 4.72 2 2 2 C2 3.32 2 4.64 2 6 C4.31 6 6.62 6 9 6 C9 6.33 9 6.66 9 7 C6.69 7 4.38 7 2 7 C2 8.65 2 10.3 2 12 C4.64 12 7.28 12 10 12 C10 12.33 10 12.66 10 13 C6.7 13 3.4 13 0 13 C0 8.71 0 4.42 0 0 Z " fill="#1D1D1D" transform="translate(57,90)"/>
<path d="M0 0 C0 0.66 0 1.32 0 2 C-0.66 2 -1.32 2 -2 2 C-2 2.66 -2 3.32 -2 4 C-2.99 4 -3.98 4 -5 4 C-5 4.66 -5 5.32 -5 6 C-9.75 7.125 -9.75 7.125 -12 6 C-12 6.66 -12 7.32 -12 8 C-12.99 8.33 -13.98 8.66 -15 9 C-15.33 10.65 -15.66 12.3 -16 14 C-17.32 13.34 -18.64 12.68 -20 12 C-20 11.34 -20 10.68 -20 10 C-19.01 10 -18.02 10 -17 10 C-16.67 9.01 -16.34 8.02 -16 7 C-15.01 7 -14.02 7 -13 7 C-13 6.34 -13 5.68 -13 5 C-11.68 5 -10.36 5 -9 5 C-8.67 4.01 -8.34 3.02 -8 2 C-5.27366306 0.89786379 -2.95855967 0 0 0 Z " fill="#FA8C03" transform="translate(120,49)"/>
<path d="M0 0 C0.99 0 1.98 0 3 0 C3.05391993 1.79133978 3.09275571 3.58313899 3.125 5.375 C3.14820313 6.37273437 3.17140625 7.37046875 3.1953125 8.3984375 C3 11 3 11 1 13 C-2.125 13.125 -2.125 13.125 -5 13 C-5.33 11.68 -5.66 10.36 -6 9 C-4.02 9.66 -2.04 10.32 0 11 C0 7.37 0 3.74 0 0 Z " fill="#303030" transform="translate(20,90)"/>
<path d="M0 0 C0.33 0.99 0.66 1.98 1 3 C-0.3125 5.1875 -0.3125 5.1875 -2 7 C-2.66 7 -3.32 7 -4 7 C-4.33 7.66 -4.66 8.32 -5 9 C-7.2477975 6.94766315 -8.0022242 5.99332739 -9 3 C-8 1 -8 1 -6.1875 0.375 C-4 0 -4 0 0 0 Z " fill="#F4F4F4" transform="translate(86,103)"/>
<path d="M0 0 C0.33 0 0.66 0 1 0 C1.6875 2.8125 1.6875 2.8125 2 6 C0.6875 7.875 0.6875 7.875 -1 9 C-1.66 9 -2.32 9 -3 9 C-3 9.66 -3 10.32 -3 11 C-8.8685408 12.14819277 -14.0885256 11.77313045 -20 11 C-20 10.67 -20 10.34 -20 10 C-19.27554688 9.96261719 -18.55109375 9.92523438 -17.8046875 9.88671875 C-11.19850143 9.4374981 -5.88992603 8.88992603 -1 4 C-0.3574765 1.93125966 -0.3574765 1.93125966 0 0 Z " fill="#F5EABE" transform="translate(142,67)"/>
<path d="M0 0 C0.66 0 1.32 0 2 0 C4.02558881 3.34939881 4.21738987 5.86962551 4.125 9.75 C4.10695313 10.73484375 4.08890625 11.7196875 4.0703125 12.734375 C4.03550781 13.85585938 4.03550781 13.85585938 4 15 C3.34 14.01 2.68 13.02 2 12 C2 13.98 2 15.96 2 18 C0 16 0 16 -0.1953125 12.3046875 C-0.182009 10.82799892 -0.15814835 9.35137642 -0.125 7.875 C-0.11146484 6.74384766 -0.11146484 6.74384766 -0.09765625 5.58984375 C-0.0740687 3.72642746 -0.03819719 1.86317407 0 0 Z " fill="#FCFBE7" transform="translate(0,46)"/>
<path d="M0 0 C0.66 0.33 1.32 0.66 2 1 C0.26675321 3.00691734 -0.93192269 3.97381642 -3.4375 4.9375 C-6.14267958 5.83288289 -6.14267958 5.83288289 -7.875 8.1875 C-10 10 -10 10 -13.75 9.75 C-15.35875 9.37875 -15.35875 9.37875 -17 9 C-13.76133379 6.84088919 -10.40130108 5.07082832 -6.9375 3.3125 C-6.30005859 2.97927734 -5.66261719 2.64605469 -5.00585938 2.30273438 C-3.36757761 1.47237238 -1.68580777 0.72905441 0 0 Z " fill="#EF301B" transform="translate(76,70)"/>
<path d="M0 0 C1.98 0.495 1.98 0.495 4 1 C4 1.66 4 2.32 4 3 C4.639375 3.12375 5.27875 3.2475 5.9375 3.375 C6.618125 3.58125 7.29875 3.7875 8 4 C8.33 4.66 8.66 5.32 9 6 C7.68 6 6.36 6 5 6 C5 7.32 5 8.64 5 10 C4.01 10.33 3.02 10.66 2 11 C1.814375 9.576875 1.814375 9.576875 1.625 8.125 C1.28312823 4.91332809 1.28312823 4.91332809 -1 3 C-0.34 3 0.32 3 1 3 C0.67 2.01 0.34 1.02 0 0 Z " fill="#035977" transform="translate(81,53)"/>
<path d="M0 0 C1.65 0.33 3.3 0.66 5 1 C4.67 1.66 4.34 2.32 4 3 C3.34 3 2.68 3 2 3 C3.32 3.66 4.64 4.32 6 5 C5.67 6.65 5.34 8.3 5 10 C3.35 10 1.7 10 0 10 C0 9.01 0 8.02 0 7 C1.98 7.495 1.98 7.495 4 8 C4 7.34 4 6.68 4 6 C2.35 5.67 0.7 5.34 -1 5 C-0.67 3.35 -0.34 1.7 0 0 Z " fill="#303030" transform="translate(35,112)"/>
<path d="M0 0 C0.99 0 1.98 0 3 0 C3 0.66 3 1.32 3 2 C3.66 2 4.32 2 5 2 C5.38281159 7.23175837 4.21854707 10.37802694 2 15 C1.67 15 1.34 15 1 15 C1 12.69 1 10.38 1 8 C0.34 7.67 -0.32 7.34 -1 7 C-0.34 7 0.32 7 1 7 C1.33 5.68 1.66 4.36 2 3 C1.34 3 0.68 3 0 3 C0 2.01 0 1.02 0 0 Z " fill="#FAC705" transform="translate(137,48)"/>
<path d="M0 0 C0.33 0.99 0.66 1.98 1 3 C1.66 3.33 2.32 3.66 3 4 C2.34 4 1.68 4 1 4 C1 6.31 1 8.62 1 11 C1.66 11 2.32 11 3 11 C3 11.66 3 12.32 3 13 C2.01 12.67 1.02 12.34 0 12 C-0.33 9.69 -0.66 7.38 -1 5 C-1.33 7.64 -1.66 10.28 -2 13 C-2.66 13 -3.32 13 -4 13 C-4 9.7 -4 6.4 -4 3 C-3.01 2.67 -2.02 2.34 -1 2 C-0.67 1.34 -0.34 0.68 0 0 Z " fill="#636363" transform="translate(122,91)"/>
<path d="M0 0 C1.32 0 2.64 0 4 0 C4 1.32 4 2.64 4 4 C4.66 4.33 5.32 4.66 6 5 C3.03 6.32 0.06 7.64 -3 9 C-3.66 8.01 -4.32 7.02 -5 6 C-4.175 5.566875 -3.35 5.13375 -2.5 4.6875 C-1.2625 3.8521875 -1.2625 3.8521875 0 3 C0 2.01 0 1.02 0 0 Z " fill="#F3F7EF" transform="translate(98,50)"/>
<path d="M0 0 C-2 3 -2 3 -5 4 C-6.72795352 4.06802967 -8.45835365 4.08495645 -10.1875 4.0625 C-11.53908203 4.04896484 -11.53908203 4.04896484 -12.91796875 4.03515625 C-13.60503906 4.02355469 -14.29210937 4.01195313 -15 4 C-15 3.34 -15 2.68 -15 2 C-9.75614911 0.2520497 -5.52677733 -0.19392201 0 0 Z " fill="#F4FAF1" transform="translate(133,67)"/>
<path d="M0 0 C2.64 0 5.28 0 8 0 C8 0.33 8 0.66 8 1 C11.04386724 1.08226668 13.07175348 0.97608217 16 0 C15.67 1.32 15.34 2.64 15 4 C13.80503906 3.98259766 13.80503906 3.98259766 12.5859375 3.96484375 C4.74521011 3.88148443 4.74521011 3.88148443 -3 5 C-3 4.34 -3 3.68 -3 3 C-3.66 2.67 -4.32 2.34 -5 2 C-3.02 2 -1.04 2 1 2 C0.67 1.34 0.34 0.68 0 0 Z " fill="#FAF9DA" transform="translate(125,42)"/>
<path d="M0 0 C1.2153691 3.64610731 0.65387751 4.63565227 -0.75 8.125 C-1.09546875 9.01445313 -1.4409375 9.90390625 -1.796875 10.8203125 C-3 13 -3 13 -6 14 C-6 13.34 -6 12.68 -6 12 C-5.34 12 -4.68 12 -4 12 C-4.99 8.37 -5.98 4.74 -7 1 C-6.34 1 -5.68 1 -5 1 C-4.67 2.98 -4.34 4.96 -4 7 C-3.34 7 -2.68 7 -2 7 C-1.855625 6.030625 -1.71125 5.06125 -1.5625 4.0625 C-1 1 -1 1 0 0 Z " fill="#333333" transform="translate(133,93)"/>
<path d="M0 0 C0.33 0.99 0.66 1.98 1 3 C-0.65 2.67 -2.3 2.34 -4 2 C-4.33 3.98 -4.66 5.96 -5 8 C-3.68 8 -2.36 8 -1 8 C-1 7.34 -1 6.68 -1 6 C-0.34 6 0.32 6 1 6 C0.67 6.99 0.34 7.98 0 9 C-1.99954746 9.04254356 -4.00041636 9.04080783 -6 9 C-7 8 -7 8 -7.09765625 6.15234375 C-7.06510417 4.1015625 -7.03255208 2.05078125 -7 0 C-4.3333581 -1.33332095 -2.83319697 -0.67102033 0 0 Z " fill="#434343" transform="translate(115,94)"/>
<path d="M0 0 C5.67853635 1.41963409 9.53174216 4.39363961 14 8 C10.07320291 8 7.54190288 6.47610042 4.05859375 4.77734375 C3.37925781 4.52082031 2.69992188 4.26429687 2 4 C1.01 4.495 1.01 4.495 0 5 C0 3.35 0 1.7 0 0 Z " fill="#161B3E" transform="translate(56,30)"/>
<path d="M0 0 C2.31 0 4.62 0 7 0 C7 3.11257569 6.82638376 5.10765685 6 8 C5.34 7.67 4.68 7.34 4 7 C4 6.67 4 6.34 4 6 C2.68 6 1.36 6 0 6 C0 4.02 0 2.04 0 0 Z " fill="#E3E3E3" transform="translate(132,114)"/>
<path d="M0 0 C2.31 0.33 4.62 0.66 7 1 C6.649375 1.7425 6.29875 2.485 5.9375 3.25 C4.95490707 6.1322726 4.9673198 7.21176345 6 10 C2.64888166 7.76592111 1.18446044 6.73784176 0.1875 2.75 C0.125625 1.8425 0.06375 0.935 0 0 Z " fill="#F5C011" transform="translate(9,64)"/>
<path d="M0 0 C2.31 0.66 4.62 1.32 7 2 C7 2.99 7 3.98 7 5 C7.66 5.33 8.32 5.66 9 6 C8.34 6 7.68 6 7 6 C7.33 7.65 7.66 9.3 8 11 C7.01 11 6.02 11 5 11 C4.67 9.35 4.34 7.7 4 6 C3.01 5.67 2.02 5.34 1 5 C0.67 3.35 0.34 1.7 0 0 Z " fill="#05345D" transform="translate(65,37)"/>
<path d="M0 0 C0.66 0 1.32 0 2 0 C2 2.64 2 5.28 2 8 C2.99 7.67 3.98 7.34 5 7 C5.33 4.69 5.66 2.38 6 0 C6.33 0 6.66 0 7 0 C7 3.3 7 6.6 7 10 C5.00045254 10.04254356 2.99958364 10.04080783 1 10 C0 9 0 9 -0.09765625 6.93359375 C-0.08605469 6.10988281 -0.07445313 5.28617187 -0.0625 4.4375 C-0.05347656 3.61121094 -0.04445313 2.78492187 -0.03515625 1.93359375 C-0.02355469 1.29550781 -0.01195313 0.65742187 0 0 Z " fill="#323232" transform="translate(69,112)"/>
<path d="M0 0 C2.33944736 0.28730055 4.6739143 0.61936779 7 1 C7.33 1.99 7.66 2.98 8 4 C7.01 4 6.02 4 5 4 C5 3.34 5 2.68 5 2 C3.68 2 2.36 2 1 2 C1 2.66 1 3.32 1 4 C2.32 4.66 3.64 5.32 5 6 C2.625 6.625 2.625 6.625 0 7 C-0.66 6.34 -1.32 5.68 -2 5 C-1.46428571 1.46428571 -1.46428571 1.46428571 0 0 Z " fill="#262626" transform="translate(41,90)"/>
<path d="M0 0 C4.30764815 1.56641751 8.06171464 3.68336156 12 6 C12 6.66 12 7.32 12 8 C14.97 8.495 14.97 8.495 18 9 C18 9.33 18 9.66 18 10 C12.79636835 10.44098573 12.79636835 10.44098573 10 10 C7.125 7.5 7.125 7.5 5 5 C4.34 5 3.68 5 3 5 C1.375 3.625 1.375 3.625 0 2 C0 1.34 0 0.68 0 0 Z " fill="#F3901B" transform="translate(36,71)"/>
<path d="M0 0 C3.63 0 7.26 0 11 0 C11.33 0.66 11.66 1.32 12 2 C10.04396149 2.52938657 8.08507711 3.04826801 6.125 3.5625 C5.03445312 3.85253906 3.94390625 4.14257812 2.8203125 4.44140625 C0 5 0 5 -2 4 C-2.99 3.67 -3.98 3.34 -5 3 C-3.35 2.34 -1.7 1.68 0 1 C0 0.67 0 0.34 0 0 Z " fill="#F9A015" transform="translate(120,64)"/>
<path d="M0 0 C4.62400376 4.09046487 8.24472701 9.48945402 11 15 C9.68 14.67 8.36 14.34 7 14 C6.896875 13.360625 6.79375 12.72125 6.6875 12.0625 C6.460625 11.381875 6.23375 10.70125 6 10 C5.01 9.67 4.02 9.34 3 9 C2.3125 6.9375 2.3125 6.9375 2 5 C1.34 5 0.68 5 0 5 C0 3.35 0 1.7 0 0 Z " fill="#F29C23" transform="translate(24,53)"/>
<path d="M0 0 C0.78375 0.04125 1.5675 0.0825 2.375 0.125 C2.705 1.445 3.035 2.765 3.375 4.125 C2.715 3.465 2.055 2.805 1.375 2.125 C0.385 2.125 -0.605 2.125 -1.625 2.125 C-1.955 2.785 -2.285 3.445 -2.625 4.125 C-1.965 4.455 -1.305 4.785 -0.625 5.125 C-1.285 5.125 -1.945 5.125 -2.625 5.125 C-2.295 5.785 -1.965 6.445 -1.625 7.125 C0.025 7.125 1.675 7.125 3.375 7.125 C3.375 7.785 3.375 8.445 3.375 9.125 C1.04205225 9.16741723 -1.29202567 9.16592937 -3.625 9.125 C-4.625 8.125 -4.625 8.125 -4.8125 5.1875 C-4.57390036 1.29037256 -3.98646018 0.18983144 0 0 Z " fill="#282828" transform="translate(77.625,93.875)"/>
<path d="M0 0 C0.66 0.33 1.32 0.66 2 1 C1.525625 2.155 1.05125 3.31 0.5625 4.5 C-1.02208768 8.68570332 -1.60289195 12.55238986 -2 17 C-2.33 17 -2.66 17 -3 17 C-3 14.36 -3 11.72 -3 9 C-3.66 9 -4.32 9 -5 9 C-3.90931332 5.22454612 -3.0916909 2.52956528 0 0 Z " fill="#E7850F" transform="translate(25,31)"/>
<path d="M0 0 C2.64 0 5.28 0 8 0 C8 0.66 8 1.32 8 2 C7.01 2 6.02 2 5 2 C5.33 2.99 5.66 3.98 6 5 C4.02 5.33 2.04 5.66 0 6 C0 4.02 0 2.04 0 0 Z " fill="#E0E0E0" transform="translate(116,116)"/>
<path d="M0 0 C3.6875 0.875 3.6875 0.875 7 2 C7 2.66 7 3.32 7 4 C7.66 4.33 8.32 4.66 9 5 C9 5.66 9 6.32 9 7 C4.76570244 5.68938409 0.92592596 4.05643741 -3 2 C-2.01 1.34 -1.02 0.68 0 0 Z " fill="#1D1E29" transform="translate(33,41)"/>
<path d="M0 0 C1.2065625 0.0309375 1.2065625 0.0309375 2.4375 0.0625 C2.7675 0.7225 3.0975 1.3825 3.4375 2.0625 C1.7875 2.0625 0.1375 2.0625 -1.5625 2.0625 C-1.5625 3.7125 -1.5625 5.3625 -1.5625 7.0625 C0.0875 6.7325 1.7375 6.4025 3.4375 6.0625 C3.1075 7.3825 2.7775 8.7025 2.4375 10.0625 C-2.3125 9.3125 -2.3125 9.3125 -4.5625 7.0625 C-3.85142216 0.09393713 -3.85142216 0.09393713 0 0 Z " fill="#323232" transform="translate(87.5625,93.9375)"/>
<path d="M0 0 C3.465 1.98 3.465 1.98 7 4 C6.34 5.65 5.68 7.3 5 9 C3.68 8.34 2.36 7.68 1 7 C1.33 6.34 1.66 5.68 2 5 C1.34 5 0.68 5 0 5 C0 3.35 0 1.7 0 0 Z " fill="#F9F5E5" transform="translate(11,71)"/>
<path d="M0 0 C0.66 0 1.32 0 2 0 C2.88106198 3.74451341 3 7.16512499 3 11 C3.33 11.66 3.66 12.32 4 13 C2.68 12.67 1.36 12.34 0 12 C-0.19573608 10.56359829 -0.38127816 9.12580496 -0.5625 7.6875 C-0.66691406 6.88699219 -0.77132812 6.08648437 -0.87890625 5.26171875 C-1 3 -1 3 0 0 Z " fill="#3C3C3C" transform="translate(43,109)"/>
<path d="M0 0 C1.65 0.33 3.3 0.66 5 1 C4.67 2.65 4.34 4.3 4 6 C2.35 5.67 0.7 5.34 -1 5 C-0.67 3.35 -0.34 1.7 0 0 Z " fill="#EAEAEA" transform="translate(90,114)"/>
<path d="M0 0 C0.66 0 1.32 0 2 0 C3.37432457 3.81756824 2.67975039 7.07255329 2 11 C2.66 11 3.32 11 4 11 C4 11.66 4 12.32 4 13 C2.68 12.67 1.36 12.34 0 12 C-0.19477739 10.37585622 -0.38059458 8.75063577 -0.5625 7.125 C-0.66691406 6.22007813 -0.77132812 5.31515625 -0.87890625 4.3828125 C-1 2 -1 2 0 0 Z " fill="#3F3F3F" transform="translate(93,91)"/>
<path d="M0 0 C0.66 0.99 1.32 1.98 2 3 C-1.96 2.67 -5.92 2.34 -10 2 C-10 1.34 -10 0.68 -10 0 C-6.23918426 -1.25360525 -3.84551868 -0.83902226 0 0 Z " fill="#27CBAD" transform="translate(116,73)"/>
<path d="M0 0 C2.33605191 3.6500811 2.07854168 6.75874921 2 11 C2.33 11.66 2.66 12.32 3 13 C1.68 13 0.36 13 -1 13 C-1.22245393 11.39773045 -1.42746669 9.79303233 -1.625 8.1875 C-1.74101563 7.29417969 -1.85703125 6.40085937 -1.9765625 5.48046875 C-2 3 -2 3 0 0 Z " fill="#2C2C2C" transform="translate(80,109)"/>
<path d="M0 0 C-2 3 -2 3 -4.2421875 3.765625 C-5.54542969 4.00539063 -5.54542969 4.00539063 -6.875 4.25 C-7.73867187 4.42015625 -8.60234375 4.5903125 -9.4921875 4.765625 C-11.97633196 4.99778803 -13.64619994 4.76635351 -16 4 C-13.71144298 3.13656269 -11.4198072 2.2840189 -9.125 1.4375 C-8.47402344 1.19064453 -7.82304688 0.94378906 -7.15234375 0.68945312 C-2.2265625 -1.11328125 -2.2265625 -1.11328125 0 0 Z " fill="#F8D2B6" transform="translate(96,79)"/>
<path d="M0 0 C1.99954746 -0.04254356 4.00041636 -0.04080783 6 0 C7 1 7 1 7.09765625 3.06640625 C7.08605469 3.89011719 7.07445313 4.71382813 7.0625 5.5625 C7.05347656 6.38878906 7.04445313 7.21507813 7.03515625 8.06640625 C7.01775391 9.02353516 7.01775391 9.02353516 7 10 C6.67 10 6.34 10 6 10 C5.67 7.69 5.34 5.38 5 3 C4.01 3 3.02 3 2 3 C1.67 5.31 1.34 7.62 1 10 C0.67 10 0.34 10 0 10 C0 6.7 0 3.4 0 0 Z " fill="#202020" transform="translate(99,112)"/>
<path d="M0 0 C1.65 0 3.3 0 5 0 C5.33 1.65 5.66 3.3 6 5 C4.02 5 2.04 5 0 5 C0 3.35 0 1.7 0 0 Z " fill="#E4E4E4" transform="translate(116,110)"/>
<path d="M0 0 C1.9375 0.8125 1.9375 0.8125 4 2 C4.33 2.99 4.66 3.98 5 5 C4.34 5 3.68 5 3 5 C3 5.66 3 6.32 3 7 C1.68 7 0.36 7 -1 7 C-1.04254356 5.00045254 -1.04080783 2.99958364 -1 1 C-0.67 0.67 -0.34 0.34 0 0 Z " fill="#ECECEC" transform="translate(111,95)"/>
<path d="M0 0 C2.31 0.33 4.62 0.66 7 1 C7 1.66 7 2.32 7 3 C9.31 3 11.62 3 14 3 C14 3.66 14 4.32 14 5 C7.88225104 5.49940808 4.97504047 4.24900602 0 1 C0 0.67 0 0.34 0 0 Z " fill="#F2C51D" transform="translate(23,78)"/>
<path d="M0 0 C1.98 0.99 3.96 1.98 6 3 C6 3.66 6 4.32 6 5 C4.02 5.99 2.04 6.98 0 8 C-0.79953138 4.71303767 -1.09658936 3.28976808 0 0 Z " fill="#F2EBE5" transform="translate(73,64)"/>
<path d="M0 0 C1.32 0.33 2.64 0.66 4 1 C4 2.98 4 4.96 4 7 C1.83125748 6.49396008 0.00032373 6.00016187 -2 5 C-2 4.34 -2 3.68 -2 3 C-1.34 3 -0.68 3 0 3 C0 2.01 0 1.02 0 0 Z " fill="#07235A" transform="translate(73,56)"/>
<path d="M0 0 C0.66 0.66 1.32 1.32 2 2 C2.66 1.67 3.32 1.34 4 1 C4.6875 3.3125 4.6875 3.3125 5 6 C3.5625 7.8125 3.5625 7.8125 2 9 C2 8.34 2 7.68 2 7 C1.34 7 0.68 7 0 7 C0 4.69 0 2.38 0 0 Z " fill="#D2D2D2" transform="translate(123,95)"/>
<path d="M0 0 C2.64 0.33 5.28 0.66 8 1 C7.67 2.32 7.34 3.64 7 5 C6.01 5 5.02 5 4 5 C4.33 4.34 4.66 3.68 5 3 C4.01 3.33 3.02 3.66 2 4 C2 3.34 2 2.68 2 2 C1.34 2 0.68 2 0 2 C0 1.34 0 0.68 0 0 Z " fill="#F4520D" transform="translate(134,67)"/>
<path d="M0 0 C1.98 0.495 1.98 0.495 4 1 C3.67 2.65 3.34 4.3 3 6 C1.68 5.67 0.36 5.34 -1 5 C-0.67 3.35 -0.34 1.7 0 0 Z " fill="#F1F1F1" transform="translate(61,114)"/>
<path d="M0 0 C1.65 0 3.3 0 5 0 C5 0.66 5 1.32 5 2 C4.01 2 3.02 2 2 2 C2 4.64 2 7.28 2 10 C1.34 10 0.68 10 0 10 C0 6.7 0 3.4 0 0 Z " fill="#454545" transform="translate(48,112)"/>
<path d="M0 0 C0.99 0.33 1.98 0.66 3 1 C3 3.97 3 6.94 3 10 C2.01 9.67 1.02 9.34 0 9 C0 6.03 0 3.06 0 0 Z " fill="#E9E9E9" transform="translate(95,93)"/>
<path d="M0 0 C3.3 0 6.6 0 10 0 C10 0.66 10 1.32 10 2 C7.36 2 4.72 2 2 2 C2 2.99 2 3.98 2 5 C1.34 5 0.68 5 0 5 C0 3.35 0 1.7 0 0 Z " fill="#404040" transform="translate(57,90)"/>
<path d="M0 0 C0 0.66 0 1.32 0 2 C-0.66 2 -1.32 2 -2 2 C-2 2.66 -2 3.32 -2 4 C-2.99 4 -3.98 4 -5 4 C-5 4.66 -5 5.32 -5 6 C-5.99 6 -6.98 6 -8 6 C-8 4.68 -8 3.36 -8 2 C-2.25 0 -2.25 0 0 0 Z " fill="#FB9B0B" transform="translate(120,49)"/>
<path d="M0 0 C0.33 0 0.66 0 1 0 C1 2.31 1 4.62 1 7 C2.32 7.33 3.64 7.66 5 8 C4.01 8.33 3.02 8.66 2 9 C1.67 9.66 1.34 10.32 1 11 C0.34 10.67 -0.32 10.34 -1 10 C-1.02689216 8.52093108 -1.04634621 7.04172517 -1.0625 5.5625 C-1.07410156 4.73878906 -1.08570312 3.91507812 -1.09765625 3.06640625 C-1 1 -1 1 0 0 Z " fill="#F5F5F5" transform="translate(78,115)"/>
<path d="M0 0 C0.99 0.33 1.98 0.66 3 1 C3 2.98 3 4.96 3 7 C2.34 7 1.68 7 1 7 C0.67 7.66 0.34 8.32 0 9 C-1.125 3.375 -1.125 3.375 0 0 Z " fill="#F5F5F5" transform="translate(51,115)"/>
<path d="M0 0 C1.32 0.33 2.64 0.66 4 1 C3.67 5.29 3.34 9.58 3 14 C2.67 14 2.34 14 2 14 C1.93941406 13.32453125 1.87882812 12.6490625 1.81640625 11.953125 C1.73261719 11.06109375 1.64882813 10.1690625 1.5625 9.25 C1.48128906 8.36828125 1.40007813 7.4865625 1.31640625 6.578125 C1.03761535 4.30649548 0.61209423 2.20148177 0 0 Z " fill="#CBCBCB" transform="translate(54,108)"/>
<path d="M0 0 C2 1 2 1 3 3 C0.24075815 4.80411967 -0.88972103 5.0127245 -4.25 4.625 C-5.1575 4.41875 -6.065 4.2125 -7 4 C-4.61426621 2.10786631 -2.92824652 0.97608217 0 0 Z " fill="#EEB31F" transform="translate(125,72)"/>
<path d="M0 0 C0.99 0 1.98 0 3 0 C3.33 0.99 3.66 1.98 4 3 C-0.95 4.485 -0.95 4.485 -6 6 C-4 4 -2 2 0 0 Z " fill="#F9EEE9" transform="translate(60,74)"/>
<path d="M0 0 C0 0.66 0 1.32 0 2 C-0.99 2.33 -1.98 2.66 -3 3 C-2.34 3.66 -1.68 4.32 -1 5 C-1.99 5 -2.98 5 -4 5 C-4 5.66 -4 6.32 -4 7 C-4.99 7 -5.98 7 -7 7 C-7.33 5.68 -7.66 4.36 -8 3 C-2.25 0 -2.25 0 0 0 Z " fill="#D66021" transform="translate(87,64)"/>
<path d="M0 0 C2.0625 0.4375 2.0625 0.4375 4 1 C4 3.31 4 5.62 4 8 C3.67 8 3.34 8 3 8 C2.67 6.35 2.34 4.7 2 3 C1.34 4.65 0.68 6.3 0 8 C-0.33 8 -0.66 8 -1 8 C-1.04241723 5.66705225 -1.04092937 3.33297433 -1 1 C-0.67 0.67 -0.34 0.34 0 0 Z " fill="#D5D5D5" transform="translate(101,114)"/>
<path d="M0 0 C1.32 0.33 2.64 0.66 4 1 C4 1.66 4 2.32 4 3 C4.639375 3.12375 5.27875 3.2475 5.9375 3.375 C6.618125 3.58125 7.29875 3.7875 8 4 C8.33 4.66 8.66 5.32 9 6 C7.02 6 5.04 6 3 6 C2.01 4.02 1.02 2.04 0 0 Z " fill="#056481" transform="translate(81,53)"/>
<path d="M0 0 C5.07612318 -0.61528766 7.82982006 1.38341651 12 4 C9.5332355 4.88336837 8.36140628 5.1312406 5.859375 4.22265625 C5.16328125 3.83980469 4.4671875 3.45695312 3.75 3.0625 C3.04359375 2.68222656 2.3371875 2.30195312 1.609375 1.91015625 C1.07828125 1.60980469 0.5471875 1.30945312 0 1 C0 0.67 0 0.34 0 0 Z " fill="#151938" transform="translate(68,61)"/>
<path d="M0 0 C0.99 0.33 1.98 0.66 3 1 C3 1.66 3 2.32 3 3 C3.66 3.33 4.32 3.66 5 4 C4.01 4.99 3.02 5.98 2 7 C2 6.01 2 5.02 2 4 C1.01 4 0.02 4 -1 4 C-1.33 3.01 -1.66 2.02 -2 1 C-1.34 0.67 -0.68 0.34 0 0 Z " fill="#051354" transform="translate(62,36)"/>
<path d="M0 0 C-2.68841859 2.25245881 -4.64641875 3.88213958 -8 5 C-8 3.68 -8 2.36 -8 1 C-3.375 -1.125 -3.375 -1.125 0 0 Z " fill="#ECEBD1" transform="translate(32,27)"/>
<path d="M0 0 C0.99 0.495 0.99 0.495 2 1 C1.979375 2.051875 1.95875 3.10375 1.9375 4.1875 C1.98896802 7.32704904 2.26517187 9.96883396 3 13 C2.01 13 1.02 13 0 13 C0 8.71 0 4.42 0 0 Z " fill="#4A4A4A" transform="translate(58,108)"/>
<path d="M0 0 C0.33 0.99 0.66 1.98 1 3 C1.66 3.33 2.32 3.66 3 4 C2.34 4 1.68 4 1 4 C1 6.31 1 8.62 1 11 C1.66 11 2.32 11 3 11 C3 11.66 3 12.32 3 13 C2.01 12.67 1.02 12.34 0 12 C-0.19477739 10.37585622 -0.38059458 8.75063577 -0.5625 7.125 C-0.66691406 6.22007813 -0.77132812 5.31515625 -0.87890625 4.3828125 C-1 2 -1 2 0 0 Z " fill="#1B1B1B" transform="translate(122,91)"/>
<path d="M0 0 C1.32 0 2.64 0 4 0 C4 0.66 4 1.32 4 2 C5.32 2.33 6.64 2.66 8 3 C8 3.99 8 4.98 8 6 C5.36 4.68 2.72 3.36 0 2 C0 1.34 0 0.68 0 0 Z " fill="#DADADA" transform="translate(42,92)"/>
<path d="M0 0 C0.99 0 1.98 0 3 0 C2.34 4.29 1.68 8.58 1 13 C0.67 13 0.34 13 0 13 C0 9.7 0 6.4 0 3 C-0.66 2.67 -1.32 2.34 -2 2 C-1.34 2 -0.68 2 0 2 C0 1.34 0 0.68 0 0 Z " fill="#B9B9B9" transform="translate(117,90)"/>
<path d="M0 0 C0.66 0.33 1.32 0.66 2 1 C2 1.99 2 2.98 2 4 C-1.3 4 -4.6 4 -8 4 C-5.31143836 2.20762558 -3.0466145 1.01553817 0 0 Z " fill="#F6E2C7" transform="translate(104,74)"/>
<path d="M0 0 C0.66 0.99 1.32 1.98 2 3 C-1.96 2.67 -5.92 2.34 -10 2 C-6.32003497 -0.45331002 -4.34586828 -0.39507893 0 0 Z " fill="#F5D21E" transform="translate(140,65)"/>
<path d="M0 0 C1.9375 0.3125 1.9375 0.3125 4 1 C4.33 1.99 4.66 2.98 5 4 C6.93330603 5.09166275 6.93330603 5.09166275 9 6 C9.66 6.66 10.32 7.32 11 8 C7.63833578 7.40501518 5.78840322 6.25635842 3.25 4 C2.63640625 3.46375 2.0228125 2.9275 1.390625 2.375 C0.93171875 1.92125 0.4728125 1.4675 0 1 C0 0.67 0 0.34 0 0 Z " fill="#115777" transform="translate(72,43)"/>
<path d="M0 0 C1.65 0.33 3.3 0.66 5 1 C4 3 4 3 2 4 C2 4.66 2 5.32 2 6 C1.01 5.67 0.02 5.34 -1 5 C-0.67 3.35 -0.34 1.7 0 0 Z " fill="#424242" transform="translate(35,112)"/>
<path d="M0 0 C2.97 0.495 2.97 0.495 6 1 C6 1.99 6 2.98 6 4 C3.69 3.67 1.38 3.34 -1 3 C-0.67 2.01 -0.34 1.02 0 0 Z " fill="#929292" transform="translate(76,95)"/>
<path d="M0 0 C1.32 0.99 2.64 1.98 4 3 C0.535 4.485 0.535 4.485 -3 6 C-3.66 5.01 -4.32 4.02 -5 3 C-4.360625 2.87625 -3.72125 2.7525 -3.0625 2.625 C-2.0415625 2.315625 -2.0415625 2.315625 -1 2 C-0.67 1.34 -0.34 0.68 0 0 Z " fill="#F7F3DE" transform="translate(16,32)"/>
<path d="M0 0 C0.33 0.66 0.66 1.32 1 2 C1.66 2.33 2.32 2.66 3 3 C2.360625 3.103125 1.72125 3.20625 1.0625 3.3125 C0.381875 3.539375 -0.29875 3.76625 -1 4 C-1.33 4.99 -1.66 5.98 -2 7 C-2.66 6.67 -3.32 6.34 -4 6 C-3.6875 4.125 -3.6875 4.125 -3 2 C-2.01 1.34 -1.02 0.68 0 0 Z " fill="#231735" transform="translate(30,28)"/>
<path d="M0 0 C0.66 0 1.32 0 2 0 C3.35439668 2.70879335 3.06501451 5.00933268 3 8 C2.01 7.34 1.02 6.68 0 6 C-0.1875 2.875 -0.1875 2.875 0 0 Z " fill="#F7F7F7" transform="translate(81,114)"/>
<path d="M0 0 C7.75 0.75 7.75 0.75 10 3 C7.8125 3.75 7.8125 3.75 5 4 C2.1875 2.0625 2.1875 2.0625 0 0 Z " fill="#E3F7E2" transform="translate(112,71)"/>
<path d="M0 0 C1.8871875 0.061875 1.8871875 0.061875 3.8125 0.125 C2.8225 1.61 2.8225 1.61 1.8125 3.125 C0.8225 3.125 -0.1675 3.125 -1.1875 3.125 C-1.1875 2.465 -1.1875 1.805 -1.1875 1.125 C-3.1675 1.455 -5.1475 1.785 -7.1875 2.125 C-4.09861478 0.06574319 -3.47814073 -0.1140374 0 0 Z " fill="#F9EFCA" transform="translate(129.1875,66.875)"/>
<path d="M0 0 C0.99 0 1.98 0 3 0 C3.625 2.3125 3.625 2.3125 4 5 C3.01 6.485 3.01 6.485 2 8 C0.23537317 4.91190305 0 3.76687864 0 0 Z " fill="#F79812" transform="translate(21,48)"/>
<path d="M0 0 C2.31 0 4.62 0 7 0 C7 0.99 7 1.98 7 3 C4.69 3 2.38 3 0 3 C0 2.01 0 1.02 0 0 Z " fill="#2D2D2D" transform="translate(27,100)"/>
<path d="M0 0 C0.99 0 1.98 0 3 0 C3.33 0.66 3.66 1.32 4 2 C5.65 2 7.3 2 9 2 C9 2.66 9 3.32 9 4 C6.69 4 4.38 4 2 4 C1.34 2.68 0.68 1.36 0 0 Z " fill="#141414" transform="translate(39,99)"/>
<path d="M0 0 C0.33 0.66 0.66 1.32 1 2 C-0.1875 3.5625 -0.1875 3.5625 -2 5 C-4.6875 4.6875 -4.6875 4.6875 -7 4 C-4.77810176 1.77810176 -2.91517292 1.07401108 0 0 Z " fill="#D86F16" transform="translate(95,59)"/>
<path d="M0 0 C3.465 1.485 3.465 1.485 7 3 C6.67 3.99 6.34 4.98 6 6 C4.125 5.8125 4.125 5.8125 2 5 C0.75 2.4375 0.75 2.4375 0 0 Z " fill="#EEEEEB" transform="translate(59,57)"/>
<path d="M0 0 C2.31 0 4.62 0 7 0 C7.33 0.99 7.66 1.98 8 3 C7.34 3 6.68 3 6 3 C5.67 3.66 5.34 4.32 5 5 C3.35 3.35 1.7 1.7 0 0 Z " fill="#050D50" transform="translate(65,56)"/>
<path d="M0 0 C2.31 0.66 4.62 1.32 7 2 C5.6875 3.5 5.6875 3.5 4 5 C3.01 5 2.02 5 1 5 C0.67 3.35 0.34 1.7 0 0 Z " fill="#132B5C" transform="translate(65,37)"/>
<path d="M0 0 C0.66 0 1.32 0 2 0 C1.67 1.32 1.34 2.64 1 4 C-2.3 3.67 -5.6 3.34 -9 3 C-9 2.67 -9 2.34 -9 2 C-6.94921875 1.77213542 -4.8984375 1.54427083 -2.84765625 1.31640625 C-0.98859771 1.18113386 -0.98859771 1.18113386 0 0 Z " fill="#FAF2D0" transform="translate(139,42)"/>
<path d="M0 0 C0.66 0.99 1.32 1.98 2 3 C2.99 3 3.98 3 5 3 C3.6875 4.5 3.6875 4.5 2 6 C1.01 6 0.02 6 -1 6 C-0.67 4.02 -0.34 2.04 0 0 Z " fill="#140C19" transform="translate(25,34)"/>
<path d="M0 0 C1.98 0 3.96 0 6 0 C6.33 1.65 6.66 3.3 7 5 C4.11562221 3.70700306 2.12780579 2.34058637 0 0 Z " fill="#E4E3E1" transform="translate(64,33)"/>
</svg>
