<?xml version="1.0" encoding="UTF-8"?>
<svg version="1.1" xmlns="http://www.w3.org/2000/svg" width="148" height="148">
<path d="M0 0 C48.84 0 97.68 0 148 0 C148 48.84 148 97.68 148 148 C99.16 148 50.32 148 0 148 C0 99.16 0 50.32 0 0 Z " fill="#FBFCFA" transform="translate(0,0)"/>
<path d="M0 0 C4.95 0 9.9 0 15 0 C15.33 8.25 15.66 16.5 16 25 C17.77375 24.0925 19.5475 23.185 21.375 22.25 C25.36084198 20.2688436 29.34773004 18.32054591 33.4375 16.5625 C34.19933594 16.23378906 34.96117187 15.90507812 35.74609375 15.56640625 C38.47055855 14.88174872 40.31415288 15.2752476 43 16 C43.66 17.98 44.32 19.96 45 22 C45.63164063 21.6390625 46.26328125 21.278125 46.9140625 20.90625 C54.62430793 16.90669905 61.37186092 15.65335622 70 17 C81.49239538 20.80844841 86.85926112 27.26798413 92.21484375 37.66796875 C93.11496983 40.34147755 93.23257995 41.46425183 92 44 C90.1796875 45.125 90.1796875 45.125 87.875 46 C84.34696475 47.42232602 81.17164739 49.04879839 77.890625 50.98828125 C72.90634845 53.65548709 67.51258098 55.7454126 62 57 C62 57.66 62 58.32 62 59 C63.3303125 58.505 63.3303125 58.505 64.6875 58 C67.84243686 57.04756623 69.76217918 56.60026903 73 57 C75.01953125 58.75 75.01953125 58.75 76.8125 61 C77.41707031 61.7425 78.02164063 62.485 78.64453125 63.25 C79.09183594 63.8275 79.53914063 64.405 80 65 C78.59002748 68.34522891 78.14067341 68.92425278 74.75 70.75 C66.73840028 73.37197809 57.89862896 73.37918973 50.3125 69.625 C47.79526118 68.17811651 45.41740378 66.61160252 43 65 C43.495 65.78375 43.99 66.5675 44.5 67.375 C46 70 46 70 46 72 C40.39 72 34.78 72 29 72 C28.31292969 70.75863281 27.62585937 69.51726562 26.91796875 68.23828125 C26.00785803 66.59632893 25.09769925 64.95440324 24.1875 63.3125 C23.50977539 62.08756836 23.50977539 62.08756836 22.81835938 60.83789062 C22.37685547 60.04189453 21.93535156 59.24589844 21.48046875 58.42578125 C21.07723389 57.69786377 20.67399902 56.96994629 20.25854492 56.2199707 C18.8805509 53.78930152 17.43755493 51.39592488 16 49 C15.67 56.59 15.34 64.18 15 72 C10.05 72 5.1 72 0 72 C0 64.08 0 56.16 0 48 C-0.66 48 -1.32 48 -2 48 C-3.81242323 43.9811485 -5.33501617 40.38889325 -6 36 C-4.02 35.34 -2.04 34.68 0 34 C0 22.78 0 11.56 0 0 Z " fill="#6BAC2B" transform="translate(34,13)"/>
<path d="M0 0 C4.40797649 3.59168455 7.13635551 8.68988968 9 14 C8.89453125 16.1875 8.89453125 16.1875 8 18 C6.1796875 19.125 6.1796875 19.125 3.875 20 C0.34696475 21.42232602 -2.82835261 23.04879839 -6.109375 24.98828125 C-11.09365155 27.65548709 -16.48741902 29.7454126 -22 31 C-22 31.66 -22 32.32 -22 33 C-20.6696875 32.505 -20.6696875 32.505 -19.3125 32 C-16.15756314 31.04756623 -14.23782082 30.60026903 -11 31 C-8.98046875 32.75 -8.98046875 32.75 -7.1875 35 C-6.58292969 35.7425 -5.97835937 36.485 -5.35546875 37.25 C-4.90816406 37.8275 -4.46085937 38.405 -4 39 C-5.40997252 42.34522891 -5.85932659 42.92425278 -9.25 44.75 C-17.21315474 47.35612337 -26.06542105 47.38900981 -33.625 43.6875 C-40.18606114 39.95911543 -45.86688604 35.56285859 -48 28 C-47.625 25.6875 -47.625 25.6875 -47 24 C-45.9275 23.71125 -44.855 23.4225 -43.75 23.125 C-39.66545375 21.95879947 -39.66545375 21.95879947 -36 20 C-35.05068575 17.73137688 -35.05068575 17.73137688 -34.5625 15.125 C-33.35960197 10.56318998 -32.1663673 8.49982038 -28 6 C-27.01 5.34 -26.02 4.68 -25 4 C-20.61080916 3.56108092 -17.42200792 4.12265694 -13.375 5.6875 C-11.13703961 6.56254891 -11.13703961 6.56254891 -9 7 C-6.2332494 5.79031105 -6.2332494 5.79031105 -4 4 C-1.1875 3.8125 -1.1875 3.8125 1 4 C0.505 2.02 0.505 2.02 0 0 Z " fill="#6EAD2D" transform="translate(118,39)"/>
<path d="M0 0 C1.265625 1.50390625 1.265625 1.50390625 2.25 3.5625 C2.85908203 4.76519531 2.85908203 4.76519531 3.48046875 5.9921875 C4.23263672 7.48105469 4.23263672 7.48105469 5 9 C6.49598106 11.74322081 8.02899578 14.46512382 9.5625 17.1875 C9.93858398 17.86433838 10.31466797 18.54117676 10.70214844 19.23852539 C12.45301841 22.36853155 14.24182742 25.40896168 16.27734375 28.36328125 C18 31 18 31 18 33 C12.39 33 6.78 33 1 33 C0.31292969 31.75863281 -0.37414062 30.51726562 -1.08203125 29.23828125 C-1.99214197 27.59632893 -2.90230075 25.95440324 -3.8125 24.3125 C-4.26431641 23.49587891 -4.71613281 22.67925781 -5.18164062 21.83789062 C-5.62314453 21.04189453 -6.06464844 20.24589844 -6.51953125 19.42578125 C-6.92276611 18.69786377 -7.32600098 17.96994629 -7.74145508 17.2199707 C-9.1194491 14.78930152 -10.56244507 12.39592488 -12 10 C-12.33 17.59 -12.66 25.18 -13 33 C-17.95 33 -22.9 33 -28 33 C-28 25.41 -28 17.82 -28 10 C-26.4325 9.29875 -24.865 8.5975 -23.25 7.875 C-17.94480717 5.4897195 -12.82841668 2.83064309 -7.7265625 0.0390625 C-4.57143509 -1.1633213 -3.13512623 -1.21446016 0 0 Z " fill="#107F12" transform="translate(62,52)"/>
<path d="M0 0 C4.1483706 2.17242141 6.26420532 4.07205048 8.3125 8.3125 C8.3125 8.9725 8.3125 9.6325 8.3125 10.3125 C6.3125 10.97916667 4.3125 11.64583333 2.3125 12.3125 C1.343125 12.745625 0.37375 13.17875 -0.625 13.625 C-4.80121994 14.56251876 -6.85271133 13.06170185 -10.6875 11.3125 C-14.94043891 10.7049373 -17.77726536 11.01904166 -21.4375 13.1875 C-24.53961967 15.5737459 -25.19416105 17.53689096 -26 21.3125 C-26.78641223 24.66351773 -27.23315757 25.95723054 -29.98046875 28.10546875 C-32.54690743 29.42757353 -34.9004615 30.55614909 -37.6875 31.3125 C-38.6775 30.9825 -39.6675 30.6525 -40.6875 30.3125 C-41.10737447 21.12191428 -40.5754123 14.06358152 -35.75 6.125 C-26.26927908 -3.94826598 -12.17737702 -5.65535604 0 0 Z " fill="#054A23" transform="translate(110.6875,32.6875)"/>
<path d="M0 0 C2.97 0 5.94 0 9 0 C9.33 0.99 9.66 1.98 10 3 C10.83354004 2.67402832 11.66708008 2.34805664 12.52587891 2.01220703 C16.38830838 0.88686391 19.56741605 0.77253933 23.5859375 0.8046875 C24.63861313 0.80893234 24.63861313 0.80893234 25.71255493 0.81326294 C27.93355028 0.82437488 30.15412845 0.84946166 32.375 0.875 C33.88931705 0.88504146 35.40364049 0.89416527 36.91796875 0.90234375 C40.61211258 0.92428446 44.30601551 0.95875125 48 1 C48.495 2.485 48.495 2.485 49 4 C49.66 4 50.32 4 51 4 C51.33 3.34 51.66 2.68 52 2 C52.99 2 53.98 2 55 2 C55 6.62 55 11.24 55 16 C54.01 16 53.02 16 52 16 C52 15.34 52 14.68 52 14 C51.34 14 50.68 14 50 14 C50 14.66 50 15.32 50 16 C49.01 15.67 48.02 15.34 47 15 C46.505 12.525 46.505 12.525 46 10 C44.35 10 42.7 10 41 10 C41 11.98 41 13.96 41 16 C40.01 16 39.02 16 38 16 C37.505 10.06 37.505 10.06 37 4 C35.35 4 33.7 4 32 4 C32 7.96 32 11.92 32 16 C31.01 16 30.02 16 29 16 C29 12.04 29 8.08 29 4 C27.06125 4.144375 25.1225 4.28875 23.125 4.4375 C21.48917969 4.55931641 21.48917969 4.55931641 19.8203125 4.68359375 C17.05271029 4.83001703 17.05271029 4.83001703 15 6 C15 8.31 15 10.62 15 13 C17.64 13.33 20.28 13.66 23 14 C23 14.66 23 15.32 23 16 C21.18757948 16.02687279 19.37504767 16.04633715 17.5625 16.0625 C16.55316406 16.07410156 15.54382813 16.08570313 14.50390625 16.09765625 C12 16 12 16 11 15 C10.67 15.66 10.34 16.32 10 17 C6.37 16.67 2.74 16.34 -1 16 C-1.02692484 13.70839681 -1.04636124 11.41670454 -1.0625 9.125 C-1.07410156 7.84882813 -1.08570313 6.57265625 -1.09765625 5.2578125 C-1 2 -1 2 0 0 Z " fill="#B4CF8E" transform="translate(56,126)"/>
<path d="M0 0 C1.65 0 3.3 0 5 0 C5.33 1.98 5.66 3.96 6 6 C6.53625 5.01 7.0725 4.02 7.625 3 C8.40875 2.01 9.1925 1.02 10 0 C13.25 -0.375 13.25 -0.375 16 0 C16 0.99 16 1.98 16 3 C18.16666667 2.16666667 18.16666667 2.16666667 19 0 C22.63 0 26.26 0 30 0 C31.17094005 2.7899439 32.33690927 5.58178597 33.5 8.375 C33.83386719 9.1690625 34.16773438 9.963125 34.51171875 10.78125 C34.82753906 11.54179688 35.14335938 12.30234375 35.46875 13.0859375 C35.76201172 13.7876709 36.05527344 14.4894043 36.35742188 15.21240234 C37 17 37 17 37 19 C35.35 19 33.7 19 32 19 C31.505 16.525 31.505 16.525 31 14 C28.69 14.33 26.38 14.66 24 15 C23.67 16.32 23.34 17.64 23 19 C12.31569507 19.92017937 12.31569507 19.92017937 9.08984375 17.6640625 C7.75 16 7.75 16 6 13 C5.67 14.98 5.34 16.96 5 19 C3.35 19 1.7 19 0 19 C0 12.73 0 6.46 0 0 Z " fill="#E7F2E7" transform="translate(18,100)"/>
<path d="M0 0 C4.40797649 3.59168455 7.13635551 8.68988968 9 14 C8.91015625 16.171875 8.91015625 16.171875 8 18 C6.0390625 19.265625 6.0390625 19.265625 3.625 20.25 C2.83351562 20.58515625 2.04203125 20.9203125 1.2265625 21.265625 C-1 22 -1 22 -4 22 C-4.33 21.01 -4.66 20.02 -5 19 C-5.99 19 -6.98 19 -8 19 C-8.66 17.35 -9.32 15.7 -10 14 C-9.34 14 -8.68 14 -8 14 C-8 13.34 -8 12.68 -8 12 C-16.83227584 11.43623771 -23.66567375 14.53556155 -31.15234375 19.01171875 C-33 20 -33 20 -35 20 C-34.6166563 14.34568045 -34.22219898 11.10491567 -30 7 C-25.97175445 3.84272646 -23.05775767 3.49422423 -18 4 C-16.44882274 4.53571586 -14.90715317 5.09958076 -13.375 5.6875 C-11.13703961 6.56254891 -11.13703961 6.56254891 -9 7 C-6.2332494 5.79031105 -6.2332494 5.79031105 -4 4 C-1.1875 3.8125 -1.1875 3.8125 1 4 C0.505 2.02 0.505 2.02 0 0 Z " fill="#71AE2F" transform="translate(118,39)"/>
<path d="M0 0 C4.62 0 9.24 0 14 0 C14 8.58 14 17.16 14 26 C2.25 32 2.25 32 0 32 C0 21.44 0 10.88 0 0 Z " fill="#024620" transform="translate(34,14)"/>
<path d="M0 0 C2.01953125 1.75 2.01953125 1.75 3.8125 4 C4.41707031 4.7425 5.02164063 5.485 5.64453125 6.25 C6.09183594 6.8275 6.53914063 7.405 7 8 C5.59002748 11.34522891 5.14067341 11.92425278 1.75 13.75 C-6.38596329 16.4126789 -15.20002421 16.33748789 -22.875 12.5 C-24.26654757 11.6946027 -25.64895835 10.87163978 -27 10 C-25.76697053 6.3009116 -24.89340895 6.08217796 -21.5 4.375 C-17.22255193 2.32231659 -13.53420802 1.3767104 -8.8125 1.140625 C-5.53366962 0.88623299 -3.51186606 -0.41995409 0 0 Z " fill="#027F03" transform="translate(107,70)"/>
<path d="M0 0 C0 8.25 0 16.5 0 25 C-4.62 25 -9.24 25 -14 25 C-14 17.74 -14 10.48 -14 3 C-7 0 -7 0 0 0 Z " fill="#024720" transform="translate(48,59)"/>
<path d="M0 0 C0.28875 0.969375 0.5775 1.93875 0.875 2.9375 C1.64214682 6.10664203 1.64214682 6.10664203 4 7 C3.01 7 2.02 7 1 7 C0.731875 7.5775 0.46375 8.155 0.1875 8.75 C-1 11 -1 11 -2.5 12.8125 C-6.18160398 18.18150581 -6.27388009 24.17881018 -6.125 30.4375 C-6.11146484 31.53481445 -6.11146484 31.53481445 -6.09765625 32.65429688 C-6.07436153 34.43634298 -6.0385019 36.21821759 -6 38 C-11.12223992 33.16914498 -15.63021176 27.21087059 -16 20 C-15.195625 19.71125 -14.39125 19.4225 -13.5625 19.125 C-10.8673532 18.26737432 -10.8673532 18.26737432 -10 16 C-10.66 16 -11.32 16 -12 16 C-11.125 12.125 -11.125 12.125 -10 11 C-12.97 10.67 -15.94 10.34 -19 10 C-19.0625 7.75 -19.0625 7.75 -18 5 C-15.14276695 3.29375759 -12.098131 2.19238991 -9 1 C-7.95005859 0.43732422 -7.95005859 0.43732422 -6.87890625 -0.13671875 C-4.30781546 -1.31803073 -2.6633811 -0.73982808 0 0 Z " fill="#6DAC29" transform="translate(77,29)"/>
<path d="M0 0 C1.8975 -0.061875 3.795 -0.12375 5.75 -0.1875 C7.35101563 -0.23970703 7.35101563 -0.23970703 8.984375 -0.29296875 C12.38838295 0.0377315 13.71811619 0.46336906 16 3 C16.82464244 6.72510894 16.61799243 10.2471005 16 14 C14.1875 16.6875 14.1875 16.6875 11 18 C7.26427307 18.29906803 3.76200014 18.18130121 0 18 C0 12.06 0 6.12 0 0 Z " fill="#077209" transform="translate(58,101)"/>
<path d="M0 0 C1.65 0 3.3 0 5 0 C5 6.27 5 12.54 5 19 C3.35 19 1.7 19 0 19 C-0.66 17.68 -1.32 16.36 -2 15 C-2.66 15 -3.32 15 -4 15 C-5.625 13 -5.625 13 -7 11 C-7.33 13.64 -7.66 16.28 -8 19 C-9.32 19 -10.64 19 -12 19 C-12 13.06 -12 7.12 -12 1 C-7 1 -7 1 -5.19921875 2.75 C-4.70035156 3.4925 -4.20148438 4.235 -3.6875 5 C-3.17574219 5.7425 -2.66398437 6.485 -2.13671875 7.25 C-1.76160156 7.8275 -1.38648437 8.405 -1 9 C-0.67 6.03 -0.34 3.06 0 0 Z " fill="#0B780C" transform="translate(110,100)"/>
<path d="M0 0 C1.32 0 2.64 0 4 0 C4.33 4.62 4.66 9.24 5 14 C6.65 14 8.3 14 10 14 C10.33 9.38 10.66 4.76 11 0 C12.65 0 14.3 0 16 0 C16.13572155 2.39774745 16.23436868 4.78775245 16.3125 7.1875 C16.35439453 7.86103516 16.39628906 8.53457031 16.43945312 9.22851562 C16.53466921 13.13237499 16.13695394 14.82172376 13.734375 17.94921875 C10.08327954 20.68754035 10.08327954 20.68754035 6.9375 20.625 C3 20 3 20 0.7734375 17.9140625 C-1.44376858 14.27081198 -1.44091348 11.9832169 -1.3125 7.75 C-1.28800781 6.50734375 -1.26351562 5.2646875 -1.23828125 3.984375 C-1 1 -1 1 0 0 Z " fill="#3D8E3D" transform="translate(78,100)"/>
<path d="M0 0 C0 1.32 0 2.64 0 4 C1.11375 3.690625 1.11375 3.690625 2.25 3.375 C5.35487 2.95160864 6.47772264 3.19837331 9 5 C9.33 5.99 9.66 6.98 10 8 C9.34 8 8.68 8 8 8 C7.67 8.66 7.34 9.32 7 10 C7.66 10 8.32 10 9 10 C8.67 10.99 8.34 11.98 8 13 C6.35 13.33 4.7 13.66 3 14 C3 14.66 3 15.32 3 16 C2.34 16 1.68 16 1 16 C1 15.34 1 14.68 1 14 C0.13375 14.226875 -0.7325 14.45375 -1.625 14.6875 C-5.77692766 15.07193775 -7.60043766 14.37178768 -11 12 C-11.875 9.3125 -11.875 9.3125 -12 7 C-3.89473684 0 -3.89473684 0 0 0 Z " fill="#6FAD2C" transform="translate(58,35)"/>
<path d="M0 0 C2.97 0 5.94 0 9 0 C9.33 0.99 9.66 1.98 10 3 C10.99 3 11.98 3 13 3 C12.98839844 3.77085937 12.97679688 4.54171875 12.96484375 5.3359375 C12.95582031 6.33882812 12.94679688 7.34171875 12.9375 8.375 C12.92589844 9.37273437 12.91429688 10.37046875 12.90234375 11.3984375 C12.81993398 13.98432453 12.81993398 13.98432453 14 16 C13.01 15.67 12.02 15.34 11 15 C10.67 15.66 10.34 16.32 10 17 C6.37 16.67 2.74 16.34 -1 16 C-1.02692484 13.70839681 -1.04636124 11.41670454 -1.0625 9.125 C-1.07410156 7.84882813 -1.08570313 6.57265625 -1.09765625 5.2578125 C-1 2 -1 2 0 0 Z " fill="#EBF4E0" transform="translate(56,126)"/>
<path d="M0 0 C2.875 -0.125 2.875 -0.125 6 0 C8.5083598 2.5083598 8.91800947 4.62673541 10 8 C10.53069941 9.23394149 11.07249394 10.46316732 11.625 11.6875 C13 15 13 15 13 18 C11.35 18 9.7 18 8 18 C7.67 16.68 7.34 15.36 7 14 C4.69 14 2.38 14 0 14 C-0.33 15.32 -0.66 16.64 -1 18 C-2.65 18 -4.3 18 -6 18 C-5.20063149 14.55272329 -4.12116761 11.23025895 -3 7.875 C-2.649375 6.82054688 -2.29875 5.76609375 -1.9375 4.6796875 C-1 2 -1 2 0 0 Z " fill="#0B790B" transform="translate(123,101)"/>
<path d="M0 0 C1.65 0 3.3 0 5 0 C5.33 1.98 5.66 3.96 6 6 C6.37125 5.175 6.7425 4.35 7.125 3.5 C7.74375 2.675 8.3625 1.85 9 1 C12.1875 0.6875 12.1875 0.6875 15 1 C13.70700306 3.88437779 12.34058637 5.87219421 10 8 C11.17611603 10.77991061 12.68480049 12.9065289 14.625 15.1875 C17 18 17 18 17 19 C14.3125 19.375 14.3125 19.375 11 19 C8.93601924 17.176017 7.60958947 15.27236161 6 13 C5.67 14.98 5.34 16.96 5 19 C3.35 19 1.7 19 0 19 C0 12.73 0 6.46 0 0 Z " fill="#0C7D0F" transform="translate(18,100)"/>
<path d="M0 0 C2.125 1.1875 2.125 1.1875 3.125 4.1875 C2.02800781 4.73019531 0.93101563 5.27289063 -0.19921875 5.83203125 C-1.65369939 6.5545797 -3.1081235 7.27724196 -4.5625 8 C-5.6443457 8.53463867 -5.6443457 8.53463867 -6.74804688 9.08007812 C-9.83063638 10.614335 -12.82573476 12.15751535 -15.76953125 13.94921875 C-17.875 15.1875 -17.875 15.1875 -19.875 15.1875 C-19.4916563 9.53318045 -19.09719898 6.29241567 -14.875 2.1875 C-10.11522217 -1.54313668 -5.72915559 -1.61910919 0 0 Z " fill="#FAFBF8" transform="translate(102.875,43.8125)"/>
<path d="M0 0 C6.93 0.33 13.86 0.66 21 1 C23.24519581 5.49039163 23.04965789 8.44287263 22.625 13.25 C22.56828125 13.99507812 22.5115625 14.74015625 22.453125 15.5078125 C22.31223742 17.33935108 22.15748116 19.16981352 22 21 C20.02 20.67 18.04 20.34 16 20 C16.66 19.566875 17.32 19.13375 18 18.6875 C20.77076742 14.96428128 20.4396671 11.99165343 20.43359375 7.4609375 C20.29050781 6.64882812 20.14742187 5.83671875 20 5 C16.59568053 2.73045369 14.83475798 2.63450051 10.8125 2.375 C8.894375 2.25125 6.97625 2.1275 5 2 C5 7.94 5 13.88 5 20 C2.29120665 21.35439668 -0.00933268 21.06501451 -3 21 C-3 20.67 -3 20.34 -3 20 C-1.35 20 0.3 20 2 20 C1.4946875 18.79601562 0.989375 17.59203125 0.46875 16.3515625 C-0.18768492 14.7761187 -0.84392483 13.20059364 -1.5 11.625 C-2.00080078 10.43390625 -2.00080078 10.43390625 -2.51171875 9.21875 C-2.82753906 8.45820312 -3.14335938 7.69765625 -3.46875 6.9140625 C-3.76201172 6.2123291 -4.05527344 5.5105957 -4.35742188 4.78759766 C-5 3 -5 3 -5 1 C-3.02 1.99 -3.02 1.99 -1 3 C-0.67 2.01 -0.34 1.02 0 0 Z " fill="#EEF9ED" transform="translate(53,99)"/>
<path d="M0 0 C3.3 0 6.6 0 10 0 C10 0.33 10 0.66 10 1 C7.36 1 4.72 1 2 1 C2 2.32 2 3.64 2 5 C4.64 5 7.28 5 10 5 C10.33 5.99 10.66 6.98 11 8 C11.66 8.33 12.32 8.66 13 9 C13 6.03 13 3.06 13 0 C13.99 0 14.98 0 16 0 C16 3.96 16 7.92 16 12 C18.64 12 21.28 12 24 12 C24 12.66 24 13.32 24 14 C20.37 14 16.74 14 13 14 C13 12.68 13 11.36 13 10 C12.01 10.495 12.01 10.495 11 11 C11 11.99 11 12.98 11 14 C7.37 14 3.74 14 0 14 C0 9.38 0 4.76 0 0 Z " fill="#E5F1D8" transform="translate(29,128)"/>
<path d="M0 0 C1.65 0 3.3 0 5 0 C8.18464019 5.93169624 10.65343025 11.3895667 12 18 C10.35 18 8.7 18 7 18 C6.67 16.35 6.34 14.7 6 13 C3.69 13.33 1.38 13.66 -1 14 C-1.33 15.32 -1.66 16.64 -2 18 C-3.65 18 -5.3 18 -7 18 C-6.37321829 14.33827525 -5.35548154 11.1181005 -3.9375 7.6875 C-3.57527344 6.80449219 -3.21304688 5.92148438 -2.83984375 5.01171875 C-2.56269531 4.34785156 -2.28554688 3.68398437 -2 3 C-1.01 3.33 -0.02 3.66 1 4 C1 5.98 1 7.96 1 10 C1.99 10 2.98 10 4 10 C3.67 7.69 3.34 5.38 3 3 C2.01 2.67 1.02 2.34 0 2 C0 1.34 0 0.68 0 0 Z " fill="#167E17" transform="translate(43,101)"/>
<path d="M0 0 C0 0.66 0 1.32 0 2 C0.66 2 1.32 2 2 2 C2.33 1.34 2.66 0.68 3 0 C3.99 0 4.98 0 6 0 C6 4.62 6 9.24 6 14 C5.01 14 4.02 14 3 14 C3 13.34 3 12.68 3 12 C2.34 12 1.68 12 1 12 C1 12.66 1 13.32 1 14 C0.01 13.67 -0.98 13.34 -2 13 C-2.33 11.02 -2.66 9.04 -3 7 C-4.65 7 -6.3 7 -8 7 C-8 5.02 -8 3.04 -8 1 C-2.25 0 -2.25 0 0 0 Z " fill="#C6D8AC" transform="translate(105,128)"/>
<path d="M0 0 C0.55300781 0.37511719 1.10601562 0.75023438 1.67578125 1.13671875 C0.68578125 3.11671875 -0.30421875 5.09671875 -1.32421875 7.13671875 C0.98578125 7.13671875 3.29578125 7.13671875 5.67578125 7.13671875 C5.67578125 7.46671875 5.67578125 7.79671875 5.67578125 8.13671875 C3.36578125 8.13671875 1.05578125 8.13671875 -1.32421875 8.13671875 C-1.32421875 9.12671875 -1.32421875 10.11671875 -1.32421875 11.13671875 C2.63578125 11.13671875 6.59578125 11.13671875 10.67578125 11.13671875 C10.67578125 11.46671875 10.67578125 11.79671875 10.67578125 12.13671875 C1.33926359 12.74211255 -5.36235168 12.27340718 -13.32421875 7.13671875 C-12.06708157 3.36530721 -10.97739658 3.08496576 -7.51171875 1.32421875 C-6.20267578 0.63392578 -6.20267578 0.63392578 -4.8671875 -0.0703125 C-2.32421875 -0.86328125 -2.32421875 -0.86328125 0 0 Z " fill="#077A05" transform="translate(93.32421875,72.86328125)"/>
<path d="M0 0 C0 6.93 0 13.86 0 21 C-5.04321861 15.95678139 -9.62193346 10.37229752 -10 3 C-8.70990357 2.49596232 -7.41786211 1.99690074 -6.125 1.5 C-5.04605469 1.08234375 -5.04605469 1.08234375 -3.9453125 0.65625 C-2 0 -2 0 0 0 Z " fill="#C0DCC2" transform="translate(71,46)"/>
<path d="M0 0 C1.65 0.33 3.3 0.66 5 1 C5.02685412 3.31243792 5.04632841 5.6249627 5.0625 7.9375 C5.07410156 9.22527344 5.08570312 10.51304688 5.09765625 11.83984375 C5 15 5 15 4 16 C1.5 16.125 1.5 16.125 -1 16 C-2 15 -2 15 -2.09765625 12.05859375 C-2.08605469 10.86363281 -2.07445313 9.66867188 -2.0625 8.4375 C-2.05347656 7.23996094 -2.04445313 6.04242188 -2.03515625 4.80859375 C-2.02355469 3.88175781 -2.01195313 2.95492187 -2 2 C-1.34 2 -0.68 2 0 2 C0 1.34 0 0.68 0 0 Z " fill="#FAFBF8" transform="translate(84,99)"/>
<path d="M0 0 C0.59167969 0.40992187 1.18335937 0.81984375 1.79296875 1.2421875 C2.58316406 1.78101562 3.37335938 2.31984375 4.1875 2.875 C5.35345703 3.67550781 5.35345703 3.67550781 6.54296875 4.4921875 C11.12170082 7.30202944 14.96070088 8.27213412 20.3125 8.625 C21.91544922 8.73714844 21.91544922 8.73714844 23.55078125 8.8515625 C24.35902344 8.90054688 25.16726562 8.94953125 26 9 C26 9.33 26 9.66 26 10 C24.96359375 10.06058594 23.9271875 10.12117188 22.859375 10.18359375 C21.48957127 10.26803371 20.11978025 10.35267997 18.75 10.4375 C17.72712891 10.49647461 17.72712891 10.49647461 16.68359375 10.55664062 C13.93547735 10.73006545 11.31525631 10.92014203 8.640625 11.59765625 C7 12 7 12 5 11 C3.6265365 10.84995027 2.2471474 10.75161994 0.8671875 10.68359375 C0.06152344 10.64169922 -0.74414062 10.59980469 -1.57421875 10.55664062 C-2.41597656 10.51732422 -3.25773437 10.47800781 -4.125 10.4375 C-4.97449219 10.39431641 -5.82398437 10.35113281 -6.69921875 10.30664062 C-8.79928223 10.20045764 -10.89961948 10.09971503 -13 10 C-13 9.67 -13 9.34 -13 9 C-7.39 9 -1.78 9 4 9 C2.02 5.535 2.02 5.535 0 2 C0 1.34 0 0.68 0 0 Z " fill="#E0F3E0" transform="translate(76,76)"/>
<path d="M0 0 C4.95 0 9.9 0 15 0 C15 9.24 15 18.48 15 28 C14.01 28.33 13.02 28.66 12 29 C12.66 30.32 13.32 31.64 14 33 C12.72125 33.144375 11.4425 33.28875 10.125 33.4375 C7.74307106 33.70642746 6.15547309 33.92226346 4 35 C1.875 34.0625 1.875 34.0625 0 33 C1.95585325 31.99515796 3.91476237 30.99626195 5.875 30 C6.96554688 29.443125 8.05609375 28.88625 9.1796875 28.3125 C12 27 12 27 14 27 C14 18.42 14 9.84 14 1 C9.38 1 4.76 1 0 1 C0 0.67 0 0.34 0 0 Z " fill="#6B9A53" transform="translate(34,13)"/>
<path d="M0 0 C1.98 0 3.96 0 6 0 C7.58894072 1.58894072 7.16998411 3.24801424 7.1875 5.4375 C7.20167969 6.24058594 7.21585937 7.04367188 7.23046875 7.87109375 C7 10 7 10 5 12 C3.35 12 1.7 12 0 12 C0 8.04 0 4.08 0 0 Z " fill="#E4F2E4" transform="translate(62,104)"/>
<path d="M0 0 C2.5 0.8125 2.5 0.8125 5 3 C5.7634522 6.77027933 5.7343482 10.22658003 5 14 C2.5 16.6875 2.5 16.6875 0 18 C-0.66 16.68 -1.32 15.36 -2 14 C-1.67 13.67 -1.34 13.34 -1 13 C-0.92765321 10.47690571 -1.00364978 7.96851553 -1.0625 5.4453125 C-1 3 -1 3 0 0 Z " fill="#168017" transform="translate(69,101)"/>
<path d="M0 0 C3.3 0 6.6 0 10 0 C10 0.33 10 0.66 10 1 C7.36 1 4.72 1 2 1 C2 2.65 2 4.3 2 6 C4.31 6 6.62 6 9 6 C9 6.66 9 7.32 9 8 C7.02 8 5.04 8 3 8 C3 9.32 3 10.64 3 12 C5.31 12 7.62 12 10 12 C10 12.66 10 13.32 10 14 C6.7 14 3.4 14 0 14 C0 9.38 0 4.76 0 0 Z " fill="#88AE52" transform="translate(55,128)"/>
<path d="M0 0 C1.32 0.33 2.64 0.66 4 1 C5.40333568 6.76926889 4.67296616 12.18143105 4 18 C2.68 18 1.36 18 0 18 C0 12.06 0 6.12 0 0 Z " fill="#067406" transform="translate(98,101)"/>
<path d="M0 0 C3.3 0 6.6 0 10 0 C10 0.33 10 0.66 10 1 C7.36 1 4.72 1 2 1 C2.33 2.32 2.66 3.64 3 5 C5.97 5.495 5.97 5.495 9 6 C9 6.33 9 6.66 9 7 C7.02 7 5.04 7 3 7 C3 8.65 3 10.3 3 12 C5.64 12 8.28 12 11 12 C11 12.66 11 13.32 11 14 C7.37 14 3.74 14 0 14 C0 9.38 0 4.76 0 0 Z " fill="#99BA6A" transform="translate(29,128)"/>
<path d="M0 0 C1.21236328 0.04060547 1.21236328 0.04060547 2.44921875 0.08203125 C3.06410156 0.11683594 3.67898437 0.15164062 4.3125 0.1875 C4.3125 0.8475 4.3125 1.5075 4.3125 2.1875 C1.6725 2.5175 -0.9675 2.8475 -3.6875 3.1875 C-3.6875 5.8275 -3.6875 8.4675 -3.6875 11.1875 C-1.3775 11.5175 0.9325 11.8475 3.3125 12.1875 C3.3125 12.8475 3.3125 13.5075 3.3125 14.1875 C-3.97108209 14.54570896 -3.97108209 14.54570896 -6.6875 13.1875 C-8.27245415 10.01759169 -8.39890218 6.64686747 -7.6875 3.1875 C-5.47258812 0.0584975 -3.72023446 -0.16174932 0 0 Z " fill="#84A94B" transform="translate(121.6875,127.8125)"/>
<path d="M0 0 C3.43909383 0.49350225 4.29058013 1.69553193 6.42578125 4.375 C7.03035156 5.1175 7.63492188 5.86 8.2578125 6.625 C8.70511719 7.2025 9.15242188 7.78 9.61328125 8.375 C8.74609375 10.328125 8.74609375 10.328125 7.61328125 12.375 C5.48828125 13.125 5.48828125 13.125 3.61328125 13.375 C3.30390625 12.281875 2.99453125 11.18875 2.67578125 10.0625 C2.02990228 7.82092006 1.35096955 5.5880649 0.61328125 3.375 C-1.03671875 3.045 -2.68671875 2.715 -4.38671875 2.375 C-2.38671875 0.375 -2.38671875 0.375 0 0 Z " fill="#188019" transform="translate(104.38671875,69.625)"/>
<path d="M0 0 C0 4.62 0 9.24 0 14 C-0.66 13.67 -1.32 13.34 -2 13 C-2.625 9.9375 -2.625 9.9375 -3 7 C-4.65 7 -6.3 7 -8 7 C-8 5.02 -8 3.04 -8 1 C-2.25 0 -2.25 0 0 0 Z " fill="#8AB35E" transform="translate(105,128)"/>
<path d="M0 0 C0.33 0 0.66 0 1 0 C1 3.63 1 7.26 1 11 C2.32 10.34 3.64 9.68 5 9 C4.01 11.97 3.02 14.94 2 18 C3.65 18 5.3 18 7 18 C7.33 17.34 7.66 16.68 8 16 C8.33 16.99 8.66 17.98 9 19 C6.54159395 19.02691685 4.08348118 19.04679802 1.625 19.0625 C0.92632812 19.07087891 0.22765625 19.07925781 -0.4921875 19.08789062 C-5.7734375 19.11328125 -5.7734375 19.11328125 -8 18 C-7.67 16.68 -7.34 15.36 -7 14 C-6.01 15.485 -6.01 15.485 -5 17 C-3.35 17.33 -1.7 17.66 0 18 C0 12.06 0 6.12 0 0 Z " fill="#D6EDD3" transform="translate(115,101)"/>
<path d="M0 0 C2.64 0 5.28 0 8 0 C7.67 0.99 7.34 1.98 7 3 C6.34 3 5.68 3 5 3 C5.66 4.65 6.32 6.3 7 8 C7.99 8 8.98 8 10 8 C10 8.66 10 9.32 10 10 C10.66 10.33 11.32 10.66 12 11 C10.33657163 12.66342837 8.2174291 12.36048097 5.9375 12.5625 C5.01839844 12.64628906 4.09929687 12.73007812 3.15234375 12.81640625 C2.44207031 12.87699219 1.73179688 12.93757813 1 13 C1 12.34 1 11.68 1 11 C2.32 10.34 3.64 9.68 5 9 C3.35 8.01 1.7 7.02 0 6 C0.66 5.67 1.32 5.34 2 5 C2.66 5.33 3.32 5.66 4 6 C3.67 5.01 3.34 4.02 3 3 C3.33 2.34 3.66 1.68 4 1 C2.68 0.67 1.36 0.34 0 0 Z " fill="#6AAB23" transform="translate(103,50)"/>
<path d="M0 0 C1.32 0 2.64 0 4 0 C4 4.95 4 9.9 4 15 C3.01 15 2.02 15 1 15 C-0.44207941 12.11584117 -0.09394887 9.58278472 -0.0625 6.375 C-0.05347656 5.18648438 -0.04445313 3.99796875 -0.03515625 2.7734375 C-0.02355469 1.85820313 -0.01195313 0.94296875 0 0 Z " fill="#0F7F0F" transform="translate(78,100)"/>
<path d="M0 0 C0.33 0 0.66 0 1 0 C1.33 3.63 1.66 7.26 2 11 C2.33 7.37 2.66 3.74 3 0 C3.33 0 3.66 0 4 0 C4 5.94 4 11.88 4 18 C2.68 17.67 1.36 17.34 0 17 C0 17.66 0 18.32 0 19 C-1.65 19 -3.3 19 -5 19 C-4.35546875 18.32582031 -3.7109375 17.65164062 -3.046875 16.95703125 C-0.54395622 13.34117339 -0.41291296 11.04542162 -0.25 6.6875 C-0.19328125 5.43324219 -0.1365625 4.17898437 -0.078125 2.88671875 C-0.05234375 1.93410156 -0.0265625 0.98148437 0 0 Z " fill="#C7DDC4" transform="translate(94,101)"/>
<path d="M0 0 C3.94727588 -0.17942163 6.5980513 -0.09350689 10 2 C10 4.31 10 6.62 10 9 C10.66 9 11.32 9 12 9 C12.33 10.32 12.66 11.64 13 13 C12.34 13 11.68 13 11 13 C9.00902154 10.01353231 8.05875074 7.40312738 7 4 C4.03 3.505 4.03 3.505 1 3 C0.34 5.31 -0.32 7.62 -1 10 C-1.66 10 -2.32 10 -3 10 C-3.33 8.02 -3.66 6.04 -4 4 C-3.01 3.67 -2.02 3.34 -1 3 C-0.67 2.01 -0.34 1.02 0 0 Z " fill="#D8EED9" transform="translate(122,98)"/>
<path d="M0 0 C2.875 0.8125 2.875 0.8125 5 2 C5.33 2.99 5.66 3.98 6 5 C1.375 8 1.375 8 -2 8 C-2 7.34 -2 6.68 -2 6 C-2.66 5.34 -3.32 4.68 -4 4 C-3.34 3.34 -2.68 2.68 -2 2 C-3.32 1.67 -4.64 1.34 -6 1 C-6.33 1.99 -6.66 2.98 -7 4 C-7.99 3.34 -8.98 2.68 -10 2 C-6.28424249 -0.47717167 -4.40013262 -0.30345742 0 0 Z " fill="#DDEAE2" transform="translate(100,43)"/>
<path d="M0 0 C5.28 0 10.56 0 16 0 C18.24519581 4.49039163 18.04965789 7.44287263 17.625 12.25 C17.56828125 12.99507812 17.5115625 13.74015625 17.453125 14.5078125 C17.31223742 16.33935108 17.15748116 18.16981352 17 20 C15.02 19.67 13.04 19.34 11 19 C11.66 18.566875 12.32 18.13375 13 17.6875 C15.77076742 13.96428128 15.4396671 10.99165343 15.43359375 6.4609375 C15.29050781 5.64882812 15.14742187 4.83671875 15 4 C11.59568053 1.73045369 9.83475798 1.63450051 5.8125 1.375 C4.72582031 1.30023438 3.63914063 1.22546875 2.51953125 1.1484375 C1.68808594 1.09945312 0.85664062 1.05046875 0 1 C0 0.67 0 0.34 0 0 Z " fill="#C7E4C6" transform="translate(58,100)"/>
<path d="M0 0 C0.66 0.33 1.32 0.66 2 1 C2 1.33 2 1.66 2 2 C5.04386724 2.08226668 7.07175348 1.97608217 10 1 C12.3406065 1.27769908 14.67624308 1.60539977 17 2 C17 2.33 17 2.66 17 3 C14.69 3 12.38 3 10 3 C10 3.99 10 4.98 10 6 C13.96 6 17.92 6 22 6 C22 6.33 22 6.66 22 7 C12.66348234 7.6053938 5.96186707 7.13668843 -2 2 C-1.34 1.34 -0.68 0.68 0 0 Z " fill="#197D1B" transform="translate(82,78)"/>
<path d="M0 0 C2.63664741 2.63664741 4.255224 4.75970171 6 8 C6 8.66 6 9.32 6 10 C4.35 10.33 2.7 10.66 1 11 C1 15.29 1 19.58 1 24 C0.67 24 0.34 24 0 24 C0 16.08 0 8.16 0 0 Z " fill="#E5F4E9" transform="translate(49,61)"/>
<path d="M0 0 C1.9453125 -0.29296875 1.9453125 -0.29296875 4.125 -0.1875 C5.40375 -0.125625 6.6825 -0.06375 8 0 C8 0.33 8 0.66 8 1 C7.030625 1.12375 6.06125 1.2475 5.0625 1.375 C3.5465625 1.684375 3.5465625 1.684375 2 2 C0.5216774 4.95664519 0.93967217 7.74229737 1 11 C3.64 11.33 6.28 11.66 9 12 C9 12.66 9 13.32 9 14 C7.54207116 14.05399736 6.08357288 14.09279177 4.625 14.125 C3.81289062 14.14820313 3.00078125 14.17140625 2.1640625 14.1953125 C0 14 0 14 -2 12 C-2.265625 9.94140625 -2.265625 9.94140625 -2.25 7.5625 C-2.25515625 6.78003906 -2.2603125 5.99757812 -2.265625 5.19140625 C-2 3 -2 3 0 0 Z " fill="#7EA446" transform="translate(70,128)"/>
<path d="M0 0 C0.99 0.33 1.98 0.66 3 1 C3 6.61 3 12.22 3 18 C2.01 18 1.02 18 0 18 C0 12.06 0 6.12 0 0 Z " fill="#027D03" transform="translate(19,101)"/>
<path d="M0 0 C2.875 -0.125 2.875 -0.125 6 0 C8 2 8 2 8 5 C7.34 5 6.68 5 6 5 C5.67 6.65 5.34 8.3 5 10 C4.01 10 3.02 10 2 10 C1.87625 9.195625 1.7525 8.39125 1.625 7.5625 C1.315625 6.2940625 1.315625 6.2940625 1 5 C0.34 4.67 -0.32 4.34 -1 4 C-0.67 2.68 -0.34 1.36 0 0 Z " fill="#4B9E4B" transform="translate(123,101)"/>
<path d="M0 0 C1.65 0 3.3 0 5 0 C5.88187007 6.61402554 6.02343679 12.34766085 5 19 C4.67 19 4.34 19 4 19 C3.67 13.39 3.34 7.78 3 2 C2.34 1.67 1.68 1.34 1 1 C1 6.94 1 12.88 1 19 C0.67 19 0.34 19 0 19 C0 12.73 0 6.46 0 0 Z " fill="#287B28" transform="translate(18,100)"/>
<path d="M0 0 C0.66 0.66 1.32 1.32 2 2 C0.35 2.66 -1.3 3.32 -3 4 C-2.34 4.33 -1.68 4.66 -1 5 C-1.33 6.32 -1.66 7.64 -2 9 C-2.33 8.01 -2.66 7.02 -3 6 C-4.60875 6.495 -4.60875 6.495 -6.25 7 C-10 8 -10 8 -14 8 C-14 7.34 -14 6.68 -14 6 C-12.41925436 5.18247697 -10.83528777 4.37118003 -9.25 3.5625 C-8.36828125 3.11003906 -7.4865625 2.65757813 -6.578125 2.19140625 C-4.32941113 1.15222787 -2.45705528 0.29377835 0 0 Z " fill="#E0F0D9" transform="translate(110,64)"/>
<path d="M0 0 C1.65 0 3.3 0 5 0 C5 6.27 5 12.54 5 19 C4.67 19 4.34 19 4 19 C4 13.06 4 7.12 4 1 C3.01 1 2.02 1 1 1 C1.33 3.31 1.66 5.62 2 8 C2.33 8 2.66 8 3 8 C3 11.3 3 14.6 3 18 C0.66522646 13.33045292 -0.12292906 10.44897035 -0.0625 5.3125 C-0.05347656 4.31863281 -0.04445313 3.32476562 -0.03515625 2.30078125 C-0.02355469 1.54152344 -0.01195313 0.78226562 0 0 Z " fill="#409240" transform="translate(110,100)"/>
<path d="M0 0 C1.32 0 2.64 0 4 0 C4.05410687 1.77049689 4.09284119 3.54146849 4.125 5.3125 C4.14820312 6.29863281 4.17140625 7.28476563 4.1953125 8.30078125 C4 11 4 11 2 14 C-0.28062828 10.57905758 -0.21925007 9.31812778 -0.125 5.3125 C-0.10695313 4.31863281 -0.08890625 3.32476562 -0.0703125 2.30078125 C-0.04710938 1.54152344 -0.02390625 0.78226562 0 0 Z " fill="#047905" transform="translate(89,101)"/>
<path d="M0 0 C0.33 0 0.66 0 1 0 C1.03738281 0.95261719 1.07476562 1.90523438 1.11328125 2.88671875 C1.17902344 4.14097656 1.24476562 5.39523438 1.3125 6.6875 C1.37050781 7.92886719 1.42851563 9.17023438 1.48828125 10.44921875 C2.00910976 14.06321199 2.90154617 16.05766393 5 19 C3.35 19 1.7 19 0 19 C-2.20551699 15.49314349 -2.10553832 13.00204123 -1.6875 8.9375 C-1.58824219 7.89464844 -1.48898438 6.85179688 -1.38671875 5.77734375 C-1 3 -1 3 0 0 Z " fill="#F1F8EF" transform="translate(76,101)"/>
<path d="M0 0 C2.72957339 2.35735884 3.88893396 4.58133526 5 8 C5 8.99 5 9.98 5 11 C3.35 11 1.7 11 0 11 C-0.33 9.68 -0.66 8.36 -1 7 C-3.31 7 -5.62 7 -8 7 C-8 6.67 -8 6.34 -8 6 C-5.36 5.67 -2.72 5.34 0 5 C0 3.35 0 1.7 0 0 Z " fill="#2A852A" transform="translate(131,108)"/>
<path d="M0 0 C1.65 0 3.3 0 5 0 C7.03435531 3.72965139 8 5.66905042 8 10 C7.01 10.33 6.02 10.66 5 11 C3.23537317 7.91190305 3 6.76687864 3 3 C2.01 2.67 1.02 2.34 0 2 C0 1.34 0 0.68 0 0 Z " fill="#117D0F" transform="translate(43,101)"/>
<path d="M0 0 C0.66 0 1.32 0 2 0 C2 3.96 2 7.92 2 12 C4.64 12 7.28 12 10 12 C10 12.66 10 13.32 10 14 C6.7 14 3.4 14 0 14 C0 9.38 0 4.76 0 0 Z " fill="#83A84E" transform="translate(43,128)"/>
<path d="M0 0 C0.33 0 0.66 0 1 0 C1 5.94 1 11.88 1 18 C-1.70879335 19.35439668 -4.00933268 19.06501451 -7 19 C-7 18.67 -7 18.34 -7 18 C-5.35 18 -3.7 18 -2 18 C-2.66 15.69 -3.32 13.38 -4 11 C-3.01 11 -2.02 11 -1 11 C-0.67 7.37 -0.34 3.74 0 0 Z " fill="#B7DAB7" transform="translate(57,101)"/>
<path d="M0 0 C0.33 0 0.66 0 1 0 C1.33 3.96 1.66 7.92 2 12 C3.32 11.67 4.64 11.34 6 11 C6 7.37 6 3.74 6 0 C6.33 0 6.66 0 7 0 C7.02685938 2.14576637 7.04633088 4.29162645 7.0625 6.4375 C7.07410156 7.63246094 7.08570312 8.82742187 7.09765625 10.05859375 C7 13 7 13 6 14 C3.5 14.125 3.5 14.125 1 14 C0 13 0 13 -0.09765625 10.05859375 C-0.08605469 8.86363281 -0.07445313 7.66867188 -0.0625 6.4375 C-0.05347656 5.23996094 -0.04445313 4.04242188 -0.03515625 2.80859375 C-0.02355469 1.88175781 -0.01195313 0.95492187 0 0 Z " fill="#BAE1B6" transform="translate(82,101)"/>
<path d="M0 0 C-0.66 0.66 -1.32 1.32 -2 2 C-3.66666667 2 -5.33333333 2 -7 2 C-7 2.66 -7 3.32 -7 4 C-8.65 4.33 -10.3 4.66 -12 5 C-12 5.66 -12 6.32 -12 7 C-14.875 7.625 -14.875 7.625 -18 8 C-18.66 7.34 -19.32 6.68 -20 6 C-19.41992188 5.74605469 -18.83984375 5.49210937 -18.2421875 5.23046875 C-17.46101563 4.88628906 -16.67984375 4.54210938 -15.875 4.1875 C-15.05257812 3.8265625 -14.23015625 3.465625 -13.3828125 3.09375 C-10.81797508 1.95410604 -10.81797508 1.95410604 -7.75 0.1875 C-4.62003438 -1.16407606 -3.19571347 -1.0339073 0 0 Z " fill="#0C4D0F" transform="translate(62,52)"/>
<path d="M0 0 C0 0.66 0 1.32 0 2 C-0.99 2.66 -1.98 3.32 -3 4 C-3.33218192 7.00259517 -3.33218192 7.00259517 -1.5 8.6875 C-0.7575 9.3371875 -0.7575 9.3371875 0 10 C-4.75 13 -4.75 13 -7 13 C-6.11864407 0 -6.11864407 0 0 0 Z " fill="#D7E5D7" transform="translate(90,46)"/>
<path d="M0 0 C0 0.99 0 1.98 0 3 C-0.66 3 -1.32 3 -2 3 C-2 3.66 -2 4.32 -2 5 C-1.34 5.33 -0.68 5.66 0 6 C-3 7 -3 7 -4.9375 6.3125 C-5.618125 6.209375 -6.29875 6.10625 -7 6 C-9.27144074 7.85432087 -9.27144074 7.85432087 -11 10 C-11.66 9.67 -12.32 9.34 -13 9 C-10.03160376 4.72550941 -5.61996393 0 0 0 Z " fill="#155227" transform="translate(87,32)"/>
<path d="M0 0 C2.64 0 5.28 0 8 0 C8 0.33 8 0.66 8 1 C6.02 1 4.04 1 2 1 C2 2.98 2 4.96 2 7 C3.65 7 5.3 7 7 7 C7 7.33 7 7.66 7 8 C5.35 8 3.7 8 2 8 C2 9.98 2 11.96 2 14 C1.34 14 0.68 14 0 14 C0 9.38 0 4.76 0 0 Z " fill="#77A33D" transform="translate(95,128)"/>
<path d="M0 0 C2.475 0.99 2.475 0.99 5 2 C5.33 1.34 5.66 0.68 6 0 C11 5.875 11 5.875 11 7 C8.3125 7.375 8.3125 7.375 5 7 C2.88591593 5.18090441 1.61300175 3.32462017 0 1 C0 0.67 0 0.34 0 0 Z " fill="#1C7C1F" transform="translate(24,112)"/>
<path d="M0 0 C0.66 0.33 1.32 0.66 2 1 C1.67 4.3 1.34 7.6 1 11 C0.34 11 -0.32 11 -1 11 C-3 8 -3 8 -3 5 C-3.66 4.67 -4.32 4.34 -5 4 C-3.35 2.68 -1.7 1.36 0 0 Z " fill="#FBFBFC" transform="translate(68,48)"/>
<path d="M0 0 C-0.33 2.64 -0.66 5.28 -1 8 C-1.33 8 -1.66 8 -2 8 C-2 6.35 -2 4.7 -2 3 C-4.31 4.32 -6.62 5.64 -9 7 C-9.33 5.68 -9.66 4.36 -10 3 C-8.70990357 2.49596232 -7.41786211 1.99690074 -6.125 1.5 C-5.04605469 1.08234375 -5.04605469 1.08234375 -3.9453125 0.65625 C-2 0 -2 0 0 0 Z " fill="#D8EAD1" transform="translate(71,46)"/>
<path d="M0 0 C2.475 0.495 2.475 0.495 5 1 C4.34 2.98 3.68 4.96 3 7 C5.31 7 7.62 7 10 7 C9.67 7.99 9.34 8.98 9 10 C9 9.34 9 8.68 9 8 C7.700625 8.020625 6.40125 8.04125 5.0625 8.0625 C3.70834367 8.08399454 2.35243917 8.07148199 1 8 C0 7 0 7 -0.0625 3.4375 C-0.041875 2.303125 -0.02125 1.16875 0 0 Z " fill="#E9F4D7" transform="translate(70,132)"/>
<path d="M0 0 C0.99 0.33 1.98 0.66 3 1 C3.33 3.31 3.66 5.62 4 8 C2 9 2 9 -1.125 8.0625 C-2.07375 7.711875 -3.0225 7.36125 -4 7 C-3.67 6.01 -3.34 5.02 -3 4 C-3 4.66 -3 5.32 -3 6 C-2.01 6 -1.02 6 0 6 C0 4.02 0 2.04 0 0 Z " fill="#148214" transform="translate(128,105)"/>
<path d="M0 0 C0.99 0.33 1.98 0.66 3 1 C2.34 1 1.68 1 1 1 C1.30035156 1.55429687 1.60070312 2.10859375 1.91015625 2.6796875 C2.29042969 3.40414062 2.67070312 4.12859375 3.0625 4.875 C3.63677734 5.95394531 3.63677734 5.95394531 4.22265625 7.0546875 C4.47917969 7.69664063 4.73570313 8.33859375 5 9 C4.67 9.66 4.34 10.32 4 11 C3.01 10.67 2.02 10.34 1 10 C1 9.34 1 8.68 1 8 C0.01 7.67 -0.98 7.34 -2 7 C-1.125 2.25 -1.125 2.25 0 0 Z " fill="#EBF3E1" transform="translate(27,48)"/>
<path d="M0 0 C2.31 0.33 4.62 0.66 7 1 C7 1.33 7 1.66 7 2 C5.35 2 3.7 2 2 2 C2 6.29 2 10.58 2 15 C1.67 15 1.34 15 1 15 C-0.32286246 10.03926578 -0.08893197 5.08888488 0 0 Z " fill="#09890A" transform="translate(59,102)"/>
<path d="M0 0 C1.98 0 3.96 0 6 0 C6 0.33 6 0.66 6 1 C4.35 1 2.7 1 1 1 C1.474375 1.350625 1.94875 1.70125 2.4375 2.0625 C4.67873825 4.84163543 4.67117658 7.5144717 5 11 C4.01 11 3.02 11 2 11 C2 9.02 2 7.04 2 5 C1.01 4.67 0.02 4.34 -1 4 C-0.67 2.68 -0.34 1.36 0 0 Z " fill="#84C186" transform="translate(42,100)"/>
<path d="M0 0 C2.97 0 5.94 0 9 0 C9 0.33 9 0.66 9 1 C6.36 1 3.72 1 1 1 C1.33 2.32 1.66 3.64 2 5 C4.97 5.495 4.97 5.495 8 6 C8 6.33 8 6.66 8 7 C6.02 7.33 4.04 7.66 2 8 C1.67 9.65 1.34 11.3 1 13 C0.67 13 0.34 13 0 13 C0 8.71 0 4.42 0 0 Z " fill="#6B9924" transform="translate(30,128)"/>
<path d="M0 0 C1.21816406 0.03480469 1.21816406 0.03480469 2.4609375 0.0703125 C3.68683594 0.09738281 3.68683594 0.09738281 4.9375 0.125 C5.87722656 0.15980469 5.87722656 0.15980469 6.8359375 0.1953125 C6.8359375 0.8553125 6.8359375 1.5153125 6.8359375 2.1953125 C4.1959375 2.5253125 1.5559375 2.8553125 -1.1640625 3.1953125 C-1.4940625 5.5053125 -1.8240625 7.8153125 -2.1640625 10.1953125 C-2.4940625 10.1953125 -2.8240625 10.1953125 -3.1640625 10.1953125 C-4.140625 4.140625 -4.140625 4.140625 -4.1640625 2.1953125 C-2.1640625 0.1953125 -2.1640625 0.1953125 0 0 Z " fill="#9BBA6D" transform="translate(119.1640625,127.8046875)"/>
<path d="M0 0 C1.98 0 3.96 0 6 0 C5.67 1.65 5.34 3.3 5 5 C3.35 5 1.7 5 0 5 C0 3.35 0 1.7 0 0 Z " fill="#E8F2DE" transform="translate(97,130)"/>
<path d="M0 0 C1.35432675 1.31200404 2.68733482 2.64631404 4 4 C4 4.33 4 4.66 4 5 C2.41701974 5.4803318 0.83360022 5.95921612 -0.75 6.4375 C-2.07257813 6.83775391 -2.07257813 6.83775391 -3.421875 7.24609375 C-5.60565835 7.88468494 -7.78835498 8.46775833 -10 9 C-5.28429204 4.05973451 -5.28429204 4.05973451 -1.3125 3.875 C-0.1678125 3.936875 -0.1678125 3.936875 1 4 C0.67 2.68 0.34 1.36 0 0 Z " fill="#619B43" transform="translate(118,39)"/>
<path d="M0 0 C1.98 0 3.96 0 6 0 C6.33 1.65 6.66 3.3 7 5 C8.65 5 10.3 5 12 5 C10.6875 6.5 10.6875 6.5 9 8 C8.01 8 7.02 8 6 8 C5.566875 7.05125 5.13375 6.1025 4.6875 5.125 C3.20697799 1.79958063 3.20697799 1.79958063 0 0 Z " fill="#E5F1E0" transform="translate(73,27)"/>
<path d="M0 0 C1.65 0 3.3 0 5 0 C5.66 1.98 6.32 3.96 7 6 C6.34 6 5.68 6 5 6 C4.34 5.34 3.68 4.68 3 4 C2.67 4.66 2.34 5.32 2 6 C1.34 6 0.68 6 0 6 C0 4.02 0 2.04 0 0 Z " fill="#E1F1D0" transform="translate(97,136)"/>
<path d="M0 0 C0.33 0 0.66 0 1 0 C1 2.97 1 5.94 1 9 C2.65 8.67 4.3 8.34 6 8 C5.67 8.66 5.34 9.32 5 10 C5.33 10.33 5.66 10.66 6 11 C6 11.33 6 11.66 6 12 C4.02 12 2.04 12 0 12 C0 8.04 0 4.08 0 0 Z " fill="#EDF7E2" transform="translate(45,128)"/>
<path d="M0 0 C1.9453125 -0.29296875 1.9453125 -0.29296875 4.125 -0.1875 C5.40375 -0.125625 6.6825 -0.06375 8 0 C8 0.33 8 0.66 8 1 C6.576875 1.12375 6.576875 1.12375 5.125 1.25 C1.98237464 1.66035644 1.98237464 1.66035644 0.6875 3.6875 C-0.13043865 6.43874819 -0.61243699 9.15787126 -1 12 C-1.33 12 -1.66 12 -2 12 C-2.05422947 10.5629191 -2.09289723 9.12524538 -2.125 7.6875 C-2.14820312 6.88699219 -2.17140625 6.08648437 -2.1953125 5.26171875 C-2 3 -2 3 0 0 Z " fill="#88AD52" transform="translate(70,128)"/>
<path d="M0 0 C1.98 1.32 3.96 2.64 6 4 C3 5 3 5 1 5 C0.34 5.66 -0.32 6.32 -1 7 C-1 6.34 -1 5.68 -1 5 C-1.99 4.67 -2.98 4.34 -4 4 C-2.68 2.68 -1.36 1.36 0 0 Z " fill="#13502D" transform="translate(112,34)"/>
<path d="M0 0 C2.475 0.495 2.475 0.495 5 1 C5.28875 1.969375 5.5775 2.93875 5.875 3.9375 C6.64214682 7.10664203 6.64214682 7.10664203 9 8 C7.35 8.33 5.7 8.66 4 9 C3.71125 7.88625 3.4225 6.7725 3.125 5.625 C2.30758671 1.99708908 2.30758671 1.99708908 0 0 Z " fill="#7FAF46" transform="translate(72,28)"/>
<path d="M0 0 C1.32 0.33 2.64 0.66 4 1 C4.33 2.65 4.66 4.3 5 6 C3.35 6 1.7 6 0 6 C0 4.02 0 2.04 0 0 Z " fill="#0B7309" transform="translate(50,113)"/>
<path d="M0 0 C2.97 0 5.94 0 9 0 C9.33 2.64 9.66 5.28 10 8 C6.125 4.25 6.125 4.25 5 2 C2.47266765 1.34444881 2.47266765 1.34444881 0 1 C0 0.67 0 0.34 0 0 Z " fill="#D3E9D2" transform="translate(98,100)"/>
<path d="M0 0 C2.72957339 2.35735884 3.88893396 4.58133526 5 8 C5 8.99 5 9.98 5 11 C3.68 10.67 2.36 10.34 1 10 C1.33 9.01 1.66 8.02 2 7 C1.01810813 5.32260138 0.01866229 3.65532623 -1 2 C-0.67 1.34 -0.34 0.68 0 0 Z " fill="#80B245" transform="translate(122,45)"/>
<path d="M0 0 C3.3 0 6.6 0 10 0 C10 1.65 10 3.3 10 5 C8.02 5 6.04 5 4 5 C5.32 4.67 6.64 4.34 8 4 C8 3.34 8 2.68 8 2 C5.03 2 2.06 2 -1 2 C-0.67 1.34 -0.34 0.68 0 0 Z " fill="#F2F7ED" transform="translate(118,126)"/>
<path d="M0 0 C0.33 0 0.66 0 1 0 C1 4.62 1 9.24 1 14 C-1.97 13.505 -1.97 13.505 -5 13 C-4.360625 12.525625 -3.72125 12.05125 -3.0625 11.5625 C-0.15149728 7.94579965 -0.19350218 4.52795106 0 0 Z " fill="#D3E8D1" transform="translate(74,106)"/>
<path d="M0 0 C0.33 0 0.66 0 1 0 C1 2.31 1 4.62 1 7 C1.99 7.33 2.98 7.66 4 8 C3 10 3 10 2 11 C2.99 11.33 3.98 11.66 5 12 C3.35 12 1.7 12 0 12 C0 8.04 0 4.08 0 0 Z " fill="#B5D6B4" transform="translate(62,104)"/>
<path d="M0 0 C1.32 1.32 2.64 2.64 4 4 C3.01 4.495 3.01 4.495 2 5 C2 6.65 2 8.3 2 10 C1.34 9.67 0.68 9.34 0 9 C-0.44921875 7.1875 -0.44921875 7.1875 -0.6875 5 C-0.77386719 4.278125 -0.86023438 3.55625 -0.94921875 2.8125 C-0.96597656 2.214375 -0.98273438 1.61625 -1 1 C-0.67 0.67 -0.34 0.34 0 0 Z " fill="#258A26" transform="translate(102,101)"/>
<path d="M0 0 C0 0.66 0 1.32 0 2 C-0.66 2 -1.32 2 -2 2 C-2.33 3.65 -2.66 5.3 -3 7 C-3.66 7 -4.32 7 -5 7 C-5 6.34 -5 5.68 -5 5 C-6.65 5 -8.3 5 -10 5 C-3.63636364 0 -3.63636364 0 0 0 Z " fill="#83B44C" transform="translate(96,53)"/>
<path d="M0 0 C-0.33 1.65 -0.66 3.3 -1 5 C-2.65 5 -4.3 5 -6 5 C-5.6875 3.0625 -5.6875 3.0625 -5 1 C-2 0 -2 0 0 0 Z " fill="#187B17" transform="translate(123,114)"/>
<path d="M0 0 C0 0.99 0 1.98 0 3 C-2.64 3.33 -5.28 3.66 -8 4 C-8.33 3.01 -8.66 2.02 -9 1 C-4.545 0.505 -4.545 0.505 0 0 Z " fill="#048006" transform="translate(89,115)"/>
<path d="M0 0 C1.65 0 3.3 0 5 0 C5 2.64 5 5.28 5 8 C2.74754119 5.31158141 1.11786042 3.35358125 0 0 Z " fill="#127D11" transform="translate(58,75)"/>
<path d="M0 0 C0.33 0.66 0.66 1.32 1 2 C1.66 2 2.32 2 3 2 C3.33 1.34 3.66 0.68 4 0 C4.66 0.66 5.32 1.32 6 2 C5.34 2 4.68 2 4 2 C4 2.66 4 3.32 4 4 C4.99 4 5.98 4 7 4 C6.67 4.99 6.34 5.98 6 7 C6 6.34 6 5.68 6 5 C4.68 5.33 3.36 5.66 2 6 C2 5.34 2 4.68 2 4 C1.34 4 0.68 4 0 4 C0 2.68 0 1.36 0 0 Z " fill="#7DB245" transform="translate(65,41)"/>
<path d="M0 0 C0.66 0 1.32 0 2 0 C1.01 2.97 0.02 5.94 -1 9 C-1.99 8.01 -2.98 7.02 -4 6 C-3.34 6 -2.68 6 -2 6 C-2.33 4.68 -2.66 3.36 -3 2 C-2.01 2 -1.02 2 0 2 C0 1.34 0 0.68 0 0 Z " fill="#D1E8CF" transform="translate(37,110)"/>
<path d="M0 0 C1.32 1.32 2.64 2.64 4 4 C3.67 4.99 3.34 5.98 3 7 C2.34 7 1.68 7 1 7 C0.67 7.66 0.34 8.32 0 9 C0 6.03 0 3.06 0 0 Z " fill="#E4F7E2" transform="translate(102,110)"/>
<path d="M0 0 C0.99 0.33 1.98 0.66 3 1 C3.33 2.65 3.66 4.3 4 6 C2.68 6.33 1.36 6.66 0 7 C0 4.69 0 2.38 0 0 Z " fill="#F9FCFA" transform="translate(63,104)"/>
<path d="M0 0 C2 2 2 2 2.1953125 4.1640625 C2.16050781 5.38222656 2.16050781 5.38222656 2.125 6.625 C2.10695312 7.44226563 2.08890625 8.25953125 2.0703125 9.1015625 C2.04710937 9.72804688 2.02390625 10.35453125 2 11 C1.34 11 0.68 11 0 11 C-1.37432457 7.18243176 -0.67975039 3.92744671 0 0 Z " fill="#FEFBFD" transform="translate(54,100)"/>
<path d="M0 0 C1.093125 0.0825 2.18625 0.165 3.3125 0.25 C2.3225 0.745 2.3225 0.745 1.3125 1.25 C1.3125 1.91 1.3125 2.57 1.3125 3.25 C-1.3275 3.58 -3.9675 3.91 -6.6875 4.25 C-4.79150483 0.68106792 -4.16790733 0.28256999 0 0 Z " fill="#72B13E" transform="translate(94.6875,68.75)"/>
<path d="M0 0 C1.98 0 3.96 0 6 0 C4.25 3.875 4.25 3.875 2 5 C1.67 4.34 1.34 3.68 1 3 C0.34 2.67 -0.32 2.34 -1 2 C-0.67 1.34 -0.34 0.68 0 0 Z " fill="#1B781C" transform="translate(27,101)"/>
<path d="M0 0 C1.65 0 3.3 0 5 0 C5 1.32 5 2.64 5 4 C4.34 4.66 3.68 5.32 3 6 C3 5.01 3 4.02 3 3 C2.01 2.67 1.02 2.34 0 2 C0 1.34 0 0.68 0 0 Z " fill="#0B760A" transform="translate(43,101)"/>
<path d="M0 0 C0 0.66 0 1.32 0 2 C0.99 2.33 1.98 2.66 3 3 C2.34 3 1.68 3 1 3 C0.67 3.66 0.34 4.32 0 5 C-1.98 4.01 -3.96 3.02 -6 2 C-3 0 -3 0 0 0 Z " fill="#62A528" transform="translate(85,59)"/>
<path d="M0 0 C-0.66 0.66 -1.32 1.32 -2 2 C-3.66666667 2 -5.33333333 2 -7 2 C-7 2.66 -7 3.32 -7 4 C-8.32 3.34 -9.64 2.68 -11 2 C-6.89657963 -0.38570952 -4.61380251 -1.49270081 0 0 Z " fill="#146A10" transform="translate(62,52)"/>
<path d="M0 0 C2.475 0.495 2.475 0.495 5 1 C5.33 2.32 5.66 3.64 6 5 C4.35 4.67 2.7 4.34 1 4 C0.67 2.68 0.34 1.36 0 0 Z " fill="#0A4D20" transform="translate(113,38)"/>
<path d="M0 0 C0.33 0 0.66 0 1 0 C1.33 2.64 1.66 5.28 2 8 C3.32 8.33 4.64 8.66 6 9 C4.35 9.66 2.7 10.32 1 11 C0 10 0 10 -0.09765625 7.71484375 C-0.08605469 6.79832031 -0.07445313 5.88179687 -0.0625 4.9375 C-0.05347656 4.01839844 -0.04445313 3.09929688 -0.03515625 2.15234375 C-0.02355469 1.44207031 -0.01195313 0.73179688 0 0 Z " fill="#044118" transform="translate(70,53)"/>
<path d="M0 0 C0.66 0.33 1.32 0.66 2 1 C1.360625 1.103125 0.72125 1.20625 0.0625 1.3125 C-0.618125 1.539375 -1.29875 1.76625 -2 2 C-2.33 2.99 -2.66 3.98 -3 5 C-4.98 5.33 -6.96 5.66 -9 6 C-3.30379747 1.25316456 -3.30379747 1.25316456 0 0 Z " fill="#DDEED1" transform="translate(121,58)"/>
<path d="M0 0 C0 3 0 3 -2 6 C-2 5.34 -2 4.68 -2 4 C-3.65 4 -5.3 4 -7 4 C-4.82575883 1.49962266 -3.26954202 0.56371414 0 0 Z " fill="#85B44D" transform="translate(66,31)"/>
<path d="M0 0 C1.32 1.32 2.64 2.64 4 4 C2.74458443 6.51083114 1.49936512 6.87125446 -1 8 C-1.08226668 4.95613276 -0.97608217 2.92824652 0 0 Z " fill="#6AAB21" transform="translate(121,48)"/>
<path d="M0 0 C0.33 0.66 0.66 1.32 1 2 C1.99 1.67 2.98 1.34 4 1 C3.67 1.99 3.34 2.98 3 4 C2.34 3.67 1.68 3.34 1 3 C1 3.66 1 4.32 1 5 C-0.65 5 -2.3 5 -4 5 C-2.68 3.35 -1.36 1.7 0 0 Z " fill="#E2F2E4" transform="translate(93,115)"/>
<path d="M0 0 C2.31 0 4.62 0 7 0 C5.6875 1.5 5.6875 1.5 4 3 C3.01 3 2.02 3 1 3 C0.34 3.66 -0.32 4.32 -1 5 C-0.67 3.35 -0.34 1.7 0 0 Z " fill="#AAD4AC" transform="translate(42,114)"/>
<path d="M0 0 C1.9375 0.75 1.9375 0.75 4 2 C4.75 4.125 4.75 4.125 5 6 C2.525 5.01 2.525 5.01 0 4 C0 2.68 0 1.36 0 0 Z " fill="#047804" transform="translate(24,108)"/>
</svg>
