<?xml version="1.0" encoding="UTF-8"?>
<svg version="1.1" xmlns="http://www.w3.org/2000/svg" width="198" height="148">
<path d="M0 0 C65.34 0 130.68 0 198 0 C198 48.84 198 97.68 198 148 C132.66 148 67.32 148 0 148 C0 99.16 0 50.32 0 0 Z " fill="#FEFEFE" transform="translate(0,0)"/>
<path d="M0 0 C3.96 0 7.92 0 12 0 C12.33 4.29 12.66 8.58 13 13 C13.6084375 12.0615625 14.216875 11.123125 14.84375 10.15625 C21.48991639 0.73901831 21.48991639 0.73901831 26.09130859 -0.61572266 C30.78439199 -1.14342132 35.34488356 -0.68337343 40 0 C36.30714482 4.41341229 32.54299359 8.50995399 28.3203125 12.421875 C26.67916147 14.04055471 26.67916147 14.04055471 27 17 C25.5 18.6875 25.5 18.6875 24 20 C26.31 20 28.62 20 31 20 C31 20.99 31 21.98 31 23 C31.66 23 32.32 23 33 23 C33.32613281 23.59167969 33.65226562 24.18335937 33.98828125 24.79296875 C34.42527344 25.58316406 34.86226562 26.37335938 35.3125 27.1875 C35.74175781 27.96480469 36.17101563 28.74210937 36.61328125 29.54296875 C38.03073378 32.05445506 39.51625854 34.52709757 41 37 C36.05 37 31.1 37 26 37 C25.67 35.68 25.34 34.36 25 33 C24.34 33 23.68 33 23 33 C22.01 30.36 21.02 27.72 20 25 C18.68 25 17.36 25 16 25 C15.34 25 14.68 25 14 25 C13.34 28.96 12.68 32.92 12 37 C8.04 37 4.08 37 0 37 C0 24.79 0 12.58 0 0 Z " fill="#040285" transform="translate(19,55)"/>
<path d="M0 0 C0.33 0 0.66 0 1 0 C1.12375 1.010625 1.2475 2.02125 1.375 3.0625 C1.97413938 6.8370781 2.92320764 10.33890597 4 14 C4 14.66 4 15.32 4 16 C4.66 15.67 5.32 15.34 6 15 C8.6723621 14.86584528 11.32250488 14.95681459 14 15 C14.33 13.68 14.66 12.36 15 11 C15.33 11.66 15.66 12.32 16 13 C18.02463255 13.65213292 18.02463255 13.65213292 20 14 C20 14.66 20 15.32 20 16 C21.32 16 22.64 16 24 16 C24 15.34 24 14.68 24 14 C26.31 14 28.62 14 31 14 C31 14.99 31 15.98 31 17 C31.66 17 32.32 17 33 17 C33.32613281 17.59167969 33.65226562 18.18335937 33.98828125 18.79296875 C34.42527344 19.58316406 34.86226562 20.37335938 35.3125 21.1875 C35.74175781 21.96480469 36.17101563 22.74210937 36.61328125 23.54296875 C38.03073378 26.05445506 39.51625854 28.52709757 41 31 C36.05 31 31.1 31 26 31 C25.67 29.68 25.34 28.36 25 27 C24.34 27 23.68 27 23 27 C22.01 24.36 21.02 21.72 20 19 C18.68 19 17.36 19 16 19 C15.34 19 14.68 19 14 19 C13.34 22.96 12.68 26.92 12 31 C8.04 31 4.08 31 0 31 C0 20.77 0 10.54 0 0 Z " fill="#060657" transform="translate(19,61)"/>
<path d="M0 0 C1.65 0 3.3 0 5 0 C5 1.65 5 3.3 5 5 C5.66 5 6.32 5 7 5 C7.33 3.35 7.66 1.7 8 0 C11.66666667 0 15.33333333 0 19 0 C20.010625 -0.061875 21.02125 -0.12375 22.0625 -0.1875 C25 0 25 0 26.875 1.5 C27.24625 1.995 27.6175 2.49 28 3 C27.34 3 26.68 3 26 3 C26.99 4.0209375 26.99 4.0209375 28 5.0625 C30.43885872 8.64457375 30.33292585 10.75519536 30 15 C30.66 15.33 31.32 15.66 32 16 C29 17 29 17 26 16 C25.34 15.34 24.68 14.68 24 14 C23.01 14 22.02 14 21 14 C21 12.68 21 11.36 21 10 C20.34 10 19.68 10 19 10 C18.87625 10.804375 18.7525 11.60875 18.625 12.4375 C18.315625 13.7059375 18.315625 13.7059375 18 15 C17.01 15.495 17.01 15.495 16 16 C15.01 15.34 14.02 14.68 13 14 C11.03824907 14.22148801 9.07364267 14.44706656 7.1328125 14.80859375 C5 15 5 15 0 14 C0 9.38 0 4.76 0 0 Z " fill="#C6C9D5" transform="translate(67,71)"/>
<path d="M0 0 C0.66 0.33 1.32 0.66 2 1 C0.77145753 4.49662088 -0.42107332 6.42107332 -3 9 C-4.4208003 10.87719504 -5.81486103 12.77480635 -7.1875 14.6875 C-7.90292969 15.68136719 -8.61835937 16.67523438 -9.35546875 17.69921875 C-9.89816406 18.45847656 -10.44085938 19.21773437 -11 20 C-9.02 20 -7.04 20 -5 20 C-6.09700843 23.2910253 -6.87619858 23.96023288 -9.5 26.0625 C-12.18106401 28.17721767 -12.18106401 28.17721767 -14 31 C-13.34 31.33 -12.68 31.66 -12 32 C-12.99 32 -13.98 32 -15 32 C-15 31.01 -15 30.02 -15 29 C-15.66 29 -16.32 29 -17 29 C-17 28.01 -17 27.02 -17 26 C-19.31 26 -21.62 26 -24 26 C-23.505 24.515 -23.505 24.515 -23 23 C-22.34 23 -21.68 23 -21 23 C-21.33 22.01 -21.66 21.02 -22 20 C-19.75831239 17.70007511 -17.50527417 15.41159742 -15.25 13.125 C-14.29867187 12.14853516 -14.29867187 12.14853516 -13.328125 11.15234375 C-12.709375 10.52714844 -12.090625 9.90195312 -11.453125 9.2578125 C-10.88754883 8.6817627 -10.32197266 8.10571289 -9.73925781 7.51220703 C-7.92068145 5.93103606 -6.16016267 5.04281825 -4 4 C-2.62913085 2.70529025 -1.28659163 1.37849103 0 0 Z " fill="#CFCC9A" transform="translate(67,49)"/>
<path d="M0 0 C0.66 0.33 1.32 0.66 2 1 C2 2.32 2 3.64 2 5 C2.66 5 3.32 5 4 5 C4.33 6.32 4.66 7.64 5 9 C12.92 8.505 12.92 8.505 21 8 C21 8.66 21 9.32 21 10 C21.99 10 22.98 10 24 10 C23.34 12.31 22.68 14.62 22 17 C14.41 17 6.82 17 -1 17 C-1 16.34 -1 15.68 -1 15 C-1.66 15 -2.32 15 -3 15 C-3.75 12.8125 -3.75 12.8125 -4 10 C-2.69254251 8.31295807 -1.35827971 6.64639965 0 5 C0.33592508 2.2895393 0.33592508 2.2895393 0 0 Z " fill="#D5D5DA" transform="translate(40,83)"/>
<path d="M0 0 C3.96 0 7.92 0 12 0 C12.33 4.29 12.66 8.58 13 13 C13.6084375 12.0615625 14.216875 11.123125 14.84375 10.15625 C21.48991639 0.73901831 21.48991639 0.73901831 26.09130859 -0.61572266 C30.78439199 -1.14342132 35.34488356 -0.68337343 40 0 C36.30714482 4.41341229 32.54299359 8.50995399 28.3203125 12.421875 C26.67916147 14.04055471 26.67916147 14.04055471 27 17 C26.34 17.33 25.68 17.66 25 18 C24.34786708 20.02463255 24.34786708 20.02463255 24 22 C23.34 21.67 22.68 21.34 22 21 C21.1174562 15.96950032 21.1174562 15.96950032 22 13 C24.45511848 10.81192949 26.97592791 9.20157549 29.8125 7.54296875 C30.534375 7.03378906 31.25625 6.52460937 32 6 C32 5.01 32 4.02 32 3 C29.69 3 27.38 3 25 3 C24.731875 3.61875 24.46375 4.2375 24.1875 4.875 C23 7 23 7 20 9 C20 9.99 20 10.98 20 12 C17.3125 14.25 17.3125 14.25 14 16 C12.35 15.67 10.7 15.34 9 15 C9.33 10.71 9.66 6.42 10 2 C7.03 2 4.06 2 1 2 C0.67 3.32 0.34 4.64 0 6 C0 4.02 0 2.04 0 0 Z " fill="#1E1E80" transform="translate(19,55)"/>
<path d="M0 0 C2.64 0.33 5.28 0.66 8 1 C8 2.32 8 3.64 8 5 C8.99 5 9.98 5 11 5 C11 5.66 11 6.32 11 7 C9.68 7.33 8.36 7.66 7 8 C9.31 8.33 11.62 8.66 14 9 C14 8.34 14 7.68 14 7 C13.34 7 12.68 7 12 7 C12 5.02 12 3.04 12 1 C13.32 1.33 14.64 1.66 16 2 C16.33 3.65 16.66 5.3 17 7 C16.34 7 15.68 7 15 7 C15 7.66 15 8.32 15 9 C17.64 9 20.28 9 23 9 C23 10.98 23 12.96 23 15 C19.86650268 16.04449911 19.01031744 15.93423645 16 15 C16 13.68 16 12.36 16 11 C15.34 10.67 14.68 10.34 14 10 C13.67 11.65 13.34 13.3 13 15 C9.37 15 5.74 15 2 15 C2 12.69 2 10.38 2 8 C1.34 7.67 0.68 7.34 0 7 C0 4.69 0 2.38 0 0 Z " fill="#888B97" transform="translate(96,70)"/>
<path d="M0 0 C0.33 0.66 0.66 1.32 1 2 C3.02463255 2.65213292 3.02463255 2.65213292 5 3 C4.67 4.65 4.34 6.3 4 8 C4.66 7.67 5.32 7.34 6 7 C6 7.99 6 8.98 6 10 C6.33 10 6.66 10 7 10 C7 14.29 7 18.58 7 23 C6.67 22.34 6.34 21.68 6 21 C4.02 21.66 2.04 22.32 0 23 C0.20625 23.61875 0.4125 24.2375 0.625 24.875 C0.74875 25.57625 0.8725 26.2775 1 27 C0.34 27.66 -0.32 28.32 -1 29 C-6.55580866 20.738041 -6.55580866 20.738041 -7 16 C-6.01 15.67 -5.02 15.34 -4 15 C-3.31513275 13.67592331 -2.65129797 12.34090759 -2 11 C-0.70529025 9.62913085 0.62150897 8.28659163 2 7 C0.02 7 -1.96 7 -4 7 C-2.79618552 4.50638429 -1.54571278 2.31856917 0 0 Z " fill="#F7F8F3" transform="translate(60,62)"/>
<path d="M0 0 C0.28875 0.61875 0.5775 1.2375 0.875 1.875 C1.93720042 4.13325765 1.93720042 4.13325765 4 6 C3.67 6.99 3.34 7.98 3 9 C3.66 9.33 4.32 9.66 5 10 C5.66 8.68 6.32 7.36 7 6 C7.66 6.33 8.32 6.66 9 7 C9.6328125 9.06640625 9.6328125 9.06640625 10.125 11.5625 C10.29257813 12.38878906 10.46015625 13.21507813 10.6328125 14.06640625 C10.75398438 14.70449219 10.87515625 15.34257813 11 16 C4.43507888 16.78441153 -1.46837378 17.10914408 -8 16 C-8 14.02 -8 12.04 -8 10 C-6.68 9.34 -5.36 8.68 -4 8 C-4.66 6.02 -5.32 4.04 -6 2 C-5.38125 1.855625 -4.7625 1.71125 -4.125 1.5625 C-1.96741678 1.06847775 -1.96741678 1.06847775 0 0 Z " fill="#E4E7F1" transform="translate(157,69)"/>
<path d="M0 0 C0.99 0 1.98 0 3 0 C3 0.99 3 1.98 3 3 C3.66 3 4.32 3 5 3 C5.32613281 3.59167969 5.65226562 4.18335937 5.98828125 4.79296875 C6.64376953 5.97826172 6.64376953 5.97826172 7.3125 7.1875 C7.74175781 7.96480469 8.17101562 8.74210937 8.61328125 9.54296875 C10.03073378 12.05445506 11.51625854 14.52709757 13 17 C8.05 17 3.1 17 -2 17 C-2.33 15.68 -2.66 14.36 -3 13 C-3.66 13 -4.32 13 -5 13 C-5.20496094 12.44570312 -5.40992188 11.89140625 -5.62109375 11.3203125 C-5.89050781 10.59585938 -6.15992188 9.87140625 -6.4375 9.125 C-6.70433594 8.40570313 -6.97117188 7.68640625 -7.24609375 6.9453125 C-7.97916854 4.96351155 -7.97916854 4.96351155 -9 3 C-8.01 3.33 -7.02 3.66 -6 4 C-5.3125 6.0625 -5.3125 6.0625 -5 8 C-4.34 8 -3.68 8 -3 8 C-2.67 7.34 -2.34 6.68 -2 6 C-0.68 6.33 0.64 6.66 2 7 C2 5.35 2 3.7 2 2 C1.34 2 0.68 2 0 2 C0 1.34 0 0.68 0 0 Z " fill="#080741" transform="translate(47,75)"/>
<path d="M0 0 C0.33 0 0.66 0 1 0 C1 12.21 1 24.42 1 37 C4.96 37 8.92 37 13 37 C13.33 38.65 13.66 40.3 14 42 C16.47636012 43.37466625 16.47636012 43.37466625 19 44 C19 44.33 19 44.66 19 45 C17.02090602 45.02686553 15.04171029 45.04633375 13.0625 45.0625 C11.96035156 45.07410156 10.85820312 45.08570313 9.72265625 45.09765625 C7 45 7 45 6 44 C6 44.33 6 44.66 6 45 C4.35 45 2.7 45 1 45 C1 44.34 1 43.68 1 43 C0.01 42.67 -0.98 42.34 -2 42 C-2.042721 40.33388095 -2.04063832 38.66617115 -2 37 C-1.505 36.505 -1.505 36.505 -1 36 C-0.83996512 33.33573315 -0.74057111 30.69439572 -0.68359375 28.02734375 C-0.66281265 27.22970108 -0.64203156 26.43205841 -0.62062073 25.61024475 C-0.55503842 23.05275389 -0.49620033 20.4951572 -0.4375 17.9375 C-0.39432301 16.20767118 -0.35070899 14.47785321 -0.30664062 12.74804688 C-0.19934828 8.4988074 -0.09810574 4.2494611 0 0 Z " fill="#E9E9F5" transform="translate(18,55)"/>
<path d="M0 0 C2.0625 0.4375 2.0625 0.4375 4 1 C3.01 1 2.02 1 1 1 C1 1.99 1 2.98 1 4 C1.61875 3.814375 2.2375 3.62875 2.875 3.4375 C5 3 5 3 7 4 C7 3.01 7 2.02 7 1 C6.34 0.67 5.68 0.34 5 0 C8.63 0 12.26 0 16 0 C16 1.65 16 3.3 16 5 C15.01 4.67 14.02 4.34 13 4 C13.33 5.32 13.66 6.64 14 8 C15.32 8 16.64 8 18 8 C18 9.98 18 11.96 18 14 C14.04 14 10.08 14 6 14 C6 11.36 6 8.72 6 6 C4.02 6 2.04 6 0 6 C-0.38218767 4.34385343 -0.71395102 2.67542976 -1 1 C-0.67 0.67 -0.34 0.34 0 0 Z " fill="#A6A8B5" transform="translate(115,71)"/>
<path d="M0 0 C1.9375 0.5 1.9375 0.5 4 2 C4.7995775 5.04838923 5.27633101 6.95447949 5 10 C3.0625 12.6875 3.0625 12.6875 1 15 C0.66407492 17.7104607 0.66407492 17.7104607 1 20 C1.66 20 2.32 20 3 20 C3 20.66 3 21.32 3 22 C-3.875 20.125 -3.875 20.125 -5 19 C-6.09894763 7.00577155 -6.09894763 7.00577155 -3.8828125 2.9609375 C-2.5 1.625 -2.5 1.625 0 0 Z " fill="#F6F6F6" transform="translate(36,78)"/>
<path d="M0 0 C2.97 1.98 2.97 1.98 6 4 C6.33 3.34 6.66 2.68 7 2 C8.32 2.33 9.64 2.66 11 3 C11 6.63 11 10.26 11 14 C7.37 14 3.74 14 0 14 C0 9.38 0 4.76 0 0 Z " fill="#050429" transform="translate(19,78)"/>
<path d="M0 0 C2.31 0 4.62 0 7 0 C7 1.65 7 3.3 7 5 C7.66 5 8.32 5 9 5 C8.67 3.35 8.34 1.7 8 0 C9.32 0 10.64 0 12 0 C12 1.98 12 3.96 12 6 C11.01 6.33 10.02 6.66 9 7 C9.66 7.66 10.32 8.32 11 9 C10.625 11.625 10.625 11.625 10 14 C6.7 14 3.4 14 0 14 C-0.33 12.35 -0.66 10.7 -1 9 C-0.195625 8.773125 0.60875 8.54625 1.4375 8.3125 C2.283125 7.879375 3.12875 7.44625 4 7 C4.89386164 4.45224694 4.89386164 4.45224694 5 2 C3.35 1.67 1.7 1.34 0 1 C0 0.67 0 0.34 0 0 Z " fill="#9EA0AB" transform="translate(137,71)"/>
<path d="M0 0 C1.45880109 0.14107747 2.91703551 0.28802415 4.375 0.4375 C5.59316406 0.55931641 5.59316406 0.55931641 6.8359375 0.68359375 C9 1 9 1 11 2 C11 3.65 11 5.3 11 7 C10.030625 7.2475 9.06125 7.495 8.0625 7.75 C7.051875 8.1625 6.04125 8.575 5 9 C4.03122943 11.03243548 4.03122943 11.03243548 4 13 C3.34 13 2.68 13 2 13 C2 11.35 2 9.7 2 8 C1.34 8 0.68 8 0 8 C-0.33 8.66 -0.66 9.32 -1 10 C-2.32 9.01 -3.64 8.02 -5 7 C-4.34 7 -3.68 7 -3 7 C-3 6.01 -3 5.02 -3 4 C-2.34 4 -1.68 4 -1 4 C-0.67 2.68 -0.34 1.36 0 0 Z " fill="#D7DAE7" transform="translate(131,71)"/>
<path d="M0 0 C2.31 0 4.62 0 7 0 C7.33 1.32 7.66 2.64 8 4 C6.33784732 5.33895632 4.67036393 6.67130142 3 8 C2.278125 8.5775 1.55625 9.155 0.8125 9.75 C-1 11 -1 11 -3 11 C-3.103125 11.639375 -3.20625 12.27875 -3.3125 12.9375 C-3.539375 13.618125 -3.76625 14.29875 -4 15 C-4.99 15.33 -5.98 15.66 -7 16 C-7.33 14.35 -7.66 12.7 -8 11 C-7.01 10.34 -6.02 9.68 -5 9 C-5 8.01 -5 7.02 -5 6 C-4.01 5.67 -3.02 5.34 -2 5 C-0.78130071 2.49552484 -0.78130071 2.49552484 0 0 Z " fill="#0A09B7" transform="translate(44,57)"/>
<path d="M0 0 C0.66 0.33 1.32 0.66 2 1 C2 2.32 2 3.64 2 5 C2.66 5.33 3.32 5.66 4 6 C2.35 7.65 0.7 9.3 -1 11 C-0.01 11 0.98 11 2 11 C1.67 12.32 1.34 13.64 1 15 C2.98 15 4.96 15 7 15 C7 13.68 7 12.36 7 11 C8.32 11.33 9.64 11.66 11 12 C10.34 12 9.68 12 9 12 C9 12.66 9 13.32 9 14 C9.66 14 10.32 14 11 14 C11 14.66 11 15.32 11 16 C12.98 15.67 14.96 15.34 17 15 C17 13.68 17 12.36 17 11 C18.65 11 20.3 11 22 11 C22 12.98 22 14.96 22 17 C14.41 17 6.82 17 -1 17 C-1 16.34 -1 15.68 -1 15 C-1.66 15 -2.32 15 -3 15 C-3.75 12.8125 -3.75 12.8125 -4 10 C-2.69254251 8.31295807 -1.35827971 6.64639965 0 5 C0.33592508 2.2895393 0.33592508 2.2895393 0 0 Z " fill="#B6B6B6" transform="translate(40,83)"/>
<path d="M0 0 C0.66 0.33 1.32 0.66 2 1 C0.80677904 4.39609044 -0.28495916 6.62433927 -3 9 C-3.66 9.66 -4.32 10.32 -5 11 C-5.825 11.639375 -6.65 12.27875 -7.5 12.9375 C-10.16390959 14.93297647 -10.16390959 14.93297647 -12 18 C-12.66 17.67 -13.32 17.34 -14 17 C-15.1446875 18.0209375 -15.1446875 18.0209375 -16.3125 19.0625 C-17.199375 19.701875 -18.08625 20.34125 -19 21 C-19.99 20.67 -20.98 20.34 -22 20 C-19.75831239 17.70007511 -17.50527417 15.41159742 -15.25 13.125 C-14.29867187 12.14853516 -14.29867187 12.14853516 -13.328125 11.15234375 C-12.709375 10.52714844 -12.090625 9.90195312 -11.453125 9.2578125 C-10.88754883 8.6817627 -10.32197266 8.10571289 -9.73925781 7.51220703 C-7.92068145 5.93103606 -6.16016267 5.04281825 -4 4 C-2.62913085 2.70529025 -1.28659163 1.37849103 0 0 Z " fill="#E1E4D4" transform="translate(67,49)"/>
<path d="M0 0 C1.65 0 3.3 0 5 0 C5 1.65 5 3.3 5 5 C5.66 5 6.32 5 7 5 C7.33 3.35 7.66 1.7 8 0 C9.65 0 11.3 0 13 0 C13 1.98 13 3.96 13 6 C14.65 6.33 16.3 6.66 18 7 C14.24600202 8.2039337 10.66782588 8.09877617 6.75 8.0625 C5.48671875 8.05347656 4.2234375 8.04445313 2.921875 8.03515625 C1.95765625 8.02355469 0.9934375 8.01195313 0 8 C0 5.36 0 2.72 0 0 Z " fill="#EAECF8" transform="translate(67,71)"/>
<path d="M0 0 C1.134375 0.020625 2.26875 0.04125 3.4375 0.0625 C3.1075 4.3525 2.7775 8.6425 2.4375 13.0625 C-2.5625 12.0625 -2.5625 12.0625 -4.5625 10.0625 C-4.79296875 7.93359375 -4.79296875 7.93359375 -4.75 5.5 C-4.74355469 4.69433594 -4.73710937 3.88867188 -4.73046875 3.05859375 C-4.43311242 -0.4751059 -3.69931954 0.06490034 0 0 Z " fill="#0405C2" transform="translate(25.5625,56.9375)"/>
<path d="M0 0 C4.62 0 9.24 0 14 0 C14 1.65 14 3.3 14 5 C11.87782378 7.12217622 7.91179299 6.83032785 5 7 C2 6.5625 2 6.5625 0 6 C0 4.02 0 2.04 0 0 Z " fill="#81829A" transform="translate(67,79)"/>
<path d="M0 0 C0.33 0 0.66 0 1 0 C1.10957031 1.04800781 1.21914063 2.09601562 1.33203125 3.17578125 C1.49150574 4.55476651 1.65169966 5.93366871 1.8125 7.3125 C1.88275391 8.00279297 1.95300781 8.69308594 2.02539062 9.40429688 C2.39054018 12.4277352 2.65111464 14.56107971 4.57421875 16.98046875 C5.27998047 17.48513672 5.27998047 17.48513672 6 18 C6.66 17.34 7.32 16.68 8 16 C11.625 16.375 11.625 16.375 15 17 C14.690625 17.639375 14.38125 18.27875 14.0625 18.9375 C12.68064597 22.92049104 12.3463457 26.81650849 12 31 C11.67 31 11.34 31 11 31 C10.93941406 30.30132812 10.87882812 29.60265625 10.81640625 28.8828125 C10.73261719 27.97273438 10.64882813 27.06265625 10.5625 26.125 C10.48128906 25.22007813 10.40007813 24.31515625 10.31640625 23.3828125 C10.13010715 20.98889139 10.13010715 20.98889139 9 19 C8.34 19 7.68 19 7 19 C6.67 19.99 6.34 20.98 6 22 C0.3152005 18.27727697 0.3152005 18.27727697 -0.49511719 14.99365234 C-0.58977776 12.69991475 -0.5247641 10.47812269 -0.375 8.1875 C-0.33439453 7.00510742 -0.33439453 7.00510742 -0.29296875 5.79882812 C-0.22263676 3.86469843 -0.11502458 1.93198696 0 0 Z " fill="#020251" transform="translate(19,61)"/>
<path d="M0 0 C-0.9384375 0.90363281 -1.876875 1.80726562 -2.84375 2.73828125 C-4.06289058 3.92928782 -5.28161936 5.12071603 -6.5 6.3125 C-7.12003906 6.90740234 -7.74007812 7.50230469 -8.37890625 8.11523438 C-8.96542969 8.69208984 -9.55195312 9.26894531 -10.15625 9.86328125 C-10.70087891 10.39219971 -11.24550781 10.92111816 -11.80664062 11.46606445 C-13.30701814 13.0707277 -13.30701814 13.0707277 -13 16 C-13.66 16.33 -14.32 16.66 -15 17 C-15.65213292 19.02463255 -15.65213292 19.02463255 -16 21 C-16.66 20.67 -17.32 20.34 -18 20 C-18.8825438 14.96950032 -18.8825438 14.96950032 -18 12 C-15.54488152 9.81192949 -13.02407209 8.20157549 -10.1875 6.54296875 C-9.465625 6.03378906 -8.74375 5.52460937 -8 5 C-8 4.01 -8 3.02 -8 2 C-8.66 1.34 -9.32 0.68 -10 0 C-2.25 -1.125 -2.25 -1.125 0 0 Z " fill="#141179" transform="translate(59,56)"/>
<path d="M0 0 C0.99 0.33 1.98 0.66 3 1 C3.73046875 3.06640625 3.73046875 3.06640625 4.1875 5.5625 C4.34605469 6.38878906 4.50460938 7.21507813 4.66796875 8.06640625 C4.77753906 8.70449219 4.88710937 9.34257813 5 10 C3.54263913 10.19491452 2.08405407 10.38069358 0.625 10.5625 C-0.18710938 10.66691406 -0.99921875 10.77132812 -1.8359375 10.87890625 C-4 11 -4 11 -6 10 C-6 8.02 -6 6.04 -6 4 C-4.35 4 -2.7 4 -1 4 C-0.67 2.68 -0.34 1.36 0 0 Z " fill="#E4E6EF" transform="translate(163,75)"/>
<path d="M0 0 C0.66 0 1.32 0 2 0 C2 0.66 2 1.32 2 2 C2.61875 1.835 3.2375 1.67 3.875 1.5 C6.66824506 0.84276587 9.0863904 1 12 1 C12.99 2.65 13.98 4.3 15 6 C10.05 6 5.1 6 0 6 C-0.33 4.35 -0.66 2.7 -1 1 C-0.67 0.67 -0.34 0.34 0 0 Z " fill="#090728" transform="translate(45,86)"/>
<path d="M0 0 C2.64 0.33 5.28 0.66 8 1 C8 2.32 8 3.64 8 5 C8.99 5 9.98 5 11 5 C11 5.66 11 6.32 11 7 C6.545 8.485 6.545 8.485 2 10 C2 9.34 2 8.68 2 8 C1.34 7.67 0.68 7.34 0 7 C0 4.69 0 2.38 0 0 Z " fill="#D9DCE8" transform="translate(96,70)"/>
<path d="M0 0 C2.1519437 3.22791555 2.20086443 4.28400809 2 8 C2.94875 7.79375 3.8975 7.5875 4.875 7.375 C6.421875 7.189375 6.421875 7.189375 8 7 C8.66 7.66 9.32 8.32 10 9 C9.34 9 8.68 9 8 9 C8 11.31 8 13.62 8 16 C7.34 16 6.68 16 6 16 C6 14.02 6 12.04 6 10 C5.34 10 4.68 10 4 10 C3.67 10.66 3.34 11.32 3 12 C3 11.34 3 10.68 3 10 C1.35 10 -0.3 10 -2 10 C-2 9.34 -2 8.68 -2 8 C-1.34 8 -0.68 8 0 8 C0 7.34 0 6.68 0 6 C-0.99 5.67 -1.98 5.34 -3 5 C-3 4.34 -3 3.68 -3 3 C-3.66 2.34 -4.32 1.68 -5 1 C-3.35 0.67 -1.7 0.34 0 0 Z " fill="#E6EAF1" transform="translate(113,69)"/>
<path d="M0 0 C0.66 1.32 1.32 2.64 2 4 C1.34 4 0.68 4 0 4 C0.495 4.433125 0.99 4.86625 1.5 5.3125 C3 7 3 7 3 10 C2.34 10 1.68 10 1 10 C0.67 10.66 0.34 11.32 0 12 C-2.31 11.01 -4.62 10.02 -7 9 C-7 6 -7 6 -5.46875 4.39453125 C-4.49421875 3.61142578 -4.49421875 3.61142578 -3.5 2.8125 C-2.8503125 2.28269531 -2.200625 1.75289063 -1.53125 1.20703125 C-1.0259375 0.80871094 -0.520625 0.41039063 0 0 Z " fill="#D6CF89" transform="translate(53,64)"/>
<path d="M0 0 C2.64 0 5.28 0 8 0 C8 2.31 8 4.62 8 7 C8.66 7.33 9.32 7.66 10 8 C7 9 7 9 4 8 C3.34 7.34 2.68 6.68 2 6 C1.34 6 0.68 6 0 6 C0 4.02 0 2.04 0 0 Z " fill="#A3A5B4" transform="translate(89,79)"/>
<path d="M0 0 C0.66 0 1.32 0 2 0 C2.33 0.66 2.66 1.32 3 2 C3.33 1.34 3.66 0.68 4 0 C4.94875 0.185625 5.8975 0.37125 6.875 0.5625 C9.89868793 1.28686632 9.89868793 1.28686632 12 0 C11.34 1.98 10.68 3.96 10 6 C6.66666667 6 3.33333333 6 0 6 C0 4.02 0 2.04 0 0 Z " fill="#5B5D6D" transform="translate(169,79)"/>
<path d="M0 0 C0.33 0 0.66 0 1 0 C1.33 2.64 1.66 5.28 2 8 C2.66 7.67 3.32 7.34 4 7 C6.6723621 6.86584528 9.32250488 6.95681459 12 7 C12.33 5.68 12.66 4.36 13 3 C13.33 3.66 13.66 4.32 14 5 C14.99 5.33 15.98 5.66 17 6 C17 6.99 17 7.98 17 9 C15.02 9.99 15.02 9.99 13 11 C13 10.34 13 9.68 13 9 C7.67829506 8.70437633 7.67829506 8.70437633 3 11 C0.39665076 8.28817788 0.00543309 7.10866187 -0.1875 3.25 C-0.125625 2.1775 -0.06375 1.105 0 0 Z " fill="#02026C" transform="translate(21,69)"/>
<path d="M0 0 C2.3125 -0.25 2.3125 -0.25 5 0 C7.42082645 2.42082645 8.40269644 4.65510004 9 8 C7.35 8.33 5.7 8.66 4 9 C4 10.98 4 12.96 4 15 C3.34 14.67 2.68 14.34 2 14 C1.65846063 12.33499557 1.32550502 10.66821323 1 9 C0.34 8.34 -0.32 7.68 -1 7 C0.65 7 2.3 7 4 7 C4 5.02 4 3.04 4 1 C2.68 0.67 1.36 0.34 0 0 Z " fill="#E5E8F0" transform="translate(145,70)"/>
<path d="M0 0 C3.96 0 7.92 0 12 0 C12.33 1.65 12.66 3.3 13 5 C15.47636012 6.37466625 15.47636012 6.37466625 18 7 C18 7.33 18 7.66 18 8 C14.04 8 10.08 8 6 8 C6.99 7.67 7.98 7.34 9 7 C9 5.35 9 3.7 9 2 C6.03 1.67 3.06 1.34 0 1 C0 0.67 0 0.34 0 0 Z " fill="#B1B2B6" transform="translate(19,92)"/>
<path d="M0 0 C1.65 0 3.3 0 5 0 C5 1.65 5 3.3 5 5 C5.66 5 6.32 5 7 5 C7.33 3.35 7.66 1.7 8 0 C8.99 0 9.98 0 11 0 C11.33 1.98 11.66 3.96 12 6 C9.36 6 6.72 6 4 6 C3.67 5.34 3.34 4.68 3 4 C2.67 4.66 2.34 5.32 2 6 C1.34 6 0.68 6 0 6 C0 4.02 0 2.04 0 0 Z " fill="#4D4E63" transform="translate(67,71)"/>
<path d="M0 0 C0.33 0.66 0.66 1.32 1 2 C3.02463255 2.65213292 3.02463255 2.65213292 5 3 C4.37240135 5.92879371 3.41377341 8.36095629 2 11 C1.34 10.67 0.68 10.34 0 10 C0.66 9.01 1.32 8.02 2 7 C0.02 7 -1.96 7 -4 7 C-2.79618552 4.50638429 -1.54571278 2.31856917 0 0 Z " fill="#F7F9EA" transform="translate(60,62)"/>
<path d="M0 0 C2.64 0.66 5.28 1.32 8 2 C7.67 2.99 7.34 3.98 7 5 C7 4.34 7 3.68 7 3 C4.69 2.67 2.38 2.34 0 2 C0 1.34 0 0.68 0 0 Z M-5 2 C-2.525 2.495 -2.525 2.495 0 3 C0.66 4.98 1.32 6.96 2 9 C1.34 9.66 0.68 10.32 0 11 C-0.83603378 9.68921847 -1.6687574 8.37632511 -2.5 7.0625 C-2.9640625 6.33160156 -3.428125 5.60070312 -3.90625 4.84765625 C-5 3 -5 3 -5 2 Z " fill="#E6E5EC" transform="translate(59,80)"/>
<path d="M0 0 C0 0.66 0 1.32 0 2 C1.65 2 3.3 2 5 2 C4.01 2.495 4.01 2.495 3 3 C3 3.66 3 4.32 3 5 C0.525 4.01 0.525 4.01 -2 3 C-2.33 4.32 -2.66 5.64 -3 7 C-3.66 7 -4.32 7 -5 7 C-5.12375 6.360625 -5.2475 5.72125 -5.375 5.0625 C-5.684375 4.0415625 -5.684375 4.0415625 -6 3 C-6.66 2.67 -7.32 2.34 -8 2 C-4.77208445 -0.1519437 -3.71599191 -0.20086443 0 0 Z " fill="#F7F7F9" transform="translate(66,83)"/>
<path d="M0 0 C2.64 0 5.28 0 8 0 C8 1.98 8 3.96 8 6 C4.86650268 7.04449911 4.01031744 6.93423645 1 6 C0.67 4.02 0.34 2.04 0 0 Z " fill="#7C7F8D" transform="translate(111,79)"/>
<path d="M0 0 C2.31 0.66 4.62 1.32 7 2 C7 3.98 7 5.96 7 8 C7.66 8 8.32 8 9 8 C9 8.66 9 9.32 9 10 C6.36 10 3.72 10 1 10 C1.33 9.34 1.66 8.68 2 8 C3.32 8 4.64 8 6 8 C6 7.34 6 6.68 6 6 C5.01 6 4.02 6 3 6 C3 4.68 3 3.36 3 2 C2.01 2 1.02 2 0 2 C0 1.34 0 0.68 0 0 Z " fill="#F1F5FC" transform="translate(101,69)"/>
<path d="M0 0 C2.0625 0.4375 2.0625 0.4375 4 1 C3.01 1 2.02 1 1 1 C1 1.99 1 2.98 1 4 C1.61875 3.814375 2.2375 3.62875 2.875 3.4375 C5 3 5 3 7 4 C7 3.01 7 2.02 7 1 C6.34 0.67 5.68 0.34 5 0 C6.65 0 8.3 0 10 0 C9.67 1.98 9.34 3.96 9 6 C6.03 6 3.06 6 0 6 C-0.38218767 4.34385343 -0.71395102 2.67542976 -1 1 C-0.67 0.67 -0.34 0.34 0 0 Z " fill="#51525E" transform="translate(115,71)"/>
<path d="M0 0 C1.5 1.375 1.5 1.375 3 3 C3 3.66 3 4.32 3 5 C3.66 5 4.32 5 5 5 C5.66 6.32 6.32 7.64 7 9 C4.36 9 1.72 9 -1 9 C-0.34 7.35 0.32 5.7 1 4 C0.01 4 -0.98 4 -2 4 C-1.34 2.68 -0.68 1.36 0 0 Z " fill="#F5F4F6" transform="translate(41,90)"/>
<path d="M0 0 C1.98 0 3.96 0 6 0 C6.33 1.98 6.66 3.96 7 6 C4.69 6 2.38 6 0 6 C0 4.02 0 2.04 0 0 Z " fill="#70728A" transform="translate(149,79)"/>
<path d="M0 0 C1.32 0.66 2.64 1.32 4 2 C4 2.66 4 3.32 4 4 C3.0409375 4.2165625 3.0409375 4.2165625 2.0625 4.4375 C0.02454854 4.81007181 0.02454854 4.81007181 -1 6 C-1.99 6.495 -1.99 6.495 -3 7 C-3.40729228 9.32156597 -3.74438677 11.6568787 -4 14 C-4.33 14 -4.66 14 -5 14 C-5.78774617 5.96498906 -5.78774617 5.96498906 -2.5 1.9375 C-1.2625 0.9784375 -1.2625 0.9784375 0 0 Z " fill="#D9D9EA" transform="translate(36,78)"/>
<path d="M0 0 C0 0.99 0 1.98 0 3 C0.66 3.33 1.32 3.66 2 4 C-0.64 4 -3.28 4 -6 4 C-6 3.34 -6 2.68 -6 2 C-6.66 2 -7.32 2 -8 2 C-8 1.34 -8 0.68 -8 0 C-5.13822943 -1.43088528 -3.06624227 -0.59991697 0 0 Z " fill="#F0F0F1" transform="translate(57,95)"/>
<path d="M0 0 C1.485 0.99 1.485 0.99 3 2 C3.33 1.34 3.66 0.68 4 0 C4.66 0 5.32 0 6 0 C6.6875 1.75 6.6875 1.75 7 4 C5.5625 6.25 5.5625 6.25 4 8 C2 6.25 2 6.25 0 4 C0 2.68 0 1.36 0 0 Z " fill="#03014A" transform="translate(22,80)"/>
<path d="M0 0 C0.66 0.99 1.32 1.98 2 3 C1.34 3.66 0.68 4.32 0 5 C0.33 5.66 0.66 6.32 1 7 C-0.65 7.33 -2.3 7.66 -4 8 C-4.66 6.02 -5.32 4.04 -6 2 C-5.38125 1.855625 -4.7625 1.71125 -4.125 1.5625 C-1.96741678 1.06847775 -1.96741678 1.06847775 0 0 Z " fill="#A0A2AB" transform="translate(157,69)"/>
<path d="M0 0 C0.66 0.99 1.32 1.98 2 3 C0.75803878 4.15454162 -0.49392845 5.29832562 -1.75 6.4375 C-2.79414062 7.39462891 -2.79414062 7.39462891 -3.859375 8.37109375 C-5.98792725 9.99081325 -7.39023405 10.58267256 -10 11 C-6.79239749 7.19364503 -3.59253891 3.45436433 0 0 Z " fill="#CFD0E2" transform="translate(55,59)"/>
<path d="M0 0 C0.99 0 1.98 0 3 0 C3 0.99 3 1.98 3 3 C3.66 3 4.32 3 5 3 C6.32 5.64 7.64 8.28 9 11 C8.01 11.33 7.02 11.66 6 12 C4.27735506 8.70450534 2.70554068 5.66881155 2 2 C1.34 2 0.68 2 0 2 C0 1.34 0 0.68 0 0 Z " fill="#19193A" transform="translate(47,75)"/>
<path d="M0 0 C0.66 0.66 1.32 1.32 2 2 C1.01 2.33 0.02 2.66 -1 3 C-1.165 3.66 -1.33 4.32 -1.5 5 C-1.665 5.66 -1.83 6.32 -2 7 C-2.99 7.33 -3.98 7.66 -5 8 C-5.33 6.35 -5.66 4.7 -6 3 C-4.02 2.01 -2.04 1.02 0 0 Z " fill="#0605A2" transform="translate(42,65)"/>
<path d="M0 0 C1.2065625 0.0309375 1.2065625 0.0309375 2.4375 0.0625 C2.7675 1.0525 3.0975 2.0425 3.4375 3.0625 C0.34940305 4.82712683 -0.79562136 5.0625 -4.5625 5.0625 C-3.43829114 0.08386076 -3.43829114 0.08386076 0 0 Z " fill="#0A03CC" transform="translate(48.5625,56.9375)"/>
<path d="M0 0 C1.26457031 0.04640625 2.52914062 0.0928125 3.83203125 0.140625 C5.74048828 0.19476563 5.74048828 0.19476563 7.6875 0.25 C9.15123047 0.31960937 9.15123047 0.31960937 10.64453125 0.390625 C10.64453125 0.720625 10.64453125 1.050625 10.64453125 1.390625 C9.74089844 1.50019531 8.83726563 1.60976563 7.90625 1.72265625 C6.72675781 1.88121094 5.54726563 2.03976563 4.33203125 2.203125 C3.16027344 2.35394531 1.98851562 2.50476562 0.78125 2.66015625 C-2.34967149 3.38927495 -3.45192068 3.88233964 -5.35546875 6.390625 C-5.68546875 5.730625 -6.01546875 5.070625 -6.35546875 4.390625 C-4.58051784 1.03867309 -3.85822213 0.44915275 0 0 Z " fill="#2F2C8E" transform="translate(46.35546875,54.609375)"/>
<path d="M0 0 C0 1.98 0 3.96 0 6 C-1.98 6 -3.96 6 -6 6 C-6 4.35 -6 2.7 -6 1 C-3.92446352 0.4465236 -2.15634036 0 0 0 Z " fill="#5D5D73" transform="translate(133,79)"/>
<path d="M0 0 C1.32 0 2.64 0 4 0 C3.690625 0.639375 3.38125 1.27875 3.0625 1.9375 C1.68064597 5.92049104 1.3463457 9.81650849 1 14 C0.67 14 0.34 14 0 14 C-0.16852247 12.39602723 -0.33474886 10.7918131 -0.5 9.1875 C-0.5928125 8.29417969 -0.685625 7.40085937 -0.78125 6.48046875 C-1 4 -1 4 -1 1 C-0.67 0.67 -0.34 0.34 0 0 Z " fill="#272857" transform="translate(30,78)"/>
<path d="M0 0 C1.4783226 2.95664519 1.06032783 5.74229737 1 9 C0.01 8.67 -0.98 8.34 -2 8 C-2.144375 7.360625 -2.28875 6.72125 -2.4375 6.0625 C-2.80104993 3.79688294 -2.80104993 3.79688294 -5.0625 2.75 C-5.701875 2.5025 -6.34125 2.255 -7 2 C-2.25 0 -2.25 0 0 0 Z " fill="#F1F2F5" transform="translate(95,68)"/>
<path d="M0 0 C0.33 0 0.66 0 1 0 C1.33 2.64 1.66 5.28 2 8 C2.99 8.33 3.98 8.66 5 9 C5 8.34 5 7.68 5 7 C5.66 7 6.32 7 7 7 C7 8.65 7 10.3 7 12 C2.25 11.25 2.25 11.25 0 9 C-0.1953125 6.8359375 -0.1953125 6.8359375 -0.125 4.375 C-0.10695313 3.55773438 -0.08890625 2.74046875 -0.0703125 1.8984375 C-0.04710938 1.27195313 -0.02390625 0.64546875 0 0 Z " fill="#0405A1" transform="translate(21,58)"/>
<path d="M0 0 C0.66 0.33 1.32 0.66 2 1 C-4.26637555 7.44541485 -4.26637555 7.44541485 -8 10 C-8.99 9.67 -9.98 9.34 -11 9 C-10.484375 8.62875 -9.96875 8.2575 -9.4375 7.875 C-6.18438982 5.37260756 -3.09877473 2.68966683 0 0 Z " fill="#C3C4CD" transform="translate(67,49)"/>
<path d="M0 0 C2.0625 0.4375 2.0625 0.4375 4 1 C4 2.65 4 4.3 4 6 C2.35 6 0.7 6 -1 6 C-1.042721 4.33388095 -1.04063832 2.66617115 -1 1 C-0.67 0.67 -0.34 0.34 0 0 Z " fill="#3B3C54" transform="translate(99,79)"/>
<path d="M0 0 C2.475 0.495 2.475 0.495 5 1 C4.67 2.65 4.34 4.3 4 6 C2.68 6 1.36 6 0 6 C0 4.02 0 2.04 0 0 Z " fill="#51536A" transform="translate(67,79)"/>
<path d="M0 0 C1.65 0 3.3 0 5 0 C5 1.65 5 3.3 5 5 C3.0625 5.5625 3.0625 5.5625 1 6 C0 5 0 5 -0.0625 2.4375 C-0.041875 1.633125 -0.02125 0.82875 0 0 Z " fill="#595A6C" transform="translate(87,71)"/>
<path d="M0 0 C2.0625 0.4375 2.0625 0.4375 4 1 C3.67 2.65 3.34 4.3 3 6 C1.68 6 0.36 6 -1 6 C-1.042721 4.33388095 -1.04063832 2.66617115 -1 1 C-0.67 0.67 -0.34 0.34 0 0 Z " fill="#65667F" transform="translate(144,79)"/>
<path d="M0 0 C0 0.66 0 1.32 0 2 C-0.99 2.66 -1.98 3.32 -3 4 C-3 4.99 -3 5.98 -3 7 C-4.98 7.99 -4.98 7.99 -7 9 C-7.8125 7.3125 -7.8125 7.3125 -8 5 C-3.90909091 0 -3.90909091 0 0 0 Z " fill="#1A1993" transform="translate(42,60)"/>
<path d="M0 0 C0.66 0.33 1.32 0.66 2 1 C2 2.32 2 3.64 2 5 C2.66 5.33 3.32 5.66 4 6 C2.35 7.65 0.7 9.3 -1 11 C-0.34 11.33 0.32 11.66 1 12 C-0.65 12 -2.3 12 -4 12 C-2.79618552 9.50638429 -1.54571278 7.31856917 0 5 C0.16713569 2.37468476 0.16713569 2.37468476 0 0 Z " fill="#96979E" transform="translate(40,83)"/>
<path d="M0 0 C2.475 0.495 2.475 0.495 5 1 C5 2.65 5 4.3 5 6 C3.35 6 1.7 6 0 6 C0 4.02 0 2.04 0 0 Z " fill="#3E3F58" transform="translate(89,79)"/>
<path d="M0 0 C1.32 0.33 2.64 0.66 4 1 C4 1.99 4 2.98 4 4 C5.32 4.33 6.64 4.66 8 5 C5.10765685 5.82638376 3.11257569 6 0 6 C0 4.02 0 2.04 0 0 Z " fill="#5F6178" transform="translate(133,71)"/>
<path d="M0 0 C2.97 0 5.94 0 9 0 C8.01 0.66 7.02 1.32 6 2 C6 2.99 6 3.98 6 5 C4.02 5 2.04 5 0 5 C0 3.35 0 1.7 0 0 Z " fill="#DBDCE5" transform="translate(116,70)"/>
<path d="M0 0 C0.33 0.99 0.66 1.98 1 3 C2.32 2.34 3.64 1.68 5 1 C5.33 2.32 5.66 3.64 6 5 C6.66 5 7.32 5 8 5 C8 5.66 8 6.32 8 7 C5.69 6.34 3.38 5.68 1 5 C0.67 3.35 0.34 1.7 0 0 Z " fill="#EBECEB" transform="translate(31,93)"/>
<path d="M0 0 C0.928125 0.2784375 0.928125 0.2784375 1.875 0.5625 C4.04160178 1.23686176 4.04160178 1.23686176 6 0 C5.34 1.98 4.68 3.96 4 6 C2.68 6 1.36 6 0 6 C0 4.02 0 2.04 0 0 Z " fill="#8B8A96" transform="translate(175,79)"/>
<path d="M0 0 C2.125 0.9375 2.125 0.9375 4 2 C4 2.99 4 3.98 4 5 C3.34 5 2.68 5 2 5 C1.67 5.66 1.34 6.32 1 7 C-0.5 5.6875 -0.5 5.6875 -2 4 C-2 3.01 -2 2.02 -2 1 C-1.34 0.67 -0.68 0.34 0 0 Z " fill="#EEDC52" transform="translate(52,69)"/>
<path d="M0 0 C2.31 0 4.62 0 7 0 C7.125 5.75 7.125 5.75 6 8 C4.68 7.67 3.36 7.34 2 7 C2 6.34 2 5.68 2 5 C2.99 5 3.98 5 5 5 C5.33 3.68 5.66 2.36 6 1 C4.02 1 2.04 1 0 1 C0 0.67 0 0.34 0 0 Z " fill="#090AB2" transform="translate(22,57)"/>
<path d="M0 0 C2.1519437 3.22791555 2.20086443 4.28400809 2 8 C1.34 8 0.68 8 0 8 C0 7.34 0 6.68 0 6 C-0.99 5.67 -1.98 5.34 -3 5 C-3 4.34 -3 3.68 -3 3 C-3.66 2.34 -4.32 1.68 -5 1 C-3.35 0.67 -1.7 0.34 0 0 Z " fill="#D6D7E4" transform="translate(113,69)"/>
<path d="M0 0 C0.66 0.33 1.32 0.66 2 1 C1.34 2.32 0.68 3.64 0 5 C2.64 4.34 5.28 3.68 8 3 C7.01 4.32 6.02 5.64 5 7 C2.69 6.67 0.38 6.34 -2 6 C-1.125 1.125 -1.125 1.125 0 0 Z " fill="#0E0CA8" transform="translate(44,57)"/>
<path d="M0 0 C4 0 4 0 6 1 C6 2.65 6 4.3 6 6 C5.01 5.67 4.02 5.34 3 5 C3 4.34 3 3.68 3 3 C2.34 3 1.68 3 1 3 C0.67 3.99 0.34 4.98 0 6 C0 4.02 0 2.04 0 0 Z " fill="#444459" transform="translate(80,71)"/>
<path d="M0 0 C0.99 0.33 1.98 0.66 3 1 C4.1875 3.5625 4.1875 3.5625 5 6 C3.35 6 1.7 6 0 6 C0 5.34 0 4.68 0 4 C-0.66 3.67 -1.32 3.34 -2 3 C-1.34 2.01 -0.68 1.02 0 0 Z " fill="#B6B5B6" transform="translate(19,94)"/>
<path d="M0 0 C1.32 0.33 2.64 0.66 4 1 C4.33 2.65 4.66 4.3 5 6 C3.35 6 1.7 6 0 6 C0 4.02 0 2.04 0 0 Z " fill="#31324C" transform="translate(108,71)"/>
<path d="M0 0 C2.125 0.9375 2.125 0.9375 4 2 C3.34 2 2.68 2 2 2 C1.67 3.65 1.34 5.3 1 7 C0.34 7 -0.32 7 -1 7 C-1.33 5.02 -1.66 3.04 -2 1 C-1.34 0.67 -0.68 0.34 0 0 Z " fill="#DDDDE7" transform="translate(73,69)"/>
<path d="M0 0 C0.99 0.33 1.98 0.66 3 1 C2.67 2.32 2.34 3.64 2 5 C2.66 5.33 3.32 5.66 4 6 C1.6875 6.625 1.6875 6.625 -1 7 C-1.99 6.34 -2.98 5.68 -4 5 C-3.01 4.67 -2.02 4.34 -1 4 C-0.26676204 1.98491642 -0.26676204 1.98491642 0 0 Z " fill="#ECEFF6" transform="translate(110,80)"/>
<path d="M0 0 C1.32 0.33 2.64 0.66 4 1 C4.33 2.65 4.66 4.3 5 6 C3.35 6 1.7 6 0 6 C0 4.02 0 2.04 0 0 Z " fill="#2C2E47" transform="translate(96,71)"/>
<path d="M0 0 C1.65 0 3.3 0 5 0 C5 1.65 5 3.3 5 5 C4.34 4.67 3.68 4.34 3 4 C2.67 4.66 2.34 5.32 2 6 C1.34 6 0.68 6 0 6 C0 4.02 0 2.04 0 0 Z " fill="#46465E" transform="translate(67,71)"/>
<path d="M0 0 C2.5 1.3125 2.5 1.3125 5 3 C5 3.99 5 4.98 5 6 C3.02 6.99 3.02 6.99 1 8 C0.17361624 5.10765685 0 3.11257569 0 0 Z " fill="#13136D" transform="translate(33,72)"/>
<path d="M0 0 C0.99 0 1.98 0 3 0 C3.33 1.98 3.66 3.96 4 6 C2.35 6 0.7 6 -1 6 C-0.67 4.02 -0.34 2.04 0 0 Z " fill="#474959" transform="translate(164,79)"/>
<path d="M0 0 C1.32 0 2.64 0 4 0 C4 1.32 4 2.64 4 4 C3.34 4 2.68 4 2 4 C2 4.66 2 5.32 2 6 C1.34 6 0.68 6 0 6 C0 4.02 0 2.04 0 0 Z " fill="#56586F" transform="translate(157,79)"/>
<path d="M0 0 C0.66 0 1.32 0 2 0 C2.33 0.66 2.66 1.32 3 2 C5.01669827 3.13350534 5.01669827 3.13350534 7 4 C6.01 4.495 6.01 4.495 5 5 C4.34 4.67 3.68 4.34 3 4 C2.67 4.66 2.34 5.32 2 6 C0.68 5.01 -0.64 4.02 -2 3 C-1.34 3 -0.68 3 0 3 C0 2.01 0 1.02 0 0 Z " fill="#ECF1F9" transform="translate(128,75)"/>
<path d="M0 0 C1.32 0 2.64 0 4 0 C4 1.98 4 3.96 4 6 C3.01 6 2.02 6 1 6 C0.67 4.02 0.34 2.04 0 0 Z " fill="#747583" transform="translate(145,71)"/>
<path d="M0 0 C1.32 0 2.64 0 4 0 C4 1.65 4 3.3 4 5 C3.01 4.67 2.02 4.34 1 4 C0.67 4.66 0.34 5.32 0 6 C0 4.02 0 2.04 0 0 Z " fill="#3C3C58" transform="translate(127,71)"/>
<path d="M0 0 C2.64 0.66 5.28 1.32 8 2 C7.34 3.32 6.68 4.64 6 6 C6 5.01 6 4.02 6 3 C3.69 3 1.38 3 -1 3 C-0.67 2.01 -0.34 1.02 0 0 Z " fill="#A6A2A1" transform="translate(44,72)"/>
<path d="M0 0 C2.31 0 4.62 0 7 0 C7 1.65 7 3.3 7 5 C6.01 5.495 6.01 5.495 5 6 C5 4.68 5 3.36 5 2 C3.35 1.67 1.7 1.34 0 1 C0 0.67 0 0.34 0 0 Z " fill="#65667E" transform="translate(137,71)"/>
<path d="M0 0 C1.35432675 1.31200404 2.68733482 2.64631404 4 4 C4 4.33 4 4.66 4 5 C2.35 5 0.7 5 -1 5 C-0.67 3.35 -0.34 1.7 0 0 Z " fill="#141323" transform="translate(56,87)"/>
<path d="M0 0 C0.66 0 1.32 0 2 0 C4 3 4 3 4 6 C2.68 6 1.36 6 0 6 C0 4.02 0 2.04 0 0 Z " fill="#5D5F77" transform="translate(149,79)"/>
<path d="M0 0 C0.33 0.66 0.66 1.32 1 2 C1.66 2.33 2.32 2.66 3 3 C2.34 4.32 1.68 5.64 1 7 C0.34 6.67 -0.32 6.34 -1 6 C-1.042721 4.33388095 -1.04063832 2.66617115 -1 1 C-0.67 0.67 -0.34 0.34 0 0 Z " fill="#ECECED" transform="translate(178,74)"/>
<path d="M0 0 C0.66 0 1.32 0 2 0 C2 1.32 2 2.64 2 4 C2.99 4 3.98 4 5 4 C5 4.66 5 5.32 5 6 C3.35 5.67 1.7 5.34 0 5 C0 3.35 0 1.7 0 0 Z " fill="#3B3D52" transform="translate(102,71)"/>
</svg>
