<?xml version="1.0" encoding="UTF-8"?>
<svg version="1.1" xmlns="http://www.w3.org/2000/svg" width="200" height="188">
<path d="M0 0 C66 0 132 0 200 0 C200 62.04 200 124.08 200 188 C134 188 68 188 0 188 C0 125.96 0 63.92 0 0 Z " fill="#FEFEFE" transform="translate(0,0)"/>
<path d="M0 0 C2 2 2 2 2.125 5.625 C2.08375 6.73875 2.0425 7.8525 2 9 C2.59167969 9.12117188 3.18335938 9.24234375 3.79296875 9.3671875 C8.0553811 10.27112487 11.9761073 11.292894 16 13 C16.66 13 17.32 13 18 13 C18.12375 13.928125 18.2475 14.85625 18.375 15.8125 C18.81533082 19.13925235 18.81533082 19.13925235 21 22 C21.38499891 23.65549531 21.72793135 25.3222433 22 27 C26.455 27.99 26.455 27.99 31 29 C31 29.66 31 30.32 31 31 C27.52674819 32.1577506 24.63932552 32.06866652 21 32 C20.896875 33.216875 20.79375 34.43375 20.6875 35.6875 C20.23584152 39.44689265 19.09088785 41.81821414 17 45 C17 45.99 17 46.98 17 48 C15.68 48 14.36 48 13 48 C9.3392714 48.81539593 6.12575253 49.90332445 3 52 C1.57110165 54.96496408 1.15373433 57.72965147 1 61 C0.67 61 0.34 61 0 61 C-0.495 56.05 -0.495 56.05 -1 51 C-2.4025 50.71125 -3.805 50.4225 -5.25 50.125 C-7.79247912 49.60154842 -9.81601241 49.09880815 -12.109375 47.8671875 C-14.15017692 46.67064077 -14.15017692 46.67064077 -17 48 C-16.7525 47.319375 -16.505 46.63875 -16.25 45.9375 C-15.93410177 42.22569576 -17.04831109 40.74264847 -19.08984375 37.74609375 C-20 36 -20 36 -20 32 C-23.3 31.67 -26.6 31.34 -30 31 C-26.99382731 27.99382731 -24.17618402 28.40414684 -20 28 C-19.87625 26.9275 -19.7525 25.855 -19.625 24.75 C-19 21 -19 21 -17.875 18.875 C-16.67601902 16.30575504 -17.25902557 14.66750795 -18 12 C-17.0925 12.226875 -16.185 12.45375 -15.25 12.6875 C-11.30862766 13.06647811 -10.9770093 12.34552248 -8 10 C-4.25 9.3125 -4.25 9.3125 -1 9 C-1.020625 7.88625 -1.04125 6.7725 -1.0625 5.625 C-1 2 -1 2 0 0 Z " fill="#F6F8F5" transform="translate(38,64)"/>
<path d="M0 0 C3.196875 -0.04125 6.39375 -0.0825 9.6875 -0.125 C10.68612061 -0.14320801 11.68474121 -0.16141602 12.71362305 -0.18017578 C21.25037639 -0.23350361 21.25037639 -0.23350361 25 2 C27.31282587 5.46923881 27.42478586 6.92205575 27 11 C25.14657225 13.55949546 24.06243607 13.97918798 21 15 C18.42734182 15.07029121 15.88358569 15.09370832 13.3125 15.0625 C12.61060547 15.05798828 11.90871094 15.05347656 11.18554688 15.04882812 C9.45699462 15.03706927 7.72848635 15.01913454 6 15 C6 16.98 6 18.96 6 21 C19.86 21 33.72 21 48 21 C48 18.36 48 15.72 48 13 C44.37 13 40.74 13 37 13 C37 15.64 37 18.28 37 21 C34.69 21 32.38 21 30 21 C30 14.07 30 7.14 30 0 C32.31 0 34.62 0 37 0 C37 2.31 37 4.62 37 7 C40.63 7 44.26 7 48 7 C48 4.69 48 2.38 48 0 C50.31 0 52.62 0 55 0 C55 6.93 55 13.86 55 21 C53.35 21 51.7 21 50 21 C51.01191638 22.2337198 51.01191638 22.2337198 53.09437561 22.12025452 C54.01592941 22.11803391 54.93748322 22.11581329 55.88696289 22.11352539 C57.44846825 22.11341209 57.44846825 22.11341209 59.04151917 22.11329651 C60.73993202 22.10555458 60.73993202 22.10555458 62.47265625 22.09765625 C63.62543564 22.0962413 64.77821503 22.09482635 65.96592712 22.09336853 C69.66481064 22.08775005 73.36363464 22.07519442 77.0625 22.0625 C79.56315017 22.05748738 82.06380129 22.05292406 84.56445312 22.04882812 C90.70965588 22.03777462 96.85482369 22.02101852 103 22 C103 22.66 103 23.32 103 24 C101.35 24.33 99.7 24.66 98 25 C99.32 25 100.64 25 102 25 C102 25.99 102 26.98 102 28 C98.8543649 28.17054921 95.70846763 28.33570811 92.5625 28.5 C91.24475586 28.57154297 91.24475586 28.57154297 89.90039062 28.64453125 C84.93567398 28.90101108 80.00210481 29.04320962 75.03076172 28.96875 C72.84457821 29.00239168 70.73054087 29.22395294 68.5625 29.5 C63.7010059 30.10983407 58.8925183 30.09192623 54 30 C53.67 30.66 53.34 31.32 53 32 C52.34692871 31.51249268 51.69385742 31.02498535 51.02099609 30.52270508 C47.19247066 28.59297232 43.85110036 28.58608406 39.6640625 28.63671875 C38.86648529 28.63622025 38.06890808 28.63572174 37.24716187 28.63520813 C35.56448875 28.63754212 33.88181172 28.64723078 32.19921875 28.66381836 C29.64030273 28.68735922 27.08243401 28.68438048 24.5234375 28.67773438 C22.88280636 28.6833138 21.24217956 28.69042534 19.6015625 28.69921875 C18.84404694 28.69830734 18.08653137 28.69739594 17.30606079 28.69645691 C12.50714388 28.75962953 8.57212121 29.54694329 4 31 C3.34 31 2.68 31 2 31 C1.67 30.34 1.34 29.68 1 29 C0.34 29 -0.32 29 -1 29 C-1.33 29.99 -1.66 30.98 -2 32 C-2.33 28.7 -2.66 25.4 -3 22 C-2.01 22 -1.02 22 0 22 C0 14.74 0 7.48 0 0 Z " fill="#D1E8E3" transform="translate(77,80)"/>
<path d="M0 0 C2 2 2 2 2.125 5.625 C2.08375 6.73875 2.0425 7.8525 2 9 C2.59167969 9.12117188 3.18335938 9.24234375 3.79296875 9.3671875 C8.0553811 10.27112487 11.9761073 11.292894 16 13 C16.66 13 17.32 13 18 13 C18.12375 13.928125 18.2475 14.85625 18.375 15.8125 C18.81533082 19.13925235 18.81533082 19.13925235 21 22 C21.38499891 23.65549531 21.72793135 25.3222433 22 27 C26.455 27.99 26.455 27.99 31 29 C31 29.66 31 30.32 31 31 C27.52674819 32.1577506 24.63932552 32.06866652 21 32 C20.896875 33.216875 20.79375 34.43375 20.6875 35.6875 C20.23584152 39.44689265 19.09088785 41.81821414 17 45 C17 45.99 17 46.98 17 48 C15.68 48 14.36 48 13 48 C9.3392714 48.81539593 6.12575253 49.90332445 3 52 C1.57110165 54.96496408 1.15373433 57.72965147 1 61 C0.67 61 0.34 61 0 61 C-0.495 56.05 -0.495 56.05 -1 51 C-2.4025 50.71125 -3.805 50.4225 -5.25 50.125 C-7.79247912 49.60154842 -9.81601241 49.09880815 -12.109375 47.8671875 C-14.15017692 46.67064077 -14.15017692 46.67064077 -17 48 C-16.7525 47.319375 -16.505 46.63875 -16.25 45.9375 C-15.93410177 42.22569576 -17.04831109 40.74264847 -19.08984375 37.74609375 C-20 36 -20 36 -20 32 C-23.3 31.67 -26.6 31.34 -30 31 C-26.99382731 27.99382731 -24.17618402 28.40414684 -20 28 C-19.87625 26.9275 -19.7525 25.855 -19.625 24.75 C-19 21 -19 21 -17.875 18.875 C-16.67601902 16.30575504 -17.25902557 14.66750795 -18 12 C-17.0925 12.226875 -16.185 12.45375 -15.25 12.6875 C-11.30862766 13.06647811 -10.9770093 12.34552248 -8 10 C-4.25 9.3125 -4.25 9.3125 -1 9 C-1.020625 7.88625 -1.04125 6.7725 -1.0625 5.625 C-1 2 -1 2 0 0 Z M-15.0625 21.1875 C-16.8731898 26.6195694 -17.00772857 32.56023609 -14.8125 37.875 C-10.15712564 43.33302511 -6.94411018 46.63480461 0.375 47.3125 C5.46449148 46.87375073 9.26419094 45.39829063 13.25 42.1875 C17.1935444 37.2580695 18.57501761 33.32519366 18 27 C17.1025173 24.16621868 17.1025173 24.16621868 16 22 C16.66 21.67 17.32 21.34 18 21 C17.2575 20.5875 16.515 20.175 15.75 19.75 C13 18 13 18 11 15.875 C8.55038053 13.57848174 7.3240042 13.3021822 4 13 C2.7625 12.855625 1.525 12.71125 0.25 12.5625 C-6.07283312 12.63448671 -10.89465924 16.76706283 -15.0625 21.1875 Z " fill="#6CA963" transform="translate(38,64)"/>
<path d="M0 0 C2.37531394 -0.0543965 4.74935883 -0.09385864 7.125 -0.125 C7.79015625 -0.14175781 8.4553125 -0.15851563 9.140625 -0.17578125 C14.27729024 -0.22614071 18.62620133 0.26356376 22.84765625 3.3515625 C25.09056382 6.56006078 24.58974474 10.2715027 24 14 C21.63884887 18.11015197 19.45710671 19.62246015 15 21 C12.35392791 21.13710218 9.82530987 21.19062972 7.1875 21.125 C6.14819336 21.11146484 6.14819336 21.11146484 5.08789062 21.09765625 C3.39177605 21.07426157 1.69584129 21.03839641 0 21 C0 19.02 0 17.04 0 15 C-5.61 15 -11.22 15 -17 15 C-17 14.34 -17 13.68 -17 13 C-17.66 12.67 -18.32 12.34 -19 12 C-12.73 12 -6.46 12 0 12 C0 10.68 0 9.36 0 8 C-5.61 8 -11.22 8 -17 8 C-17 6.68 -17 5.36 -17 4 C-11.39 4.33 -5.78 4.66 0 5 C0 3.35 0 1.7 0 0 Z " fill="#375996" transform="translate(155,80)"/>
<path d="M0 0 C13.53 0 27.06 0 41 0 C41.495 1.485 41.495 1.485 42 3 C42.33 2.34 42.66 1.68 43 1 C43.99 1 44.98 1 46 1 C46 1.66 46 2.32 46 3 C46.66 3 47.32 3 48 3 C48.33 2.01 48.66 1.02 49 0 C50.47906892 -0.02689216 51.95827483 -0.04634621 53.4375 -0.0625 C54.26121094 -0.07410156 55.08492187 -0.08570312 55.93359375 -0.09765625 C58 0 58 0 59 1 C59.01665074 2.56423432 58.96308892 4.12935006 58.87890625 5.69140625 C58.83056641 6.63564453 58.78222656 7.57988281 58.73242188 8.55273438 C58.67634766 9.54595703 58.62027344 10.53917969 58.5625 11.5625 C58.51029297 12.55958984 58.45808594 13.55667969 58.40429688 14.58398438 C58.2741763 17.05627522 58.13919819 19.5282063 58 22 C57.67 22 57.34 22 57 22 C57 15.07 57 8.14 57 1 C54.69 1 52.38 1 50 1 C50 3.31 50 5.62 50 8 C46.37 8 42.74 8 39 8 C39 5.69 39 3.38 39 1 C36.69 1 34.38 1 32 1 C32 7.93 32 14.86 32 22 C34.31 22 36.62 22 39 22 C39 19.36 39 16.72 39 14 C42.63 14 46.26 14 50 14 C50.495 18.455 50.495 18.455 51 23 C35.16 23 19.32 23 3 23 C3 22.67 3 22.34 3 22 C4.65 22 6.3 22 8 22 C8 20.02 8 18.04 8 16 C9.53720703 15.90912109 9.53720703 15.90912109 11.10546875 15.81640625 C12.46615695 15.73194974 13.82683343 15.64730433 15.1875 15.5625 C15.86103516 15.52318359 16.53457031 15.48386719 17.22851562 15.44335938 C20.89699102 15.21072435 24.41694206 14.82792989 28 14 C28.020625 12.741875 28.04125 11.48375 28.0625 10.1875 C28.07410156 9.47980469 28.08570312 8.77210937 28.09765625 8.04296875 C28.08263217 5.79694539 28.08263217 5.79694539 27 3 C23.68856994 2.27586627 20.52155779 1.83645745 17.13671875 1.68359375 C15.93728638 1.62643188 15.93728638 1.62643188 14.71362305 1.56811523 C13.21569214 1.50346069 13.21569214 1.50346069 11.6875 1.4375 C8.490625 1.293125 5.29375 1.14875 2 1 C2 7.93 2 14.86 2 22 C1.67 22 1.34 22 1 22 C0.95101562 21.18015625 0.90203125 20.3603125 0.8515625 19.515625 C0.77679688 18.43796875 0.70203125 17.3603125 0.625 16.25 C0.55539063 15.18265625 0.48578125 14.1153125 0.4140625 13.015625 C0.20094497 10.05498999 0.20094497 10.05498999 -1.1640625 7.984375 C-2 6 -2 6 0 0 Z " fill="#F5FBF5" transform="translate(75,79)"/>
<path d="M0 0 C3.196875 -0.04125 6.39375 -0.0825 9.6875 -0.125 C10.68612061 -0.14320801 11.68474121 -0.16141602 12.71362305 -0.18017578 C21.25037639 -0.23350361 21.25037639 -0.23350361 25 2 C27.31282587 5.46923881 27.42478586 6.92205575 27 11 C25.14657225 13.55949546 24.06243607 13.97918798 21 15 C18.42734182 15.07029121 15.88358569 15.09370832 13.3125 15.0625 C12.61060547 15.05798828 11.90871094 15.05347656 11.18554688 15.04882812 C9.45699462 15.03706927 7.72848635 15.01913454 6 15 C6 16.98 6 18.96 6 21 C4.02 21 2.04 21 0 21 C0 14.07 0 7.14 0 0 Z " fill="#2E8FC0" transform="translate(77,80)"/>
<path d="M0 0 C2.31 0 4.62 0 7 0 C7 2.31 7 4.62 7 7 C10.63 7 14.26 7 18 7 C18 4.69 18 2.38 18 0 C20.31 0 22.62 0 25 0 C25 6.93 25 13.86 25 21 C22.69 21 20.38 21 18 21 C18 18.36 18 15.72 18 13 C14.37 13 10.74 13 7 13 C7 15.64 7 18.28 7 21 C4.69 21 2.38 21 0 21 C0 14.07 0 7.14 0 0 Z " fill="#2E6FBC" transform="translate(107,80)"/>
<path d="M0 0 C0.33 0 0.66 0 1 0 C1 2.97 1 5.94 1 9 C2.32 9.33 3.64 9.66 5 10 C5.37511719 9.4225 5.75023438 8.845 6.13671875 8.25 C6.64847656 7.5075 7.16023438 6.765 7.6875 6 C8.43580078 4.88625 8.43580078 4.88625 9.19921875 3.75 C11 2 11 2 13.70703125 1.75 C14.46371094 1.8325 15.22039063 1.915 16 2 C17.46167816 8.1124723 16.91361719 13.34994503 14 19 C10.31623785 22.31886118 5.68914561 23.83439749 0.8125 24.3125 C-3.86012971 23.92949756 -7.00115935 22.32659819 -11 20 C-9.68 19.67 -8.36 19.34 -7 19 C-7 19.66 -7 20.32 -7 21 C-6.34 21 -5.68 21 -5 21 C-6.90884692 16.45829004 -6.90884692 16.45829004 -9 12 C-8.34 11.34 -7.68 10.68 -7 10 C-6.0165504 11.43457328 -5.03839079 12.87277406 -4.0625 14.3125 C-3.51722656 15.11300781 -2.97195312 15.91351563 -2.41015625 16.73828125 C-1 19 -1 19 0 22 C0.33 19.36 0.66 16.72 1 14 C0.01 14 -0.98 14 -2 14 C-2.1799928 8.78020872 -1.97094808 4.92737019 0 0 Z " fill="#FAF9FC" transform="translate(38,87)"/>
<path d="M0 0 C0.80060349 0.02009628 1.60120697 0.04019257 2.42607117 0.06089783 C3.28553848 0.08793289 4.1450058 0.11496796 5.03051758 0.14282227 C5.91411453 0.16643326 6.79771149 0.19004425 7.70808411 0.21437073 C10.53057141 0.29095087 13.35278043 0.37499961 16.17504883 0.45922852 C18.08844666 0.51245485 20.00185809 0.56519522 21.9152832 0.61743164 C26.60621467 0.74655841 31.29691021 0.88238385 35.98754883 1.02172852 C35.98754883 1.68172852 35.98754883 2.34172852 35.98754883 3.02172852 C37.26629883 3.18672852 38.54504883 3.35172852 39.86254883 3.52172852 C40.5818457 3.61454102 41.30114258 3.70735352 42.04223633 3.80297852 C43.99253227 4.05897702 43.99253227 4.05897702 45.98754883 4.02172852 C47.65421549 4.02172852 49.32088216 4.02172852 50.98754883 4.02172852 C50.98754883 5.01172852 50.98754883 6.00172852 50.98754883 7.02172852 C49.69131592 7.04154785 48.39508301 7.06136719 47.05957031 7.08178711 C42.23060337 7.15810687 37.4019274 7.2467832 32.57324219 7.33911133 C30.48703779 7.37729235 28.40077 7.41216385 26.31445312 7.44360352 C23.30811983 7.48949079 20.30221884 7.54744585 17.29614258 7.60766602 C16.36982529 7.61921722 15.443508 7.63076843 14.48912048 7.64266968 C9.27588528 7.76032893 4.94184949 8.40262297 -0.01245117 10.02172852 C-0.67245117 10.02172852 -1.33245117 10.02172852 -2.01245117 10.02172852 C-2.34245117 9.36172852 -2.67245117 8.70172852 -3.01245117 8.02172852 C-3.67245117 8.02172852 -4.33245117 8.02172852 -5.01245117 8.02172852 C-5.34245117 9.01172852 -5.67245117 10.00172852 -6.01245117 11.02172852 C-6.34245117 7.72172852 -6.67245117 4.42172852 -7.01245117 1.02172852 C-4.25646366 0.10306601 -2.81617466 -0.07995449 0 0 Z " fill="#B9CFCD" transform="translate(81.012451171875,100.978271484375)"/>
<path d="M0 0 C2.37531394 -0.0543965 4.74935883 -0.09385864 7.125 -0.125 C7.79015625 -0.14175781 8.4553125 -0.15851563 9.140625 -0.17578125 C14.2679115 -0.22604876 18.89180609 0.17289861 22.875 3.625 C23.24625 4.07875 23.6175 4.5325 24 5 C22.41758991 8.16482019 20.25746224 9.81657739 17 11 C11.85575871 11.12215876 6.88719683 10.62906561 2 9 C1.67 10.32 1.34 11.64 1 13 C-4.61 13 -10.22 13 -16 13 C-16.33 13.66 -16.66 14.32 -17 15 C-17 14.34 -17 13.68 -17 13 C-17.66 12.67 -18.32 12.34 -19 12 C-12.73 12 -6.46 12 0 12 C0 10.68 0 9.36 0 8 C-5.61 8 -11.22 8 -17 8 C-17 6.68 -17 5.36 -17 4 C-11.39 4.33 -5.78 4.66 0 5 C0 3.35 0 1.7 0 0 Z " fill="#5184B1" transform="translate(155,80)"/>
<path d="M0 0 C13.53 0 27.06 0 41 0 C41.495 1.485 41.495 1.485 42 3 C42.33 2.34 42.66 1.68 43 1 C43.99 1 44.98 1 46 1 C46 1.66 46 2.32 46 3 C46.66 3 47.32 3 48 3 C48.33 2.01 48.66 1.02 49 0 C50.47906892 -0.02689216 51.95827483 -0.04634621 53.4375 -0.0625 C54.26121094 -0.07410156 55.08492187 -0.08570312 55.93359375 -0.09765625 C58 0 58 0 59 1 C59.01665074 2.56423432 58.96308892 4.12935006 58.87890625 5.69140625 C58.83056641 6.63564453 58.78222656 7.57988281 58.73242188 8.55273438 C58.67634766 9.54595703 58.62027344 10.53917969 58.5625 11.5625 C58.51029297 12.55958984 58.45808594 13.55667969 58.40429688 14.58398438 C58.2741763 17.05627522 58.13919819 19.5282063 58 22 C57.67 22 57.34 22 57 22 C57 15.07 57 8.14 57 1 C54.69 1 52.38 1 50 1 C50 3.31 50 5.62 50 8 C46.37 8 42.74 8 39 8 C39 5.69 39 3.38 39 1 C36.69 1 34.38 1 32 1 C32 6.28 32 11.56 32 17 C31.34 16.01 30.68 15.02 30 14 C30 14.66 30 15.32 30 16 C28.68 15.34 27.36 14.68 26 14 C26.66 14 27.32 14 28 14 C28.020625 12.741875 28.04125 11.48375 28.0625 10.1875 C28.07410156 9.47980469 28.08570312 8.77210937 28.09765625 8.04296875 C28.08263217 5.79694539 28.08263217 5.79694539 27 3 C23.68856994 2.27586627 20.52155779 1.83645745 17.13671875 1.68359375 C15.93728638 1.62643188 15.93728638 1.62643188 14.71362305 1.56811523 C13.21569214 1.50346069 13.21569214 1.50346069 11.6875 1.4375 C8.490625 1.293125 5.29375 1.14875 2 1 C2 7.93 2 14.86 2 22 C1.67 22 1.34 22 1 22 C0.95101562 21.18015625 0.90203125 20.3603125 0.8515625 19.515625 C0.77679688 18.43796875 0.70203125 17.3603125 0.625 16.25 C0.55539063 15.18265625 0.48578125 14.1153125 0.4140625 13.015625 C0.20094497 10.05498999 0.20094497 10.05498999 -1.1640625 7.984375 C-2 6 -2 6 0 0 Z " fill="#DFF6FB" transform="translate(75,79)"/>
<path d="M0 0 C0.66 0 1.32 0 2 0 C2.03738281 0.73605469 2.07476562 1.47210938 2.11328125 2.23046875 C2.57139602 9.03032921 3.38936156 12.95425516 7.875 18.1875 C12.59675711 22.21488106 17.61471891 22.33367897 23.57421875 22.65625 C26 23 26 23 28 25 C26.88625 25.309375 25.7725 25.61875 24.625 25.9375 C22.64496329 26.65970328 22.64496329 26.65970328 21 28 C19.78444286 30.94237867 19.32423055 33.84371486 19 37 C18.67 37 18.34 37 18 37 C17.505 32.05 17.505 32.05 17 27 C15.5975 26.71125 14.195 26.4225 12.75 26.125 C10.20752088 25.60154842 8.18398759 25.09880815 5.890625 23.8671875 C3.84982308 22.67064077 3.84982308 22.67064077 1 24 C1.2475 23.319375 1.495 22.63875 1.75 21.9375 C2.06589823 18.22569576 0.95168891 16.74264847 -1.08984375 13.74609375 C-2 12 -2 12 -2 8 C-5.3 7.67 -8.6 7.34 -12 7 C-9.67051464 4.67051464 -9.14278968 4.77520686 -6 4.625 C-3.88219759 4.46767205 -3.88219759 4.46767205 -2 4 C-0.4100567 2.07935207 -0.4100567 2.07935207 0 0 Z " fill="#3B8D57" transform="translate(20,88)"/>
<path d="M0 0 C1.9451 2.91765 2.45276317 4.62537285 3 8 C3.66 7.01 4.32 6.02 5 5 C6.32 5.33 7.64 5.66 9 6 C9 6.99 9 7.98 9 9 C10.32 8.67 11.64 8.34 13 8 C10 12 7 16 4 20 C4 19.01 4 18.02 4 17 C3.01 17 2.02 17 1 17 C0.67 14.69 0.34 12.38 0 10 C-0.66 13.96 -1.32 17.92 -2 22 C-1.01 22 -0.02 22 1 22 C1 24.97 1 27.94 1 31 C-1.57487267 29.71256366 -1.94188161 28.47961008 -3.25 25.9375 C-5.7557805 21.27001632 -8.71373485 17.14453371 -12 13 C-11.113125 13.165 -10.22625 13.33 -9.3125 13.5 C-6.01849441 13.35669837 -6.01849441 13.35669837 -4.5234375 11.39453125 C-2.18216367 7.74570391 -0.41124665 4.38663091 0 0 Z " fill="#4E90C5" transform="translate(38,79)"/>
<path d="M0 0 C2.475 0.495 2.475 0.495 5 1 C5.84098656 5.01804691 6.05404945 8.01803543 5 12 C5.66 11.67 6.32 11.34 7 11 C6.34 12.65 5.68 14.3 5 16 C5.66 16.66 6.32 17.32 7 18 C6.625 21.625 6.625 21.625 6 25 C5.01 25 4.02 25 3 25 C3 24.34 3 23.68 3 23 C2.2575 23.20625 1.515 23.4125 0.75 23.625 C-2 24 -2 24 -6 22 C-2.7 22 0.6 22 4 22 C4 21.34 4 20.68 4 20 C-5.24 20 -14.48 20 -24 20 C-24.33 18.68 -24.66 17.36 -25 16 C-30.94 15.01 -30.94 15.01 -37 14 C-37 13.67 -37 13.34 -37 13 C-31.72 13 -26.44 13 -21 13 C-21 14.98 -21 16.96 -21 19 C-18.62337178 18.9123127 -16.25016873 18.80536886 -13.875 18.6875 C-13.20984375 18.66494141 -12.5446875 18.64238281 -11.859375 18.61914062 C-7.23920251 18.37001368 -3.9244663 17.45133577 0 15 C2.02350324 11.96474514 2.32124018 10.80573798 2.625 7.3125 C2.69976562 6.50425781 2.77453125 5.69601563 2.8515625 4.86328125 C2.90054688 4.24839844 2.94953125 3.63351563 3 3 C2.01 2.67 1.02 2.34 0 2 C0 1.34 0 0.68 0 0 Z " fill="#E8F9F9" transform="translate(176,82)"/>
<path d="M0 0 C1.65 0.66 3.3 1.32 5 2 C5 3.65 5 5.3 5 7 C0.72115394 9.1103435 -3.13864142 9.24128739 -7.8125 9.125 C-8.85180664 9.11146484 -8.85180664 9.11146484 -9.91210938 9.09765625 C-11.60822395 9.07426157 -13.30415871 9.03839641 -15 9 C-15 10.98 -15 12.96 -15 15 C-16.98 15 -18.96 15 -21 15 C-21 10.71 -21 6.42 -21 2 C-19 4 -19 4 -19 8 C-18.01 7.67 -17.02 7.34 -16 7 C-15.67 6.34 -15.34 5.68 -15 5 C-12.45058627 4.68758629 -9.99638487 4.48696579 -7.4375 4.375 C-6.72658203 4.33632812 -6.01566406 4.29765625 -5.28320312 4.2578125 C-3.52257575 4.16328217 -1.76132272 4.08054183 0 4 C0 2.68 0 1.36 0 0 Z " fill="#24508C" transform="translate(98,86)"/>
<path d="M0 0 C3.3640082 1.56987049 5.30546687 3.60219392 7.8125 6.3125 C8.8025 6.9725 9.7925 7.6325 10.8125 8.3125 C10.1525 8.3125 9.4925 8.3125 8.8125 8.3125 C9.1425 8.993125 9.4725 9.67375 9.8125 10.375 C11.01796603 13.91605647 11.1507573 16.59166967 10.8125 20.3125 C9.29296875 22.52734375 9.29296875 22.52734375 7.8125 24.3125 C7.90789063 23.61382812 8.00328125 22.91515625 8.1015625 22.1953125 C8.21242188 21.28523438 8.32328125 20.37515625 8.4375 19.4375 C8.55351563 18.53257813 8.66953125 17.62765625 8.7890625 16.6953125 C8.79679687 15.90898438 8.80453125 15.12265625 8.8125 14.3125 C5.83009025 11.22420959 5.83009025 11.22420959 1.8125 10.3125 C1.4825 9.3225 1.1525 8.3325 0.8125 7.3125 C-0.1775 7.3125 -1.1675 7.3125 -2.1875 7.3125 C-3.1775 8.7975 -3.1775 8.7975 -4.1875 10.3125 C-4.8475 8.3325 -5.5075 6.3525 -6.1875 4.3125 C-6.8475 4.9725 -7.5075 5.6325 -8.1875 6.3125 C-8.1875 4.6625 -8.1875 3.0125 -8.1875 1.3125 C-9.5075 1.3125 -10.8275 1.3125 -12.1875 1.3125 C-12.1875 1.9725 -12.1875 2.6325 -12.1875 3.3125 C-13.1775 2.9825 -14.1675 2.6525 -15.1875 2.3125 C-10.80966005 -2.06533995 -5.57724171 -1.20293449 0 0 Z " fill="#DFEAF7" transform="translate(45.1875,77.6875)"/>
<path d="M0 0 C0.56203125 0.14308594 1.1240625 0.28617187 1.703125 0.43359375 C4.04545453 1.01120902 6.39417659 1.54283307 8.75 2.0625 C9.54921875 2.23910156 10.3484375 2.41570312 11.171875 2.59765625 C11.77515625 2.73042969 12.3784375 2.86320312 13 3 C13 3.66 13 4.32 13 5 C9.52674819 6.1577506 6.63932552 6.06866652 3 6 C2.896875 7.216875 2.79375 8.43375 2.6875 9.6875 C2.23584152 13.44689265 1.09088785 15.81821414 -1 19 C-1 19.99 -1 20.98 -1 22 C-2.32 22 -3.64 22 -5 22 C-5.99 22.33 -6.98 22.66 -8 23 C-11.1875 22.0625 -11.1875 22.0625 -14 21 C-6.5 16 -6.5 16 -4 16 C-2.07091057 10.76390013 -1.01591421 5.46864457 0 0 Z " fill="#61A259" transform="translate(56,90)"/>
<path d="M0 0 C0.87785156 0.37382813 1.75570313 0.74765625 2.66015625 1.1328125 C5.34140961 2.26217695 7.96085386 3.3372117 10.72265625 4.2578125 C11.91015625 7.8203125 11.91015625 7.8203125 12.72265625 11.2578125 C12.90828125 10.1440625 13.09390625 9.0303125 13.28515625 7.8828125 C13.75953125 6.6865625 14.23390625 5.4903125 14.72265625 4.2578125 C18.34765625 2.8203125 18.34765625 2.8203125 21.72265625 2.2578125 C21.72265625 2.9178125 21.72265625 3.5778125 21.72265625 4.2578125 C21.06265625 4.2578125 20.40265625 4.2578125 19.72265625 4.2578125 C19.72265625 4.9178125 19.72265625 5.5778125 19.72265625 6.2578125 C18.07265625 6.5878125 16.42265625 6.9178125 14.72265625 7.2578125 C14.92890625 7.9796875 15.13515625 8.7015625 15.34765625 9.4453125 C15.78217836 12.70422835 15.13946294 14.34085754 13.72265625 17.2578125 C13.12453125 17.0928125 12.52640625 16.9278125 11.91015625 16.7578125 C9.60921289 16.1464001 9.60921289 16.1464001 6.72265625 16.2578125 C5.72265625 15.2578125 5.72265625 15.2578125 5.47265625 11.3828125 C5.30210604 9.21692062 5.30210604 9.21692062 4.72265625 7.2578125 C2.27956048 5.34036657 2.27956048 5.34036657 -0.27734375 4.2578125 C-0.27734375 3.5978125 -0.27734375 2.9378125 -0.27734375 2.2578125 C-1.59734375 1.5978125 -2.91734375 0.9378125 -4.27734375 0.2578125 C-2.27734375 -0.7421875 -2.27734375 -0.7421875 0 0 Z " fill="#F6FBF7" transform="translate(26.27734375,110.7421875)"/>
<path d="M0 0 C2.37531394 -0.0543965 4.74935883 -0.09385864 7.125 -0.125 C7.79015625 -0.14175781 8.4553125 -0.15851563 9.140625 -0.17578125 C14.2679115 -0.22604876 18.89180609 0.17289861 22.875 3.625 C23.24625 4.07875 23.6175 4.5325 24 5 C23 7 23 7 21 8 C18.375 7.0625 18.375 7.0625 16 6 C16 5.34 16 4.68 16 4 C12.04 4 8.08 4 4 4 C4 3.01 4 2.02 4 1 C3.01 1 2.02 1 1 1 C1 2.65 1 4.3 1 6 C-4.61 6 -10.22 6 -16 6 C-16.33 6.66 -16.66 7.32 -17 8 C-17 6.68 -17 5.36 -17 4 C-11.39 4.33 -5.78 4.66 0 5 C0 3.35 0 1.7 0 0 Z " fill="#53A1D0" transform="translate(155,80)"/>
<path d="M0 0 C0.99 0 1.98 0 3 0 C3 0.66 3 1.32 3 2 C14.55 2 26.1 2 38 2 C38 2.33 38 2.66 38 3 C30.08 3.33 22.16 3.66 14 4 C13.67 5.32 13.34 6.64 13 8 C10.36 8.33 7.72 8.66 5 9 C4.67 8.34 4.34 7.68 4 7 C3.34 7 2.68 7 2 7 C1.67 7.99 1.34 8.98 1 10 C0.67 6.7 0.34 3.4 0 0 Z " fill="#DBF0F6" transform="translate(74,102)"/>
<path d="M0 0 C0.66 0 1.32 0 2 0 C2.12375 0.928125 2.2475 1.85625 2.375 2.8125 C2.81533082 6.13925235 2.81533082 6.13925235 5 9 C5 10.32 5 11.64 5 13 C3.68 13.33 2.36 13.66 1 14 C0.79375 13.13375 0.5875 12.2675 0.375 11.375 C-1.33048582 7.18880753 -3.18983773 4.48354707 -7 2 C-10.30214141 0.96500045 -13.5660517 0.39361463 -17 0 C-17 -0.66 -17 -1.32 -17 -2 C-11.30651142 -3.89782953 -5.36705563 -2.43957074 0 0 Z " fill="#7BB058" transform="translate(54,77)"/>
<path d="M0 0 C0.99 0 1.98 0 3 0 C3.33 1.65 3.66 3.3 4 5 C5.093125 4.979375 6.18625 4.95875 7.3125 4.9375 C11 5 11 5 14 6 C13.67 7.65 13.34 9.3 13 11 C6.375 13.125 6.375 13.125 3 12 C3 14.97 3 17.94 3 21 C2.01 21.33 1.02 21.66 0 22 C0 22.66 0 23.32 0 24 C-0.99 24.33 -1.98 24.66 -3 25 C-3 21.28071494 -1.65229178 19.30458355 0 16 C0.69907414 13.26427415 0.69907414 13.26427415 1 11 C4.3 10.67 7.6 10.34 11 10 C11 9.34 11 8.68 11 8 C9.906875 8.04125 8.81375 8.0825 7.6875 8.125 C4 8 4 8 1 6 C0.3125 2.875 0.3125 2.875 0 0 Z " fill="#D6F2D6" transform="translate(58,85)"/>
<path d="M0 0 C0.94101563 0.00322266 1.88203125 0.00644531 2.8515625 0.00976562 C3.83640625 0.01814453 4.82125 0.02652344 5.8359375 0.03515625 C6.82851562 0.03966797 7.82109375 0.04417969 8.84375 0.04882812 C11.2995391 0.0606348 13.75520854 0.07710225 16.2109375 0.09765625 C16.2109375 0.75765625 16.2109375 1.41765625 16.2109375 2.09765625 C14.5609375 2.42765625 12.9109375 2.75765625 11.2109375 3.09765625 C12.5309375 3.09765625 13.8509375 3.09765625 15.2109375 3.09765625 C15.2109375 4.08765625 15.2109375 5.07765625 15.2109375 6.09765625 C6.7959375 6.59265625 6.7959375 6.59265625 -1.7890625 7.09765625 C-2.1190625 5.77765625 -2.4490625 4.45765625 -2.7890625 3.09765625 C-4.7728392 1.81328891 -4.7728392 1.81328891 -6.7890625 1.09765625 C-4.33631109 -0.12871945 -2.7384844 -0.01649689 0 0 Z " fill="#ADCACC" transform="translate(163.7890625,101.90234375)"/>
<path d="M0 0 C0.75 1.6875 0.75 1.6875 1 4 C-0.78517826 6.64698845 -2.12021246 8.56010623 -5 10 C-7.88370333 10.07194869 -10.74239664 10.09291708 -13.625 10.0625 C-14.42679688 10.05798828 -15.22859375 10.05347656 -16.0546875 10.04882812 C-18.03649006 10.03703168 -20.01825433 10.01909605 -22 10 C-21.67 8.35 -21.34 6.7 -21 5 C-20.21496094 5.01160156 -19.42992187 5.02320312 -18.62109375 5.03515625 C-10.23392356 5.25000741 -10.23392356 5.25000741 -2 4 C-0.48705712 2.06402968 -0.48705712 2.06402968 0 0 Z " fill="#2E49A6" transform="translate(178,90)"/>
<path d="M0 0 C0.66 0.33 1.32 0.66 2 1 C1.25 6.75 1.25 6.75 -1 9 C-4.5625 9.1875 -4.5625 9.1875 -8 9 C-8.33 8.67 -8.66 8.34 -9 8 C-10.99541896 7.77471076 -12.99159864 7.55238905 -14.9921875 7.37890625 C-17 7 -17 7 -20 5 C-20 4.34 -20 3.68 -20 3 C-18.96359375 3.09539062 -17.9271875 3.19078125 -16.859375 3.2890625 C-15.48963271 3.40164406 -14.11983807 3.51358988 -12.75 3.625 C-11.72712891 3.72167969 -11.72712891 3.72167969 -10.68359375 3.8203125 C-6.90734031 4.11361374 -4.13631692 4.28236925 -1 2 C-0.67 1.34 -0.34 0.68 0 0 Z " fill="#2C6BB3" transform="translate(177,86)"/>
<path d="M0 0 C2.31 0 4.62 0 7 0 C7 2.31 7 4.62 7 7 C10.63 7 14.26 7 18 7 C18 4.69 18 2.38 18 0 C20.31 0 22.62 0 25 0 C25 2.31 25 4.62 25 7 C23.68 7 22.36 7 21 7 C20.67 7.66 20.34 8.32 20 9 C19.67 8.67 19.34 8.34 19 8 C16.81360547 7.92741054 14.62499611 7.91626217 12.4375 7.9375 C11.23996094 7.94652344 10.04242188 7.95554687 8.80859375 7.96484375 C7.41833984 7.98224609 7.41833984 7.98224609 6 8 C6 5.69 6 3.38 6 1 C4.35 1 2.7 1 1 1 C1 3.97 1 6.94 1 10 C0.67 10 0.34 10 0 10 C0 6.7 0 3.4 0 0 Z " fill="#5FA2CA" transform="translate(107,80)"/>
<path d="M0 0 C2.875 -0.125 2.875 -0.125 6 0 C6.66 0.66 7.32 1.32 8 2 C6.3125 3.5625 6.3125 3.5625 4 5 C1.25 4.6875 1.25 4.6875 -1 4 C-0.80921875 4.54527344 -0.6184375 5.09054688 -0.421875 5.65234375 C0.44466355 10.47447032 -1.35658847 14.99747595 -4 19 C-7.57341857 20.81751462 -11.03637444 21.52846523 -15 22 C-15 21.01 -15 20.02 -15 19 C-12.36 19 -9.72 19 -7 19 C-5.68 13.06 -4.36 7.12 -3 1 C-2.01 1.33 -1.02 1.66 0 2 C0 1.34 0 0.68 0 0 Z " fill="#E1FBE2" transform="translate(22,73)"/>
<path d="M0 0 C1.32 0.33 2.64 0.66 4 1 C4 1.99 4 2.98 4 4 C5.32 3.67 6.64 3.34 8 3 C5 7 2 11 -1 15 C-1 14.01 -1 13.02 -1 12 C-1.99 12 -2.98 12 -4 12 C-3.45660208 7.43545749 -2.20536179 4.0271824 0 0 Z " fill="#6089B0" transform="translate(43,84)"/>
<path d="M0 0 C0.99 0 1.98 0 3 0 C5.42857143 6.28571429 5.42857143 6.28571429 4 10 C3.67 10 3.34 10 3 10 C2.67 12.31 2.34 14.62 2 17 C0.35 17.33 -1.3 17.66 -3 18 C-2.34 14.7 -1.68 11.4 -1 8 C-1.66 8 -2.32 8 -3 8 C-2.25 2.25 -2.25 2.25 0 0 Z " fill="#F0F5F3" transform="translate(35,56)"/>
<path d="M0 0 C8.58 0 17.16 0 26 0 C26.33 0.99 26.66 1.98 27 3 C18.09 3 9.18 3 0 3 C0 2.01 0 1.02 0 0 Z " fill="#95ADBD" transform="translate(133,105)"/>
<path d="M0 0 C0.33 0.99 0.66 1.98 1 3 C6.61 3 12.22 3 18 3 C18 4.32 18 5.64 18 7 C15.20807795 7.05380578 12.4171859 7.09357669 9.625 7.125 C8.8309375 7.14175781 8.036875 7.15851563 7.21875 7.17578125 C5.14507985 7.19335473 3.07116759 7.10335168 1 7 C0.34 6.34 -0.32 5.68 -1 5 C-0.625 2.375 -0.625 2.375 0 0 Z " fill="#DDF5F9" transform="translate(137,85)"/>
<path d="M0 0 C8.91 0 17.82 0 27 0 C27 0.99 27 1.98 27 3 C26.27530518 2.84152588 25.55061035 2.68305176 24.80395508 2.51977539 C22.21048338 2.03901777 19.7680216 1.80242678 17.13671875 1.68359375 C15.93728638 1.62643188 15.93728638 1.62643188 14.71362305 1.56811523 C13.21569214 1.50346069 13.21569214 1.50346069 11.6875 1.4375 C8.490625 1.293125 5.29375 1.14875 2 1 C2 7.93 2 14.86 2 22 C1.67 22 1.34 22 1 22 C0.95101562 21.18015625 0.90203125 20.3603125 0.8515625 19.515625 C0.77679688 18.43796875 0.70203125 17.3603125 0.625 16.25 C0.55539063 15.18265625 0.48578125 14.1153125 0.4140625 13.015625 C0.20094497 10.05498999 0.20094497 10.05498999 -1.1640625 7.984375 C-2 6 -2 6 0 0 Z " fill="#D4F1FB" transform="translate(75,79)"/>
<path d="M0 0 C4.62 0 9.24 0 14 0 C14.33 0.66 14.66 1.32 15 2 C17.02463255 2.65213292 17.02463255 2.65213292 19 3 C19 3.66 19 4.32 19 5 C13.06 4.67 7.12 4.34 1 4 C0.67 2.68 0.34 1.36 0 0 Z " fill="#2881CD" transform="translate(157,84)"/>
<path d="M0 0 C4.29 0 8.58 0 13 0 C13.33 1.32 13.66 2.64 14 4 C13 5 13 5 10.05859375 5.09765625 C8.26615234 5.08025391 8.26615234 5.08025391 6.4375 5.0625 C4.64119141 5.04896484 4.64119141 5.04896484 2.80859375 5.03515625 C1.88175781 5.02355469 0.95492187 5.01195313 0 5 C0 3.35 0 1.7 0 0 Z " fill="#BDE7F5" transform="translate(83,85)"/>
<path d="M0 0 C-1.875 1.0625 -1.875 1.0625 -4 2 C-4.66 1.67 -5.32 1.34 -6 1 C-6.70125 1.309375 -7.4025 1.61875 -8.125 1.9375 C-12.05001293 3.38804826 -14.81510281 3.33749171 -19 3 C-21 1.5 -21 1.5 -22 0 C-17.80025586 -4.19974414 -4.70978473 -2.68372869 0 0 Z " fill="#F6F7F9" transform="translate(163,110)"/>
<path d="M0 0 C2 3 2 3 1.75 5.6875 C1.5025 6.780625 1.255 7.87375 1 9 C0.90976562 9.66902344 0.81953125 10.33804688 0.7265625 11.02734375 C0.20799815 14.12144439 -0.17404307 16.26989486 -2.58203125 18.3984375 C-5.47454473 20.11567708 -7.61976445 21 -11 21 C-11 20.01 -11 19.02 -11 18 C-9.02 17.67 -7.04 17.34 -5 17 C-5 16.34 -5 15.68 -5 15 C-4.34 15 -3.68 15 -3 15 C-3.33 14.01 -3.66 13.02 -4 12 C-3.0625 9.3125 -3.0625 9.3125 -2 7 C-1.34 7 -0.68 7 0 7 C-0.185625 6.030625 -0.37125 5.06125 -0.5625 4.0625 C-0.706875 3.051875 -0.85125 2.04125 -1 1 C-0.67 0.67 -0.34 0.34 0 0 Z " fill="#F4FBEF" transform="translate(53,89)"/>
<path d="M0 0 C0.6875 1.8125 0.6875 1.8125 1 4 C-0.125 5.75 -0.125 5.75 -2 7 C-4.6875 7.1875 -4.6875 7.1875 -7 7 C-6.01 8.32 -5.02 9.64 -4 11 C-4.99 11.495 -4.99 11.495 -6 12 C-6 11.34 -6 10.68 -6 10 C-7.65 9.67 -9.3 9.34 -11 9 C-10.67 6.69 -10.34 4.38 -10 2 C-9.67 2.99 -9.34 3.98 -9 5 C-8.01 5 -7.02 5 -6 5 C-6 3.68 -6 2.36 -6 1 C-4 0 -4 0 0 0 Z " fill="#AAC3D7" transform="translate(34,86)"/>
<path d="M0 0 C1.625 1.6875 1.625 1.6875 3 4 C2.1875 6.5625 2.1875 6.5625 1 9 C1 9.99 1 10.98 1 12 C-0.32 12 -1.64 12 -3 12 C-3.99 12.33 -4.98 12.66 -6 13 C-9.1875 12.0625 -9.1875 12.0625 -12 11 C-4.5 6 -4.5 6 -2 6 C-1.34 4.02 -0.68 2.04 0 0 Z " fill="#4A975B" transform="translate(54,100)"/>
<path d="M0 0 C3.38749978 1.45178562 5.45161209 3.36940603 8 6 C8.99 6.66 9.98 7.32 11 8 C10.34 8 9.68 8 9 8 C9.33 8.680625 9.66 9.36125 10 10.0625 C11.20546603 13.60355647 11.3382573 16.27916967 11 20 C9.48046875 22.21484375 9.48046875 22.21484375 8 24 C8.09539063 23.30132812 8.19078125 22.60265625 8.2890625 21.8828125 C8.39992188 20.97273438 8.51078125 20.06265625 8.625 19.125 C8.74101563 18.22007813 8.85703125 17.31515625 8.9765625 16.3828125 C8.98429687 15.59648438 8.99203125 14.81015625 9 14 C8.34 13.34 7.68 12.68 7 12 C5 10 5 10 4.5625 7.9375 C4.2840625 6.9784375 4.2840625 6.9784375 4 6 C3.01 5.67 2.02 5.34 1 5 C0.67 3.35 0.34 1.7 0 0 Z " fill="#CFEEC2" transform="translate(45,78)"/>
<path d="M0 0 C7.59 0 15.18 0 23 0 C23 0.99 23 1.98 23 3 C16.07 2.34 9.14 1.68 2 1 C2 2.65 2 4.3 2 6 C-2.95 6 -7.9 6 -13 6 C-12.67 5.01 -12.34 4.02 -12 3 C-11.01 3 -10.02 3 -9 3 C-9 3.66 -9 4.32 -9 5 C-6.36 4.67 -3.72 4.34 -1 4 C-0.67 2.68 -0.34 1.36 0 0 Z " fill="#DCFAFD" transform="translate(153,79)"/>
<path d="M0 0 C0.721875 0.61875 1.44375 1.2375 2.1875 1.875 C4.83698446 4.09322387 4.83698446 4.09322387 7.75 5 C8.86375 5.495 8.86375 5.495 10 6 C10.8125 8.125 10.8125 8.125 11 10 C6.05382728 10.35329805 3.35496897 9.22587303 -1 7 C-1.99 7.33 -2.98 7.66 -4 8 C-3.67 7.01 -3.34 6.02 -3 5 C-2.34 4.67 -1.68 4.34 -1 4 C-0.34786708 1.97536745 -0.34786708 1.97536745 0 0 Z " fill="#358C55" transform="translate(25,104)"/>
<path d="M0 0 C9.24 0 18.48 0 28 0 C27 2 27 2 24.25 3.1875 C20.85756247 4.03560938 19.30360424 3.93178581 16 3 C14.6078125 2.7215625 14.6078125 2.7215625 13.1875 2.4375 C12.465625 2.293125 11.74375 2.14875 11 2 C10.67 2.66 10.34 3.32 10 4 C10 3.01 10 2.02 10 1 C9.278125 1.185625 8.55625 1.37125 7.8125 1.5625 C4.87173027 2.01995307 2.85896942 1.73516357 0 1 C0 0.67 0 0.34 0 0 Z " fill="#E8F0F6" transform="translate(90,108)"/>
<path d="M0 0 C0.66 0 1.32 0 2 0 C2 4.62 2 9.24 2 14 C-0.31 14 -2.62 14 -5 14 C-5 11.36 -5 8.72 -5 6 C-8.63 6 -12.26 6 -16 6 C-16 5.67 -16 5.34 -16 5 C-12.04 5 -8.08 5 -4 5 C-4 7.64 -4 10.28 -4 13 C-3.34 12.67 -2.68 12.34 -2 12 C-2.33 10.68 -2.66 9.36 -3 8 C-2.34 7.67 -1.68 7.34 -1 7 C-0.59270772 4.67843403 -0.25561323 2.3431213 0 0 Z " fill="#5571A7" transform="translate(130,87)"/>
<path d="M0 0 C1.65 0.33 3.3 0.66 5 1 C5.84098656 5.01804691 6.05404945 8.01803543 5 12 C5.66 11.67 6.32 11.34 7 11 C6.05358987 14.26941682 5.58815053 15.66822278 2.5625 17.375 C0 18 0 18 -3 17 C-2.195625 16.360625 -1.39125 15.72125 -0.5625 15.0625 C2.75412763 11.09872551 2.87952582 8.02705917 3 3 C2.01 2.67 1.02 2.34 0 2 C0 1.34 0 0.68 0 0 Z " fill="#D2DFEF" transform="translate(176,82)"/>
<path d="M0 0 C6 0 12 0 18 0 C18 0.99 18 1.98 18 3 C10.41 3 2.82 3 -5 3 C-5 2.34 -5 1.68 -5 1 C-2.525 1.495 -2.525 1.495 0 2 C0 1.34 0 0.68 0 0 Z " fill="#92A7BA" transform="translate(114,105)"/>
<path d="M0 0 C2.9375 0.75 2.9375 0.75 6 2 C6.75 3.875 6.75 3.875 7 6 C7.350625 6.680625 7.70125 7.36125 8.0625 8.0625 C9 10 9 10 9 13 C8.34 13 7.68 13 7 13 C7 12.34 7 11.68 7 11 C5.68 11 4.36 11 3 11 C2.30034557 9.73581754 1.61565237 8.46334598 0.9375 7.1875 C0.55464844 6.47980469 0.17179687 5.77210937 -0.22265625 5.04296875 C-1 3 -1 3 0 0 Z " fill="#F6F8F4" transform="translate(24,95)"/>
<path d="M0 0 C1.88332031 -0.03867188 1.88332031 -0.03867188 3.8046875 -0.078125 C7.125 0.25 7.125 0.25 9.0703125 1.765625 C9.41835937 2.25546875 9.76640625 2.7453125 10.125 3.25 C9.465 3.91 8.805 4.57 8.125 5.25 C8.125 6.24 8.125 7.23 8.125 8.25 C9.115 8.58 10.105 8.91 11.125 9.25 C9.475 9.25 7.825 9.25 6.125 9.25 C6.125 6.61 6.125 3.97 6.125 1.25 C0.185 1.745 0.185 1.745 -5.875 2.25 C-6.205 4.56 -6.535 6.87 -6.875 9.25 C-8.525 9.25 -10.175 9.25 -11.875 9.25 C-11.875 7.27 -11.875 5.29 -11.875 3.25 C-11.545 4.24 -11.215 5.23 -10.875 6.25 C-9.885 6.25 -8.895 6.25 -7.875 6.25 C-7.895625 5.445625 -7.91625 4.64125 -7.9375 3.8125 C-7.81340106 -1.2755566 -4.34338629 0.05329308 0 0 Z " fill="#224B8C" transform="translate(119.875,90.75)"/>
<path d="M0 0 C0.66 0 1.32 0 2 0 C2.33 1.65 2.66 3.3 3 5 C3.99 5 4.98 5 6 5 C6 6.32 6 7.64 6 9 C10.29 9 14.58 9 19 9 C19 9.33 19 9.66 19 10 C14.71 10 10.42 10 6 10 C5.67 10.99 5.34 11.98 5 13 C4.01 13 3.02 13 2 13 C0.24252386 8.49646738 -0.19294408 4.82360189 0 0 Z " fill="#3B72B4" transform="translate(77,81)"/>
<path d="M0 0 C3.49815712 2.99842038 5.11659563 6.03480216 6.875 10.1953125 C8.26188141 12.42010143 9.60430421 13.03173962 12 14 C5.92671312 14.50610724 2.22771463 13.04157942 -3 10 C-1.68 9.67 -0.36 9.34 1 9 C1 9.66 1 10.32 1 11 C1.66 11 2.32 11 3 11 C1.09115308 6.45829004 1.09115308 6.45829004 -1 2 C-0.67 1.34 -0.34 0.68 0 0 Z " fill="#CFEEE0" transform="translate(30,97)"/>
<path d="M0 0 C0.99 0 1.98 0 3 0 C3.33 2.31 3.66 4.62 4 7 C3.360625 7.103125 2.72125 7.20625 2.0625 7.3125 C1.381875 7.539375 0.70125 7.76625 0 8 C-0.33 8.99 -0.66 9.98 -1 11 C-1 10.34 -1 9.68 -1 9 C-2.65 9 -4.3 9 -6 9 C-2.25 2.25 -2.25 2.25 0 0 Z " fill="#EDF7FA" transform="translate(49,89)"/>
<path d="M0 0 C-2 2 -2 2 -4.8203125 2.1953125 C-5.91085938 2.17210938 -7.00140625 2.14890625 -8.125 2.125 C-9.22070312 2.10695313 -10.31640625 2.08890625 -11.4453125 2.0703125 C-12.28835937 2.04710938 -13.13140625 2.02390625 -14 2 C-14 2.66 -14 3.32 -14 4 C-15.32 4 -16.64 4 -18 4 C-18 4.99 -18 5.98 -18 7 C-19.98 7 -21.96 7 -24 7 C-24 6.67 -24 6.34 -24 6 C-22.35 6 -20.7 6 -19 6 C-19 4.02 -19 2.04 -19 0 C-16.58373582 -0.19534474 -14.16734771 -0.38153404 -11.75 -0.5625 C-10.72712891 -0.64661133 -10.72712891 -0.64661133 -9.68359375 -0.73242188 C-6.2579419 -0.98186254 -3.27298823 -1.13879745 0 0 Z " fill="#D0E0F5" transform="translate(102,95)"/>
<path d="M0 0 C3.96 0.99 3.96 0.99 8 2 C4.04535398 11.52710177 4.04535398 11.52710177 0.375 13.1875 C-0.40875 13.455625 -1.1925 13.72375 -2 14 C-1.77183594 13.40832031 -1.54367188 12.81664063 -1.30859375 12.20703125 C0.9576998 6.21347039 0.9576998 6.21347039 0 0 Z " fill="#599D5D" transform="translate(20,76)"/>
<path d="M0 0 C2.31 0 4.62 0 7 0 C7.33 1.32 7.66 2.64 8 4 C-4.375 4.495 -4.375 4.495 -17 5 C-17 4.34 -17 3.68 -17 3 C-8.585 2.01 -8.585 2.01 0 1 C0 0.67 0 0.34 0 0 Z " fill="#F4FCEE" transform="translate(144,98)"/>
<path d="M0 0 C0.70125 0.00515625 1.4025 0.0103125 2.125 0.015625 C2.82625 0.01046875 3.5275 0.0053125 4.25 0 C6.125 0.265625 6.125 0.265625 8.125 2.265625 C8.875 5.703125 8.875 5.703125 9.125 9.265625 C8.135 10.750625 8.135 10.750625 7.125 12.265625 C6.39419734 10.28815897 5.73078253 8.28490011 5.125 6.265625 C5.455 5.605625 5.785 4.945625 6.125 4.265625 C5.58875 4.4925 5.0525 4.719375 4.5 4.953125 C1.06418099 5.40520645 -0.93266694 3.93740515 -3.875 2.265625 C-1.875 0.265625 -1.875 0.265625 0 0 Z " fill="#DEF3D1" transform="translate(49.875,72.734375)"/>
<path d="M0 0 C2 2 2 2 2 6 C3.32 6 4.64 6 6 6 C6 8.31 6 10.62 6 13 C4.02 13 2.04 13 0 13 C0 8.71 0 4.42 0 0 Z " fill="#374E86" transform="translate(77,88)"/>
<path d="M0 0 C2 2 2 2 2 6 C2.66 6 3.32 6 4 6 C4 7.65 4 9.3 4 11 C3.01 11 2.02 11 1 11 C0.67 11.99 0.34 12.98 0 14 C1.65 14 3.3 14 5 14 C5 11.69 5 9.38 5 7 C5.33 7 5.66 7 6 7 C6 9.64 6 12.28 6 15 C3.69 15 1.38 15 -1 15 C-1.02715383 13.25008666 -1.04646551 11.50005055 -1.0625 9.75 C-1.07410156 8.77546875 -1.08570312 7.8009375 -1.09765625 6.796875 C-1.01195577 4.34241322 -0.70706066 2.33831086 0 0 Z " fill="#4E6CA5" transform="translate(108,86)"/>
<path d="M0 0 C0.87785156 0.37382813 1.75570313 0.74765625 2.66015625 1.1328125 C5.34140961 2.26217695 7.96085386 3.3372117 10.72265625 4.2578125 C11.05265625 7.2278125 11.38265625 10.1978125 11.72265625 13.2578125 C10.73265625 13.7528125 10.73265625 13.7528125 9.72265625 14.2578125 C9.72265625 11.2878125 9.72265625 8.3178125 9.72265625 5.2578125 C8.36140625 5.5671875 8.36140625 5.5671875 6.97265625 5.8828125 C3.61237728 6.270537 2.4818981 6.06193217 -0.27734375 4.2578125 C-0.27734375 3.5978125 -0.27734375 2.9378125 -0.27734375 2.2578125 C-1.59734375 1.5978125 -2.91734375 0.9378125 -4.27734375 0.2578125 C-2.27734375 -0.7421875 -2.27734375 -0.7421875 0 0 Z " fill="#D1F8E5" transform="translate(26.27734375,110.7421875)"/>
<path d="M0 0 C1.27230469 0.00902344 2.54460937 0.01804687 3.85546875 0.02734375 C5.31919922 0.04474609 5.31919922 0.04474609 6.8125 0.0625 C6.8125 1.0525 6.8125 2.0425 6.8125 3.0625 C1.2025 3.0625 -4.4075 3.0625 -10.1875 3.0625 C-10.1875 2.4025 -10.1875 1.7425 -10.1875 1.0625 C-6.62704823 -0.12431726 -3.74941663 -0.03439832 0 0 Z " fill="#89A3BA" transform="translate(98.1875,104.9375)"/>
<path d="M0 0 C1.8125 0.125 1.8125 0.125 4 1 C6.66280693 5.08931064 7.34568576 8.16039934 7 13 C6.34 13 5.68 13 5 13 C4.15615325 11.58957044 3.32530504 10.17135868 2.5 8.75 C2.0359375 7.96109375 1.571875 7.1721875 1.09375 6.359375 C0 4 0 4 0 0 Z " fill="#2B8952" transform="translate(18,96)"/>
<path d="M0 0 C0.33 0 0.66 0 1 0 C1 2.97 1 5.94 1 9 C1.99 9 2.98 9 4 9 C4.625 10.875 4.625 10.875 5 13 C4.34 13.66 3.68 14.32 3 15 C3 13.68 3 12.36 3 11 C2.34 11 1.68 11 1 11 C1 11.99 1 12.98 1 14 C0.01 14 -0.98 14 -2 14 C-2.1799928 8.78020872 -1.97094808 4.92737019 0 0 Z " fill="#B2E1F0" transform="translate(38,87)"/>
<path d="M0 0 C0.75 1.6875 0.75 1.6875 1 4 C-0.78517826 6.64698845 -2.12021246 8.56010623 -5 10 C-7.88370333 10.07194869 -10.74239664 10.09291708 -13.625 10.0625 C-14.42679688 10.05798828 -15.22859375 10.05347656 -16.0546875 10.04882812 C-18.03649006 10.03703168 -20.01825433 10.01909605 -22 10 C-21.67 8.68 -21.34 7.36 -21 6 C-21 6.99 -21 7.98 -21 9 C-16.38 9 -11.76 9 -7 9 C-7 8.01 -7 7.02 -7 6 C-5.35 6 -3.7 6 -2 6 C-1.34 4.02 -0.68 2.04 0 0 Z " fill="#263A74" transform="translate(178,90)"/>
<path d="M0 0 C0.33 0.66 0.66 1.32 1 2 C0.34 2 -0.32 2 -1 2 C-0.67 2.99 -0.34 3.98 0 5 C-0.99 5.33 -1.98 5.66 -3 6 C-5.31960461 9.05211133 -5.34332246 12.28233382 -5.2734375 16.03515625 C-4.88804492 18.80447724 -3.5464672 20.71391805 -2 23 C-2.33 23.66 -2.66 24.32 -3 25 C-5.84651077 22.40101191 -6.8385607 20.44834112 -7.2734375 16.546875 C-7.52612171 9.58834057 -6.72557071 6.17562506 -2 1 C-1.34 0.67 -0.68 0.34 0 0 Z " fill="#CEF3CA" transform="translate(29,80)"/>
<path d="M0 0 C1.423125 0.2784375 1.423125 0.2784375 2.875 0.5625 C5.89868793 1.28686632 5.89868793 1.28686632 8 0 C7.67 1.65 7.34 3.3 7 5 C6.01 4.67 5.02 4.34 4 4 C4.33 5.32 4.66 6.64 5 8 C3.35 7.67 1.7 7.34 0 7 C0 4.69 0 2.38 0 0 Z " fill="#E8F8E3" transform="translate(40,66)"/>
<path d="M0 0 C5.28 0 10.56 0 16 0 C16 1.98 16 3.96 16 6 C16.66 6.33 17.32 6.66 18 7 C16.35 7 14.7 7 13 7 C12.67 5.68 12.34 4.36 12 3 C6.06 2.01 6.06 2.01 0 1 C0 0.67 0 0.34 0 0 Z " fill="#D6E2F4" transform="translate(139,95)"/>
<path d="M0 0 C6.6 0 13.2 0 20 0 C20 0.66 20 1.32 20 2 C20.66 2.33 21.32 2.66 22 3 C18.04 3 14.08 3 10 3 C10 2.67 10 2.34 10 2 C6.7 1.67 3.4 1.34 0 1 C0 0.67 0 0.34 0 0 Z " fill="#44A4D1" transform="translate(77,80)"/>
<path d="M0 0 C0.99 0 1.98 0 3 0 C3.33 1.65 3.66 3.3 4 5 C5.093125 4.979375 6.18625 4.95875 7.3125 4.9375 C11 5 11 5 14 6 C13.67 7.32 13.34 8.64 13 10 C12.67 9.34 12.34 8.68 12 8 C9.64400765 7.53248212 9.64400765 7.53248212 6.9375 7.375 C6.01839844 7.30023438 5.09929688 7.22546875 4.15234375 7.1484375 C3.44207031 7.09945312 2.73179688 7.05046875 2 7 C1.34 4.69 0.68 2.38 0 0 Z " fill="#EEFCED" transform="translate(58,85)"/>
<path d="M0 0 C2.375 0.3125 2.375 0.3125 5 1 C7.29013653 4.4352048 7.17842973 5.985331 7 10 C6.38125 9.360625 5.7625 8.72125 5.125 8.0625 C3.17402388 5.96116416 3.17402388 5.96116416 1 5 C1 6.32 1 7.64 1 9 C0.34 8.67 -0.32 8.34 -1 8 C-1.125 2.25 -1.125 2.25 0 0 Z " fill="#4B93C4" transform="translate(97,81)"/>
<path d="M0 0 C4.95 0 9.9 0 15 0 C13 3 13 3 10 4 C8.32577014 3.70700977 6.65821773 3.37309899 5 3 C4.01 3 3.02 3 2 3 C1.34 2.01 0.68 1.02 0 0 Z " fill="#E9F5F4" transform="translate(164,108)"/>
<path d="M0 0 C8.25 0 16.5 0 25 0 C25 0.33 25 0.66 25 1 C18.61773055 1.82351864 12.43255401 2.12086218 6 2 C5.67 2.66 5.34 3.32 5 4 C3.31503702 3.03114628 1.64821244 2.03013277 0 1 C0 0.67 0 0.34 0 0 Z " fill="#E4F0EF" transform="translate(125,108)"/>
<path d="M0 0 C0 0.66 0 1.32 0 2 C-0.66 2 -1.32 2 -2 2 C-2 2.66 -2 3.32 -2 4 C-3.65 4.33 -5.3 4.66 -7 5 C-6.7525 5.7425 -6.505 6.485 -6.25 7.25 C-6.1675 8.1575 -6.085 9.065 -6 10 C-7.9375 12.3125 -7.9375 12.3125 -10 14 C-9.62879594 10.2303588 -9.14230736 6.61908592 -8 3 C-5.14296575 0.91674586 -3.52307545 0 0 0 Z " fill="#CBF0DA" transform="translate(48,113)"/>
<path d="M0 0 C2.45823172 3.68734758 3.01242616 6.69699971 4 11 C3.34 11 2.68 11 2 11 C1.67 11.66 1.34 12.32 1 13 C0.67 12.01 0.34 11.02 0 10 C-0.33 10.99 -0.66 11.98 -1 13 C-1.66 13 -2.32 13 -3 13 C-2.343621 8.51474352 -1.29925791 4.33085971 0 0 Z " fill="#3C6793" transform="translate(38,79)"/>
<path d="M0 0 C2.875 -0.125 2.875 -0.125 6 0 C6.66 0.66 7.32 1.32 8 2 C6.3125 3.5625 6.3125 3.5625 4 5 C1.25 4.6875 1.25 4.6875 -1 4 C-0.67 4.66 -0.34 5.32 0 6 C-1.32 5.67 -2.64 5.34 -4 5 C-3.34 3.68 -2.68 2.36 -2 1 C-1.34 1.33 -0.68 1.66 0 2 C0 1.34 0 0.68 0 0 Z " fill="#E1F4DE" transform="translate(22,73)"/>
<path d="M0 0 C0 0.99 0 1.98 0 3 C-5.28 3 -10.56 3 -16 3 C-15.67 2.34 -15.34 1.68 -15 1 C-12.63671875 0.5859375 -12.63671875 0.5859375 -9.6875 0.375 C-8.72199219 0.30023438 -7.75648438 0.22546875 -6.76171875 0.1484375 C-4.51051884 0.02743948 -2.25444928 0 0 0 Z " fill="#7B94A6" transform="translate(179,105)"/>
<path d="M0 0 C2.475 0.99 2.475 0.99 5 2 C5 3.65 5 5.3 5 7 C2 8 2 8 -1 7 C-0.67 4.69 -0.34 2.38 0 0 Z " fill="#2F6EB2" transform="translate(98,86)"/>
<path d="M0 0 C0.33 0 0.66 0 1 0 C1 4.95 1 9.9 1 15 C0.34 14.01 -0.32 13.02 -1 12 C-1 12.66 -1 13.32 -1 14 C-2.32 13.34 -3.64 12.68 -5 12 C-4.34 12 -3.68 12 -3 12 C-3 9.03 -3 6.06 -3 3 C-2.34 3 -1.68 3 -1 3 C-0.67 2.01 -0.34 1.02 0 0 Z " fill="#DDF5FA" transform="translate(106,81)"/>
<path d="M0 0 C1.625 1.625 1.625 1.625 3 4 C2.1875 7.25 2.1875 7.25 1 10 C0.67 9.01 0.34 8.02 0 7 C-0.99 7 -1.98 7 -3 7 C-2.625 4.0625 -2.625 4.0625 -2 1 C-1.34 0.67 -0.68 0.34 0 0 Z " fill="#4A9ACB" transform="translate(42,89)"/>
<path d="M0 0 C0.66 1.32 1.32 2.64 2 4 C2.99 4 3.98 4 5 4 C5 6.97 5 9.94 5 13 C2.49844727 11.74922363 2.07787452 10.64972695 0.8125 8.1875 C0.26529297 7.15689453 0.26529297 7.15689453 -0.29296875 6.10546875 C-1.12087895 3.64003451 -0.85276722 2.41707906 0 0 Z " fill="#4A658A" transform="translate(34,97)"/>
<path d="M0 0 C2 2 2 2 2.125 5.625 C2.08375 6.73875 2.0425 7.8525 2 9 C2.66 9 3.32 9 4 9 C3.67 9.66 3.34 10.32 3 11 C0.69 10.67 -1.62 10.34 -4 10 C-3.01 9.67 -2.02 9.34 -1 9 C-1.020625 7.88625 -1.04125 6.7725 -1.0625 5.625 C-1 2 -1 2 0 0 Z " fill="#72A463" transform="translate(38,64)"/>
<path d="M0 0 C0.33 0.66 0.66 1.32 1 2 C-2.49087093 6.0042343 -4.64951939 7.62671065 -10 8 C-10 7.01 -10 6.02 -10 5 C-8.02 4.67 -6.04 4.34 -4 4 C-4 3.34 -4 2.68 -4 2 C-2.68 1.34 -1.36 0.68 0 0 Z " fill="#D9F6DB" transform="translate(52,102)"/>
<path d="M0 0 C0.66 0.33 1.32 0.66 2 1 C0.9375 3.5 0.9375 3.5 -1 6 C-4.6875 6.3125 -4.6875 6.3125 -8 6 C-8 5.01 -8 4.02 -8 3 C-6.865625 2.87625 -5.73125 2.7525 -4.5625 2.625 C-3.386875 2.41875 -2.21125 2.2125 -1 2 C-0.67 1.34 -0.34 0.68 0 0 Z " fill="#2A5FA8" transform="translate(177,89)"/>
<path d="M0 0 C3.63 0 7.26 0 11 0 C10.01 0.495 10.01 0.495 9 1 C9 1.66 9 2.32 9 3 C6.03 3 3.06 3 0 3 C0 2.01 0 1.02 0 0 Z " fill="#98AEC3" transform="translate(133,105)"/>
<path d="M0 0 C2.97 0 5.94 0 9 0 C9 0.99 9 1.98 9 3 C5.7 3 2.4 3 -1 3 C-0.67 2.01 -0.34 1.02 0 0 Z " fill="#8FA8B2" transform="translate(77,105)"/>
<path d="M0 0 C4.29 0.33 8.58 0.66 13 1 C13 1.66 13 2.32 13 3 C6.565 3.495 6.565 3.495 0 4 C-0.33 3.34 -0.66 2.68 -1 2 C-0.67 1.34 -0.34 0.68 0 0 Z " fill="#2C60A6" transform="translate(83,91)"/>
<path d="M0 0 C0.33 0.66 0.66 1.32 1 2 C1.33 1.34 1.66 0.68 2 0 C2.99 0 3.98 0 5 0 C5 0.66 5 1.32 5 2 C5.99 2.33 6.98 2.66 8 3 C8 3.66 8 4.32 8 5 C5.36 5 2.72 5 0 5 C0 3.35 0 1.7 0 0 Z " fill="#F6FAF1" transform="translate(116,80)"/>
<path d="M0 0 C0.66 0 1.32 0 2 0 C2.54466387 4.084979 3 7.8725485 3 12 C2.01 11.67 1.02 11.34 0 11 C0 7.37 0 3.74 0 0 Z " fill="#E6F9F7" transform="translate(39,98)"/>
<path d="M0 0 C2.475 0.495 2.475 0.495 5 1 C5.74926071 4.66305234 6.2380014 7.42355152 5 11 C4.67 11 4.34 11 4 11 C3.67 8.36 3.34 5.72 3 3 C2.01 2.67 1.02 2.34 0 2 C0 1.34 0 0.68 0 0 Z " fill="#DEF3FA" transform="translate(176,82)"/>
<path d="M0 0 C0.99 0.33 1.98 0.66 3 1 C3.33 3.31 3.66 5.62 4 8 C2.02 8 0.04 8 -2 8 C-1.34 5.36 -0.68 2.72 0 0 Z " fill="#F3FCEE" transform="translate(42,100)"/>
<path d="M0 0 C1.23556641 0.01740234 1.23556641 0.01740234 2.49609375 0.03515625 C3.32238281 0.04417969 4.14867188 0.05320312 5 0.0625 C5.63808594 0.07410156 6.27617188 0.08570312 6.93359375 0.09765625 C6.93359375 1.08765625 6.93359375 2.07765625 6.93359375 3.09765625 C0.87890625 3.29296875 0.87890625 3.29296875 -1.06640625 3.09765625 C-1.72640625 2.43765625 -2.38640625 1.77765625 -3.06640625 1.09765625 C-2.06640625 0.09765625 -2.06640625 0.09765625 0 0 Z " fill="#EFFEFF" transform="translate(89.06640625,86.90234375)"/>
<path d="M0 0 C1.79133978 -0.05391993 3.58313899 -0.09275571 5.375 -0.125 C6.37273437 -0.14820312 7.37046875 -0.17140625 8.3984375 -0.1953125 C11 0 11 0 13 2 C6.565 2.495 6.565 2.495 0 3 C0 2.01 0 1.02 0 0 Z " fill="#278FD4" transform="translate(157,84)"/>
<path d="M0 0 C2.24634136 2.9208626 4.01192962 5.4070168 5 9 C4.125 11.3125 4.125 11.3125 3 13 C2.34 12.67 1.68 12.34 1 12 C0.5859375 9.27734375 0.5859375 9.27734375 0.375 5.9375 C0.30023437 4.83277344 0.22546875 3.72804688 0.1484375 2.58984375 C0.09945313 1.73519531 0.05046875 0.88054687 0 0 Z " fill="#C0EAD2" transform="translate(18,100)"/>
<path d="M0 0 C2.64 0 5.28 0 8 0 C7.67 1.98 7.34 3.96 7 6 C3.63279613 4.60667426 2.0140476 3.0210714 0 0 Z " fill="#376D9C" transform="translate(26,92)"/>
<path d="M0 0 C0.66 0 1.32 0 2 0 C2.33 1.65 2.66 3.3 3 5 C3.99 5 4.98 5 6 5 C6 5.66 6 6.32 6 7 C4.35 7.66 2.7 8.32 1 9 C-0.4783226 6.04335481 -0.06032783 3.25770263 0 0 Z " fill="#3880B2" transform="translate(77,81)"/>
<path d="M0 0 C0.99 0 1.98 0 3 0 C3 0.66 3 1.32 3 2 C5.31 2 7.62 2 10 2 C10 2.33 10 2.66 10 3 C8.865625 3.12375 7.73125 3.2475 6.5625 3.375 C4.7990625 3.684375 4.7990625 3.684375 3 4 C2.67 4.66 2.34 5.32 2 6 C2.66 6.33 3.32 6.66 4 7 C3.34 7 2.68 7 2 7 C1.67 7.99 1.34 8.98 1 10 C0.67 6.7 0.34 3.4 0 0 Z " fill="#E6F7F5" transform="translate(74,102)"/>
<path d="M0 0 C1.5 1.25 1.5 1.25 3 3 C3 4.32 3 5.64 3 7 C1.68 7.33 0.36 7.66 -1 8 C-1.33 5.69 -1.66 3.38 -2 1 C-1.34 0.67 -0.68 0.34 0 0 Z " fill="#96C07A" transform="translate(56,83)"/>
<path d="M0 0 C-0.99 0.66 -1.98 1.32 -3 2 C-3.72965366 4.56282742 -3.72965366 4.56282742 -4 7 C-4.33 7 -4.66 7 -5 7 C-5 5.35 -5 3.7 -5 2 C-6.32 2 -7.64 2 -9 2 C-9 2.66 -9 3.32 -9 4 C-9.99 3.67 -10.98 3.34 -12 3 C-8.2391768 -0.7608232 -5.0273023 -0.25136512 0 0 Z " fill="#C6E5C5" transform="translate(42,77)"/>
<path d="M0 0 C0.66 0 1.32 0 2 0 C2 2.31 2 4.62 2 7 C0.35 7.33 -1.3 7.66 -3 8 C-2.09456151 5.28368454 -1.07525194 2.65228812 0 0 Z " fill="#E4FBDB" transform="translate(35,66)"/>
<path d="M0 0 C-0.99 0.33 -1.98 0.66 -3 1 C-3 1.66 -3 2.32 -3 3 C-4.65 2.67 -6.3 2.34 -8 2 C-8 2.66 -8 3.32 -8 4 C-9.32 4 -10.64 4 -12 4 C-12 3.01 -12 2.02 -12 1 C-7.95858806 0.36605303 -4.0934693 -0.12404452 0 0 Z " fill="#BBD1DF" transform="translate(117,104)"/>
<path d="M0 0 C0.66 0 1.32 0 2 0 C2 0.66 2 1.32 2 2 C5.96 2 9.92 2 14 2 C14 2.66 14 3.32 14 4 C9.38 4 4.76 4 0 4 C0 2.68 0 1.36 0 0 Z " fill="#2E4194" transform="translate(157,95)"/>
<path d="M0 0 C1.32 0 2.64 0 4 0 C3.67 2.31 3.34 4.62 3 7 C2.34 7 1.68 7 1 7 C0.67 4.69 0.34 2.38 0 0 Z " fill="#328FC3" transform="translate(108,81)"/>
<path d="M0 0 C3.375 -0.125 3.375 -0.125 7 0 C7.66 0.66 8.32 1.32 9 2 C6.04335481 3.4783226 3.25770263 3.06032783 0 3 C0 2.01 0 1.02 0 0 Z " fill="#2E8746" transform="translate(39,111)"/>
<path d="M0 0 C0.33 0 0.66 0 1 0 C1.33 3.3 1.66 6.6 2 10 C0.68 10.33 -0.64 10.66 -2 11 C-1.40049704 7.31733897 -0.75241109 3.65456815 0 0 Z " fill="#2376B9" transform="translate(112,81)"/>
<path d="M0 0 C1.98 0 3.96 0 6 0 C6.33 0.99 6.66 1.98 7 3 C6.34 3.66 5.68 4.32 5 5 C4.01 5 3.02 5 2 5 C1.34 3.35 0.68 1.7 0 0 Z " fill="#F6FAEC" transform="translate(39,78)"/>
<path d="M0 0 C0.66 0.33 1.32 0.66 2 1 C1.67 1.66 1.34 2.32 1 3 C0.01 3.33 -0.98 3.66 -2 4 C-3.70855022 7.00007271 -3.70855022 7.00007271 -5 10 C-5.33 10 -5.66 10 -6 10 C-6 8.35 -6 6.7 -6 5 C-5.34 5 -4.68 5 -4 5 C-3.67 4.01 -3.34 3.02 -3 2 C-2.01 1.34 -1.02 0.68 0 0 Z " fill="#E8F6EA" transform="translate(52,110)"/>
<path d="M0 0 C0.99 1.32 1.98 2.64 3 4 C2.34 5.32 1.68 6.64 1 8 C0.01 7.67 -0.98 7.34 -2 7 C-1.125 2.25 -1.125 2.25 0 0 Z " fill="#51A060" transform="translate(54,100)"/>
<path d="M0 0 C0.99 0.99 1.98 1.98 3 3 C0.53846154 6.81538462 0.53846154 6.81538462 -2.1875 7.75 C-2.785625 7.8325 -3.38375 7.915 -4 8 C-3.67 7.01 -3.34 6.02 -3 5 C-2.34 4.67 -1.68 4.34 -1 4 C-0.34786708 1.97536745 -0.34786708 1.97536745 0 0 Z " fill="#499766" transform="translate(25,104)"/>
<path d="M0 0 C0.33 0.99 0.66 1.98 1 3 C1.99 3 2.98 3 4 3 C4.33 2.01 4.66 1.02 5 0 C5 1.98 5 3.96 5 6 C3.35 6 1.7 6 0 6 C0 4.02 0 2.04 0 0 Z " fill="#1F3374" transform="translate(108,94)"/>
<path d="M0 0 C0.66 0 1.32 0 2 0 C2 0.99 2 1.98 2 3 C-3.445 4.485 -3.445 4.485 -9 6 C-9 5.01 -9 4.02 -9 3 C-6.36 3 -3.72 3 -1 3 C-0.67 2.01 -0.34 1.02 0 0 Z " fill="#BAE6C9" transform="translate(16,89)"/>
<path d="M0 0 C2.05078125 0.03255208 4.1015625 0.06510417 6.15234375 0.09765625 C5.16234375 0.42765625 4.17234375 0.75765625 3.15234375 1.09765625 C3.15234375 1.75765625 3.15234375 2.41765625 3.15234375 3.09765625 C1.50234375 3.42765625 -0.14765625 3.75765625 -1.84765625 4.09765625 C-2.17765625 3.10765625 -2.50765625 2.11765625 -2.84765625 1.09765625 C-1.84765625 0.09765625 -1.84765625 0.09765625 0 0 Z " fill="#5FA449" transform="translate(33.84765625,73.90234375)"/>
<path d="M0 0 C2.17595597 4.19648651 3.97198576 8.37393594 5 13 C1.125 10.375 1.125 10.375 0 7 C-0.03954234 4.66700175 -0.04401732 2.33291811 0 0 Z " fill="#CCFBDB" transform="translate(22,92)"/>
<path d="M0 0 C3.96 0 7.92 0 12 0 C12 0.33 12 0.66 12 1 C9.69 1 7.38 1 5 1 C5 1.66 5 2.32 5 3 C3.68 3 2.36 3 1 3 C0.67 2.01 0.34 1.02 0 0 Z " fill="#3468A3" transform="translate(113,88)"/>
<path d="M0 0 C3.875 1.875 3.875 1.875 5 3 C5.04063832 4.66617115 5.042721 6.33388095 5 8 C4.67 7.34 4.34 6.68 4 6 C3.01 5.67 2.02 5.34 1 5 C0.67 3.35 0.34 1.7 0 0 Z " fill="#E3F2CC" transform="translate(45,78)"/>
<path d="M0 0 C1.61949011 2.57213134 2.04408751 3.67669159 1.625 6.75 C1.41875 7.4925 1.2125 8.235 1 9 C0.01 8.34 -0.98 7.68 -2 7 C-1.34 4.69 -0.68 2.38 0 0 Z " fill="#ECF6F5" transform="translate(18,104)"/>
<path d="M0 0 C0 0.66 0 1.32 0 2 C-2.64 2 -5.28 2 -8 2 C-8 1.34 -8 0.68 -8 0 C-4.71023192 -1.09658936 -3.28696233 -0.79953138 0 0 Z " fill="#7D98B0" transform="translate(150,106)"/>
<path d="M0 0 C2.79872437 2.52788007 4.45773019 4.20411134 5 8 C4.01 8 3.02 8 2 8 C0.93224776 6.03533587 -0.06553465 4.03144641 -1 2 C-0.67 1.34 -0.34 0.68 0 0 Z " fill="#D5EEF7" transform="translate(30,97)"/>
<path d="M0 0 C0.66 0 1.32 0 2 0 C2 0.66 2 1.32 2 2 C2.66 2 3.32 2 4 2 C4 2.99 4 3.98 4 5 C3.01 5.33 2.02 5.66 1 6 C-0.0625 4.125 -0.0625 4.125 -1 2 C-0.67 1.34 -0.34 0.68 0 0 Z " fill="#70AA52" transform="translate(52,79)"/>
<path d="M0 0 C2.97 0.495 2.97 0.495 6 1 C5.34 2.65 4.68 4.3 4 6 C3.67 5.01 3.34 4.02 3 3 C0.98491642 2.26676204 0.98491642 2.26676204 -1 2 C-0.67 1.34 -0.34 0.68 0 0 Z " fill="#E3F3FD" transform="translate(31,83)"/>
<path d="M0 0 C0.99 0 1.98 0 3 0 C3 0.99 3 1.98 3 3 C2.34 3 1.68 3 1 3 C1.33 4.32 1.66 5.64 2 7 C0.68 7 -0.64 7 -2 7 C-2 6.34 -2 5.68 -2 5 C-1.34 5 -0.68 5 0 5 C0 3.35 0 1.7 0 0 Z " fill="#3488B6" transform="translate(156,81)"/>
<path d="M0 0 C2.01822917 0.06510417 4.03645833 0.13020833 6.0546875 0.1953125 C6.0546875 1.1853125 6.0546875 2.1753125 6.0546875 3.1953125 C2.7546875 2.8653125 -0.5453125 2.5353125 -3.9453125 2.1953125 C-1.9453125 0.1953125 -1.9453125 0.1953125 0 0 Z " fill="#ECFAE6" transform="translate(49.9453125,72.8046875)"/>
<path d="M0 0 C0.99 0 1.98 0 3 0 C3.33 2.31 3.66 4.62 4 7 C3.01 6.67 2.02 6.34 1 6 C0.67 4.02 0.34 2.04 0 0 Z " fill="#DEF7D4" transform="translate(58,85)"/>
</svg>
