<?xml version="1.0" encoding="UTF-8"?>
<svg version="1.1" xmlns="http://www.w3.org/2000/svg" width="148" height="148">
<path d="M0 0 C48.84 0 97.68 0 148 0 C148 48.84 148 97.68 148 148 C99.16 148 50.32 148 0 148 C0 99.16 0 50.32 0 0 Z " fill="#0C1322" transform="translate(0,0)"/>
<path d="M0 0 C2.38671875 1.58203125 2.38671875 1.58203125 4.6875 3.8125 C5.9559375 5.03646484 5.9559375 5.03646484 7.25 6.28515625 C8.1575 7.18105469 9.065 8.07695313 10 9 C11.03908266 9.95983617 12.08080809 10.91681836 13.125 11.87109375 C14.14694767 12.82954239 15.1678047 13.78915541 16.1875 14.75 C17.12980469 15.63171875 18.07210937 16.5134375 19.04296875 17.421875 C21 20 21 20 20.80078125 22.828125 C20.53652344 23.54484375 20.27226563 24.2615625 20 25 C19.34 25 18.68 25 18 25 C18 25.66 18 26.32 18 27 C17.34 27 16.68 27 16 27 C15.690625 27.8353125 15.690625 27.8353125 15.375 28.6875 C13.83146505 31.28344514 11.93874807 32.78316311 9.5859375 34.63671875 C7.95255644 36.04078277 6.65947657 37.5099019 5.3125 39.1875 C3 42 3 42 0 44 C-4.07490752 44.33957563 -5.53001271 44.31332486 -9 42 C-9.7287786 37.7730841 -9.93477766 35.43792301 -7.5703125 31.80078125 C-4.65561061 28.41697497 -1.62737529 25.60817913 2 23 C0.49396865 19.32594549 -1.67364889 17.35468448 -4.625 14.75 C-9.64010474 9.87196404 -9.64010474 9.87196404 -9.75 5.5625 C-8.53336611 -0.21651096 -5.37871575 -0.62920826 0 0 Z " fill="#E92B58" transform="translate(61,80)"/>
<path d="M0 0 C5.18275771 1.19602101 8.27279701 4.43085575 11.25 8.75 C12.19036296 11.95063296 11.94043101 13.35538088 11.25 16.75 C9.25398216 19.11565078 7.90716429 19.59014923 4.9375 20.3125 C-0.08509772 19.26125862 -3.27991796 15.26602211 -6.75 11.6875 C-7.75 9.75 -7.75 9.75 -7.6875 7.25 C-6.13179544 3.10145451 -4.30470491 1.17401043 0 0 Z " fill="#F05F52" transform="translate(84.75,105.25)"/>
<path d="M0 0 C3.4375 0.8125 3.4375 0.8125 5.4375 2.8125 C6.19061491 7.83326604 6.19061491 7.83326604 5.4375 10.8125 C3.79891652 12.72696744 2.105293 14.1113487 0.06640625 15.5859375 C-1.70823046 16.73271149 -1.70823046 16.73271149 -2.5625 18.8125 C-5.25 19.1875 -5.25 19.1875 -8.5625 18.8125 C-11.4375 16.0625 -11.4375 16.0625 -13.5625 12.8125 C-13.5625 8.8125 -13.5625 8.8125 -12.13671875 7.21484375 C-11.51410156 6.73144531 -10.89148438 6.24804688 -10.25 5.75 C-7.50974927 3.58718966 -7.50974927 3.58718966 -5.0546875 1.1171875 C-3.5625 -0.1875 -3.5625 -0.1875 0 0 Z " fill="#E46353" transform="translate(90.5625,79.1875)"/>
<path d="M0 0 C2.96799242 1.53960948 5.14425571 3.1994103 7 6 C7.28867843 9.17030773 6.81040918 11.93542748 6 15 C5.34 15 4.68 15 4 15 C3.34 16.32 2.68 17.64 2 19 C-2.57390787 16.91543137 -6.0774269 14.11236379 -9 10 C-9.78889915 6.91662656 -9.54839724 5.23554374 -9 2 C-5.42529543 -0.38313638 -4.21446465 -0.64837918 0 0 Z " fill="#E71D57" transform="translate(61,80)"/>
<path d="M0 0 C0.66 0 1.32 0 2 0 C2.33 2.64 2.66 5.28 3 8 C4.32 8 5.64 8 7 8 C7.8125 9.625 7.8125 9.625 8 12 C5.57858445 15.36307715 3.4528574 17.69809507 0 20 C-4.07490752 20.33957563 -5.53001271 20.31332486 -9 18 C-9.73778054 13.72087286 -9.95025333 11.41548152 -7.5 7.765625 C-5.73714581 5.75303313 -3.92590852 3.85619237 -2 2 C-1.34 1.34 -0.68 0.68 0 0 Z " fill="#E71957" transform="translate(61,104)"/>
<path d="M0 0 C1.72089844 0.03480469 1.72089844 0.03480469 3.4765625 0.0703125 C5.18972656 0.09738281 5.18972656 0.09738281 6.9375 0.125 C7.98164062 0.14820312 9.02578125 0.17140625 10.1015625 0.1953125 C11.4215625 0.1953125 12.7415625 0.1953125 14.1015625 0.1953125 C15.0915625 0.1953125 16.0815625 0.1953125 17.1015625 0.1953125 C16.7715625 1.5153125 16.4415625 2.8353125 16.1015625 4.1953125 C15.4415625 4.1953125 14.7815625 4.1953125 14.1015625 4.1953125 C14.1015625 4.8553125 14.1015625 5.5153125 14.1015625 6.1953125 C14.7615625 6.1953125 15.4215625 6.1953125 16.1015625 6.1953125 C16.4315625 7.8453125 16.7615625 9.4953125 17.1015625 11.1953125 C16.5034375 11.0303125 15.9053125 10.8653125 15.2890625 10.6953125 C12.62613211 10.0866427 10.51666467 10.10306757 7.8515625 10.6953125 C4.47061057 11.31003103 1.5300771 11.51276756 -1.8984375 11.1953125 C-4.35584194 9.0549925 -4.82732351 7.79267 -5.2109375 4.5703125 C-4.72628016 0.88691671 -3.64127166 0.24536871 0 0 Z " fill="#96493E" transform="translate(97.8984375,28.8046875)"/>
<path d="M0 0 C0.99 0 1.98 0 3 0 C3 1.32 3 2.64 3 4 C4.98 4 6.96 4 9 4 C9 4.66 9 5.32 9 6 C9.99 5.34 10.98 4.68 12 4 C15.5625 3.6875 15.5625 3.6875 19 4 C21.1519437 7.22791555 21.20086443 8.28400809 21 12 C19.68 12.33 18.36 12.66 17 13 C17 11.35 17 9.7 17 8 C16.01 7.67 15.02 7.34 14 7 C14 8.98 14 10.96 14 13 C12.68 13 11.36 13 10 13 C9.67 13.66 9.34 14.32 9 15 C8.01 15 7.02 15 6 15 C6 12.36 6 9.72 6 7 C5.34 7 4.68 7 4 7 C4 9.31 4 11.62 4 14 C2.68 14.33 1.36 14.66 0 15 C0 10.05 0 5.1 0 0 Z " fill="#CD1853" transform="translate(42,25)"/>
<path d="M0 0 C4.29 0 8.58 0 13 0 C14.20272819 2.40545638 14.10071472 3.94996953 14.0625 6.625 C14.05347656 7.44226562 14.04445313 8.25953125 14.03515625 9.1015625 C14.02355469 9.72804688 14.01195313 10.35453125 14 11 C13.01 11 12.02 11 11 11 C11 8.36 11 5.72 11 3 C10.01 3 9.02 3 8 3 C8 5.64 8 8.28 8 11 C7.01 11 6.02 11 5 11 C5 8.36 5 5.72 5 3 C4.01 3 3.02 3 2 3 C2 5.64 2 8.28 2 11 C1.01 11 0.02 11 -1 11 C-1.0270043 9.54176788 -1.04639787 8.08339325 -1.0625 6.625 C-1.07410156 5.81289063 -1.08570312 5.00078125 -1.09765625 4.1640625 C-1 2 -1 2 0 0 Z " fill="#DD5B58" transform="translate(78,29)"/>
<path d="M0 0 C6.53286452 4.39968427 6.53286452 4.39968427 7.60546875 8.07421875 C7.73269505 11.3518105 7.44677722 13.47048626 5.3125 16 C2.6880612 17.13489245 0.83089822 17.23590819 -2 17 C-2.66 15.68 -3.32 14.36 -4 13 C-3.01 12.67 -2.02 12.34 -1 12 C-1 11.34 -1 10.68 -1 10 C-0.34 10 0.32 10 1 10 C0.42547254 6.06924356 0.42547254 6.06924356 -2 3 C-1.34 3 -0.68 3 0 3 C0 2.01 0 1.02 0 0 Z " fill="#E1674F" transform="translate(89,108)"/>
<path d="M0 0 C1.32 0 2.64 0 4 0 C4.33 0.99 4.66 1.98 5 3 C5.33 2.34 5.66 1.68 6 1 C7.32 1.33 8.64 1.66 10 2 C10.33 1.34 10.66 0.68 11 0 C11.99 0 12.98 0 14 0 C13.01 3.63 12.02 7.26 11 11 C10.01 11 9.02 11 8 11 C7.67 10.34 7.34 9.68 7 9 C5.68 9.33 4.36 9.66 3 10 C2.01 6.7 1.02 3.4 0 0 Z " fill="#C3394F" transform="translate(63,29)"/>
<path d="M0 0 C1.12588014 0.95729916 2.2506715 1.91587895 3.375 2.875 C4.00148438 3.40867187 4.62796875 3.94234375 5.2734375 4.4921875 C6.55836651 5.61432007 7.79371975 6.79371975 9 8 C8.625 10.625 8.625 10.625 8 13 C7.34 13 6.68 13 6 13 C6 13.66 6 14.32 6 15 C5.34 15 4.68 15 4 15 C3.67 15.99 3.34 16.98 3 18 C1.5 16.6875 1.5 16.6875 0 15 C0 14.01 0 13.02 0 12 C-0.185625 11.071875 -0.37125 10.14375 -0.5625 9.1875 C-1.02158363 5.84274786 -0.70346409 3.28283243 0 0 Z " fill="#D94854" transform="translate(73,92)"/>
<path d="M0 0 C0.9075 0.185625 1.815 0.37125 2.75 0.5625 C5.68314324 0.95734621 7.2644657 0.94691572 10 0 C9.67 1.32 9.34 2.64 9 4 C8.34 4 7.68 4 7 4 C7 4.66 7 5.32 7 6 C7.66 6 8.32 6 9 6 C9.33 7.65 9.66 9.3 10 11 C9.401875 10.835 8.80375 10.67 8.1875 10.5 C5.01557539 9.77498866 3.09916494 9.96694502 0 11 C0.185625 9.9275 0.37125 8.855 0.5625 7.75 C0.9304568 4.59608454 1.04465343 2.90181508 0 0 Z " fill="#BF6A4B" transform="translate(105,29)"/>
<path d="M0 0 C0.99 0.33 1.98 0.66 3 1 C2.319375 1.721875 1.63875 2.44375 0.9375 3.1875 C-1.30328553 5.79526736 -1.30328553 5.79526736 -0.75 8.625 C-0.5025 9.40875 -0.255 10.1925 0 11 C0 11.99 0 12.98 0 14 C-1.65 13.67 -3.3 13.34 -5 13 C-5 12.34 -5 11.68 -5 11 C-5.66 11 -6.32 11 -7 11 C-7.185625 12.2065625 -7.185625 12.2065625 -7.375 13.4375 C-7.58125 14.283125 -7.7875 15.12875 -8 16 C-8.66 16.33 -9.32 16.66 -10 17 C-10 16.34 -10 15.68 -10 15 C-10.66 14.34 -11.32 13.68 -12 13 C-11.278125 12.29875 -10.55625 11.5975 -9.8125 10.875 C-7.83067874 8.91006927 -6.05292847 6.86821544 -4.3125 4.6875 C-3.1678125 3.3571875 -3.1678125 3.3571875 -2 2 C-1.34 2 -0.68 2 0 2 C0 1.34 0 0.68 0 0 Z " fill="#181620" transform="translate(79,105)"/>
<path d="M0 0 C1.4540625 0.0309375 1.4540625 0.0309375 2.9375 0.0625 C3.2675 1.0525 3.5975 2.0425 3.9375 3.0625 C2.6175 3.0625 1.2975 3.0625 -0.0625 3.0625 C1.2575 3.7225 2.5775 4.3825 3.9375 5.0625 C3.0625 9.9375 3.0625 9.9375 1.9375 11.0625 C0.27132885 11.10313832 -1.39638095 11.105221 -3.0625 11.0625 C-4.10278969 7.68155851 -4.21922777 4.58887472 -4.0625 1.0625 C-3.0625 0.0625 -3.0625 0.0625 0 0 Z " fill="#E5175B" transform="translate(37.0625,28.9375)"/>
<path d="M0 0 C0 2.31 0 4.62 0 7 C-2.90600261 8.25664978 -4.79604584 9 -8 9 C-8.28875 8.38125 -8.5775 7.7625 -8.875 7.125 C-9.93720042 4.86674235 -9.93720042 4.86674235 -12 3 C-10.75823305 2.29773859 -9.50614401 1.61370891 -8.25 0.9375 C-7.20585938 0.36322266 -7.20585938 0.36322266 -6.140625 -0.22265625 C-3.63859372 -1.1312406 -2.4667645 -0.88336837 0 0 Z " fill="#F0754B" transform="translate(96,83)"/>
<path d="M0 0 C3.375 -0.1875 3.375 -0.1875 7 0 C9.1519437 3.22791555 9.20086443 4.28400809 9 8 C7.68 8.33 6.36 8.66 5 9 C5 7.35 5 5.7 5 4 C4.01 3.67 3.02 3.34 2 3 C2 4.98 2 6.96 2 9 C1.01 8.67 0.02 8.34 -1 8 C-1.8125 6.1875 -1.8125 6.1875 -2 4 C-1.0625 1.75 -1.0625 1.75 0 0 Z " fill="#DD1E57" transform="translate(54,29)"/>
<path d="M0 0 C0.66 0.99 1.32 1.98 2 3 C1.01 3.495 1.01 3.495 0 4 C-0.46751788 6.35599235 -0.46751788 6.35599235 -0.625 9.0625 C-0.69976562 9.98160156 -0.77453125 10.90070313 -0.8515625 11.84765625 C-0.90054688 12.55792969 -0.94953125 13.26820312 -1 14 C0.65 14 2.3 14 4 14 C4 14.66 4 15.32 4 16 C-1.625 16.25 -1.625 16.25 -5 14 C-5.87405159 7.44461305 -5.87405159 7.44461305 -3.875 4.140625 C-2.5 2.5 -2.5 2.5 0 0 Z " fill="#DF1958" transform="translate(57,108)"/>
<path d="M0 0 C0.33 0.66 0.66 1.32 1 2 C1.66 2.33 2.32 2.66 3 3 C1.02 3.99 1.02 3.99 -1 5 C1.97 5.495 1.97 5.495 5 6 C4.01 7.485 4.01 7.485 3 9 C3.31506627 12.14221967 3.31506627 12.14221967 4 15 C0.52399294 13.12107727 -2.12100467 11.5492134 -4 8 C-3.8517636 4.96115373 -3.42925609 3.49793707 -1.4375 1.1875 C-0.963125 0.795625 -0.48875 0.40375 0 0 Z " fill="#E55256" transform="translate(81,107)"/>
<path d="M0 0 C2.01822917 0.06510417 4.03645833 0.13020833 6.0546875 0.1953125 C6.0546875 2.1753125 6.0546875 4.1553125 6.0546875 6.1953125 C5.3946875 6.1953125 4.7346875 6.1953125 4.0546875 6.1953125 C3.7246875 5.5353125 3.3946875 4.8753125 3.0546875 4.1953125 C2.0646875 4.1953125 1.0746875 4.1953125 0.0546875 4.1953125 C-0.2753125 6.1753125 -0.6053125 8.1553125 -0.9453125 10.1953125 C-3.23304395 8.38419177 -3.89741072 7.58810707 -4.2578125 4.6328125 C-3.86963178 1.6050029 -3.16194055 0.31746391 0 0 Z " fill="#E36953" transform="translate(96.9453125,28.8046875)"/>
<path d="M0 0 C1.32 0.33 2.64 0.66 4 1 C2.6618467 5.0144599 0.23686108 6.35766442 -3 9 C-3.99 10.485 -3.99 10.485 -5 12 C-5.66 12 -6.32 12 -7 12 C-7.33 10.02 -7.66 8.04 -8 6 C-7.360625 5.87625 -6.72125 5.7525 -6.0625 5.625 C-5.381875 5.41875 -4.70125 5.2125 -4 5 C-3.67 4.34 -3.34 3.68 -3 3 C-2.01 3 -1.02 3 0 3 C0 2.01 0 1.02 0 0 Z " fill="#1A1220" transform="translate(60,100)"/>
<path d="M0 0 C1.98 0.66 3.96 1.32 6 2 C6 4.31 6 6.62 6 9 C6.66 9 7.32 9 8 9 C8 9.66 8 10.32 8 11 C7.01 11 6.02 11 5 11 C5 8.36 5 5.72 5 3 C4.01 3 3.02 3 2 3 C2 5.64 2 8.28 2 11 C1.01 11 0.02 11 -1 11 C-1.0270043 9.54176788 -1.04639787 8.08339325 -1.0625 6.625 C-1.07410156 5.81289063 -1.08570312 5.00078125 -1.09765625 4.1640625 C-1 2 -1 2 0 0 Z " fill="#D44A54" transform="translate(78,29)"/>
<path d="M0 0 C1.32 0 2.64 0 4 0 C4.33 0.99 4.66 1.98 5 3 C5.99 3 6.98 3 8 3 C8 4.32 8 5.64 8 7 C7.34 7 6.68 7 6 7 C6 7.99 6 8.98 6 10 C5.01 10 4.02 10 3 10 C2.01 6.7 1.02 3.4 0 0 Z " fill="#D62E55" transform="translate(63,29)"/>
<path d="M0 0 C2.5 1.6875 2.5 1.6875 5 4 C5.3125 6.75 5.3125 6.75 5 9 C3.68 9 2.36 9 1 9 C1 8.34 1 7.68 1 7 C0.34 7 -0.32 7 -1 7 C-1.625 5.1875 -1.625 5.1875 -2 3 C-1.34 2.01 -0.68 1.02 0 0 Z " fill="#E33856" transform="translate(68,87)"/>
<path d="M0 0 C0.33 0.99 0.66 1.98 1 3 C2.65 3 4.3 3 6 3 C6 2.34 6 1.68 6 1 C7.98 0.67 9.96 0.34 12 0 C12 0.66 12 1.32 12 2 C13.32 2.66 14.64 3.32 16 4 C14.3603125 4.2165625 14.3603125 4.2165625 12.6875 4.4375 C9.06877013 4.88288104 9.06877013 4.88288104 6 6 C6 5.34 6 4.68 6 4 C4.02 4 2.04 4 0 4 C0 2.68 0 1.36 0 0 Z " fill="#30152C" transform="translate(45,25)"/>
<path d="M0 0 C2.8203125 0.0234375 2.8203125 0.0234375 6.125 0.375 C7.22070312 0.48585938 8.31640625 0.59671875 9.4453125 0.7109375 C10.28835937 0.80632813 11.13140625 0.90171875 12 1 C12 1.99 12 2.98 12 4 C12.04125 5.010625 12.0825 6.02125 12.125 7.0625 C12 10 12 10 10 12 C9.67 8.7 9.34 5.4 9 2 C5.37 2 1.74 2 -2 2 C-1.34 1.34 -0.68 0.68 0 0 Z " fill="#372123" transform="translate(82,27)"/>
<path d="M0 0 C1.32 0.33 2.64 0.66 4 1 C3.67 2.65 3.34 4.3 3 6 C3.99 5.67 4.98 5.34 6 5 C6 5.66 6 6.32 6 7 C3.69 7.33 1.38 7.66 -1 8 C-1.33 7.34 -1.66 6.68 -2 6 C-1.34 6 -0.68 6 0 6 C0 4.02 0 2.04 0 0 Z " fill="#72183C" transform="translate(56,32)"/>
<path d="M0 0 C2 2 2 2 2 5 C2.99 5 3.98 5 5 5 C5.33 6.65 5.66 8.3 6 10 C4.35 10 2.7 10 1 10 C-0.04005702 6.61981469 -0.08004482 3.5219721 0 0 Z " fill="#B2194C" transform="translate(33,30)"/>
<path d="M0 0 C0.33 0 0.66 0 1 0 C1 2.31 1 4.62 1 7 C1.99 7.33 2.98 7.66 4 8 C4 9.32 4 10.64 4 12 C1.83125748 11.49396008 0.00032373 11.00016187 -2 10 C-2 9.01 -2 8.02 -2 7 C-1.34 7 -0.68 7 0 7 C0 4.69 0 2.38 0 0 Z " fill="#1E1325" transform="translate(51,115)"/>
<path d="M0 0 C1.875 0.1875 1.875 0.1875 4 1 C5.25 3.5625 5.25 3.5625 6 6 C4.35 6.33 2.7 6.66 1 7 C0.67 4.69 0.34 2.38 0 0 Z " fill="#E27654" transform="translate(105,29)"/>
<path d="M0 0 C1.98 0 3.96 0 6 0 C6 2.97 6 5.94 6 9 C5.34 9 4.68 9 4 9 C4 6.69 4 4.38 4 2 C2.35 2 0.7 2 -1 2 C-0.67 1.34 -0.34 0.68 0 0 Z " fill="#ED575A" transform="translate(80,29)"/>
<path d="M0 0 C0.66 0 1.32 0 2 0 C4.21538462 5.41538462 4.21538462 5.41538462 3.125 8.375 C2.75375 8.91125 2.3825 9.4475 2 10 C1.34 10 0.68 10 0 10 C0 6.7 0 3.4 0 0 Z " fill="#71382F" transform="translate(103,29)"/>
<path d="M0 0 C0.99 0.495 0.99 0.495 2 1 C1.67 2.65 1.34 4.3 1 6 C1.66 6 2.32 6 3 6 C3.33 5.01 3.66 4.02 4 3 C5.09658936 6.28976808 4.79953138 7.71303767 4 11 C2 10 2 10 0 8 C-0.36933645 5.24627091 -0.18336678 2.79634339 0 0 Z " fill="#D31C59" transform="translate(52,82)"/>
<path d="M0 0 C1.32 1.32 2.64 2.64 4 4 C3.01 4.33 2.02 4.66 1 5 C0.34 4.67 -0.32 4.34 -1 4 C-1 4.99 -1 5.98 -1 7 C-1.66 7 -2.32 7 -3 7 C-3.1875 4.625 -3.1875 4.625 -3 2 C-2.01 1.34 -1.02 0.68 0 0 Z " fill="#F3175B" transform="translate(56,81)"/>
<path d="M0 0 C0.66 0.33 1.32 0.66 2 1 C2 1.66 2 2.32 2 3 C2.66 3 3.32 3 4 3 C4 4.32 4 5.64 4 7 C2.35 6.67 0.7 6.34 -1 6 C-1.042721 4.33388095 -1.04063832 2.66617115 -1 1 C-0.67 0.67 -0.34 0.34 0 0 Z " fill="#ED5159" transform="translate(77,98)"/>
<path d="M0 0 C3.375 0.3125 3.375 0.3125 7 1 C7.66 1.99 8.32 2.98 9 4 C8.01 4.495 8.01 4.495 7 5 C7 4.34 7 3.68 7 3 C5.35 3.33 3.7 3.66 2 4 C2 3.34 2 2.68 2 2 C1.34 2 0.68 2 0 2 C0 1.34 0 0.68 0 0 Z " fill="#D06F50" transform="translate(87,79)"/>
<path d="M0 0 C2.72869407 0.03287583 5.2966618 0.56397771 8 1 C6.375 2.625 6.375 2.625 4 4 C0.75 3.1875 0.75 3.1875 -2 2 C-1.34 1.34 -0.68 0.68 0 0 Z " fill="#271C22" transform="translate(107,27)"/>
<path d="M0 0 C4.455 0.99 4.455 0.99 9 2 C9 2.66 9 3.32 9 4 C3.375 4.25 3.375 4.25 0 2 C0 1.34 0 0.68 0 0 Z " fill="#CB1552" transform="translate(52,120)"/>
<path d="M0 0 C1.98 0 3.96 0 6 0 C5.3125 1.9375 5.3125 1.9375 4 4 C1.375 4.75 1.375 4.75 -1 5 C-0.67 3.35 -0.34 1.7 0 0 Z " fill="#090F18" transform="translate(82,101)"/>
<path d="M0 0 C1.98 0 3.96 0 6 0 C6 0.99 6 1.98 6 3 C4 3 2 3 0 3 C0 2.01 0 1.02 0 0 Z " fill="#E25E54" transform="translate(82,106)"/>
<path d="M0 0 C0.66 0.33 1.32 0.66 2 1 C2 2.32 2 3.64 2 5 C1.34 5 0.68 5 0 5 C0 5.99 0 6.98 0 8 C-0.99 8 -1.98 8 -3 8 C-3 7.34 -3 6.68 -3 6 C-2.34 6 -1.68 6 -1 6 C-1.33 5.01 -1.66 4.02 -2 3 C-1.34 2.01 -0.68 1.02 0 0 Z " fill="#E53862" transform="translate(69,31)"/>
<path d="M0 0 C0.99 0.33 1.98 0.66 3 1 C2.625 3.4375 2.625 3.4375 2 6 C1.01 6.495 1.01 6.495 0 7 C0 6.34 0 5.68 0 5 C-0.66 4.34 -1.32 3.68 -2 3 C-1.34 2.01 -0.68 1.02 0 0 Z " fill="#201328" transform="translate(69,115)"/>
<path d="M0 0 C0.99 0 1.98 0 3 0 C2.34 2.97 1.68 5.94 1 9 C0.67 9 0.34 9 0 9 C-1.125 2.25 -1.125 2.25 0 0 Z " fill="#D34B56" transform="translate(74,29)"/>
<path d="M0 0 C0.33 0.66 0.66 1.32 1 2 C1.66 2.33 2.32 2.66 3 3 C2.21625 3.268125 1.4325 3.53625 0.625 3.8125 C-2.28114923 4.84814432 -2.28114923 4.84814432 -4 8 C-3.50168276 4.31245243 -2.89932357 2.39509338 0 0 Z " fill="#BE494E" transform="translate(81,107)"/>
</svg>
