<?xml version="1.0" encoding="UTF-8"?>
<svg version="1.1" xmlns="http://www.w3.org/2000/svg" width="190" height="148">
<path d="M0 0 C62.7 0 125.4 0 190 0 C190 48.84 190 97.68 190 148 C127.3 148 64.6 148 0 148 C0 99.16 0 50.32 0 0 Z " fill="#FCFCFC" transform="translate(0,0)"/>
<path d="M0 0 C0.495 1.485 0.495 1.485 1 3 C2.72895133 4.35180263 4.54262209 5.46396412 6.40625 6.62109375 C8.36444286 8.31531453 8.48465178 9.52020558 9 12 C10.32407669 12.68486725 11.65909241 13.34870203 13 14 C13.5775 14.7425 14.155 15.485 14.75 16.25 C17.28786421 19.35183403 20.033243 21.37587959 23.29296875 23.66796875 C25 25 25 25 26 27 C28.44013139 49.49568749 28.44013139 49.49568749 22.625 57.4375 C21.342457 58.50182541 20.0544479 59.5610173 18.72705078 60.56884766 C15.59464179 63.16457589 12.85722509 66.16993159 10.02685547 69.08618164 C7.63948684 71.54568693 5.24126965 73.99151045 2.81640625 76.4140625 C2.13006104 77.1045166 1.44371582 77.7949707 0.73657227 78.50634766 C-1 80 -1 80 -3 80 C-3 80.66 -3 81.32 -3 82 C-7.22315037 84.11157519 -12.6722921 83.36228143 -17.3125 83.4375 C-18.45396484 83.48326172 -19.59542969 83.52902344 -20.77148438 83.57617188 C-29.03364411 83.68723539 -29.03364411 83.68723539 -31.81982422 81.70581055 C-33.13671875 80.1015625 -33.13671875 80.1015625 -35 77 C-36.64639965 75.64172029 -38.31295807 74.30745749 -40 73 C-41.66666667 71.33333333 -43.33333333 69.66666667 -45 68 C-45.78375 67.401875 -46.5675 66.80375 -47.375 66.1875 C-51.01261393 63.15615506 -53.99334201 59.64788837 -57 56 C-57.50337891 55.40002197 -58.00675781 54.80004395 -58.52539062 54.18188477 C-62.93331209 47.65976653 -62.41417077 38.11552357 -61.18212891 30.66796875 C-57.25558064 18.48447822 -45.97680588 7.44938737 -35.1394043 1.01623535 C-24.62403852 -3.97865339 -11.07321376 -1.82422699 0 0 Z " fill="#E68536" transform="translate(112,0)"/>
<path d="M0 0 C1.44147844 16.92813142 1.44147844 16.92813142 -1.37109375 22.921875 C-3.22235746 24.95718247 -5.15151146 26.73963365 -7.27294922 28.48828125 C-9.47704588 30.41756687 -11.49294361 32.49400433 -13.53515625 34.59375 C-19.98983835 41.2216601 -19.98983835 41.2216601 -23.18359375 44.4140625 C-24.21311157 45.44974365 -24.21311157 45.44974365 -25.26342773 46.50634766 C-27 48 -27 48 -29 48 C-29 48.66 -29 49.32 -29 50 C-33.36712079 51.33439802 -33.36712079 51.33439802 -35.99609375 49.9453125 C-38.70773903 47.31295509 -39.56046627 44.73934191 -40.8125 41.1875 C-41.25207031 39.98480469 -41.69164063 38.78210938 -42.14453125 37.54296875 C-43.969757 29.98370048 -40.66382293 22.6043977 -37 16 C-34.88671687 13.9028488 -32.77807319 12.99879645 -30 12 C-29.29230469 11.69191406 -28.58460937 11.38382813 -27.85546875 11.06640625 C-24.02009418 9.4317607 -20.12853206 8.02727625 -16.1640625 6.7421875 C-15.49697266 6.52554443 -14.82988281 6.30890137 -14.14257812 6.08569336 C-12.20480348 5.4631387 -10.26263359 4.85431545 -8.3203125 4.24609375 C-5.97319447 3.36523416 -2.28896201 0 0 0 Z " fill="#2E85B9" transform="translate(138,32)"/>
<path d="M0 0 C5.97862694 12.59855989 5.97862694 12.59855989 4 19 C3.72414062 19.89976563 3.44828125 20.79953125 3.1640625 21.7265625 C0.21197299 30.67729791 0.21197299 30.67729791 -4 34 C-6.72014897 35.34983436 -9.52398461 36.39821654 -12.375 37.4375 C-13.16777344 37.7360791 -13.96054688 38.0346582 -14.77734375 38.34228516 C-20.94916649 40.65424203 -27.15355619 42.88006246 -33.375 45.0546875 C-35.93472233 45.91831404 -35.93472233 45.91831404 -38 47 C-39.91683222 40.08204996 -40.59369531 33.83315205 -38 27 C-34.49726129 21.45418858 -29.82069253 16.84719413 -25.1875 12.25 C-24.58868011 11.63965912 -23.98986023 11.02931824 -23.37289429 10.40048218 C-10.64070954 -2.40243333 -10.64070954 -2.40243333 0 0 Z " fill="#2D7FB5" transform="translate(90,0)"/>
<path d="M0 0 C7.26 0 14.52 0 22 0 C22.33 0.99 22.66 1.98 23 3 C24.72895133 4.35180263 26.54262209 5.46396412 28.40625 6.62109375 C30.36444286 8.31531453 30.48465178 9.52020558 31 12 C32.32407669 12.68486725 33.65909241 13.34870203 35 14 C35.5775 14.7425 36.155 15.485 36.75 16.25 C38.84159292 18.80639135 40.48745192 20.07496795 43.1875 21.875 C46.315361 24.14767803 46.931296 24.8102461 48.3125 28.625 C48 32 48 32 46.25 34.1875 C40.88942971 37.17704881 35.17859527 40.06486929 28.9375 39.9375 C27.968125 39.628125 26.99875 39.31875 26 39 C24.80890625 38.69835938 24.80890625 38.69835938 23.59375 38.390625 C18.45190117 37.02954737 14.9514857 35.70141583 11 32 C9.42260742 28.82373047 9.42260742 28.82373047 8.10546875 25.1171875 C7.86838699 24.46170929 7.63130524 23.80623108 7.38703918 23.13088989 C6.63906613 21.05053417 5.91349616 18.96311241 5.1875 16.875 C4.68170744 15.46435218 4.17455914 14.05418968 3.66601562 12.64453125 C0 2.38806749 0 2.38806749 0 0 Z " fill="#E78736" transform="translate(90,0)"/>
<path d="M0 0 C0 0.66 0 1.32 0 2 C0.969375 1.484375 1.93875 0.96875 2.9375 0.4375 C7.41525272 -1.52610468 11.30555147 -0.88353567 16 0 C16 1.32 16 2.64 16 4 C12.7 3.67 9.4 3.34 6 3 C6 4.65 6 6.3 6 8 C7.2375 7.938125 8.475 7.87625 9.75 7.8125 C12.46546097 7.83175859 13.96292885 7.98424476 16.5 9.0625 C18 11 18 11 18.5 14.5 C18 18 18 18 16.30859375 19.69921875 C13.51540307 21.273047 11.75212432 21.37001056 8.5625 21.3125 C7.63566406 21.30863281 6.70882812 21.30476563 5.75390625 21.30078125 C2.85938895 20.98464248 0.68264589 20.08311256 -2 19 C-3.67299959 19.65061095 -5.33859237 20.32033324 -7 21 C-11.27959267 21.5531969 -14.61603738 21.97309872 -18.25 19.41796875 C-20.61663934 16.14799163 -20.50062122 13.93938514 -20.4375 9.9375 C-20.43621094 8.70902344 -20.43492187 7.48054688 -20.43359375 6.21484375 C-20 3 -20 3 -18.59765625 1.12890625 C-13.39075789 -2.55029577 -5.55931783 -3.1502801 0 0 Z M-2 2 C-1.67 2.66 -1.34 3.32 -1 4 C-0.67 3.34 -0.34 2.68 0 2 C-0.66 2 -1.32 2 -2 2 Z " fill="#F5F5F5" transform="translate(162,117)"/>
<path d="M0 0 C1.91385532 2.87078299 2.96432952 5.33411656 4.125 8.5625 C4.47820312 9.53316406 4.83140625 10.50382812 5.1953125 11.50390625 C6 14 6 14 6 16 C8.77859156 17.46507555 11.50595301 18.55667013 14.5 19.5 C17.49404699 20.44332987 20.22140844 21.53492445 23 23 C23 23.66 23 24.32 23 25 C22.10796875 25.31453125 21.2159375 25.6290625 20.296875 25.953125 C19.12640625 26.38109375 17.9559375 26.8090625 16.75 27.25 C15.58984375 27.66765625 14.4296875 28.0853125 13.234375 28.515625 C8.60197476 30.64160579 6.64866599 32.53243798 4.5859375 37.19921875 C4.18632813 38.35035156 3.78671875 39.50148437 3.375 40.6875 C1.20619946 46.89690027 1.20619946 46.89690027 -1 48 C-1.39832031 46.77023438 -1.39832031 46.77023438 -1.8046875 45.515625 C-2.15789062 44.43796875 -2.51109375 43.3603125 -2.875 42.25 C-3.22304687 41.18265625 -3.57109375 40.1153125 -3.9296875 39.015625 C-5.39887562 34.34448898 -5.39887562 34.34448898 -8.59375 30.875 C-9.53734375 30.441875 -9.53734375 30.441875 -10.5 30 C-11.20125 29.67515625 -11.9025 29.3503125 -12.625 29.015625 C-16.71959618 27.26464637 -20.84454188 25.60087321 -25 24 C-20.95102743 21.30068495 -16.59574939 19.95613069 -12.03125 18.31640625 C-7.71076509 16.44011319 -6.53178608 15.22034146 -4.6484375 10.8984375 C-4.01808594 9.15433594 -4.01808594 9.15433594 -3.375 7.375 C-1.08333333 1.08333333 -1.08333333 1.08333333 0 0 Z " fill="#F9FBFA" transform="translate(95,16)"/>
<path d="M0 0 C0.66 -0.33 1.32 -0.66 2 -1 C8.12946036 -1.56754263 8.12946036 -1.56754263 11.2109375 0.44140625 C13.88541069 4.26625328 13.43463732 7.70508125 13.25 12.25 C13.23195312 13.09046875 13.21390625 13.9309375 13.1953125 14.796875 C13.14830798 16.86507395 13.07656724 18.93268441 13 21 C11.68 21 10.36 21 9 21 C8.67 15.06 8.34 9.12 8 3 C5.36 3.33 2.72 3.66 0 4 C-0.33 9.61 -0.66 15.22 -1 21 C-2.32 21 -3.64 21 -5 21 C-5.33 15.39 -5.66 9.78 -6 4 C-8.64 3.67 -11.28 3.34 -14 3 C-14 8.94 -14 14.88 -14 21 C-15.32 21 -16.64 21 -18 21 C-18 14.07 -18 7.14 -18 0 C-11.58283799 -1.2834324 -6.38690038 -1.31495008 0 0 Z " fill="#141414" transform="translate(124,117)"/>
<path d="M0 0 C1.74861792 -0.10853491 3.49919241 -0.18583428 5.25 -0.25 C6.22453125 -0.29640625 7.1990625 -0.3428125 8.203125 -0.390625 C11 0 11 0 13.34375 1.5 C15.6665514 5.00611531 15.43597194 8.20153388 15.25 12.25 C15.23195313 12.99507812 15.21390625 13.74015625 15.1953125 14.5078125 C15.14835649 16.33909701 15.07661652 18.16971649 15 20 C10.41907421 21.60429047 6.88777398 22.62208032 2 22 C-1 19.875 -1 19.875 -3 17 C-3 13.8125 -3 13.8125 -2 11 C1.31371 8.79086 2.3446021 8.77518447 6.1875 8.875 C7.08855469 8.89304687 7.98960938 8.91109375 8.91796875 8.9296875 C9.60503906 8.95289062 10.29210938 8.97609375 11 9 C10.34 7.35 9.68 5.7 9 4 C8.0925 4 7.185 4 6.25 4 C3.83333333 4 1.41666667 4 -1 4 C-0.67 2.68 -0.34 1.36 0 0 Z " fill="#101010" transform="translate(51,116)"/>
<path d="M0 0 C2.5 1.625 2.5 1.625 4 4 C4.44911305 7.14379134 4.68975612 9.04150773 2.796875 11.671875 C0.37105297 13.46487389 -1.20615207 13.30365641 -4.1875 13.1875 C-5.08855469 13.16042969 -5.98960937 13.13335937 -6.91796875 13.10546875 C-7.60503906 13.07066406 -8.29210937 13.03585938 -9 13 C-8.34 14.65 -7.68 16.3 -7 18 C-6.0925 18 -5.185 18 -4.25 18 C-1.83333333 18 0.58333333 18 3 18 C2 21 2 21 0 22 C-2.0234375 22.23828125 -2.0234375 22.23828125 -4.375 22.3125 C-5.53128906 22.36857422 -5.53128906 22.36857422 -6.7109375 22.42578125 C-9.98901463 21.81603653 -11.06624392 20.69422196 -13 18 C-13.49609375 14.65234375 -13.49609375 14.65234375 -13.4375 10.9375 C-13.43621094 9.70902344 -13.43492187 8.48054688 -13.43359375 7.21484375 C-13 4 -13 4 -11.59765625 2.12890625 C-7.95316938 -0.44629352 -4.33972151 -0.60893326 0 0 Z " fill="#0B0B0B" transform="translate(155,116)"/>
<path d="M0 0 C-0.33 0.99 -0.66 1.98 -1 3 C-5.29 2.67 -9.58 2.34 -14 2 C-14 3.98 -14 5.96 -14 8 C-12.205625 8.6496875 -12.205625 8.6496875 -10.375 9.3125 C-0.48092177 13.03815646 -0.48092177 13.03815646 1 16 C1.138692 19.12358499 0.8438582 21.98774667 0 25 C-2.69947924 27.90713149 -4.49397153 28.93122075 -8.48046875 29.11328125 C-13.22044238 28.79821653 -16.4136702 28.31363652 -20 25 C-20 24.34 -20 23.68 -20 23 C-18.25 22.375 -18.25 22.375 -16 22 C-15.401875 22.33 -14.80375 22.66 -14.1875 23 C-10.94008032 24.48453471 -8.41723669 23.7092378 -5 23 C-3.70366379 21.93354885 -3.70366379 21.93354885 -3.9375 19.4375 C-3.958125 18.633125 -3.97875 17.82875 -4 17 C-4.91523438 16.66226563 -5.83046875 16.32453125 -6.7734375 15.9765625 C-7.96195313 15.53054687 -9.15046875 15.08453125 -10.375 14.625 C-11.55835938 14.18414062 -12.74171875 13.74328125 -13.9609375 13.2890625 C-17 12 -17 12 -19 10 C-19.33946509 6.33377703 -19.49005781 3.88677128 -17.6875 0.625 C-12.83052247 -4.05208947 -5.65285966 -2.20599401 0 0 Z " fill="#0F0F0F" transform="translate(30,109)"/>
<path d="M0 0 C10.39718687 6.52846618 10.39718687 6.52846618 11.625 11.5625 C10.68048849 15.24609489 9.25996509 16.0184526 6 18 C-5.21894452 23.1150203 -5.21894452 23.1150203 -11 21 C-13.375 19.5 -13.375 19.5 -15 18 C-15 17.67 -15 17.34 -15 17 C-15.66 16.67 -16.32 16.34 -17 16 C-17 15.34 -17 14.68 -17 14 C-11.06 14 -5.12 14 1 14 C1 11.36 1 8.72 1 6 C0.01 5.67 -0.98 5.34 -2 5 C-2 4.01 -2 3.02 -2 2 C-1.34 2 -0.68 2 0 2 C0 1.34 0 0.68 0 0 Z M-4 5 C-2 6 -2 6 -2 6 Z " fill="#DD5A32" transform="translate(127,18)"/>
<path d="M0 0 C0 0.99 0 1.98 0 3 C-1.2065625 3.9590625 -1.2065625 3.9590625 -2.4375 4.9375 C-6.26030564 9.50621894 -5.89839491 14.20850961 -6 20 C-3.36 20 -0.72 20 2 20 C2 17.36 2 14.72 2 12 C8.95041086 11.73381405 15.23514355 12.3879491 22 14 C19.54487422 16.45512578 17.54623964 16.9890558 14.2578125 18.09375 C13.10925781 18.48433594 11.96070312 18.87492187 10.77734375 19.27734375 C8.96943359 19.88255859 8.96943359 19.88255859 7.125 20.5 C4.75176402 21.29959404 2.37933218 22.10157983 0.0078125 22.90625 C-1.04776855 23.26009766 -2.10334961 23.61394531 -3.19091797 23.97851562 C-5.57581571 24.84575117 -7.76610586 25.8048297 -10 27 C-10.20521899 23.81346778 -10.32822933 20.62864948 -10.4375 17.4375 C-10.49615234 16.54224609 -10.55480469 15.64699219 -10.61523438 14.72460938 C-10.71507752 10.83072691 -10.72732735 8.08536674 -8.51611328 4.78564453 C-3.93303571 0 -3.93303571 0 0 0 Z " fill="#40ACD6" transform="translate(62,20)"/>
<path d="M0 0 C5.96707589 12.57421875 5.96707589 12.57421875 4 19 C2.9375 21.9375 2.9375 21.9375 2 24 C1.34 23.67 0.68 23.34 0 23 C-0.625 20.9375 -0.625 20.9375 -1 19 C-0.34 19 0.32 19 1 19 C1 18.34 1 17.68 1 17 C0.01 17 -0.98 17 -2 17 C-2 14.03 -2 11.06 -2 8 C-7.05009595 7.06213918 -7.05009595 7.06213918 -12 8 C-13.66362417 8.34820041 -15.32995171 8.68404492 -17 9 C-17.33 10.65 -17.66 12.3 -18 14 C-18.99 13.67 -19.98 13.34 -21 13 C-20.25081135 8.05081436 -17.1539671 5.26239758 -13.69921875 1.86328125 C-9.28906238 -1.18106692 -5.136905 -0.77773702 0 0 Z " fill="#2C6598" transform="translate(90,0)"/>
<path d="M0 0 C8.25 0 16.5 0 25 0 C25 1.32 25 2.64 25 4 C21.7 4 18.4 4 15 4 C15 12.58 15 21.16 15 30 C13.68 30 12.36 30 11 30 C11 21.42 11 12.84 11 4 C7.37 4 3.74 4 0 4 C0 2.68 0 1.36 0 0 Z " fill="#151515" transform="translate(75,107)"/>
<path d="M0 0 C0.80824219 0.10183594 1.61648437 0.20367187 2.44921875 0.30859375 C3.06410156 0.39238281 3.67898437 0.47617188 4.3125 0.5625 C4.3125 1.8825 4.3125 3.2025 4.3125 4.5625 C1.0125 4.2325 -2.2875 3.9025 -5.6875 3.5625 C-5.6875 5.2125 -5.6875 6.8625 -5.6875 8.5625 C-4.45 8.500625 -3.2125 8.43875 -1.9375 8.375 C0.77796097 8.39425859 2.27542885 8.54674476 4.8125 9.625 C6.3125 11.5625 6.3125 11.5625 6.8125 15.0625 C6.3125 18.5625 6.3125 18.5625 4.640625 20.26953125 C1.74484512 21.87775799 -0.14732407 21.86750628 -3.4375 21.75 C-4.91476563 21.70939453 -4.91476563 21.70939453 -6.421875 21.66796875 C-7.16953125 21.63316406 -7.9171875 21.59835938 -8.6875 21.5625 C-9.3475 20.2425 -10.0075 18.9225 -10.6875 17.5625 C-6.35416667 17.5625 -2.02083333 17.5625 2.3125 17.5625 C2.3125 15.9125 2.3125 14.2625 2.3125 12.5625 C1.70921875 12.60890625 1.1059375 12.6553125 0.484375 12.703125 C-6.02739267 12.99720483 -6.02739267 12.99720483 -9.25 10.875 C-10.96837645 8.11065528 -11.26118682 6.75875513 -10.6875 3.5625 C-7.76172947 -0.33852738 -4.59378319 -0.59918911 0 0 Z " fill="#212121" transform="translate(173.6875,116.4375)"/>
<path d="M0 0 C0.96679688 0.36222656 1.93359375 0.72445312 2.9296875 1.09765625 C4.01636719 1.51337891 4.01636719 1.51337891 5.125 1.9375 C1.90948677 4.80277579 -0.24620225 5.33567027 -4.515625 5.44921875 C-6.12050781 5.50239258 -6.12050781 5.50239258 -7.7578125 5.55664062 C-9.42457031 5.59047852 -9.42457031 5.59047852 -11.125 5.625 C-12.81496094 5.67624023 -12.81496094 5.67624023 -14.5390625 5.72851562 C-17.31760901 5.81093014 -20.09584252 5.88010298 -22.875 5.9375 C-23.205 8.2475 -23.535 10.5575 -23.875 12.9375 C-26.37644276 10.82690767 -27.73776688 9.64081976 -28.375 6.375 C-27.875 3.9375 -27.875 3.9375 -26.2109375 2.42578125 C-23.54398525 0.72660265 -20.99257572 -0.29213067 -18 -1.3125 C-16.48792969 -1.84617188 -16.48792969 -1.84617188 -14.9453125 -2.390625 C-9.50877521 -3.58029983 -5.08961182 -1.92412154 0 0 Z " fill="#CB5839" transform="translate(79.875,43.0625)"/>
<path d="M0 0 C0.33 0 0.66 0 1 0 C2.4728646 17.29671764 2.4728646 17.29671764 -0.8984375 23.484375 C-4.00783437 26.88559229 -7.1747953 29.44986354 -11 32 C-11.1875 29.6875 -11.1875 29.6875 -11 27 C-10 26 -9 25 -8 24 C-8.26676204 22.01508358 -8.26676204 22.01508358 -9 20 C-9 18.68 -9 17.36 -9 16 C-6.36 16 -3.72 16 -1 16 C-1 13.36 -1 10.72 -1 8 C-4.63 8 -8.26 8 -12 8 C-9.42339791 5.42339791 -8.02709974 4.35218327 -4.875 2.875 C-2.24117764 1.71869993 -2.24117764 1.71869993 0 0 Z " fill="#4593C4" transform="translate(137,32)"/>
<path d="M0 0 C1.67542976 0.28604898 3.34385343 0.61781233 5 1 C5.33 3.64 5.66 6.28 6 9 C6.928125 9.2165625 6.928125 9.2165625 7.875 9.4375 C10 10 10 10 12 11 C12.36075949 16.41139241 12.36075949 16.41139241 10.8125 18.9375 C9 20 9 20 6.5 20 C2.57405001 18.42962 1.80613945 15.7656594 0.1171875 12.06640625 C-1.5632847 8.06203782 -2.55249338 5.26935678 -1 1 C-0.67 0.67 -0.34 0.34 0 0 Z " fill="#235894" transform="translate(98,63)"/>
<path d="M0 0 C2.54545719 4.60374553 4.01679124 9.66232356 5.70117188 14.625 C8.27717946 22.42631911 8.27717946 22.42631911 13 29 C9.37515001 29.08681476 5.75056557 29.14032721 2.125 29.1875 C1.09246094 29.21263672 0.05992188 29.23777344 -1.00390625 29.26367188 C-1.99003906 29.27333984 -2.97617188 29.28300781 -3.9921875 29.29296875 C-4.90339355 29.3086792 -5.81459961 29.32438965 -6.75341797 29.34057617 C-7.49479004 29.22818604 -8.23616211 29.1157959 -9 29 C-9.66 28.01 -10.32 27.02 -11 26 C-10.01 26.33 -9.02 26.66 -8 27 C-5.77425665 27.22451458 -3.54418481 27.40782878 -1.3125 27.5625 C-0.13300781 27.64628906 1.04648438 27.73007813 2.26171875 27.81640625 C3.61716797 27.90728516 3.61716797 27.90728516 5 28 C5 24.7 5 21.4 5 18 C3.02 18 1.04 18 -1 18 C-3.48887372 13.31506124 -2.85687773 10.0555786 -2 5 C-1.34 5 -0.68 5 0 5 C0 3.35 0 1.7 0 0 Z " fill="#DBAF3E" transform="translate(91,54)"/>
<path d="M0 0 C0 1.65 0 3.3 0 5 C-1.98 5 -3.96 5 -6 5 C-6 10.94 -6 16.88 -6 23 C-7.65 23 -9.3 23 -11 23 C-11 16.07 -11 9.14 -11 2 C-2 0 -2 0 0 0 Z " fill="#0C0C0C" transform="translate(82,115)"/>
<path d="M0 0 C7.25581395 -0.48372093 7.25581395 -0.48372093 10.5 1.625 C12.43204232 4.68406701 12.52979878 6.4427796 12 10 C10.796875 11.671875 10.796875 11.671875 9 13 C6.51953125 13.29296875 6.51953125 13.29296875 3.8125 13.1875 C2.91144531 13.16042969 2.01039063 13.13335937 1.08203125 13.10546875 C0.39496094 13.07066406 -0.29210937 13.03585938 -1 13 C-1 12.67 -1 12.34 -1 12 C1.64 12 4.28 12 7 12 C7 11.34 7 10.68 7 10 C4.36 10 1.72 10 -1 10 C-1 8.35 -1 6.7 -1 5 C-0.01 4.67 0.98 4.34 2 4 C1.34 2.68 0.68 1.36 0 0 Z " fill="#1F1F1F" transform="translate(147,116)"/>
<path d="M0 0 C0 2.31 0 4.62 0 7 C1.32 7 2.64 7 4 7 C4 7.66 4 8.32 4 9 C2.68 9 1.36 9 0 9 C0 13.95 0 18.9 0 24 C1.65 24 3.3 24 5 24 C4.67 25.32 4.34 26.64 4 28 C1.125 27.6875 1.125 27.6875 -2 27 C-4.23413013 23.64880481 -4.23847762 22.5822245 -4.1953125 18.67578125 C-4.18886719 17.64775391 -4.18242188 16.61972656 -4.17578125 15.56054688 C-4.15064453 13.95276367 -4.15064453 13.95276367 -4.125 12.3125 C-4.11597656 11.22904297 -4.10695312 10.14558594 -4.09765625 9.02929688 C-4.0740734 6.3526429 -4.04116126 3.67643203 -4 1 C-2 0 -2 0 0 0 Z " fill="#121212" transform="translate(40,110)"/>
<path d="M0 0 C0 0.99 0 1.98 0 3 C2.64 3 5.28 3 8 3 C8 4.98 8 6.96 8 9 C5.69 9.66 3.38 10.32 1 11 C2.65 11.33 4.3 11.66 6 12 C6 12.33 6 12.66 6 13 C1.64631931 13.42683144 -0.37058208 13.44583769 -4 10.875 C-6 8 -6 8 -6 4.8125 C-4.83918744 1.54771467 -3.66003695 0 0 0 Z " fill="#1D1D1D" transform="translate(54,125)"/>
<path d="M0 0 C6.25710015 -0.4813154 6.25710015 -0.4813154 9.21875 1.4375 C11.8806696 5.26692819 11.43454474 8.70736015 11.25 13.25 C11.23195312 14.09046875 11.21390625 14.9309375 11.1953125 15.796875 C11.14830798 17.86507395 11.07656724 19.93268441 11 22 C9.68 22 8.36 22 7 22 C6.67 16.06 6.34 10.12 6 4 C4.02 4 2.04 4 0 4 C0 2.66666667 0 1.33333333 0 0 Z " fill="#131313" transform="translate(126,116)"/>
<path d="M0 0 C0.66 0 1.32 0 2 0 C4.19557196 7.74907749 4.19557196 7.74907749 3 12 C2.93543121 13.41534778 2.91388961 14.83337689 2.9375 16.25 C2.958125 17.4875 2.97875 18.725 3 20 C2.67 20 2.34 20 2 20 C2 18.35 2 16.7 2 15 C0.35 15 -1.3 15 -3 15 C-3.33 15.66 -3.66 16.32 -4 17 C-4.66 17 -5.32 17 -6 17 C-5.45388522 11.81190963 -3.84540159 3.84540159 0 0 Z " fill="#2A66A3" transform="translate(101,49)"/>
<path d="M0 0 C-0.99 1.98 -1.98 3.96 -3 6 C-4.65 6 -6.3 6 -8 6 C-7.34 6.66 -6.68 7.32 -6 8 C-2.90073181 7.67801034 -2.90073181 7.67801034 0 7 C0 8.98 0 10.96 0 13 C-0.68449219 12.72414063 -1.36898437 12.44828125 -2.07421875 12.1640625 C-5.31107709 10.87623368 -8.56021876 9.62335037 -11.8125 8.375 C-12.97394531 7.92898437 -14.13539062 7.48296875 -15.33203125 7.0234375 C-16.21246094 6.68570313 -17.09289062 6.34796875 -18 6 C-14.87754953 3.91836635 -11.92965119 2.67424387 -8.4375 1.3125 C-7.28121094 0.85488281 -6.12492187 0.39726563 -4.93359375 -0.07421875 C-2 -1 -2 -1 0 0 Z " fill="#E7F2F6" transform="translate(88,34)"/>
<path d="M0 0 C2.375 -0.125 2.375 -0.125 5 0 C7 2 7 2 7.375 5.4375 C7 9 7 9 5.3359375 10.7109375 C2.43597335 12.31125217 0.54033894 12.3050121 -2.75 12.1875 C-3.73484375 12.16042969 -4.7196875 12.13335937 -5.734375 12.10546875 C-6.48203125 12.07066406 -7.2296875 12.03585938 -8 12 C-8.66 10.68 -9.32 9.36 -10 8 C-5.66666667 8 -1.33333333 8 3 8 C3 6.35 3 4.7 3 3 C2.01 3 1.02 3 0 3 C0 2.01 0 1.02 0 0 Z " fill="#161616" transform="translate(173,126)"/>
<path d="M0 0 C2.64 0 5.28 0 8 0 C7 3 7 3 5 4 C4.67 9.61 4.34 15.22 4 21 C2.68 21 1.36 21 0 21 C0 14.07 0 7.14 0 0 Z " fill="#060606" transform="translate(119,117)"/>
<path d="M0 0 C1.32 0 2.64 0 4 0 C4 7.26 4 14.52 4 22 C2.68 22 1.36 22 0 22 C0 14.74 0 7.48 0 0 Z " fill="#161616" transform="translate(96,116)"/>
<path d="M0 0 C1.134375 0.020625 2.26875 0.04125 3.4375 0.0625 C2.7775 1.3825 2.1175 2.7025 1.4375 4.0625 C0.7775 3.7325 0.1175 3.4025 -0.5625 3.0625 C-0.8925 3.7225 -1.2225 4.3825 -1.5625 5.0625 C-0.9025 5.0625 -0.2425 5.0625 0.4375 5.0625 C0.35183603 7.975075 -0.14160955 9.63048024 -2.1875 11.73046875 C-3.94641375 13.22341772 -5.72563019 14.66686262 -7.5625 16.0625 C-7.8925 13.7525 -8.2225 11.4425 -8.5625 9.0625 C-7.9025 8.7325 -7.2425 8.4025 -6.5625 8.0625 C-5.85758733 5.74043475 -5.19037571 3.40656932 -4.5625 1.0625 C-3.5625 0.0625 -3.5625 0.0625 0 0 Z " fill="#2669A8" transform="translate(117.5625,63.9375)"/>
<path d="M0 0 C0.04254356 1.99954746 0.04080783 4.00041636 0 6 C-1 7 -1 7 -4.5625 7.0625 C-5.696875 7.041875 -6.83125 7.02125 -8 7 C-8 6.34 -8 5.68 -8 5 C-10.31 5.33 -12.62 5.66 -15 6 C-15.33 6.99 -15.66 7.98 -16 9 C-16.99 8.34 -17.98 7.68 -19 7 C-4.11764706 -2.05882353 -4.11764706 -2.05882353 0 0 Z " fill="#358EBE" transform="translate(120,41)"/>
<path d="M0 0 C-2.51822275 2.42472438 -3.67533206 2.99254989 -7.234375 3.07421875 C-8.39453125 2.94660156 -9.5546875 2.81898437 -10.75 2.6875 C-12.50570312 2.50767578 -12.50570312 2.50767578 -14.296875 2.32421875 C-15.18890625 2.21722656 -16.0809375 2.11023437 -17 2 C-17 1.34 -17 0.68 -17 0 C-16.34 -0.33 -15.68 -0.66 -15 -1 C-15 -1.66 -15 -2.32 -15 -3 C-16.98 -3 -18.96 -3 -21 -3 C-14.44158821 -7.28819232 -6.56612204 -2.5119506 0 0 Z " fill="#DC6535" transform="translate(85,45)"/>
<path d="M0 0 C6.95041086 -0.26618595 13.23514355 0.3879491 20 2 C17.81385576 4.18614424 16.46120051 4.68256535 13.5625 5.625 C12.78003906 5.88539062 11.99757813 6.14578125 11.19140625 6.4140625 C9 7 9 7 6 7 C6 6.34 6 5.68 6 5 C5.34 4.67 4.68 4.34 4 4 C4.66 4 5.32 4 6 4 C6 3.34 6 2.68 6 2 C5.38125 2.185625 4.7625 2.37125 4.125 2.5625 C2 3 2 3 0 2 C0 1.34 0 0.68 0 0 Z " fill="#3399C7" transform="translate(64,32)"/>
<path d="M0 0 C1.27875 -0.061875 2.5575 -0.12375 3.875 -0.1875 C4.95394531 -0.23970703 4.95394531 -0.23970703 6.0546875 -0.29296875 C6.69664062 -0.19628906 7.33859375 -0.09960938 8 0 C8.66 0.99 9.32 1.98 10 3 C11.65 2.67 13.3 2.34 15 2 C14.505 2.45375 14.01 2.9075 13.5 3.375 C11.77390663 4.87635519 11.77390663 4.87635519 12 7 C13.32 7.66 14.64 8.32 16 9 C15.01 9.495 15.01 9.495 14 10 C13.01 11.485 13.01 11.485 12 13 C11.34 11.02 10.68 9.04 10 7 C6.7 6.34 3.4 5.68 0 5 C-0.33 4.01 -0.66 3.02 -1 2 C-0.67 1.34 -0.34 0.68 0 0 Z " fill="#EBEBEB" transform="translate(168,120)"/>
<path d="M0 0 C0.66 0.33 1.32 0.66 2 1 C2 1.99 2 2.98 2 4 C-0.4375 6.125 -0.4375 6.125 -3 8 C-3.33 8.33 -3.66 8.66 -4 9 C-6.9375 9.1875 -6.9375 9.1875 -10 9 C-10.66 8.34 -11.32 7.68 -12 7 C-12 5.68 -12 4.36 -12 3 C-10.95199219 2.92652344 -10.95199219 2.92652344 -9.8828125 2.8515625 C-8.97273437 2.77679688 -8.06265625 2.70203125 -7.125 2.625 C-6.22007812 2.55539063 -5.31515625 2.48578125 -4.3828125 2.4140625 C-1.82058097 2.20431868 -1.82058097 2.20431868 0 0 Z " fill="#E1E1E1" transform="translate(158,126)"/>
<path d="M0 0 C2.64 0 5.28 0 8 0 C8.33 0.99 8.66 1.98 9 3 C10.29355827 4.37195574 11.62298702 5.71182656 13 7 C9.37 7.33 5.74 7.66 2 8 C2.66 6.68 3.32 5.36 4 4 C2.02 4.99 2.02 4.99 0 6 C0 4.02 0 2.04 0 0 Z " fill="#E69739" transform="translate(104,0)"/>
<path d="M0 0 C0.33 0 0.66 0 1 0 C1.05416188 1.60379341 1.09286638 3.20811406 1.125 4.8125 C1.14820313 5.70582031 1.17140625 6.59914063 1.1953125 7.51953125 C1 10 1 10 -1 13 C-1 11.35 -1 9.7 -1 8 C-4.63 8 -8.26 8 -12 8 C-9.42339791 5.42339791 -8.02709974 4.35218327 -4.875 2.875 C-2.24117764 1.71869993 -2.24117764 1.71869993 0 0 Z " fill="#38B2DD" transform="translate(137,32)"/>
<path d="M0 0 C5.61 0 11.22 0 17 0 C17.33 0.66 17.66 1.32 18 2 C17.071875 1.95875 16.14375 1.9175 15.1875 1.875 C11.84190281 1.72863661 11.84190281 1.72863661 9 4 C9.99 5.32 10.98 6.64 12 8 C7.8086822 7.52371389 5.13635041 6.89509268 2 4 C2 3.67 2 3.34 2 3 C1.34 2.67 0.68 2.34 0 2 C0 1.34 0 0.68 0 0 Z " fill="#DE683D" transform="translate(110,32)"/>
<path d="M0 0 C0 3.10551666 -0.5393715 4.35261084 -2 7 C-2.99 7 -3.98 7 -5 7 C-5.68707555 9.49064888 -6 11.37886292 -6 14 C-12.75 16 -12.75 16 -15 16 C-15 16.66 -15 17.32 -15 18 C-15.99 17.67 -16.98 17.34 -18 17 C-17.34 17 -16.68 17 -16 17 C-16 16.34 -16 15.68 -16 15 C-14.53125 13.5546875 -14.53125 13.5546875 -12.5 11.875 C-8.09475988 8.1384124 -4.03400765 4.13056634 0 0 Z " fill="#ECF4F4" transform="translate(125,65)"/>
<path d="M0 0 C2.77668292 4.81291706 3.39899757 9.01005232 2.0625 14.375 C1.5365625 16.169375 1.5365625 16.169375 1 18 C0.34 18 -0.32 18 -1 18 C-3.48887372 13.31506124 -2.85687773 10.0555786 -2 5 C-1.34 5 -0.68 5 0 5 C0 3.35 0 1.7 0 0 Z " fill="#E8A33C" transform="translate(91,54)"/>
<path d="M0 0 C0 1.65 0 3.3 0 5 C-1.98 5 -3.96 5 -6 5 C-6 10.94 -6 16.88 -6 23 C-7.65 23 -9.3 23 -11 23 C-9.68 22.67 -8.36 22.34 -7 22 C-7 16.06 -7 10.12 -7 4 C-7.66 3.67 -8.32 3.34 -9 3 C-8.67 2.34 -8.34 1.68 -8 1 C-5.30114269 0.42577504 -2.76207303 0 0 0 Z " fill="#4F4F4F" transform="translate(82,115)"/>
<path d="M0 0 C3.3 0 6.6 0 10 0 C10.69685498 1.6210103 11.38222861 3.24696066 12.0625 4.875 C12.44535156 5.77992188 12.82820313 6.68484375 13.22265625 7.6171875 C14 10 14 10 13 12 C11.68 9.36 10.36 6.72 9 4 C6.03 4 3.06 4 0 4 C-0.33 3.34 -0.66 2.68 -1 2 C-0.67 1.34 -0.34 0.68 0 0 Z " fill="#2D4976" transform="translate(80,0)"/>
<path d="M0 0 C2.05078125 0.03255208 4.1015625 0.06510417 6.15234375 0.09765625 C6.15234375 2.07765625 6.15234375 4.05765625 6.15234375 6.09765625 C3.18234375 6.09765625 0.21234375 6.09765625 -2.84765625 6.09765625 C-2.89037725 4.4315372 -2.88829457 2.7638274 -2.84765625 1.09765625 C-1.84765625 0.09765625 -1.84765625 0.09765625 0 0 Z " fill="#E2E2E2" transform="translate(55.84765625,127.90234375)"/>
<path d="M0 0 C3 0.25 3 0.25 5 2.25 C5 3.57 5 4.89 5 6.25 C2.03 6.25 -0.94 6.25 -4 6.25 C-4.33 4.93 -4.66 3.61 -5 2.25 C-3 0.25 -3 0.25 0 0 Z " fill="#CCCCCC" transform="translate(57,118.75)"/>
<path d="M0 0 C0.33 0 0.66 0 1 0 C1.33 8.58 1.66 17.16 2 26 C0.68 26 -0.64 26 -2 26 C-2 21.71 -2 17.42 -2 13 C-1.67 13 -1.34 13 -1 13 C-0.67 8.71 -0.34 4.42 0 0 Z " fill="#E3E5EC" transform="translate(51,28)"/>
<path d="M0 0 C0.33 0.99 0.66 1.98 1 3 C1.66 3.33 2.32 3.66 3 4 C2.4375 5.9375 2.4375 5.9375 1 8 C-2.625 8.75 -2.625 8.75 -6 9 C-6.33 10.65 -6.66 12.3 -7 14 C-7.99 13.67 -8.98 13.34 -10 13 C-9.48223379 8.89552608 -7.35372556 7.04300477 -4.4375 4.25 C-3.61121094 3.45078125 -2.78492187 2.6515625 -1.93359375 1.828125 C-1.29550781 1.22484375 -0.65742187 0.6215625 0 0 Z " fill="#295D96" transform="translate(79,0)"/>
<path d="M0 0 C2.00948183 0.01778303 4.01668765 0.16786374 6.01953125 0.33203125 C6.34953125 1.32203125 6.67953125 2.31203125 7.01953125 3.33203125 C6.02953125 3.33203125 5.03953125 3.33203125 4.01953125 3.33203125 C4.01953125 3.99203125 4.01953125 4.65203125 4.01953125 5.33203125 C5.99953125 5.33203125 7.97953125 5.33203125 10.01953125 5.33203125 C10.01953125 5.66203125 10.01953125 5.99203125 10.01953125 6.33203125 C4.86781502 6.42241224 0.10039921 6.17884258 -4.98046875 5.33203125 C-3.05235036 0.51173527 -3.05235036 0.51173527 0 0 Z " fill="#E45538" transform="translate(63.98046875,41.66796875)"/>
<path d="M0 0 C2.31 0 4.62 0 7 0 C6.814375 0.7425 6.62875 1.485 6.4375 2.25 C6.00158134 4.99006016 6.28005547 6.39020109 7 9 C6.67 9.66 6.34 10.32 6 11 C5.9603287 12.66619446 5.95615553 14.33391013 6 16 C4.45921385 13.01559439 3.13026724 9.98992242 1.875 6.875 C1.52179688 6.00617187 1.16859375 5.13734375 0.8046875 4.2421875 C0 2 0 2 0 0 Z " fill="#E7B538" transform="translate(90,0)"/>
<path d="M0 0 C1.134375 0.020625 2.26875 0.04125 3.4375 0.0625 C3.81968767 1.71864657 4.15145102 3.38707024 4.4375 5.0625 C3.4375 6.0625 3.4375 6.0625 1.58984375 6.16015625 C-0.4609375 6.12760417 -2.51171875 6.09505208 -4.5625 6.0625 C-4.605221 4.39638095 -4.60313832 2.72867115 -4.5625 1.0625 C-3.5625 0.0625 -3.5625 0.0625 0 0 Z " fill="#D6D6D6" transform="translate(150.5625,119.9375)"/>
<path d="M0 0 C1.79068573 2.6860286 2.66055791 4.6626589 3.625 7.6875 C3.88539062 8.49574219 4.14578125 9.30398437 4.4140625 10.13671875 C4.60742188 10.75160156 4.80078125 11.36648437 5 12 C4.34 12 3.68 12 3 12 C2.67 10.68 2.34 9.36 2 8 C-1.2985139 8.72268235 -1.2985139 8.72268235 -2.6875 12.0625 C-3.120625 13.031875 -3.55375 14.00125 -4 15 C-4.66 14.67 -5.32 14.34 -6 14 C-5.19074658 11.85294019 -4.37750887 9.7073817 -3.5625 7.5625 C-3.11003906 6.36753906 -2.65757813 5.17257813 -2.19140625 3.94140625 C-1 1 -1 1 0 0 Z " fill="#EAECE7" transform="translate(95,16)"/>
<path d="M0 0 C0.33 0 0.66 0 1 0 C1.63019694 9.17286652 1.63019694 9.17286652 -1 12.625 C-1.66 13.07875 -2.32 13.5325 -3 14 C-3 13.01 -3 12.02 -3 11 C-3.66 11 -4.32 11 -5 11 C-5 10.01 -5 9.02 -5 8 C-5.99 7.67 -6.98 7.34 -8 7 C-8 6.67 -8 6.34 -8 6 C-5.69 6 -3.38 6 -1 6 C-0.67 4.02 -0.34 2.04 0 0 Z " fill="#3BA1CB" transform="translate(137,42)"/>
<path d="M0 0 C1.875 1.1875 1.875 1.1875 2.875 3.1875 C2.545 3.8475 2.215 4.5075 1.875 5.1875 C1.215 5.1875 0.555 5.1875 -0.125 5.1875 C-0.125 6.1775 -0.125 7.1675 -0.125 8.1875 C-0.785 8.1875 -1.445 8.1875 -2.125 8.1875 C-2.125 7.5275 -2.125 6.8675 -2.125 6.1875 C-3.115 6.5175 -4.105 6.8475 -5.125 7.1875 C-5.125 4.8775 -5.125 2.5675 -5.125 0.1875 C-2.125 -0.8125 -2.125 -0.8125 0 0 Z " fill="#E26F38" transform="translate(125.125,14.8125)"/>
<path d="M0 0 C-0.3125 3.375 -0.3125 3.375 -1 7 C-1.99 7.66 -2.98 8.32 -4 9 C-3.67 11.31 -3.34 13.62 -3 16 C-3.66 16.33 -4.32 16.66 -5 17 C-5.66 14.03 -6.32 11.06 -7 8 C-6.34 8 -5.68 8 -5 8 C-4.87625 6.865625 -4.7525 5.73125 -4.625 4.5625 C-4.41875 3.386875 -4.2125 2.21125 -4 1 C-2 0 -2 0 0 0 Z " fill="#F8F5E8" transform="translate(99,47)"/>
<path d="M0 0 C7.75 1.875 7.75 1.875 10 3 C10 3.66 10 4.32 10 5 C8.4176994 5.33820166 6.83410625 5.67035939 5.25 6 C3.92742187 6.2784375 3.92742187 6.2784375 2.578125 6.5625 C0 7 0 7 -4 7 C-4 6.34 -4 5.68 -4 5 C-0.535 4.505 -0.535 4.505 3 4 C3 3.34 3 2.68 3 2 C2.01 2 1.02 2 0 2 C0 1.34 0 0.68 0 0 Z " fill="#FAF8F0" transform="translate(108,36)"/>
<path d="M0 0 C2.97 0 5.94 0 9 0 C9 1.65 9 3.3 9 5 C6.36 5 3.72 5 1 5 C0.67 3.35 0.34 1.7 0 0 Z " fill="#EEEEEE" transform="translate(167,129)"/>
<path d="M0 0 C0.66 0 1.32 0 2 0 C3.67357513 5.37305699 3.67357513 5.37305699 4 8 C2.625 10 2.625 10 1 11 C-2 10 -2 10 -2.875 8.3125 C-3.05576685 4.96831319 -1.62387111 2.85801315 0 0 Z " fill="#2973A8" transform="translate(101,49)"/>
<path d="M0 0 C2 1 4 2 6 3 C9.27885532 2.78892707 9.27885532 2.78892707 12 2 C12 3.98 12 5.96 12 8 C11.29488281 7.71382812 10.58976562 7.42765625 9.86328125 7.1328125 C6.98794768 5.99523169 4.09547814 4.92607644 1.1875 3.875 C0.21167969 3.52179687 -0.76414062 3.16859375 -1.76953125 2.8046875 C-2.50558594 2.53914063 -3.24164063 2.27359375 -4 2 C-2.1796875 0.91015625 -2.1796875 0.91015625 0 0 Z " fill="#F8F2E6" transform="translate(76,39)"/>
<path d="M0 0 C2.9375 1.3125 2.9375 1.3125 3.8125 3.4375 C3.874375 4.365625 3.874375 4.365625 3.9375 5.3125 C5.5875 5.3125 7.2375 5.3125 8.9375 5.3125 C8.9375 5.6425 8.9375 5.9725 8.9375 6.3125 C7.3531683 6.22481752 5.76996433 6.11662671 4.1875 6 C2.86492188 5.91298828 2.86492188 5.91298828 1.515625 5.82421875 C-1.41665446 5.24220571 -2.9027919 4.35614902 -5.0625 2.3125 C-5.0625 1.6525 -5.0625 0.9925 -5.0625 0.3125 C-3.0625 -0.6875 -3.0625 -0.6875 0 0 Z " fill="#242424" transform="translate(15.0625,131.6875)"/>
<path d="M0 0 C2.475 0.99 2.475 0.99 5 2 C5 3.65 5 5.3 5 7 C2.13822943 8.43088528 0.06624227 7.59991697 -3 7 C-2.25 2.25 -2.25 2.25 0 0 Z " fill="#EEEEEE" transform="translate(22,124)"/>
<path d="M0 0 C1.98 0 3.96 0 6 0 C6 1.98 6 3.96 6 6 C4.34385343 6.38218767 2.67542976 6.71395102 1 7 C0 6 0 6 -0.0625 2.9375 C-0.041875 1.968125 -0.02125 0.99875 0 0 Z " fill="#3D9FC9" transform="translate(64,34)"/>
<path d="M0 0 C1.0625 1.8125 1.0625 1.8125 0.75 4 C0.4096875 4.8971875 0.4096875 4.8971875 0.0625 5.8125 C0.0625 5.1525 0.0625 4.4925 0.0625 3.8125 C-0.88625 3.833125 -1.835 3.85375 -2.8125 3.875 C-5.9375 3.8125 -5.9375 3.8125 -7.9375 2.8125 C-7.9375 1.8225 -7.9375 0.8325 -7.9375 -0.1875 C-2.48181438 -1.52111204 -2.48181438 -1.52111204 0 0 Z " fill="#24528B" transform="translate(89.9375,4.1875)"/>
<path d="M0 0 C1.52519276 0.08937803 3.04681929 0.24537146 4.5625 0.4375 C5.80193359 0.59025391 5.80193359 0.59025391 7.06640625 0.74609375 C7.70449219 0.82988281 8.34257812 0.91367188 9 1 C8.01 1.33 7.02 1.66 6 2 C6 2.99 6 3.98 6 5 C0.25 5.125 0.25 5.125 -2 4 C-1 1 -1 1 0 0 Z " fill="#2F2F2F" transform="translate(167,124)"/>
<path d="M0 0 C1.485 0.99 1.485 0.99 3 2 C5.32387947 2.39387788 7.65793749 2.73486085 10 3 C9.34 4.32 8.68 5.64 8 7 C1.35384615 5.52307692 1.35384615 5.52307692 -0.4375 2.875 C-0.623125 2.25625 -0.80875 1.6375 -1 1 C-0.67 0.67 -0.34 0.34 0 0 Z " fill="#1E1E1E" transform="translate(12,116)"/>
<path d="M0 0 C0.99 0 1.98 0 3 0 C3.33 1.32 3.66 2.64 4 4 C4.66 4 5.32 4 6 4 C6.33 5.32 6.66 6.64 7 8 C5.68 8 4.36 8 3 8 C2.34 6.68 1.68 5.36 1 4 C0.01 4.33 -0.98 4.66 -2 5 C-1.34 3.35 -0.68 1.7 0 0 Z " fill="#FAF7F0" transform="translate(94,24)"/>
<path d="M0 0 C-1 3 -1 3 -3 4 C-4.54023996 4.06950541 -6.08334988 4.08452357 -7.625 4.0625 C-8.85089844 4.04896484 -8.85089844 4.04896484 -10.1015625 4.03515625 C-11.04128906 4.01775391 -11.04128906 4.01775391 -12 4 C-11.01 3.67 -10.02 3.34 -9 3 C-9 2.34 -9 1.68 -9 1 C-3.375 -1.125 -3.375 -1.125 0 0 Z " fill="#181818" transform="translate(158,134)"/>
<path d="M0 0 C2.475 0.99 2.475 0.99 5 2 C5 2.66 5 3.32 5 4 C5.66 4 6.32 4 7 4 C6.67 4.99 6.34 5.98 6 7 C1.25 6.25 1.25 6.25 -1 4 C-0.625 1.875 -0.625 1.875 0 0 Z " fill="#2A3E66" transform="translate(101,76)"/>
<path d="M0 0 C0.66 0.99 1.32 1.98 2 3 C1.125 5.6875 1.125 5.6875 0 8 C-0.66 7.67 -1.32 7.34 -2 7 C-4.46278801 7 -5.85224119 7.85452863 -8 9 C-7.04270084 7.87411986 -6.08412105 6.7493285 -5.125 5.625 C-4.59132812 4.99851562 -4.05765625 4.37203125 -3.5078125 3.7265625 C-2.38567993 2.44163349 -1.20628025 1.20628025 0 0 Z " fill="#F0F7F6" transform="translate(134,56)"/>
<path d="M0 0 C3.3 0.99 6.6 1.98 10 3 C5.5 6.375 5.5 6.375 1 6 C1 5.34 1 4.68 1 4 C0.34 3.34 -0.32 2.68 -1 2 C-0.67 1.34 -0.34 0.68 0 0 Z " fill="#E17340" transform="translate(75,42)"/>
<path d="M0 0 C0.89589844 -0.01417969 1.79179688 -0.02835938 2.71484375 -0.04296875 C5.0625 0.1875 5.0625 0.1875 7.0625 2.1875 C3.28755093 4.02104669 1.09136104 4.45977191 -2.9375 3.1875 C-3.9275 2.5275 -4.9175 1.8675 -5.9375 1.1875 C-4.27188601 -0.47811399 -2.27787295 0.01634055 0 0 Z " fill="#3592BE" transform="translate(76.9375,32.8125)"/>
<path d="M0 0 C0.33 0 0.66 0 1 0 C1.3125 2.25 1.3125 2.25 1 5 C-1.5 7.3125 -1.5 7.3125 -4 9 C-6 8 -6 8 -7 5 C-6.01 5 -5.02 5 -4 5 C-3.67 4.01 -3.34 3.02 -3 2 C-2.34 2 -1.68 2 -1 2 C-0.67 1.34 -0.34 0.68 0 0 Z " fill="#C85739" transform="translate(137,27)"/>
<path d="M0 0 C2.64 0 5.28 0 8 0 C8 0.99 8 1.98 8 3 C5.36 3.99 2.72 4.98 0 6 C0 4.02 0 2.04 0 0 Z " fill="#E9A63F" transform="translate(104,0)"/>
<path d="M0 0 C3.3125 -0.1875 3.3125 -0.1875 7 0 C7.99 0.99 8.98 1.98 10 3 C6.7 3.33 3.4 3.66 0 4 C0 2.66666667 0 1.33333333 0 0 Z " fill="#1B1B1B" transform="translate(126,116)"/>
<path d="M0 0 C-1.49097658 3.7952131 -3.75700849 5.61042731 -7 8 C-7 7.01 -7 6.02 -7 5 C-7.66 5 -8.32 5 -9 5 C-8.67 4.01 -8.34 3.02 -8 2 C-7.67 2.33 -7.34 2.66 -7 3 C-6.34 2.34 -5.68 1.68 -5 1 C-2 0 -2 0 0 0 Z " fill="#3979AE" transform="translate(125,64)"/>
<path d="M0 0 C0.5625 1.9375 0.5625 1.9375 1 4 C0 5 0 5 -2.06640625 5.09765625 C-2.89011719 5.08605469 -3.71382812 5.07445312 -4.5625 5.0625 C-5.38878906 5.05347656 -6.21507812 5.04445312 -7.06640625 5.03515625 C-7.70449219 5.02355469 -8.34257813 5.01195312 -9 5 C-9.33 4.34 -9.66 3.68 -10 3 C-9.04287109 2.80083984 -9.04287109 2.80083984 -8.06640625 2.59765625 C-7.24011719 2.42105469 -6.41382813 2.24445313 -5.5625 2.0625 C-4.73878906 1.88847656 -3.91507813 1.71445313 -3.06640625 1.53515625 C-1.02338796 1.19247006 -1.02338796 1.19247006 0 0 Z " fill="#040404" transform="translate(64,132)"/>
<path d="M0 0 C0.99 0.33 1.98 0.66 3 1 C5.14479545 1.06990859 7.2916775 1.084421 9.4375 1.0625 C10.57058594 1.05347656 11.70367187 1.04445313 12.87109375 1.03515625 C13.90363281 1.02355469 14.93617187 1.01195313 16 1 C17.32 1 18.64 1 20 1 C20.33 1.66 20.66 2.32 21 3 C17.87517438 3.08687496 14.75065754 3.14034568 11.625 3.1875 C10.29082031 3.22520508 10.29082031 3.22520508 8.9296875 3.26367188 C7.65351562 3.27817383 7.65351562 3.27817383 6.3515625 3.29296875 C5.17327881 3.31653442 5.17327881 3.31653442 3.97119141 3.34057617 C3.32069824 3.22818604 2.67020508 3.1157959 2 3 C1.34 2.01 0.68 1.02 0 0 Z " fill="#EDBC4E" transform="translate(80,80)"/>
<path d="M0 0 C0.33 1.32 0.66 2.64 1 4 C2.98 4 4.96 4 7 4 C5.02 4.99 5.02 4.99 3 6 C4.65 6.33 6.3 6.66 8 7 C8 7.33 8 7.66 8 8 C1.375 8.25 1.375 8.25 -2 6 C-2 5.34 -2 4.68 -2 4 C-1.34 4 -0.68 4 0 4 C0 2.68 0 1.36 0 0 Z " fill="#2F2F2F" transform="translate(52,130)"/>
<path d="M0 0 C2.33944736 0.28730055 4.6739143 0.61936779 7 1 C6.67 1.99 6.34 2.98 6 4 C2.37 3.67 -1.26 3.34 -5 3 C-3.68 2.34 -2.36 1.68 -1 1 C-0.67 0.67 -0.34 0.34 0 0 Z " fill="#212121" transform="translate(23,108)"/>
<path d="M0 0 C0 0.99 0 1.98 0 3 C-5.34883721 8 -5.34883721 8 -8 8 C-7.32253522 3.25774652 -4.9532836 0 0 0 Z " fill="#3997C3" transform="translate(62,20)"/>
<path d="M0 0 C0.33 0 0.66 0 1 0 C0.67 3.96 0.34 7.92 0 12 C-2.6855594 9.3144406 -3.06049974 6.62378672 -4 3 C-3.01 2.67 -2.02 2.34 -1 2 C-0.67 1.34 -0.34 0.68 0 0 Z " fill="#E8A33D" transform="translate(100,14)"/>
<path d="M0 0 C0.33 0.66 0.66 1.32 1 2 C-1.375 3.0625 -1.375 3.0625 -4 4 C-4.66 3.67 -5.32 3.34 -6 3 C-6 2.34 -6 1.68 -6 1 C-7.32 0.34 -8.64 -0.32 -10 -1 C-5.96934293 -1.91605842 -3.484385 -2.45197463 0 0 Z " fill="#E9E9E9" transform="translate(159,139)"/>
<path d="M0 0 C1.65 1.65 3.3 3.3 5 5 C2.69 5.33 0.38 5.66 -2 6 C-2.33 4.35 -2.66 2.7 -3 1 C-2.01 0.67 -1.02 0.34 0 0 Z " fill="#EEEEEE" transform="translate(48,133)"/>
<path d="M0 0 C0.66 0.33 1.32 0.66 2 1 C-0.475 6.94 -0.475 6.94 -3 13 C-3.66 11.68 -4.32 10.36 -5 9 C-4.03284133 6.34031367 -2.58051758 4.37077638 -1 2 C-0.67 1.34 -0.34 0.68 0 0 Z " fill="#DDF0F6" transform="translate(99,49)"/>
<path d="M0 0 C0.66 0.66 1.32 1.32 2 2 C-0.31 4.31 -2.62 6.62 -5 9 C-5.66 8.01 -6.32 7.02 -7 6 C-4.82575883 3.49962266 -3.26954202 2.56371414 0 2 C0 1.34 0 0.68 0 0 Z " fill="#3A689D" transform="translate(116,71)"/>
<path d="M0 0 C0.66 0.99 1.32 1.98 2 3 C5.06556598 3.73343428 5.06556598 3.73343428 8 4 C8 4.33 8 4.66 8 5 C1.375 5.125 1.375 5.125 -2 4 C-2.66 4.66 -3.32 5.32 -4 6 C-4.33 4.68 -4.66 3.36 -5 2 C-3.35 1.34 -1.7 0.68 0 0 Z " fill="#C6C6C6" transform="translate(166,130)"/>
<path d="M0 0 C1.98 0 3.96 0 6 0 C6 1.32 6 2.64 6 4 C3.69 4 1.38 4 -1 4 C-0.67 2.68 -0.34 1.36 0 0 Z " fill="#FBFBFB" transform="translate(55,120)"/>
<path d="M0 0 C0.99 0.33 1.98 0.66 3 1 C3.33 2.98 3.66 4.96 4 7 C1 7 1 7 -1 6 C-1.042721 4.33388095 -1.04063832 2.66617115 -1 1 C-0.67 0.67 -0.34 0.34 0 0 Z " fill="#060606" transform="translate(12,111)"/>
<path d="M0 0 C0.33 1.32 0.66 2.64 1 4 C1.66 4 2.32 4 3 4 C3 5.65 3 7.3 3 9 C1.68 9 0.36 9 -1 9 C-2.0326802 6.21176345 -2.04509293 5.1322726 -1.0625 2.25 C-0.711875 1.5075 -0.36125 0.765 0 0 Z " fill="#224D7B" transform="translate(100,68)"/>
<path d="M0 0 C1.98 0 3.96 0 6 0 C6 1.65 6 3.3 6 5 C4.02 4.34 2.04 3.68 0 3 C0 2.01 0 1.02 0 0 Z " fill="#E35E37" transform="translate(58,56)"/>
<path d="M0 0 C2.31 0.33 4.62 0.66 7 1 C7.33 1.99 7.66 2.98 8 4 C6.02 4.33 4.04 4.66 2 5 C1.34 3.35 0.68 1.7 0 0 Z " fill="#E88E43" transform="translate(113,7)"/>
<path d="M0 0 C4.455 0.99 4.455 0.99 9 2 C8.67 2.66 8.34 3.32 8 4 C5.36 4 2.72 4 0 4 C0 2.68 0 1.36 0 0 Z " fill="#0A0A0A" transform="translate(164,133)"/>
<path d="M0 0 C1.32 0 2.64 0 4 0 C4.66 1.65 5.32 3.3 6 5 C4.02 5 2.04 5 0 5 C0 3.35 0 1.7 0 0 Z " fill="#F6F6F6" transform="translate(147,120)"/>
<path d="M0 0 C0.66 0.66 1.32 1.32 2 2 C-0.31 2.66 -2.62 3.32 -5 4 C-5.99 3.01 -6.98 2.02 -8 1 C-5.23749964 -0.38125018 -3.05268901 -0.19079306 0 0 Z " fill="#CE5F3E" transform="translate(128,35)"/>
<path d="M0 0 C1.32 0 2.64 0 4 0 C4.33 1.98 4.66 3.96 5 6 C4.01 6 3.02 6 2 6 C1.34 6.66 0.68 7.32 0 8 C0 5.36 0 2.72 0 0 Z " fill="#215BA1" transform="translate(88,8)"/>
<path d="M0 0 C1.32 0.66 2.64 1.32 4 2 C4 2.33 4 2.66 4 3 C2.35 3.33 0.7 3.66 -1 4 C-1.33 5.65 -1.66 7.3 -2 9 C-2.99 8.67 -3.98 8.34 -5 8 C-4.45773019 4.20411134 -2.79872437 2.52788007 0 0 Z " fill="#2B6CA4" transform="translate(74,5)"/>
<path d="M0 0 C2.625 0.9375 2.625 0.9375 5 2 C5 2.66 5 3.32 5 4 C4.34 4 3.68 4 3 4 C3 5.98 3 7.96 3 10 C2.67 10 2.34 10 2 10 C1.71125 8.88625 1.4225 7.7725 1.125 6.625 C0.30758671 2.99708908 0.30758671 2.99708908 -2 1 C-1.34 0.67 -0.68 0.34 0 0 Z " fill="#CDCDCD" transform="translate(157,115)"/>
<path d="M0 0 C0.625 2.375 0.625 2.375 1 5 C0.34 5.66 -0.32 6.32 -1 7 C-1 6.34 -1 5.68 -1 5 C-1.66 5 -2.32 5 -3 5 C-3 4.34 -3 3.68 -3 3 C-3.99 2.67 -4.98 2.34 -6 2 C-2.25 0 -2.25 0 0 0 Z " fill="#254C80" transform="translate(109,75)"/>
<path d="M0 0 C1.98 0.99 1.98 0.99 4 2 C4 2.99 4 3.98 4 5 C4.66 5 5.32 5 6 5 C5.67 5.99 5.34 6.98 5 8 C3.68 7.67 2.36 7.34 1 7 C0.67 4.69 0.34 2.38 0 0 Z " fill="#3398C2" transform="translate(128,48)"/>
<path d="M0 0 C1.64666203 0.1135629 3.29236082 0.24117381 4.9375 0.375 C5.85402344 0.44460937 6.77054687 0.51421875 7.71484375 0.5859375 C8.84599609 0.79089844 8.84599609 0.79089844 10 1 C10.33 1.66 10.66 2.32 11 3 C6.97215907 4.15081169 4.71901707 3.96281457 1 2 C0.67 1.34 0.34 0.68 0 0 Z " fill="#DE854C" transform="translate(104,33)"/>
<path d="M0 0 C2.64 0 5.28 0 8 0 C8.33 0.99 8.66 1.98 9 3 C5.625 3.1875 5.625 3.1875 2 3 C1.34 2.01 0.68 1.02 0 0 Z " fill="#DC5D2F" transform="translate(62,42)"/>
<path d="M0 0 C0.33 0 0.66 0 1 0 C1 2.64 1 5.28 1 8 C1.66 8 2.32 8 3 8 C2.01 11.465 2.01 11.465 1 15 C0.67 15 0.34 15 0 15 C0 10.05 0 5.1 0 0 Z " fill="#34B6D0" transform="translate(52,32)"/>
<path d="M0 0 C1.11375 0.3403125 1.11375 0.3403125 2.25 0.6875 C1.92 1.6775 1.59 2.6675 1.25 3.6875 C-1.39 3.3575 -4.03 3.0275 -6.75 2.6875 C-4.29511132 0.41445492 -3.41240272 -0.38777304 0 0 Z " fill="#252525" transform="translate(176.75,117.3125)"/>
<path d="M0 0 C0 1.32 0 2.64 0 4 C-2.92879371 3.37240135 -5.36095629 2.41377341 -8 1 C-2.25 -1.125 -2.25 -1.125 0 0 Z " fill="#4DA6CD" transform="translate(120,41)"/>
<path d="M0 0 C-0.66 1.65 -1.32 3.3 -2 5 C-2.66 3.68 -3.32 2.36 -4 1 C-5.98 1 -7.96 1 -10 1 C-6.42181037 -1.33958553 -4.07775191 -0.9267618 0 0 Z " fill="#DB644C" transform="translate(74,41)"/>
<path d="M0 0 C1.24546405 2.49092811 0.7767578 3.41080733 0 6 C-2.31 5.67 -4.62 5.34 -7 5 C-4.702779 3.25728062 -2.40133271 1.60088848 0 0 Z " fill="#56A6C5" transform="translate(137,32)"/>
<path d="M0 0 C0.99 0.33 1.98 0.66 3 1 C2.34 3.31 1.68 5.62 1 8 C0.34 8 -0.32 8 -1 8 C-0.67 5.36 -0.34 2.72 0 0 Z " fill="#E89631" transform="translate(101,16)"/>
<path d="M0 0 C-0.33 1.32 -0.66 2.64 -1 4 C-3.9375 3.625 -3.9375 3.625 -7 3 C-7.33 2.34 -7.66 1.68 -8 1 C-5.23735711 0.40267181 -2.83967231 0 0 0 Z " fill="#2F2F2F" transform="translate(45,134)"/>
<path d="M0 0 C1.98 0 3.96 0 6 0 C6.33 0.99 6.66 1.98 7 3 C4.69 3 2.38 3 0 3 C0 2.01 0 1.02 0 0 Z " fill="#070707" transform="translate(19,134)"/>
<path d="M0 0 C2.64 0 5.28 0 8 0 C7.34 1.32 6.68 2.64 6 4 C4.68 4 3.36 4 2 4 C1.34 2.68 0.68 1.36 0 0 Z " fill="#262626" transform="translate(147,116)"/>
<path d="M0 0 C-1.125 1.5 -1.125 1.5 -3 3 C-6.1875 3.1875 -6.1875 3.1875 -9 3 C-9 2.34 -9 1.68 -9 1 C-5.8035914 -0.06546953 -3.34252724 -0.07427838 0 0 Z " fill="#36B1DC" transform="translate(65,40)"/>
<path d="M0 0 C0.99 0.33 1.98 0.66 3 1 C3 3.31 3 5.62 3 8 C1.68 7.34 0.36 6.68 -1 6 C-1.042721 4.33388095 -1.04063832 2.66617115 -1 1 C-0.67 0.67 -0.34 0.34 0 0 Z " fill="#3FA5CC" transform="translate(53,26)"/>
<path d="M0 0 C1.2065625 0.0309375 1.2065625 0.0309375 2.4375 0.0625 C2.1075 1.0525 1.7775 2.0425 1.4375 3.0625 C-0.2125 3.3925 -1.8625 3.7225 -3.5625 4.0625 C-3.5625 0.08689024 -3.5625 0.08689024 0 0 Z " fill="#0B0B0B" transform="translate(171.5625,115.9375)"/>
<path d="M0 0 C0.66 0 1.32 0 2 0 C2.38922918 1.28745036 2.76098036 2.58019597 3.125 3.875 C3.33382812 4.59429687 3.54265625 5.31359375 3.7578125 6.0546875 C3.83773437 6.69664063 3.91765625 7.33859375 4 8 C3.34 8.66 2.68 9.32 2 10 C0.68373308 6.38026598 0 3.90432869 0 0 Z " fill="#2E79AE" transform="translate(101,49)"/>
<path d="M0 0 C1.875 0.625 1.875 0.625 4 2 C5.25 5.125 5.25 5.125 6 8 C5.01 8 4.02 8 3 8 C0 2.25 0 2.25 0 0 Z " fill="#E6954A" transform="translate(85,46)"/>
<path d="M0 0 C1.98 1.32 3.96 2.64 6 4 C4 5 4 5 2.0546875 4.44140625 C1.33539063 4.15136719 0.61609375 3.86132812 -0.125 3.5625 C-0.84945312 3.27503906 -1.57390625 2.98757812 -2.3203125 2.69140625 C-3.15175781 2.34916016 -3.15175781 2.34916016 -4 2 C-2.68 1.34 -1.36 0.68 0 0 Z " fill="#F0E2D4" transform="translate(76,39)"/>
<path d="M0 0 C1.98 0.495 1.98 0.495 4 1 C3.34 2.32 2.68 3.64 2 5 C1.01 4.67 0.02 4.34 -1 4 C-0.67 2.68 -0.34 1.36 0 0 Z " fill="#2A2A2A" transform="translate(51,116)"/>
<path d="M0 0 C-0.33 1.32 -0.66 2.64 -1 4 C-1.66 3.67 -2.32 3.34 -3 3 C-4.53668865 2.77532169 -6.07968054 2.59203195 -7.625 2.4375 C-8.44226562 2.35371094 -9.25953125 2.26992187 -10.1015625 2.18359375 C-10.72804687 2.12300781 -11.35453125 2.06242187 -12 2 C-12 1.67 -12 1.34 -12 1 C-10.37512529 0.83211627 -8.75009558 0.66573213 -7.125 0.5 C-6.22007813 0.4071875 -5.31515625 0.314375 -4.3828125 0.21875 C-2 0 -2 0 0 0 Z " fill="#CECECE" transform="translate(65,114)"/>
<path d="M0 0 C0.99 1.32 1.98 2.64 3 4 C2.34 5.32 1.68 6.64 1 8 C-0.32 7.67 -1.64 7.34 -3 7 C-2.34 6.34 -1.68 5.68 -1 5 C-0.35232207 2.42938689 -0.35232207 2.42938689 0 0 Z " fill="#26609E" transform="translate(112,67)"/>
<path d="M0 0 C2.64 0 5.28 0 8 0 C7.34 1.32 6.68 2.64 6 4 C6 3.34 6 2.68 6 2 C5.34 2 4.68 2 4 2 C3.67 2.66 3.34 3.32 3 4 C2.01 2.68 1.02 1.36 0 0 Z " fill="#E59C4C" transform="translate(72,72)"/>
<path d="M0 0 C3 2 3 2 4 4 C2.02 4.33 0.04 4.66 -2 5 C-2 2 -2 2 0 0 Z " fill="#E4E4E4" transform="translate(107,113)"/>
<path d="M0 0 C1.98 0.66 3.96 1.32 6 2 C6 2.66 6 3.32 6 4 C4.125 4.625 4.125 4.625 2 5 C1.34 4.34 0.68 3.68 0 3 C0 2.01 0 1.02 0 0 Z " fill="#F2E7DE" transform="translate(112,37)"/>
<path d="M0 0 C1.65 0.33 3.3 0.66 5 1 C4.67 1.66 4.34 2.32 4 3 C3.34 2.67 2.68 2.34 2 2 C2 2.99 2 3.98 2 5 C1.34 4.67 0.68 4.34 0 4 C0 2.68 0 1.36 0 0 Z " fill="#E27932" transform="translate(117,11)"/>
<path d="M0 0 C-1.65 1.32 -3.3 2.64 -5 4 C-5.33 2.68 -5.66 1.36 -6 0 C-3.50907189 -1.24546405 -2.58919267 -0.7767578 0 0 Z " fill="#EBF2F5" transform="translate(70,10)"/>
</svg>
