<?xml version="1.0" encoding="UTF-8"?>
<svg version="1.1" xmlns="http://www.w3.org/2000/svg" width="320" height="320">
<path d="M0 0 C105.6 0 211.2 0 320 0 C320 105.6 320 211.2 320 320 C214.4 320 108.8 320 0 320 C0 214.4 0 108.8 0 0 Z " fill="#ED3E16" transform="translate(0,0)"/>
<path d="M0 0 C104.94 0 209.88 0 318 0 C318 94 318 94 311 102 C302.73017742 116.08104927 303.3993354 132.64146372 307.35693359 148.05834961 C307.89027203 150.04318766 308.44311521 152.02166044 309 154 C309.30808594 155.15757812 309.61617188 156.31515625 309.93359375 157.5078125 C310.60271294 160.01140678 311.28951023 162.50790332 312 165 C292.31314084 177.80516945 270.36412908 186.93600842 246.5 182.125 C244.7675 181.568125 244.7675 181.568125 243 181 C242.67 180.34 242.34 179.68 242 179 C243.20828678 176.7266308 244.46551752 174.56356212 245.8125 172.375 C251.62877326 162.4925821 254.02549331 152.73266578 251.34765625 141.1875 C249.23302882 135.23387084 246.04126357 130.82742354 241 127 C239.948125 126.566875 238.89625 126.13375 237.8125 125.6875 C233.92680491 123.35608294 233.46106496 120.65177925 231.9765625 116.5 C229.17626915 109.33124903 223.62301511 106.13005509 217 103 C216.278125 102.63132812 215.55625 102.26265625 214.8125 101.8828125 C196.92661589 96.26863221 179.20755193 104.48367439 163.64453125 112.51171875 C159.24099709 114.83136668 154.98892882 117.3310798 150.875 120.13671875 C149 121 149 121 147.0078125 120.91015625 C144.30254266 119.68383743 142.85490938 117.95639348 140.875 115.75 C134.65862407 109.31891372 127.61692756 106.06056963 119 104 C119 103.34 119 102.68 119 102 C118.32453125 101.90976563 117.6490625 101.81953125 116.953125 101.7265625 C113.2441211 100.81402979 110.0839539 99.18315347 106.75 97.375 C105.75093628 96.83540649 105.75093628 96.83540649 104.73168945 96.28491211 C99.38293262 93.33201354 94.60768013 90.02421226 90 86 C89.21496094 85.32324219 88.42992188 84.64648438 87.62109375 83.94921875 C79.19182602 76.52249304 71.15755178 68.64969644 63.8359375 60.125 C59.67398049 55.30775614 55.36539566 50.63220463 51 46 C50.37270996 45.33194336 49.74541992 44.66388672 49.09912109 43.97558594 C34.92738464 29.00077303 19.81732052 16.60577351 0 10 C0 6.7 0 3.4 0 0 Z " fill="#ED3E16" transform="translate(1,1)"/>
<path d="M0 0 C5.0154321 3.47222222 5.0154321 3.47222222 6.25 6.25 C6.83416432 10.20933595 7.08093404 12.66367138 5.21875 16.21875 C1.47078654 21.13274654 -2.72774338 23.21550193 -8.75 24.25 C-16.44387171 25.0908603 -22.16149878 23.96434101 -29.28125 21.08984375 C-32.82309649 19.88494344 -35.20691278 20.13844323 -38.75 21.25 C-40.91582402 22.44842263 -42.76547442 23.74950505 -44.75 25.25 C-44.407695 28.03047743 -44.0123323 29.03324462 -41.81640625 30.84765625 C-33.00307925 36.00365879 -24.89962479 38.43148187 -14.75 39.25 C-14.33041016 40.39275391 -14.33041016 40.39275391 -13.90234375 41.55859375 C-10.00311553 51.60130052 -5.09330207 58.53465931 3.25 65.25 C3.25 65.91 3.25 66.57 3.25 67.25 C1.69148245 68.07011312 0.12798284 68.88076213 -1.4375 69.6875 C-2.30761719 70.13996094 -3.17773438 70.59242188 -4.07421875 71.05859375 C-6.65998264 72.20991928 -8.96356528 72.81320753 -11.75 73.25 C-11.585 72.569375 -11.42 71.88875 -11.25 71.1875 C-10.1332254 64.62644921 -10.58610354 60.73520641 -14.0703125 55.14453125 C-17.34929711 51.44614163 -20.37591762 49.44197851 -25.30078125 48.75390625 C-32.75201459 48.86996907 -38.85605646 49.34728693 -45.75 52.25 C-46.245 57.2 -46.245 57.2 -46.75 62.25 C-46.03714844 62.0334375 -45.32429688 61.816875 -44.58984375 61.59375 C-32.27161351 58.01267634 -32.27161351 58.01267634 -26.4375 60.0625 C-24.75 61.25 -24.75 61.25 -22.75 64.25 C-22.75 71.22565125 -24.85057159 75.3416797 -29.75 80.25 C-34.81286976 84.59288278 -40.20272802 88.55181868 -45.75 92.25 C-45.75 95.22 -45.75 98.19 -45.75 101.25 C-33.87 101.25 -21.99 101.25 -9.75 101.25 C-9.09 97.95 -8.43 94.65 -7.75 91.25 C-10.06 90.92 -12.37 90.59 -14.75 90.25 C-14.42 89.59 -14.09 88.93 -13.75 88.25 C-11.99747405 87.76203013 -10.22056011 87.36077481 -8.4375 87 C-0.68765332 85.17813867 6.72689459 82.19289072 12.8828125 77.05078125 C15.25 75.25 15.25 75.25 18.6875 75.375 C21.95410855 76.17732491 25.06165178 77.18721726 28.25 78.25 C55.44386281 83.21707875 78.87725072 75.59306376 102.25 62.25 C102.91 61.92 103.57 61.59 104.25 61.25 C104.25 107.45 104.25 153.65 104.25 201.25 C35.28 201.25 -33.69 201.25 -104.75 201.25 C-105.41 197.62 -106.07 193.99 -106.75 190.25 C-109.32797251 186.48219402 -111.94586677 182.89300226 -116.62280273 181.82055664 C-122.74154639 181.17821871 -128.67805513 181.31610355 -134.8125 181.6875 C-135.77349609 181.73970703 -136.73449219 181.79191406 -137.72460938 181.84570312 C-140.06685793 181.97388588 -142.40850875 182.10876109 -144.75 182.25 C-143.26990943 177.89869549 -140.91295542 174.51668333 -138.1875 170.875 C-119.01690371 144.51195717 -108.21225887 116.65355289 -104.75 84.25 C-100.91668301 84.22070019 -97.08339529 84.20310103 -93.25 84.1875 C-92.17234375 84.17912109 -91.0946875 84.17074219 -89.984375 84.16210938 C-84.13671618 84.14428115 -78.53136329 84.35894037 -72.75 85.25 C-72.255 93.17 -72.255 93.17 -71.75 101.25 C-68.8109375 101.2809375 -68.8109375 101.2809375 -65.8125 101.3125 C-64.15927734 101.32990234 -64.15927734 101.32990234 -62.47265625 101.34765625 C-59.83552366 101.56262571 -59.83552366 101.56262571 -58.75 100.25 C-58.64040041 98.45395514 -58.60089909 96.65359361 -58.58886719 94.85424805 C-58.57925964 93.69761154 -58.5696521 92.54097504 -58.55975342 91.34928894 C-58.55550354 90.08289078 -58.55125366 88.81649261 -58.546875 87.51171875 C-58.54117493 86.20660843 -58.53547485 84.90149811 -58.52960205 83.55683899 C-58.51906211 80.77494926 -58.5132438 77.99308855 -58.50976562 75.21118164 C-58.50543251 72.39594183 -58.49175445 69.58101744 -58.46875 66.76586914 C-58.33981645 50.70719588 -58.60966784 35.06652213 -61.75 19.25 C-53.55689289 14.20952102 -45.2962805 9.35156081 -36.8125 4.8125 C-36.03285889 4.38791504 -35.25321777 3.96333008 -34.44995117 3.52587891 C-24.35434102 -1.80663551 -10.8396648 -5.09865715 0 0 Z " fill="#ED3F16" transform="translate(214.75,117.75)"/>
<path d="M0 0 C105.6 0 211.2 0 320 0 C320 105.6 320 211.2 320 320 C214.4 320 108.8 320 0 320 C0 214.4 0 108.8 0 0 Z M1 1 C1 105.94 1 210.88 1 319 C105.94 319 210.88 319 319 319 C319 272.8 319 226.6 319 179 C314.05 181.64 309.1 184.28 304 187 C283.10777882 196.78734686 259.175105 201.87409425 236.6875 193.8125 C233.5279999 192.8573023 232.15099946 193.09705481 229 194 C227.29367913 195.04184015 225.628692 196.15305005 224 197.3125 C218.84444457 200.72159356 213.88734396 202.56252701 207.9453125 204.17578125 C205.19595064 204.94516501 202.62744527 205.88988013 200 207 C200 207.33 200 207.66 200 208 C202.31 208.33 204.62 208.66 207 209 C206.34 212.3 205.68 215.6 205 219 C193.12 219 181.24 219 169 219 C169 210 169 210 171.44921875 207.29296875 C172.51785156 206.59816406 173.58648437 205.90335938 174.6875 205.1875 C175.74324219 204.47980469 176.79898438 203.77210938 177.88671875 203.04296875 C178.91410156 202.36878906 179.94148437 201.69460937 181 201 C186.4341383 196.89126129 190.78704521 192.730876 192.0625 185.8125 C192.37090769 182.00378018 192.37090769 182.00378018 190.1875 179.5625 C186.42866636 176.87761883 183.53133368 176.52133799 179 177 C175.28869219 177.85799051 171.64408442 178.89293638 168 180 C168.33 176.7 168.66 173.4 169 170 C176.78908579 166.72038493 184.59178734 165.82525522 193 167 C198.43373707 169.96621166 201.55309719 173.36790474 204 179 C204.4340136 183.26780045 203.86488462 186.83862894 203 191 C210.93207264 188.96937862 210.93207264 188.96937862 218 185 C218 184.34 218 183.68 218 183 C216.85079284 181.97616089 215.65340952 181.00615653 214.4375 180.0625 C207.24159768 173.93832781 202.85838948 165.91144954 200 157 C198.80117188 156.87044922 198.80117188 156.87044922 197.578125 156.73828125 C187.19759813 155.4102561 178.07843769 152.87837992 170 146 C170.0625 144.25 170.0625 144.25 171 142 C174.77332791 139.20773734 176.66868296 137.97534598 181.375 138.0625 C184.11042088 138.76993643 186.55937228 139.57754403 189.1875 140.5625 C196.84396394 143.2103061 205.45513344 143.05016201 213.01953125 140.1015625 C216.61553048 138.10142092 219.08048696 135.64345306 221 132 C221.99485613 127.93574277 221.48938814 124.88089865 219.4375 121.1875 C213.10342794 115.50307636 207.2693415 115.65421472 199.01171875 115.6015625 C190.09575758 116.16887022 182.29617112 120.07540099 174.5625 124.25 C173.64960205 124.73509033 172.7367041 125.22018066 171.79614258 125.7199707 C165.32355997 129.19403388 159.08942844 132.88811462 153 137 C153.21366211 138.07612549 153.42732422 139.15225098 153.64746094 140.26098633 C156.45044347 155.66530662 156.39168678 171.00126751 156.26428223 186.59228516 C156.24496492 189.42615044 156.24111111 192.25995254 156.2375679 195.09387493 C156.23244203 198.4831922 156.21792773 201.872429 156.203125 205.26171875 C156.19887512 206.52811691 156.19462524 207.79451508 156.19024658 209.09928894 C156.18063904 210.25592545 156.17103149 211.41256195 156.16113281 212.60424805 C156.15089081 214.13591866 156.15089081 214.13591866 156.14044189 215.6985321 C156 218 156 218 155 219 C152.98035801 219.07244053 150.95832876 219.08377188 148.9375 219.0625 C147.83277344 219.05347656 146.72804687 219.04445312 145.58984375 219.03515625 C144.30787109 219.01775391 144.30787109 219.01775391 143 219 C142.9845388 218.05065079 142.9845388 218.05065079 142.96876526 217.0821228 C142.85966522 210.42966501 142.74516669 203.77731494 142.62768555 197.125 C142.58466462 194.65008827 142.5429702 192.17515309 142.50268555 189.70019531 C143.08159569 167.50653244 143.08159569 167.50653244 139 146 C136.00269831 146.41822814 133.31744399 146.8730224 130.5 148 C121.72103727 151.51158509 108.82639716 151.55976779 99.74609375 149.12890625 C93.24324529 146.10086231 88.76172598 141.60353041 85.625 135.1875 C84.41584969 129.02083344 83.7916128 123.38898357 87 117.75 C91.90389222 110.93138581 98.75225022 106.53535034 107 105 C118.51484354 103.80115382 129.08915845 105.96788754 138.1953125 113.3359375 C140.71998109 115.66387867 143.02965732 118.16865657 145.26171875 120.77734375 C146.95325124 122.2247715 146.95325124 122.2247715 149.25390625 121.9453125 C152.85218798 120.70664368 155.99507251 118.87291641 159.25 116.9375 C165.0638099 113.57978074 170.9348709 110.4433689 177 107.5625 C177.68094727 107.23306396 178.36189453 106.90362793 179.06347656 106.56420898 C186.98518518 102.85780135 194.21386057 101.6382881 202.9375 101.625 C203.77990234 101.60050781 204.62230469 101.57601562 205.49023438 101.55078125 C214.223164 101.51044439 221.37328023 104.81901711 228.20703125 110.15234375 C232.189457 114.25623783 234.21605319 119.64815958 236 125 C237.66309154 126.20460969 237.66309154 126.20460969 239.6875 127.25 C245.79615362 130.91738165 250.29792143 135.78111582 252.53125 142.640625 C255.18860585 156.01598278 251.39698455 166.38199185 244.328125 177.53125 C243.88984375 178.3459375 243.4515625 179.160625 243 180 C243.33 180.66 243.66 181.32 244 182 C256.15390472 185.90661223 270.01752835 185.01443213 282 181 C283.24265625 180.5978125 284.4853125 180.195625 285.765625 179.78125 C295.65101019 176.41672937 304.25044976 171.6570368 313 166 C312.74476563 165.10474609 312.74476563 165.10474609 312.484375 164.19140625 C311.63037131 161.13425474 310.81638341 158.0674155 310 155 C309.73533936 154.05979004 309.73533936 154.05979004 309.46533203 153.10058594 C305.17147488 137.76052635 302.91056785 120.99123473 310.39453125 106.25390625 C312.94326898 101.80813335 315.32348238 98.67651762 319 95 C319 63.98 319 32.96 319 1 C214.06 1 109.12 1 1 1 Z " fill="#FD6728" transform="translate(0,0)"/>
<path d="M0 0 C6.57070034 2.92895124 11.19329889 10.09766419 15.54296875 15.5703125 C20.33505497 21.54160319 25.51198386 26.61870391 32.98046875 28.8828125 C36.08893748 29.16745318 39.17348862 29.16194383 42.29296875 29.1328125 C43.51790039 29.14441406 43.51790039 29.14441406 44.76757812 29.15625 C51.14210171 29.13593279 56.77931115 28.29727749 62.66796875 25.6953125 C65.48343111 24.706096 67.14987193 25.07407055 69.98046875 25.8828125 C72.72503071 38.38533673 72.10857015 51.52866611 72.04296875 64.2578125 C72.03793842 65.97656118 72.03337826 67.6953113 72.02929688 69.4140625 C72.01928648 73.57037867 71.99969121 77.72648862 71.98046875 81.8828125 C61.42046875 81.5528125 50.86046875 81.2228125 39.98046875 80.8828125 C39.89796875 83.3371875 39.81546875 85.7915625 39.73046875 88.3203125 C38.22748065 117.6129539 24.12521959 144.92454501 7.15087891 168.25683594 C5.47014925 170.591767 3.8792014 172.98303195 2.29296875 175.3828125 C1.83535156 176.07375 1.37773438 176.7646875 0.90625 177.4765625 C0.60074219 177.940625 0.29523438 178.4046875 -0.01953125 178.8828125 C0.60050781 178.73199219 1.22054687 178.58117187 1.859375 178.42578125 C6.19922272 177.67078897 10.52331188 177.43537023 14.91796875 177.1953125 C15.79904297 177.13537109 16.68011719 177.07542969 17.58789062 177.01367188 C24.26162024 176.64874134 29.49470512 177.1440409 34.73046875 181.6953125 C37.49909617 184.23169302 39.17449206 186.12158793 39.98046875 189.8828125 C39.98046875 192.5228125 39.98046875 195.1628125 39.98046875 197.8828125 C34.70046875 197.8828125 29.42046875 197.8828125 23.98046875 197.8828125 C23.98046875 196.2328125 23.98046875 194.5828125 23.98046875 192.8828125 C23.13339355 192.90375977 22.28631836 192.92470703 21.41357422 192.94628906 C18.24906482 193.01475305 15.08493484 193.06475237 11.91992188 193.10253906 C10.55423507 193.12256569 9.18863306 193.14979582 7.82324219 193.18457031 C5.85259773 193.23347682 3.88130892 193.25372597 1.91015625 193.2734375 C0.72663574 193.29438477 -0.45688477 193.31533203 -1.67626953 193.33691406 C-6.56544481 192.67283739 -9.71213982 190.46069871 -12.83203125 186.6953125 C-14.85736982 181.89845799 -15.86215384 177.5880745 -14.27734375 172.5 C-11.46146848 166.46043305 -7.46147994 161.39232049 -3.4140625 156.13671875 C10.68527086 137.38156648 25.38941237 109.83485409 23.98046875 85.8828125 C7.08722981 95.14593852 -4.08217392 106.60393582 -10.09375 125.20703125 C-11.18010646 129.43057321 -12.02560449 133.53869995 -12.39453125 137.8828125 C-13.01953125 140.8828125 -13.01953125 140.8828125 -15.20703125 143.3828125 C-18.01953125 144.8828125 -18.01953125 144.8828125 -21.14453125 144.8203125 C-24.14166166 143.84298737 -25.15797517 143.35045661 -27.01953125 140.8828125 C-29.59004785 124.77928202 -21.60155316 108.43647627 -12.49780273 95.64111328 C-3.28799426 83.39431966 8.08308343 75.81988165 21.98046875 69.8828125 C22.64046875 69.8828125 23.30046875 69.8828125 23.98046875 69.8828125 C21.61853607 58.19746136 17.82284724 48.26609191 11.98046875 37.8828125 C11.43519531 36.89539063 10.88992187 35.90796875 10.328125 34.890625 C6.26851853 28.04190015 1.13645683 22.44353197 -4.34765625 16.73046875 C-10.03335405 10.67071189 -10.03335405 10.67071189 -9.95703125 6.3203125 C-9.01953125 2.8828125 -9.01953125 2.8828125 -7.39453125 0.8828125 C-4.78041567 -0.21786775 -2.80423753 -0.56204334 0 0 Z " fill="#FE4E00" transform="translate(70.01953125,121.1171875)"/>
<path d="M0 0 C0.84240234 -0.02449219 1.68480469 -0.04898438 2.55273438 -0.07421875 C12.04864112 -0.11807975 20.22355735 3.83405049 27.0625 10.375 C32.65094711 17.68296929 34.01174623 24.22873334 33.0625 33.375 C30.7662457 41.20466711 25.78175041 46.89204865 19.0625 51.375 C7.57286244 56.87281548 -5.98217192 58.535591 -18.25 54.75 C-23.52999864 52.75407558 -28.80757242 50.29892169 -32.9375 46.375 C-33.67578125 44.1875 -33.67578125 44.1875 -33.9375 42.375 C-26.29901279 36.39931273 -26.29901279 36.39931273 -21.4375 36.3125 C-19.58608565 36.8745365 -17.73641846 37.45074722 -15.92578125 38.1328125 C-7.3790321 41.2937287 1.53947934 41.77547626 10.1484375 38.41015625 C13.61970992 36.53283545 15.04345213 34.82692055 17.0625 31.375 C17.79514615 28.28698729 17.58340256 26.65668615 17.0625 23.375 C14.18605158 19.59452494 11.5324434 17.80412275 7.0625 16.375 C3.59055175 16.02092266 3.59055175 16.02092266 -0.125 16.0625 C-1.97158203 16.03736328 -1.97158203 16.03736328 -3.85546875 16.01171875 C-12.84452917 16.48687706 -20.6609104 20.47757373 -28.4375 24.6875 C-29.31019531 25.14833984 -30.18289062 25.60917969 -31.08203125 26.08398438 C-37.15520776 29.3185132 -43.06877551 32.78426726 -48.9375 36.375 C-48.72456299 37.45185059 -48.51162598 38.52870117 -48.29223633 39.63818359 C-45.50173273 55.01683313 -45.51269704 70.33807641 -45.6149292 85.90899658 C-45.62853974 88.73495805 -45.62315154 91.56076416 -45.61780071 94.38674355 C-45.61367575 97.77089918 -45.62559539 101.15492164 -45.63671875 104.5390625 C-45.63580734 105.80029938 -45.63489594 107.06153625 -45.63395691 108.36099243 C-45.64348892 109.51755341 -45.65302094 110.67411438 -45.6628418 111.86572266 C-45.66744919 112.88461578 -45.67205658 113.90350891 -45.67680359 114.95327759 C-45.9375 117.375 -45.9375 117.375 -47.9375 119.375 C-50.72265625 119.60546875 -50.72265625 119.60546875 -54 119.5625 C-55.62615234 119.55283203 -55.62615234 119.55283203 -57.28515625 119.54296875 C-59.9375 119.375 -59.9375 119.375 -60.9375 118.375 C-61.05511754 116.79257735 -61.10479546 115.20504123 -61.12695312 113.6184082 C-61.14367065 112.60257156 -61.16038818 111.58673492 -61.1776123 110.54011536 C-61.19118774 109.4298851 -61.20476318 108.31965485 -61.21875 107.17578125 C-61.24636414 105.46312325 -61.24636414 105.46312325 -61.27453613 103.71586609 C-61.33349165 100.03979842 -61.38610504 96.36368064 -61.4375 92.6875 C-61.16900853 69.39997824 -61.16900853 69.39997824 -63.9375 46.375 C-66.93480169 46.79322814 -69.62005601 47.2480224 -72.4375 48.375 C-81.22393269 51.88957308 -94.05384911 51.90303555 -103.15625 49.5390625 C-109.99292123 46.39503777 -115.02451574 41.20096851 -118.375 34.5 C-119.48970706 28.307183 -120.14967074 22.74795437 -116.875 17.125 C-111.43061668 9.60295508 -105.02340391 5.46722626 -95.9375 3.375 C-85.44658008 2.11041187 -75.30791019 3.95918173 -66.625 10.1875 C-63.30732974 12.871922 -60.44760138 15.91282196 -57.67578125 19.15234375 C-55.98424876 20.5997715 -55.98424876 20.5997715 -53.68359375 20.3203125 C-50.08531202 19.08164368 -46.94242749 17.24791641 -43.6875 15.3125 C-37.8736901 11.95478074 -32.0026291 8.8183689 -25.9375 5.9375 C-25.25655273 5.60806396 -24.57560547 5.27862793 -23.87402344 4.93920898 C-15.95231482 1.23280135 -8.72363943 0.0132881 0 0 Z " fill="#FCFAF9" transform="translate(202.9375,100.625)"/>
<path d="M0 0 C5.61 0 11.22 0 17 0 C21.42109008 10.31587686 22.64105336 20.14458045 19 31 C17.04198363 34.54790433 14.88264636 38.11735364 12 41 C12.0655681 42.97329729 12.0655681 42.97329729 12.375 45.25 C12.46523437 46.01828125 12.55546875 46.7865625 12.6484375 47.578125 C12.96122527 49.976054 12.96122527 49.976054 13.515625 52.203125 C14.22505681 56.29952158 14.30508127 60.34937022 14.375 64.5 C14.41238281 65.34175781 14.44976562 66.18351562 14.48828125 67.05078125 C14.55138344 71.50299129 14.43768574 73.41120848 11.703125 77.08984375 C9 79 9 79 5.375 79.0625 C1.51707041 77.84796661 0.83840901 77.50919837 -1 74 C-1.48152812 70.797725 -1.55741765 67.60929797 -1.625 64.375 C-1.67593105 62.65353059 -1.73044494 60.93216232 -1.7890625 59.2109375 C-1.80662598 58.45087402 -1.82418945 57.69081055 -1.84228516 56.90771484 C-1.88802757 54.9139446 -1.88802757 54.9139446 -3 53 C-4.01320313 53.27714844 -5.02640625 53.55429687 -6.0703125 53.83984375 C-7.42183394 54.20588081 -8.77339876 54.57175772 -10.125 54.9375 C-10.79015625 55.11990234 -11.4553125 55.30230469 -12.140625 55.49023438 C-27.75856297 59.70095295 -46.12840168 60.27700895 -60.5625 52.125 C-66.20261873 48.4136739 -69.48507208 44.69093163 -71 38 C-71.75233193 30.02792136 -70.39674501 24.63143183 -65.9375 17.875 C-61.83256037 13.19260709 -54.23637182 9.38059102 -48.02978516 8.82299805 C-28.64789616 8.29294203 -14.41740919 11.6417976 0.03125 25.109375 C1.02746544 26.06605808 2.0233507 27.0233507 3 28 C5.69053648 21.77813439 6.25332944 14.83371357 4.13671875 8.359375 C3.17131505 6.18282848 2.1426456 4.08796686 1 2 C0.505 1.01 0.505 1.01 0 0 Z " fill="#FE4E00" transform="translate(192,1)"/>
<path d="M0 0 C0.33 0 0.66 0 1 0 C1 29.37 1 58.74 1 89 C-14.18 89 -29.36 89 -45 89 C-42.53091202 80.97546407 -40.09615879 73.28569462 -36.9375 65.5625 C-36.59912109 64.71751953 -36.26074219 63.87253906 -35.91210938 63.00195312 C-34.47185373 59.43892223 -33.02083987 56.03857401 -31.19140625 52.65234375 C-29.84228712 49.64889494 -29.89420819 48.98824486 -31 46 C-33.05719633 43.82835195 -35.13086367 41.78830038 -37.3125 39.75 C-42.59151398 34.64237814 -47.37503049 29.35655874 -51.8125 23.5 C-52.32143799 22.84225586 -52.83037598 22.18451172 -53.35473633 21.50683594 C-56.12260558 17.76412265 -57.91671749 14.81650499 -58 10 C-55.9375 7.125 -55.9375 7.125 -53 5 C-50.0625 4.62109375 -50.0625 4.62109375 -47 5 C-44.91015625 6.65234375 -44.91015625 6.65234375 -43.0625 8.9375 C-42.38058594 9.7625 -41.69867188 10.5875 -40.99609375 11.4375 C-39.18832999 13.75823 -37.40337327 16.09423169 -35.625 18.4375 C-31.56706445 23.76648265 -26.81436318 28.36000008 -22 33 C-18.64480842 28.08996354 -15.43012096 23.10494115 -12.30395508 18.046875 C-8.45288532 11.8170973 -4.62718685 5.69499919 0 0 Z " fill="#FE4E00" transform="translate(318,230)"/>
<path d="M0 0 C1.20184937 0.01135986 1.20184937 0.01135986 2.42797852 0.02294922 C19.13190487 0.47597068 33.56637213 7.10922957 45.75 18.4375 C56.44605172 29.7914438 60.885591 42.52209703 61.11328125 57.77734375 C60.75 61.4375 60.75 61.4375 57.75 70.4375 C29.04 70.4375 0.33 70.4375 -29.25 70.4375 C-28.12120484 62.53593387 -26.18150326 57.95676796 -20.23828125 52.63671875 C-10.95554789 45.92048617 -0.48122783 44.43764679 10.75 45.4375 C22.5702814 47.45445278 32.81328129 53.2516527 40.4765625 62.52734375 C41.75 64.4375 41.75 64.4375 41.75 66.4375 C42.41 66.4375 43.07 66.4375 43.75 66.4375 C46.3136028 55.14097386 45.25089259 44.64951849 39.08984375 34.77734375 C32.15906289 25.3418043 22.12521287 19.12369485 10.75 16.4375 C6.82831294 15.88455445 2.89355052 15.48659398 -1.05688477 15.20776367 C-8.44614327 14.61569363 -8.44614327 14.61569363 -11.25 11.4375 C-11.74609375 9.5 -11.74609375 9.5 -11.6875 7.4375 C-11.68621094 6.756875 -11.68492187 6.07625 -11.68359375 5.375 C-10.33056559 -0.67096368 -5.23014424 -0.0685243 0 0 Z " fill="#FE4E00" transform="translate(154.25,248.5625)"/>
<path d="M0 0 C4.95 0 9.9 0 15 0 C13.09670782 10.65843621 13.09670782 10.65843621 12.44921875 12.9453125 C10.41017028 22.27174288 11.3972757 32.97420449 16.32421875 41.21484375 C20.96116477 47.75038184 26.23787964 52.50033412 34 55 C39.57682673 55.82545089 44.3362288 55.19052204 49.265625 52.390625 C52.43777918 49.84718607 53.98707893 46.90293362 55 43 C55.29606298 38.87789233 54.45685862 35.76143103 52.3125 32.1875 C48.13967418 28.24023233 43.85213683 26.93776249 38.375 25.625 C34.79621844 24.68398523 33.1329989 24.11183998 30.25 21.6875 C28.64383659 18.23424866 28.75475644 16.58007524 30 13 C32.19672617 10.46531595 33.62667041 10.05560228 36.9375 9.5625 C47.76280579 10.09909921 57.06115434 14.6607074 64.3125 22.5 C69.85059514 30.7045854 71.01271528 38.210419 70 48 C68.76776289 51.65727973 67.08629839 54.76410862 65 58 C64.443125 58.9075 63.88625 59.815 63.3125 60.75 C56.42994577 67.44653925 48.26340766 70.82844875 38.75 71.375 C27.36223949 71.06085488 17.46568217 65.31572581 9.3125 57.75 C0.93126982 48.82554194 -4.0029937 36.79945831 -4.375 24.5 C-4.29468408 22.99694499 -4.16203623 21.49645222 -4 20 C-3.87109375 18.77796875 -3.7421875 17.5559375 -3.609375 16.296875 C-2.93374143 10.51692072 -2.18157595 5.45393986 0 0 Z " fill="#FE4E00" transform="translate(225,1)"/>
<path d="M0 0 C4.95 0 9.9 0 15 0 C14.53448711 5.39994947 13.68880446 10.47327269 12.4375 15.75 C9.57691084 28.86925372 10.08724874 42.37096227 16.625 54.375 C23.45538514 64.72966248 34.68356466 69.93014008 46.4375 72.75 C55.35816024 74.42493724 64.39585233 74.42514836 73.45288086 74.44628906 C74.62729736 74.46272461 75.80171387 74.47916016 77.01171875 74.49609375 C78.06834717 74.49794678 79.12497559 74.4997998 80.21362305 74.50170898 C83.70398169 75.12589386 84.87697554 76.20414874 87 79 C87.5625 82.5 87.5625 82.5 87 86 C84.86857405 88.42482061 83.14738553 89.80852325 79.91088867 90.34863281 C77.36576213 90.46974155 74.85943885 90.44996424 72.3125 90.375 C71.38421387 90.35848389 70.45592773 90.34196777 69.49951172 90.32495117 C47.90833625 89.7891306 26.51662299 86.71138564 10.06640625 71.26171875 C-1.25840229 58.86651243 -5.52551667 43.81221778 -4.875 27.375 C-4.38814032 17.94276242 -2.52794077 9.07707103 0 0 Z " fill="#FE4E00" transform="translate(94,1)"/>
<path d="M0 0 C7.11524607 3.90619263 10.46344549 10.18360546 12.8515625 17.73046875 C15.35693334 27.78160149 11.73061456 37.88044073 6.76171875 46.69140625 C-0.76027713 58.25507157 -12.08496716 66.03450926 -25.48828125 69.37890625 C-26.2359375 69.56582031 -26.98359375 69.75273437 -27.75390625 69.9453125 C-31.27819789 70.50416446 -34.74497037 70.48529556 -38.30078125 70.44140625 C-40.67265625 70.42078125 -43.04453125 70.40015625 -45.48828125 70.37890625 C-45.48828125 65.42890625 -45.48828125 60.47890625 -45.48828125 55.37890625 C-44.08578125 55.44078125 -42.68328125 55.50265625 -41.23828125 55.56640625 C-29.97623694 55.51868572 -19.89644024 52.09828039 -11.453125 44.5625 C-6.0319653 38.86510286 -2.96229559 32.4418863 -2.05078125 24.62890625 C-2.54591624 20.95076061 -3.51830826 18.51627065 -5.48828125 15.37890625 C-9.52593681 12.68713587 -12.74960035 12.49092226 -17.48828125 13.37890625 C-20.89806701 15.79853619 -20.89806701 15.79853619 -22.48828125 19.37890625 C-22.65556933 22.75394327 -22.55209169 25.98807017 -22.2734375 29.35546875 C-22.48828125 32.37890625 -22.48828125 32.37890625 -24.296875 34.75 C-27.23705785 36.93548351 -28.90052205 36.90212113 -32.48828125 36.37890625 C-35.81349217 34.80866776 -36.40612263 33.59251866 -37.73828125 30.12890625 C-39.5699474 20.97057549 -37.56503606 13.43357486 -32.73828125 5.50390625 C-23.1894146 -3.51446781 -12.11278693 -4.95915813 0 0 Z " fill="#FE4E00" transform="translate(46.48828125,143.62109375)"/>
<path d="M0 0 C4.63602818 0.92720564 8.26802598 2.35888856 12.4375 4.4375 C13.06076172 4.73076172 13.68402344 5.02402344 14.32617188 5.32617188 C27.38838164 11.79936548 37.87229946 21.27913373 47.9375 31.625 C49.01798631 32.71703101 50.09936549 33.80817931 51.18164062 34.8984375 C56.65318155 40.43325168 61.93813578 46.0862221 67 52 C70.60789906 56.05367946 74.2966826 60.03360541 78 64 C78.75410156 64.80953125 79.50820312 65.6190625 80.28515625 66.453125 C90.28239036 76.83137892 101.51655543 83.71898873 114.28930664 90.08959961 C116 91 116 91 119 93 C117.74896484 93.05607422 117.74896484 93.05607422 116.47265625 93.11328125 C110.22947034 93.47800345 104.78093088 94.01515053 99 96.4765625 C96.26335751 97.19279315 94.69587668 96.86494394 92 96 C78.00609631 87.13257588 65.62602323 74.70982382 54.91015625 62.1953125 C52.02331698 58.87751358 49.03059092 55.65738999 46.04711914 52.42675781 C43.46711825 49.62574053 40.95271442 46.78759837 38.5 43.875 C28.05623592 31.95334477 14.85735263 21.7344168 0 16 C0 10.72 0 5.44 0 0 Z " fill="#FE4E00" transform="translate(1,11)"/>
<path d="M0 0 C1.00699951 0.00757324 2.01399902 0.01514648 3.05151367 0.02294922 C10.47808842 0.18751707 16.85369113 1.06729774 23.5625 4.4375 C24.41457031 4.85 25.26664062 5.2625 26.14453125 5.6875 C40.46322384 13.42971166 48.35500467 25.62290576 53.00317383 40.72900391 C55.11994685 47.94799448 55.7667592 54.652097 55.8125 62.125 C55.833125 62.97900391 55.85375 63.83300781 55.875 64.71289062 C55.88273437 65.94362305 55.88273437 65.94362305 55.890625 67.19921875 C55.8999707 67.94131592 55.90931641 68.68341309 55.91894531 69.44799805 C55.4575712 72.02316083 54.64287059 72.88741408 52.5625 74.4375 C49.125 74.875 49.125 74.875 45.5625 74.4375 C43.01322632 72.43476579 41.75013953 71.14486511 40.91235352 67.98657227 C40.83944092 67.08479248 40.76652832 66.1830127 40.69140625 65.25390625 C40.5948877 64.249646 40.49836914 63.24538574 40.39892578 62.21069336 C40.30853027 61.15116455 40.21813477 60.09163574 40.125 59 C38.79912364 46.38536784 36.64367489 33.75495946 26.78515625 24.828125 C18.23645997 17.98916798 10.62913921 15.81057401 -0.25 16.125 C-1.27287109 16.13466797 -2.29574219 16.14433594 -3.34960938 16.15429688 C-7.57824586 16.2179895 -11.33906699 16.41189115 -15.4375 17.4375 C-17.13694195 17.55926794 -18.83979188 17.63756194 -20.54296875 17.68359375 C-21.52716797 17.71646484 -22.51136719 17.74933594 -23.52539062 17.78320312 C-25.57216986 17.84381978 -27.61904856 17.90117597 -29.66601562 17.95507812 C-35.84593717 18.16817887 -41.44434169 18.90031402 -47.4375 20.4375 C-43.58439611 12.06369678 -33.93182169 7.83710336 -25.75 4.54296875 C-17.0351728 1.63460071 -9.22532016 -0.0978196 0 0 Z " fill="#FE4F00" transform="translate(231.4375,83.5625)"/>
<path d="M0 0 C3.53810604 3.36581566 6.3575907 6.75253017 9.0625 10.8125 C12.06603101 15.27014186 15.18360959 19.60061969 18.45800781 23.86352539 C36.70337015 47.66395926 45.77122183 70.75096592 45 101 C40.38 101 35.76 101 31 101 C30.90203125 99.64648438 30.8040625 98.29296875 30.703125 96.8984375 C28.63183882 70.63636557 19.76378512 51.00693059 3.77539062 30.32421875 C0.90783093 26.5702077 -1.83360784 22.73043592 -4.5625 18.875 C-5.03856689 18.21290527 -5.51463379 17.55081055 -6.00512695 16.86865234 C-9.38047501 12.10465479 -12.2528297 7.14955104 -15 2 C-14.00097656 1.93941406 -13.00195312 1.87882813 -11.97265625 1.81640625 C-10.68230469 1.73261719 -9.39195312 1.64882812 -8.0625 1.5625 C-6.77472656 1.48128906 -5.48695313 1.40007812 -4.16015625 1.31640625 C-1.13976043 1.35080812 -1.13976043 1.35080812 0 0 Z " fill="#FE4E00" transform="translate(206,218)"/>
<path d="M0 0 C3.07855711 1.31938162 4.16012662 2.11387138 5.625 5.125 C6.08203125 7.91015625 6.08203125 7.91015625 5.625 11.125 C3.59934706 13.29597797 1.72493541 15.03276189 -0.5625 16.875 C-8.49829751 23.71705105 -12.53610477 30.67161416 -14.375 41.125 C-14.6217801 44.50585274 -14.61122157 47.86183351 -14.5625 51.25 C-14.55822998 52.17216309 -14.55395996 53.09432617 -14.54956055 54.04443359 C-14.5003037 59.32274206 -14.2102402 64.49936505 -13.6875 69.75 C-13.07123595 77.27020762 -14.02286316 84.46586786 -18.6875 90.625 C-22.29581512 93.9815722 -25.36469935 96.125 -30.375 96.125 C-30.45203489 89.17316923 -30.50400576 82.2214513 -30.53979492 75.26928711 C-30.55473897 72.9118234 -30.57510159 70.55438678 -30.60131836 68.19702148 C-30.84059972 46.10337571 -30.98718897 25.2607449 -14.7421875 8.33203125 C-6.04569425 0.2239146 -6.04569425 0.2239146 0 0 Z " fill="#FE4E00" transform="translate(31.375,219.875)"/>
<path d="M0 0 C0.96873047 0.6496875 0.96873047 0.6496875 1.95703125 1.3125 C12.27026992 7.40732778 23.83750907 7.83645709 35.41015625 5.04296875 C38.90035645 4.11519011 38.90035645 4.11519011 41.6875 2.8125 C44.50296236 1.8232835 46.16940318 2.19125805 49 3 C51.97720476 16.66011598 51.08161251 31.1258736 51 45 C40.11 44.34 29.22 43.68 18 43 C17.01 39.535 17.01 39.535 16 36 C12.5003576 24.616317 7.84216048 14.35536102 2 4 C1.32220304 2.67229013 0.6493825 1.34183628 0 0 Z " fill="#ED3F17" transform="translate(91,144)"/>
<path d="M0 0 C2.9375 0.625 2.9375 0.625 5.25 2.75 C10.45326244 11.61481749 8.86314041 26.36643071 6.375 36 C4.22965015 42.60282586 1.06109305 48.06947793 -3.0625 53.625 C-3.53558594 54.28113281 -4.00867187 54.93726563 -4.49609375 55.61328125 C-12.47624129 65.80888051 -25.50620875 72.28399655 -38.0625 74.625 C-40.0425 74.625 -42.0225 74.625 -44.0625 74.625 C-44.0625 70.005 -44.0625 65.385 -44.0625 60.625 C-41.979375 59.944375 -39.89625 59.26375 -37.75 58.5625 C-25.72471611 54.36250309 -17.29933146 48.44656728 -10.75 37.4140625 C-7.21383732 29.82604674 -7.83790719 21.86228816 -8.29711914 13.68505859 C-8.58103317 6.3327277 -8.58103317 6.3327277 -5.75 2.46875 C-3.0625 0.625 -3.0625 0.625 0 0 Z " fill="#FE4E00" transform="translate(45.0625,71.375)"/>
<path d="M0 0 C1.27746094 -0.03738281 2.55492187 -0.07476562 3.87109375 -0.11328125 C9.25276146 0.50746137 12.25074913 2.85499904 15.8125 6.8125 C19.14257571 11.56975101 20.13914118 14.35387452 19.5625 20.3125 C17.7810483 26.85160115 14.91026975 31.64111518 10.24609375 36.5234375 C8.23707119 38.59181609 8.23707119 38.59181609 5.5625 42.3125 C10.8425 42.3125 16.1225 42.3125 21.5625 42.3125 C22.57777342 46.37359369 22.61680484 46.98216838 21.125 50.5625 C20.69380859 51.62210938 20.69380859 51.62210938 20.25390625 52.703125 C20.02574219 53.23421875 19.79757813 53.7653125 19.5625 54.3125 C14.45386104 54.3371501 9.34525641 54.35533607 4.23657227 54.36743164 C2.49730832 54.37247204 0.75804864 54.3793043 -0.98120117 54.38793945 C-3.47575937 54.40001792 -5.97026173 54.40573108 -8.46484375 54.41015625 C-9.24713852 54.41531754 -10.02943329 54.42047882 -10.83543396 54.42579651 C-12.70317114 54.42599226 -14.57079204 54.37449694 -16.4375 54.3125 C-18.45112457 52.29887543 -18.31207579 49.64097902 -18.31640625 46.92578125 C-16.4976372 41.51797459 -10.60537519 38.6017231 -6.06005859 35.50854492 C-3.59340517 33.69028806 -1.53550474 31.53631102 0.5625 29.3125 C1.305 28.549375 2.0475 27.78625 2.8125 27 C5.21742771 23.30671815 5.34976256 20.70907376 5.5625 16.3125 C5.2325 15.3225 4.9025 14.3325 4.5625 13.3125 C-1.08076794 10.92496356 -6.92633397 12.39557268 -12.4375 14.3125 C-14.10371353 14.35136212 -15.77143763 14.3573771 -17.4375 14.3125 C-17.72276214 10.93372848 -17.8723094 7.68227285 -17.4375 4.3125 C-12.78038095 -0.07849796 -6.1063313 0.11683816 0 0 Z " fill="#FCF7F5" transform="translate(185.4375,165.6875)"/>
<path d="M0 0 C1.93166016 0.01740234 1.93166016 0.01740234 3.90234375 0.03515625 C5.19269531 0.04417969 6.48304688 0.05320313 7.8125 0.0625 C8.81152344 0.07410156 9.81054688 0.08570312 10.83984375 0.09765625 C10.86296941 9.07686402 10.88075998 18.05606162 10.89165592 27.03529263 C10.89688426 31.20428453 10.90398101 35.37325612 10.9152832 39.54223633 C10.92611383 43.56223311 10.93212096 47.5822103 10.93472099 51.60222054 C10.93657493 53.139286 10.94019494 54.67635034 10.94557381 56.21340752 C10.95278659 58.35901112 10.95383459 60.5045328 10.95336914 62.65014648 C10.95558975 63.87370346 10.95781036 65.09726044 10.96009827 66.3578949 C10.83984375 69.09765625 10.83984375 69.09765625 9.83984375 70.09765625 C2.44431292 70.57478727 2.44431292 70.57478727 0.31469727 68.89379883 C-9.83778406 56.52965298 -8.42002595 30.10322927 -7.16015625 15.09765625 C-5.32186158 0.16445802 -5.32186158 0.16445802 0 0 Z " fill="#FE4E00" transform="translate(308.16015625,0.90234375)"/>
<path d="M0 0 C2.90362483 2.54067173 2.98866222 3.92315502 3.5625 7.8125 C3.37189172 12.06941825 1.83209496 14.51627018 -1.11328125 17.5234375 C-7.62393875 22.61873468 -16.05898437 22.93601325 -24 22 C-27.82527314 20.99780667 -31.4776914 19.81071774 -35 18 C-36.63671815 14.7265637 -34.95590827 11.90966909 -33.90625 8.546875 C-32.84511998 5.56473375 -31.41380308 2.82760616 -30 0 C-30.33 -0.66 -30.66 -1.32 -31 -2 C-20.8623952 -5.3102383 -9.04157263 -6.25955028 0 0 Z " fill="#ED3F18" transform="translate(218,120)"/>
<path d="M0 0 C6.79508847 1.13251475 11.812233 3.3767457 16.4296875 8.625 C20.93864705 15.2074227 20.74409173 22.29394655 20 30 C17.95384023 35.84485998 13.22429871 40.76227191 8 44 C5.36 44.99 2.72 45.98 0 47 C0 31.49 0 15.98 0 0 Z " fill="#FE4E00" transform="translate(1,62)"/>
<path d="M0 0 C2.80644804 1.97693154 5.00903882 3.91709658 7.20703125 6.5546875 C7.20703125 7.2146875 7.20703125 7.8746875 7.20703125 8.5546875 C6.01078125 9.0290625 4.81453125 9.5034375 3.58203125 9.9921875 C2.90914062 10.25902344 2.23625 10.52585937 1.54296875 10.80078125 C-9.22454963 14.27591678 -25.54421656 14.64614469 -35.79296875 9.5546875 C-38.41796875 7.8046875 -38.41796875 7.8046875 -39.79296875 5.5546875 C-40.35546875 2.0546875 -40.35546875 2.0546875 -39.79296875 -1.4453125 C-29.17016951 -13.00541755 -11.32382136 -7.16878139 0 0 Z " fill="#ED3E16" transform="translate(175.79296875,31.4453125)"/>
<path d="M0 0 C0.71285156 0.45890625 1.42570312 0.9178125 2.16015625 1.390625 C3.11792969 2.00421875 4.07570313 2.6178125 5.0625 3.25 C6.00222656 3.85328125 6.94195312 4.4565625 7.91015625 5.078125 C11.22161184 7.137842 14.6140552 9.0651744 18 11 C18 17.93 18 24.86 18 32 C8.1 32 -1.8 32 -12 32 C-9.75 21.875 -9.75 21.875 -7.6171875 17.08984375 C-7.17246094 16.08115234 -6.72773438 15.07246094 -6.26953125 14.03320312 C-5.80933594 13.01162109 -5.34914063 11.99003906 -4.875 10.9375 C-4.40707031 9.88111328 -3.93914062 8.82472656 -3.45703125 7.73632812 C-2.31200776 5.15418332 -1.15956471 2.57563919 0 0 Z " fill="#ED3E16" transform="translate(301,287)"/>
<path d="M0 0 C4.03843343 2.60254599 6.29289779 5.25369336 7.8125 9.8125 C8.20864654 15.06144167 7.67807317 18.36592094 4.8125 22.8125 C0.66131557 26.75080318 -2.01583816 27.6114202 -7.5625 28.125 C-12.00339418 27.7421643 -13.83050313 26.72189729 -17.1875 23.8125 C-20.43559995 19.64826929 -21.52039488 17.03860566 -21.25 11.75 C-20.48765021 6.69076959 -18.95906339 4.24119399 -15.1875 0.8125 C-10.25711815 -2.0419316 -5.27340493 -1.96460184 0 0 Z " fill="#FE4E00" transform="translate(301.1875,202.1875)"/>
<path d="M0 0 C4.61862787 2.57577324 8.30640263 4.9192079 10 10 C10.52124721 14.96466601 10.53000847 18.87882824 8.375 23.4375 C4.58144754 27.53054344 1.59893059 28.82234105 -3.9375 29.4375 C-8.54542684 29.24329619 -11.2828223 27.69677598 -15 25 C-18.43690459 21.23049174 -18.50871649 17.34142777 -18.35546875 12.4375 C-17.68959366 7.87149937 -15.30677647 5.14837932 -11.9375 2.1875 C-7.97750777 -0.23959201 -4.55426632 -0.38595477 0 0 Z " fill="#FE4E00" transform="translate(124,259)"/>
<path d="M0 0 C5.28 0 10.56 0 16 0 C16.50789063 1.23234375 17.01578125 2.4646875 17.5390625 3.734375 C18.23356207 5.40658786 18.92893419 7.07843849 19.625 8.75 C19.98456787 9.61657227 20.34413574 10.48314453 20.71459961 11.37597656 C22.78743739 16.31257315 25.01167461 21.0444774 27.5625 25.75 C29.23932183 29.00795547 30.42951095 31.36945227 30.0625 35.0625 C28.4301676 39.57541899 28.4301676 39.57541899 26 41 C23.125 41.5 23.125 41.5 20 41 C14.92231108 36.93784886 12.66425916 31.82981291 10 26 C9.34862061 24.60237427 9.34862061 24.60237427 8.68408203 23.17651367 C0 4.35014071 0 4.35014071 0 0 Z " fill="#FE4E00" transform="translate(50,1)"/>
<path d="M0 0 C1.6875 1.1875 1.6875 1.1875 3.6875 4.1875 C3.6875 12.70779616 -0.02764158 16.85652033 -5.81640625 22.7265625 C-10.95728975 27.24494446 -14.8284943 29.65677541 -21.67333984 29.47851562 C-24.90035643 29.16986168 -28.10501735 28.65756211 -31.3125 28.1875 C-30.9825 23.2375 -30.6525 18.2875 -30.3125 13.1875 C-24.3725 13.8475 -18.4325 14.5075 -12.3125 15.1875 C-12.993125 13.62 -13.67375 12.0525 -14.375 10.4375 C-16.37416983 5.8333513 -16.37416983 5.8333513 -16.09765625 2.9375 C-15.3125 1.1875 -15.3125 1.1875 -12.6875 -0.0625 C-8.27288016 -1.04352663 -4.33082243 -1.52164031 0 0 Z " fill="#FE5003" transform="translate(188.3125,177.8125)"/>
<path d="M0 0 C6.42767196 2.36035222 10.83444099 5.95666007 14 12 C5.09177123 18.45846586 -2.98812587 20.22650414 -14 19 C-17.86253298 17.57769544 -19.71138748 15.43291878 -22 12 C-22.4375 9.125 -22.4375 9.125 -22 6 C-15.81229534 -1.327545 -8.99825253 -0.94199054 0 0 Z " fill="#ED421B" transform="translate(121,119)"/>
<path d="M0 0 C4.41636561 4.30312546 6.17076049 6.21574225 6.4375 12.375 C6.38913058 20.40432425 3.29917036 27.4902443 -2.203125 33.34375 C-2.79609375 33.8903125 -3.3890625 34.436875 -4 35 C-15.14369639 25.62143109 -15.14369639 25.62143109 -18 19 C-18 17.68 -18 16.36 -18 15 C-17.35933594 14.731875 -16.71867188 14.46375 -16.05859375 14.1875 C-9.06717977 11.02000395 -3.51082238 7.02164477 0 0 Z " fill="#ED3F18" transform="translate(233,139)"/>
<path d="M0 0 C0.81791016 0.19916016 0.81791016 0.19916016 1.65234375 0.40234375 C7.09902987 1.67789247 12.43120352 2.46963843 18 3 C18.27972656 3.76183594 18.55945313 4.52367187 18.84765625 5.30859375 C22.74688447 15.35130052 27.65669793 22.28465931 36 29 C36 29.66 36 30.32 36 31 C34.44148245 31.82011312 32.87798284 32.63076213 31.3125 33.4375 C30.00732422 34.11619141 30.00732422 34.11619141 28.67578125 34.80859375 C26.09001736 35.95991928 23.78643472 36.56320753 21 37 C21.165 36.319375 21.33 35.63875 21.5 34.9375 C22.62022322 28.3561886 22.29747931 24.26553681 18.4609375 18.796875 C15.31004173 14.9214417 12.72665297 13.24107207 7.7265625 12.54296875 C4.48183542 12.27902674 1.25364843 12.09654743 -2 12 C-1.01 11.67 -0.02 11.34 1 11 C0.67 10.01 0.34 9.02 0 8 C-0.12781786 5.32605036 -0.04391871 2.67904143 0 0 Z " fill="#ED411A" transform="translate(182,154)"/>
<path d="M0 0 C0.86311485 3.76568658 1.19243422 7.32579583 1.25 11.1875 C1.27578125 12.23292969 1.3015625 13.27835938 1.328125 14.35546875 C1.21984375 15.22816406 1.1115625 16.10085937 1 17 C-3.47147366 19.98098244 -7.76267014 19.86073109 -13 19 C-16.48805691 17.01897813 -19.19713391 14.60573218 -21 11 C-21.04022391 8.6670134 -21.04320247 6.33293334 -21 4 C-19.89591797 3.70996094 -19.89591797 3.70996094 -18.76953125 3.4140625 C-17.79371094 3.15367187 -16.81789063 2.89328125 -15.8125 2.625 C-14.84957031 2.36976563 -13.88664062 2.11453125 -12.89453125 1.8515625 C-9.99802779 1.05712802 -9.99802779 1.05712802 -7.3125 -0.125 C-4.48424616 -1.1951501 -2.86405095 -0.81830027 0 0 Z " fill="#FE5103" transform="translate(140,147)"/>
<path d="M0 0 C3.02519989 2.05971056 4.66926776 3.51573824 5.48046875 7.15625 C5.74061616 11.37485661 5.37091002 13.46049451 2.9375 17 C-0.57929494 19.39441358 -2.75226664 20 -7 20 C-10.64886208 18.42435501 -13.13562322 16.53250338 -15 13 C-15.52795493 8.8517827 -15.47613145 6.76521126 -13.25 3.1875 C-8.81777754 -1.12160517 -6.11631301 -1.60955606 0 0 Z " fill="#FE4E00" transform="translate(135,218)"/>
<path d="M0 0 C2.77428577 1.26103899 4.48317435 2.31089914 6.3125 4.75 C7.31199111 8.0210618 7.3581657 10.59742588 7 14 C4.9029767 17.37021602 2.88046613 19.89129539 -1 21 C-5.19641311 20.92370158 -7.45488384 20.37114292 -10.9375 18 C-13.37206575 14.45881346 -13.72498381 12.37469649 -13.5 8.15625 C-12.70000747 4.70628222 -10.74407005 3.09072004 -8 1 C-5.17998673 -0.41000664 -3.12992745 -0.24548451 0 0 Z " fill="#FE4E00" transform="translate(241,210)"/>
<path d="M0 0 C4.00591904 2.16713653 5.41260819 3.46681092 8.25 7.25 C-5.28 7.25 -18.81 7.25 -32.75 7.25 C-30.59269784 1.8567446 -29.57517785 1.00724449 -24.75 -1.75 C-16.59000749 -4.4699975 -7.6483044 -3.70741984 0 0 Z " fill="#ED3E16" transform="translate(172.75,311.75)"/>
<path d="M0 0 C0.51050853 4.849831 0.61806523 7.87309359 -2.4375 11.8125 C-6.73891075 16.27699742 -11.98758473 17.81556641 -18.0625 18.1875 C-19.0215625 18.0946875 -19.0215625 18.0946875 -20 18 C-17.92086719 10.0614929 -13.64514931 6.05515785 -6.8671875 1.98046875 C-4.57097814 0.77471865 -2.61422046 0 0 0 Z " fill="#FE5105" transform="translate(221,124)"/>
<path d="M0 0 C0.33 0 0.66 0 1 0 C1 8.25 1 16.5 1 25 C-8 20 -8 20 -10 17 C-8.36012756 14.16317601 -6.71213309 11.33115748 -5.0625 8.5 C-4.59392578 7.68917969 -4.12535156 6.87835938 -3.64257812 6.04296875 C-3.19462891 5.27597656 -2.74667969 4.50898438 -2.28515625 3.71875 C-1.87144775 3.00654297 -1.45773926 2.29433594 -1.03149414 1.56054688 C-0.69110107 1.04556641 -0.35070801 0.53058594 0 0 Z " fill="#ED3E16" transform="translate(318,256)"/>
<path d="M0 0 C0.33 0 0.66 0 1 0 C1 14.85 1 29.7 1 45 C-5.98250526 31.03498949 -3.11612376 14.61610432 0 0 Z " fill="#EE3F15" transform="translate(318,6)"/>
<path d="M0 0 C5 3 5 3 5.8828125 4.8671875 C6.14275432 7.022189 6.30196619 8.84429694 6 11 C3.625 14 3.625 14 1 16 C0.67 16 0.34 16 0 16 C0 10.72 0 5.44 0 0 Z " fill="#EE3F15" transform="translate(1,77)"/>
<path d="M0 0 C3 1 3 1 5 4 C5.125 6.6875 5.125 6.6875 5 9 C4.01 9.495 4.01 9.495 3 10 C0 3.375 0 3.375 0 0 Z " fill="#EE4F2A" transform="translate(187,178)"/>
</svg>
