<?xml version="1.0" encoding="UTF-8"?>
<svg version="1.1" xmlns="http://www.w3.org/2000/svg" width="640" height="640">
<path d="M0 0 C1.65612305 0.00456207 1.65612305 0.00456207 3.34570312 0.00921631 C21.50838152 0.08282226 38.99657923 1.09852269 56.875 4.4375 C57.9686084 4.63053711 59.0622168 4.82357422 60.18896484 5.02246094 C89.12856472 10.25142291 117.65062273 20.20736833 143.875 33.4375 C144.6474707 33.81970703 145.41994141 34.20191406 146.21582031 34.59570312 C184.29311283 53.50925973 220.56541206 81.9235535 246.875 115.4375 C247.77982185 116.53221031 248.68753673 117.62453384 249.59765625 118.71484375 C281.96433568 157.77453262 303.60572118 205.34515403 314.125 254.8125 C314.35920654 255.89684326 314.59341309 256.98118652 314.8347168 258.09838867 C318.95494422 278.44542788 320.43492147 298.83508854 320.3125 319.5625 C320.30793793 321.21862305 320.30793793 321.21862305 320.30328369 322.90820312 C320.22967774 341.07088152 319.21397731 358.55907923 315.875 376.4375 C315.68196289 377.5311084 315.48892578 378.6247168 315.29003906 379.75146484 C310.06107709 408.69106472 300.10513167 437.21312273 286.875 463.4375 C286.49279297 464.2099707 286.11058594 464.98244141 285.71679688 465.77832031 C266.80324027 503.85561283 238.3889465 540.12791206 204.875 566.4375 C203.78028969 567.34232185 202.68796616 568.25003673 201.59765625 569.16015625 C162.53796738 601.52683568 114.96734597 623.16822118 65.5 633.6875 C64.41565674 633.92170654 63.33131348 634.15591309 62.21411133 634.3972168 C41.86707212 638.51744422 21.47741146 639.99742147 0.75 639.875 C-0.90612305 639.87043793 -0.90612305 639.87043793 -2.59570312 639.86578369 C-20.75838152 639.79217774 -38.24657923 638.77647731 -56.125 635.4375 C-57.2186084 635.24446289 -58.3122168 635.05142578 -59.43896484 634.85253906 C-88.37856472 629.62357709 -116.90062273 619.66763167 -143.125 606.4375 C-143.8974707 606.05529297 -144.66994141 605.67308594 -145.46582031 605.27929688 C-183.54311283 586.36574027 -219.81541206 557.9514465 -246.125 524.4375 C-247.02982185 523.34278969 -247.93753673 522.25046616 -248.84765625 521.16015625 C-281.21433568 482.10046738 -302.85572118 434.52984597 -313.375 385.0625 C-313.60920654 383.97815674 -313.84341309 382.89381348 -314.0847168 381.77661133 C-318.20494422 361.42957212 -319.68492147 341.03991146 -319.5625 320.3125 C-319.55945862 319.20841797 -319.55641724 318.10433594 -319.55328369 316.96679688 C-319.47967774 298.80411848 -318.46397731 281.31592077 -315.125 263.4375 C-314.93196289 262.3438916 -314.73892578 261.2502832 -314.54003906 260.12353516 C-309.31107709 231.18393528 -299.35513167 202.66187727 -286.125 176.4375 C-285.74279297 175.6650293 -285.36058594 174.89255859 -284.96679688 174.09667969 C-266.05324027 136.01938717 -237.6389465 99.74708794 -204.125 73.4375 C-203.03028969 72.53267815 -201.93796616 71.62496327 -200.84765625 70.71484375 C-161.78796738 38.34816432 -114.21734597 16.70677882 -64.75 6.1875 C-63.66565674 5.95329346 -62.58131348 5.71908691 -61.46411133 5.4777832 C-41.11707212 1.35755578 -20.72741146 -0.12242147 0 0 Z " fill="#0084FD" transform="translate(320.125,0.5625)"/>
<path d="M0 0 C22.06141216 -0.2102271 44.12265923 -0.36894201 66.18486977 -0.46630955 C76.42876286 -0.51272059 86.67203367 -0.57599542 96.91552734 -0.67895508 C105.84364464 -0.76865083 114.77131132 -0.82672147 123.69986665 -0.84679645 C128.42791613 -0.85853212 133.15467648 -0.8861143 137.88231277 -0.95157051 C142.33305771 -1.01269339 146.78198374 -1.03149915 151.23310852 -1.01796913 C152.86582199 -1.02044386 154.49859666 -1.03833236 156.13094711 -1.07284927 C168.46687822 -1.32088924 168.46687822 -1.32088924 172.26102829 1.94803047 C173.82675561 4.25133344 174.93876122 6.43178142 176 9 C176.67174728 10.18743591 177.3560996 11.36800291 178.0625 12.53515625 C178.71132733 13.70928799 179.35704911 14.88514007 180 16.0625 C183.99280585 23.26159626 188.10256537 30.38895001 192.25 37.5 C193.13558594 39.02185913 193.13558594 39.02185913 194.0390625 40.57446289 C196.60037435 44.96078186 199.18200736 49.31631951 201.921875 53.59375 C204 57 204 57 204 59 C171 59 138 59 104 59 C112.22299169 73.82366844 112.22299169 73.82366844 120.6875 88.5 C121.88988594 90.55175349 123.09168808 92.60384919 124.29296875 94.65625 C125.2063501 96.21666016 125.2063501 96.21666016 126.13818359 97.80859375 C129.27974006 103.19364831 132.38928325 108.59709124 135.5 114 C140.97550809 123.50606088 146.48421747 132.99204838 152.01831055 142.46411133 C155.4644443 148.36349106 158.89611622 154.27085048 162.3125 160.1875 C166.92177549 168.16735138 171.5836823 176.11594319 176.25 184.0625 C182.39473782 194.52726144 188.48912149 205.01959129 194.54370117 215.53686523 C200.39338633 225.69480118 206.29865161 235.81978106 212.21337891 245.93994141 C214.11780435 249.20177094 216.01827439 252.46588173 217.91796875 255.73046875 C218.55919678 256.83181152 219.2004248 257.9331543 219.86108398 259.06787109 C221.09435557 261.18628643 222.32696994 263.30508454 223.55883789 265.42431641 C224.11176514 266.3735498 224.66469238 267.3227832 225.234375 268.30078125 C225.72131836 269.13778564 226.20826172 269.97479004 226.70996094 270.8371582 C227.75530981 272.58975957 228.86803563 274.30205345 230 276 C229.69358076 280.44193849 228.39592137 283.55889692 226.1484375 287.359375 C225.25282104 288.89150635 225.25282104 288.89150635 224.33911133 290.45458984 C223.69095459 291.5420752 223.04279785 292.62956055 222.375 293.75 C221.360057 295.47657254 220.34513262 297.20315635 219.33131409 298.9303894 C218.62928958 300.1252267 217.9260156 301.31933067 217.22154236 302.51272583 C214.71026001 306.76992011 212.24768406 311.05265683 209.80859375 315.3515625 C209.13177711 316.54074926 208.45485801 317.72987772 207.77783203 318.91894531 C206.48963851 321.18424562 205.20531494 323.45175198 203.92529297 325.72167969 C203.04381592 327.2632373 203.04381592 327.2632373 202.14453125 328.8359375 C201.37653198 330.19017822 201.37653198 330.19017822 200.59301758 331.57177734 C198.96049593 334.06021571 197.1742396 335.97793069 195 338 C194.6189209 337.33806641 194.2378418 336.67613281 193.84521484 335.99414062 C186.9259555 323.97898219 179.99610222 311.97063936 173 300 C164.97716352 286.26954344 157.04141664 272.489219 149.10449219 258.70898438 C141.76455369 245.96724483 134.40198386 233.23954738 126.98583984 220.54199219 C120.44629617 209.34457473 113.9508757 198.12196565 107.4765625 186.88671875 C99.56585386 173.16013044 91.6182562 159.45601132 83.62329102 145.77832031 C81.91266255 142.85051885 80.20420608 139.92145755 78.49609375 136.9921875 C76.27301965 133.18023856 74.04663888 129.37026479 71.81640625 125.5625 C65.48398712 114.74235667 59.20731006 103.89229859 53 93 C47.46000697 83.27882997 41.86625177 73.59105318 36.21655273 63.93310547 C30.71852033 54.53125988 25.27461781 45.09867753 19.83984375 35.66015625 C17.50807564 31.61138632 15.17016138 27.56630874 12.82377625 23.52600098 C11.42600576 21.11892119 10.03020061 18.71070437 8.63449097 16.3024292 C7.64436085 14.59586979 6.65143149 12.89093545 5.65844727 11.18603516 C5.06217529 10.15655762 4.46590332 9.12708008 3.8515625 8.06640625 C3.32385254 7.15834229 2.79614258 6.25027832 2.25244141 5.31469727 C1 3 1 3 0 0 Z " fill="#FCFEFE" transform="translate(123,189)"/>
<path d="M0 0 C2.89797974 -0.36076355 2.89797974 -0.36076355 6.65283203 -0.34057617 C7.33587402 -0.34101425 8.01891602 -0.34145233 8.72265625 -0.34190369 C10.98466388 -0.33981044 13.24593406 -0.31645543 15.5078125 -0.29296875 C17.07436722 -0.28737467 18.64092718 -0.28310369 20.20748901 -0.28010559 C24.33402962 -0.26864192 28.46025429 -0.23916195 32.58666992 -0.20599365 C36.79601772 -0.17532537 41.00541648 -0.16160721 45.21484375 -0.14648438 C53.47670761 -0.11429344 61.73831453 -0.06307904 70 0 C65.64681369 8.00855873 61.21383391 15.96293227 56.6875 23.875 C56.3457373 24.47304443 56.00397461 25.07108887 55.65185547 25.68725586 C49.98193142 35.60506093 44.2259491 45.47047483 38.43127441 55.3157959 C33.19595726 64.21279162 28.03914955 73.15075174 22.9375 82.125 C17.63443028 91.45307676 12.24005283 100.71866402 6.75 109.9375 C1.56352411 118.6470066 -3.54903428 127.3904784 -8.5546875 136.20507812 C-12.40409924 142.97815993 -16.31748346 149.71236459 -20.25 156.4375 C-23.85942516 162.61049784 -27.46521706 168.78391803 -31 175 C-34.47560128 181.10997423 -38.01583813 187.18103023 -41.5625 193.25 C-48.49786898 205.11897877 -55.36915313 217.02428881 -62.23242188 228.93505859 C-66.47764727 236.29618561 -70.73928526 243.64783111 -75 251 C-77.73279465 248.54622942 -79.3751318 245.8688304 -81.1875 242.6875 C-81.79795166 241.62192871 -82.40840332 240.55635742 -83.03735352 239.45849609 C-84.00886353 237.74654053 -84.00886353 237.74654053 -85 236 C-85.67909157 234.81171751 -86.35870259 233.62373174 -87.03881836 232.43603516 C-88.40014602 230.05779531 -89.75933926 227.67835806 -91.11669922 225.29785156 C-93.58213848 220.98061621 -96.06874673 216.67592329 -98.5625 212.375 C-98.99530273 211.62742432 -99.42810547 210.87984863 -99.87402344 210.10961914 C-103.48465061 203.8769889 -107.11721396 197.65723195 -110.75 191.4375 C-115.69346645 182.97365538 -120.60745521 174.49337667 -125.5 166 C-132.04305035 154.64277811 -138.63505147 143.31485757 -145.24853516 131.99853516 C-147.04636405 128.92062401 -148.84188908 125.84137971 -150.63671875 122.76171875 C-151.23645508 121.73280518 -151.83619141 120.7038916 -152.45410156 119.64379883 C-153.63725566 117.61381134 -154.82020349 115.58370362 -156.00292969 113.5534668 C-158.67674604 108.96733029 -161.35836162 104.38633501 -164.06640625 99.8203125 C-164.53336914 99.03197021 -165.00033203 98.24362793 -165.48144531 97.43139648 C-166.34152311 95.98147443 -167.20398898 94.53296511 -168.06933594 93.08618164 C-169.65743643 90.40856243 -171.01201792 87.96394625 -172 85 C-148.9 85 -125.8 85 -102 85 C-97.38 93.25 -92.76 101.5 -88 110 C-82.0399115 120.02456014 -82.0399115 120.02456014 -76 130 C-72.24128479 124.51161054 -68.77358838 118.98230554 -65.625 113.125 C-61.32130979 105.24770235 -56.78711214 97.51998384 -52.1875 89.8125 C-46.59710902 80.43859238 -41.13083944 71.00535383 -35.78930664 61.48681641 C-31.40703362 53.68816462 -26.91757565 45.9559472 -22.39697266 38.23681641 C-19.19774564 32.77195416 -16.0123114 27.29968356 -12.8515625 21.8125 C-12.33573105 20.91704216 -12.33573105 20.91704216 -11.80947876 20.00349426 C-10.13712185 17.09922164 -8.46652497 14.19395289 -6.79736328 11.2878418 C-6.19907715 10.24797119 -5.60079102 9.20810059 -4.984375 8.13671875 C-4.45553711 7.21592529 -3.92669922 6.29513184 -3.38183594 5.34643555 C-2.31175189 3.52937233 -1.16972036 1.75458054 0 0 Z " fill="#FCFEFE" transform="translate(445,189)"/>
<path d="M0 0 C0.68043297 -0.00085442 1.36086593 -0.00170885 2.06191808 -0.00258917 C4.3466693 -0.00423901 6.63134744 0.00126932 8.91609192 0.00672913 C10.55198159 0.00701113 12.18787139 0.006853 13.82376099 0.00628662 C18.26973358 0.00599916 22.71567931 0.01188758 27.16164565 0.01886058 C31.80613682 0.02510269 36.45062857 0.0256986 41.09512329 0.02688599 C49.89235561 0.02999677 58.68957554 0.03820676 67.4868024 0.04823548 C77.50119002 0.05940446 87.51557823 0.06490905 97.52997053 0.06993091 C118.13239877 0.08038957 138.73481586 0.09798413 159.3372345 0.12025452 C159.3372345 1.11025452 159.3372345 2.10025452 159.3372345 3.12025452 C160.2653595 3.12025452 161.1934845 3.12025452 162.1497345 3.12025452 C165.3372345 4.12025452 165.3372345 4.12025452 166.298172 5.79212952 C166.79053117 7.20038264 167.24934044 8.62073427 167.67707825 10.04994202 C168.31934207 12.34533206 168.31934207 12.34533206 170.0872345 14.99525452 C170.7059845 16.04712952 170.7059845 16.04712952 171.3372345 17.12025452 C171.0072345 17.78025452 170.6772345 18.44025452 170.3372345 19.12025452 C169.75836109 17.73987865 169.75836109 17.73987865 169.16779327 16.3316164 C167.36797978 12.53488211 165.46388871 8.98680782 162.3372345 6.12025452 C156.86888724 4.19640918 151.53562432 4.41157218 145.82356262 4.55262756 C144.14749721 4.54642583 142.47144471 4.53450458 140.79545593 4.51731873 C136.26152321 4.48694195 131.73158895 4.53625662 127.19813728 4.60020423 C122.4548706 4.65345777 117.71192688 4.6329984 112.96846008 4.62045288 C103.99364149 4.60786815 95.02048625 4.66130137 86.04604101 4.73862439 C75.82596648 4.82345279 65.60622663 4.83442923 55.38584995 4.83929002 C34.36898345 4.85093565 13.3534181 4.95504018 -7.6627655 5.12025452 C-7.354599 5.62476135 -7.0464325 6.12926819 -6.72892761 6.64906311 C-5.3443559 8.92617082 -3.97220918 11.21051833 -2.6002655 13.49525452 C-2.11493347 14.28931702 -1.62960144 15.08337952 -1.12956238 15.90150452 C-0.44797058 17.04232483 -0.44797058 17.04232483 0.24739075 18.20619202 C0.67157288 18.90792542 1.095755 19.60965881 1.53279114 20.33265686 C1.79825745 20.92256409 2.06372375 21.51247131 2.3372345 22.12025452 C2.0072345 22.78025452 1.6772345 23.44025452 1.3372345 24.12025452 C0.49817884 22.9995159 -0.33384381 21.87350904 -1.1627655 20.74525452 C-1.626828 20.11877014 -2.0908905 19.49228577 -2.5690155 18.84681702 C-3.6627655 17.12025452 -3.6627655 17.12025452 -3.6627655 15.12025452 C-4.3227655 15.12025452 -4.9827655 15.12025452 -5.6627655 15.12025452 C-5.6627655 13.80025452 -5.6627655 12.48025452 -5.6627655 11.12025452 C-6.3227655 11.12025452 -6.9827655 11.12025452 -7.6627655 11.12025452 C-8.3227655 7.82025452 -8.9827655 4.52025452 -9.6627655 1.12025452 C-6.23497755 -0.02234147 -3.61628602 -0.00272927 0 0 Z " fill="#0483F6" transform="translate(130.6627655029297,183.87974548339844)"/>
<path d="M0 0 C57.42 0 114.84 0 174 0 C174.99 2.64 175.98 5.28 177 8 C177.5775 8.94875 178.155 9.8975 178.75 10.875 C179.36875 11.926875 179.36875 11.926875 180 13 C179.67 13.66 179.34 14.32 179 15 C178.6140844 14.07974942 178.22816879 13.15949884 177.83055878 12.21136189 C176.03074528 8.4146276 174.12665421 4.8665533 171 2 C165.53165274 0.07615467 160.19838982 0.29131766 154.48632812 0.43237305 C152.81026271 0.42617131 151.13421021 0.41425007 149.45822144 0.39706421 C144.92428871 0.36668743 140.39435445 0.4160021 135.86090279 0.47994971 C131.1176361 0.53320325 126.37469238 0.51274388 121.63122559 0.50019836 C112.656407 0.48761364 103.68325175 0.54104686 94.70880651 0.61836988 C84.48873198 0.70319827 74.26899213 0.71417471 64.04861546 0.71903551 C43.03174895 0.73068113 22.01618361 0.83478566 1 1 C1.3081665 1.50450684 1.61633301 2.00901367 1.93383789 2.52880859 C3.3184096 4.8059163 4.69055632 7.09026381 6.0625 9.375 C6.54783203 10.1690625 7.03316406 10.963125 7.53320312 11.78125 C7.98759766 12.54179687 8.44199219 13.30234375 8.91015625 14.0859375 C9.33433838 14.7876709 9.75852051 15.4894043 10.19555664 16.21240234 C10.46102295 16.80230957 10.72648926 17.3922168 11 18 C10.67 18.66 10.34 19.32 10 20 C9.16094435 18.87926138 8.32892169 17.75325453 7.5 16.625 C6.80390625 15.68527344 6.80390625 15.68527344 6.09375 14.7265625 C5 13 5 13 5 11 C4.34 11 3.68 11 3 11 C3 9.68 3 8.36 3 7 C2.34 7 1.68 7 1 7 C0.67 4.69 0.34 2.38 0 0 Z " fill="#4B92D0" transform="translate(122,188)"/>
<path d="M0 0 C4 4.75 4 4.75 4 7 C-29 7 -62 7 -96 7 C-96.33 7.66 -96.66 8.32 -97 9 C-97 7.68 -97 6.36 -97 5 C-84.64814675 4.84636111 -72.2962414 4.69817929 -59.94423866 4.5570364 C-54.20920849 4.49133077 -48.47421379 4.42371895 -42.73925781 4.35180664 C-37.20856552 4.28252486 -31.67783615 4.21817725 -26.14704514 4.15730476 C-24.03303301 4.13316001 -21.9190407 4.10721308 -19.80507278 4.07946587 C-16.85266471 4.04101624 -13.90025223 4.00887547 -10.94775391 3.97827148 C-10.0666243 3.96532547 -9.18549469 3.95237946 -8.27766418 3.93904114 C-2.22810432 3.88594784 -2.22810432 3.88594784 0 5 C0 3.35 0 1.7 0 0 Z " fill="#CFEFFE" transform="translate(323,241)"/>
<path d="M0 0 C56.1 0 112.2 0 170 0 C170.99 1.98 170.99 1.98 172 4 C170.98879215 3.6749605 169.9775843 3.349921 168.9357338 3.01503181 C165.24865243 1.96699554 161.87482427 1.75350304 158.02825928 1.75949097 C157.36285952 1.75778212 156.69745976 1.75607327 156.01189637 1.75431263 C153.80176357 1.75104142 151.59194036 1.76198196 149.38183594 1.77294922 C147.78963223 1.77351386 146.19742801 1.77319573 144.60522461 1.77206421 C140.29561185 1.77149163 135.98611098 1.78323185 131.67652416 1.79721212 C127.16425842 1.80974148 122.65198993 1.81089194 118.13970947 1.81326294 C109.59761898 1.81947359 101.05557981 1.83587668 92.5135119 1.85596192 C82.7985747 1.8783109 73.08363508 1.88931562 63.36867857 1.89935279 C44.20562725 1.91938726 25.04261912 1.95232754 5.87960434 1.99441338 C3.91973903 1.99821565 1.959869 2 0 2 C0 1.34 0 0.68 0 0 Z " fill="#DFFDFE" transform="translate(123,189)"/>
<path d="M0 0 C23.1 0 46.2 0 70 0 C64 11 64 11 62 13 C62.33 10.69 62.66 8.38 63 6 C63.66 6 64.32 6 65 6 C65.33 4.68 65.66 3.36 66 2 C44.55 2.33 23.1 2.66 1 3 C0.34 4.32 -0.32 5.64 -1 7 C-1.66 7 -2.32 7 -3 7 C-1.125 2.25 -1.125 2.25 0 0 Z " fill="#E5FDFE" transform="translate(445,189)"/>
<path d="M0 0 C23.1 0 46.2 0 70 0 C70.495 0.99 70.495 0.99 71 2 C47.9 2 24.8 2 1 2 C0.34 3.65 -0.32 5.3 -1 7 C-1.83986306 8.45830768 -2.71376687 9.89769067 -3.625 11.3125 C-4.07101562 12.00988281 -4.51703125 12.70726562 -4.9765625 13.42578125 C-5.31429688 13.94527344 -5.65203125 14.46476563 -6 15 C-7 13 -7 13 -6.3125 9.625 C-4.9902816 5.97315872 -3.8673947 4.49740829 -1 2 C-0.67 1.34 -0.34 0.68 0 0 Z " fill="#2B89DF" transform="translate(444,187)"/>
<path d="M0 0 C23.1 0 46.2 0 70 0 C70.495 1.98 70.495 1.98 71 4 C70.01 3.67 69.02 3.34 68 3 C65.93033536 2.88265016 63.85721666 2.82318373 61.78442383 2.79467773 C60.5033223 2.77473251 59.22222076 2.75478729 57.90229797 2.73423767 C56.50387696 2.7172546 55.10545469 2.70037575 53.70703125 2.68359375 C52.2764171 2.66301834 50.84580895 2.64202171 49.41520691 2.62062073 C45.65219994 2.56546067 41.88913865 2.51602471 38.1260376 2.46777344 C34.28514784 2.41751407 30.44433684 2.36185117 26.60351562 2.30664062 C19.06907713 2.19913327 11.53457309 2.09767189 4 2 C4.66 3.32 5.32 4.64 6 6 C5.34 6.66 4.68 7.32 4 8 C0 2.25 0 2.25 0 0 Z " fill="#B4DFF7" transform="translate(273,274)"/>
<path d="M0 0 C32.67 0 65.34 0 99 0 C99 0.33 99 0.66 99 1 C67.98 1 36.96 1 5 1 C4.67 2.65 4.34 4.3 4 6 C4.66 6 5.32 6 6 6 C6.66 8.64 7.32 11.28 8 14 C5.50447597 11.72402354 3.93377014 9.39278822 2.3125 6.4375 C1.87550781 5.65246094 1.43851563 4.86742187 0.98828125 4.05859375 C0 2 0 2 0 0 Z " fill="#1E82DE" transform="translate(227,248)"/>
<path d="M0 0 C0.33 1.32 0.66 2.64 1 4 C0.01 4.495 0.01 4.495 -1 5 C-1 5.99 -1 6.98 -1 8 C-1.66 8 -2.32 8 -3 8 C-3 8.99 -3 9.98 -3 11 C-3.66 11 -4.32 11 -5 11 C-5.28875 11.9075 -5.5775 12.815 -5.875 13.75 C-6.76531776 16.32202908 -7.71494413 18.61346766 -9 21 C-9.66 21 -10.32 21 -11 21 C-11.66 23.31 -12.32 25.62 -13 28 C-13.66 28 -14.32 28 -15 28 C-15.99 31.465 -15.99 31.465 -17 35 C-17.66 35 -18.32 35 -19 35 C-19.33 36.98 -19.66 38.96 -20 41 C-21.485 41.495 -21.485 41.495 -23 42 C-23.0825 42.94875 -23.165 43.8975 -23.25 44.875 C-24 48 -24 48 -26.0625 49.375 C-26.701875 49.58125 -27.34125 49.7875 -28 50 C-26.63846404 46.40627229 -25.0385227 43.09938881 -23.1640625 39.74609375 C-22.59961426 38.73538818 -22.03516602 37.72468262 -21.45361328 36.68334961 C-20.8501709 35.61221924 -20.24672852 34.54108887 -19.625 33.4375 C-19.00737793 32.33736572 -18.38975586 31.23723145 -17.75341797 30.10375977 C-12.02689829 19.95313391 -6.07633308 9.94447071 0 0 Z " fill="#2586DC" transform="translate(514,190)"/>
<path d="M0 0 C0.66 0 1.32 0 2 0 C2.66 1.65 3.32 3.3 4 5 C4.99 5 5.98 5 7 5 C7.25523437 5.96099609 7.25523437 5.96099609 7.515625 6.94140625 C9.07167642 12.49518551 10.81797158 17.17563433 14 22 C14.66 22.33 15.32 22.66 16 23 C16.6328125 24.84765625 16.6328125 24.84765625 17.125 27.0625 C17.29257812 27.79597656 17.46015625 28.52945313 17.6328125 29.28515625 C17.75398438 29.85105469 17.87515625 30.41695312 18 31 C13.47623545 26.93168813 10.88991561 21.26703613 7.875 16.0625 C6.90626953 14.41604492 6.90626953 14.41604492 5.91796875 12.73632812 C5.30308594 11.67994141 4.68820312 10.62355469 4.0546875 9.53515625 C3.49249512 8.569729 2.93030273 7.60430176 2.35107422 6.60961914 C1.18168459 4.35092638 0.46401615 2.48318277 0 0 Z " fill="#1B86E4" transform="translate(309,215)"/>
<path d="M0 0 C0.66 0 1.32 0 2 0 C2 0.66 2 1.32 2 2 C2.66 2 3.32 2 4 2 C6 5 6 5 6 9 C6.66 9 7.32 9 8 9 C9.25664978 11.90600261 10 13.79604584 10 17 C10.66 17 11.32 17 12 17 C12.86375896 18.61992165 13.71575854 20.24611861 14.5625 21.875 C15.03816406 22.77992188 15.51382812 23.68484375 16.00390625 24.6171875 C16.33261719 25.40351563 16.66132813 26.18984375 17 27 C16.67 27.66 16.34 28.32 16 29 C11.73008011 22.16358571 7.5306459 15.29297886 3.5 8.3125 C3.15001953 7.7129248 2.80003906 7.11334961 2.43945312 6.49560547 C0 2.23637921 0 2.23637921 0 0 Z " fill="#2385DC" transform="translate(271,324)"/>
<path d="M0 0 C1.32 0 2.64 0 4 0 C5 3 5 3 5.40380859 5.40161133 C6.04900368 8.21357337 7.04034245 10.11808476 8.5390625 12.57421875 C9.03664063 13.40630859 9.53421875 14.23839844 10.046875 15.09570312 C11.10627695 16.83558727 12.16617965 18.57516662 13.2265625 20.31445312 C13.7215625 21.14267578 14.2165625 21.97089844 14.7265625 22.82421875 C15.18627441 23.57791748 15.64598633 24.33161621 16.11962891 25.1081543 C16.41015137 25.73246338 16.70067383 26.35677246 17 27 C16.67 27.66 16.34 28.32 16 29 C11.73008011 22.16358571 7.5306459 15.29297886 3.5 8.3125 C3.15001953 7.7129248 2.80003906 7.11334961 2.43945312 6.49560547 C0 2.23637921 0 2.23637921 0 0 Z " fill="#2185DF" transform="translate(321,410)"/>
<path d="M0 0 C1.17784727 4.71138907 0.61387107 5.55716888 -1.625 9.6875 C-2.13289063 10.66074219 -2.64078125 11.63398438 -3.1640625 12.63671875 C-5 15 -5 15 -7.5859375 15.95703125 C-8.38257813 15.97121094 -9.17921875 15.98539062 -10 16 C-10.66 15.34 -11.32 14.68 -12 14 C-11.625 11.875 -11.625 11.875 -11 10 C-10.01 11.32 -9.02 12.64 -8 14 C-5.36 9.38 -2.72 4.76 0 0 Z " fill="#1A86E4" transform="translate(378,425)"/>
<path d="M0 0 C0.33 1.32 0.66 2.64 1 4 C0.34 4 -0.32 4 -1 4 C-1 4.99 -1 5.98 -1 7 C-1.66 7 -2.32 7 -3 7 C-2.690625 8.1446875 -2.690625 8.1446875 -2.375 9.3125 C-2 12 -2 12 -4 15 C-4.99 15 -5.98 15 -7 15 C-7 15.66 -7 16.32 -7 17 C-7.66 17 -8.32 17 -9 17 C-7.51481201 12.95698825 -5.57122002 9.38853744 -3.375 5.6875 C-2.74335938 4.61886719 -2.11171875 3.55023438 -1.4609375 2.44921875 C-0.97882813 1.64097656 -0.49671875 0.83273437 0 0 Z " fill="#1E87E4" transform="translate(342,487)"/>
<path d="M0 0 C0.33 0.66 0.66 1.32 1 2 C0.04060332 3.69036558 -0.96642853 5.35394174 -2 7 C-2.30164063 7.78503906 -2.60328125 8.57007813 -2.9140625 9.37890625 C-4.03355558 12.08099206 -5.38929952 14.23236443 -7.0625 16.625 C-8.83987829 19.17156156 -10.01065939 21.03197816 -11 24 C-11.66 24 -12.32 24 -13 24 C-11.20469881 18.95263894 -8.55008635 14.40609448 -5.9375 9.75 C-5.47794922 8.92242187 -5.01839844 8.09484375 -4.54492188 7.2421875 C-1.13705937 1.13705937 -1.13705937 1.13705937 0 0 Z " fill="#2989DE" transform="translate(448,304)"/>
<path d="M0 0 C1.98 0.66 3.96 1.32 6 2 C6.144375 3.0725 6.28875 4.145 6.4375 5.25 C6.83749442 7.91662949 7.27591924 10.41399729 8 13 C4.32117927 9.71533863 2.24849899 6.33639092 0 2 C0 1.34 0 0.68 0 0 Z " fill="#DBF4FA" transform="translate(156,246)"/>
<path d="M0 0 C0.66 0 1.32 0 2 0 C0.42986223 5.96652354 -2.75029782 10.82909025 -6 16 C-6.93045933 13.44855176 -7.08564091 12.25993522 -6.22265625 9.640625 C-5.83980469 8.85171875 -5.45695312 8.0628125 -5.0625 7.25 C-4.68222656 6.45078125 -4.30195313 5.6515625 -3.91015625 4.828125 C-3.60980469 4.22484375 -3.30945313 3.6215625 -3 3 C-2.34 3 -1.68 3 -1 3 C-0.67 2.01 -0.34 1.02 0 0 Z " fill="#D7F3FD" transform="translate(496,217)"/>
<path d="M0 0 C1.32 0 2.64 0 4 0 C4.33 1.98 4.66 3.96 5 6 C5.99 6.33 6.98 6.66 8 7 C9.125 12.625 9.125 12.625 8 16 C6.66141476 13.71125827 5.32898986 11.41930344 4 9.125 C3.6184375 8.47402344 3.236875 7.82304687 2.84375 7.15234375 C0 2.2265625 0 2.2265625 0 0 Z " fill="#1D83E1" transform="translate(340,443)"/>
<path d="M0 0 C1.08949453 3.26848358 1.23747441 3.90631397 0 7 C-1.64169528 9.02054804 -3.30911778 11.02043058 -5 13 C-6.27852287 15.21587348 -6.27852287 15.21587348 -7 17 C-7.66 17 -8.32 17 -9 17 C-7.51481201 12.95698825 -5.57122002 9.38853744 -3.375 5.6875 C-2.74335938 4.61886719 -2.11171875 3.55023438 -1.4609375 2.44921875 C-0.97882813 1.64097656 -0.49671875 0.83273437 0 0 Z " fill="#2088E1" transform="translate(401,385)"/>
<path d="M0 0 C1 2 1 2 0.0625 5.125 C-0.288125 6.07375 -0.63875 7.0225 -1 8 C-1.66 8 -2.32 8 -3 8 C-3.66 9.98 -4.32 11.96 -5 14 C-5.66 14 -6.32 14 -7 14 C-7.33 15.65 -7.66 17.3 -8 19 C-8.66 19 -9.32 19 -10 19 C-8.62394084 14.23448987 -6.53221934 10.2751447 -3.875 6.125 C-3.50246094 5.53203125 -3.12992187 4.9390625 -2.74609375 4.328125 C-1.83635 2.8818657 -0.91896202 1.44041954 0 0 Z " fill="#2689E0" transform="translate(426,342)"/>
<path d="M0 0 C1 3 1 3 0.22265625 5.04296875 C-0.16019531 5.75066406 -0.54304688 6.45835937 -0.9375 7.1875 C-1.31777344 7.90292969 -1.69804687 8.61835938 -2.08984375 9.35546875 C-2.39019531 9.89816406 -2.69054687 10.44085938 -3 11 C-3.66 11 -4.32 11 -5 11 C-5 11.99 -5 12.98 -5 14 C-5.66 14 -6.32 14 -7 14 C-7.33 15.65 -7.66 17.3 -8 19 C-8.66 19 -9.32 19 -10 19 C-8.62394084 14.23448987 -6.53221934 10.2751447 -3.875 6.125 C-3.50246094 5.53203125 -3.12992187 4.9390625 -2.74609375 4.328125 C-1.83635 2.8818657 -0.91896202 1.44041954 0 0 Z " fill="#D3F1FE" transform="translate(426,222)"/>
<path d="M0 0 C2.81438858 1.40719429 2.86145924 3.09128987 4 6 C5.82562579 9.15335364 7.72733563 12.25224287 9.63671875 15.35546875 C10.08660156 16.22816406 10.53648437 17.10085937 11 18 C10.67 18.66 10.34 19.32 10 20 C9.16094435 18.87926138 8.32892169 17.75325453 7.5 16.625 C6.80390625 15.68527344 6.80390625 15.68527344 6.09375 14.7265625 C5 13 5 13 5 11 C4.34 11 3.68 11 3 11 C3 9.68 3 8.36 3 7 C2.34 7 1.68 7 1 7 C0.67 4.69 0.34 2.38 0 0 Z " fill="#2487E2" transform="translate(122,188)"/>
<path d="M0 0 C2.9552728 2.61778794 4.75832727 5.67583335 6.75 9.0625 C7.38421875 10.12597656 8.0184375 11.18945312 8.671875 12.28515625 C9.11015625 13.18105469 9.5484375 14.07695312 10 15 C9.67 15.66 9.34 16.32 9 17 C8.67 16.01 8.34 15.02 8 14 C7.34 14 6.68 14 6 14 C6 13.01 6 12.02 6 11 C5.01 11.33 4.02 11.66 3 12 C2 8 1 4 0 0 Z " fill="#1F87E1" transform="translate(329,372)"/>
<path d="M0 0 C4.20782635 4.69334478 7.45213641 10.24646076 10 16 C9.67 16.66 9.34 17.32 9 18 C7.87162591 16.41906946 6.74743482 14.83515284 5.625 13.25 C4.99851563 12.36828125 4.37203125 11.4865625 3.7265625 10.578125 C1.08665922 6.63618798 0 4.84292591 0 0 Z " fill="#2487E1" transform="translate(226,368)"/>
<path d="M0 0 C3.18019683 2.9238411 5.25351309 5.83401169 7.3125 9.625 C7.84488281 10.58664062 8.37726563 11.54828125 8.92578125 12.5390625 C9.28027344 13.35117187 9.63476562 14.16328125 10 15 C9.67 15.66 9.34 16.32 9 17 C8.18071114 15.75443908 7.36984814 14.50333365 6.5625 13.25 C6.11003906 12.55390625 5.65757812 11.8578125 5.19140625 11.140625 C4.0391991 9.07042986 3.45323018 7.31303676 3 5 C2.01 5.33 1.02 5.66 0 6 C0 4.02 0 2.04 0 0 Z " fill="#2487E0" transform="translate(197,319)"/>
<path d="M0 0 C0.66 0 1.32 0 2 0 C0.56032356 5.23518706 -1.81696611 9.63026009 -5 14 C-5.33 14 -5.66 14 -6 14 C-6 12.35 -6 10.7 -6 9 C-5.34 9 -4.68 9 -4 9 C-4.33 7.68 -4.66 6.36 -5 5 C-4.01 5 -3.02 5 -2 5 C-1.34 3.35 -0.68 1.7 0 0 Z " fill="#2288E1" transform="translate(409,247)"/>
<path d="M0 0 C0.66 0 1.32 0 2 0 C2.33773438 0.63808594 2.67546875 1.27617187 3.0234375 1.93359375 C3.46945312 2.75988281 3.91546875 3.58617187 4.375 4.4375 C4.81585938 5.26121094 5.25671875 6.08492187 5.7109375 6.93359375 C6.83418559 9.13466578 6.83418559 9.13466578 9 10 C9.6328125 11.84765625 9.6328125 11.84765625 10.125 14.0625 C10.29257812 14.79597656 10.46015625 15.52945313 10.6328125 16.28515625 C10.75398438 16.85105469 10.87515625 17.41695312 11 18 C7.73171993 15.21629142 5.87542089 11.56811335 3.8125 7.875 C3.44447266 7.22917969 3.07644531 6.58335937 2.69726562 5.91796875 C0 1.14395872 0 1.14395872 0 0 Z " fill="#2184DB" transform="translate(316,228)"/>
<path d="M0 0 C0.66 0.33 1.32 0.66 2 1 C-0.97 6.28 -3.94 11.56 -7 17 C-8.27514492 13.17456525 -7.52740413 11.66576992 -6 8 C-4.5625 6.4375 -4.5625 6.4375 -3 5 C-1.96642853 3.35394174 -0.95939668 1.69036558 0 0 Z " fill="#2688DD" transform="translate(401,262)"/>
<path d="M0 0 C1 3 1 3 1 5 C0.01 5.495 0.01 5.495 -1 6 C-2.12224855 7.88013106 -2.12224855 7.88013106 -3.125 10.0625 C-3.47820312 10.79597656 -3.83140625 11.52945313 -4.1953125 12.28515625 C-4.59363281 13.13400391 -4.59363281 13.13400391 -5 14 C-5.66 14 -6.32 14 -7 14 C-5.53967505 8.68972746 -3.01679014 4.53669968 0 0 Z " fill="#2689DE" transform="translate(332,504)"/>
<path d="M0 0 C0.99 0.33 1.98 0.66 3 1 C2.01 2.485 2.01 2.485 1 4 C0.34 4 -0.32 4 -1 4 C-1.0825 4.94875 -1.165 5.8975 -1.25 6.875 C-2 10 -2 10 -4.0625 11.375 C-4.701875 11.58125 -5.34125 11.7875 -6 12 C-4.43358249 7.69235185 -2.31663844 3.93828536 0 0 Z " fill="#1C85E5" transform="translate(492,228)"/>
<path d="M0 0 C0.625 1.8125 0.625 1.8125 1 4 C0.01 5.485 0.01 5.485 -1 7 C-1.66 7 -2.32 7 -3 7 C-3.2165625 8.175625 -3.2165625 8.175625 -3.4375 9.375 C-4 12 -4 12 -5 14 C-5.66 14 -6.32 14 -7 14 C-5.53967505 8.68972746 -3.01679014 4.53669968 0 0 Z " fill="#CEEFFD" transform="translate(386,291)"/>
<path d="M0 0 C0.33 0 0.66 0 1 0 C1.33663062 3.70293685 1.47736015 5.39534381 -0.875 8.375 C-3 10 -3 10 -5 10 C-3.66654496 6.40992874 -2.1056769 3.20429093 0 0 Z " fill="#238BE7" transform="translate(434,328)"/>
<path d="M0 0 C-1.64178265 4.77609498 -4.26546702 8.79382904 -7 13 C-8 11 -8 11 -7.3125 7.625 C-5.97229195 3.92347299 -4.43868866 0 0 0 Z " fill="#2287DE" transform="translate(445,189)"/>
<path d="M0 0 C0.99 0 1.98 0 3 0 C3.433125 1.216875 3.86625 2.43375 4.3125 3.6875 C5.29028015 6.33078127 6.27141458 8.44589538 7.75 10.875 C8.36875 11.926875 8.36875 11.926875 9 13 C8.67 13.66 8.34 14.32 8 15 C6.66121428 12.8782637 5.32884524 10.75294812 4 8.625 C3.6184375 8.02171875 3.236875 7.4184375 2.84375 6.796875 C0 2.2265625 0 2.2265625 0 0 Z " fill="#2385DC" transform="translate(293,188)"/>
<path d="M0 0 C0.33 0.66 0.66 1.32 1 2 C-0.77479455 7.22578394 -2.81188075 10.2646504 -7 14 C-5.53967505 8.68972746 -3.01679014 4.53669968 0 0 Z " fill="#2489E0" transform="translate(386,411)"/>
<path d="M0 0 C2.475 0.495 2.475 0.495 5 1 C5.33 3.97 5.66 6.94 6 10 C3.47650757 6.87567603 1.72743854 3.61939504 0 0 Z " fill="#1784E5" transform="translate(303,380)"/>
<path d="M0 0 C0.66 0 1.32 0 2 0 C1.42365861 4.75481646 -0.55068521 7.97048212 -3 12 C-3.66 12 -4.32 12 -5 12 C-3.41037341 7.96479403 -1.71767682 3.98188718 0 0 Z " fill="#2989DF" transform="translate(353,466)"/>
<path d="M0 0 C3.04049801 3.64859761 4.96518762 7.7444533 7 12 C6.01 12.495 6.01 12.495 5 13 C4.34 12.01 3.68 11.02 3 10 C2.67 10 2.34 10 2 10 C0.68373308 6.38026598 0 3.90432869 0 0 Z " fill="#2588E3" transform="translate(167,266)"/>
<path d="M0 0 C1 3 1 3 -0.25 6.125 C-2 9 -2 9 -5 10 C-3.66511872 6.40608886 -2.03977277 3.24509304 0 0 Z " fill="#D6F4FD" transform="translate(378,305)"/>
<path d="M0 0 C1.04449911 3.13349732 0.93423645 3.98968256 0 7 C-0.66 7 -1.32 7 -2 7 C-2.66 8.65 -3.32 10.3 -4 12 C-4.66 12 -5.32 12 -6 12 C-4.43358249 7.69235185 -2.31663844 3.93828536 0 0 Z " fill="#2989E0" transform="translate(483,243)"/>
<path d="M0 0 C0.33 0 0.66 0 1 0 C1.42820102 3.63970867 0.97413512 5.04569463 -0.875 8.3125 C-1.926875 9.6428125 -1.926875 9.6428125 -3 11 C-3.66 11 -4.32 11 -5 11 C-3.55049545 7.2089881 -1.84827434 3.6125362 0 0 Z " fill="#288AE1" transform="translate(408,372)"/>
<path d="M0 0 C0.66 0 1.32 0 2 0 C2.33 0.99 2.66 1.98 3 3 C3.99 3.33 4.98 3.66 6 4 C6 3.34 6 2.68 6 2 C6.66 2.33 7.32 2.66 8 3 C6.68 4.65 5.36 6.3 4 8 C0 2.25 0 2.25 0 0 Z " fill="#2585D7" transform="translate(365,312)"/>
<path d="M0 0 C0.6875 1.6875 0.6875 1.6875 1 4 C-0.25 6.6875 -0.25 6.6875 -2 9 C-2.99 9.33 -3.98 9.66 -5 10 C-3.66511872 6.40608886 -2.03977277 3.24509304 0 0 Z " fill="#D6F4FD" transform="translate(404,260)"/>
<path d="M0 0 C0.6875 1.6875 0.6875 1.6875 1 4 C-0.25 6.6875 -0.25 6.6875 -2 9 C-2.99 9.33 -3.98 9.66 -5 10 C-3.66511872 6.40608886 -2.03977277 3.24509304 0 0 Z " fill="#D3F1FE" transform="translate(434,208)"/>
<path d="M0 0 C-1.485 2.475 -1.485 2.475 -3 5 C-4.5 3.625 -4.5 3.625 -6 2 C-6 1.34 -6 0.68 -6 0 C-3 -1 -3 -1 0 0 Z " fill="#C4ECFD" transform="translate(373,435)"/>
<path d="M0 0 C2.79872437 2.52788007 4.45773019 4.20411134 5 8 C3.68 7.67 2.36 7.34 1 7 C0.67 4.69 0.34 2.38 0 0 Z " fill="#D0F1FD" transform="translate(284,349)"/>
<path d="M0 0 C0.33 1.32 0.66 2.64 1 4 C0.34 4 -0.32 4 -1 4 C-1.33 5.65 -1.66 7.3 -2 9 C-2.99 9.33 -3.98 9.66 -5 10 C-3.66511872 6.40608886 -2.03977277 3.24509304 0 0 Z " fill="#CFF1FD" transform="translate(394,277)"/>
<path d="M0 0 C0.66 0 1.32 0 2 0 C0.7508258 3.45925163 -0.67527795 6.14693203 -3 9 C-2.67 6.69 -2.34 4.38 -2 2 C-1.34 2 -0.68 2 0 2 C0 1.34 0 0.68 0 0 Z " fill="#D9F4FD" transform="translate(510,193)"/>
<path d="M0 0 C0.66 0 1.32 0 2 0 C2 0.66 2 1.32 2 2 C2.66 2 3.32 2 4 2 C4.99 3.485 4.99 3.485 6 5 C5.67 5.99 5.34 6.98 5 8 C5 7.34 5 6.68 5 6 C4.360625 5.7525 3.72125 5.505 3.0625 5.25 C1 4 1 4 0.25 1.875 C0.1675 1.25625 0.085 0.6375 0 0 Z " fill="#1384E8" transform="translate(271,324)"/>
<path d="M0 0 C4.42857143 5.14285714 4.42857143 5.14285714 5 9 C3.0625 8.4375 3.0625 8.4375 1 7 C0.25 3.375 0.25 3.375 0 0 Z " fill="#CAEEFD" transform="translate(252,293)"/>
<path d="M0 0 C1.32 0.33 2.64 0.66 4 1 C5.25 4.0625 5.25 4.0625 6 7 C5.01 7.495 5.01 7.495 4 8 C2.68 5.36 1.36 2.72 0 0 Z " fill="#D6F3FE" transform="translate(140,219)"/>
<path d="M0 0 C3.0916909 2.52956528 3.90931332 5.22454612 5 9 C2.5 6.75 2.5 6.75 0 4 C0 2.68 0 1.36 0 0 Z " fill="#2688DE" transform="translate(308,510)"/>
<path d="M0 0 C0.99 0 1.98 0 3 0 C4.125 5.625 4.125 5.625 3 9 C2.01 6.03 1.02 3.06 0 0 Z " fill="#1786EC" transform="translate(345,450)"/>
<path d="M0 0 C0.99 0 1.98 0 3 0 C3.66 2.97 4.32 5.94 5 9 C0.57142857 3.85714286 0.57142857 3.85714286 0 0 Z " fill="#D5F4FD" transform="translate(271,444)"/>
<path d="M0 0 C0.66 0 1.32 0 2 0 C0.90931332 3.77545388 0.0916909 6.47043472 -3 9 C-3 7.68 -3 6.36 -3 5 C-2.34 5 -1.68 5 -1 5 C-0.67 3.35 -0.34 1.7 0 0 Z " fill="#D9F5FE" transform="translate(420,348)"/>
</svg>
